<svg id="polygon" xmlns="http://www.w3.org/2000/svg" xml:space="preserve" viewBox="0 0 20 20"><circle cx="10" cy="10" r="9.985" fill="#8B43EE"/><path fill="#FFF" d="M13.064 7.903a.754.754 0 0 0-.756 0l-1.727 1.05-1.178.685-1.727 1.05a.754.754 0 0 1-.756 0l-1.376-.82a.786.786 0 0 1-.374-.66V7.593a.75.75 0 0 1 .374-.66l1.353-.796a.754.754 0 0 1 .756 0l1.352.795c.223.136.374.39.374.66v1.051l1.178-.708v-1.05a.751.751 0 0 0-.374-.66L7.676 4.72a.754.754 0 0 0-.756 0L4.374 6.224a.735.735 0 0 0-.374.66v3.024a.75.75 0 0 0 .374.661l2.546 1.504c.223.135.51.135.756 0l1.727-1.027 1.178-.708 1.727-1.026a.754.754 0 0 1 .756 0l1.352.795c.223.136.374.39.374.66v1.616a.75.75 0 0 1-.374.66l-1.352.82a.754.754 0 0 1-.756 0l-1.353-.795a.786.786 0 0 1-.374-.66v-1.051l-1.178.708v1.05c0 .271.135.526.374.66l2.547 1.505a.756.756 0 0 0 .756 0l2.546-1.504a.786.786 0 0 0 .374-.66v-3.024a.751.751 0 0 0-.374-.661l-2.562-1.528z"/></svg>