<svg width="213" height="83" fill="none" xmlns="http://www.w3.org/2000/svg"><path d="M.5 13h112a8 8 0 0 1 8 8v24a8 8 0 0 1-8 8H.5" stroke="url(#a)"/><path d="M.5 1h200c6.627 0 12 5.373 12 12v40c0 6.627-5.373 12-12 12H.5" stroke="url(#b)"/><path d="m101.147 26.09 2.168 4.219 4.097.398c.481.08.642.557.321.875l-3.374 3.343 1.286 4.536c.08.398-.322.876-.804.637l-4.176-2.15-4.097 2.07c-.24.16-.883-.08-.722-.637l1.285-4.615-3.454-3.184c-.24-.318-.321-.796.321-.875l4.097-.398 2.168-4.218c.241-.478.643-.398.884 0Z" stroke="#72768E" stroke-width="1.6" stroke-linecap="round" stroke-linejoin="round"/><rect x="133" y="13.5" width="39" height="39" rx="7.5" fill="#EEEFFA" stroke="#5060EE"/><path d="M165.892 34.727a3.583 3.583 0 0 0-3.584-3.58c-.628.001-.921.168-1.465.482l-.325-4.171a1.791 1.791 0 0 0-1.792-1.792l-3.67-.394c.315-.545.488-.768.489-1.398a3.584 3.584 0 0 0-5.376-3.107 3.583 3.583 0 0 0-1.79 3.107c.001.63.162.853.478 1.398l-4.462.394a1.792 1.792 0 0 0-1.791 1.792l.055 2.043c.025.9.908 1.54 1.783 1.75a3.585 3.585 0 0 1 1.694.943 3.583 3.583 0 0 1 0 5.067 3.585 3.585 0 0 1-1.694.942c-.876.211-1.759.85-1.785 1.75l-.053 1.836c0 .475.188.93.524 1.267 2.611 1.726 14.605 1.551 16.865 0 .336-.336.525-.792.525-1.267l.325-3.962c.544.315.837.48 1.465.48a3.584 3.584 0 0 0 3.584-3.58Z" fill="#CFD4FF" stroke="#5060EE" stroke-width="2" stroke-linecap="round" stroke-linejoin="round"/><g clip-path="url(#c)" fill="#31333F"><circle cx="193" cy="27.031" r="2" transform="rotate(90 193 27.031)"/><circle cx="193" cy="33.031" r="2" transform="rotate(90 193 33.031)"/><circle cx="193" cy="39.031" r="2" transform="rotate(90 193 39.031)"/></g><path d="M152.491 57c.02.392 0 1.333 0 1.727.042 12.252-9.579 22.434-21.991 23.273" stroke="#31333F" stroke-width="2" stroke-linecap="round" stroke-linejoin="round"/><path d="M147.283 62.233 152.517 57l5.233 5.233" stroke="#31333F" stroke-width="2" stroke-linecap="round" stroke-linejoin="round"/><defs><linearGradient id="a" x1="112.523" y1="33" x2=".5" y2="33" gradientUnits="userSpaceOnUse"><stop stop-color="#D1D3E3"/><stop offset="1" stop-color="#D1D3E3" stop-opacity="0"/></linearGradient><linearGradient id="b" x1="198.408" y1="33" x2=".5" y2="33" gradientUnits="userSpaceOnUse"><stop stop-color="#D1D3E3"/><stop offset="1" stop-color="#D1D3E3" stop-opacity="0"/></linearGradient><clipPath id="c"><rect x="200.5" y="41" width="16" height="16" rx="8" transform="rotate(-180 200.5 41)" fill="#fff"/></clipPath></defs></svg>