<svg width="213" height="83" fill="none" xmlns="http://www.w3.org/2000/svg"><path d="M0 13h112a8 8 0 0 1 8 8v24a8 8 0 0 1-8 8H0" stroke="url(#a)"/><path d="M0 1h200c6.627 0 12 5.373 12 12v40c0 6.627-5.373 12-12 12H0" stroke="url(#b)"/><path d="m100.647 26.09 2.168 4.219 4.097.398c.481.08.642.557.321.875l-3.374 3.343 1.286 4.536c.08.398-.322.876-.804.637l-4.176-2.15-4.097 2.07c-.24.16-.883-.08-.722-.637l1.285-4.615-3.454-3.184c-.24-.318-.321-.796.321-.875l4.097-.398 2.168-4.218c.241-.478.643-.398.884 0Z" stroke="#72768E" stroke-width="1.6" stroke-linecap="round" stroke-linejoin="round"/><rect x="132.5" y="13.5" width="39" height="39" rx="7.5" fill="#EEEFFA" stroke="#5060EE"/><rect x="164" y="45" width="15" height="15" rx="4" fill="#5060EE"/><path d="M169.5 50.44c.387-.153.773-.35 1.16-.59.393-.24.74-.523 1.04-.85h.85v6.93h-1.21v-5.31a3.9 3.9 0 0 1-.68.41 6.923 6.923 0 0 1-.79.33l-.37-.92Z" fill="#fff"/><path d="m162.806 21.9-9.365 7.034 1.732-4.15 7.633-2.884Z" fill="#E2761B" stroke="#E2761B" stroke-width=".095" stroke-linecap="round" stroke-linejoin="round"/><path d="m141.186 21.9 9.289 7.1-1.647-4.216-7.642-2.884Zm18.248 16.303-2.495 3.865 5.337 1.485 1.534-5.264-4.376-.086Zm-19.237.087 1.525 5.263 5.336-1.485-2.494-3.864-4.367.085Z" fill="#E4761B" stroke="#E4761B" stroke-width=".095" stroke-linecap="round" stroke-linejoin="round"/><path d="m146.757 31.675-1.487 2.274 5.298.239-.188-5.759-3.623 3.246Zm10.475 0-3.67-3.313-.123 5.825 5.29-.237-1.497-2.275Zm-10.173 10.393 3.181-1.57-2.748-2.17-.433 3.74Zm6.691-1.57 3.191 1.57-.443-3.74-2.748 2.17Z" fill="#E4761B" stroke="#E4761B" stroke-width=".095" stroke-linecap="round" stroke-linejoin="round"/><path d="m156.941 42.068-3.191-1.57.254 2.103-.028.885 2.965-1.418Zm-9.882 0 2.964 1.418-.019-.885.236-2.103-3.181 1.57Z" fill="#D7C1B3" stroke="#D7C1B3" stroke-width=".095" stroke-linecap="round" stroke-linejoin="round"/><path d="m150.072 36.938-2.654-.79 1.873-.866.781 1.656Zm3.848 0 .781-1.656 1.882.866-2.663.79Z" fill="#233447" stroke="#233447" stroke-width=".095" stroke-linecap="round" stroke-linejoin="round"/><path d="m147.059 42.068.451-3.864-2.946.085 2.495 3.779Zm9.431-3.865.452 3.865 2.494-3.779-2.946-.086Zm2.239-4.253-5.29.237.49 2.751.781-1.656 1.882.866 2.137-2.199Zm-11.314 2.198 1.883-.866.772 1.656.498-2.75-5.298-.239 2.145 2.2Z" fill="#CD6116" stroke="#CD6116" stroke-width=".095" stroke-linecap="round" stroke-linejoin="round"/><path d="m145.27 33.95 2.221 4.378-.076-2.18-2.145-2.199Zm11.322 2.198-.094 2.18 2.231-4.379-2.137 2.2Zm-6.023-1.96-.499 2.75.621 3.246.142-4.274-.264-1.722Zm2.869 0-.254 1.713.113 4.283.63-3.246-.489-2.75Z" fill="#E4751F" stroke="#E4751F" stroke-width=".095" stroke-linecap="round" stroke-linejoin="round"/><path d="m153.929 36.938-.63 3.245.452.314 2.748-2.17.094-2.18-2.664.79Zm-6.511-.79.075 2.18 2.748 2.17.452-.315-.621-3.245-2.654-.79Z" fill="#F6851B" stroke="#F6851B" stroke-width=".095" stroke-linecap="round" stroke-linejoin="round"/><path d="m153.976 43.486.028-.885-.235-.21h-3.548l-.217.21.019.885-2.964-1.418 1.035.857 2.099 1.475h3.604l2.109-1.475 1.035-.857-2.965 1.418Z" fill="#C0AD9E" stroke="#C0AD9E" stroke-width=".095" stroke-linecap="round" stroke-linejoin="round"/><path d="m153.75 40.498-.452-.314h-2.607l-.452.314-.235 2.103.216-.209h3.549l.235.21-.254-2.104Z" fill="#161616" stroke="#161616" stroke-width=".095" stroke-linecap="round" stroke-linejoin="round"/><path d="m163.199 29.39.8-3.883-1.195-3.607-9.054 6.796 3.482 2.979 4.923 1.456 1.091-1.285-.47-.343.753-.694-.584-.457.753-.58-.499-.381ZM140 25.507l.8 3.883-.508.381.753.58-.574.458.753.694-.471.343 1.082 1.285 4.923-1.456 3.482-2.98-9.054-6.795L140 25.507Z" fill="#763D16" stroke="#763D16" stroke-width=".095" stroke-linecap="round" stroke-linejoin="round"/><path d="m162.156 33.131-4.922-1.456 1.497 2.275-2.231 4.378 2.936-.038h4.377l-1.657-5.159Zm-15.399-1.456-4.922 1.456-1.638 5.159h4.367l2.927.038-2.221-4.378 1.487-2.275Zm6.683 2.513.31-5.492 1.431-3.912h-6.353l1.412 3.912.329 5.491.113 1.733.01 4.264h2.607l.019-4.264.122-1.733Z" fill="#F6851B" stroke="#F6851B" stroke-width=".095" stroke-linecap="round" stroke-linejoin="round"/><g clip-path="url(#c)" fill="#31333F"><circle cx="192.5" cy="27.031" r="2" transform="rotate(90 192.5 27.031)"/><circle cx="192.5" cy="33.031" r="2" transform="rotate(90 192.5 33.031)"/><circle cx="192.5" cy="39.031" r="2" transform="rotate(90 192.5 39.031)"/></g><path d="M151.991 57c.02.392 0 1.333 0 1.727C152.033 70.979 142.412 81.16 130 82" stroke="#31333F" stroke-width="2" stroke-linecap="round" stroke-linejoin="round"/><path d="M146.783 62.233 152.017 57l5.233 5.233" stroke="#31333F" stroke-width="2" stroke-linecap="round" stroke-linejoin="round"/><defs><linearGradient id="a" x1="112.023" y1="33" x2="0" y2="33" gradientUnits="userSpaceOnUse"><stop stop-color="#D1D3E3"/><stop offset="1" stop-color="#D1D3E3" stop-opacity="0"/></linearGradient><linearGradient id="b" x1="197.908" y1="33" x2="0" y2="33" gradientUnits="userSpaceOnUse"><stop stop-color="#D1D3E3"/><stop offset="1" stop-color="#D1D3E3" stop-opacity="0"/></linearGradient><clipPath id="c"><rect x="200" y="41" width="16" height="16" rx="8" transform="rotate(-180 200 41)" fill="#fff"/></clipPath></defs></svg>