<svg width="213" height="83" viewBox="0 0 213 83" fill="none" xmlns="http://www.w3.org/2000/svg"><path d="M0 13h112a8 8 0 0 1 8 8v24a8 8 0 0 1-8 8H0" stroke="url(#paint0_linear_22990_164118)"/><path d="M0 1h200c6.627 0 12 5.373 12 12v40c0 6.627-5.373 12-12 12H0" stroke="url(#paint1_linear_22990_164118)"/><path d="m100.647 26.09 2.168 4.219 4.097.398c.481.08.642.557.321.875l-3.374 3.343 1.286 4.536c.08.398-.322.876-.804.637l-4.176-2.15-4.097 2.07c-.24.16-.883-.08-.722-.637l1.285-4.615-3.454-3.184c-.24-.318-.321-.796.321-.875l4.097-.398 2.168-4.218c.241-.478.643-.398.884 0Z" stroke="#788A98" stroke-width="1.6" stroke-linecap="round" stroke-linejoin="round"/><rect x="132.5" y="13.5" width="39" height="39" rx="7.5" fill="#2C3139" stroke="#8692FF"/><rect x="164" y="45" width="15" height="15" rx="4" fill="#8692FF"/><path d="M169.5 50.44c.387-.153.773-.35 1.16-.59.393-.24.74-.523 1.04-.85h.85v6.93h-1.21v-5.31a3.9 3.9 0 0 1-.68.41 6.923 6.923 0 0 1-.79.33l-.37-.92Z" fill="white"/><path d="m162.802 21.9-9.364 7.034 1.731-4.15 7.633-2.884Z" fill="#E2761B" stroke="#E2761B" stroke-width="0.0951777" stroke-linecap="round" stroke-linejoin="round"/><path d="m141.188 21.9 9.289 7.1-1.647-4.216-7.642-2.884ZM159.432 38.203l-2.494 3.864 5.336 1.485 1.534-5.263-4.376-.086ZM140.195 38.289l1.525 5.263 5.336-1.485-2.494-3.864-4.367.086Z" fill="#E4761B" stroke="#E4761B" stroke-width="0.0951777" stroke-linecap="round" stroke-linejoin="round"/><path d="m146.753 31.675-1.487 2.275 5.298.238-.188-5.758-3.623 3.245ZM157.23 31.675l-3.67-3.312-.122 5.825 5.289-.238-1.497-2.275ZM147.055 42.069l3.181-1.57-2.748-2.17-.433 3.74ZM153.75 40.498l3.191 1.57-.443-3.74-2.748 2.17Z" fill="#E4761B" stroke="#E4761B" stroke-width="0.0951777" stroke-linecap="round" stroke-linejoin="round"/><path d="m156.948 42.069-3.19-1.571.254 2.104-.028.885 2.964-1.419ZM147.062 42.069l2.965 1.418-.019-.886.236-2.103-3.182 1.57Z" fill="#D7C1B3" stroke="#D7C1B3" stroke-width="0.0951777" stroke-linecap="round" stroke-linejoin="round"/><path d="m150.076 36.937-2.654-.79 1.873-.866.781 1.656ZM153.922 36.937l.781-1.656 1.882.866-2.663.79Z" fill="#233447" stroke="#233447" stroke-width="0.0951777" stroke-linecap="round" stroke-linejoin="round"/><path d="m147.057 42.067.451-3.864-2.946.086 2.495 3.778ZM156.484 38.203l.452 3.864 2.494-3.778-2.946-.086ZM158.727 33.95l-5.289.237.489 2.75.781-1.655 1.882.866 2.137-2.199ZM147.412 36.148l1.882-.866.772 1.656.498-2.75-5.298-.239 2.146 2.199Z" fill="#CD6116" stroke="#CD6116" stroke-width="0.0951777" stroke-linecap="round" stroke-linejoin="round"/><path d="m145.266 33.95 2.221 4.377-.075-2.18-2.146-2.198ZM156.586 36.148l-.094 2.18 2.231-4.379-2.137 2.199ZM150.561 34.188l-.499 2.75.622 3.246.141-4.274-.264-1.722ZM153.434 34.188l-.254 1.713.113 4.283.63-3.246-.489-2.75Z" fill="#E4751F" stroke="#E4751F" stroke-width="0.0951777" stroke-linecap="round" stroke-linejoin="round"/><path d="m153.927 36.938-.63 3.246.452.314 2.748-2.17.094-2.18-2.664.79ZM147.422 36.148l.075 2.18 2.748 2.17.452-.314-.621-3.246-2.654-.79Z" fill="#F6851B" stroke="#F6851B" stroke-width="0.0951777" stroke-linecap="round" stroke-linejoin="round"/><path d="m153.972 43.486.029-.885-.236-.209h-3.548l-.216.21.018.885-2.964-1.419 1.035.857 2.099 1.475h3.605l2.108-1.475 1.035-.857-2.965 1.419Z" fill="#C0AD9E" stroke="#C0AD9E" stroke-width="0.0951777" stroke-linecap="round" stroke-linejoin="round"/><path d="m153.746 40.498-.452-.314h-2.607l-.452.314L150 42.6l.216-.21h3.549l.235.21-.254-2.103Z" fill="#161616" stroke="#161616" stroke-width="0.0951777" stroke-linecap="round" stroke-linejoin="round"/><path d="m163.199 29.39.8-3.882-1.195-3.608-9.054 6.796 3.482 2.98 4.923 1.455 1.091-1.285-.47-.342.753-.695-.584-.457.753-.58-.499-.381ZM140 25.508l.8 3.883-.508.38.753.581-.574.457.753.695-.471.342 1.082 1.285 4.923-1.456 3.482-2.979-9.054-6.796L140 25.508Z" fill="#763D16" stroke="#763D16" stroke-width="0.0951777" stroke-linecap="round" stroke-linejoin="round"/><path d="m162.156 33.132-4.922-1.456 1.497 2.274-2.231 4.379 2.936-.038h4.377l-1.657-5.159ZM146.755 31.676l-4.922 1.456-1.638 5.159h4.367l2.927.038-2.221-4.379 1.487-2.274ZM153.44 34.189l.31-5.492 1.431-3.912h-6.353l1.412 3.912.329 5.492.113 1.732.01 4.264h2.607l.019-4.264.122-1.732Z" fill="#F6851B" stroke="#F6851B" stroke-width="0.0951777" stroke-linecap="round" stroke-linejoin="round"/><g clip-path="url(#clip0_22990_164118)"><circle cx="192.5" cy="27.0312" r="2" transform="rotate(90 192.5 27.0312)" fill="#788A98"/><circle cx="192.5" cy="33.0312" r="2" transform="rotate(90 192.5 33.0312)" fill="#788A98"/><circle cx="192.5" cy="39.0312" r="2" transform="rotate(90 192.5 39.0312)" fill="#788A98"/></g><path d="M151.991 57c.02.392 0 1.333 0 1.727C152.033 70.979 142.412 81.16 130 82" stroke="#E3E8EA" stroke-width="2" stroke-linecap="round" stroke-linejoin="round"/><path d="M146.781 62.233 152.015 57l5.233 5.233" stroke="#E3E8EA" stroke-width="2" stroke-linecap="round" stroke-linejoin="round"/><defs><linearGradient id="paint0_linear_22990_164118" x1="112.023" y1="33" x2="-3.73189e-07" y2="33" gradientUnits="userSpaceOnUse"><stop stop-color="#3D444D"/><stop offset="1" stop-color="#D1D3E3" stop-opacity="0"/></linearGradient><linearGradient id="paint1_linear_22990_164118" x1="197.908" y1="33" x2="-6.593e-07" y2="33" gradientUnits="userSpaceOnUse"><stop stop-color="#3D444D"/><stop offset="1" stop-color="#D1D3E3" stop-opacity="0"/></linearGradient><clipPath id="clip0_22990_164118"><rect x="200" y="41" width="16" height="16" rx="8" transform="rotate(-180 200 41)" fill="white"/></clipPath></defs></svg>