<svg width="222" height="101" viewBox="0 0 222 101" fill="none" xmlns="http://www.w3.org/2000/svg"><path d="M.75 50.25h48" stroke="#E2E3F1"/><path d="m138.972 65.698 11.587-11.586a6.05 6.05 0 0 0 0-8.554l-35.282-35.282a6.049 6.049 0 0 0-8.554 0L71.442 45.558a6.048 6.048 0 0 0 0 8.553l35.281 35.282a6.049 6.049 0 0 0 8.554 0l12.355-12.355m6.804-6.804-2.683 2.683" stroke="#DE5846" stroke-width="2" stroke-linecap="round" stroke-linejoin="round"/><path fill-rule="evenodd" clip-rule="evenodd" d="M119.153 63.586h-15.508a2.215 2.215 0 0 1-2.215-2.216V41.432h19.938V61.37a2.215 2.215 0 0 1-2.215 2.216Z" fill="#FFE0DA" stroke="#31333F" stroke-width="2" stroke-linecap="round" stroke-linejoin="round"/><path d="M108.078 56.938v-8.862m6.645 8.862v-8.862M97 41.432h28.8" stroke="#31333F" stroke-width="2" stroke-linecap="round" stroke-linejoin="round"/><path fill-rule="evenodd" clip-rule="evenodd" d="M114.721 37h-6.646a2.216 2.216 0 0 0-2.216 2.215v2.216h11.077v-2.216A2.215 2.215 0 0 0 114.721 37Z" stroke="#31333F" stroke-width="2" stroke-linecap="round" stroke-linejoin="round"/><path d="m97.014 13.986 7.571-7.571a9.072 9.072 0 0 1 12.83 0l37.42 37.42a9.072 9.072 0 0 1 0 12.83l-37.42 37.42a9.072 9.072 0 0 1-12.83 0l-37.42-37.42a9.072 9.072 0 0 1 0-12.83L80.76 30.24m13.23-13.23-9.828 9.828" stroke="#DE5846" stroke-width="2" stroke-linecap="round" stroke-linejoin="round"/><path d="M173.25 50.25h48" stroke="#E2E3F1"/></svg>