<svg xmlns="http://www.w3.org/2000/svg" viewBox="0 0 449 386" fill="none"><path d="M385 1h60.235A3.765 3.765 0 0 1 449 4.765V65M385 1v64m0-64h-64m64 64h64m-64 0h-64m64 0v64m64-64v64M321 1v64m0-64h-64m64 64h-64m64 0v64M257 1v64m0-64h-64m64 64h-64m64 0v64M193 1v64m0-64h-60.235A3.765 3.765 0 0 0 129 4.765v56.47A3.765 3.765 0 0 0 132.765 65H193m0 0v60.235a3.765 3.765 0 0 0 3.765 3.765H257m128 0h64m-64 0h-64m64 0v64m64-64v64m-128-64h-64m64 0v64m-64-64v64m128 0h64m-64 0h-64m64 0v64m64-64v64m-128-64h-64m64 0v64m-64-64v64m128 0h64m-64 0h-64m64 0v64m64-64v64m-128-64h-64m64 0v64m-64-64h-64m64 0v64m-64-64h-60.235a3.765 3.765 0 0 0-3.765 3.765V321m64-64v64m192 0h64m-64 0h-64m64 0v64m64-64v60.235a3.765 3.765 0 0 1-3.765 3.765H385m-64-64h-64m64 0v64m-64-64h-64m64 0v64m-64-64h-64m64 0v64m-64-64H65m64 0v64m-64-64H4.765A3.765 3.765 0 0 0 1 324.765v56.47A3.765 3.765 0 0 0 4.765 385H65m0-64v64m320 0h-64m0 0h-64m0 0h-64m0 0h-64m0 0H65" stroke="url(#paint0_linear_20034_1493)" stroke-opacity="0.15" stroke-width="1.5"/><defs><linearGradient id="paint0_linear_20034_1493" x1="174.5" y1="398" x2="137.5" y2="220.5" gradientUnits="userSpaceOnUse"><stop stop-color="#ECEDF9" stop-opacity="0"/><stop offset="0.505208" stop-color="#ECEDF9" stop-opacity="0.67"/><stop offset="1" stop-color="#ECEDF9" stop-opacity="0"/></linearGradient></defs></svg>