<svg viewBox="0 0 413 235" fill="none" xmlns="http://www.w3.org/2000/svg"><path d="M58.857 234H4a4 4 0 0 1-4-4v-54.5M58.857 234h58.857m-58.857 0v-58.5m58.857 58.5h54.857a4 4 0 0 0 4-4v-54.5M117.714 234v-58.5m-58.857 0H0m58.857 0h58.857m-58.857 0V117M0 175.5V117m117.714 58.5h58.857m-58.857 0V117m58.857 58.5V117m-117.714 0H0m58.857 0h58.857m-58.857 0V58.5M0 117V58.5M117.714 117h58.857m-58.857 0V58.5m58.857 58.5h58.858m-58.858 0V58.5m58.858 58.5h54.857a4 4 0 0 0 4-4V58.5M235.429 117V58.5m-176.572 0H0m58.857 0h58.857m-58.857 0V0M0 58.5V4a4 4 0 0 1 4-4h54.857m58.857 58.5h58.857m-58.857 0V0m58.857 58.5h58.858m-58.858 0V0m58.858 58.5h58.857m-58.857 0V0m58.857 58.5h58.857m-58.857 0V0m58.857 58.5H408a4 4 0 0 0 4-4V4a4 4 0 0 0-4-4h-54.857m0 58.5V0M58.857 0h58.857m0 0h58.857m0 0h58.858m0 0h58.857m0 0h58.857" stroke="url(#paint0_linear_20034_2537)" stroke-opacity="0.15" stroke-width="1.37946"/><defs><linearGradient id="paint0_linear_20034_2537" x1="273.134" y1="139.579" x2="206.663" y2="-0.314831" gradientUnits="userSpaceOnUse"><stop stop-color="#ECEDF9" stop-opacity="0"/><stop offset="1" stop-color="#ECEDF9"/></linearGradient></defs></svg>