<svg width="212" height="121" viewBox="0 0 212 121" fill="none" xmlns="http://www.w3.org/2000/svg"><path d="M181.817.92H208a4 4 0 0 1 4 4v26m-30.183-30h-30.183m30.183 0v30m-30.183-30h-26.183a4 4 0 0 0-4 4v26m30.183-30v30m30.183 0H212m-30.183 0h-30.183m30.183 0v30m30.183-30v30m-60.366-30h-30.183m30.183 0v30m-30.183-30v30m60.366 0H212m-30.183 0h-30.183m30.183 0v30m30.183-30v30m-60.366-30h-30.183m30.183 0v30m-30.183-30H91.267m30.184 0v30m-30.184-30H65.084a4 4 0 0 0-4 4v26m30.183-30v30m90.55 0H212m-30.183 0h-30.183m30.183 0v29.999m30.183-30v26a4 4 0 0 1-4 4h-26.183m-30.183-30h-30.183m30.183 0v30m-30.183-30H91.267m30.184 0v30m-30.184-30H61.084m30.183 0v30m-30.183-30H30.901m30.183 0v30m-30.183-30H4.718a4 4 0 0 0-4 4v22a4 4 0 0 0 4 4h26.183m0-30v30m150.916 0h-30.183m0 0h-30.183m0 0H91.267m0 0H61.084m0 0H30.901" stroke="url(#paint0_linear_20116_8044)" stroke-opacity="0.15" stroke-width="1.37946"/><defs><linearGradient id="paint0_linear_20116_8044" x1="71.9313" y1="49.3403" x2="106.019" y2="121.081" gradientUnits="userSpaceOnUse"><stop stop-color="#ECEDF9" stop-opacity="0"/><stop offset="1" stop-color="#ECEDF9"/></linearGradient></defs></svg>