<svg width="413" height="235" viewBox="0 0 413 235" fill="none" xmlns="http://www.w3.org/2000/svg"><path d="M354.143 1H409a4 4 0 0 1 4 4v54.5M354.143 1h-58.857m58.857 0v58.5M295.286 1h-54.857a4 4 0 0 0-4 4v54.5M295.286 1v58.5m58.857 0H413m-58.857 0h-58.857m58.857 0V118M413 59.5V118M295.286 59.5h-58.857m58.857 0V118m-58.857-58.5V118m117.714 0H413m-58.857 0h-58.857m58.857 0v58.5M413 118v58.5M295.286 118h-58.857m58.857 0v58.5M236.429 118h-58.858m58.858 0v58.5M177.571 118h-54.857a4 4 0 0 0-4 4v54.5m58.857-58.5v58.5m176.572 0H413m-58.857 0h-58.857m58.857 0V235M413 176.5V231a4 4 0 0 1-4 4h-54.857m-58.857-58.5h-58.857m58.857 0V235m-58.857-58.5h-58.858m58.858 0V235m-58.858-58.5h-58.857m58.857 0V235m-58.857-58.5H59.857m58.857 0V235m-58.857-58.5H5a4 4 0 0 0-4 4V231a4 4 0 0 0 4 4h54.857m0-58.5V235m294.286 0h-58.857m0 0h-58.857m0 0h-58.858m0 0h-58.857m0 0H59.857" stroke="url(#paint0_linear_20111_6159)" stroke-opacity="0.15" stroke-width="1.37946"/><defs><linearGradient id="paint0_linear_20111_6159" x1="139.866" y1="95.4207" x2="206.337" y2="235.315" gradientUnits="userSpaceOnUse"><stop stop-color="#ECEDF9" stop-opacity="0"/><stop offset="1" stop-color="#ECEDF9"/></linearGradient></defs></svg>