<svg width="212" height="122" viewBox="0 0 212 122" fill="none" xmlns="http://www.w3.org/2000/svg"><path d="M30.183 120.919H4a4 4 0 0 1-4-4v-26m30.183 30h30.183m-30.183 0v-30m30.183 30H86.55a4 4 0 0 0 4-4v-26m-30.183 30v-30m-30.183 0H0m30.183 0h30.183m-30.183 0v-30M0 90.92v-30m60.366 30H90.55m-30.183 0v-30m30.183 30v-30m-60.366 0H0m30.183 0h30.183m-30.183 0v-30M0 60.92v-30m60.366 30H90.55m-30.183 0v-30m30.183 30h30.184m-30.184 0v-30m30.184 30h26.183a4 4 0 0 0 4-4v-26m-30.183 30v-30m-90.55 0H0m30.183 0h30.183m-30.183 0v-30M0 30.92v-26a4 4 0 0 1 4-4h26.183m30.183 30H90.55m-30.183 0v-30m30.183 30h30.184m-30.184 0v-30m30.184 30h30.183m-30.183 0v-30m30.183 30H181.1m-30.183 0v-30m30.183 30h26.183a4 4 0 0 0 4-4v-22a4 4 0 0 0-4-4H181.1m0 30v-30M30.183.92h30.183m0 0H90.55m0 0h30.184m0 0h30.183m0 0H181.1" stroke="url(#paint0_linear_20116_8043)" stroke-opacity="0.15" stroke-width="1.37946"/><defs><linearGradient id="paint0_linear_20116_8043" x1="140.069" y1="72.4986" x2="105.981" y2="0.757985" gradientUnits="userSpaceOnUse"><stop stop-color="#ECEDF9" stop-opacity="0"/><stop offset="1" stop-color="#ECEDF9"/></linearGradient></defs></svg>