<svg viewBox="0 0 104 106" fill="none" xmlns="http://www.w3.org/2000/svg"><rect width="71.4458" height="14.2892" transform="matrix(0.965926 -0.258819 -0.258819 -0.965926 5.92244 35.3936)" fill="#ECEDF9"/><path d="m6.079 35.548 17.752 66.251a2.857 2.857 0 0 0 3.5 2.02l63.49-17.012a2.858 2.858 0 0 0 2.021-3.5l-2.539-9.476M69.12 83.376 31.23 93.53 17.362 41.77l18.799-5.037M72.69 8.101l-1.334-4.979-10.19 2.73M42.59 10.83 2.345 21.614l3.699 13.802 31.903-8.548" stroke="#E2E3F1" stroke-width="2" stroke-linecap="round"/><path d="m44.852 15.146 55.209 14.793-14.053 52.45a2.858 2.858 0 0 1-3.5 2.02L32.82 71.095a2.858 2.858 0 0 1-2.021-3.5l14.053-52.449Z" fill="#ECEDF9"/><path d="m49.904 23.897 41.407 11.095-11.095 41.406L38.81 65.303l11.095-41.406Zm-5.052-8.751 55.209 14.793 2.959-11.041L47.81 4.104l-2.958 11.042Z" fill="#D1D3E3"/><path d="M71.372 57.225a9.208 9.208 0 0 0-15.94-4.271m4.358-9.397-.265.988m12.779 2.365-.265.988" stroke="#212225" stroke-width="2" stroke-linecap="round" stroke-linejoin="round"/></svg>