<svg viewBox="0 0 103 106" fill="none" xmlns="http://www.w3.org/2000/svg"><rect width="71.4458" height="14.2892" transform="matrix(0.965926 -0.258819 -0.258819 -0.965926 5.42188 35.394)" fill="#5060EE"/><path d="m5.577 35.548 17.752 66.251a2.859 2.859 0 0 0 3.5 2.021l63.49-17.013a2.858 2.858 0 0 0 2.022-3.5l-2.54-9.475M68.62 83.376 30.729 93.53 16.86 41.77l18.8-5.037M72.19 8.101l-1.335-4.978-10.19 2.73M42.09 10.83 1.844 21.614l3.698 13.802 31.903-8.548" stroke="#6B7AFF" stroke-width="2" stroke-linecap="round"/><path d="M44.352 15.146 99.56 29.94 85.507 82.388a2.858 2.858 0 0 1-3.5 2.021L32.32 71.095a2.858 2.858 0 0 1-2.02-3.5l14.053-52.448Z" fill="#6B7AFF"/><path d="m49.404 23.897 41.407 11.095-11.095 41.406L38.31 65.303l11.094-41.406ZM44.352 15.146l55.21 14.793 2.958-11.041L47.311 4.104l-2.959 11.042Z" fill="#3D4CD3"/><path d="M70.873 57.225a9.208 9.208 0 0 0-15.94-4.271M59.29 43.558l-.265.988M71.806 46.91l-.265.989" stroke="#E5E8FF" stroke-width="2" stroke-linecap="round" stroke-linejoin="round"/></svg>