<svg viewBox="0 0 104 106" fill="none" xmlns="http://www.w3.org/2000/svg"><rect width="71.4458" height="14.2892" transform="matrix(0.965926 -0.258819 -0.258819 -0.965926 5.92188 35.3937)" fill="#454F59"/><path d="m6.077 35.548 17.752 66.251a2.857 2.857 0 0 0 3.5 2.02l63.49-17.012a2.858 2.858 0 0 0 2.022-3.5l-2.54-9.476M69.12 83.376 31.229 93.53 17.36 41.77l18.8-5.037M72.69 8.101l-1.335-4.979-10.19 2.73M42.59 10.83 2.344 21.614l3.698 13.802 31.903-8.548" stroke="#454F59" stroke-width="2" stroke-linecap="round"/><path d="m44.85 15.146 55.21 14.793-14.054 52.45a2.858 2.858 0 0 1-3.5 2.02L32.818 71.095a2.858 2.858 0 0 1-2.02-3.5L44.85 15.146Z" fill="#454F59"/><path d="M49.904 23.897 91.31 34.992 80.215 76.398 38.81 65.304l11.095-41.407Zm-5.052-8.751L100.06 29.94l2.958-11.042L47.81 4.105l-2.959 11.041Z" fill="#505D6A"/><path d="M71.372 57.225a9.208 9.208 0 0 0-15.94-4.271m4.358-9.396-.266.987m12.781 2.365-.265.989" stroke="#212225" stroke-width="2" stroke-linecap="round" stroke-linejoin="round"/></svg>