<svg viewBox="0 0 104 106" fill="none" xmlns="http://www.w3.org/2000/svg">
<rect width="71.4458" height="14.2892" transform="matrix(0.965926 -0.258819 -0.258819 -0.965926 5.92188 35.3937)" fill="#454F59"/>
<path d="M6.0773 35.5477L23.8292 101.799C24.2377 103.323 25.8047 104.228 27.3293 103.819L90.8197 86.8072C92.3443 86.3987 93.249 84.8316 92.8405 83.3071L90.3015 73.8314M69.1187 83.3762L31.2289 93.5288L17.3602 41.7703L36.1592 36.7331M72.6892 8.10121L71.3551 3.12238L61.1652 5.85274M42.5893 10.8301L2.34375 21.6139L6.04206 35.4162L37.9454 26.8677" stroke="#454F59" stroke-width="2" stroke-linecap="round"/>
<path d="M44.8509 15.1463L100.06 29.9395L86.0064 82.3881C85.5979 83.9127 84.0308 84.8174 82.5063 84.4089L32.8181 71.095C31.2935 70.6865 30.3888 69.1195 30.7973 67.5949L44.8509 15.1463Z" fill="#454F59"/>
<path d="M49.9035 23.8967L91.3103 34.9916L80.2154 76.3984L38.8086 65.3035L49.9035 23.8967Z" fill="#505D6A"/>
<path d="M44.8515 15.1464L100.061 29.9396L103.019 18.8978L47.8102 4.10455L44.8515 15.1464Z" fill="#505D6A"/>
<path d="M71.3723 57.2249C70.683 53.7937 68.1081 51.0498 64.7276 50.144C61.3471 49.2382 57.7453 50.327 55.4327 52.9539" stroke="#212225" stroke-width="2" stroke-linecap="round" stroke-linejoin="round"/>
<path d="M59.7891 43.5576L59.5243 44.5455" stroke="#212225" stroke-width="2" stroke-linecap="round" stroke-linejoin="round"/>
<path d="M72.3047 46.9108L72.04 47.8988" stroke="#212225" stroke-width="2" stroke-linecap="round" stroke-linejoin="round"/>
</svg>
