<svg width="104" height="104" viewBox="0 0 104 104" fill="none" xmlns="http://www.w3.org/2000/svg"><path d="M64.781 74.526V23.758C64.781 11.74 55.04 2 43.023 2c8.649.5 13.649 10 2.149 10.5-1.5 1 7.644.768 8 .954 4.255 2.215 11.258 9.157 2.975 15.103 0 .87-5.475.943-4.475 7.943 1.5-3 4.475-1.72 4.475 1.253 0 5.247 4.835 2.747 4.835 18.067v22.16h5.18c8.393 0 15.197-6.804 15.197-15.197 0-8.373-8.98-11.937-8.98-20.03 0-6.486 5.258-11.743 11.743-11.743 5.9 0 10.784 4.352 11.617 10.021.139.944.898 1.722 1.852 1.722.954 0 1.737-.777 1.63-1.724-.856-7.581-7.29-13.472-15.1-13.472-8.392 0-15.195 6.803-15.195 15.196 0 8.634 8.98 13.545 8.98 20.03 0 6.486-5.258 11.743-11.743 11.743H64.78Z" fill="#212B83" class="fill-theme-primary-900 dark:fill-theme-dark-300"/><path d="m62.367 96.925-.803-.574a1.381 1.381 0 0 1-.579-1.124V77.98m1.382 18.946v-3.073c0-1.852 3.072-2.433 3.072 0v4.622c0 .367-.146.718-.405.977l-2.144 2.144a1.38 1.38 0 0 1-1.876.072l-4.382-2.898a1.381 1.381 0 0 1-.482-1.049V77.98m6.217 18.945.518.37m-1.9-19.316V63.82m0 14.16h5.18c8.393 0 15.197-6.803 15.197-15.196 0-8.373-8.98-11.937-8.98-20.03 0-6.486 5.257-11.743 11.743-11.743 5.9 0 10.784 4.352 11.617 10.021.138.944.898 1.722 1.852 1.722.954 0 1.737-.777 1.63-1.724-.856-7.581-7.29-13.472-15.1-13.472-8.392 0-15.195 6.803-15.195 15.196 0 8.634 8.979 13.545 8.979 20.03 0 6.486-5.257 11.743-11.742 11.743h-1.382V23.758C64.784 11.74 55.043 2 43.026 2 31.01 2 21.268 11.741 21.268 23.758v23.574M56.15 77.98h-7.253c-2.67 0-5.251-.378-7.693-1.085M56.15 77.98V51.387m-4.266 7.252a13.808 13.808 0 0 0-11.966-6.907c-7.63 0-13.815 6.185-13.815 13.814 0 .145.003.29.007.433m9.318 12.636h-3.184a2.1 2.1 0 0 0-1.883 1.17c-.689 1.396.327 3.03 1.883 3.03H47.78a1.808 1.808 0 0 0 .575-3.522l-7.151-2.399m-5.776 1.72h4.145m-4.145 0c-5.296-1.818-9.138-6.766-9.318-12.635m22.787-5.605a10.357 10.357 0 0 0-8.98-5.189c-5.721 0-10.36 4.64-10.36 10.361 0 4.381 2.72 8.127 6.562 9.642l5.085 1.706m-27.88-3.114C7.9 71.916 4 66.77 4 60.71c0-7.63 6.185-13.814 13.815-13.814 1.192 0 2.35.151 3.453.435M13.325 73.78H10.14a2.1 2.1 0 0 0-1.884 1.17c-.688 1.396.327 3.03 1.883 3.03h15.537a1.808 1.808 0 0 0 .575-3.522l-12.236-4.105a10.364 10.364 0 0 1-6.562-9.642c0-5.722 4.638-10.36 10.36-10.36 1.214 0 2.378.208 3.46.591m-7.95 22.838h4.145m3.8-26.448v3.018c0 .198.001.395.005.592m0 0A27.491 27.491 0 0 0 26.11 65.98" stroke="#212B83" class="stroke-theme-primary-900 dark:stroke-theme-dark-300" stroke-width="2" stroke-linecap="round"/><path d="M51.332 13.049H34.064A8.634 8.634 0 0 0 32.01 30.07c1.111.271 2.053 1.174 2.053 2.318v.69a8.634 8.634 0 1 0 17.268 0v-.69c0-1.144.941-2.047 2.053-2.318a8.634 8.634 0 0 0-2.053-17.023Z" fill="#CFD4FF" stroke="#212B83" class="fill-theme-primary-200 stroke-theme-primary-900 dark:fill-theme-dark-800 dark:stroke-theme-dark-300" stroke-width="2" stroke-linecap="round"/><path d="M46.172 34c-.678.596-1.991 1-3.5 1-1.51 0-2.822-.404-3.5-1" stroke="#212B83" class="stroke-theme-primary-900 dark:stroke-theme-dark-300" stroke-width="2" stroke-linecap="round"/><ellipse cx="38.399" cy="21.3442" rx="3.45365" ry="3.45361" fill="#212B83" class="fill-theme-primary-900 dark:fill-theme-dark-300"/><ellipse cx="47.9615" cy="21.3442" rx="3.45365" ry="3.45361" fill="#212B83" class="fill-theme-primary-900 dark:fill-theme-dark-300"/><path d="M65.483 21.1a6.217 6.217 0 1 0 9.67-7.815 6.217 6.217 0 0 0-9.67 7.816Zm0 0c-.068-2.108.874-6.325 5.18-6.325M20.58 21.1a6.217 6.217 0 1 1-9.67-7.815 6.217 6.217 0 0 1 9.67 7.816Zm0 0c.067-2.108-.874-6.325-5.181-6.325M42.172 29v-1m2 1v-1" stroke="#212B83" class="stroke-theme-primary-900 dark:stroke-theme-dark-300" stroke-width="2" stroke-linecap="round"/></svg>