<svg width="222" height="101" viewBox="0 0 222 101" fill="none" xmlns="http://www.w3.org/2000/svg"><path d="M.75 50.25h48" stroke="#3D444D"/><path d="m138.972 66.113 11.587-11.586a6.05 6.05 0 0 0 0-8.553l-35.282-35.282a6.05 6.05 0 0 0-8.554 0L71.442 45.974a6.048 6.048 0 0 0 0 8.553l35.281 35.282a6.049 6.049 0 0 0 8.554 0l12.355-12.356m6.804-6.804-2.683 2.683" stroke="#FC9F0F" stroke-width="2" stroke-linecap="round" stroke-linejoin="round"/><path d="m97.014 13.986 7.571-7.571a9.072 9.072 0 0 1 12.83 0l37.42 37.42a9.072 9.072 0 0 1 0 12.83l-37.42 37.42a9.072 9.072 0 0 1-12.83 0l-37.42-37.42a9.072 9.072 0 0 1 0-12.83L80.76 30.24m13.23-13.23-9.828 9.828" stroke="#FC9F0F" stroke-width="2" stroke-linecap="round" stroke-linejoin="round"/><path d="M108 37.618a3.619 3.619 0 0 1 7.237 0v13.856a3.618 3.618 0 1 1-7.237 0V37.62Zm0 25.402a3.619 3.619 0 1 1 7.237 0 3.619 3.619 0 0 1-7.237 0Z" fill="#2C3139" stroke="#E3E8EA" stroke-width="2"/><path d="M173.25 50.25h48" stroke="#3D444D"/></svg>