<svg width="32" height="33" viewBox="0 0 32 33" fill="none" xmlns="http://www.w3.org/2000/svg"><path d="M0 13.796C0 9.08 3.836 5.258 8.571 5.258h.572a2.279 2.279 0 0 1 2.286 2.277 2.279 2.279 0 0 1-2.286 2.277H8.57c-2.207 0-4 1.786-4 3.984v.57h4.572c2.521 0 4.571 2.042 4.571 4.553v4.554c0 2.512-2.05 4.554-4.571 4.554H4.57c-2.52 0-4.57-2.042-4.57-4.554v-9.677Zm18.286 0c0-4.717 3.835-8.538 8.571-8.538h.572a2.279 2.279 0 0 1 2.285 2.277 2.279 2.279 0 0 1-2.285 2.277h-.572c-2.207 0-4 1.786-4 3.984v.57h4.572c2.521 0 4.571 2.042 4.571 4.553v4.554c0 2.512-2.05 4.554-4.571 4.554h-4.572c-2.521 0-4.571-2.042-4.571-4.554v-9.677Z" fill="#5060EE"/></svg>