<svg viewBox="0 0 21 20" fill="none" xmlns="http://www.w3.org/2000/svg"><path d="M11 17.5 9.5 17 1.501 6.5h18l-8.5 11Z" fill="currentColor" fill-opacity=".4"/><path clip-rule="evenodd" d="M16.481 2.498A1.246 1.246 0 0 0 15.485 2H5.519a1.25 1.25 0 0 0-.997.498L1.751 6.195a1.246 1.246 0 0 0 .04 1.545l7.755 9.384a1.246 1.246 0 0 0 1.91 0l7.755-9.384c.37-.444.386-1.083.04-1.545l-2.77-3.697Z" stroke="currentColor" stroke-width="2" stroke-linecap="round" stroke-linejoin="round"/><path d="M1.5 6.982H10m9.5 0h-9m0 0L16 2.5m-5.5 4.482H10m0 0L5 2" stroke="currentColor" stroke-width="2" stroke-linecap="round" stroke-linejoin="round"/></svg>