<svg viewBox="0 0 20 20" fill="none" xmlns="http://www.w3.org/2000/svg">
  <path fill-rule="evenodd" clip-rule="evenodd"
    d="M1 2.2A1.2 1.2 0 0 1 2.2 1h15.6A1.2 1.2 0 0 1 19 2.2v10.6a1.2 1.2 0 0 1-1.2 1.2H2.2A1.2 1.2 0 0 1 1 12.8V2.2Z"
    fill="currentColor" fill-opacity="0.2" />
  <path fill-rule="evenodd" clip-rule="evenodd"
    d="M1 2.2A1.2 1.2 0 0 1 2.2 1h15.6A1.2 1.2 0 0 1 19 2.2v15.6a1.2 1.2 0 0 1-1.2 1.2H2.2A1.2 1.2 0 0 1 1 17.8V2.2Z"
    stroke="currentColor" stroke-width="2" stroke-linecap="round" stroke-linejoin="round" />
  <path d="m4.602 14.2 2.77-3.694a1.2 1.2 0 0 1 1.808-.128l.822.821 2.64-3.52a1.2 1.2 0 0 1 1.92 0l2.136 2.848"
    stroke="currentColor" stroke-width="2" stroke-linecap="round" stroke-linejoin="round" />
  <path fill-rule="evenodd" clip-rule="evenodd" d="M5.5 7a1.5 1.5 0 1 0 0-3 1.5 1.5 0 0 0 0 3Z" stroke="currentColor"
    stroke-width="2" stroke-linecap="round" stroke-linejoin="round" />
  <path d="M1 14.2h18" stroke="currentColor" stroke-width="2" stroke-linecap="round" stroke-linejoin="round" />
</svg>