<svg viewBox="0 0 20 20" fill="none" xmlns="http://www.w3.org/2000/svg">
  <path
    d="M19 10.6003V17.001C19 17.9952 18.1941 18.8012 17.2 18.8012M17.2 18.8012C16.2059 18.8012 15.4 17.9952 15.4 17.001V3.20008C15.4 2.5373 14.8627 2 14.2 2H2.2C1.53726 2 1 2.5373 1 3.20008V17.001C1 17.9952 1.80589 18.8012 2.8 18.8012H17.2Z"
    stroke="currentColor" stroke-width="2" stroke-linecap="round" stroke-linejoin="round" />
  <path d="M5 14.8008H11.4" stroke="currentColor" stroke-width="2" stroke-linecap="round" stroke-linejoin="round" />
  <path fill-rule="evenodd" clip-rule="evenodd"
    d="M5 6.60002C5 6.26864 5.26864 6 5.60002 6H10.8C11.1314 6 11.4 6.26864 11.4 6.60002V10.2003C11.4 10.5317 11.1314 10.8003 10.8 10.8003H5.60002C5.26864 10.8003 5 10.5317 5 10.2003V6.60002Z"
    stroke="currentColor" stroke-width="2" stroke-linecap="round" stroke-linejoin="round" />
</svg>