<svg viewBox="0 0 20 20" fill="none" xmlns="http://www.w3.org/2000/svg"><path d="M19 10.6v6.401a1.8 1.8 0 0 1-1.8 1.8m0 0a1.8 1.8 0 0 1-1.8-1.8v-13.8A1.2 1.2 0 0 0 14.2 2h-12A1.2 1.2 0 0 0 1 3.2v13.801a1.8 1.8 0 0 0 1.8 1.8h14.4ZM5 14.8h6.4" stroke="currentColor" stroke-width="2" stroke-linecap="round" stroke-linejoin="round"/><path fill-rule="evenodd" clip-rule="evenodd" d="M5 6.6a.6.6 0 0 1 .6-.6h5.2a.6.6 0 0 1 .6.6v3.6a.6.6 0 0 1-.6.6H5.6a.6.6 0 0 1-.6-.6V6.6Z" stroke="currentColor" stroke-width="2" stroke-linecap="round" stroke-linejoin="round"/></svg>