<svg viewBox="0 0 20 20" fill="none" xmlns="http://www.w3.org/2000/svg"><path d="m15.4 5.39-1.863-3.726a1.2 1.2 0 0 0-1.61-.537L3.4 5.39" stroke="currentColor" stroke-width="2" stroke-linecap="round" stroke-linejoin="round"/><path fill-rule="evenodd" clip-rule="evenodd" d="M17.8 14.99v1.2a2.4 2.4 0 0 1-2.4 2.4h-12a2.4 2.4 0 0 1-2.4-2.4v-8.4a2.4 2.4 0 0 1 2.4-2.4h12a2.4 2.4 0 0 1 2.4 2.4v1.2" fill="currentColor" fill-opacity=".2"/><path d="M17.8 14.99v1.2a2.4 2.4 0 0 1-2.4 2.4h-12a2.4 2.4 0 0 1-2.4-2.4v-8.4a2.4 2.4 0 0 1 2.4-2.4h12a2.4 2.4 0 0 1 2.4 2.4v1.2" stroke="currentColor" stroke-width="2" stroke-linecap="round" stroke-linejoin="round"/><path fill-rule="evenodd" clip-rule="evenodd" d="M17.799 14.99a1.2 1.2 0 0 0 1.2-1.2v-3.6a1.2 1.2 0 0 0-1.2-1.2h-3a3 3 0 0 0 0 6h3Z" fill="currentColor" fill-opacity=".2" stroke="currentColor" stroke-width="2" stroke-linecap="round" stroke-linejoin="round"/><path d="M14.8 11.691a.3.3 0 1 1 0 .6.3.3 0 0 1 0-.6" stroke="currentColor" stroke-width="2" stroke-linecap="round" stroke-linejoin="round"/></svg>