<?xml version="1.0" encoding="utf-8"?>
<!-- Generator: Adobe Illustrator 27.9.0, SVG Export Plug-In . SVG Version: 6.00 Build 0)  -->
<svg version="1.1" xmlns="http://www.w3.org/2000/svg" xmlns:xlink="http://www.w3.org/1999/xlink" x="0px" y="0px"
	 viewBox="0 0 20 20" enable-background="new 0 0 20 20" xml:space="preserve">
<path fill="none" stroke="currentColor" stroke-width="2" stroke-linecap="round" stroke-linejoin="round" d="M19,10.6V17
	c0,1-0.8,1.8-1.8,1.8 M17.2,18.8c-1,0-1.8-0.8-1.8-1.8V3.2c0-0.7-0.5-1.2-1.2-1.2h-12C1.5,2,1,2.5,1,3.2V17c0,1,0.8,1.8,1.8,1.8
	H17.2z"/>
<path fill="none" stroke="currentColor" stroke-width="2" stroke-linecap="round" stroke-linejoin="round" d="M5,14.8h6.4"/>
<path fill="none" stroke="currentColor" stroke-width="2" stroke-linecap="round" stroke-linejoin="round" d="M5,6.6C5,6.3,5.3,6,5.6,6
	h5.2c0.3,0,0.6,0.3,0.6,0.6v3.6c0,0.3-0.3,0.6-0.6,0.6H5.6c-0.3,0-0.6-0.3-0.6-0.6V6.6z"/>
</svg>
