<svg viewBox="0 0 16 16" fill="none" xmlns="http://www.w3.org/2000/svg"><path d="M4 12.001h6.724c.496 0 .92-.358 1.002-.846l1.637-9.508A1.017 1.017 0 0 1 14.367.8h.667M5.12 14.523a.254.254 0 1 1 0 .509.254.254 0 0 1 0-.509m5.084 0a.254.254 0 1 1 0 .509.254.254 0 0 1 0-.509" stroke="currentColor" stroke-width="1.6" stroke-linecap="round" stroke-linejoin="round"/><path d="M11.681 9.001H3.5a2.033 2.033 0 0 1-1.972-1.54L.815 4.477a.508.508 0 0 1 .493-.631h11.68" stroke="currentColor" stroke-width="1.6" stroke-linecap="round" stroke-linejoin="round"/></svg>