<svg viewBox="0 0 20 20" fill="none" xmlns="http://www.w3.org/2000/svg"><g stroke="currentColor" stroke-width="2" stroke-linecap="round" stroke-linejoin="round"><path d="M10.1 12.2c1.2 0 2.2-1 2.2-2.2 0-1.2-1-2.2-2.2-2.2-1.2 0-2.3 1-2.3 2.2 0 1.2 1.1 2.2 2.3 2.2Z"/><path d="M14 14.5c-.6.5-1.2.9-1.9 1.1l-.1.4-.2 1.3-.1.4c-.1.7-.7 1.3-1.5 1.3h-.3c-.7 0-1.4-.5-1.5-1.3l-.3-2.1c-.7-.2-1.3-.6-1.9-1.1l-1.9.8c-.7.3-1.5 0-1.9-.6l-.2-.3c-.4-.6-.2-1.5.4-1.9l.2-.2.9-.7.5-.4C4 10.5 4 9.7 4.2 9L2.6 7.6c-.6-.5-.8-1.3-.4-1.9l.2-.3c.4-.6 1.2-.9 1.9-.6l1.9.8c.6-.6 1.2-1 1.9-1.2l.3-2.1c.1-.7.7-1.3 1.5-1.3h.4c.7 0 1.4.5 1.5 1.3l.3 2.1c.7.2 1.3.6 1.9 1.1l1.9-.8c.7-.3 1.5 0 1.9.6l.2.4c.4.6.2 1.5-.4 1.9L16 8.9c.1.7.1 1.5 0 2.2l1.6 1.3c.6.5.7 1.3.4 1.9l-.2.3c-.4.6-1.2.9-1.9.6l-1.9-.7Z"/></g></svg>