<svg viewBox="0 0 20 20" fill="none" xmlns="http://www.w3.org/2000/svg"><path fill-rule="evenodd" clip-rule="evenodd" d="M11.303 19H2.2A1.2 1.2 0 0 1 1 17.8V2.2A1.2 1.2 0 0 1 2.2 1h15.6A1.2 1.2 0 0 1 19 2.2v9.103a1.2 1.2 0 0 1-.351.848L12.15 18.65a1.2 1.2 0 0 1-.848.351Z" stroke="currentColor" stroke-width="2" stroke-linecap="round" stroke-linejoin="round"/><path d="M11.8 18.893V13a1.2 1.2 0 0 1 1.2-1.2h5.893M5.8 5.8h9.6M5.8 9.4H10" stroke="currentColor" stroke-width="2" stroke-linecap="round" stroke-linejoin="round"/></svg>