<svg version="1.1" viewBox="0 0 20 20" xml:space="preserve">
  <path fill="none" stroke="currentColor" stroke-width="2" stroke-linecap="round" stroke-linejoin="round" d="M11.3,19H2.2
	C1.5,19,1,18.5,1,17.8V2.2C1,1.5,1.5,1,2.2,1h15.6C18.5,1,19,1.5,19,2.2v9.1c0,0.3-0.1,0.6-0.4,0.8l-6.5,6.5
	C11.9,18.9,11.6,19,11.3,19z" />
  <path fill="none" stroke="currentColor" stroke-width="2" stroke-linecap="round" stroke-linejoin="round" d="M11.8,18.9V13
	c0-0.7,0.5-1.2,1.2-1.2h5.9" />
  <path fill="none" stroke="currentColor" stroke-width="1.6" stroke-linecap="round" stroke-linejoin="round" d="M12.5,7l-2.9,3.9
	c-0.1,0.2-0.3,0.3-0.5,0.3S8.7,11.1,8.5,11L7,9.5" />
</svg>