<svg version="1.1" viewBox="0 0 20 20" xml:space="preserve"><path fill="none" stroke="currentColor" stroke-width="2" stroke-linecap="round" stroke-linejoin="round" d="M11.3 19H2.2c-.7 0-1.2-.5-1.2-1.2V2.2C1 1.5 1.5 1 2.2 1h15.6c.7 0 1.2.5 1.2 1.2v9.1c0 .3-.1.6-.4.8l-6.5 6.5c-.2.3-.5.4-.8.4z"/><path fill="none" stroke="currentColor" stroke-width="2" stroke-linecap="round" stroke-linejoin="round" d="M11.8 18.9V13c0-.7.5-1.2 1.2-1.2h5.9"/><path fill="none" stroke="currentColor" stroke-width="1.6" stroke-linecap="round" stroke-linejoin="round" d="m12.5 7-2.9 3.9c-.1.2-.3.3-.5.3s-.4-.1-.6-.2L7 9.5"/></svg>