<svg xmlns="http://www.w3.org/2000/svg" viewBox="0 0 20 20" fill="none">
    <path fill-rule="evenodd" clip-rule="evenodd" d="M10.2567 14.6788L6.39196 10.814C5.71816 10.14 5.71833 9.04732 6.39234 8.3735C7.06636 7.69968 8.15898 7.69985 8.83279 8.37388L11.2918 10.8322L15.8961 4.69399C16.2661 4.20084 16.871 3.94253 17.483 4.01635C18.0951 4.09017 18.6213 4.48492 18.8633 5.05189C19.1054 5.61886 19.0267 6.27191 18.6567 6.76506L12.8581 14.4946C12.5581 14.8953 12.0988 15.1458 11.5995 15.1811C11.1002 15.2165 10.6102 15.0332 10.2567 14.6788Z" stroke="currentColor" stroke-width="2" stroke-linejoin="round"/>
    <path d="M12.8678 4.0665C12.1797 3.87002 11.4417 4.11803 11.012 4.69017L10 6.0404" stroke="currentColor" stroke-width="2" stroke-linecap="round" stroke-linejoin="round"/>
    <path d="M7.16993 15.0817C6.54236 15.3047 5.84249 15.1466 5.3717 14.6755L1.507 10.8107C0.936302 10.2414 0.835733 9.35294 1.26476 8.67055C1.69379 7.98815 2.53808 7.69372 3.2984 7.96134" stroke="currentColor" stroke-width="2" stroke-linecap="round" stroke-linejoin="round"/>
</svg>
