<svg xmlns="http://www.w3.org/2000/svg" viewBox="0 0 20 20" fill="none"><path fill-rule="evenodd" clip-rule="evenodd" d="m10.257 14.679-3.865-3.865a1.726 1.726 0 0 1 2.44-2.44l2.46 2.458 4.604-6.138a1.726 1.726 0 1 1 2.76 2.071l-5.798 7.73a1.724 1.724 0 0 1-2.601.184Z" stroke="currentColor" stroke-width="2" stroke-linejoin="round"/><path d="M12.868 4.066a1.728 1.728 0 0 0-1.856.624L10 6.04m-2.83 9.042a1.725 1.725 0 0 1-1.798-.407l-3.865-3.864a1.726 1.726 0 0 1 1.791-2.85" stroke="currentColor" stroke-width="2" stroke-linecap="round" stroke-linejoin="round"/></svg>