<svg width="60" height="60" viewBox="0 0 60 60" fill="none" xmlns="http://www.w3.org/2000/svg"><circle cx="30" cy="30" r="29" fill="transparent" stroke="currentColor" stroke-width="2"/><path d="M34.778 39.102 30 34.315l-4.779 4.787a3.054 3.054 0 0 1-4.325 0 3.07 3.07 0 0 1 0-4.335l4.778-4.787-4.74-4.749a3.068 3.068 0 0 1 0-4.333 3.054 3.054 0 0 1 4.326 0L30 25.646l4.74-4.748a3.055 3.055 0 0 1 4.326 0 3.068 3.068 0 0 1 0 4.333l-4.74 4.75 4.778 4.786a3.07 3.07 0 0 1 0 4.335 3.047 3.047 0 0 1-2.163.898c-.783 0-1.566-.3-2.163-.898Z" fill="transparent" stroke="currentColor" stroke-width="2"/></svg>