<svg viewBox="0 0 17 17" xmlns="http://www.w3.org/2000/svg"><path d="M8.4 1.568a.948.948 0 0 0-1.113-.75l-5.59 1.084a.953.953 0 0 0-.75 1.113l1.628 8.384c.1.514.597.85 1.112.75l.524-.101" stroke="currentColor" fill="none" stroke-width="1.6" stroke-linecap="round" stroke-linejoin="round"/><path fill="none" fill-rule="evenodd" clip-rule="evenodd" d="M10.576 4.032a.342.342 0 0 0-.448.465 4.824 4.824 0 0 1-.143 4.406 1.652 1.652 0 0 1-1.763-1.41 3.741 3.741 0 0 0-1.939 3.526 4.231 4.231 0 0 0 4.231 4.23 4.289 4.289 0 0 0 4.23-4.23 6.897 6.897 0 0 0-4.168-6.987Z" stroke="currentColor" stroke-width="1.6" stroke-linecap="round" stroke-linejoin="round"/></svg>
