<svg viewBox="0 0 16 18" xmlns="http://www.w3.org/2000/svg"><path fill-rule="evenodd" clip-rule="evenodd" d="M7.066 7.762a3.485 3.485 0 0 1 .353 3.971 1.241 1.241 0 0 1-1.324-1.058 2.81 2.81 0 0 0-1.456 2.648A3.177 3.177 0 0 0 7.817 16.5a3.221 3.221 0 0 0 3.177-3.177c.117-3.134-1.703-4.833-3.928-5.56Z" stroke="currentColor" stroke-width="1.6" stroke-linecap="round" stroke-linejoin="round"/><path fill-rule="evenodd" clip-rule="evenodd" d="M13.745 5.5H13.5l-1.755 2.193a8.896 8.896 0 0 1 .24-6.193 8.933 8.933 0 0 0-7.394 4.652L3 4.6a7 7 0 1 0 10.744.9Z" stroke="currentColor" stroke-width="1.6" stroke-linecap="round" stroke-linejoin="round"/></svg>