<svg version="1.1" id="Слой_1" xmlns="http://www.w3.org/2000/svg" xmlns:xlink="http://www.w3.org/1999/xlink" x="0px" y="0px" viewBox="0 0 39 30" xml:space="preserve" enable-background="new 0 0 39 30"><path fill="none" d="M4.5 0h30c2.2 0 4 1.8 4 4v22c0 2.2-1.8 4-4 4h-30c-2.2 0-4-1.8-4-4V4c0-2.2 1.8-4 4-4z"/><g><path class="hidden-votes-svg-line" d="M.5 7.8 10.4 0H12L.5 9.1V7.8zM.5 15.7v-1.3L18.8 0h1.6L.5 15.7zM.5 21.3V20L25.8 0h1.6L.5 21.3zM.8 26.7c-.1-.3-.1-.5-.1-.8v-.4L32.4.4H34L.8 26.7zM3.8 29.8c-.4-.1-.8-.2-1.1-.4L37.6 1.8c.2.3.3.6.5.9L3.8 29.8zM11.2 30H9.6L38.5 7.2v1.3L11.2 30zM18.8 30h-1.6l21.3-16.8v1.3L18.8 30zM26.4 30h-1.6l13.7-10.8v1.3L26.4 30z"/><g><path shape-rendering="crispEdges" class="hidden-votes-svg-shape" d="M4.5.5h30C36.4.5 38 2.1 38 4v22c0 1.9-1.6 3.5-3.5 3.5h-30C2.6 29.5 1 27.9 1 26V4C1 2.1 2.6.5 4.5.5z"/></g></g></svg>