<svg version="1.1" id="Слой_1" xmlns="http://www.w3.org/2000/svg" xmlns:xlink="http://www.w3.org/1999/xlink" x="0px" y="0px"
     viewBox="0 0 39 30" style="enable-background:new 0 0 39 30;" xml:space="preserve">
    <path fill="none" d="M4.5,0h30c2.2,0,4,1.8,4,4v22c0,2.2-1.8,4-4,4h-30c-2.2,0-4-1.8-4-4V4C0.5,1.8,2.3,0,4.5,0z"/>
    <g>
	<path class="hidden-votes-svg-line" d="M0.5,7.8L10.4,0H12L0.5,9.1V7.8z"/>
        <path class="hidden-votes-svg-line" d="M0.5,15.7v-1.3L18.8,0h1.6L0.5,15.7z"/>
        <path class="hidden-votes-svg-line" d="M0.5,21.3V20L25.8,0h1.6L0.5,21.3z"/>
        <path class="hidden-votes-svg-line" d="M0.8,26.7c-0.1-0.3-0.1-0.5-0.1-0.8v-0.4L32.4,0.4H34l0,0L0.8,26.7z"/>
        <path class="hidden-votes-svg-line" d="M3.8,29.8c-0.4-0.1-0.8-0.2-1.1-0.4L37.6,1.8c0.2,0.3,0.3,0.6,0.5,0.9L3.8,29.8z"/>
        <path class="hidden-votes-svg-line" d="M11.2,30H9.6L38.5,7.2v1.3L11.2,30z"/>
        <path class="hidden-votes-svg-line" d="M18.8,30h-1.6l21.3-16.8v1.3L18.8,30z"/>
        <path class="hidden-votes-svg-line" d="M26.4,30h-1.6l13.7-10.8v1.3L26.4,30z"/>
        <g>
		<path shape-rendering="crispEdges" class="hidden-votes-svg-shape" d="M4.5,0.5h30C36.4,0.5,38,2.1,38,4v22c0,1.9-1.6,3.5-3.5,3.5h-30
			C2.6,29.5,1,27.9,1,26V4C1,2.1,2.6,0.5,4.5,0.5z"/>
	</g>
</g>
</svg>
