<svg viewBox="0 0 20 21" fill="none" xmlns="http://www.w3.org/2000/svg"><path fill-rule="evenodd" clip-rule="evenodd" d="M1 2.498a1.2 1.2 0 0 1 1.2-1.2h15.6a1.2 1.2 0 0 1 1.2 1.2v15.6a1.2 1.2 0 0 1-1.2 1.2H2.2a1.2 1.2 0 0 1-1.2-1.2v-15.6Z" stroke="currentColor" stroke-width="2" stroke-linecap="round" stroke-linejoin="round"/><path d="m4.602 14.497 2.77-3.693a1.2 1.2 0 0 1 1.808-.129l.822.822 2.64-3.52a1.2 1.2 0 0 1 1.92 0l2.136 2.848" stroke="currentColor" stroke-width="2" stroke-linecap="round" stroke-linejoin="round"/><path fill-rule="evenodd" clip-rule="evenodd" d="M5.5 7.298a1.5 1.5 0 1 0 0-3 1.5 1.5 0 0 0 0 3Z" stroke="currentColor" stroke-width="2" stroke-linecap="round" stroke-linejoin="round"/><path d="M1 14.497h18" stroke="currentColor" stroke-width="2" stroke-linecap="round" stroke-linejoin="round"/></svg>