<svg viewBox="0 0 16 16" xmlns="http://www.w3.org/2000/svg" id="mint" fill="none"><path stroke="currentColor" stroke-linecap="round" stroke-linejoin="round" stroke-width="1.6" d="M8.398 1.569a.948.948 0 0 0-1.112-.75l-5.59 1.084a.953.953 0 0 0-.75 1.113L2.574 11.4c.1.514.597.85 1.112.75l.524-.101"/><path stroke="currentColor" stroke-linecap="round" stroke-linejoin="round" stroke-width="1.6" d="M7.76 4.091a.635.635 0 0 1 .75-.496l6.194 1.251c.344.07.567.405.497.749l-1.815 8.984a.635.635 0 0 1-.748.497l-6.196-1.252a.635.635 0 0 1-.496-.748L7.76 4.091Z" clip-rule="evenodd"/></svg>