<svg viewBox="0 0 23 20" fill="none" xmlns="http://www.w3.org/2000/svg"><g clip-path="url(#clip0_20034_2522)"><path d="m21.672 0-9.154 6.773 1.702-3.991L21.672 0Z" fill="#E17726"/><path d="M1.349.008 8.78 2.782l1.616 4.044L1.349.008Zm16.639 14.397 4.046.077-1.414 4.803-4.937-1.359 2.305-3.521Zm-12.977 0 2.297 3.521-4.929 1.36-1.405-4.804 4.037-.077Z" fill="#E27625"/><path d="m10.177 5.796.165 5.34-4.947-.225 1.407-2.123.018-.02 3.357-2.972Zm2.593-.06 3.409 3.032.017.02 1.408 2.123-4.947.225.113-5.4ZM7.452 14.42l2.702 2.105-3.139 1.515.437-3.62Zm8.095 0 .427 3.62-3.13-1.515 2.703-2.105Z" fill="#E27625"/><path d="m12.914 16.327 3.176 1.538-2.954 1.403.03-.927-.252-2.014Zm-2.83 0-.243 1.998.02.942-2.96-1.402 3.183-1.537Z" fill="#D5BFB2"/><path d="m9.167 11.833.83 1.744-2.825-.827 1.995-.917Zm4.666 0 2.005.917-2.835.827.83-1.744Z" fill="#233447"/><path d="m7.668 14.403-.457 3.753-2.447-3.671 2.904-.082Zm7.663 0 2.904.082-2.457 3.671-.447-3.753Zm2.344-3.704-2.114 2.154-1.63-.745-.78 1.64-.511-2.82 5.035-.229Zm-12.353 0 5.036.23-.511 2.82-.78-1.64-1.622.744L5.322 10.7Z" fill="#CC6228"/><path d="m5.18 10.257 2.391 2.427.083 2.395-2.474-4.822Zm12.641-.005-2.479 4.832.094-2.4 2.385-2.432Zm-7.58.153.097.605.238 1.51-.153 4.635-.723-3.724v-.038l.541-2.988Zm2.515-.009.543 2.997v.038l-.725 3.733-.029-.933-.113-3.739.324-2.096Z" fill="#E27525"/><path d="m15.649 12.587-.081 2.082-2.523 1.965-.51-.36.572-2.945 2.542-.742Zm-8.29 0 2.534.742.571 2.945-.51.36-2.523-1.966-.072-2.08Z" fill="#F5841F"/><path d="m6.418 17.405 3.228 1.53-.014-.654.27-.237h3.195l.28.236-.021.653 3.207-1.524-1.56 1.29-1.888 1.295H9.876L7.99 18.693l-1.572-1.288Z" fill="#C0AC9D"/><path d="m12.683 16.123.457.323.267 2.133-.387-.326H9.98l-.38.333.26-2.14.456-.323h2.367Z" fill="#161616"/><path d="m21.067.188 1.1 3.296-.687 3.333.489.377-.662.504.498.384-.659.6.404.292-1.072 1.252-4.397-1.28-.038-.02-3.17-2.674L21.068.188Zm-19.135 0 8.194 6.064-3.17 2.673-.037.02-4.398 1.281L1.45 8.974l.404-.292-.658-.6.496-.383-.671-.506.507-.377-.694-3.332L1.932.188Z" fill="#763E1A"/><path d="m15.866 8.666 4.659 1.356 1.514 4.666h-3.994l-2.752.034 2.002-3.9-1.43-2.156Zm-8.732 0-1.43 2.156 2.002 3.9-2.75-.034H.968l1.505-4.666 4.66-1.356Zm7.314-5.907-1.303 3.52-.277 4.755-.106 1.49-.008 3.808h-2.51l-.007-3.8-.107-1.5-.276-4.753L8.55 2.76h5.897Z" fill="#F5841F"/></g><defs><clipPath id="clip0_20034_2522"><rect width="21.3333" height="20" fill="white" transform="translate(0.833008)"/></clipPath></defs></svg>