<svg viewBox="0 0 17 16" fill="none" xmlns="http://www.w3.org/2000/svg"><path d="m15.055 1.6.644 2.574-.982 4.312.982 2.96-.982 3.315-3.137-.788-.483-2.526H15.7l-.982-2.96-3.523-1.03-1.384-1.61L15.055 1.6Zm-13.113 0L1.3 4.174l.981 4.312-.981 2.96.981 3.315 3.138-.788.482-2.526H1.3l.981-2.96 3.524-1.03 1.384-1.61L1.942 1.6Z" fill="transparent"/><path d="m15.055 1.6.644 2.574-.982 4.312m.338-6.886L9.81 5.848l1.384 1.609 3.523 1.03m.338-6.887L10.1 3.225H6.898L1.942 1.6m12.775 6.886.982 2.96m0 0-.982 3.315-3.137-.788m4.119-2.526h-4.602l.483 2.526m0 0-1.77 1.142H7.188l-1.77-1.142M1.942 1.6 1.3 4.174l.981 4.312M1.942 1.6l5.246 4.248-1.384 1.609-3.524 1.03m0 0-.981 2.96m0 0 .981 3.314 3.138-.788m-4.12-2.526H5.9l-.482 2.526" stroke="currentColor"/><path d="m11.113 10.16-1.61.305.644-.949.966.643Zm-4.28-.644.627.95-1.608-.306.981-.644Zm2.333 2.623H7.75l-.29.354v.98h2.044v-.98l-.338-.354Z" stroke="currentColor" stroke-width=".5"/></svg>