<svg xmlns="http://www.w3.org/2000/svg" viewBox="0 0 17 16" fill="none"><path d="M12.21 5.138c-.294-.169-.673-.169-1.01 0l-2.358 1.39-1.6.883-2.316 1.39c-.294.168-.673.168-1.01 0l-1.81-1.095a1.026 1.026 0 0 1-.506-.884V4.717c0-.337.168-.674.505-.885l1.81-1.052c.296-.169.674-.169 1.011 0l1.81 1.094c.296.169.506.506.506.885v1.39l1.6-.927V3.79c0-.337-.168-.673-.505-.884L4.968.927c-.294-.168-.673-.168-1.01 0L.505 2.948A.926.926 0 0 0 0 3.79v3.958c0 .337.168.674.505.884l3.41 1.98c.296.168.674.168 1.011 0l2.316-1.348 1.6-.926 2.316-1.348c.295-.168.674-.168 1.01 0l1.81 1.053c.296.168.506.505.506.884v2.105c0 .337-.168.674-.505.885l-1.768 1.052c-.295.169-.674.169-1.011 0l-1.81-1.052a1.026 1.026 0 0 1-.506-.885V9.685l-1.6.926v1.39c0 .337.169.674.505.884l3.411 1.979c.295.168.674.168 1.01 0l3.411-1.979c.295-.168.505-.505.505-.884V8c0-.337-.168-.674-.505-.884l-3.41-1.98Z" fill="currentColor"/></svg>