<svg viewBox="0 0 161 160" fill="none" xmlns="http://www.w3.org/2000/svg"><path d="M160.5 80c0 44.183-35.817 80-80 80S.5 124.183.5 80c0-44.182 35.817-80 80-80s80 35.818 80 80Zm-152 0c0 39.765 32.236 72 72 72 39.765 0 72-32.235 72-72 0-39.764-32.235-72-72-72-39.764 0-72 32.236-72 72Z" fill="currentColor" fill-opacity="0.2"/><path d="M144.745 32.33a79.99 79.99 0 0 1 14.182 31.886 79.99 79.99 0 0 1-16.268 66.146 80.01 80.01 0 0 1-27.355 21.671l-3.48-7.204a71.99 71.99 0 0 0 38.592-47.633 71.997 71.997 0 0 0-12.095-60.1l6.424-4.767Z" fill="currentColor"/></svg>