<svg viewBox="0 0 20 20" fill="none" xmlns="http://www.w3.org/2000/svg"><path d="M14.048 11c-1.394 0-2.696.748-3.44 2.058-.65 1.122-.65 2.525-.093 3.647.093.187.093.468 0 .748l-.465 1.029c-.186.28.186.655.465.468l1.116-.561c.186-.094.465-.094.744 0 1.302.654 2.975.467 4.184-.468 1.302-1.029 1.767-2.806 1.209-4.396C17.21 12.03 15.722 11 14.048 11ZM5.6 17H1.3c0-2 1-3.9 2.7-5 1.3-.8 2.8-1.2 4.3-.9m-.998-2.5c2 0 3.7-1.7 3.7-3.7s-1.7-3.7-3.7-3.7-3.7 1.7-3.7 3.7 1.7 3.7 3.7 3.7Z" stroke="currentColor" stroke-width="2" stroke-linecap="round" stroke-linejoin="round"/></svg>