<svg width="682" height="404" viewBox="0 0 682 404" fill="none" xmlns="http://www.w3.org/2000/svg"><path d="M69 13c0-6.627 5.373-12 12-12h520c6.627 0 12 5.373 12 12v26H69V13Z" fill="#2C3139" stroke="#3D444D" stroke-width="2"/><path fill-rule="evenodd" clip-rule="evenodd" d="M113 24a4 4 0 1 0 0-8 4 4 0 0 0 0 8Zm-13 0a4 4 0 1 0 0-8 4 4 0 0 0 0 8Zm-13 0a4 4 0 1 0 0-8 4 4 0 0 0 0 8Z" fill="#3D444D"/><path d="M1 107V51c0-6.627 5.373-12 12-12h56M1 107h68m-68 0v68M69 39v68m0-68h544M69 107v68M613 39v68m0-68h56c6.627 0 12 5.373 12 12v56m-68 0h68m-68 0v68m68-68v68M1 175h68m-68 0v68m68-68v68m544-68h68m-68 0v68m68-68v68M1 243h68m-68 0v56c0 6.627 5.373 12 12 12h56m0-68v68m544-68h68m-68 0v68m68-68v56c0 6.627-5.373 12-12 12h-56m-544 0v24.5M613 311v29" stroke="#2C3139" stroke-width="2"/><path d="M69 283.375v54.375a10.874 10.874 0 0 0 10.88 10.875 10.874 10.874 0 0 0 10.88-10.875v-54.375a10.874 10.874 0 0 1 10.88-10.875c2.886 0 5.653 1.146 7.693 3.185a10.872 10.872 0 0 1 3.187 7.69v108.75c0 2.884 1.146 5.65 3.187 7.69a10.882 10.882 0 0 0 18.573-7.69V316c0-2.884 1.146-5.65 3.187-7.69A10.882 10.882 0 0 1 156.04 316v43.5c0 2.884 1.146 5.65 3.187 7.69a10.882 10.882 0 0 0 18.573-7.69v-76.125c0-2.884 1.146-5.65 3.187-7.69a10.882 10.882 0 0 1 18.573 7.69V316c0 2.884 1.146 5.65 3.187 7.69A10.882 10.882 0 0 0 221.32 316v-54.375c0-2.884 1.146-5.65 3.187-7.69a10.882 10.882 0 0 1 18.573 7.69v87c0 2.884 1.146 5.65 3.187 7.69a10.882 10.882 0 0 0 18.573-7.69V294.25c0-2.884 1.146-5.65 3.187-7.69a10.882 10.882 0 0 1 18.573 7.69v65.25c0 2.884 1.146 5.65 3.187 7.69a10.882 10.882 0 0 0 18.573-7.69v-76.125c0-2.884 1.146-5.65 3.187-7.69a10.882 10.882 0 0 1 18.573 7.69v21.75c0 2.884 1.146 5.65 3.187 7.69a10.882 10.882 0 0 0 18.573-7.69V250.75c0-2.884 1.146-5.65 3.187-7.69a10.882 10.882 0 0 1 18.573 7.69V316c0 2.884 1.146 5.65 3.187 7.69A10.882 10.882 0 0 0 395.4 316v-32.625c0-2.884 1.146-5.65 3.187-7.69a10.882 10.882 0 0 1 18.573 7.69v108.75c0 2.884 1.146 5.65 3.187 7.69a10.882 10.882 0 0 0 18.573-7.69V272.5c0-2.884 1.146-5.65 3.187-7.69a10.882 10.882 0 0 1 18.573 7.69v97.875c0 2.884 1.146 5.65 3.187 7.69a10.882 10.882 0 0 0 18.573-7.69v-65.25c0-2.884 1.146-5.65 3.187-7.69a10.882 10.882 0 0 1 18.573 7.69V359.5c0 2.884 1.146 5.65 3.187 7.69a10.882 10.882 0 0 0 18.573-7.69V250.75c0-2.884 1.146-5.65 3.187-7.69a10.882 10.882 0 0 1 18.573 7.69V316c0 2.884 1.146 5.65 3.187 7.69A10.882 10.882 0 0 0 569.48 316v-43.5c0-2.884 1.146-5.65 3.187-7.69a10.882 10.882 0 0 1 18.573 7.69v87c0 2.884 1.146 5.65 3.187 7.69A10.882 10.882 0 0 0 613 359.5V229" stroke="#505D6A" stroke-width="2" stroke-linecap="round"/><path d="M482.44 330.375v-25.25c0-2.884 1.146-5.65 3.187-7.69a10.884 10.884 0 0 1 15.386 0 10.872 10.872 0 0 1 3.187 7.69V359.5c0 2.884 1.146 5.65 3.187 7.69a10.882 10.882 0 0 0 18.573-7.69V250.75c0-2.884 1.146-5.65 3.187-7.69a10.884 10.884 0 0 1 15.386 0 10.872 10.872 0 0 1 3.187 7.69V316c0 2.884 1.146 5.65 3.187 7.69a10.884 10.884 0 0 0 15.386 0 10.872 10.872 0 0 0 3.187-7.69v-43.5c0-2.884 1.146-5.65 3.187-7.69a10.882 10.882 0 0 1 18.573 7.69v87c0 2.884 1.146 5.65 3.187 7.69a10.884 10.884 0 0 0 15.386 0A10.872 10.872 0 0 0 613 359.5V175h68l-.5-68H613V39H432M308.36 313.375V359.5c0 2.884-1.146 5.65-3.187 7.69a10.882 10.882 0 0 1-18.573-7.69v-65.25c0-2.884-1.146-5.65-3.187-7.69a10.882 10.882 0 0 0-18.573 7.69v54.375c0 2.884-1.146 5.65-3.187 7.69a10.882 10.882 0 0 1-18.573-7.69v-87c0-2.884-1.146-5.65-3.187-7.69a10.882 10.882 0 0 0-18.573 7.69V316c0 2.884-1.146 5.65-3.187 7.69A10.882 10.882 0 0 1 199.56 316v-32.625c0-2.884-1.146-5.65-3.187-7.69a10.882 10.882 0 0 0-18.573 7.69V359.5c0 2.884-1.146 5.65-3.187 7.69a10.882 10.882 0 0 1-18.573-7.69V316c0-2.884-1.146-5.65-3.187-7.69A10.882 10.882 0 0 0 134.28 316v76.125c0 2.884-1.146 5.65-3.187 7.69a10.882 10.882 0 0 1-18.573-7.69v-108.75c0-2.884-1.146-5.65-3.187-7.69a10.882 10.882 0 0 0-18.573 7.69v54.375a10.874 10.874 0 0 1-10.88 10.875A10.874 10.874 0 0 1 69 337.75V243H1v-68h68V38.5" stroke="#8692FF" stroke-width="2" stroke-linecap="round"/><g clip-path="url(#clip0_23951_1255)"><path d="M69.908 177.691c-.41 4.922-7.192 32.554-40.763 72.54L5 251v-40.243c1.37-2.136 26.56-34.199 32.107-39.986 15.232-15.892 19.445-8.459 25.61-4.87 6.164 3.588 7.705 5.639 7.191 11.79Z" fill="#23272D"/><path d="m10.294 246.688 14.07 8.84 2.048-1.91 3.264-3.58-14.461-9.099-4.92 5.749Z" fill="#ECEDF9"/><path d="m24.435 255.513-13.54-8.804m19.87-24.692 14.188 8.953m-29.156 10.321 13.768 8.837" stroke="#8692FF" stroke-width="2" stroke-linecap="round"/><path d="M51.285 169.996a2.184 2.184 0 0 0-.886-.104c-5.39.363-19.387 15.8-30.668 32.238m31.554-32.134c-.03-2.071-.753-3.214-2.323-3.108-3.263.22-9.586 5.798-16.606 13.798m18.929-10.69c.1 6.754-7.151 23.381-16.374 38.82C23.532 227.864 6.855 248.418-.6 251.035m0 0a4.685 4.685 0 0 1-1.225.272c-3.328.224-3.225-4.9-.796-12.593m2.02 12.321c-1.397-1.745-.703-6.583 1.48-12.997" stroke="#6B7AFF" stroke-width="2" stroke-linecap="round"/><path d="M-5.36 257.03c3.01 2.064 9.495 6.45 11.353 7.482 2.322 1.29 4.128 3.096 8.773 0 21.93-15.997 53.15-63.471 55.988-88.499.258-3.096-.774-5.418-3.096-6.966-1.935-1.29-8.772-6.106-12.126-8.256" stroke="#8692FF" stroke-width="2" stroke-linecap="round"/><path d="M-6.135 241.291c-1.978 4.73-4.232 14.449.516 15.48 14.967 3.254 69.15-77.403 61.407-95.465-2.592-6.046-21.93 9.805-36.637 31.478" stroke="#8692FF" stroke-width="2" stroke-linecap="round"/></g><path d="M249.026 107.134a649.07 649.07 0 0 0-9.708 12.075 273.3 273.3 0 0 0-18.446 27.849 196.354 196.354 0 0 0-7.766 14.412h35.92v-54.336Zm22.912-29.018v83.354h15.145v19.28h-15.145v32.329h-22.912V180.75H190v-16.749c2.589-5.712 6.019-12.269 10.291-19.67 4.401-7.4 9.255-14.995 14.562-22.785a401.226 401.226 0 0 1 16.893-22.981c5.954-7.53 11.908-14.347 17.863-20.449h22.329ZM405.886 145.5c0 22.721-4.143 40.184-12.427 52.388-8.284 12.075-19.74 18.112-34.367 18.112-14.628 0-26.083-6.037-34.368-18.112-8.284-12.204-12.426-29.667-12.426-52.388 0-11.296 1.035-21.293 3.106-29.992 2.201-8.828 5.307-16.229 9.32-22.201 4.142-5.973 9.061-10.517 14.757-13.633C345.306 76.558 351.843 75 359.092 75c14.627 0 26.083 6.102 34.367 18.307 8.284 12.074 12.427 29.472 12.427 52.193Zm-24.271 0c0-7.011-.388-13.568-1.165-19.67-.777-6.102-2.071-11.36-3.883-15.775-1.683-4.544-3.949-8.114-6.796-10.711-2.848-2.597-6.408-3.895-10.679-3.895-4.272 0-7.896 1.298-10.874 3.895-2.847 2.597-5.177 6.167-6.99 10.711-1.682 4.415-2.912 9.673-3.689 15.775-.647 6.102-.971 12.659-.971 19.67 0 7.011.324 13.568.971 19.67.777 6.102 2.007 11.425 3.689 15.97 1.813 4.414 4.143 7.919 6.99 10.516 2.978 2.597 6.602 3.895 10.874 3.895 4.271 0 7.831-1.298 10.679-3.895 2.847-2.597 5.113-6.102 6.796-10.516 1.812-4.545 3.106-9.868 3.883-15.97.777-6.102 1.165-12.659 1.165-19.67Zm50.164-39.34c7.508-2.986 15.016-6.816 22.524-11.49 7.637-4.674 14.368-10.192 20.193-16.554H491v134.963h-23.494V109.666c-3.495 2.726-7.896 5.388-13.203 7.985-5.308 2.596-10.421 4.739-15.339 6.426l-7.185-17.917Z" fill="#23272D"/><path d="M249.026 107.134a649.07 649.07 0 0 0-9.708 12.075 273.3 273.3 0 0 0-18.446 27.849 196.354 196.354 0 0 0-7.766 14.412h35.92v-54.336Zm22.912-29.018v83.354h15.145v19.28h-15.145v32.329h-22.912V180.75H190v-16.749c2.589-5.712 6.019-12.269 10.291-19.67 4.401-7.4 9.255-14.995 14.562-22.785a401.226 401.226 0 0 1 16.893-22.981c5.954-7.53 11.908-14.347 17.863-20.449h22.329ZM405.886 145.5c0 22.721-4.143 40.184-12.427 52.388-8.284 12.075-19.74 18.112-34.367 18.112-14.628 0-26.083-6.037-34.368-18.112-8.284-12.204-12.426-29.667-12.426-52.388 0-11.296 1.035-21.293 3.106-29.992 2.201-8.828 5.307-16.229 9.32-22.201 4.142-5.973 9.061-10.517 14.757-13.633C345.306 76.558 351.843 75 359.092 75c14.627 0 26.083 6.102 34.367 18.307 8.284 12.074 12.427 29.472 12.427 52.193Zm-24.271 0c0-7.011-.388-13.568-1.165-19.67-.777-6.102-2.071-11.36-3.883-15.775-1.683-4.544-3.949-8.114-6.796-10.711-2.848-2.597-6.408-3.895-10.679-3.895-4.272 0-7.896 1.298-10.874 3.895-2.847 2.597-5.177 6.167-6.99 10.711-1.682 4.415-2.912 9.673-3.689 15.775-.647 6.102-.971 12.659-.971 19.67 0 7.011.324 13.568.971 19.67.777 6.102 2.007 11.425 3.689 15.97 1.813 4.414 4.143 7.919 6.99 10.516 2.978 2.597 6.602 3.895 10.874 3.895 4.271 0 7.831-1.298 10.679-3.895 2.847-2.597 5.113-6.102 6.796-10.516 1.812-4.545 3.106-9.868 3.883-15.97.777-6.102 1.165-12.659 1.165-19.67Zm50.164-39.34c7.508-2.986 15.016-6.816 22.524-11.49 7.637-4.674 14.368-10.192 20.193-16.554H491v134.963h-23.494V109.666c-3.495 2.726-7.896 5.388-13.203 7.985-5.308 2.596-10.421 4.739-15.339 6.426l-7.185-17.917Z" stroke="#8692FF" stroke-width="2"/><rect x="58" y="29" width="20" height="20" rx="10" fill="#23272D" stroke="#8692FF" stroke-width="2"/><rect x="417" y="29" width="20" height="20" rx="10" fill="#23272D" stroke="#8692FF" stroke-width="2"/><rect x="477" y="330" width="10" height="10" rx="5" fill="#23272D" stroke="#8692FF" stroke-width="2"/><rect x="303" y="306" width="10" height="10" rx="5" fill="#23272D" stroke="#8692FF" stroke-width="2"/><g clip-path="url(#clip1_23951_1255)"><path d="m644.142 182.226 28.029 7.51a4 4 0 0 0 4.312-1.57l17.638-25.198a3.999 3.999 0 0 0-.015-4.608l-16.971-23.921a4.005 4.005 0 0 0-2.227-1.55l-27.806-7.45a3.999 3.999 0 0 0-4.296 1.547l-17.756 24.993a4 4 0 0 0-.015 4.612l16.867 24.067a4.007 4.007 0 0 0 2.24 1.568Z" fill="#23272D"/><path d="m664.986 152.646 27.924 7.482a2 2 0 0 1 1.116 3.086l-18.42 26.088a2 2 0 0 1-2.151.778l-27.925-7.482a2 2 0 0 1-1.116-3.086l18.42-26.088a2.001 2.001 0 0 1 2.152-.778Z" fill="#8692FF"/><path d="m644.142 182.226 28.029 7.51a4 4 0 0 0 4.312-1.57l17.638-25.198a3.999 3.999 0 0 0-.015-4.608l-16.971-23.921a4.005 4.005 0 0 0-2.227-1.55l-27.806-7.45a3.999 3.999 0 0 0-4.296 1.547l-17.756 24.993a4 4 0 0 0-.015 4.612l16.867 24.067a4.007 4.007 0 0 0 2.24 1.568Zm-1.405-.377 20.924-29.785m31.821 8.526-31.821-8.526m0 0-19.067-27.093" stroke="#8692FF" stroke-width="2"/></g><defs><clipPath id="clip0_23951_1255"><rect width="134" height="181" fill="white" transform="matrix(-1 0 0 1 136 61)"/></clipPath><clipPath id="clip1_23951_1255"><rect width="76" height="67" fill="white" transform="translate(604 107)"/></clipPath></defs></svg>