<svg width="682" height="404" viewBox="0 0 682 404" fill="none" xmlns="http://www.w3.org/2000/svg">
<path d="M69 13C69 6.37258 74.3726 1 81 1H601C607.627 1 613 6.37258 613 13V39H69V13Z" fill="#2C3139" stroke="#3D444D" stroke-width="2"/>
<path fill-rule="evenodd" clip-rule="evenodd" d="M113 24C115.209 24 117 22.2091 117 20C117 17.7909 115.209 16 113 16C110.791 16 109 17.7909 109 20C109 22.2091 110.791 24 113 24Z" fill="#3D444D"/>
<path fill-rule="evenodd" clip-rule="evenodd" d="M100 24C102.209 24 104 22.2091 104 20C104 17.7909 102.209 16 100 16C97.7909 16 96 17.7909 96 20C96 22.2091 97.7909 24 100 24Z" fill="#3D444D"/>
<path fill-rule="evenodd" clip-rule="evenodd" d="M87 24C89.2091 24 91 22.2091 91 20C91 17.7909 89.2091 16 87 16C84.7909 16 83 17.7909 83 20C83 22.2091 84.7909 24 87 24Z" fill="#3D444D"/>
<path d="M1 107V51C1 44.3726 6.37258 39 13 39H69M1 107H69M1 107V175M69 39V107M69 39H137H205H273H341H409H477H545H613M69 107V175M613 39V107M613 39H669C675.627 39 681 44.3726 681 51V107M613 107H681M613 107V175M681 107V175M1 175H69M1 175V243M69 175V243M613 175H681M613 175V243M681 175V243M1 243H69M1 243V299C1 305.627 6.37258 311 13 311H69M69 243V311M613 243H681M613 243V311M681 243V299C681 305.627 675.627 311 669 311H613M69 311V335.5M613 311V340" stroke="#2C3139" stroke-width="2"/>
<path d="M69 283.375V337.75C69 340.634 70.1463 343.4 72.1867 345.44C74.2271 347.479 76.9944 348.625 79.88 348.625C82.7656 348.625 85.5329 347.479 87.5733 345.44C89.6137 343.4 90.76 340.634 90.76 337.75V283.375C90.76 280.491 91.9063 277.725 93.9467 275.685C95.9871 273.646 98.7544 272.5 101.64 272.5C104.526 272.5 107.293 273.646 109.333 275.685C111.374 277.725 112.52 280.491 112.52 283.375V392.125C112.52 395.009 113.666 397.775 115.707 399.815C117.747 401.854 120.514 403 123.4 403C126.286 403 129.053 401.854 131.093 399.815C133.134 397.775 134.28 395.009 134.28 392.125V316C134.28 313.116 135.426 310.35 137.467 308.31C139.507 306.271 142.274 305.125 145.16 305.125C148.046 305.125 150.813 306.271 152.853 308.31C154.894 310.35 156.04 313.116 156.04 316V359.5C156.04 362.384 157.186 365.15 159.227 367.19C161.267 369.229 164.034 370.375 166.92 370.375C169.806 370.375 172.573 369.229 174.613 367.19C176.654 365.15 177.8 362.384 177.8 359.5V283.375C177.8 280.491 178.946 277.725 180.987 275.685C183.027 273.646 185.794 272.5 188.68 272.5C191.566 272.5 194.333 273.646 196.373 275.685C198.414 277.725 199.56 280.491 199.56 283.375V316C199.56 318.884 200.706 321.65 202.747 323.69C204.787 325.729 207.554 326.875 210.44 326.875C213.326 326.875 216.093 325.729 218.133 323.69C220.174 321.65 221.32 318.884 221.32 316V261.625C221.32 258.741 222.466 255.975 224.507 253.935C226.547 251.896 229.314 250.75 232.2 250.75C235.086 250.75 237.853 251.896 239.893 253.935C241.934 255.975 243.08 258.741 243.08 261.625V348.625C243.08 351.509 244.226 354.275 246.267 356.315C248.307 358.354 251.074 359.5 253.96 359.5C256.846 359.5 259.613 358.354 261.653 356.315C263.694 354.275 264.84 351.509 264.84 348.625V294.25C264.84 291.366 265.986 288.6 268.027 286.56C270.067 284.521 272.834 283.375 275.72 283.375C278.606 283.375 281.373 284.521 283.413 286.56C285.454 288.6 286.6 291.366 286.6 294.25V359.5C286.6 362.384 287.746 365.15 289.787 367.19C291.827 369.229 294.594 370.375 297.48 370.375C300.366 370.375 303.133 369.229 305.173 367.19C307.214 365.15 308.36 362.384 308.36 359.5V283.375C308.36 280.491 309.506 277.725 311.547 275.685C313.587 273.646 316.354 272.5 319.24 272.5C322.126 272.5 324.893 273.646 326.933 275.685C328.974 277.725 330.12 280.491 330.12 283.375V305.125C330.12 308.009 331.266 310.775 333.307 312.815C335.347 314.854 338.114 316 341 316C343.886 316 346.653 314.854 348.693 312.815C350.734 310.775 351.88 308.009 351.88 305.125V250.75C351.88 247.866 353.026 245.1 355.067 243.06C357.107 241.021 359.874 239.875 362.76 239.875C365.646 239.875 368.413 241.021 370.453 243.06C372.494 245.1 373.64 247.866 373.64 250.75V316C373.64 318.884 374.786 321.65 376.827 323.69C378.867 325.729 381.634 326.875 384.52 326.875C387.406 326.875 390.173 325.729 392.213 323.69C394.254 321.65 395.4 318.884 395.4 316V283.375C395.4 280.491 396.546 277.725 398.587 275.685C400.627 273.646 403.394 272.5 406.28 272.5C409.166 272.5 411.933 273.646 413.973 275.685C416.014 277.725 417.16 280.491 417.16 283.375V392.125C417.16 395.009 418.306 397.775 420.347 399.815C422.387 401.854 425.154 403 428.04 403C430.926 403 433.693 401.854 435.733 399.815C437.774 397.775 438.92 395.009 438.92 392.125V272.5C438.92 269.616 440.066 266.85 442.107 264.81C444.147 262.771 446.914 261.625 449.8 261.625C452.686 261.625 455.453 262.771 457.493 264.81C459.534 266.85 460.68 269.616 460.68 272.5V370.375C460.68 373.259 461.826 376.025 463.867 378.065C465.907 380.104 468.674 381.25 471.56 381.25C474.446 381.25 477.213 380.104 479.253 378.065C481.294 376.025 482.44 373.259 482.44 370.375V305.125C482.44 302.241 483.586 299.475 485.627 297.435C487.667 295.396 490.434 294.25 493.32 294.25C496.206 294.25 498.973 295.396 501.013 297.435C503.054 299.475 504.2 302.241 504.2 305.125V359.5C504.2 362.384 505.346 365.15 507.387 367.19C509.427 369.229 512.194 370.375 515.08 370.375C517.966 370.375 520.733 369.229 522.773 367.19C524.814 365.15 525.96 362.384 525.96 359.5V250.75C525.96 247.866 527.106 245.1 529.147 243.06C531.187 241.021 533.954 239.875 536.84 239.875C539.726 239.875 542.493 241.021 544.533 243.06C546.574 245.1 547.72 247.866 547.72 250.75V316C547.72 318.884 548.866 321.65 550.907 323.69C552.947 325.729 555.714 326.875 558.6 326.875C561.486 326.875 564.253 325.729 566.293 323.69C568.334 321.65 569.48 318.884 569.48 316V272.5C569.48 269.616 570.626 266.85 572.667 264.81C574.707 262.771 577.474 261.625 580.36 261.625C583.246 261.625 586.013 262.771 588.053 264.81C590.094 266.85 591.24 269.616 591.24 272.5V359.5C591.24 362.384 592.386 365.15 594.427 367.19C596.467 369.229 599.234 370.375 602.12 370.375C605.006 370.375 607.773 369.229 609.813 367.19C611.854 365.15 613 362.384 613 359.5V229" stroke="#505D6A" stroke-width="2" stroke-linecap="round"/>
<path d="M482.44 330.375V305.125C482.44 302.241 483.586 299.475 485.627 297.435C487.667 295.396 490.435 294.25 493.32 294.25C496.206 294.25 498.973 295.396 501.013 297.435C503.054 299.475 504.2 302.241 504.2 305.125V359.5C504.2 362.384 505.346 365.15 507.387 367.19C509.427 369.229 512.194 370.375 515.08 370.375C517.966 370.375 520.733 369.229 522.773 367.19C524.814 365.15 525.96 362.384 525.96 359.5V250.75C525.96 247.866 527.106 245.1 529.147 243.06C531.187 241.021 533.955 239.875 536.84 239.875C539.726 239.875 542.493 241.021 544.533 243.06C546.574 245.1 547.72 247.866 547.72 250.75V316C547.72 318.884 548.866 321.65 550.907 323.69C552.947 325.729 555.715 326.875 558.6 326.875C561.486 326.875 564.253 325.729 566.293 323.69C568.334 321.65 569.48 318.884 569.48 316V272.5C569.48 269.616 570.626 266.85 572.667 264.81C574.707 262.771 577.474 261.625 580.36 261.625C583.246 261.625 586.013 262.771 588.053 264.81C590.094 266.85 591.24 269.616 591.24 272.5V359.5C591.24 362.384 592.386 365.15 594.427 367.19C596.467 369.229 599.235 370.375 602.12 370.375C605.006 370.375 607.773 369.229 609.813 367.19C611.854 365.15 613 362.384 613 359.5V229V175H681L680.5 107H613V39H432" stroke="#8692FF" stroke-width="2" stroke-linecap="round"/>
<path d="M308.36 313.375V359.5C308.36 362.384 307.214 365.15 305.173 367.19C303.133 369.229 300.366 370.375 297.48 370.375C294.594 370.375 291.827 369.229 289.787 367.19C287.746 365.15 286.6 362.384 286.6 359.5V294.25C286.6 291.366 285.454 288.6 283.413 286.56C281.373 284.521 278.606 283.375 275.72 283.375C272.834 283.375 270.067 284.521 268.027 286.56C265.986 288.6 264.84 291.366 264.84 294.25V348.625C264.84 351.509 263.694 354.275 261.653 356.315C259.613 358.354 256.846 359.5 253.96 359.5C251.074 359.5 248.307 358.354 246.267 356.315C244.226 354.275 243.08 351.509 243.08 348.625V261.625C243.08 258.741 241.934 255.975 239.893 253.935C237.853 251.896 235.086 250.75 232.2 250.75C229.314 250.75 226.547 251.896 224.507 253.935C222.466 255.975 221.32 258.741 221.32 261.625V316C221.32 318.884 220.174 321.65 218.133 323.69C216.093 325.729 213.326 326.875 210.44 326.875C207.554 326.875 204.787 325.729 202.747 323.69C200.706 321.65 199.56 318.884 199.56 316V283.375C199.56 280.491 198.414 277.725 196.373 275.685C194.333 273.646 191.566 272.5 188.68 272.5C185.794 272.5 183.027 273.646 180.987 275.685C178.946 277.725 177.8 280.491 177.8 283.375V359.5C177.8 362.384 176.654 365.15 174.613 367.19C172.573 369.229 169.806 370.375 166.92 370.375C164.034 370.375 161.267 369.229 159.227 367.19C157.186 365.15 156.04 362.384 156.04 359.5V316C156.04 313.116 154.894 310.35 152.853 308.31C150.813 306.271 148.046 305.125 145.16 305.125C142.274 305.125 139.507 306.271 137.467 308.31C135.426 310.35 134.28 313.116 134.28 316V392.125C134.28 395.009 133.134 397.775 131.093 399.815C129.053 401.854 126.286 403 123.4 403C120.514 403 117.747 401.854 115.707 399.815C113.666 397.775 112.52 395.009 112.52 392.125V283.375C112.52 280.491 111.374 277.725 109.333 275.685C107.293 273.646 104.526 272.5 101.64 272.5C98.7544 272.5 95.9871 273.646 93.9467 275.685C91.9063 277.725 90.76 280.491 90.76 283.375V337.75C90.76 340.634 89.6137 343.4 87.5733 345.44C85.5329 347.479 82.7656 348.625 79.88 348.625C76.9944 348.625 74.2271 347.479 72.1867 345.44C70.1463 343.4 69 340.634 69 337.75V243H1L1 175H69V38.5" stroke="#8692FF" stroke-width="2" stroke-linecap="round"/>
<g clip-path="url(#clip0_23951_1386)">
<path d="M69.9082 177.691C69.4973 182.613 62.7162 210.245 29.1446 250.231L5 251L5 210.757C6.3699 208.621 31.5607 176.558 37.1072 170.771C52.3385 154.879 56.5516 162.312 62.7162 165.901C68.8808 169.489 70.4218 171.54 69.9082 177.691Z" fill="#23272D"/>
<path d="M10.2941 246.688L24.364 255.528L26.4119 253.618L29.6758 250.038L15.2143 240.939L10.2941 246.688Z" fill="#2C3139"/>
<path d="M24.4349 255.513L10.8945 246.709M30.7644 222.017L44.9526 230.97M15.797 241.291L29.565 250.128" stroke="#8692FF" stroke-width="2" stroke-linecap="round"/>
<path d="M51.2847 169.996C51.0281 169.905 50.7334 169.869 50.3991 169.892C45.0094 170.255 31.0118 185.692 19.7306 202.13M51.2847 169.996C51.2541 167.925 50.5318 166.782 48.9624 166.888C45.6989 167.108 39.3756 172.686 32.3556 180.686M51.2847 169.996C51.3845 176.75 44.1335 193.377 34.9108 208.816C23.5325 227.864 6.85495 248.418 -0.599673 251.035M-0.599673 251.035C-1.04099 251.19 -1.44999 251.282 -1.82364 251.307C-5.15167 251.531 -5.04899 246.407 -2.61978 238.714M-0.599673 251.035C-1.99698 249.29 -1.30341 244.452 0.879154 238.038" stroke="#6B7AFF" stroke-width="2" stroke-linecap="round"/>
<path d="M-5.35962 257.03C-2.34946 259.094 4.13528 263.48 5.99298 264.512C8.3151 265.802 10.1212 267.608 14.7654 264.512C36.6966 248.515 67.9162 201.041 70.7544 176.013C71.0124 172.917 69.9803 170.595 67.6581 169.047C65.723 167.757 58.8856 162.941 55.5315 160.791" stroke="#8692FF" stroke-width="2" stroke-linecap="round"/>
<path d="M-6.13532 241.291C-8.11342 246.021 -10.3668 255.74 -5.61929 256.771C9.34743 260.025 63.5303 179.368 55.7879 161.306C53.1962 155.26 33.857 171.111 19.1503 192.784" stroke="#8692FF" stroke-width="2" stroke-linecap="round"/>
</g>
<rect x="58" y="29" width="20" height="20" rx="10" fill="#23272D" stroke="#8692FF" stroke-width="2"/>
<rect x="477" y="330" width="10" height="10" rx="5" fill="#23272D" stroke="#8692FF" stroke-width="2"/>
<rect x="303" y="306" width="10" height="10" rx="5" fill="#23272D" stroke="#8692FF" stroke-width="2"/>
<g clip-path="url(#clip1_23951_1386)">
<path d="M644.142 182.226L672.171 189.736C673.796 190.171 675.519 189.544 676.483 188.166L694.121 162.968C695.09 161.583 695.084 159.738 694.106 158.36L677.135 134.439C676.596 133.679 675.808 133.131 674.908 132.889L647.102 125.439C645.488 125.006 643.774 125.623 642.806 126.986L625.05 151.979C624.07 153.358 624.064 155.205 625.035 156.591L641.902 180.658C642.441 181.427 643.234 181.982 644.142 182.226Z" fill="#23272D"/>
<path d="M664.986 152.646L692.91 160.128C694.254 160.488 694.829 162.077 694.026 163.214L675.606 189.302C675.123 189.986 674.264 190.297 673.455 190.08L645.53 182.598C644.186 182.238 643.612 180.649 644.414 179.512L662.834 153.424C663.318 152.74 664.176 152.429 664.986 152.646Z" fill="#8692FF"/>
<path d="M644.142 182.226L672.171 189.736C673.796 190.171 675.519 189.544 676.483 188.166L694.121 162.968C695.09 161.583 695.084 159.738 694.106 158.36L677.135 134.439C676.596 133.679 675.808 133.131 674.908 132.889L647.102 125.439C645.488 125.006 643.774 125.623 642.806 126.986L625.05 151.979C624.07 153.358 624.064 155.205 625.035 156.591L641.902 180.658C642.441 181.427 643.234 181.982 644.142 182.226Z" stroke="#8692FF" stroke-width="2"/>
<path d="M642.737 181.849L663.661 152.064M695.482 160.59L663.661 152.064M663.661 152.064L644.593 124.971" stroke="#8692FF" stroke-width="2"/>
</g>
<path d="M304.067 179.596C304.067 179.596 357.023 104.089 358.699 101.752C360.087 99.8144 371.732 99.3711 387.003 101.69C402.274 104.009 413.401 107.854 414 110.161C414.68 112.769 427.669 203.409 427.669 203.409" stroke="#8692FF" stroke-width="2" stroke-linecap="round" stroke-dasharray="4 4"/>
<path d="M359.631 116.092L334.684 158.049" stroke="#8692FF" stroke-width="2" stroke-linecap="round" stroke-dasharray="4 4"/>
<path d="M410.66 164.853L404.99 127.432" stroke="#8692FF" stroke-width="2" stroke-linecap="round" stroke-dasharray="4 4"/>
<path d="M447.71 98.6653C447.71 98.6653 450.591 99.8514 469.838 99.8514C489.085 99.8514 502.424 98.5814 503.822 94.7146C505.22 90.8478 503.635 89.6049 500.266 86.812C496.897 84.019 481.782 73.3858 455.614 65.4742C429.445 57.5625 410.281 53.114 387.647 50.0636C365.013 47.0132 324.014 42.4468 293.996 48.4829C290.458 49.195 282.429 52.0855 282.141 55.2005C281.853 58.3155 288.525 63.9025 297.157 67.4473C305.789 70.992 328.77 78.1167 328.77 78.1167H329.563C328.851 77.2109 328.437 76.1063 328.378 74.9553C328.544 73.5582 330.829 70.9478 339.048 69.8184C347.267 68.689 377.547 67.0107 399.506 72.1895C421.466 77.3683 440.19 82.8318 446.135 87.2055C452.08 91.5792 451.691 92.9762 450.481 95.1092C449.729 96.4188 448.796 97.6159 447.71 98.6653V98.6653Z" fill="#2C3139"/>
<path d="M353.788 99.9416C350.917 98.6477 349.355 97.4253 349.512 96.4013C350.002 93.1888 367.221 93.1502 387.97 96.3163C408.719 99.4823 425.144 104.653 424.654 107.867C424.448 109.219 421.28 110.008 416.134 110.233" stroke="#8692FF" stroke-width="2" stroke-linecap="round"/>
<path d="M423.89 108.745C423.89 108.745 429.193 105.457 429.73 101.948C430.266 98.4398 412.314 92.7847 389.634 89.3238C366.954 85.863 348.131 85.9049 347.597 89.4168C347.063 92.9287 349.525 96.5291 349.525 96.5291" stroke="#8692FF" stroke-width="2"/>
<path d="M349.157 95.4212C339.803 92.5013 334.197 89.5779 334.544 87.3338C335.243 82.8195 360.562 80.1456 390.114 84.5942C419.667 89.0427 442.261 98.9297 441.563 103.444C441.223 105.655 435.164 106.796 425.602 106.862" stroke="#8692FF" stroke-width="2"/>
<path d="M441.419 103.958C441.419 103.958 448.152 97.7275 448.856 96.8827C449.56 96.0379 451.19 94.7282 451.445 92.4194C452.021 87.2032 426.304 75.884 392.372 70.7755C358.441 65.667 329.489 68.757 328.566 73.92C328.352 75.0487 328.532 76.2167 329.075 77.2289C329.642 78.4569 334.387 87.7101 334.387 87.7101" stroke="#8692FF" stroke-width="2"/>
<path d="M329.31 78.0032C299.827 69.8126 280.947 61.1775 281.972 55.2003C283.6 45.717 336.492 41.0258 397.94 51.5036C459.387 61.9815 506.12 83.6458 504.494 93.1292C503.419 99.3932 480.747 101.169 447.772 98.6346" stroke="#8692FF" stroke-width="2"/>
<path d="M282.066 54.7899C282.066 54.7899 282.399 52.099 282.502 51.5014C284.129 42.0181 337.287 37.3269 398.734 47.8058C460.18 58.2848 506.988 79.9605 505.288 89.4314C505.024 90.9056 504.627 93.1803 504.627 93.1803" stroke="#8692FF" stroke-width="2"/>
<path d="M401.639 15.1263C375.786 10.4147 351.301 22.1276 346 40C362.825 41.2237 422.811 48.3813 444.791 54.7958C445.096 36.7158 426.813 19.7155 401.639 15.1263Z" fill="#23272D"/>
<path d="M346.675 38.7762C351.976 20.9038 375.786 10.4147 401.639 15.1263C426.813 19.7155 445.096 36.7158 444.791 54.7958" stroke="#8692FF" stroke-width="2" stroke-linecap="round" stroke-linejoin="round"/>
<path d="M349.313 175.93C349.313 175.93 343.823 178.958 342.819 180.126C341.816 181.294 340.672 182.206 339.249 181.416C337.825 180.627 337.069 179.519 338.274 177.544C339.48 175.568 341.32 170.235 341.197 168.83C341.073 167.425 341.075 165.278 343.145 165.603C343.748 165.791 344.388 165.83 345.009 165.718C345.631 165.605 346.216 165.345 346.716 164.958C347.938 164.254 350.004 164.196 348.984 165.603C347.963 167.01 350.628 166.209 351.906 166.894C353.184 167.579 361.998 162.998 372.359 162.053C382.72 161.107 385.717 163.559 388.915 163.666C392.113 163.774 394.775 165.619 396.059 166.248C397.343 166.878 401.562 168.647 402.876 171.734C404.431 175.529 406.276 179.197 408.395 182.707C409.966 184.896 412.478 188.205 410.019 186.902C407.561 185.599 407.017 184.024 405.474 181.093C403.932 178.162 403.403 173.496 401.254 172.057C399.105 170.618 398.659 169.902 398.007 169.798C397.355 169.693 397.312 170.69 397.357 172.057C397.403 173.423 395.938 177.026 395.089 178.834C394.423 180.581 394.199 182.466 394.44 184.32C394.513 186.069 394.39 189.113 394.44 189.806C394.49 190.5 395.68 191.488 395.414 193.357C395.39 193.98 395.233 194.59 394.953 195.147C394.673 195.704 394.276 196.194 393.79 196.584C393.293 196.768 392.405 196.683 392.492 194.649C392.689 193.35 392.578 192.023 392.167 190.776C391.711 189.65 391.49 188.442 391.518 187.227C391.648 186.391 391.421 188.701 391.518 191.422C391.614 194.144 391.355 195.38 391.842 196.263C392.328 197.147 391.513 198.243 390.543 198.845C389.574 199.447 388.162 200.433 388.275 197.877C388.539 195.4 388.43 192.898 387.951 190.454C387.332 188.244 387.129 185.506 386.329 184.645C385.528 183.783 385.037 184.367 385.03 185.29C385.094 185.926 384.976 186.568 384.689 187.14C384.401 187.711 383.957 188.189 383.407 188.517C381.852 189.464 379.613 189.862 378.538 188.517C377.463 187.172 377.524 186.864 375.616 187.227C373.772 187.446 371.903 187.336 370.097 186.904C368.336 186.621 366.099 184.808 365.876 185.613C365.654 186.418 365.592 191.417 365.552 193.036C365.702 195.789 366.249 198.507 367.175 201.104C367.827 202.159 368.493 203.355 367.499 204.331C366.504 205.308 365.077 207.166 364.577 204.977C364.077 202.787 363.827 199.752 363.278 197.877C362.73 196.001 362.051 193.518 361.98 193.036C361.708 194.417 361.599 195.825 361.656 197.232C361.607 198.387 361.95 199.524 362.63 200.459C363.179 201.328 362.714 201.435 362.305 201.749C361.616 202.287 360.852 202.722 360.037 203.04C359.597 203.082 358.677 202.886 358.739 200.781C358.802 198.676 358.84 193.524 358.089 191.422C357.339 189.321 355.541 182.804 355.493 182.064C355.444 181.323 355.833 180.536 354.194 180.127C353.127 179.819 352.138 179.285 351.296 178.561C350.454 177.836 349.777 176.939 349.313 175.93V175.93Z" fill="#505D6A"/>
<path d="M386.394 105.939C398.778 107.816 408.513 111.345 408.138 113.821C407.763 116.298 397.42 116.784 385.036 114.908C372.652 113.031 362.917 109.502 363.292 107.026C363.667 104.549 374.009 104.062 386.394 105.939Z" fill="#8692FF"/>
<path d="M252.918 96.1804C248.815 89.5172 237.964 87.8696 227.93 92.605C218.157 97.2168 212.548 106.099 214.634 113.396C226.511 105.865 239.402 100.068 252.918 96.1804Z" stroke="#8692FF" stroke-width="2"/>
<path d="M217.47 128.564C217.47 128.564 216.425 129.357 208.573 131.465C200.722 133.573 195.142 134.509 194.149 133.085C193.156 131.66 193.667 130.98 194.736 129.472C195.806 127.964 200.81 121.974 210.619 115.887C218.892 110.581 227.604 105.993 236.659 102.172C245.559 98.4557 261.783 92.1101 274.688 91.2857C276.208 91.1893 279.799 91.4909 280.258 92.7303C280.717 93.9698 278.604 96.9782 275.471 99.3686C272.338 101.759 263.743 107.176 263.743 107.176L263.421 107.262C263.612 106.815 263.661 106.319 263.559 105.843C263.339 105.291 262.121 104.477 258.646 104.914C255.17 105.35 242.634 107.975 234.243 112.489C225.851 117.002 218.811 121.277 216.864 123.715C214.917 126.153 215.227 126.676 215.956 127.414C216.405 127.866 216.914 128.253 217.47 128.564Z" fill="#2C3139"/>
<path d="M241.455 120.837C233.29 124.44 227.124 128.401 227.684 129.682C228.244 130.963 235.318 129.089 243.484 125.486C251.649 121.884 257.815 117.923 257.254 116.641C256.694 115.36 249.621 117.235 241.455 120.837Z" stroke="#8692FF" stroke-width="2"/>
<path d="M257.371 116.692C260.866 114.47 262.83 112.658 262.442 111.775C261.661 109.998 251.038 111.667 239.472 116.725C227.907 121.782 219.779 128.31 220.56 130.087C220.943 130.958 223.539 130.768 227.448 129.747" stroke="#8692FF" stroke-width="2"/>
<path d="M220.462 129.479C220.462 129.479 217.04 127.692 216.661 127.427C215.992 127.104 215.45 126.568 215.121 125.902C214.321 123.854 223.582 116.456 236.868 110.678C250.155 104.901 262.3 102.988 263.236 104.979C263.446 105.413 263.5 105.906 263.387 106.375C263.29 106.934 262.359 111.201 262.359 111.201" stroke="#8692FF" stroke-width="2"/>
<path d="M263.516 107.235C274.651 100.684 281.411 95.1116 280.343 92.7949C278.642 89.1186 256.562 92.9956 232.636 103.968C208.711 114.94 192.008 128.854 193.704 132.53C194.824 134.958 204.265 133.201 217.441 128.568" stroke="#8692FF" stroke-width="2"/>
<path d="M271.779 156.345C272.999 156.44 274.209 156.64 275.395 156.943C276.052 157.261 276.722 157.442 277.191 156.829C277.329 156.702 277.433 156.542 277.494 156.365C277.554 156.187 277.57 155.998 277.54 155.813C277.509 155.627 277.433 155.453 277.318 155.304C277.204 155.156 277.054 155.038 276.883 154.962C275.727 154.064 274.739 152.968 273.966 151.725C273.754 151.09 273.348 150.157 272.509 150.69C272.282 150.886 272.011 151.023 271.72 151.092C271.428 151.16 271.124 151.158 270.834 151.084C270.17 151.009 269.261 151.373 269.968 151.793C270.674 152.214 269.367 152.367 268.942 152.907C268.516 153.447 263.819 153.119 259.134 154.666C254.448 156.213 253.61 157.841 252.239 158.495C251.188 159.106 250.291 159.952 249.621 160.967C249.182 161.483 247.681 163.049 247.693 164.64C247.734 166.584 247.624 168.527 247.366 170.454C247.097 171.701 246.63 173.615 247.452 172.585C248.274 171.554 248.214 170.77 248.331 169.2C248.447 167.629 247.795 165.503 248.459 164.473C249.122 163.444 249.18 163.046 249.444 162.878C249.708 162.71 249.915 163.135 250.153 163.738C250.779 164.685 251.543 165.534 252.421 166.255C253.041 166.89 253.495 167.669 253.74 168.523C254.038 169.297 254.666 170.597 254.776 170.904C254.886 171.211 254.549 171.869 255.023 172.631C255.497 173.393 256.088 173.741 256.339 173.728C256.589 173.714 256.959 173.509 256.537 172.64C256.206 172.113 256.004 171.515 255.946 170.895C255.932 170.319 255.8 169.752 255.559 169.229C255.344 168.889 255.879 169.854 256.352 171.054C256.825 172.254 257.171 172.745 257.126 173.22C257.08 173.695 257.643 174.013 258.178 174.097C258.713 174.181 259.514 174.339 258.983 173.247C258.401 172.22 257.976 171.111 257.722 169.958C257.463 169.036 257.331 168.082 257.331 167.124C257.516 166.597 257.84 166.758 258.017 167.159C258.109 167.448 258.282 167.704 258.515 167.898C258.748 168.093 259.032 168.216 259.332 168.255C260.187 168.369 261.236 168.124 261.449 167.336C261.663 166.547 261.578 166.428 262.476 166.222C263.319 165.969 264.111 165.568 264.815 165.039C265.527 164.586 266.158 163.372 266.403 163.679C266.648 163.985 267.623 166.148 267.946 166.845C268.4 168.07 268.676 169.355 268.764 170.659C268.68 171.241 268.615 171.887 269.232 172.124C269.849 172.361 270.819 172.9 270.624 171.853C270.429 170.807 269.963 169.44 269.848 168.521C269.732 167.601 269.558 166.393 269.498 166.17C269.878 166.719 270.191 167.311 270.432 167.933C270.671 168.426 270.736 168.986 270.618 169.521C270.543 170.003 270.765 169.961 271.002 170.021C271.404 170.124 271.819 170.169 272.233 170.153C272.433 170.089 272.8 169.829 272.372 168.925C271.696 167.597 271.197 166.187 270.886 164.73C270.815 163.673 270.366 160.499 270.248 160.17C270.13 159.841 269.814 159.569 270.446 159.083C270.852 158.748 271.18 158.331 271.41 157.859C271.64 157.386 271.766 156.87 271.779 156.345V156.345Z" fill="#505D6A"/>
<path d="M230.359 135.37V173.924" stroke="#8692FF" stroke-width="2" stroke-linecap="round" stroke-dasharray="4 4"/>
<path d="M237.163 150.111V165.987" stroke="#8692FF" stroke-width="2" stroke-linecap="round" stroke-dasharray="4 4"/>
<path d="M262.11 120.628L298.397 144.441" stroke="#8692FF" stroke-width="2" stroke-linecap="round" stroke-dasharray="4 4"/>
<path d="M267.43 131.445L283.862 142.229" stroke="#8692FF" stroke-width="2" stroke-linecap="round" stroke-dasharray="4 4"/>
<defs>
<clipPath id="clip0_23951_1386">
<rect width="134" height="181" fill="white" transform="matrix(-1 0 0 1 136 61)"/>
</clipPath>
<clipPath id="clip1_23951_1386">
<rect width="76" height="67" fill="white" transform="translate(604 107)"/>
</clipPath>
</defs>
</svg>
