<svg viewBox="0 0 683 404" fill="none" xmlns="http://www.w3.org/2000/svg"><path d="M69 13c0-6.627 5.373-12 12-12h520c6.627 0 12 5.373 12 12v26H69V13Z" class="stroke-theme-secondary-200 fill-theme-secondary-100 dark:stroke-theme-dark-700 dark:fill-theme-dark-800" stroke-width="2"/><path fill-rule="evenodd" clip-rule="evenodd" d="M113 24a4 4 0 1 0 0-8 4 4 0 0 0 0 8Zm-13 0a4 4 0 1 0 0-8 4 4 0 0 0 0 8Zm-13 0a4 4 0 1 0 0-8 4 4 0 0 0 0 8Z" class="fill-theme-secondary-400 dark:fill-theme-dark-700"/><path d="M1 107V51c0-6.627 5.373-12 12-12h56M1 107h68m-68 0v68M69 39v68m0-68h544M69 107v68M613 39v68m0-68h56c6.627 0 12 5.373 12 12v56m-68 0h68m-68 0v68m68-68v68M1 175h68m-68 0v68m68-68v68m544-68h68m-68 0v68m68-68v68M1 243h68m-68 0v56c0 6.627 5.373 12 12 12h56m0-68v68m544-68h68m-68 0v68m68-68v56c0 6.627-5.373 12-12 12h-56m-544 0v24.5M613 311v29" class="stroke-theme-secondary-200 dark:stroke-theme-dark-800" stroke-width="2"/><path d="M69 283.375v54.375a10.874 10.874 0 0 0 10.88 10.875 10.874 10.874 0 0 0 10.88-10.875v-54.375a10.874 10.874 0 0 1 10.88-10.875c2.886 0 5.653 1.146 7.693 3.185a10.872 10.872 0 0 1 3.187 7.69v108.75c0 2.884 1.146 5.65 3.187 7.69a10.882 10.882 0 0 0 18.573-7.69V316c0-2.884 1.146-5.65 3.187-7.69A10.882 10.882 0 0 1 156.04 316v43.5c0 2.884 1.146 5.65 3.187 7.69a10.882 10.882 0 0 0 18.573-7.69v-76.125c0-2.884 1.146-5.65 3.187-7.69a10.882 10.882 0 0 1 18.573 7.69V316c0 2.884 1.146 5.65 3.187 7.69A10.882 10.882 0 0 0 221.32 316v-54.375c0-2.884 1.146-5.65 3.187-7.69a10.882 10.882 0 0 1 18.573 7.69v87c0 2.884 1.146 5.65 3.187 7.69a10.882 10.882 0 0 0 18.573-7.69V294.25c0-2.884 1.146-5.65 3.187-7.69a10.882 10.882 0 0 1 18.573 7.69v65.25c0 2.884 1.146 5.65 3.187 7.69a10.882 10.882 0 0 0 18.573-7.69v-76.125c0-2.884 1.146-5.65 3.187-7.69a10.882 10.882 0 0 1 18.573 7.69v21.75c0 2.884 1.146 5.65 3.187 7.69a10.882 10.882 0 0 0 18.573-7.69V250.75c0-2.884 1.146-5.65 3.187-7.69a10.882 10.882 0 0 1 18.573 7.69V316c0 2.884 1.146 5.65 3.187 7.69A10.882 10.882 0 0 0 395.4 316v-32.625c0-2.884 1.146-5.65 3.187-7.69a10.882 10.882 0 0 1 18.573 7.69v108.75c0 2.884 1.146 5.65 3.187 7.69a10.882 10.882 0 0 0 18.573-7.69V272.5c0-2.884 1.146-5.65 3.187-7.69a10.882 10.882 0 0 1 18.573 7.69v97.875c0 2.884 1.146 5.65 3.187 7.69a10.882 10.882 0 0 0 18.573-7.69v-65.25c0-2.884 1.146-5.65 3.187-7.69a10.882 10.882 0 0 1 18.573 7.69V359.5c0 2.884 1.146 5.65 3.187 7.69a10.882 10.882 0 0 0 18.573-7.69V250.75c0-2.884 1.146-5.65 3.187-7.69a10.882 10.882 0 0 1 18.573 7.69V316c0 2.884 1.146 5.65 3.187 7.69A10.882 10.882 0 0 0 569.48 316v-43.5c0-2.884 1.146-5.65 3.187-7.69a10.882 10.882 0 0 1 18.573 7.69v87c0 2.884 1.146 5.65 3.187 7.69A10.882 10.882 0 0 0 613 359.5V229" class="stroke-theme-secondary-200 dark:stroke-theme-dark-500" stroke-width="2" stroke-linecap="round"/><path d="M482.44 330.375v-25.25c0-2.884 1.146-5.65 3.187-7.69a10.884 10.884 0 0 1 15.386 0 10.872 10.872 0 0 1 3.187 7.69V359.5c0 2.884 1.146 5.65 3.187 7.69a10.882 10.882 0 0 0 18.573-7.69V250.75c0-2.884 1.146-5.65 3.187-7.69a10.884 10.884 0 0 1 15.386 0 10.872 10.872 0 0 1 3.187 7.69V316c0 2.884 1.146 5.65 3.187 7.69a10.884 10.884 0 0 0 15.386 0 10.872 10.872 0 0 0 3.187-7.69v-43.5c0-2.884 1.146-5.65 3.187-7.69a10.882 10.882 0 0 1 18.573 7.69v87c0 2.884 1.146 5.65 3.187 7.69a10.884 10.884 0 0 0 15.386 0A10.872 10.872 0 0 0 613 359.5V175h68l-.5-68H613V39H440M308.36 313.375V359.5c0 2.884-1.146 5.65-3.187 7.69a10.882 10.882 0 0 1-18.573-7.69v-65.25c0-2.884-1.146-5.65-3.187-7.69a10.882 10.882 0 0 0-18.573 7.69v54.375c0 2.884-1.146 5.65-3.187 7.69a10.882 10.882 0 0 1-18.573-7.69v-87c0-2.884-1.146-5.65-3.187-7.69a10.882 10.882 0 0 0-18.573 7.69V316c0 2.884-1.146 5.65-3.187 7.69A10.882 10.882 0 0 1 199.56 316v-32.625c0-2.884-1.146-5.65-3.187-7.69a10.882 10.882 0 0 0-18.573 7.69V359.5c0 2.884-1.146 5.65-3.187 7.69a10.882 10.882 0 0 1-18.573-7.69V316c0-2.884-1.146-5.65-3.187-7.69A10.882 10.882 0 0 0 134.28 316v76.125c0 2.884-1.146 5.65-3.187 7.69a10.882 10.882 0 0 1-18.573-7.69v-108.75c0-2.884-1.146-5.65-3.187-7.69a10.882 10.882 0 0 0-18.573 7.69v54.375a10.874 10.874 0 0 1-10.88 10.875A10.874 10.874 0 0 1 69 337.75V243H1v-68h68V38.5" class="stroke-theme-primary-600 dark:stroke-theme-primary-400" stroke-width="2" stroke-linecap="round"/><g clip-path="url(#clip0_19702_89734)"><path d="M69.908 177.691c-.41 4.922-7.192 32.554-40.763 72.54L5 251v-40.243c1.37-2.136 26.56-34.199 32.107-39.986 15.232-15.892 19.445-8.459 25.61-4.87 6.164 3.588 7.705 5.639 7.191 11.79Z" class="fill-white dark:fill-theme-dark-900"/><path d="m10.294 246.688 14.07 8.84 2.048-1.91 3.264-3.58-14.462-9.099-4.92 5.749Z" class="fill-theme-secondary-200 dark:fill-theme-dark-800"/><path d="m24.435 255.513-13.54-8.804m19.87-24.692 14.188 8.953m-29.156 10.321 13.768 8.837" class="stroke-theme-primary-600 dark:stroke-theme-primary-400" stroke-width="2" stroke-linecap="round"/><path d="M51.285 169.996a2.184 2.184 0 0 0-.886-.104c-5.39.363-19.387 15.8-30.668 32.238m31.554-32.134c-.03-2.071-.753-3.214-2.323-3.108-3.263.22-9.586 5.798-16.606 13.798m18.929-10.69c.1 6.754-7.151 23.381-16.374 38.82C23.532 227.864 6.855 248.418-.6 251.035m0 0a4.685 4.685 0 0 1-1.225.272c-3.328.224-3.225-4.9-.796-12.593m2.02 12.321c-1.397-1.745-.703-6.583 1.48-12.997" class="stroke-theme-primary-900 dark:stroke-theme-primary-500" stroke-width="2" stroke-linecap="round"/><path d="M-5.36 257.03c3.01 2.064 9.495 6.45 11.353 7.482 2.322 1.29 4.128 3.096 8.772 0 21.932-15.997 53.151-63.471 55.99-88.499.257-3.096-.775-5.418-3.097-6.966-1.935-1.29-8.772-6.106-12.127-8.256" class="stroke-theme-primary-600 dark:stroke-theme-primary-400" stroke-width="2" stroke-linecap="round"/><path d="M-6.135 241.291c-1.978 4.73-4.232 14.449.516 15.48 14.966 3.254 69.15-77.403 61.407-95.465-2.592-6.046-21.931 9.805-36.638 31.478" class="stroke-theme-primary-600 dark:stroke-theme-primary-400" stroke-width="2" stroke-linecap="round"/></g><path d="M304.067 179.596s52.956-75.507 54.632-77.844c1.388-1.938 13.033-2.38 28.304-.062 15.271 2.319 26.398 6.164 26.997 8.471.68 2.608 13.669 93.248 13.669 93.248m-68.038-87.317-24.947 41.957m75.976 6.804-5.67-37.421" class="stroke-theme-primary-600 dark:stroke-theme-primary-400" stroke-width="2" stroke-linecap="round" stroke-dasharray="4 4"/><path d="M447.71 98.665s2.881 1.186 22.128 1.186 32.586-1.27 33.984-5.136c1.398-3.867-.187-5.11-3.556-7.903-3.369-2.793-18.484-13.426-44.652-21.338-26.169-7.912-45.333-12.36-67.967-15.41-22.634-3.05-63.633-7.617-93.651-1.581-3.538.712-11.567 3.602-11.855 6.717-.288 3.115 6.384 8.703 15.016 12.247 8.632 3.545 31.613 10.67 31.613 10.67h.793a5.578 5.578 0 0 1-1.185-3.162c.166-1.397 2.451-4.007 10.67-5.137s38.499-2.807 60.458 2.371c21.96 5.18 40.684 10.643 46.629 15.016 5.945 4.374 5.556 5.771 4.346 7.904a16.085 16.085 0 0 1-2.771 3.556Z" class="fill-theme-secondary-200 dark:fill-theme-dark-800"/><path d="M353.788 99.942c-2.871-1.294-4.433-2.517-4.276-3.54.49-3.213 17.709-3.252 38.458-.086s37.174 8.337 36.684 11.551c-.206 1.352-3.374 2.141-8.52 2.366" class="stroke-theme-primary-900 dark:stroke-theme-primary-500" stroke-width="2" stroke-linecap="round"/><path d="M423.89 108.745s5.303-3.288 5.84-6.797c.536-3.508-17.416-9.163-40.096-12.624-22.68-3.461-41.503-3.42-42.037.093-.534 3.512 1.928 7.112 1.928 7.112" class="stroke-theme-primary-900 dark:stroke-theme-primary-500" stroke-width="2"/><path d="M349.157 95.421c-9.354-2.92-14.96-5.843-14.613-8.087.699-4.514 26.018-7.188 55.57-2.74 29.553 4.449 52.147 14.336 51.449 18.85-.34 2.211-6.399 3.352-15.961 3.418" class="stroke-theme-primary-900 dark:stroke-theme-primary-500" stroke-width="2"/><path d="M441.419 103.958s6.733-6.23 7.437-7.075c.704-.845 2.334-2.155 2.589-4.463.576-5.217-25.141-16.536-59.073-21.645-33.931-5.108-62.883-2.018-63.806 3.145a5.021 5.021 0 0 0 .509 3.309c.567 1.228 5.312 10.481 5.312 10.481" class="stroke-theme-primary-900 dark:stroke-theme-primary-500" stroke-width="2"/><path d="M329.31 78.003c-29.483-8.19-48.363-16.825-47.338-22.803 1.628-9.483 54.52-14.174 115.968-3.696 61.447 10.477 108.18 32.142 106.554 41.625-1.075 6.264-23.747 8.04-56.722 5.506" class="stroke-theme-primary-900 dark:stroke-theme-primary-500" stroke-width="2"/><path d="M282.066 54.79s.333-2.691.436-3.289c1.627-9.483 54.785-14.174 116.232-3.695C460.18 58.285 506.988 79.96 505.288 89.43c-.264 1.475-.661 3.75-.661 3.75" class="stroke-theme-primary-900 dark:stroke-theme-primary-500" stroke-width="2"/><path d="M401.639 15.126C375.786 10.415 351.301 22.128 346 40c16.825 1.224 76.811 8.381 98.791 14.796.305-18.08-17.978-35.08-43.152-39.67Z" class="fill-white dark:fill-theme-dark-900"/><path d="M346.675 38.776c5.301-17.872 29.111-28.361 54.964-23.65 25.174 4.59 43.457 21.59 43.152 39.67" class="stroke-theme-primary-600 dark:stroke-theme-primary-400" stroke-width="2" stroke-linecap="round" stroke-linejoin="round"/><path d="M349.313 175.93s-5.49 3.028-6.494 4.196c-1.003 1.168-2.147 2.08-3.57 1.29-1.424-.789-2.18-1.897-.975-3.872 1.206-1.976 3.046-7.309 2.923-8.714-.124-1.405-.122-3.552 1.948-3.227a3.925 3.925 0 0 0 3.571-.645c1.222-.704 3.288-.762 2.268.645-1.021 1.407 1.644.606 2.922 1.291 1.278.685 10.092-3.896 20.453-4.841 10.361-.946 13.358 1.506 16.556 1.613 3.198.108 5.86 1.953 7.144 2.582 1.284.63 5.503 2.399 6.817 5.486a79.7 79.7 0 0 0 5.519 10.973c1.571 2.189 4.083 5.498 1.624 4.195-2.458-1.303-3.002-2.878-4.545-5.809-1.542-2.931-2.071-7.597-4.22-9.036-2.149-1.439-2.595-2.155-3.247-2.259-.652-.105-.695.892-.65 2.259.046 1.366-1.419 4.969-2.268 6.777a11.31 11.31 0 0 0-.649 5.486c.073 1.749-.05 4.793 0 5.486.05.694 1.24 1.682.974 3.551a4.357 4.357 0 0 1-1.624 3.227c-.497.184-1.385.099-1.298-1.935a8.366 8.366 0 0 0-.325-3.873 8.91 8.91 0 0 1-.649-3.549c.13-.836-.097 1.474 0 4.195.096 2.722-.163 3.958.324 4.841.486.884-.329 1.98-1.299 2.582-.969.602-2.381 1.588-2.268-.968a24.882 24.882 0 0 0-.324-7.423c-.619-2.21-.822-4.948-1.623-5.809-.8-.862-1.291-.278-1.298.645a3.373 3.373 0 0 1-.341 1.85 3.369 3.369 0 0 1-1.282 1.377c-1.555.947-3.794 1.345-4.869 0-1.075-1.345-1.014-1.653-2.922-1.29a15.745 15.745 0 0 1-5.519-.323c-1.761-.283-3.998-2.096-4.221-1.291-.222.805-.284 5.804-.324 7.423a28.67 28.67 0 0 0 1.623 8.068c.652 1.055 1.318 2.251.324 3.227-.995.977-2.422 2.835-2.922.646-.5-2.19-.75-5.225-1.299-7.1-.548-1.876-1.227-4.359-1.298-4.841a17.95 17.95 0 0 0-.324 4.196 5.117 5.117 0 0 0 .974 3.227c.549.869.084.976-.325 1.29a9.002 9.002 0 0 1-2.268 1.291c-.44.042-1.36-.154-1.298-2.259.063-2.105.101-7.257-.65-9.359-.75-2.101-2.548-8.618-2.596-9.358-.049-.741.34-1.528-1.299-1.937a7.736 7.736 0 0 1-4.881-4.197Z" class="fill-theme-secondary-400 dark:fill-theme-dark-700"/><path d="M386.394 105.939c12.384 1.877 22.119 5.406 21.744 7.882-.375 2.477-10.718 2.963-23.102 1.087-12.384-1.877-22.119-5.406-21.744-7.882.375-2.477 10.717-2.964 23.102-1.087Z" class="fill-theme-primary-600 dark:fill-theme-primary-400"/><path d="M252.918 96.18c-4.103-6.663-14.954-8.31-24.988-3.575-9.773 4.612-15.382 13.494-13.296 20.791a147.767 147.767 0 0 1 38.284-17.216Z" class="stroke-theme-primary-900 dark:stroke-theme-primary-500" stroke-width="2"/><path d="M217.47 128.564s-1.045.793-8.897 2.901c-7.851 2.108-13.431 3.044-14.424 1.62-.993-1.425-.482-2.105.587-3.613 1.07-1.508 6.074-7.498 15.883-13.585a172.349 172.349 0 0 1 26.04-13.715c8.9-3.716 25.124-10.062 38.029-10.886 1.52-.097 5.111.205 5.57 1.444.459 1.24-1.654 4.248-4.787 6.639-3.133 2.39-11.728 7.807-11.728 7.807l-.322.086c.191-.447.24-.943.138-1.418-.22-.553-1.438-1.367-4.913-.93-3.476.436-16.012 3.061-24.403 7.575-8.392 4.513-15.432 8.788-17.379 11.226-1.947 2.438-1.637 2.961-.908 3.699a6.84 6.84 0 0 0 1.514 1.15Z" class="fill-theme-secondary-200 dark:fill-theme-dark-800"/><path d="M241.455 120.837c-8.165 3.603-14.331 7.564-13.771 8.845.56 1.281 7.634-.593 15.8-4.196 8.165-3.602 14.331-7.563 13.77-8.845-.56-1.281-7.633.594-15.799 4.196Z" class="stroke-theme-primary-900 dark:stroke-theme-primary-500" stroke-width="2"/><path d="M257.371 116.692c3.495-2.222 5.459-4.034 5.071-4.917-.781-1.777-11.404-.108-22.97 4.95-11.565 5.057-19.693 11.585-18.912 13.362.383.871 2.979.681 6.888-.34" class="stroke-theme-primary-900 dark:stroke-theme-primary-500" stroke-width="2"/><path d="M220.462 129.479s-3.422-1.787-3.801-2.052a3.333 3.333 0 0 1-1.54-1.525c-.8-2.048 8.461-9.446 21.747-15.224 13.287-5.777 25.432-7.69 26.368-5.699.21.434.264.927.151 1.396-.097.559-1.028 4.826-1.028 4.826" class="stroke-theme-primary-900 dark:stroke-theme-primary-500" stroke-width="2"/><path d="M263.516 107.235c11.135-6.551 17.895-12.123 16.827-14.44-1.701-3.676-23.781.2-47.707 11.173-23.925 10.972-40.628 24.886-38.932 28.562 1.12 2.428 10.561.671 23.737-3.962" class="stroke-theme-primary-900 dark:stroke-theme-primary-500" stroke-width="2"/><path d="M271.779 156.345c1.22.095 2.43.295 3.616.598.657.318 1.327.499 1.796-.114a1.132 1.132 0 0 0-.308-1.867 12.375 12.375 0 0 1-2.917-3.237c-.212-.635-.618-1.568-1.457-1.035a1.865 1.865 0 0 1-1.675.394c-.664-.075-1.573.289-.866.709.706.421-.601.574-1.026 1.114-.426.54-5.123.212-9.808 1.759-4.686 1.547-5.524 3.175-6.895 3.829a7.886 7.886 0 0 0-2.618 2.472c-.439.516-1.94 2.082-1.928 3.673a37.798 37.798 0 0 1-.327 5.814c-.269 1.247-.736 3.161.086 2.131.822-1.031.762-1.815.879-3.385.116-1.571-.536-3.697.128-4.727.663-1.029.721-1.427.985-1.595.264-.168.471.257.709.86.626.947 1.39 1.796 2.268 2.517a5.365 5.365 0 0 1 1.319 2.268c.298.774.926 2.074 1.036 2.381.11.307-.227.965.247 1.727.474.762 1.065 1.11 1.316 1.097.25-.014.62-.219.198-1.088a3.977 3.977 0 0 1-.591-1.745 4.227 4.227 0 0 0-.387-1.666c-.215-.34.32.625.793 1.825.473 1.2.819 1.691.774 2.166-.046.475.517.793 1.052.877.535.084 1.336.242.805-.85a11.837 11.837 0 0 1-1.261-3.289 10.482 10.482 0 0 1-.391-2.834c.185-.527.509-.366.686.035a1.589 1.589 0 0 0 1.315 1.096c.855.114 1.904-.131 2.117-.919.214-.789.129-.908 1.027-1.114a7.469 7.469 0 0 0 2.339-1.183c.712-.453 1.343-1.667 1.588-1.36.245.306 1.22 2.469 1.543 3.166.454 1.225.73 2.51.818 3.814-.084.582-.149 1.228.468 1.465.617.237 1.587.776 1.392-.271-.195-1.046-.661-2.413-.776-3.332-.116-.92-.29-2.128-.35-2.351a8.48 8.48 0 0 1 .934 1.763c.239.493.304 1.053.186 1.588-.075.482.147.44.384.5.402.103.817.148 1.231.132.2-.064.567-.324.139-1.228a17.127 17.127 0 0 1-1.486-4.195c-.071-1.057-.52-4.231-.638-4.56-.118-.329-.434-.601.198-1.087a3.67 3.67 0 0 0 1.333-2.738Z" class="fill-theme-secondary-400 dark:fill-theme-dark-700"/><path d="M230.359 135.37v38.554m6.804-23.813v15.876m24.947-45.359 36.287 23.813m-30.967-12.996 16.432 10.784" class="stroke-theme-primary-900 dark:stroke-theme-primary-500" stroke-width="2" stroke-linecap="round" stroke-dasharray="4 4"/><rect x="58" y="29" width="20" height="20" rx="10" class="stroke-theme-primary-600 fill-white dark:stroke-theme-primary-400 dark:fill-theme-dark-900" stroke-width="2"/><rect x="477" y="330" width="10" height="10" rx="5" class="stroke-theme-primary-600 fill-white dark:stroke-theme-primary-400 dark:fill-theme-dark-900" stroke-width="2"/><rect x="303" y="306" width="10" height="10" rx="5" class="stroke-theme-primary-600 fill-white dark:stroke-theme-primary-400 dark:fill-theme-dark-900" stroke-width="2"/><g clip-path="url(#clip1_19702_89734)"><path d="m644.142 182.226 28.029 7.51a4 4 0 0 0 4.312-1.57l17.638-25.198a4 4 0 0 0-.015-4.608l-16.971-23.921a3.999 3.999 0 0 0-2.227-1.549l-27.806-7.451a3.999 3.999 0 0 0-4.296 1.547l-17.756 24.993a4 4 0 0 0-.015 4.612l16.867 24.067a4.004 4.004 0 0 0 2.24 1.568Z" class="fill-white dark:fill-theme-dark-900"/><path d="m664.986 152.646 27.924 7.482a2 2 0 0 1 1.116 3.086l-18.42 26.088a2 2 0 0 1-2.151.778l-27.925-7.482a2 2 0 0 1-1.116-3.086l18.42-26.088a2.001 2.001 0 0 1 2.152-.778Z" class="fill-theme-primary-600 dark:fill-theme-primary-400"/><path d="m644.142 182.226 28.029 7.51a4 4 0 0 0 4.312-1.57l17.638-25.198a4 4 0 0 0-.015-4.608l-16.971-23.921a3.999 3.999 0 0 0-2.227-1.549l-27.806-7.451a3.999 3.999 0 0 0-4.296 1.547l-17.756 24.993a4 4 0 0 0-.015 4.612l16.867 24.067a4.004 4.004 0 0 0 2.24 1.568Zm-1.405-.377 20.924-29.785m31.821 8.526-31.821-8.526m0 0-19.068-27.093" class="stroke-theme-primary-600 dark:stroke-theme-primary-400" stroke-width="2"/></g><defs><clipPath id="clip0_19702_89734"><rect width="134" height="181" fill="white" transform="matrix(-1 0 0 1 136 61)"/></clipPath><clipPath id="clip1_19702_89734"><rect width="76" height="67" fill="white" transform="translate(604 107)"/></clipPath></defs></svg>