<svg viewBox="0 0 683 404" fill="none" xmlns="http://www.w3.org/2000/svg"><path d="M69 13c0-6.627 5.373-12 12-12h520c6.627 0 12 5.373 12 12v26H69V13Z" class="fill-theme-secondary-100 stroke-theme-secondary-200 dark:fill-theme-dark-800 dark:stroke-theme-dark-700" stroke-width="2"/><path fill-rule="evenodd" clip-rule="evenodd" d="M113 24a4 4 0 1 0 0-8 4 4 0 0 0 0 8Zm-13 0a4 4 0 1 0 0-8 4 4 0 0 0 0 8Zm-13 0a4 4 0 1 0 0-8 4 4 0 0 0 0 8Z" class="fill-theme-secondary-400 dark:fill-theme-dark-700"/><path d="M1 107V51c0-6.627 5.373-12 12-12h56M1 107h68m-68 0v68M69 39v68m0-68h544M69 107v68M613 39v68m0-68h56c6.627 0 12 5.373 12 12v56m-68 0h68m-68 0v68m68-68v68M1 175h68m-68 0v68m68-68v68m544-68h68m-68 0v68m68-68v68M1 243h68m-68 0v56c0 6.627 5.373 12 12 12h56m0-68v68m544-68h68m-68 0v68m68-68v56c0 6.627-5.373 12-12 12h-56m-544 0v24.5M613 311v29" class="stroke-theme-secondary-200 dark:stroke-theme-dark-800" stroke-width="2"/><path d="M69 283.375v54.375a10.874 10.874 0 0 0 10.88 10.875 10.874 10.874 0 0 0 10.88-10.875v-54.375a10.874 10.874 0 0 1 10.88-10.875c2.886 0 5.653 1.146 7.693 3.185a10.872 10.872 0 0 1 3.187 7.69v108.75c0 2.884 1.146 5.65 3.187 7.69a10.882 10.882 0 0 0 18.573-7.69V316c0-2.884 1.146-5.65 3.187-7.69A10.882 10.882 0 0 1 156.04 316v43.5c0 2.884 1.146 5.65 3.187 7.69a10.882 10.882 0 0 0 18.573-7.69v-76.125c0-2.884 1.146-5.65 3.187-7.69a10.882 10.882 0 0 1 18.573 7.69V316c0 2.884 1.146 5.65 3.187 7.69A10.882 10.882 0 0 0 221.32 316v-54.375c0-2.884 1.146-5.65 3.187-7.69a10.882 10.882 0 0 1 18.573 7.69v87c0 2.884 1.146 5.65 3.187 7.69a10.882 10.882 0 0 0 18.573-7.69V294.25c0-2.884 1.146-5.65 3.187-7.69a10.882 10.882 0 0 1 18.573 7.69v65.25c0 2.884 1.146 5.65 3.187 7.69a10.882 10.882 0 0 0 18.573-7.69v-76.125c0-2.884 1.146-5.65 3.187-7.69a10.882 10.882 0 0 1 18.573 7.69v21.75c0 2.884 1.146 5.65 3.187 7.69a10.882 10.882 0 0 0 18.573-7.69V250.75c0-2.884 1.146-5.65 3.187-7.69a10.882 10.882 0 0 1 18.573 7.69V316c0 2.884 1.146 5.65 3.187 7.69A10.882 10.882 0 0 0 395.4 316v-32.625c0-2.884 1.146-5.65 3.187-7.69a10.882 10.882 0 0 1 18.573 7.69v108.75c0 2.884 1.146 5.65 3.187 7.69a10.882 10.882 0 0 0 18.573-7.69V272.5c0-2.884 1.146-5.65 3.187-7.69a10.882 10.882 0 0 1 18.573 7.69v97.875c0 2.884 1.146 5.65 3.187 7.69a10.882 10.882 0 0 0 18.573-7.69v-65.25c0-2.884 1.146-5.65 3.187-7.69a10.882 10.882 0 0 1 18.573 7.69V359.5c0 2.884 1.146 5.65 3.187 7.69a10.882 10.882 0 0 0 18.573-7.69V250.75c0-2.884 1.146-5.65 3.187-7.69a10.882 10.882 0 0 1 18.573 7.69V316c0 2.884 1.146 5.65 3.187 7.69A10.882 10.882 0 0 0 569.48 316v-43.5c0-2.884 1.146-5.65 3.187-7.69a10.882 10.882 0 0 1 18.573 7.69v87c0 2.884 1.146 5.65 3.187 7.69A10.882 10.882 0 0 0 613 359.5V229" class="stroke-theme-secondary-200 dark:stroke-theme-dark-500" stroke-width="2" stroke-linecap="round"/><path d="M482.44 330.375v-25.25c0-2.884 1.146-5.65 3.187-7.69a10.884 10.884 0 0 1 15.386 0 10.872 10.872 0 0 1 3.187 7.69V359.5c0 2.884 1.146 5.65 3.187 7.69a10.882 10.882 0 0 0 18.573-7.69V250.75c0-2.884 1.146-5.65 3.187-7.69a10.884 10.884 0 0 1 15.386 0 10.872 10.872 0 0 1 3.187 7.69V316c0 2.884 1.146 5.65 3.187 7.69a10.884 10.884 0 0 0 15.386 0 10.872 10.872 0 0 0 3.187-7.69v-43.5c0-2.884 1.146-5.65 3.187-7.69a10.882 10.882 0 0 1 18.573 7.69v87c0 2.884 1.146 5.65 3.187 7.69a10.884 10.884 0 0 0 15.386 0A10.872 10.872 0 0 0 613 359.5V175h68l-.5-68H613V39H432M308.36 313.375V359.5c0 2.884-1.146 5.65-3.187 7.69a10.882 10.882 0 0 1-18.573-7.69v-65.25c0-2.884-1.146-5.65-3.187-7.69a10.882 10.882 0 0 0-18.573 7.69v54.375c0 2.884-1.146 5.65-3.187 7.69a10.882 10.882 0 0 1-18.573-7.69v-87c0-2.884-1.146-5.65-3.187-7.69a10.882 10.882 0 0 0-18.573 7.69V316c0 2.884-1.146 5.65-3.187 7.69A10.882 10.882 0 0 1 199.56 316v-32.625c0-2.884-1.146-5.65-3.187-7.69a10.882 10.882 0 0 0-18.573 7.69V359.5c0 2.884-1.146 5.65-3.187 7.69a10.882 10.882 0 0 1-18.573-7.69V316c0-2.884-1.146-5.65-3.187-7.69A10.882 10.882 0 0 0 134.28 316v76.125c0 2.884-1.146 5.65-3.187 7.69a10.882 10.882 0 0 1-18.573-7.69v-108.75c0-2.884-1.146-5.65-3.187-7.69a10.882 10.882 0 0 0-18.573 7.69v54.375a10.874 10.874 0 0 1-10.88 10.875A10.874 10.874 0 0 1 69 337.75V243H1v-68h68V38.5" class="dark:stroke-theme-primary-400 stroke-theme-primary-600" stroke-width="2" stroke-linecap="round"/><g clip-path="url(#clip0_19702_89529)"><path d="M69.908 177.691c-.41 4.922-7.192 32.554-40.763 72.54L5 251v-40.243c1.37-2.136 26.56-34.199 32.107-39.986 15.232-15.892 19.445-8.459 25.61-4.87 6.164 3.588 7.705 5.639 7.191 11.79Z" class="fill-white dark:fill-theme-dark-900"/><path d="m10.294 246.688 14.07 8.84 2.048-1.91 3.264-3.58-14.461-9.099-4.92 5.749Z" class="fill-theme-secondary-200 dark:fill-theme-dark-800"/><path d="m24.435 255.513-13.54-8.804m19.87-24.692 14.188 8.953m-29.156 10.321 13.768 8.837" class="stroke-theme-primary-600 dark:stroke-theme-primary-400" stroke-width="2" stroke-linecap="round"/><path d="M51.285 169.996a2.184 2.184 0 0 0-.886-.104c-5.39.363-19.387 15.8-30.668 32.238m31.554-32.134c-.03-2.071-.753-3.214-2.323-3.108-3.263.22-9.586 5.798-16.606 13.798m18.929-10.69c.1 6.754-7.151 23.381-16.374 38.82C23.532 227.864 6.855 248.418-.6 251.035m0 0a4.685 4.685 0 0 1-1.225.272c-3.328.224-3.225-4.9-.796-12.593m2.02 12.321c-1.397-1.745-.703-6.583 1.48-12.997" class="stroke-theme-primary-900 dark:stroke-theme-primary-500" stroke-width="2" stroke-linecap="round"/><path d="M-5.36 257.03c3.01 2.064 9.495 6.45 11.353 7.482 2.322 1.29 4.128 3.096 8.773 0 21.93-15.997 53.15-63.471 55.988-88.499.258-3.096-.774-5.418-3.096-6.966-1.935-1.29-8.772-6.106-12.126-8.256" class="stroke-theme-primary-600 dark:stroke-theme-primary-400" stroke-width="2" stroke-linecap="round"/><path d="M-6.135 241.291c-1.978 4.73-4.232 14.449.516 15.48 14.967 3.254 69.15-77.403 61.407-95.465-2.592-6.046-21.93 9.805-36.637 31.478" class="stroke-theme-primary-600 dark:stroke-theme-primary-400" stroke-width="2" stroke-linecap="round"/></g><path d="M239.607 114.34a1342.852 1342.852 0 0 0-15.991 21.494c-5.652 7.746-10.404 15.685-14.257 23.817h30.248V114.34Zm28.129-35.242v80.553h14.257v23.624h-14.257v30.014h-28.129v-30.014H182v-21.106c2.826-5.68 6.358-12.07 10.597-19.17 4.238-7.23 8.926-14.588 14.064-22.075a399.411 399.411 0 0 1 16.569-22.268c5.78-7.23 11.56-13.749 17.34-19.558h27.166Zm122.797 66.805c0 22.591-4.302 39.954-12.908 52.089-8.477 12.005-20.23 18.008-35.258 18.008-15.028 0-26.845-6.003-35.45-18.008-8.478-12.135-12.716-29.498-12.716-52.089 0-11.231 1.091-21.171 3.275-29.82 2.312-8.649 5.587-15.943 9.826-21.881 4.239-5.938 9.312-10.456 15.22-13.555C328.431 77.55 335.046 76 342.367 76c15.028 0 26.781 6.067 35.258 18.202 8.606 12.005 12.908 29.239 12.908 51.701Zm-29.285 0c0-6.713-.321-12.78-.963-18.202-.642-5.551-1.67-10.327-3.083-14.329-1.413-4.002-3.339-7.1-5.78-9.295-2.44-2.194-5.459-3.291-9.055-3.291s-6.615 1.097-9.055 3.291c-2.312 2.195-4.239 5.293-5.78 9.295-1.413 4.002-2.441 8.778-3.083 14.329-.642 5.422-.963 11.489-.963 18.202 0 6.713.321 12.845.963 18.396.642 5.551 1.67 10.327 3.083 14.329 1.541 4.002 3.468 7.1 5.78 9.295 2.44 2.194 5.459 3.291 9.055 3.291s6.615-1.097 9.055-3.291c2.441-2.195 4.367-5.293 5.78-9.295 1.413-4.002 2.441-8.778 3.083-14.329.642-5.551.963-11.683.963-18.396Zm97.366-31.563a1342.615 1342.615 0 0 0-15.992 21.494c-5.651 7.746-10.404 15.685-14.257 23.817h30.249V114.34Zm28.129-35.242v80.553H501v23.624h-14.257v30.014h-28.129v-30.014h-57.607v-21.106c2.825-5.68 6.358-12.07 10.596-19.17 4.239-7.23 8.927-14.588 14.065-22.075a399.411 399.411 0 0 1 16.569-22.268c5.78-7.23 11.56-13.749 17.34-19.558h27.166Z" class="fill-theme-secondary-50 dark:fill-theme-dark-900"/><path d="M239.607 114.34a1342.852 1342.852 0 0 0-15.991 21.494c-5.652 7.746-10.404 15.685-14.257 23.817h30.248V114.34Zm28.129-35.242v80.553h14.257v23.624h-14.257v30.014h-28.129v-30.014H182v-21.106c2.826-5.68 6.358-12.07 10.597-19.17 4.238-7.23 8.926-14.588 14.064-22.075a399.411 399.411 0 0 1 16.569-22.268c5.78-7.23 11.56-13.749 17.34-19.558h27.166Zm122.797 66.805c0 22.591-4.302 39.954-12.908 52.089-8.477 12.005-20.23 18.008-35.258 18.008-15.028 0-26.845-6.003-35.45-18.008-8.478-12.135-12.716-29.498-12.716-52.089 0-11.231 1.091-21.171 3.275-29.82 2.312-8.649 5.587-15.943 9.826-21.881 4.239-5.938 9.312-10.456 15.22-13.555C328.431 77.55 335.046 76 342.367 76c15.028 0 26.781 6.067 35.258 18.202 8.606 12.005 12.908 29.239 12.908 51.701Zm-29.285 0c0-6.713-.321-12.78-.963-18.202-.642-5.551-1.67-10.327-3.083-14.329-1.413-4.002-3.339-7.1-5.78-9.295-2.44-2.194-5.459-3.291-9.055-3.291s-6.615 1.097-9.055 3.291c-2.312 2.195-4.239 5.293-5.78 9.295-1.413 4.002-2.441 8.778-3.083 14.329-.642 5.422-.963 11.489-.963 18.202 0 6.713.321 12.845.963 18.396.642 5.551 1.67 10.327 3.083 14.329 1.541 4.002 3.468 7.1 5.78 9.295 2.44 2.194 5.459 3.291 9.055 3.291s6.615-1.097 9.055-3.291c2.441-2.195 4.367-5.293 5.78-9.295 1.413-4.002 2.441-8.778 3.083-14.329.642-5.551.963-11.683.963-18.396Zm97.366-31.563a1342.615 1342.615 0 0 0-15.992 21.494c-5.651 7.746-10.404 15.685-14.257 23.817h30.249V114.34Zm28.129-35.242v80.553H501v23.624h-14.257v30.014h-28.129v-30.014h-57.607v-21.106c2.825-5.68 6.358-12.07 10.596-19.17 4.239-7.23 8.927-14.588 14.065-22.075a399.411 399.411 0 0 1 16.569-22.268c5.78-7.23 11.56-13.749 17.34-19.558h27.166Z" class="dark:stroke-theme-primary-400 stroke-theme-primary-600" stroke-width="2"/><rect x="58" y="29" width="20" height="20" rx="10" class="dark:stroke-theme-primary-400 stroke-theme-primary-600 fill-white dark:fill-theme-dark-900" stroke-width="2"/><rect x="417" y="29" width="20" height="20" rx="10" class="dark:stroke-theme-primary-400 stroke-theme-primary-600 fill-white dark:fill-theme-dark-900" stroke-width="2"/><rect x="477" y="330" width="10" height="10" rx="5" class="dark:stroke-theme-primary-400 stroke-theme-primary-600 fill-white dark:fill-theme-dark-900" stroke-width="2"/><rect x="303" y="306" width="10" height="10" rx="5" class="dark:stroke-theme-primary-400 stroke-theme-primary-600 fill-white dark:fill-theme-dark-900" stroke-width="2"/><g clip-path="url(#clip1_19702_89529)"><path d="m644.142 182.226 28.029 7.51a4 4 0 0 0 4.312-1.57l17.638-25.198a3.999 3.999 0 0 0-.015-4.608l-16.971-23.921a3.999 3.999 0 0 0-2.227-1.549l-27.806-7.451a3.999 3.999 0 0 0-4.296 1.547l-17.756 24.993a4 4 0 0 0-.015 4.612l16.867 24.067a4.007 4.007 0 0 0 2.24 1.568Z" class="fill-white dark:fill-theme-dark-900"/><path d="m664.986 152.646 27.924 7.482a2 2 0 0 1 1.116 3.086l-18.42 26.088a2 2 0 0 1-2.151.778l-27.925-7.482a2 2 0 0 1-1.116-3.086l18.42-26.088a2.001 2.001 0 0 1 2.152-.778Z" class="dark:fill-theme-primary-400 fill-theme-primary-600"/><path d="m644.142 182.226 28.029 7.51a4 4 0 0 0 4.312-1.57l17.638-25.198a3.999 3.999 0 0 0-.015-4.608l-16.971-23.921a3.999 3.999 0 0 0-2.227-1.549l-27.806-7.451a3.999 3.999 0 0 0-4.296 1.547l-17.756 24.993a4 4 0 0 0-.015 4.612l16.867 24.067a4.007 4.007 0 0 0 2.24 1.568Zm-1.405-.377 20.924-29.785m31.821 8.526-31.821-8.526m0 0-19.067-27.093" stroke-width="2" class="dark:stroke-theme-primary-400 stroke-theme-primary-600"/></g><defs><clipPath id="clip0_19702_89529"><rect width="134" height="181" class="fill-white dark:fill-theme-dark-900" transform="matrix(-1 0 0 1 136 61)"/></clipPath><clipPath id="clip1_19702_89529"><rect width="76" height="67" class="fill-white dark:fill-theme-dark-900" transform="translate(604 107)"/></clipPath></defs></svg>