<svg viewBox="0 0 683 404" fill="none" xmlns="http://www.w3.org/2000/svg">
    <path d="M69 13c0-6.627 5.373-12 12-12h520c6.627 0 12 5.373 12 12v26H69V13Z" class="stroke-theme-secondary-200 fill-theme-secondary-100 dark:stroke-theme-dark-700 dark:fill-theme-dark-800"
        stroke-width="2" />
    <path fill-rule="evenodd" clip-rule="evenodd"
        d="M113 24a4 4 0 1 0 0-8 4 4 0 0 0 0 8Zm-13 0a4 4 0 1 0 0-8 4 4 0 0 0 0 8Zm-13 0a4 4 0 1 0 0-8 4 4 0 0 0 0 8Z"
        class="fill-theme-secondary-400 dark:fill-theme-dark-700" />
    <path
        d="M1 107V51c0-6.627 5.373-12 12-12h56M1 107h68m-68 0v68M69 39v68m0-68h544M69 107v68M613 39v68m0-68h56c6.627 0 12 5.373 12 12v56m-68 0h68m-68 0v68m68-68v68M1 175h68m-68 0v68m68-68v68m544-68h68m-68 0v68m68-68v68M1 243h68m-68 0v56c0 6.627 5.373 12 12 12h56m0-68v68m544-68h68m-68 0v68m68-68v56c0 6.627-5.373 12-12 12h-56m-544 0v24.5M613 311v29"
        class="stroke-theme-secondary-200 dark:stroke-theme-dark-800" stroke-width="2" />
    <path
        d="M69 283.375v54.375a10.874 10.874 0 0 0 10.88 10.875 10.874 10.874 0 0 0 10.88-10.875v-54.375a10.874 10.874 0 0 1 10.88-10.875c2.886 0 5.653 1.146 7.693 3.185a10.872 10.872 0 0 1 3.187 7.69v108.75c0 2.884 1.146 5.65 3.187 7.69a10.882 10.882 0 0 0 18.573-7.69V316c0-2.884 1.146-5.65 3.187-7.69A10.882 10.882 0 0 1 156.04 316v43.5c0 2.884 1.146 5.65 3.187 7.69a10.882 10.882 0 0 0 18.573-7.69v-76.125c0-2.884 1.146-5.65 3.187-7.69a10.882 10.882 0 0 1 18.573 7.69V316c0 2.884 1.146 5.65 3.187 7.69A10.882 10.882 0 0 0 221.32 316v-54.375c0-2.884 1.146-5.65 3.187-7.69a10.882 10.882 0 0 1 18.573 7.69v87c0 2.884 1.146 5.65 3.187 7.69a10.882 10.882 0 0 0 18.573-7.69V294.25c0-2.884 1.146-5.65 3.187-7.69a10.882 10.882 0 0 1 18.573 7.69v65.25c0 2.884 1.146 5.65 3.187 7.69a10.882 10.882 0 0 0 18.573-7.69v-76.125c0-2.884 1.146-5.65 3.187-7.69a10.882 10.882 0 0 1 18.573 7.69v21.75c0 2.884 1.146 5.65 3.187 7.69a10.882 10.882 0 0 0 18.573-7.69V250.75c0-2.884 1.146-5.65 3.187-7.69a10.882 10.882 0 0 1 18.573 7.69V316c0 2.884 1.146 5.65 3.187 7.69A10.882 10.882 0 0 0 395.4 316v-32.625c0-2.884 1.146-5.65 3.187-7.69a10.882 10.882 0 0 1 18.573 7.69v108.75c0 2.884 1.146 5.65 3.187 7.69a10.882 10.882 0 0 0 18.573-7.69V272.5c0-2.884 1.146-5.65 3.187-7.69a10.882 10.882 0 0 1 18.573 7.69v97.875c0 2.884 1.146 5.65 3.187 7.69a10.882 10.882 0 0 0 18.573-7.69v-65.25c0-2.884 1.146-5.65 3.187-7.69a10.882 10.882 0 0 1 18.573 7.69V359.5c0 2.884 1.146 5.65 3.187 7.69a10.882 10.882 0 0 0 18.573-7.69V250.75c0-2.884 1.146-5.65 3.187-7.69a10.882 10.882 0 0 1 18.573 7.69V316c0 2.884 1.146 5.65 3.187 7.69A10.882 10.882 0 0 0 569.48 316v-43.5c0-2.884 1.146-5.65 3.187-7.69a10.882 10.882 0 0 1 18.573 7.69v87c0 2.884 1.146 5.65 3.187 7.69A10.882 10.882 0 0 0 613 359.5V229"
        class="stroke-theme-secondary-200 dark:stroke-theme-dark-500" stroke-width="2" stroke-linecap="round" />
    <path
        d="M482.44 330.375v-25.25c0-2.884 1.146-5.65 3.187-7.69a10.884 10.884 0 0 1 15.386 0 10.872 10.872 0 0 1 3.187 7.69V359.5c0 2.884 1.146 5.65 3.187 7.69a10.882 10.882 0 0 0 18.573-7.69V250.75c0-2.884 1.146-5.65 3.187-7.69a10.884 10.884 0 0 1 15.386 0 10.872 10.872 0 0 1 3.187 7.69V316c0 2.884 1.146 5.65 3.187 7.69a10.884 10.884 0 0 0 15.386 0 10.872 10.872 0 0 0 3.187-7.69v-43.5c0-2.884 1.146-5.65 3.187-7.69a10.882 10.882 0 0 1 18.573 7.69v87c0 2.884 1.146 5.65 3.187 7.69a10.884 10.884 0 0 0 15.386 0A10.872 10.872 0 0 0 613 359.5V175h68l-.5-68H613V39H432M308.36 313.375V359.5c0 2.884-1.146 5.65-3.187 7.69a10.882 10.882 0 0 1-18.573-7.69v-65.25c0-2.884-1.146-5.65-3.187-7.69a10.882 10.882 0 0 0-18.573 7.69v54.375c0 2.884-1.146 5.65-3.187 7.69a10.882 10.882 0 0 1-18.573-7.69v-87c0-2.884-1.146-5.65-3.187-7.69a10.882 10.882 0 0 0-18.573 7.69V316c0 2.884-1.146 5.65-3.187 7.69A10.882 10.882 0 0 1 199.56 316v-32.625c0-2.884-1.146-5.65-3.187-7.69a10.882 10.882 0 0 0-18.573 7.69V359.5c0 2.884-1.146 5.65-3.187 7.69a10.882 10.882 0 0 1-18.573-7.69V316c0-2.884-1.146-5.65-3.187-7.69A10.882 10.882 0 0 0 134.28 316v76.125c0 2.884-1.146 5.65-3.187 7.69a10.882 10.882 0 0 1-18.573-7.69v-108.75c0-2.884-1.146-5.65-3.187-7.69a10.882 10.882 0 0 0-18.573 7.69v54.375a10.874 10.874 0 0 1-10.88 10.875A10.874 10.874 0 0 1 69 337.75V243H1v-68h68V38.5"
        class="stroke-theme-primary-600 dark:stroke-theme-primary-400" stroke-width="2" stroke-linecap="round" />
    <g clip-path="url(#clip0_19702_89562)">
        <path
            d="M69.908 177.691c-.41 4.922-7.192 32.554-40.763 72.54L5 251v-40.243c1.37-2.136 26.56-34.199 32.107-39.986 15.232-15.892 19.445-8.459 25.61-4.87 6.164 3.588 7.705 5.639 7.191 11.79Z"
            class="fill-white dark:fill-theme-dark-900" />
        <path d="m10.294 246.688 14.07 8.84 2.048-1.91 3.264-3.58-14.461-9.099-4.92 5.749Z" class="fill-theme-secondary-200 dark:fill-theme-dark-800" />
        <path d="m24.435 255.513-13.54-8.804m19.87-24.692 14.188 8.953m-29.156 10.321 13.768 8.837" class="stroke-theme-primary-600 dark:stroke-theme-primary-400"
            stroke-width="2" stroke-linecap="round" />
        <path
            d="M51.285 169.996a2.184 2.184 0 0 0-.886-.104c-5.39.363-19.387 15.8-30.668 32.238m31.554-32.134c-.03-2.071-.753-3.214-2.323-3.108-3.263.22-9.586 5.798-16.606 13.798m18.929-10.69c.1 6.754-7.151 23.381-16.374 38.82C23.532 227.864 6.855 248.418-.6 251.035m0 0a4.685 4.685 0 0 1-1.225.272c-3.328.224-3.225-4.9-.796-12.593m2.02 12.321c-1.397-1.745-.703-6.583 1.48-12.997"
            class="stroke-theme-primary-900 dark:stroke-theme-primary-500" stroke-width="2" stroke-linecap="round" />
        <path
            d="M-5.36 257.03c3.01 2.064 9.495 6.45 11.353 7.482 2.322 1.29 4.128 3.096 8.773 0 21.93-15.997 53.15-63.471 55.988-88.499.258-3.096-.774-5.418-3.096-6.966-1.935-1.29-8.772-6.106-12.126-8.256"
            class="stroke-theme-primary-600 dark:stroke-theme-primary-400" stroke-width="2" stroke-linecap="round" />
        <path
            d="M-6.135 241.291c-1.978 4.73-4.232 14.449.516 15.48 14.967 3.254 69.15-77.403 61.407-95.465-2.592-6.046-21.93 9.805-36.637 31.478"
            class="stroke-theme-primary-600 dark:stroke-theme-primary-400" stroke-width="2" stroke-linecap="round" />
    </g>
    <path
        d="M242.188 116.011a1324.197 1324.197 0 0 0-15.875 21.202c-5.611 7.641-10.328 15.472-14.154 23.495h30.029v-44.697Zm27.924-34.764v79.461h14.153v23.303h-14.153v29.607h-27.924v-29.607H185v-20.82c2.805-5.603 6.312-11.906 10.519-18.91 4.208-7.131 8.862-14.39 13.963-21.775a394.075 394.075 0 0 1 16.448-21.967c5.738-7.13 11.476-13.561 17.214-19.292h26.968Zm33.157 27.506a216.253 216.253 0 0 0 11.476-5.157 176.445 176.445 0 0 0 11.858-6.495c3.826-2.42 7.46-4.903 10.902-7.45 3.571-2.673 6.758-5.475 9.563-8.404h19.892v132.371h-28.498v-95.315c-3.826 2.547-8.097 4.903-12.815 7.068a190.34 190.34 0 0 1-13.771 5.348l-8.607-21.966Zm150.593 33.809c2.933 0 5.993-.255 9.181-.764 3.187-.637 5.546-1.465 7.076-2.483v-3.248c.128-.509.192-.955.192-1.337-.128-4.584-.51-8.85-1.148-12.797-.638-4.075-1.721-7.577-3.252-10.506-1.53-3.056-3.633-5.412-6.311-7.067-2.55-1.783-5.738-2.675-9.563-2.675-3.06 0-5.738.637-8.033 1.911-2.296 1.273-4.144 2.928-5.547 4.966a25.002 25.002 0 0 0-3.251 6.685c-.638 2.42-.957 4.775-.957 7.068 0 6.876 1.658 11.97 4.973 15.281 3.443 3.31 8.989 4.966 16.64 4.966Zm13.962 18.528c-2.678 1.273-5.674 2.228-8.989 2.865-3.188.509-5.929.764-8.225.764-8.288 0-15.364-.955-21.23-2.865-5.865-2.038-10.71-4.839-14.536-8.405-3.697-3.692-6.439-8.086-8.224-13.179-1.785-5.094-2.678-10.697-2.678-16.809 0-5.094.829-10.315 2.487-15.663 1.785-5.349 4.526-10.188 8.224-14.517 3.698-4.457 8.352-8.086 13.962-10.888C434.353 79.464 441.239 78 449.272 78c16.448 0 28.817 5.094 37.105 15.28C494.792 103.342 499 117.859 499 136.832c0 12.48-1.658 23.495-4.973 33.045-3.188 9.551-8.224 17.573-15.11 24.068-6.758 6.494-15.428 11.461-26.011 14.899-10.584 3.311-23.143 5.03-37.679 5.157a336.723 336.723 0 0 0-.574-11.843c-.255-3.82-.51-7.767-.765-11.842 7.268-.128 13.835-.637 19.7-1.528 5.865-1.019 11.03-2.611 15.492-4.776 4.463-2.292 8.225-5.284 11.285-8.977 3.188-3.693 5.674-8.341 7.459-13.944Z"
        class="fill-theme-primary-50 dark:fill-theme-dark-900" />
    <path
        d="M242.188 116.011a1324.197 1324.197 0 0 0-15.875 21.202c-5.611 7.641-10.328 15.472-14.154 23.495h30.029v-44.697Zm27.924-34.764v79.461h14.153v23.303h-14.153v29.607h-27.924v-29.607H185v-20.82c2.805-5.603 6.312-11.906 10.519-18.91 4.208-7.131 8.862-14.39 13.963-21.775a394.075 394.075 0 0 1 16.448-21.967c5.738-7.13 11.476-13.561 17.214-19.292h26.968Zm33.157 27.506a216.253 216.253 0 0 0 11.476-5.157 176.445 176.445 0 0 0 11.858-6.495c3.826-2.42 7.46-4.903 10.902-7.45 3.571-2.673 6.758-5.475 9.563-8.404h19.892v132.371h-28.498v-95.315c-3.826 2.547-8.097 4.903-12.815 7.068a190.34 190.34 0 0 1-13.771 5.348l-8.607-21.966Zm150.593 33.809c2.933 0 5.993-.255 9.181-.764 3.187-.637 5.546-1.465 7.076-2.483v-3.248c.128-.509.192-.955.192-1.337-.128-4.584-.51-8.85-1.148-12.797-.638-4.075-1.721-7.577-3.252-10.506-1.53-3.056-3.633-5.412-6.311-7.067-2.55-1.783-5.738-2.675-9.563-2.675-3.06 0-5.738.637-8.033 1.911-2.296 1.273-4.144 2.928-5.547 4.966a25.002 25.002 0 0 0-3.251 6.685c-.638 2.42-.957 4.775-.957 7.068 0 6.876 1.658 11.97 4.973 15.281 3.443 3.31 8.989 4.966 16.64 4.966Zm13.962 18.528c-2.678 1.273-5.674 2.228-8.989 2.865-3.188.509-5.929.764-8.225.764-8.288 0-15.364-.955-21.23-2.865-5.865-2.038-10.71-4.839-14.536-8.405-3.697-3.692-6.439-8.086-8.224-13.179-1.785-5.094-2.678-10.697-2.678-16.809 0-5.094.829-10.315 2.487-15.663 1.785-5.349 4.526-10.188 8.224-14.517 3.698-4.457 8.352-8.086 13.962-10.888C434.353 79.464 441.239 78 449.272 78c16.448 0 28.817 5.094 37.105 15.28C494.792 103.342 499 117.859 499 136.832c0 12.48-1.658 23.495-4.973 33.045-3.188 9.551-8.224 17.573-15.11 24.068-6.758 6.494-15.428 11.461-26.011 14.899-10.584 3.311-23.143 5.03-37.679 5.157a336.723 336.723 0 0 0-.574-11.843c-.255-3.82-.51-7.767-.765-11.842 7.268-.128 13.835-.637 19.7-1.528 5.865-1.019 11.03-2.611 15.492-4.776 4.463-2.292 8.225-5.284 11.285-8.977 3.188-3.693 5.674-8.341 7.459-13.944Z"
        class="stroke-theme-primary-600 dark:stroke-theme-primary-400" stroke-width="2" />
    <rect x="58" y="29" width="20" height="20" rx="10" class="stroke-theme-primary-600 fill-white dark:stroke-theme-primary-400 dark:fill-theme-dark-900" stroke-width="2" />
    <rect x="417" y="29" width="20" height="20" rx="10" class="stroke-theme-primary-600 fill-white dark:stroke-theme-primary-400 dark:fill-theme-dark-900" stroke-width="2" />
    <rect x="477" y="330" width="10" height="10" rx="5" class="stroke-theme-primary-600 fill-white dark:stroke-theme-primary-400 dark:fill-theme-dark-900" stroke-width="2" />
    <rect x="303" y="306" width="10" height="10" rx="5" class="stroke-theme-primary-600 fill-white dark:stroke-theme-primary-400 dark:fill-theme-dark-900" stroke-width="2" />
    <g clip-path="url(#clip1_19702_89562)">
        <path
            d="m644.142 182.226 28.029 7.51a4 4 0 0 0 4.312-1.57l17.638-25.198a4 4 0 0 0-.015-4.608l-16.971-23.921a3.999 3.999 0 0 0-2.227-1.549l-27.806-7.451a3.999 3.999 0 0 0-4.296 1.547l-17.756 24.993a4 4 0 0 0-.015 4.612l16.867 24.067a4.004 4.004 0 0 0 2.24 1.568Z"
            class="stroke-theme-primary-600 fill-white dark:stroke-theme-primary-400 dark:fill-theme-dark-900" />
        <path
            d="m664.986 152.646 27.924 7.482a2 2 0 0 1 1.116 3.086l-18.42 26.088a2 2 0 0 1-2.151.778l-27.925-7.482a2 2 0 0 1-1.116-3.086l18.42-26.088a2.001 2.001 0 0 1 2.152-.778Z"
            class="fill-theme-primary-600 dark:fill-theme-primary-400" />
        <path
            d="m644.142 182.226 28.029 7.51a4 4 0 0 0 4.312-1.57l17.638-25.198a4 4 0 0 0-.015-4.608l-16.971-23.921a3.999 3.999 0 0 0-2.227-1.549l-27.806-7.451a3.999 3.999 0 0 0-4.296 1.547l-17.756 24.993a4 4 0 0 0-.015 4.612l16.867 24.067a4.004 4.004 0 0 0 2.24 1.568Zm-1.405-.377 20.924-29.785m31.821 8.526-31.821-8.526m0 0-19.068-27.093"
            class="stroke-theme-primary-600 dark:stroke-theme-primary-400" stroke-width="2" />
    </g>
    <defs>
        <clipPath id="clip0_19702_89562">
            <rect width="134" height="181" fill="white" transform="matrix(-1 0 0 1 136 61)" />
        </clipPath>
        <clipPath id="clip1_19702_89562">
            <rect width="76" height="67" fill="white" transform="translate(604 107)" />
        </clipPath>
    </defs>
</svg>
