<svg width="682" height="404" viewBox="0 0 682 404" fill="none" xmlns="http://www.w3.org/2000/svg">
<path d="M69 13C69 6.37258 74.3726 1 81 1H601C607.627 1 613 6.37258 613 13V39H69V13Z" fill="#2C3139" stroke="#3D444D" stroke-width="2"/>
<path fill-rule="evenodd" clip-rule="evenodd" d="M113 24C115.209 24 117 22.2091 117 20C117 17.7909 115.209 16 113 16C110.791 16 109 17.7909 109 20C109 22.2091 110.791 24 113 24Z" fill="#3D444D"/>
<path fill-rule="evenodd" clip-rule="evenodd" d="M100 24C102.209 24 104 22.2091 104 20C104 17.7909 102.209 16 100 16C97.7909 16 96 17.7909 96 20C96 22.2091 97.7909 24 100 24Z" fill="#3D444D"/>
<path fill-rule="evenodd" clip-rule="evenodd" d="M87 24C89.2091 24 91 22.2091 91 20C91 17.7909 89.2091 16 87 16C84.7909 16 83 17.7909 83 20C83 22.2091 84.7909 24 87 24Z" fill="#3D444D"/>
<path d="M1 107V51C1 44.3726 6.37258 39 13 39H69M1 107H69M1 107V175M69 39V107M69 39H137H205H273H341H409H477H545H613M69 107V175M613 39V107M613 39H669C675.627 39 681 44.3726 681 51V107M613 107H681M613 107V175M681 107V175M1 175H69M1 175V243M69 175V243M613 175H681M613 175V243M681 175V243M1 243H69M1 243V299C1 305.627 6.37258 311 13 311H69M69 243V311M613 243H681M613 243V311M681 243V299C681 305.627 675.627 311 669 311H613M69 311V335.5M613 311V340" stroke="#2C3139" stroke-width="2"/>
<path d="M69 283.375V337.75C69 340.634 70.1463 343.4 72.1867 345.44C74.2271 347.479 76.9944 348.625 79.88 348.625C82.7656 348.625 85.5329 347.479 87.5733 345.44C89.6137 343.4 90.76 340.634 90.76 337.75V283.375C90.76 280.491 91.9063 277.725 93.9467 275.685C95.9871 273.646 98.7544 272.5 101.64 272.5C104.526 272.5 107.293 273.646 109.333 275.685C111.374 277.725 112.52 280.491 112.52 283.375V392.125C112.52 395.009 113.666 397.775 115.707 399.815C117.747 401.854 120.514 403 123.4 403C126.286 403 129.053 401.854 131.093 399.815C133.134 397.775 134.28 395.009 134.28 392.125V316C134.28 313.116 135.426 310.35 137.467 308.31C139.507 306.271 142.274 305.125 145.16 305.125C148.046 305.125 150.813 306.271 152.853 308.31C154.894 310.35 156.04 313.116 156.04 316V359.5C156.04 362.384 157.186 365.15 159.227 367.19C161.267 369.229 164.034 370.375 166.92 370.375C169.806 370.375 172.573 369.229 174.613 367.19C176.654 365.15 177.8 362.384 177.8 359.5V283.375C177.8 280.491 178.946 277.725 180.987 275.685C183.027 273.646 185.794 272.5 188.68 272.5C191.566 272.5 194.333 273.646 196.373 275.685C198.414 277.725 199.56 280.491 199.56 283.375V316C199.56 318.884 200.706 321.65 202.747 323.69C204.787 325.729 207.554 326.875 210.44 326.875C213.326 326.875 216.093 325.729 218.133 323.69C220.174 321.65 221.32 318.884 221.32 316V261.625C221.32 258.741 222.466 255.975 224.507 253.935C226.547 251.896 229.314 250.75 232.2 250.75C235.086 250.75 237.853 251.896 239.893 253.935C241.934 255.975 243.08 258.741 243.08 261.625V348.625C243.08 351.509 244.226 354.275 246.267 356.315C248.307 358.354 251.074 359.5 253.96 359.5C256.846 359.5 259.613 358.354 261.653 356.315C263.694 354.275 264.84 351.509 264.84 348.625V294.25C264.84 291.366 265.986 288.6 268.027 286.56C270.067 284.521 272.834 283.375 275.72 283.375C278.606 283.375 281.373 284.521 283.413 286.56C285.454 288.6 286.6 291.366 286.6 294.25V359.5C286.6 362.384 287.746 365.15 289.787 367.19C291.827 369.229 294.594 370.375 297.48 370.375C300.366 370.375 303.133 369.229 305.173 367.19C307.214 365.15 308.36 362.384 308.36 359.5V283.375C308.36 280.491 309.506 277.725 311.547 275.685C313.587 273.646 316.354 272.5 319.24 272.5C322.126 272.5 324.893 273.646 326.933 275.685C328.974 277.725 330.12 280.491 330.12 283.375V305.125C330.12 308.009 331.266 310.775 333.307 312.815C335.347 314.854 338.114 316 341 316C343.886 316 346.653 314.854 348.693 312.815C350.734 310.775 351.88 308.009 351.88 305.125V250.75C351.88 247.866 353.026 245.1 355.067 243.06C357.107 241.021 359.874 239.875 362.76 239.875C365.646 239.875 368.413 241.021 370.453 243.06C372.494 245.1 373.64 247.866 373.64 250.75V316C373.64 318.884 374.786 321.65 376.827 323.69C378.867 325.729 381.634 326.875 384.52 326.875C387.406 326.875 390.173 325.729 392.213 323.69C394.254 321.65 395.4 318.884 395.4 316V283.375C395.4 280.491 396.546 277.725 398.587 275.685C400.627 273.646 403.394 272.5 406.28 272.5C409.166 272.5 411.933 273.646 413.973 275.685C416.014 277.725 417.16 280.491 417.16 283.375V392.125C417.16 395.009 418.306 397.775 420.347 399.815C422.387 401.854 425.154 403 428.04 403C430.926 403 433.693 401.854 435.733 399.815C437.774 397.775 438.92 395.009 438.92 392.125V272.5C438.92 269.616 440.066 266.85 442.107 264.81C444.147 262.771 446.914 261.625 449.8 261.625C452.686 261.625 455.453 262.771 457.493 264.81C459.534 266.85 460.68 269.616 460.68 272.5V370.375C460.68 373.259 461.826 376.025 463.867 378.065C465.907 380.104 468.674 381.25 471.56 381.25C474.446 381.25 477.213 380.104 479.253 378.065C481.294 376.025 482.44 373.259 482.44 370.375V305.125C482.44 302.241 483.586 299.475 485.627 297.435C487.667 295.396 490.434 294.25 493.32 294.25C496.206 294.25 498.973 295.396 501.013 297.435C503.054 299.475 504.2 302.241 504.2 305.125V359.5C504.2 362.384 505.346 365.15 507.387 367.19C509.427 369.229 512.194 370.375 515.08 370.375C517.966 370.375 520.733 369.229 522.773 367.19C524.814 365.15 525.96 362.384 525.96 359.5V250.75C525.96 247.866 527.106 245.1 529.147 243.06C531.187 241.021 533.954 239.875 536.84 239.875C539.726 239.875 542.493 241.021 544.533 243.06C546.574 245.1 547.72 247.866 547.72 250.75V316C547.72 318.884 548.866 321.65 550.907 323.69C552.947 325.729 555.714 326.875 558.6 326.875C561.486 326.875 564.253 325.729 566.293 323.69C568.334 321.65 569.48 318.884 569.48 316V272.5C569.48 269.616 570.626 266.85 572.667 264.81C574.707 262.771 577.474 261.625 580.36 261.625C583.246 261.625 586.013 262.771 588.053 264.81C590.094 266.85 591.24 269.616 591.24 272.5V359.5C591.24 362.384 592.386 365.15 594.427 367.19C596.467 369.229 599.234 370.375 602.12 370.375C605.006 370.375 607.773 369.229 609.813 367.19C611.854 365.15 613 362.384 613 359.5V229" stroke="#505D6A" stroke-width="2" stroke-linecap="round"/>
<path d="M482.44 330.375V305.125C482.44 302.241 483.586 299.475 485.627 297.435C487.667 295.396 490.435 294.25 493.32 294.25C496.206 294.25 498.973 295.396 501.013 297.435C503.054 299.475 504.2 302.241 504.2 305.125V359.5C504.2 362.384 505.346 365.15 507.387 367.19C509.427 369.229 512.194 370.375 515.08 370.375C517.966 370.375 520.733 369.229 522.773 367.19C524.814 365.15 525.96 362.384 525.96 359.5V250.75C525.96 247.866 527.106 245.1 529.147 243.06C531.187 241.021 533.955 239.875 536.84 239.875C539.726 239.875 542.493 241.021 544.533 243.06C546.574 245.1 547.72 247.866 547.72 250.75V316C547.72 318.884 548.866 321.65 550.907 323.69C552.947 325.729 555.715 326.875 558.6 326.875C561.486 326.875 564.253 325.729 566.293 323.69C568.334 321.65 569.48 318.884 569.48 316V272.5C569.48 269.616 570.626 266.85 572.667 264.81C574.707 262.771 577.474 261.625 580.36 261.625C583.246 261.625 586.013 262.771 588.053 264.81C590.094 266.85 591.24 269.616 591.24 272.5V359.5C591.24 362.384 592.386 365.15 594.427 367.19C596.467 369.229 599.235 370.375 602.12 370.375C605.006 370.375 607.773 369.229 609.813 367.19C611.854 365.15 613 362.384 613 359.5V229V175H681L680.5 107H613V39H432" stroke="#8692FF" stroke-width="2" stroke-linecap="round"/>
<path d="M308.36 313.375V359.5C308.36 362.384 307.214 365.15 305.173 367.19C303.133 369.229 300.366 370.375 297.48 370.375C294.594 370.375 291.827 369.229 289.787 367.19C287.746 365.15 286.6 362.384 286.6 359.5V294.25C286.6 291.366 285.454 288.6 283.413 286.56C281.373 284.521 278.606 283.375 275.72 283.375C272.834 283.375 270.067 284.521 268.027 286.56C265.986 288.6 264.84 291.366 264.84 294.25V348.625C264.84 351.509 263.694 354.275 261.653 356.315C259.613 358.354 256.846 359.5 253.96 359.5C251.074 359.5 248.307 358.354 246.267 356.315C244.226 354.275 243.08 351.509 243.08 348.625V261.625C243.08 258.741 241.934 255.975 239.893 253.935C237.853 251.896 235.086 250.75 232.2 250.75C229.314 250.75 226.547 251.896 224.507 253.935C222.466 255.975 221.32 258.741 221.32 261.625V316C221.32 318.884 220.174 321.65 218.133 323.69C216.093 325.729 213.326 326.875 210.44 326.875C207.554 326.875 204.787 325.729 202.747 323.69C200.706 321.65 199.56 318.884 199.56 316V283.375C199.56 280.491 198.414 277.725 196.373 275.685C194.333 273.646 191.566 272.5 188.68 272.5C185.794 272.5 183.027 273.646 180.987 275.685C178.946 277.725 177.8 280.491 177.8 283.375V359.5C177.8 362.384 176.654 365.15 174.613 367.19C172.573 369.229 169.806 370.375 166.92 370.375C164.034 370.375 161.267 369.229 159.227 367.19C157.186 365.15 156.04 362.384 156.04 359.5V316C156.04 313.116 154.894 310.35 152.853 308.31C150.813 306.271 148.046 305.125 145.16 305.125C142.274 305.125 139.507 306.271 137.467 308.31C135.426 310.35 134.28 313.116 134.28 316V392.125C134.28 395.009 133.134 397.775 131.093 399.815C129.053 401.854 126.286 403 123.4 403C120.514 403 117.747 401.854 115.707 399.815C113.666 397.775 112.52 395.009 112.52 392.125V283.375C112.52 280.491 111.374 277.725 109.333 275.685C107.293 273.646 104.526 272.5 101.64 272.5C98.7544 272.5 95.9871 273.646 93.9467 275.685C91.9063 277.725 90.76 280.491 90.76 283.375V337.75C90.76 340.634 89.6137 343.4 87.5733 345.44C85.5329 347.479 82.7656 348.625 79.88 348.625C76.9944 348.625 74.2271 347.479 72.1867 345.44C70.1463 343.4 69 340.634 69 337.75V243H1L1 175H69V38.5" stroke="#8692FF" stroke-width="2" stroke-linecap="round"/>
<g clip-path="url(#clip0_23951_1284)">
<path d="M69.9082 177.691C69.4973 182.613 62.7162 210.245 29.1446 250.231L5 251L5 210.757C6.3699 208.621 31.5607 176.558 37.1072 170.771C52.3385 154.879 56.5516 162.312 62.7162 165.901C68.8808 169.489 70.4218 171.54 69.9082 177.691Z" fill="#23272D"/>
<path d="M10.2941 246.688L24.364 255.528L26.4119 253.618L29.6758 250.038L15.2143 240.939L10.2941 246.688Z" fill="#ECEDF9"/>
<path d="M24.4349 255.513L10.8945 246.709M30.7644 222.017L44.9526 230.97M15.797 241.291L29.565 250.128" stroke="#8692FF" stroke-width="2" stroke-linecap="round"/>
<path d="M51.2847 169.996C51.0281 169.905 50.7334 169.869 50.3991 169.892C45.0094 170.255 31.0118 185.692 19.7306 202.13M51.2847 169.996C51.2541 167.925 50.5318 166.782 48.9624 166.888C45.6989 167.108 39.3756 172.686 32.3556 180.686M51.2847 169.996C51.3845 176.75 44.1335 193.377 34.9108 208.816C23.5325 227.864 6.85495 248.418 -0.599673 251.035M-0.599673 251.035C-1.04099 251.19 -1.44999 251.282 -1.82364 251.307C-5.15167 251.531 -5.04899 246.407 -2.61978 238.714M-0.599673 251.035C-1.99698 249.29 -1.30341 244.452 0.879154 238.038" stroke="#6B7AFF" stroke-width="2" stroke-linecap="round"/>
<path d="M-5.35962 257.03C-2.34946 259.094 4.13528 263.48 5.99298 264.512C8.3151 265.802 10.1212 267.608 14.7654 264.512C36.6966 248.515 67.9162 201.041 70.7544 176.013C71.0124 172.917 69.9803 170.595 67.6581 169.047C65.723 167.757 58.8856 162.941 55.5315 160.791" stroke="#8692FF" stroke-width="2" stroke-linecap="round"/>
<path d="M-6.13532 241.291C-8.11342 246.021 -10.3668 255.74 -5.61929 256.771C9.34743 260.025 63.5303 179.368 55.7879 161.306C53.1962 155.26 33.857 171.111 19.1503 192.784" stroke="#8692FF" stroke-width="2" stroke-linecap="round"/>
</g>
<path d="M237.432 114.409C232.32 121.095 226.88 128.37 221.112 136.235C215.344 144.1 210.494 152.162 206.561 160.42H237.432V114.409ZM266.14 78.6227V160.42H280.691V184.409H266.14V214.887H237.432V184.409H178.64V162.977C181.524 157.209 185.129 150.72 189.455 143.51C193.78 136.17 198.565 128.698 203.809 121.095C209.183 113.361 214.82 105.823 220.719 98.4823C226.618 91.1415 232.516 84.5216 238.415 78.6227H266.14Z" fill="#23272D"/>
<path d="M383.992 114.409C383.992 119.391 383.008 124.175 381.042 128.763C379.076 133.351 376.52 137.808 373.374 142.134C370.228 146.329 366.688 150.392 362.756 154.325C358.823 158.258 354.956 161.994 351.154 165.533C349.188 167.368 347.025 169.465 344.666 171.825C342.437 174.053 340.274 176.347 338.177 178.707C336.08 181.067 334.179 183.295 332.475 185.392C330.902 187.359 329.919 188.997 329.525 190.308H388.121V214.887H297.278C297.016 213.445 296.885 211.61 296.885 209.381C296.885 207.153 296.885 205.58 296.885 204.662C296.885 198.37 297.868 192.602 299.834 187.359C301.932 182.115 304.619 177.265 307.896 172.808C311.173 168.22 314.844 163.96 318.907 160.027C323.102 156.095 327.231 152.162 331.295 148.229C334.441 145.214 337.39 142.396 340.143 139.774C342.896 137.022 345.321 134.4 347.419 131.909C349.516 129.288 351.154 126.731 352.334 124.241C353.514 121.619 354.104 118.997 354.104 116.376C354.104 110.608 352.465 106.544 349.188 104.185C345.911 101.825 341.847 100.645 336.997 100.645C333.458 100.645 330.115 101.235 326.969 102.415C323.954 103.464 321.136 104.774 318.514 106.347C316.023 107.789 313.86 109.297 312.025 110.87C310.19 112.312 308.814 113.492 307.896 114.409L293.345 93.9598C299.113 88.5853 305.799 84.1939 313.402 80.7856C321.136 77.2463 329.394 75.4767 338.177 75.4767C346.173 75.4767 353.055 76.3943 358.823 78.2295C364.591 80.0647 369.31 82.6864 372.98 86.0946C376.782 89.3718 379.535 93.4355 381.239 98.2856C383.074 103.005 383.992 108.379 383.992 114.409Z" fill="#23272D"/>
<path d="M455.045 141.741C458.06 141.741 461.206 141.479 464.484 140.954C467.761 140.299 470.186 139.447 471.759 138.398V136.628C471.759 136.104 471.759 135.58 471.759 135.055C471.89 134.531 471.955 134.072 471.955 133.679C471.824 128.96 471.431 124.568 470.776 120.505C470.12 116.31 469.006 112.705 467.433 109.69C465.86 106.544 463.697 104.119 460.944 102.415C458.323 100.58 455.045 99.6621 451.113 99.6621C447.967 99.6621 445.214 100.317 442.854 101.628C440.495 102.939 438.594 104.643 437.152 106.741C435.71 108.838 434.596 111.132 433.809 113.623C433.154 116.113 432.826 118.538 432.826 120.898C432.826 127.977 434.53 133.22 437.939 136.628C441.478 140.037 447.18 141.741 455.045 141.741ZM469.399 160.814C466.646 162.125 463.566 163.108 460.158 163.763C456.881 164.288 454.062 164.55 451.703 164.55C443.182 164.55 435.907 163.567 429.877 161.6C423.847 159.503 418.866 156.619 414.933 152.949C411.132 149.147 408.313 144.625 406.478 139.381C404.643 134.138 403.725 128.37 403.725 122.078C403.725 116.834 404.577 111.46 406.281 105.954C408.117 100.449 410.935 95.4673 414.736 91.0104C418.538 86.4224 423.323 82.6864 429.09 79.8025C434.989 76.7875 442.068 75.28 450.326 75.28C467.236 75.28 479.952 80.5235 488.472 91.0104C497.124 101.366 501.45 116.31 501.45 135.842C501.45 148.688 499.746 160.027 496.337 169.859C493.06 179.69 487.882 187.949 480.804 194.634C473.856 201.319 464.942 206.432 454.062 209.971C443.182 213.379 430.27 215.149 415.326 215.28C415.195 211.085 414.999 207.022 414.736 203.089C414.474 199.156 414.212 195.093 413.95 190.898C421.422 190.767 428.173 190.243 434.203 189.325C440.233 188.276 445.542 186.638 450.13 184.409C454.718 182.05 458.585 178.969 461.731 175.168C465.008 171.366 467.564 166.582 469.399 160.814Z" fill="#23272D"/>
<path d="M237.432 114.409C232.32 121.095 226.88 128.37 221.112 136.235C215.344 144.1 210.494 152.162 206.561 160.42H237.432V114.409ZM266.14 78.6227V160.42H280.691V184.409H266.14V214.887H237.432V184.409H178.64V162.977C181.524 157.209 185.129 150.72 189.455 143.51C193.78 136.17 198.565 128.698 203.809 121.095C209.183 113.361 214.82 105.823 220.719 98.4823C226.618 91.1415 232.516 84.5216 238.415 78.6227H266.14Z" stroke="#8692FF" stroke-width="2"/>
<path d="M383.992 114.409C383.992 119.391 383.008 124.175 381.042 128.763C379.076 133.351 376.52 137.808 373.374 142.134C370.228 146.329 366.688 150.392 362.756 154.325C358.823 158.258 354.956 161.994 351.154 165.533C349.188 167.368 347.025 169.465 344.666 171.825C342.437 174.053 340.274 176.347 338.177 178.707C336.08 181.067 334.179 183.295 332.475 185.392C330.902 187.359 329.919 188.997 329.525 190.308H388.121V214.887H297.278C297.016 213.445 296.885 211.61 296.885 209.381C296.885 207.153 296.885 205.58 296.885 204.662C296.885 198.37 297.868 192.602 299.834 187.359C301.932 182.115 304.619 177.265 307.896 172.808C311.173 168.22 314.844 163.96 318.907 160.027C323.102 156.095 327.231 152.162 331.295 148.229C334.441 145.214 337.39 142.396 340.143 139.774C342.896 137.022 345.321 134.4 347.419 131.909C349.516 129.288 351.154 126.731 352.334 124.241C353.514 121.619 354.104 118.997 354.104 116.376C354.104 110.608 352.465 106.544 349.188 104.185C345.911 101.825 341.847 100.645 336.997 100.645C333.458 100.645 330.115 101.235 326.969 102.415C323.954 103.464 321.136 104.774 318.514 106.347C316.023 107.789 313.86 109.297 312.025 110.87C310.19 112.312 308.814 113.492 307.896 114.409L293.345 93.9598C299.113 88.5853 305.799 84.1939 313.402 80.7856C321.136 77.2463 329.394 75.4767 338.177 75.4767C346.173 75.4767 353.055 76.3943 358.823 78.2295C364.591 80.0647 369.31 82.6864 372.98 86.0946C376.782 89.3718 379.535 93.4355 381.239 98.2856C383.074 103.005 383.992 108.379 383.992 114.409Z" stroke="#8692FF" stroke-width="2"/>
<path d="M455.045 141.741C458.06 141.741 461.206 141.479 464.484 140.954C467.761 140.299 470.186 139.447 471.759 138.398V136.628C471.759 136.104 471.759 135.58 471.759 135.055C471.89 134.531 471.955 134.072 471.955 133.679C471.824 128.96 471.431 124.568 470.776 120.505C470.12 116.31 469.006 112.705 467.433 109.69C465.86 106.544 463.697 104.119 460.944 102.415C458.323 100.58 455.045 99.6621 451.113 99.6621C447.967 99.6621 445.214 100.317 442.854 101.628C440.495 102.939 438.594 104.643 437.152 106.741C435.71 108.838 434.596 111.132 433.809 113.623C433.154 116.113 432.826 118.538 432.826 120.898C432.826 127.977 434.53 133.22 437.939 136.628C441.478 140.037 447.18 141.741 455.045 141.741ZM469.399 160.814C466.646 162.125 463.566 163.108 460.158 163.763C456.881 164.288 454.062 164.55 451.703 164.55C443.182 164.55 435.907 163.567 429.877 161.6C423.847 159.503 418.866 156.619 414.933 152.949C411.132 149.147 408.313 144.625 406.478 139.381C404.643 134.138 403.725 128.37 403.725 122.078C403.725 116.834 404.577 111.46 406.281 105.954C408.117 100.449 410.935 95.4673 414.736 91.0104C418.538 86.4224 423.323 82.6864 429.09 79.8025C434.989 76.7875 442.068 75.28 450.326 75.28C467.236 75.28 479.952 80.5235 488.472 91.0104C497.124 101.366 501.45 116.31 501.45 135.842C501.45 148.688 499.746 160.027 496.337 169.859C493.06 179.69 487.882 187.949 480.804 194.634C473.856 201.319 464.942 206.432 454.062 209.971C443.182 213.379 430.27 215.149 415.326 215.28C415.195 211.085 414.999 207.022 414.736 203.089C414.474 199.156 414.212 195.093 413.95 190.898C421.422 190.767 428.173 190.243 434.203 189.325C440.233 188.276 445.542 186.638 450.13 184.409C454.718 182.05 458.585 178.969 461.731 175.168C465.008 171.366 467.564 166.582 469.399 160.814Z" stroke="#8692FF" stroke-width="2"/>
<rect x="58" y="29" width="20" height="20" rx="10" fill="#23272D" stroke="#8692FF" stroke-width="2"/>
<rect x="417" y="29" width="20" height="20" rx="10" fill="#23272D" stroke="#8692FF" stroke-width="2"/>
<rect x="477" y="330" width="10" height="10" rx="5" fill="#23272D" stroke="#8692FF" stroke-width="2"/>
<rect x="303" y="306" width="10" height="10" rx="5" fill="#23272D" stroke="#8692FF" stroke-width="2"/>
<g clip-path="url(#clip1_23951_1284)">
<path d="M644.142 182.226L672.171 189.736C673.796 190.171 675.519 189.544 676.483 188.166L694.121 162.968C695.09 161.583 695.084 159.738 694.106 158.36L677.135 134.439C676.596 133.679 675.808 133.131 674.908 132.889L647.102 125.439C645.488 125.006 643.774 125.623 642.806 126.986L625.05 151.979C624.07 153.358 624.064 155.205 625.035 156.591L641.902 180.658C642.441 181.427 643.234 181.982 644.142 182.226Z" fill="#23272D"/>
<path d="M664.986 152.646L692.91 160.128C694.254 160.488 694.829 162.077 694.026 163.214L675.606 189.302C675.123 189.986 674.264 190.297 673.455 190.08L645.53 182.598C644.186 182.238 643.612 180.649 644.414 179.512L662.834 153.424C663.318 152.74 664.176 152.429 664.986 152.646Z" fill="#8692FF"/>
<path d="M644.142 182.226L672.171 189.736C673.796 190.171 675.519 189.544 676.483 188.166L694.121 162.968C695.09 161.583 695.084 159.738 694.106 158.36L677.135 134.439C676.596 133.679 675.808 133.131 674.908 132.889L647.102 125.439C645.488 125.006 643.774 125.623 642.806 126.986L625.05 151.979C624.07 153.358 624.064 155.205 625.035 156.591L641.902 180.658C642.441 181.427 643.234 181.982 644.142 182.226Z" stroke="#8692FF" stroke-width="2"/>
<path d="M642.737 181.849L663.661 152.064M695.482 160.59L663.661 152.064M663.661 152.064L644.593 124.971" stroke="#8692FF" stroke-width="2"/>
</g>
<defs>
<clipPath id="clip0_23951_1284">
<rect width="134" height="181" fill="white" transform="matrix(-1 0 0 1 136 61)"/>
</clipPath>
<clipPath id="clip1_23951_1284">
<rect width="76" height="67" fill="white" transform="translate(604 107)"/>
</clipPath>
</defs>
</svg>
