<svg viewBox="0 0 683 404" fill="none" xmlns="http://www.w3.org/2000/svg"><path d="M69 13c0-6.627 5.373-12 12-12h520c6.627 0 12 5.373 12 12v26H69V13Z" class="stroke-theme-secondary-200 fill-theme-secondary-100 dark:stroke-theme-dark-700 dark:fill-theme-dark-800" stroke-width="2"/><path fill-rule="evenodd" clip-rule="evenodd" d="M113 24a4 4 0 1 0 0-8 4 4 0 0 0 0 8Zm-13 0a4 4 0 1 0 0-8 4 4 0 0 0 0 8Zm-13 0a4 4 0 1 0 0-8 4 4 0 0 0 0 8Z" class="fill-theme-secondary-400 dark:fill-theme-dark-700"/><path d="M1 107V51c0-6.627 5.373-12 12-12h56M1 107h68m-68 0v68M69 39v68m0-68h544M69 107v68M613 39v68m0-68h56c6.627 0 12 5.373 12 12v56m-68 0h68m-68 0v68m68-68v68M1 175h68m-68 0v68m68-68v68m544-68h68m-68 0v68m68-68v68M1 243h68m-68 0v56c0 6.627 5.373 12 12 12h56m0-68v68m544-68h68m-68 0v68m68-68v56c0 6.627-5.373 12-12 12h-56m-544 0v24.5M613 311v29" class="stroke-theme-secondary-200 dark:stroke-theme-dark-800" stroke-width="2"/><path d="M69 283.375v54.375a10.874 10.874 0 0 0 10.88 10.875 10.874 10.874 0 0 0 10.88-10.875v-54.375a10.874 10.874 0 0 1 10.88-10.875c2.886 0 5.653 1.146 7.693 3.185a10.872 10.872 0 0 1 3.187 7.69v108.75c0 2.884 1.146 5.65 3.187 7.69a10.882 10.882 0 0 0 18.573-7.69V316c0-2.884 1.146-5.65 3.187-7.69A10.882 10.882 0 0 1 156.04 316v43.5c0 2.884 1.146 5.65 3.187 7.69a10.882 10.882 0 0 0 18.573-7.69v-76.125c0-2.884 1.146-5.65 3.187-7.69a10.882 10.882 0 0 1 18.573 7.69V316c0 2.884 1.146 5.65 3.187 7.69A10.882 10.882 0 0 0 221.32 316v-54.375c0-2.884 1.146-5.65 3.187-7.69a10.882 10.882 0 0 1 18.573 7.69v87c0 2.884 1.146 5.65 3.187 7.69a10.882 10.882 0 0 0 18.573-7.69V294.25c0-2.884 1.146-5.65 3.187-7.69a10.882 10.882 0 0 1 18.573 7.69v65.25c0 2.884 1.146 5.65 3.187 7.69a10.882 10.882 0 0 0 18.573-7.69v-76.125c0-2.884 1.146-5.65 3.187-7.69a10.882 10.882 0 0 1 18.573 7.69v21.75c0 2.884 1.146 5.65 3.187 7.69a10.882 10.882 0 0 0 18.573-7.69V250.75c0-2.884 1.146-5.65 3.187-7.69a10.882 10.882 0 0 1 18.573 7.69V316c0 2.884 1.146 5.65 3.187 7.69A10.882 10.882 0 0 0 395.4 316v-32.625c0-2.884 1.146-5.65 3.187-7.69a10.882 10.882 0 0 1 18.573 7.69v108.75c0 2.884 1.146 5.65 3.187 7.69a10.882 10.882 0 0 0 18.573-7.69V272.5c0-2.884 1.146-5.65 3.187-7.69a10.882 10.882 0 0 1 18.573 7.69v97.875c0 2.884 1.146 5.65 3.187 7.69a10.882 10.882 0 0 0 18.573-7.69v-65.25c0-2.884 1.146-5.65 3.187-7.69a10.882 10.882 0 0 1 18.573 7.69V359.5c0 2.884 1.146 5.65 3.187 7.69a10.882 10.882 0 0 0 18.573-7.69V250.75c0-2.884 1.146-5.65 3.187-7.69a10.882 10.882 0 0 1 18.573 7.69V316c0 2.884 1.146 5.65 3.187 7.69A10.882 10.882 0 0 0 569.48 316v-43.5c0-2.884 1.146-5.65 3.187-7.69a10.882 10.882 0 0 1 18.573 7.69v87c0 2.884 1.146 5.65 3.187 7.69A10.882 10.882 0 0 0 613 359.5V229" class="stroke-theme-secondary-200 dark:stroke-theme-dark-500" stroke-width="2" stroke-linecap="round"/><path d="M482.44 330.375v-25.25c0-2.884 1.146-5.65 3.187-7.69a10.884 10.884 0 0 1 15.386 0 10.872 10.872 0 0 1 3.187 7.69V359.5c0 2.884 1.146 5.65 3.187 7.69a10.882 10.882 0 0 0 18.573-7.69V250.75c0-2.884 1.146-5.65 3.187-7.69a10.884 10.884 0 0 1 15.386 0 10.872 10.872 0 0 1 3.187 7.69V316c0 2.884 1.146 5.65 3.187 7.69a10.884 10.884 0 0 0 15.386 0 10.872 10.872 0 0 0 3.187-7.69v-43.5c0-2.884 1.146-5.65 3.187-7.69a10.882 10.882 0 0 1 18.573 7.69v87c0 2.884 1.146 5.65 3.187 7.69a10.884 10.884 0 0 0 15.386 0A10.872 10.872 0 0 0 613 359.5V175h68l-.5-68H613V39H432M308.36 313.375V359.5c0 2.884-1.146 5.65-3.187 7.69a10.882 10.882 0 0 1-18.573-7.69v-65.25c0-2.884-1.146-5.65-3.187-7.69a10.882 10.882 0 0 0-18.573 7.69v54.375c0 2.884-1.146 5.65-3.187 7.69a10.882 10.882 0 0 1-18.573-7.69v-87c0-2.884-1.146-5.65-3.187-7.69a10.882 10.882 0 0 0-18.573 7.69V316c0 2.884-1.146 5.65-3.187 7.69A10.882 10.882 0 0 1 199.56 316v-32.625c0-2.884-1.146-5.65-3.187-7.69a10.882 10.882 0 0 0-18.573 7.69V359.5c0 2.884-1.146 5.65-3.187 7.69a10.882 10.882 0 0 1-18.573-7.69V316c0-2.884-1.146-5.65-3.187-7.69A10.882 10.882 0 0 0 134.28 316v76.125c0 2.884-1.146 5.65-3.187 7.69a10.882 10.882 0 0 1-18.573-7.69v-108.75c0-2.884-1.146-5.65-3.187-7.69a10.882 10.882 0 0 0-18.573 7.69v54.375a10.874 10.874 0 0 1-10.88 10.875A10.874 10.874 0 0 1 69 337.75V243H1v-68h68V38.5" class="stroke-theme-primary-600 dark:stroke-theme-primary-400" stroke-width="2" stroke-linecap="round"/><g clip-path="url(#clip0_19702_89592)"><path d="M69.908 177.691c-.41 4.922-7.192 32.554-40.763 72.54L5 251v-40.243c1.37-2.136 26.56-34.199 32.107-39.986 15.232-15.892 19.445-8.459 25.61-4.87 6.164 3.588 7.705 5.639 7.191 11.79Z" class="fill-white dark:fill-theme-dark-900"/><path d="m10.294 246.688 14.07 8.84 2.048-1.91 3.264-3.58-14.462-9.099-4.92 5.749Z" class="fill-theme-secondary-200 dark:fill-theme-dark-800"/><path d="m24.435 255.513-13.54-8.804m19.87-24.692 14.188 8.953m-29.156 10.321 13.768 8.837" class="stroke-theme-primary-600 dark:stroke-theme-primary-400" stroke-width="2" stroke-linecap="round"/><path d="M51.285 169.996a2.184 2.184 0 0 0-.886-.104c-5.39.363-19.387 15.8-30.668 32.238m31.554-32.134c-.03-2.071-.753-3.214-2.323-3.108-3.263.22-9.586 5.798-16.606 13.798m18.929-10.69c.1 6.754-7.151 23.381-16.374 38.82C23.532 227.864 6.855 248.418-.6 251.035m0 0a4.685 4.685 0 0 1-1.225.272c-3.328.224-3.225-4.9-.796-12.593m2.02 12.321c-1.397-1.745-.703-6.583 1.48-12.997" class="stroke-theme-primary-900 dark:stroke-theme-primary-500" stroke-width="2" stroke-linecap="round"/><path d="M-5.36 257.03c3.01 2.064 9.495 6.45 11.353 7.482 2.322 1.29 4.128 3.096 8.772 0 21.932-15.997 53.151-63.471 55.99-88.499.257-3.096-.775-5.418-3.097-6.966-1.935-1.29-8.772-6.106-12.127-8.256" class="stroke-theme-primary-600 dark:stroke-theme-primary-400" stroke-width="2" stroke-linecap="round"/><path d="M-6.135 241.291c-1.978 4.73-4.232 14.449.516 15.48 14.966 3.254 69.15-77.403 61.407-95.465-2.592-6.046-21.931 9.805-36.638 31.478" class="stroke-theme-primary-600 dark:stroke-theme-primary-400" stroke-width="2" stroke-linecap="round"/></g><path d="M238.432 115.409a1368.575 1368.575 0 0 0-16.32 21.826c-5.768 7.865-10.618 15.927-14.551 24.185h30.871v-46.011Zm28.708-35.786v81.797h14.551v23.989H267.14v30.478h-28.708v-30.478H179.64v-21.432c2.884-5.768 6.489-12.257 10.815-19.467 4.325-7.34 9.11-14.812 14.354-22.415a405.259 405.259 0 0 1 16.91-22.613c5.899-7.34 11.797-13.96 17.696-19.86h27.725Zm117.852 35.786c0 4.982-.984 9.766-2.95 14.354-1.966 4.588-4.522 9.045-7.668 13.371-3.146 4.195-6.686 8.258-10.618 12.191a450.856 450.856 0 0 1-11.602 11.208 262.886 262.886 0 0 0-6.488 6.292 159.862 159.862 0 0 0-6.489 6.882 200.25 200.25 0 0 0-5.702 6.685c-1.573 1.967-2.556 3.605-2.95 4.916h58.596v24.579h-90.843c-.262-1.442-.393-3.277-.393-5.506v-4.719c0-6.292.983-12.06 2.949-17.303 2.098-5.244 4.785-10.094 8.062-14.551a92.924 92.924 0 0 1 11.011-12.781 1071.19 1071.19 0 0 0 12.388-11.798c3.146-3.015 6.095-5.833 8.848-8.455 2.753-2.752 5.178-5.374 7.276-7.865 2.097-2.621 3.735-5.178 4.915-7.668 1.18-2.622 1.77-5.244 1.77-7.865 0-5.768-1.639-9.832-4.916-12.191-3.277-2.36-7.341-3.54-12.191-3.54-3.539 0-6.882.59-10.028 1.77a45.34 45.34 0 0 0-8.455 3.932c-2.491 1.442-4.654 2.95-6.489 4.523-1.835 1.442-3.211 2.622-4.129 3.539l-14.551-20.45c5.768-5.374 12.454-9.765 20.057-13.173 7.734-3.54 15.992-5.31 24.775-5.31 7.996 0 14.878.918 20.646 2.754 5.768 1.835 10.487 4.456 14.157 7.865 3.802 3.277 6.555 7.34 8.259 12.19 1.835 4.72 2.753 10.094 2.753 16.124Zm71.053 27.332c3.015 0 6.161-.262 9.439-.787 3.277-.655 5.702-1.507 7.275-2.556v-3.343c.131-.524.196-.983.196-1.376-.131-4.719-.524-9.111-1.179-13.174-.656-4.195-1.77-7.8-3.343-10.815-1.573-3.146-3.736-5.571-6.489-7.275-2.621-1.835-5.899-2.753-9.831-2.753-3.146 0-5.899.655-8.259 1.966-2.359 1.311-4.26 3.015-5.702 5.113a25.771 25.771 0 0 0-3.343 6.882c-.655 2.49-.983 4.915-.983 7.275 0 7.079 1.704 12.322 5.113 15.73 3.539 3.409 9.241 5.113 17.106 5.113Zm14.354 19.073c-2.753 1.311-5.833 2.294-9.241 2.949-3.277.525-6.096.787-8.455.787-8.521 0-15.796-.983-21.826-2.95-6.03-2.097-11.011-4.981-14.944-8.651-3.801-3.802-6.62-8.324-8.455-13.568-1.835-5.243-2.753-11.011-2.753-17.303 0-5.244.852-10.618 2.556-16.124 1.836-5.505 4.654-10.487 8.455-14.944 3.802-4.588 8.587-8.324 14.354-11.208 5.899-3.015 12.978-4.522 21.236-4.522 16.91 0 29.626 5.243 38.146 15.73 8.652 10.356 12.978 25.3 12.978 44.832 0 12.846-1.704 24.185-5.113 34.017-3.277 9.831-8.455 18.09-15.533 24.775-6.948 6.685-15.862 11.798-26.742 15.337-10.88 3.408-23.792 5.178-38.736 5.309a343.559 343.559 0 0 0-.59-12.191c-.262-3.933-.524-7.996-.786-12.191 7.472-.131 14.223-.655 20.253-1.573 6.03-1.049 11.339-2.687 15.927-4.916 4.588-2.359 8.455-5.44 11.601-9.241 3.277-3.802 5.833-8.586 7.668-14.354Z" class="fill-theme-primary-50 dark:fill-theme-dark-900"/><path d="M238.432 115.409a1368.575 1368.575 0 0 0-16.32 21.826c-5.768 7.865-10.618 15.927-14.551 24.185h30.871v-46.011Zm28.708-35.786v81.797h14.551v23.989H267.14v30.478h-28.708v-30.478H179.64v-21.432c2.884-5.768 6.489-12.257 10.815-19.467 4.325-7.34 9.11-14.812 14.354-22.415a405.259 405.259 0 0 1 16.91-22.613c5.899-7.34 11.797-13.96 17.696-19.86h27.725Zm117.852 35.786c0 4.982-.984 9.766-2.95 14.354-1.966 4.588-4.522 9.045-7.668 13.371-3.146 4.195-6.686 8.258-10.618 12.191a450.856 450.856 0 0 1-11.602 11.208 262.886 262.886 0 0 0-6.488 6.292 159.862 159.862 0 0 0-6.489 6.882 200.25 200.25 0 0 0-5.702 6.685c-1.573 1.967-2.556 3.605-2.95 4.916h58.596v24.579h-90.843c-.262-1.442-.393-3.277-.393-5.506v-4.719c0-6.292.983-12.06 2.949-17.303 2.098-5.244 4.785-10.094 8.062-14.551a92.924 92.924 0 0 1 11.011-12.781 1071.19 1071.19 0 0 0 12.388-11.798c3.146-3.015 6.095-5.833 8.848-8.455 2.753-2.752 5.178-5.374 7.276-7.865 2.097-2.621 3.735-5.178 4.915-7.668 1.18-2.622 1.77-5.244 1.77-7.865 0-5.768-1.639-9.832-4.916-12.191-3.277-2.36-7.341-3.54-12.191-3.54-3.539 0-6.882.59-10.028 1.77a45.34 45.34 0 0 0-8.455 3.932c-2.491 1.442-4.654 2.95-6.489 4.523-1.835 1.442-3.211 2.622-4.129 3.539l-14.551-20.45c5.768-5.374 12.454-9.765 20.057-13.173 7.734-3.54 15.992-5.31 24.775-5.31 7.996 0 14.878.918 20.646 2.754 5.768 1.835 10.487 4.456 14.157 7.865 3.802 3.277 6.555 7.34 8.259 12.19 1.835 4.72 2.753 10.094 2.753 16.124Zm71.053 27.332c3.015 0 6.161-.262 9.439-.787 3.277-.655 5.702-1.507 7.275-2.556v-3.343c.131-.524.196-.983.196-1.376-.131-4.719-.524-9.111-1.179-13.174-.656-4.195-1.77-7.8-3.343-10.815-1.573-3.146-3.736-5.571-6.489-7.275-2.621-1.835-5.899-2.753-9.831-2.753-3.146 0-5.899.655-8.259 1.966-2.359 1.311-4.26 3.015-5.702 5.113a25.771 25.771 0 0 0-3.343 6.882c-.655 2.49-.983 4.915-.983 7.275 0 7.079 1.704 12.322 5.113 15.73 3.539 3.409 9.241 5.113 17.106 5.113Zm14.354 19.073c-2.753 1.311-5.833 2.294-9.241 2.949-3.277.525-6.096.787-8.455.787-8.521 0-15.796-.983-21.826-2.95-6.03-2.097-11.011-4.981-14.944-8.651-3.801-3.802-6.62-8.324-8.455-13.568-1.835-5.243-2.753-11.011-2.753-17.303 0-5.244.852-10.618 2.556-16.124 1.836-5.505 4.654-10.487 8.455-14.944 3.802-4.588 8.587-8.324 14.354-11.208 5.899-3.015 12.978-4.522 21.236-4.522 16.91 0 29.626 5.243 38.146 15.73 8.652 10.356 12.978 25.3 12.978 44.832 0 12.846-1.704 24.185-5.113 34.017-3.277 9.831-8.455 18.09-15.533 24.775-6.948 6.685-15.862 11.798-26.742 15.337-10.88 3.408-23.792 5.178-38.736 5.309a343.559 343.559 0 0 0-.59-12.191c-.262-3.933-.524-7.996-.786-12.191 7.472-.131 14.223-.655 20.253-1.573 6.03-1.049 11.339-2.687 15.927-4.916 4.588-2.359 8.455-5.44 11.601-9.241 3.277-3.802 5.833-8.586 7.668-14.354Z" class="stroke-theme-primary-600 dark:stroke-theme-primary-400" stroke-width="2"/><rect x="58" y="29" width="20" height="20" rx="10" class="stroke-theme-primary-600 fill-white dark:stroke-theme-primary-400 dark:fill-theme-dark-900" stroke-width="2"/><rect x="417" y="29" width="20" height="20" rx="10" class="stroke-theme-primary-600 fill-white dark:stroke-theme-primary-400 dark:fill-theme-dark-900" stroke-width="2"/><rect x="477" y="330" width="10" height="10" rx="5" class="stroke-theme-primary-600 fill-white dark:stroke-theme-primary-400 dark:fill-theme-dark-900" stroke-width="2"/><rect x="303" y="306" width="10" height="10" rx="5" class="stroke-theme-primary-600 fill-white dark:stroke-theme-primary-400 dark:fill-theme-dark-900" stroke-width="2"/><g clip-path="url(#clip1_19702_89592)"><path d="m644.142 182.226 28.029 7.51a4 4 0 0 0 4.312-1.57l17.638-25.198a4 4 0 0 0-.015-4.608l-16.971-23.921a3.999 3.999 0 0 0-2.227-1.549l-27.806-7.451a3.999 3.999 0 0 0-4.296 1.547l-17.756 24.993a4 4 0 0 0-.015 4.612l16.867 24.067a4.004 4.004 0 0 0 2.24 1.568Z" class="fill-white dark:fill-theme-dark-900"/><path d="m664.986 152.646 27.924 7.482a2 2 0 0 1 1.116 3.086l-18.42 26.088a2 2 0 0 1-2.151.778l-27.925-7.482a2 2 0 0 1-1.116-3.086l18.42-26.088a2.001 2.001 0 0 1 2.152-.778Z" class="fill-theme-primary-600 dark:fill-theme-primary-400"/><path d="m644.142 182.226 28.029 7.51a4 4 0 0 0 4.312-1.57l17.638-25.198a4 4 0 0 0-.015-4.608l-16.971-23.921a3.999 3.999 0 0 0-2.227-1.549l-27.806-7.451a3.999 3.999 0 0 0-4.296 1.547l-17.756 24.993a4 4 0 0 0-.015 4.612l16.867 24.067a4.004 4.004 0 0 0 2.24 1.568Zm-1.405-.377 20.924-29.785m31.821 8.526-31.821-8.526m0 0-19.068-27.093" class="stroke-theme-primary-600 dark:stroke-theme-primary-400" stroke-width="2"/></g><defs><clipPath id="clip0_19702_89592"><rect width="134" height="181" fill="white" transform="matrix(-1 0 0 1 136 61)"/></clipPath><clipPath id="clip1_19702_89592"><rect width="76" height="67" fill="white" transform="translate(604 107)"/></clipPath></defs></svg>