<svg width="682" height="404" viewBox="0 0 682 404" fill="none" xmlns="http://www.w3.org/2000/svg">
<path d="M69 13C69 6.37258 74.3726 1 81 1H601C607.627 1 613 6.37258 613 13V39H69V13Z" fill="#2C3139" stroke="#3D444D" stroke-width="2"/>
<path fill-rule="evenodd" clip-rule="evenodd" d="M113 24C115.209 24 117 22.2091 117 20C117 17.7909 115.209 16 113 16C110.791 16 109 17.7909 109 20C109 22.2091 110.791 24 113 24Z" fill="#3D444D"/>
<path fill-rule="evenodd" clip-rule="evenodd" d="M100 24C102.209 24 104 22.2091 104 20C104 17.7909 102.209 16 100 16C97.7909 16 96 17.7909 96 20C96 22.2091 97.7909 24 100 24Z" fill="#3D444D"/>
<path fill-rule="evenodd" clip-rule="evenodd" d="M87 24C89.2091 24 91 22.2091 91 20C91 17.7909 89.2091 16 87 16C84.7909 16 83 17.7909 83 20C83 22.2091 84.7909 24 87 24Z" fill="#3D444D"/>
<path d="M1 107V51C1 44.3726 6.37258 39 13 39H69M1 107H69M1 107V175M69 39V107M69 39H137H205H273H341H409H477H545H613M69 107V175M613 39V107M613 39H669C675.627 39 681 44.3726 681 51V107M613 107H681M613 107V175M681 107V175M1 175H69M1 175V243M69 175V243M613 175H681M613 175V243M681 175V243M1 243H69M1 243V299C1 305.627 6.37258 311 13 311H69M69 243V311M613 243H681M613 243V311M681 243V299C681 305.627 675.627 311 669 311H613M69 311V335.5M613 311V340" stroke="#2C3139" stroke-width="2"/>
<path d="M69 283.375V337.75C69 340.634 70.1463 343.4 72.1867 345.44C74.2271 347.479 76.9944 348.625 79.88 348.625C82.7656 348.625 85.5329 347.479 87.5733 345.44C89.6137 343.4 90.76 340.634 90.76 337.75V283.375C90.76 280.491 91.9063 277.725 93.9467 275.685C95.9871 273.646 98.7544 272.5 101.64 272.5C104.526 272.5 107.293 273.646 109.333 275.685C111.374 277.725 112.52 280.491 112.52 283.375V392.125C112.52 395.009 113.666 397.775 115.707 399.815C117.747 401.854 120.514 403 123.4 403C126.286 403 129.053 401.854 131.093 399.815C133.134 397.775 134.28 395.009 134.28 392.125V316C134.28 313.116 135.426 310.35 137.467 308.31C139.507 306.271 142.274 305.125 145.16 305.125C148.046 305.125 150.813 306.271 152.853 308.31C154.894 310.35 156.04 313.116 156.04 316V359.5C156.04 362.384 157.186 365.15 159.227 367.19C161.267 369.229 164.034 370.375 166.92 370.375C169.806 370.375 172.573 369.229 174.613 367.19C176.654 365.15 177.8 362.384 177.8 359.5V283.375C177.8 280.491 178.946 277.725 180.987 275.685C183.027 273.646 185.794 272.5 188.68 272.5C191.566 272.5 194.333 273.646 196.373 275.685C198.414 277.725 199.56 280.491 199.56 283.375V316C199.56 318.884 200.706 321.65 202.747 323.69C204.787 325.729 207.554 326.875 210.44 326.875C213.326 326.875 216.093 325.729 218.133 323.69C220.174 321.65 221.32 318.884 221.32 316V261.625C221.32 258.741 222.466 255.975 224.507 253.935C226.547 251.896 229.314 250.75 232.2 250.75C235.086 250.75 237.853 251.896 239.893 253.935C241.934 255.975 243.08 258.741 243.08 261.625V348.625C243.08 351.509 244.226 354.275 246.267 356.315C248.307 358.354 251.074 359.5 253.96 359.5C256.846 359.5 259.613 358.354 261.653 356.315C263.694 354.275 264.84 351.509 264.84 348.625V294.25C264.84 291.366 265.986 288.6 268.027 286.56C270.067 284.521 272.834 283.375 275.72 283.375C278.606 283.375 281.373 284.521 283.413 286.56C285.454 288.6 286.6 291.366 286.6 294.25V359.5C286.6 362.384 287.746 365.15 289.787 367.19C291.827 369.229 294.594 370.375 297.48 370.375C300.366 370.375 303.133 369.229 305.173 367.19C307.214 365.15 308.36 362.384 308.36 359.5V283.375C308.36 280.491 309.506 277.725 311.547 275.685C313.587 273.646 316.354 272.5 319.24 272.5C322.126 272.5 324.893 273.646 326.933 275.685C328.974 277.725 330.12 280.491 330.12 283.375V305.125C330.12 308.009 331.266 310.775 333.307 312.815C335.347 314.854 338.114 316 341 316C343.886 316 346.653 314.854 348.693 312.815C350.734 310.775 351.88 308.009 351.88 305.125V250.75C351.88 247.866 353.026 245.1 355.067 243.06C357.107 241.021 359.874 239.875 362.76 239.875C365.646 239.875 368.413 241.021 370.453 243.06C372.494 245.1 373.64 247.866 373.64 250.75V316C373.64 318.884 374.786 321.65 376.827 323.69C378.867 325.729 381.634 326.875 384.52 326.875C387.406 326.875 390.173 325.729 392.213 323.69C394.254 321.65 395.4 318.884 395.4 316V283.375C395.4 280.491 396.546 277.725 398.587 275.685C400.627 273.646 403.394 272.5 406.28 272.5C409.166 272.5 411.933 273.646 413.973 275.685C416.014 277.725 417.16 280.491 417.16 283.375V392.125C417.16 395.009 418.306 397.775 420.347 399.815C422.387 401.854 425.154 403 428.04 403C430.926 403 433.693 401.854 435.733 399.815C437.774 397.775 438.92 395.009 438.92 392.125V272.5C438.92 269.616 440.066 266.85 442.107 264.81C444.147 262.771 446.914 261.625 449.8 261.625C452.686 261.625 455.453 262.771 457.493 264.81C459.534 266.85 460.68 269.616 460.68 272.5V370.375C460.68 373.259 461.826 376.025 463.867 378.065C465.907 380.104 468.674 381.25 471.56 381.25C474.446 381.25 477.213 380.104 479.253 378.065C481.294 376.025 482.44 373.259 482.44 370.375V305.125C482.44 302.241 483.586 299.475 485.627 297.435C487.667 295.396 490.434 294.25 493.32 294.25C496.206 294.25 498.973 295.396 501.013 297.435C503.054 299.475 504.2 302.241 504.2 305.125V359.5C504.2 362.384 505.346 365.15 507.387 367.19C509.427 369.229 512.194 370.375 515.08 370.375C517.966 370.375 520.733 369.229 522.773 367.19C524.814 365.15 525.96 362.384 525.96 359.5V250.75C525.96 247.866 527.106 245.1 529.147 243.06C531.187 241.021 533.954 239.875 536.84 239.875C539.726 239.875 542.493 241.021 544.533 243.06C546.574 245.1 547.72 247.866 547.72 250.75V316C547.72 318.884 548.866 321.65 550.907 323.69C552.947 325.729 555.714 326.875 558.6 326.875C561.486 326.875 564.253 325.729 566.293 323.69C568.334 321.65 569.48 318.884 569.48 316V272.5C569.48 269.616 570.626 266.85 572.667 264.81C574.707 262.771 577.474 261.625 580.36 261.625C583.246 261.625 586.013 262.771 588.053 264.81C590.094 266.85 591.24 269.616 591.24 272.5V359.5C591.24 362.384 592.386 365.15 594.427 367.19C596.467 369.229 599.234 370.375 602.12 370.375C605.006 370.375 607.773 369.229 609.813 367.19C611.854 365.15 613 362.384 613 359.5V229" stroke="#505D6A" stroke-width="2" stroke-linecap="round"/>
<path d="M482.44 330.375V305.125C482.44 302.241 483.586 299.475 485.627 297.435C487.667 295.396 490.434 294.25 493.32 294.25C496.206 294.25 498.973 295.396 501.013 297.435C503.054 299.475 504.2 302.241 504.2 305.125V359.5C504.2 362.384 505.346 365.15 507.387 367.19C509.427 369.229 512.194 370.375 515.08 370.375C517.966 370.375 520.733 369.229 522.773 367.19C524.814 365.15 525.96 362.384 525.96 359.5V250.75C525.96 247.866 527.106 245.1 529.147 243.06C531.187 241.021 533.954 239.875 536.84 239.875C539.726 239.875 542.493 241.021 544.533 243.06C546.574 245.1 547.72 247.866 547.72 250.75V316C547.72 318.884 548.866 321.65 550.907 323.69C552.947 325.729 555.714 326.875 558.6 326.875C561.486 326.875 564.253 325.729 566.293 323.69C568.334 321.65 569.48 318.884 569.48 316V272.5C569.48 269.616 570.626 266.85 572.667 264.81C574.707 262.771 577.474 261.625 580.36 261.625C583.246 261.625 586.013 262.771 588.053 264.81C590.094 266.85 591.24 269.616 591.24 272.5V359.5C591.24 362.384 592.386 365.15 594.427 367.19C596.467 369.229 599.235 370.375 602.12 370.375C605.006 370.375 607.773 369.229 609.813 367.19C611.854 365.15 613 362.384 613 359.5V229V175H681L680.5 107H613V39H432" stroke="#8692FF" stroke-width="2" stroke-linecap="round"/>
<path d="M308.36 313.375V359.5C308.36 362.384 307.214 365.15 305.173 367.19C303.133 369.229 300.366 370.375 297.48 370.375C294.594 370.375 291.827 369.229 289.787 367.19C287.746 365.15 286.6 362.384 286.6 359.5V294.25C286.6 291.366 285.454 288.6 283.413 286.56C281.373 284.521 278.606 283.375 275.72 283.375C272.834 283.375 270.067 284.521 268.027 286.56C265.986 288.6 264.84 291.366 264.84 294.25V348.625C264.84 351.509 263.694 354.275 261.653 356.315C259.613 358.354 256.846 359.5 253.96 359.5C251.074 359.5 248.307 358.354 246.267 356.315C244.226 354.275 243.08 351.509 243.08 348.625V261.625C243.08 258.741 241.934 255.975 239.893 253.935C237.853 251.896 235.086 250.75 232.2 250.75C229.314 250.75 226.547 251.896 224.507 253.935C222.466 255.975 221.32 258.741 221.32 261.625V316C221.32 318.884 220.174 321.65 218.133 323.69C216.093 325.729 213.326 326.875 210.44 326.875C207.554 326.875 204.787 325.729 202.747 323.69C200.706 321.65 199.56 318.884 199.56 316V283.375C199.56 280.491 198.414 277.725 196.373 275.685C194.333 273.646 191.566 272.5 188.68 272.5C185.794 272.5 183.027 273.646 180.987 275.685C178.946 277.725 177.8 280.491 177.8 283.375V359.5C177.8 362.384 176.654 365.15 174.613 367.19C172.573 369.229 169.806 370.375 166.92 370.375C164.034 370.375 161.267 369.229 159.227 367.19C157.186 365.15 156.04 362.384 156.04 359.5V316C156.04 313.116 154.894 310.35 152.853 308.31C150.813 306.271 148.046 305.125 145.16 305.125C142.274 305.125 139.507 306.271 137.467 308.31C135.426 310.35 134.28 313.116 134.28 316V392.125C134.28 395.009 133.134 397.775 131.093 399.815C129.053 401.854 126.286 403 123.4 403C120.514 403 117.747 401.854 115.707 399.815C113.666 397.775 112.52 395.009 112.52 392.125V283.375C112.52 280.491 111.374 277.725 109.333 275.685C107.293 273.646 104.526 272.5 101.64 272.5C98.7544 272.5 95.9871 273.646 93.9467 275.685C91.9063 277.725 90.76 280.491 90.76 283.375V337.75C90.76 340.634 89.6137 343.4 87.5733 345.44C85.5329 347.479 82.7656 348.625 79.88 348.625C76.9944 348.625 74.2271 347.479 72.1867 345.44C70.1463 343.4 69 340.634 69 337.75V243H1L1 175H69V38.5" stroke="#8692FF" stroke-width="2" stroke-linecap="round"/>
<g clip-path="url(#clip0_23951_1197)">
<path d="M69.9082 177.691C69.4973 182.613 62.7162 210.245 29.1446 250.231L5 251L5 210.757C6.3699 208.621 31.5607 176.558 37.1072 170.771C52.3385 154.879 56.5516 162.312 62.7162 165.901C68.8808 169.489 70.4218 171.54 69.9082 177.691Z" fill="#23272D"/>
<path d="M10.2941 246.688L24.364 255.528L26.412 253.618L29.6759 250.038L15.2144 240.939L10.2941 246.688Z" fill="#ECEDF9"/>
<path d="M24.4349 255.513L10.8945 246.709M30.7644 222.017L44.9526 230.97M15.797 241.291L29.565 250.128" stroke="#8692FF" stroke-width="2" stroke-linecap="round"/>
<path d="M51.2847 169.996C51.0281 169.905 50.7334 169.869 50.3991 169.892C45.0094 170.255 31.0118 185.692 19.7306 202.13M51.2847 169.996C51.2541 167.925 50.5318 166.782 48.9624 166.888C45.6989 167.108 39.3756 172.686 32.3556 180.686M51.2847 169.996C51.3845 176.75 44.1335 193.377 34.9108 208.816C23.5325 227.864 6.85495 248.418 -0.599673 251.035M-0.599673 251.035C-1.04099 251.19 -1.44999 251.282 -1.82364 251.307C-5.15167 251.531 -5.04899 246.407 -2.61978 238.714M-0.599673 251.035C-1.99698 249.29 -1.30341 244.452 0.879154 238.038" stroke="#6B7AFF" stroke-width="2" stroke-linecap="round"/>
<path d="M-5.35965 257.03C-2.3495 259.094 4.13525 263.48 5.99295 264.512C8.31507 265.802 10.1212 267.608 14.7654 264.512C36.6966 248.515 67.9162 201.041 70.7544 176.013C71.0124 172.917 69.9802 170.595 67.6581 169.047C65.723 167.757 58.8856 162.941 55.5315 160.791" stroke="#8692FF" stroke-width="2" stroke-linecap="round"/>
<path d="M-6.13526 241.291C-8.11336 246.021 -10.3667 255.74 -5.61923 256.771C9.34749 260.025 63.5304 179.368 55.788 161.306C53.1962 155.26 33.8571 171.111 19.1503 192.784" stroke="#8692FF" stroke-width="2" stroke-linecap="round"/>
</g>
<path d="M247.702 172.174C247.702 168.542 246.888 165.349 245.26 162.594C243.632 159.713 240.815 157.334 236.807 155.456C232.8 153.577 227.415 152.137 220.652 151.135C213.89 150.133 205.374 149.632 195.106 149.632C196.483 137.986 197.61 126.152 198.487 114.13C199.363 102.108 200.052 90.8369 200.553 80.3175H270.995V103.798H224.034C223.783 108.306 223.47 112.69 223.094 116.947C222.844 121.08 222.531 124.712 222.155 127.842C240.439 129.095 253.901 133.415 262.542 140.804C271.308 148.067 275.691 158.211 275.691 171.235C275.691 177.246 274.627 182.818 272.498 187.953C270.369 193.087 267.175 197.533 262.918 201.29C258.66 205.047 253.275 207.99 246.763 210.119C240.376 212.248 232.862 213.312 224.222 213.312C220.84 213.312 217.271 213.062 213.514 212.561C209.883 212.185 206.314 211.621 202.807 210.87C199.426 210.244 196.358 209.555 193.603 208.804C190.848 208.052 188.719 207.301 187.216 206.55L192.288 183.445C195.419 184.822 199.551 186.2 204.686 187.577C209.82 188.83 215.956 189.456 223.094 189.456C231.735 189.456 237.997 187.765 241.879 184.384C245.761 180.877 247.702 176.807 247.702 172.174Z" fill="#23272D"/>
<path d="M387.151 145.124C387.151 167.039 382.956 183.883 374.565 195.655C366.3 207.301 354.842 213.124 340.19 213.124C325.538 213.124 314.016 207.301 305.626 195.655C297.361 183.883 293.228 167.039 293.228 145.124C293.228 134.229 294.293 124.586 296.422 116.196C298.676 107.806 301.869 100.73 306.002 94.9695C310.134 89.2089 315.081 84.8258 320.842 81.8203C326.602 78.8148 333.051 77.312 340.19 77.312C354.842 77.312 366.3 83.1978 374.565 94.9695C382.956 106.616 387.151 123.334 387.151 145.124ZM358.598 145.124C358.598 138.612 358.285 132.726 357.659 127.467C357.033 122.082 356.031 117.448 354.654 113.566C353.276 109.684 351.398 106.678 349.018 104.55C346.639 102.421 343.696 101.356 340.19 101.356C336.683 101.356 333.74 102.421 331.361 104.55C329.107 106.678 327.228 109.684 325.725 113.566C324.348 117.448 323.346 122.082 322.72 127.467C322.094 132.726 321.781 138.612 321.781 145.124C321.781 151.636 322.094 157.585 322.72 162.969C323.346 168.354 324.348 172.988 325.725 176.87C327.228 180.752 329.107 183.758 331.361 185.887C333.74 188.016 336.683 189.08 340.19 189.08C343.696 189.08 346.639 188.016 349.018 185.887C351.398 183.758 353.276 180.752 354.654 176.87C356.031 172.988 357.033 168.354 357.659 162.969C358.285 157.585 358.598 151.636 358.598 145.124Z" fill="#23272D"/>
<path d="M493.915 145.124C493.915 167.039 489.719 183.883 481.329 195.655C473.064 207.301 461.605 213.124 446.953 213.124C432.301 213.124 420.78 207.301 412.39 195.655C404.124 183.883 399.992 167.039 399.992 145.124C399.992 134.229 401.056 124.586 403.185 116.196C405.439 107.806 408.633 100.73 412.765 94.9695C416.898 89.2089 421.845 84.8258 427.605 81.8203C433.366 78.8148 439.815 77.312 446.953 77.312C461.605 77.312 473.064 83.1978 481.329 94.9695C489.719 106.616 493.915 123.334 493.915 145.124ZM465.362 145.124C465.362 138.612 465.049 132.726 464.423 127.467C463.797 122.082 462.795 117.448 461.417 113.566C460.04 109.684 458.161 106.678 455.782 104.55C453.403 102.421 450.46 101.356 446.953 101.356C443.447 101.356 440.504 102.421 438.124 104.55C435.87 106.678 433.992 109.684 432.489 113.566C431.112 117.448 430.11 122.082 429.484 127.467C428.857 132.726 428.544 138.612 428.544 145.124C428.544 151.636 428.857 157.585 429.484 162.969C430.11 168.354 431.112 172.988 432.489 176.87C433.992 180.752 435.87 183.758 438.124 185.887C440.504 188.016 443.447 189.08 446.953 189.08C450.46 189.08 453.403 188.016 455.782 185.887C458.161 183.758 460.04 180.752 461.417 176.87C462.795 172.988 463.797 168.354 464.423 162.969C465.049 157.585 465.362 151.636 465.362 145.124Z" fill="#23272D"/>
<path d="M247.702 172.174C247.702 168.542 246.888 165.349 245.26 162.594C243.632 159.713 240.815 157.334 236.807 155.456C232.8 153.577 227.415 152.137 220.652 151.135C213.89 150.133 205.374 149.632 195.106 149.632C196.483 137.986 197.61 126.152 198.487 114.13C199.363 102.108 200.052 90.8369 200.553 80.3175H270.995V103.798H224.034C223.783 108.306 223.47 112.69 223.094 116.947C222.844 121.08 222.531 124.712 222.155 127.842C240.439 129.095 253.901 133.415 262.542 140.804C271.308 148.067 275.691 158.211 275.691 171.235C275.691 177.246 274.627 182.818 272.498 187.953C270.369 193.087 267.175 197.533 262.918 201.29C258.66 205.047 253.275 207.99 246.763 210.119C240.376 212.248 232.862 213.312 224.222 213.312C220.84 213.312 217.271 213.062 213.514 212.561C209.883 212.185 206.314 211.621 202.807 210.87C199.426 210.244 196.358 209.555 193.603 208.804C190.848 208.052 188.719 207.301 187.216 206.55L192.288 183.445C195.419 184.822 199.551 186.2 204.686 187.577C209.82 188.83 215.956 189.456 223.094 189.456C231.735 189.456 237.997 187.765 241.879 184.384C245.761 180.877 247.702 176.807 247.702 172.174Z" stroke="#8692FF" stroke-width="2"/>
<path d="M387.151 145.124C387.151 167.039 382.956 183.883 374.565 195.655C366.3 207.301 354.842 213.124 340.19 213.124C325.538 213.124 314.016 207.301 305.626 195.655C297.361 183.883 293.228 167.039 293.228 145.124C293.228 134.229 294.293 124.586 296.422 116.196C298.676 107.806 301.869 100.73 306.002 94.9695C310.134 89.2089 315.081 84.8258 320.842 81.8203C326.602 78.8148 333.051 77.312 340.19 77.312C354.842 77.312 366.3 83.1978 374.565 94.9695C382.956 106.616 387.151 123.334 387.151 145.124ZM358.598 145.124C358.598 138.612 358.285 132.726 357.659 127.467C357.033 122.082 356.031 117.448 354.654 113.566C353.276 109.684 351.398 106.678 349.018 104.55C346.639 102.421 343.696 101.356 340.19 101.356C336.683 101.356 333.74 102.421 331.361 104.55C329.107 106.678 327.228 109.684 325.725 113.566C324.348 117.448 323.346 122.082 322.72 127.467C322.094 132.726 321.781 138.612 321.781 145.124C321.781 151.636 322.094 157.585 322.72 162.969C323.346 168.354 324.348 172.988 325.725 176.87C327.228 180.752 329.107 183.758 331.361 185.887C333.74 188.016 336.683 189.08 340.19 189.08C343.696 189.08 346.639 188.016 349.018 185.887C351.398 183.758 353.276 180.752 354.654 176.87C356.031 172.988 357.033 168.354 357.659 162.969C358.285 157.585 358.598 151.636 358.598 145.124Z" stroke="#8692FF" stroke-width="2"/>
<path d="M493.915 145.124C493.915 167.039 489.719 183.883 481.329 195.655C473.064 207.301 461.605 213.124 446.953 213.124C432.301 213.124 420.78 207.301 412.39 195.655C404.124 183.883 399.992 167.039 399.992 145.124C399.992 134.229 401.056 124.586 403.185 116.196C405.439 107.806 408.633 100.73 412.765 94.9695C416.898 89.2089 421.845 84.8258 427.605 81.8203C433.366 78.8148 439.815 77.312 446.953 77.312C461.605 77.312 473.064 83.1978 481.329 94.9695C489.719 106.616 493.915 123.334 493.915 145.124ZM465.362 145.124C465.362 138.612 465.049 132.726 464.423 127.467C463.797 122.082 462.795 117.448 461.417 113.566C460.04 109.684 458.161 106.678 455.782 104.55C453.403 102.421 450.46 101.356 446.953 101.356C443.447 101.356 440.504 102.421 438.124 104.55C435.87 106.678 433.992 109.684 432.489 113.566C431.112 117.448 430.11 122.082 429.484 127.467C428.857 132.726 428.544 138.612 428.544 145.124C428.544 151.636 428.857 157.585 429.484 162.969C430.11 168.354 431.112 172.988 432.489 176.87C433.992 180.752 435.87 183.758 438.124 185.887C440.504 188.016 443.447 189.08 446.953 189.08C450.46 189.08 453.403 188.016 455.782 185.887C458.161 183.758 460.04 180.752 461.417 176.87C462.795 172.988 463.797 168.354 464.423 162.969C465.049 157.585 465.362 151.636 465.362 145.124Z" stroke="#8692FF" stroke-width="2"/>
<rect x="58" y="29" width="20" height="20" rx="10" fill="#23272D" stroke="#8692FF" stroke-width="2"/>
<rect x="417" y="29" width="20" height="20" rx="10" fill="#23272D" stroke="#8692FF" stroke-width="2"/>
<rect x="477" y="330" width="10" height="10" rx="5" fill="#23272D" stroke="#8692FF" stroke-width="2"/>
<rect x="303" y="306" width="10" height="10" rx="5" fill="#23272D" stroke="#8692FF" stroke-width="2"/>
<g clip-path="url(#clip1_23951_1197)">
<path d="M644.142 182.226L672.171 189.736C673.796 190.171 675.519 189.544 676.483 188.166L694.121 162.968C695.09 161.583 695.084 159.738 694.106 158.36L677.135 134.439C676.596 133.679 675.808 133.131 674.908 132.889L647.102 125.439C645.488 125.006 643.774 125.623 642.806 126.986L625.05 151.979C624.07 153.358 624.064 155.205 625.035 156.591L641.902 180.658C642.441 181.427 643.234 181.982 644.142 182.226Z" fill="#23272D"/>
<path d="M664.986 152.646L692.91 160.128C694.254 160.488 694.829 162.077 694.026 163.214L675.606 189.302C675.123 189.986 674.264 190.297 673.455 190.08L645.53 182.598C644.186 182.238 643.612 180.649 644.414 179.512L662.834 153.424C663.318 152.74 664.176 152.429 664.986 152.646Z" fill="#8692FF"/>
<path d="M644.142 182.226L672.171 189.736C673.796 190.171 675.519 189.544 676.483 188.166L694.121 162.968C695.09 161.583 695.084 159.738 694.106 158.36L677.135 134.439C676.596 133.679 675.808 133.131 674.908 132.889L647.102 125.439C645.488 125.006 643.774 125.623 642.806 126.986L625.05 151.979C624.07 153.358 624.064 155.205 625.035 156.591L641.902 180.658C642.441 181.427 643.234 181.982 644.142 182.226Z" stroke="#8692FF" stroke-width="2"/>
<path d="M642.737 181.849L663.661 152.064M695.482 160.59L663.661 152.064M663.661 152.064L644.593 124.971" stroke="#8692FF" stroke-width="2"/>
</g>
<defs>
<clipPath id="clip0_23951_1197">
<rect width="134" height="181" fill="white" transform="matrix(-1 0 0 1 136 61)"/>
</clipPath>
<clipPath id="clip1_23951_1197">
<rect width="76" height="67" fill="white" transform="translate(604 107)"/>
</clipPath>
</defs>
</svg>
