<svg viewBox="0 0 683 404" fill="none" xmlns="http://www.w3.org/2000/svg"><path d="M69 13c0-6.627 5.373-12 12-12h520c6.627 0 12 5.373 12 12v26H69V13Z" fill="#F6F7FF" stroke="#ECEDF9" stroke-width="2"/><path fill-rule="evenodd" clip-rule="evenodd" d="M113 24a4 4 0 1 0 0-8 4 4 0 0 0 0 8Zm-13 0a4 4 0 1 0 0-8 4 4 0 0 0 0 8Zm-13 0a4 4 0 1 0 0-8 4 4 0 0 0 0 8Z" fill="#D1D3E3"/><path d="M1 107V51c0-6.627 5.373-12 12-12h56M1 107h68m-68 0v68M69 39v68m0-68h544M69 107v68M613 39v68m0-68h56c6.627 0 12 5.373 12 12v56m-68 0h68m-68 0v68m68-68v68M1 175h68m-68 0v68m68-68v68m544-68h68m-68 0v68m68-68v68M1 243h68m-68 0v56c0 6.627 5.373 12 12 12h56m0-68v68m544-68h68m-68 0v68m68-68v56c0 6.627-5.373 12-12 12h-56m-544 0v24.5M613 311v29" stroke="#ECEDF9" stroke-width="2"/><path d="M69 283.375v54.375a10.874 10.874 0 0 0 10.88 10.875 10.874 10.874 0 0 0 10.88-10.875v-54.375a10.874 10.874 0 0 1 10.88-10.875c2.886 0 5.653 1.146 7.693 3.185a10.872 10.872 0 0 1 3.187 7.69v108.75c0 2.884 1.146 5.65 3.187 7.69a10.882 10.882 0 0 0 18.573-7.69V316c0-2.884 1.146-5.65 3.187-7.69A10.882 10.882 0 0 1 156.04 316v43.5c0 2.884 1.146 5.65 3.187 7.69a10.882 10.882 0 0 0 18.573-7.69v-76.125c0-2.884 1.146-5.65 3.187-7.69a10.882 10.882 0 0 1 18.573 7.69V316c0 2.884 1.146 5.65 3.187 7.69A10.882 10.882 0 0 0 221.32 316v-54.375c0-2.884 1.146-5.65 3.187-7.69a10.882 10.882 0 0 1 18.573 7.69v87c0 2.884 1.146 5.65 3.187 7.69a10.882 10.882 0 0 0 18.573-7.69V294.25c0-2.884 1.146-5.65 3.187-7.69a10.882 10.882 0 0 1 18.573 7.69v65.25c0 2.884 1.146 5.65 3.187 7.69a10.882 10.882 0 0 0 18.573-7.69v-76.125c0-2.884 1.146-5.65 3.187-7.69a10.882 10.882 0 0 1 18.573 7.69v21.75c0 2.884 1.146 5.65 3.187 7.69a10.882 10.882 0 0 0 18.573-7.69V250.75c0-2.884 1.146-5.65 3.187-7.69a10.882 10.882 0 0 1 18.573 7.69V316c0 2.884 1.146 5.65 3.187 7.69A10.882 10.882 0 0 0 395.4 316v-32.625c0-2.884 1.146-5.65 3.187-7.69a10.882 10.882 0 0 1 18.573 7.69v108.75c0 2.884 1.146 5.65 3.187 7.69a10.882 10.882 0 0 0 18.573-7.69V272.5c0-2.884 1.146-5.65 3.187-7.69a10.882 10.882 0 0 1 18.573 7.69v97.875c0 2.884 1.146 5.65 3.187 7.69a10.882 10.882 0 0 0 18.573-7.69v-65.25c0-2.884 1.146-5.65 3.187-7.69a10.882 10.882 0 0 1 18.573 7.69V359.5c0 2.884 1.146 5.65 3.187 7.69a10.882 10.882 0 0 0 18.573-7.69V250.75c0-2.884 1.146-5.65 3.187-7.69a10.882 10.882 0 0 1 18.573 7.69V316c0 2.884 1.146 5.65 3.187 7.69A10.882 10.882 0 0 0 569.48 316v-43.5c0-2.884 1.146-5.65 3.187-7.69a10.882 10.882 0 0 1 18.573 7.69v87c0 2.884 1.146 5.65 3.187 7.69A10.882 10.882 0 0 0 613 359.5V229" stroke="#ECEDF9" stroke-width="2" stroke-linecap="round"/><path d="M482.44 330.375v-25.25c0-2.884 1.146-5.65 3.187-7.69a10.882 10.882 0 0 1 18.573 7.69V359.5c0 2.884 1.146 5.65 3.187 7.69a10.882 10.882 0 0 0 18.573-7.69V250.75c0-2.884 1.146-5.65 3.187-7.69a10.882 10.882 0 0 1 18.573 7.69V316c0 2.884 1.146 5.65 3.187 7.69A10.882 10.882 0 0 0 569.48 316v-43.5c0-2.884 1.146-5.65 3.187-7.69a10.882 10.882 0 0 1 18.573 7.69v87c0 2.884 1.146 5.65 3.187 7.69a10.884 10.884 0 0 0 15.386 0A10.872 10.872 0 0 0 613 359.5V175h68l-.5-68H613V39H432M308.36 313.375V359.5c0 2.884-1.146 5.65-3.187 7.69a10.882 10.882 0 0 1-18.573-7.69v-65.25c0-2.884-1.146-5.65-3.187-7.69a10.882 10.882 0 0 0-18.573 7.69v54.375c0 2.884-1.146 5.65-3.187 7.69a10.882 10.882 0 0 1-18.573-7.69v-87c0-2.884-1.146-5.65-3.187-7.69a10.882 10.882 0 0 0-18.573 7.69V316c0 2.884-1.146 5.65-3.187 7.69A10.882 10.882 0 0 1 199.56 316v-32.625c0-2.884-1.146-5.65-3.187-7.69a10.882 10.882 0 0 0-18.573 7.69V359.5c0 2.884-1.146 5.65-3.187 7.69a10.882 10.882 0 0 1-18.573-7.69V316c0-2.884-1.146-5.65-3.187-7.69A10.882 10.882 0 0 0 134.28 316v76.125c0 2.884-1.146 5.65-3.187 7.69a10.882 10.882 0 0 1-18.573-7.69v-108.75c0-2.884-1.146-5.65-3.187-7.69a10.882 10.882 0 0 0-18.573 7.69v54.375a10.874 10.874 0 0 1-10.88 10.875A10.874 10.874 0 0 1 69 337.75V243H1v-68h68V38.5" stroke="#5060EE" stroke-width="2" stroke-linecap="round"/><g clip-path="url(#clip0_19702_89622)"><path d="M69.908 177.691c-.41 4.922-7.192 32.554-40.763 72.54L5 251v-40.243c1.37-2.136 26.56-34.199 32.107-39.986 15.232-15.892 19.445-8.459 25.61-4.87 6.164 3.588 7.705 5.639 7.191 11.79Z" fill="white"/><path d="m10.294 246.688 14.07 8.84 2.048-1.91 3.264-3.58-14.462-9.099-4.92 5.749Z" fill="#ECEDF9"/><path d="m24.435 255.513-13.54-8.804m19.87-24.692 14.188 8.953m-29.156 10.321 13.768 8.837" stroke="#5060EE" stroke-width="2" stroke-linecap="round"/><path d="M51.285 169.996a2.184 2.184 0 0 0-.886-.104c-5.39.363-19.387 15.8-30.668 32.238m31.554-32.134c-.03-2.071-.753-3.214-2.323-3.108-3.263.22-9.586 5.798-16.606 13.798m18.929-10.69c.1 6.754-7.151 23.381-16.374 38.82C23.532 227.864 6.855 248.418-.6 251.035m0 0a4.685 4.685 0 0 1-1.225.272c-3.328.224-3.225-4.9-.796-12.593m2.02 12.321c-1.397-1.745-.703-6.583 1.48-12.997" stroke="#212B83" stroke-width="2" stroke-linecap="round"/><path d="M-5.36 257.03c3.01 2.064 9.495 6.45 11.353 7.482 2.322 1.29 4.128 3.096 8.772 0 21.932-15.997 53.151-63.471 55.99-88.499.257-3.096-.775-5.418-3.097-6.966-1.935-1.29-8.772-6.106-12.127-8.256" stroke="#5060EE" stroke-width="2" stroke-linecap="round"/><path d="M-6.135 241.291c-1.978 4.73-4.232 14.449.516 15.48 14.966 3.254 69.15-77.403 61.407-95.465-2.592-6.046-21.93 9.805-36.638 31.478" stroke="#5060EE" stroke-width="2" stroke-linecap="round"/></g><path d="M248.702 173.174c0-3.632-.814-6.825-2.442-9.58-1.628-2.881-4.445-5.26-8.453-7.138-4.007-1.879-9.392-3.319-16.155-4.321-6.762-1.002-15.278-1.503-25.546-1.503a794.86 794.86 0 0 0 3.381-35.502c.876-12.022 1.565-23.293 2.066-33.813h70.442v23.481h-46.961a406.225 406.225 0 0 1-.94 13.149c-.25 4.133-.563 7.765-.939 10.895 18.284 1.253 31.746 5.573 40.387 12.962 8.766 7.263 13.149 17.407 13.149 30.431 0 6.011-1.064 11.583-3.193 16.718-2.129 5.134-5.323 9.58-9.58 13.337-4.258 3.757-9.643 6.7-16.155 8.829-6.387 2.129-13.901 3.193-22.541 3.193-3.382 0-6.951-.25-10.708-.751-3.631-.376-7.2-.94-10.707-1.691-3.381-.626-6.449-1.315-9.204-2.066-2.755-.752-4.884-1.503-6.387-2.254l5.072-23.105c3.131 1.377 7.263 2.755 12.398 4.132 5.134 1.253 11.27 1.879 18.408 1.879 8.641 0 14.903-1.691 18.785-5.072 3.882-3.507 5.823-7.577 5.823-12.21Zm139.449-27.05c0 21.915-4.195 38.759-12.586 50.531-8.265 11.646-19.723 17.469-34.375 17.469-14.652 0-26.174-5.823-34.564-17.469-8.265-11.772-12.398-28.616-12.398-50.531 0-10.895 1.065-20.538 3.194-28.928 2.254-8.39 5.447-15.466 9.58-21.227 4.132-5.76 9.079-10.143 14.84-13.149 5.76-3.005 12.209-4.508 19.348-4.508 14.652 0 26.11 5.886 34.375 17.657 8.391 11.647 12.586 28.365 12.586 50.155Zm-28.553 0c0-6.512-.313-12.398-.939-17.657-.626-5.385-1.628-10.019-3.005-13.901-1.378-3.882-3.256-6.888-5.636-9.016-2.379-2.129-5.322-3.194-8.828-3.194-3.507 0-6.45 1.065-8.829 3.194-2.254 2.128-4.133 5.134-5.636 9.016-1.377 3.882-2.379 8.516-3.005 13.901-.626 5.259-.939 11.145-.939 17.657 0 6.512.313 12.461.939 17.845.626 5.385 1.628 10.019 3.005 13.901 1.503 3.882 3.382 6.888 5.636 9.017 2.379 2.129 5.322 3.193 8.829 3.193 3.506 0 6.449-1.064 8.828-3.193 2.38-2.129 4.258-5.135 5.636-9.017 1.377-3.882 2.379-8.516 3.005-13.901.626-5.384.939-11.333.939-17.845Zm135.317 0c0 21.915-4.196 38.759-12.586 50.531-8.265 11.646-19.724 17.469-34.376 17.469-14.652 0-26.173-5.823-34.563-17.469-8.266-11.772-12.398-28.616-12.398-50.531 0-10.895 1.064-20.538 3.193-28.928 2.254-8.39 5.448-15.466 9.58-21.227 4.133-5.76 9.08-10.143 14.84-13.149 5.761-3.005 12.21-4.508 19.348-4.508 14.652 0 26.111 5.886 34.376 17.657 8.39 11.647 12.586 28.365 12.586 50.155Zm-28.553 0c0-6.512-.313-12.398-.939-17.657-.626-5.385-1.628-10.019-3.006-13.901-1.377-3.882-3.256-6.888-5.635-9.016-2.379-2.129-5.322-3.194-8.829-3.194-3.506 0-6.449 1.065-8.829 3.194-2.254 2.128-4.132 5.134-5.635 9.016-1.377 3.882-2.379 8.516-3.005 13.901-.627 5.259-.94 11.145-.94 17.657 0 6.512.313 12.461.94 17.845.626 5.385 1.628 10.019 3.005 13.901 1.503 3.882 3.381 6.888 5.635 9.017 2.38 2.129 5.323 3.193 8.829 3.193 3.507 0 6.45-1.064 8.829-3.193 2.379-2.129 4.258-5.135 5.635-9.017 1.378-3.882 2.38-8.516 3.006-13.901.626-5.384.939-11.333.939-17.845Z" fill="#F8F8FF"/><path d="M248.702 173.174c0-3.632-.814-6.825-2.442-9.58-1.628-2.881-4.445-5.26-8.453-7.138-4.007-1.879-9.392-3.319-16.155-4.321-6.762-1.002-15.278-1.503-25.546-1.503a794.86 794.86 0 0 0 3.381-35.502c.876-12.022 1.565-23.293 2.066-33.813h70.442v23.481h-46.961a406.225 406.225 0 0 1-.94 13.149c-.25 4.133-.563 7.765-.939 10.895 18.284 1.253 31.746 5.573 40.387 12.962 8.766 7.263 13.149 17.407 13.149 30.431 0 6.011-1.064 11.583-3.193 16.718-2.129 5.134-5.323 9.58-9.58 13.337-4.258 3.757-9.643 6.7-16.155 8.829-6.387 2.129-13.901 3.193-22.541 3.193-3.382 0-6.951-.25-10.708-.751-3.631-.376-7.2-.94-10.707-1.691-3.381-.626-6.449-1.315-9.204-2.066-2.755-.752-4.884-1.503-6.387-2.254l5.072-23.105c3.131 1.377 7.263 2.755 12.398 4.132 5.134 1.253 11.27 1.879 18.408 1.879 8.641 0 14.903-1.691 18.785-5.072 3.882-3.507 5.823-7.577 5.823-12.21Zm139.449-27.05c0 21.915-4.195 38.759-12.586 50.531-8.265 11.646-19.723 17.469-34.375 17.469-14.652 0-26.174-5.823-34.564-17.469-8.265-11.772-12.398-28.616-12.398-50.531 0-10.895 1.065-20.538 3.194-28.928 2.254-8.39 5.447-15.466 9.58-21.227 4.132-5.76 9.079-10.143 14.84-13.149 5.76-3.005 12.209-4.508 19.348-4.508 14.652 0 26.11 5.886 34.375 17.657 8.391 11.647 12.586 28.365 12.586 50.155Zm-28.553 0c0-6.512-.313-12.398-.939-17.657-.626-5.385-1.628-10.019-3.005-13.901-1.378-3.882-3.256-6.888-5.636-9.016-2.379-2.129-5.322-3.194-8.828-3.194-3.507 0-6.45 1.065-8.829 3.194-2.254 2.128-4.133 5.134-5.636 9.016-1.377 3.882-2.379 8.516-3.005 13.901-.626 5.259-.939 11.145-.939 17.657 0 6.512.313 12.461.939 17.845.626 5.385 1.628 10.019 3.005 13.901 1.503 3.882 3.382 6.888 5.636 9.017 2.379 2.129 5.322 3.193 8.829 3.193 3.506 0 6.449-1.064 8.828-3.193 2.38-2.129 4.258-5.135 5.636-9.017 1.377-3.882 2.379-8.516 3.005-13.901.626-5.384.939-11.333.939-17.845Zm135.317 0c0 21.915-4.196 38.759-12.586 50.531-8.265 11.646-19.724 17.469-34.376 17.469-14.652 0-26.173-5.823-34.563-17.469-8.266-11.772-12.398-28.616-12.398-50.531 0-10.895 1.064-20.538 3.193-28.928 2.254-8.39 5.448-15.466 9.58-21.227 4.133-5.76 9.08-10.143 14.84-13.149 5.761-3.005 12.21-4.508 19.348-4.508 14.652 0 26.111 5.886 34.376 17.657 8.39 11.647 12.586 28.365 12.586 50.155Zm-28.553 0c0-6.512-.313-12.398-.939-17.657-.626-5.385-1.628-10.019-3.006-13.901-1.377-3.882-3.256-6.888-5.635-9.016-2.379-2.129-5.322-3.194-8.829-3.194-3.506 0-6.449 1.065-8.829 3.194-2.254 2.128-4.132 5.134-5.635 9.016-1.377 3.882-2.379 8.516-3.005 13.901-.627 5.259-.94 11.145-.94 17.657 0 6.512.313 12.461.94 17.845.626 5.385 1.628 10.019 3.005 13.901 1.503 3.882 3.381 6.888 5.635 9.017 2.38 2.129 5.323 3.193 8.829 3.193 3.507 0 6.45-1.064 8.829-3.193 2.379-2.129 4.258-5.135 5.635-9.017 1.378-3.882 2.38-8.516 3.006-13.901.626-5.384.939-11.333.939-17.845Z" stroke="#5060EE" stroke-width="2"/><rect x="58" y="29" width="20" height="20" rx="10" fill="white" stroke="#5060EE" stroke-width="2"/><rect x="417" y="29" width="20" height="20" rx="10" fill="white" stroke="#5060EE" stroke-width="2"/><rect x="477" y="330" width="10" height="10" rx="5" fill="white" stroke="#5060EE" stroke-width="2"/><rect x="303" y="306" width="10" height="10" rx="5" fill="white" stroke="#5060EE" stroke-width="2"/><g clip-path="url(#clip1_19702_89622)"><path d="m644.142 182.226 28.029 7.51a4 4 0 0 0 4.312-1.57l17.638-25.198a4 4 0 0 0-.015-4.608l-16.971-23.921a3.999 3.999 0 0 0-2.227-1.549l-27.806-7.451a3.999 3.999 0 0 0-4.296 1.547l-17.756 24.993a4 4 0 0 0-.015 4.612l16.867 24.067a4.004 4.004 0 0 0 2.24 1.568Z" fill="white"/><path d="m664.986 152.646 27.924 7.482a2 2 0 0 1 1.116 3.086l-18.42 26.088a2 2 0 0 1-2.151.778l-27.925-7.482a2 2 0 0 1-1.116-3.086l18.42-26.088a2.001 2.001 0 0 1 2.152-.778Z" fill="#5060EE"/><path d="m644.142 182.226 28.029 7.51a4 4 0 0 0 4.312-1.57l17.638-25.198a4 4 0 0 0-.015-4.608l-16.971-23.921a3.999 3.999 0 0 0-2.227-1.549l-27.806-7.451a3.999 3.999 0 0 0-4.296 1.547l-17.756 24.993a4 4 0 0 0-.015 4.612l16.867 24.067a4.004 4.004 0 0 0 2.24 1.568Zm-1.405-.377 20.924-29.785m31.821 8.526-31.821-8.526m0 0-19.068-27.093" stroke="#5060EE" stroke-width="2"/></g><defs><clipPath id="clip0_19702_89622"><rect width="134" height="181" fill="white" transform="matrix(-1 0 0 1 136 61)"/></clipPath><clipPath id="clip1_19702_89622"><rect width="76" height="67" fill="white" transform="translate(604 107)"/></clipPath></defs></svg>