<svg width="682" height="404" viewBox="0 0 682 404" fill="none" xmlns="http://www.w3.org/2000/svg">
<path d="M69 13C69 6.37258 74.3726 1 81 1H601C607.627 1 613 6.37258 613 13V39H69V13Z" fill="#2C3139" stroke="#3D444D" stroke-width="2"/>
<path fill-rule="evenodd" clip-rule="evenodd" d="M113 24C115.209 24 117 22.2091 117 20C117 17.7909 115.209 16 113 16C110.791 16 109 17.7909 109 20C109 22.2091 110.791 24 113 24Z" fill="#3D444D"/>
<path fill-rule="evenodd" clip-rule="evenodd" d="M100 24C102.209 24 104 22.2091 104 20C104 17.7909 102.209 16 100 16C97.7909 16 96 17.7909 96 20C96 22.2091 97.7909 24 100 24Z" fill="#3D444D"/>
<path fill-rule="evenodd" clip-rule="evenodd" d="M87 24C89.2091 24 91 22.2091 91 20C91 17.7909 89.2091 16 87 16C84.7909 16 83 17.7909 83 20C83 22.2091 84.7909 24 87 24Z" fill="#3D444D"/>
<path d="M1 107V51C1 44.3726 6.37258 39 13 39H69M1 107H69M1 107V175M69 39V107M69 39H137H205H273H341H409H477H545H613M69 107V175M613 39V107M613 39H669C675.627 39 681 44.3726 681 51V107M613 107H681M613 107V175M681 107V175M1 175H69M1 175V243M69 175V243M613 175H681M613 175V243M681 175V243M1 243H69M1 243V299C1 305.627 6.37258 311 13 311H69M69 243V311M613 243H681M613 243V311M681 243V299C681 305.627 675.627 311 669 311H613M69 311V335.5M613 311V340" stroke="#2C3139" stroke-width="2"/>
<path d="M208.073 182.863C201.593 173.316 197.831 162.188 197.19 150.667C196.549 139.147 199.052 127.67 204.432 117.463C209.812 107.256 217.866 98.7039 227.732 92.7223C237.598 86.7407 248.906 83.5545 260.443 83.5047C271.981 83.4549 283.316 86.5434 293.233 92.4397C303.151 98.336 311.278 106.818 316.746 116.978C322.214 127.138 324.816 138.594 324.274 150.119C323.732 161.644 320.066 172.805 313.669 182.407" stroke="#8692FF" stroke-width="2" stroke-linecap="round"/>
<path d="M218.148 181.958C211.424 173.921 207.138 164.129 205.795 153.737C204.452 143.345 206.109 132.786 210.568 123.304C215.028 113.822 222.106 105.813 230.968 100.22C239.829 94.6278 250.104 91.6854 260.583 91.7398C271.061 91.7941 281.305 94.8431 290.108 100.527C298.911 106.211 305.905 114.294 310.267 123.821C314.628 133.349 316.174 143.925 314.724 154.303C313.273 164.68 308.886 174.427 302.079 182.393" stroke="#8692FF" stroke-width="2" stroke-linecap="round" stroke-dasharray="5 4"/>
<path d="M230.789 182.396C223.523 176.271 218.318 168.058 215.883 158.872C213.447 149.685 213.899 139.972 217.178 131.052C220.456 122.132 226.401 114.437 234.205 109.014C242.009 103.591 251.294 100.702 260.797 100.74C270.3 100.778 279.562 103.742 287.322 109.227C295.082 114.713 300.965 122.455 304.172 131.401C307.378 140.348 307.752 150.064 305.243 159.23C302.734 168.397 297.463 176.568 290.148 182.634" stroke="#8692FF" stroke-width="2" stroke-linecap="round"/>
<path d="M260.715 165.996C271.379 165.996 280.024 157.352 280.024 146.688C280.024 136.024 271.379 127.379 260.715 127.379C250.051 127.379 241.407 136.024 241.407 146.688C241.407 157.352 250.051 165.996 260.715 165.996Z" fill="#2C3139" stroke="#8692FF" stroke-width="2" stroke-linecap="round"/>
<path d="M257.245 83.3714V78.8691C257.245 78.4133 257.335 77.9619 257.51 77.5408C257.684 77.1197 257.94 76.7371 258.262 76.4148C258.584 76.0925 258.967 75.8369 259.388 75.6624C259.809 75.488 260.26 75.3983 260.716 75.3983C261.172 75.3983 261.623 75.488 262.045 75.6624C262.466 75.8369 262.848 76.0925 263.17 76.4148C263.493 76.7371 263.748 77.1197 263.923 77.5408C264.097 77.9619 264.187 78.4133 264.187 78.8691V83.4297" stroke="#8692FF" stroke-width="2" stroke-linecap="round"/>
<path d="M325.474 144.801H330.066C330.986 144.801 331.869 145.167 332.52 145.818C333.171 146.469 333.536 147.351 333.536 148.272C333.536 149.192 333.171 150.075 332.52 150.726C331.869 151.377 330.986 151.743 330.066 151.743H325.423M195.373 151.743H189.891C188.97 151.743 188.088 151.377 187.437 150.726C186.786 150.075 186.42 149.192 186.42 148.272C186.42 147.351 186.786 146.469 187.437 145.818C188.088 145.167 188.97 144.801 189.891 144.801H195.585L195.373 151.743Z" stroke="#8692FF" stroke-width="2" stroke-linecap="round"/>
<path d="M303.914 99.3479L307.103 96.1592C307.423 95.827 307.806 95.5618 308.229 95.3793C308.653 95.1968 309.109 95.1006 309.57 95.0963C310.031 95.0919 310.489 95.1796 310.916 95.3541C311.343 95.5286 311.731 95.7865 312.057 96.1127C312.383 96.4389 312.641 96.8268 312.815 97.2538C312.99 97.6808 313.078 98.1382 313.073 98.5995C313.069 99.0608 312.973 99.5165 312.79 99.9402C312.608 100.364 312.343 100.747 312.01 101.067L308.786 104.291" stroke="#8692FF" stroke-width="2" stroke-linecap="round"/>
<path d="M211.874 104.001L208.067 100.194C207.436 99.5387 207.087 98.6625 207.096 97.7533C207.104 96.8441 207.469 95.9746 208.112 95.3317C208.755 94.6887 209.625 94.3238 210.534 94.3152C211.443 94.3067 212.319 94.6553 212.974 95.286L216.928 99.2402" stroke="#8692FF" stroke-width="2" stroke-linecap="round"/>
<path d="M284.377 87.4725L286.231 83.3833C286.61 82.5485 287.306 81.8987 288.165 81.577C289.024 81.2553 289.976 81.2879 290.81 81.6678C291.645 82.0476 292.295 82.7435 292.617 83.6024C292.938 84.4612 292.906 85.4128 292.526 86.2476L290.644 90.3831" stroke="#8692FF" stroke-width="2" stroke-linecap="round"/>
<path d="M321.04 171.396L325.129 173.25C325.542 173.438 325.914 173.706 326.224 174.038C326.534 174.37 326.776 174.759 326.935 175.185C327.094 175.61 327.168 176.063 327.153 176.516C327.137 176.97 327.032 177.417 326.844 177.83C326.656 178.243 326.389 178.616 326.057 178.926C325.725 179.235 325.335 179.477 324.91 179.636C324.484 179.796 324.032 179.87 323.578 179.854C323.124 179.838 322.678 179.734 322.265 179.545L318.129 177.664M200.607 123.28L195.724 121.058C195.311 120.87 194.939 120.603 194.629 120.271C194.319 119.939 194.077 119.549 193.918 119.124C193.759 118.699 193.685 118.246 193.7 117.792C193.716 117.338 193.821 116.892 194.009 116.479C194.197 116.065 194.464 115.693 194.796 115.383C195.128 115.073 195.518 114.832 195.943 114.672C196.369 114.513 196.821 114.439 197.275 114.455C197.729 114.47 198.175 114.575 198.589 114.763L203.659 117.07L200.607 123.28Z" stroke="#8692FF" stroke-width="2" stroke-linecap="round"/>
<path d="M320.111 121.214L324.318 119.638C325.177 119.317 326.128 119.349 326.963 119.729C327.798 120.109 328.447 120.805 328.769 121.664C329.091 122.522 329.058 123.474 328.678 124.309C328.298 125.144 327.603 125.793 326.744 126.115L322.489 127.704M201.63 172.35L196.605 174.232C196.18 174.391 195.728 174.465 195.274 174.45C194.82 174.434 194.374 174.329 193.96 174.141C193.547 173.953 193.175 173.686 192.865 173.354C192.555 173.022 192.313 172.632 192.154 172.207C191.995 171.781 191.921 171.329 191.936 170.875C191.952 170.421 192.057 169.975 192.245 169.562C192.433 169.148 192.701 168.776 193.032 168.466C193.364 168.156 193.754 167.915 194.179 167.755L199.397 165.801L201.63 172.35Z" stroke="#8692FF" stroke-width="2" stroke-linecap="round"/>
<path d="M233.861 88.0006L231.979 82.9765C231.82 82.5512 231.746 82.0987 231.761 81.6449C231.777 81.191 231.882 80.7447 232.07 80.3313C232.258 79.918 232.526 79.5457 232.858 79.2358C233.19 78.9259 233.579 78.6844 234.004 78.5251C234.43 78.3658 234.882 78.2918 235.336 78.3074C235.79 78.323 236.236 78.4278 236.65 78.6159C237.063 78.8039 237.435 79.0716 237.745 79.4035C238.055 79.7355 238.297 80.1252 238.456 80.5505L240.41 85.7679" stroke="#8692FF" stroke-width="2" stroke-linecap="round"/>
<path d="M168 183.488H312.907C320.639 183.488 326.907 189.756 326.907 197.488V198.5" stroke="#8692FF" stroke-width="2" stroke-linecap="round"/>
<path d="M467.951 205.882C474.431 196.335 478.192 185.206 478.834 173.686C479.475 162.166 476.972 150.688 471.592 140.481C466.212 130.275 458.158 121.723 448.292 115.741C438.425 109.759 427.118 106.573 415.58 106.523C404.042 106.474 392.708 109.562 382.791 115.459C372.873 121.355 364.745 129.837 359.278 139.997C353.81 150.157 351.208 161.613 351.75 173.138C352.292 184.663 355.957 195.824 362.354 205.426" stroke="#8692FF" stroke-width="2" stroke-linecap="round"/>
<path d="M457.878 204.977C464.602 196.94 468.888 187.148 470.23 176.756C471.573 166.364 469.917 155.805 465.457 146.323C460.998 136.841 453.92 128.831 445.058 123.239C436.197 117.647 425.921 114.704 415.443 114.759C404.965 114.813 394.72 117.862 385.918 123.546C377.115 129.23 370.12 137.312 365.759 146.84C361.398 156.368 359.852 166.944 361.302 177.322C362.753 187.699 367.14 197.446 373.947 205.412" stroke="#8692FF" stroke-width="2" stroke-linecap="round" stroke-dasharray="5 4"/>
<path d="M445.238 205.415C452.505 199.29 457.709 191.076 460.145 181.89C462.58 172.704 462.128 162.991 458.85 154.071C455.572 145.151 449.627 137.456 441.823 132.033C434.018 126.61 424.734 123.721 415.23 123.759C405.727 123.797 396.466 126.76 388.706 132.246C380.945 137.732 375.062 145.474 371.856 154.42C368.649 163.366 368.275 173.083 370.784 182.249C373.293 191.415 378.564 199.587 385.88 205.653" stroke="#8692FF" stroke-width="2" stroke-linecap="round"/>
<path d="M415.313 189.015C425.977 189.015 434.622 180.37 434.622 169.707C434.622 159.043 425.977 150.398 415.313 150.398C404.649 150.398 396.005 159.043 396.005 169.707C396.005 180.37 404.649 189.015 415.313 189.015Z" fill="#2C3139" stroke="#8692FF" stroke-width="2" stroke-linecap="round"/>
<path d="M418.78 106.39V101.888C418.78 100.967 418.414 100.085 417.764 99.4336C417.113 98.7827 416.23 98.417 415.309 98.417C414.389 98.417 413.506 98.7827 412.855 99.4336C412.204 100.085 411.838 100.967 411.838 101.888V106.448" stroke="#8692FF" stroke-width="2" stroke-linecap="round"/>
<path d="M350.409 167.82H345.906C344.986 167.82 344.103 168.186 343.452 168.837C342.801 169.487 342.436 170.37 342.436 171.291C342.436 172.211 342.801 173.094 343.452 173.745C344.103 174.396 344.986 174.762 345.906 174.762H350.467M479.874 174.762H485.259C486.179 174.762 487.062 174.396 487.713 173.745C488.364 173.094 488.729 172.211 488.729 171.291C488.729 170.37 488.364 169.487 487.713 168.837C487.062 168.186 486.179 167.82 485.259 167.82H479.668L479.874 174.762Z" stroke="#8692FF" stroke-width="2" stroke-linecap="round"/>
<path d="M372.111 122.368L368.922 119.179C368.268 118.548 367.391 118.2 366.482 118.208C365.573 118.217 364.703 118.582 364.06 119.225C363.417 119.868 363.053 120.737 363.044 121.646C363.035 122.555 363.384 123.432 364.015 124.087L367.239 127.311" stroke="#8692FF" stroke-width="2" stroke-linecap="round"/>
<path d="M464.151 127.019L467.958 123.212C468.589 122.557 468.938 121.681 468.929 120.772C468.921 119.863 468.556 118.993 467.913 118.35C467.27 117.707 466.4 117.342 465.491 117.334C464.582 117.325 463.706 117.674 463.051 118.305L459.097 122.259" stroke="#8692FF" stroke-width="2" stroke-linecap="round"/>
<path d="M391.651 110.491L389.798 106.402C389.418 105.567 388.722 104.918 387.863 104.596C387.004 104.274 386.053 104.307 385.218 104.687C384.383 105.066 383.733 105.762 383.411 106.621C383.09 107.48 383.122 108.432 383.502 109.266L385.384 113.402" stroke="#8692FF" stroke-width="2" stroke-linecap="round"/>
<path d="M354.991 194.415L350.902 196.269C350.488 196.457 350.116 196.725 349.806 197.057C349.496 197.389 349.255 197.778 349.095 198.203C348.936 198.629 348.862 199.081 348.878 199.535C348.893 199.989 348.998 200.435 349.186 200.849C349.374 201.262 349.642 201.634 349.974 201.944C350.306 202.254 350.695 202.496 351.121 202.655C351.546 202.814 351.999 202.888 352.452 202.873C352.906 202.857 353.353 202.752 353.766 202.564L357.902 200.683M475.423 146.299L480.306 144.077C480.72 143.889 481.092 143.621 481.402 143.29C481.712 142.958 481.953 142.568 482.113 142.143C482.272 141.717 482.346 141.265 482.33 140.811C482.315 140.357 482.21 139.911 482.022 139.497C481.834 139.084 481.566 138.712 481.234 138.402C480.902 138.092 480.513 137.85 480.087 137.691C479.662 137.532 479.209 137.458 478.756 137.473C478.302 137.489 477.855 137.594 477.442 137.782L472.371 140.089L475.423 146.299Z" stroke="#8692FF" stroke-width="2" stroke-linecap="round"/>
<path d="M355.918 144.233L351.71 142.657C350.852 142.335 349.9 142.368 349.065 142.748C348.23 143.128 347.581 143.824 347.259 144.682C346.937 145.541 346.97 146.493 347.35 147.328C347.73 148.162 348.426 148.812 349.284 149.134L353.539 150.723M474.397 195.369L479.421 197.251C479.847 197.41 480.299 197.484 480.753 197.469C481.207 197.453 481.653 197.348 482.067 197.16C482.48 196.972 482.852 196.704 483.162 196.372C483.472 196.04 483.714 195.651 483.873 195.225C484.032 194.8 484.106 194.348 484.09 193.894C484.075 193.44 483.97 192.994 483.782 192.58C483.594 192.167 483.326 191.795 482.994 191.485C482.662 191.175 482.273 190.933 481.847 190.774L476.631 188.819L474.397 195.369Z" stroke="#8692FF" stroke-width="2" stroke-linecap="round"/>
<path d="M445.55 112.711L447.432 107.687C447.754 106.828 447.721 105.877 447.341 105.042C446.961 104.207 446.265 103.557 445.407 103.235C444.548 102.914 443.596 102.946 442.761 103.326C441.927 103.706 441.277 104.402 440.955 105.261L439.001 110.478" stroke="#8692FF" stroke-width="2" stroke-linecap="round"/>
<path d="M287.18 206H497.947C507.336 206 514.947 213.611 514.947 223V223" stroke="#8692FF" stroke-width="2" stroke-linecap="round"/>
<path d="M351.401 101.403C372.013 101.403 388.722 84.6933 388.722 64.081C388.722 43.4686 372.013 26.759 351.401 26.759C330.788 26.759 314.079 43.4686 314.079 64.081C314.079 84.6933 330.788 101.403 351.401 101.403Z" stroke="#8692FF" stroke-width="2"/>
<path d="M351.161 96.0719C368.964 96.0719 383.397 81.6395 383.397 63.8363C383.397 46.033 368.964 31.6007 351.161 31.6007C333.358 31.6007 318.925 46.033 318.925 63.8363C318.925 81.6395 333.358 96.0719 351.161 96.0719Z" stroke="#8692FF" stroke-width="2" stroke-linecap="round" stroke-dasharray="4 4"/>
<path d="M351.335 91.1651C366.33 91.1651 378.485 79.0099 378.485 64.0158C378.485 49.0217 366.33 36.8665 351.335 36.8665C336.341 36.8665 324.186 49.0217 324.186 64.0158C324.186 79.0099 336.341 91.1651 351.335 91.1651Z" fill="#23272D" stroke="#8692FF" stroke-width="2"/>
<path d="M351.404 75.1535C357.66 75.1535 362.732 70.082 362.732 63.826C362.732 57.5701 357.66 52.4986 351.404 52.4986C345.148 52.4986 340.077 57.5701 340.077 63.826C340.077 70.082 345.148 75.1535 351.404 75.1535Z" stroke="#8692FF" stroke-width="2"/>
<path d="M349.367 26.6845V24.036C349.367 23.496 349.582 22.9782 349.963 22.5964C350.345 22.2145 350.863 22 351.403 22C351.943 22 352.461 22.2145 352.843 22.5964C353.225 22.9782 353.439 23.496 353.439 24.036V26.711M353.439 101.638V104.797C353.439 105.336 353.225 105.854 352.843 106.236C352.461 106.618 351.943 106.833 351.403 106.833C350.863 106.833 350.345 106.618 349.963 106.236C349.582 105.854 349.367 105.336 349.367 104.797V101.516L353.439 101.638Z" stroke="#8692FF" stroke-width="2"/>
<path d="M389.473 62.7199H392.121C392.661 62.7199 393.179 62.9344 393.561 63.3162C393.943 63.698 394.157 64.2159 394.157 64.7559C394.157 65.2959 393.943 65.8137 393.561 66.1956C393.179 66.5774 392.661 66.7919 392.121 66.7919H389.446M314.52 66.7919H311.361C310.821 66.7919 310.303 66.5774 309.921 66.1956C309.539 65.8137 309.325 65.2959 309.325 64.7559C309.325 64.2159 309.539 63.698 309.921 63.3162C310.303 62.9344 310.821 62.7199 311.361 62.7199H314.641L314.52 66.7919Z" stroke="#8692FF" stroke-width="2"/>
<path d="M368.547 30.5542L369.871 28.2633C370.005 28.0318 370.183 27.8288 370.395 27.6661C370.607 27.5033 370.849 27.3839 371.107 27.3146C371.366 27.2454 371.635 27.2277 371.9 27.2626C372.165 27.2974 372.421 27.3842 372.652 27.5178C372.884 27.6514 373.087 27.8294 373.25 28.0415C373.412 28.2535 373.532 28.4956 373.601 28.7538C373.67 29.0121 373.688 29.2814 373.653 29.5464C373.618 29.8115 373.531 30.0671 373.398 30.2987L372.06 32.6147M334.598 97.5004L333.018 100.236C332.748 100.704 332.304 101.045 331.782 101.185C331.261 101.325 330.705 101.252 330.237 100.982C329.77 100.712 329.428 100.267 329.289 99.7458C329.149 99.2243 329.222 98.6686 329.492 98.201L331.131 95.3605L334.598 97.5004Z" stroke="#8692FF" stroke-width="2"/>
<path d="M385.266 81.8124L387.557 83.1366C388.025 83.4065 388.366 83.8511 388.506 84.3726C388.645 84.8941 388.572 85.4498 388.302 85.9175C388.033 86.3851 387.588 86.7264 387.066 86.8662C386.545 87.006 385.989 86.9329 385.522 86.663L383.204 85.3255M318.318 47.8632L315.583 46.2834C315.351 46.1497 315.148 45.9717 314.985 45.7595C314.823 45.5474 314.703 45.3052 314.634 45.0469C314.565 44.7886 314.547 44.5193 314.582 44.2542C314.617 43.9891 314.704 43.7334 314.838 43.5019C314.972 43.2703 315.15 43.0674 315.362 42.9046C315.574 42.7419 315.816 42.6225 316.074 42.5534C316.333 42.4842 316.602 42.4666 316.867 42.5015C317.132 42.5365 317.388 42.6233 317.619 42.757L320.46 44.3964L318.318 47.8632Z" stroke="#8692FF" stroke-width="2"/>
<path d="M383.126 43.5533L385.417 42.2291C385.885 41.9592 386.44 41.8861 386.962 42.0259C387.483 42.1657 387.928 42.507 388.198 42.9746C388.468 43.4423 388.541 43.998 388.401 44.5195C388.261 45.041 387.92 45.4856 387.452 45.7555L385.135 47.093M320.248 84.5579L317.515 86.1364C317.047 86.4063 316.491 86.4794 315.97 86.3396C315.448 86.1997 315.004 85.8585 314.734 85.3908C314.464 84.9232 314.391 84.3675 314.531 83.846C314.671 83.3245 315.012 82.8799 315.48 82.61L318.32 80.9693L320.248 84.5579Z" stroke="#8692FF" stroke-width="2"/>
<path d="M371.965 96.3083L373.289 98.5992C373.423 98.8307 373.51 99.0864 373.544 99.3514C373.579 99.6165 373.562 99.8858 373.492 100.144C373.423 100.402 373.304 100.644 373.141 100.856C372.978 101.068 372.775 101.246 372.544 101.38C372.312 101.514 372.056 101.6 371.791 101.635C371.526 101.67 371.257 101.652 370.999 101.583C370.741 101.514 370.499 101.395 370.286 101.232C370.074 101.069 369.896 100.866 369.763 100.635L368.425 98.3185M330.963 33.4328L329.383 30.6969C329.113 30.2293 329.04 29.6736 329.18 29.1521C329.32 28.6306 329.661 28.186 330.129 27.9161C330.596 27.6462 331.152 27.5731 331.674 27.7129C332.195 27.8527 332.64 28.194 332.91 28.6616L334.549 31.5021L330.963 33.4328Z" stroke="#8692FF" stroke-width="2"/>
<path d="M69 283.375V337.75C69 340.634 70.1463 343.4 72.1867 345.44C74.2271 347.479 76.9944 348.625 79.88 348.625C82.7656 348.625 85.5329 347.479 87.5733 345.44C89.6137 343.4 90.76 340.634 90.76 337.75V283.375C90.76 280.491 91.9063 277.725 93.9467 275.685C95.9871 273.646 98.7544 272.5 101.64 272.5C104.526 272.5 107.293 273.646 109.333 275.685C111.374 277.725 112.52 280.491 112.52 283.375V392.125C112.52 395.009 113.666 397.775 115.707 399.815C117.747 401.854 120.514 403 123.4 403C126.286 403 129.053 401.854 131.093 399.815C133.134 397.775 134.28 395.009 134.28 392.125V316C134.28 313.116 135.426 310.35 137.467 308.31C139.507 306.271 142.274 305.125 145.16 305.125C148.046 305.125 150.813 306.271 152.853 308.31C154.894 310.35 156.04 313.116 156.04 316V359.5C156.04 362.384 157.186 365.15 159.227 367.19C161.267 369.229 164.034 370.375 166.92 370.375C169.806 370.375 172.573 369.229 174.613 367.19C176.654 365.15 177.8 362.384 177.8 359.5V283.375C177.8 280.491 178.946 277.725 180.987 275.685C183.027 273.646 185.794 272.5 188.68 272.5C191.566 272.5 194.333 273.646 196.373 275.685C198.414 277.725 199.56 280.491 199.56 283.375V316C199.56 318.884 200.706 321.65 202.747 323.69C204.787 325.729 207.554 326.875 210.44 326.875C213.326 326.875 216.093 325.729 218.133 323.69C220.174 321.65 221.32 318.884 221.32 316V261.625C221.32 258.741 222.466 255.975 224.507 253.935C226.547 251.896 229.314 250.75 232.2 250.75C235.086 250.75 237.853 251.896 239.893 253.935C241.934 255.975 243.08 258.741 243.08 261.625V348.625C243.08 351.509 244.226 354.275 246.267 356.315C248.307 358.354 251.074 359.5 253.96 359.5C256.846 359.5 259.613 358.354 261.653 356.315C263.694 354.275 264.84 351.509 264.84 348.625V294.25C264.84 291.366 265.986 288.6 268.027 286.56C270.067 284.521 272.834 283.375 275.72 283.375C278.606 283.375 281.373 284.521 283.413 286.56C285.454 288.6 286.6 291.366 286.6 294.25V359.5C286.6 362.384 287.746 365.15 289.787 367.19C291.827 369.229 294.594 370.375 297.48 370.375C300.366 370.375 303.133 369.229 305.173 367.19C307.214 365.15 308.36 362.384 308.36 359.5V283.375C308.36 280.491 309.506 277.725 311.547 275.685C313.587 273.646 316.354 272.5 319.24 272.5C322.126 272.5 324.893 273.646 326.933 275.685C328.974 277.725 330.12 280.491 330.12 283.375V305.125C330.12 308.009 331.266 310.775 333.307 312.815C335.347 314.854 338.114 316 341 316C343.886 316 346.653 314.854 348.693 312.815C350.734 310.775 351.88 308.009 351.88 305.125V250.75C351.88 247.866 353.026 245.1 355.067 243.06C357.107 241.021 359.874 239.875 362.76 239.875C365.646 239.875 368.413 241.021 370.453 243.06C372.494 245.1 373.64 247.866 373.64 250.75V316C373.64 318.884 374.786 321.65 376.827 323.69C378.867 325.729 381.634 326.875 384.52 326.875C387.406 326.875 390.173 325.729 392.213 323.69C394.254 321.65 395.4 318.884 395.4 316V283.375C395.4 280.491 396.546 277.725 398.587 275.685C400.627 273.646 403.394 272.5 406.28 272.5C409.166 272.5 411.933 273.646 413.973 275.685C416.014 277.725 417.16 280.491 417.16 283.375V392.125C417.16 395.009 418.306 397.775 420.347 399.815C422.387 401.854 425.154 403 428.04 403C430.926 403 433.693 401.854 435.733 399.815C437.774 397.775 438.92 395.009 438.92 392.125V272.5C438.92 269.616 440.066 266.85 442.107 264.81C444.147 262.771 446.914 261.625 449.8 261.625C452.686 261.625 455.453 262.771 457.493 264.81C459.534 266.85 460.68 269.616 460.68 272.5V370.375C460.68 373.259 461.826 376.025 463.867 378.065C465.907 380.104 468.674 381.25 471.56 381.25C474.446 381.25 477.213 380.104 479.253 378.065C481.294 376.025 482.44 373.259 482.44 370.375V305.125C482.44 302.241 483.586 299.475 485.627 297.435C487.667 295.396 490.434 294.25 493.32 294.25C496.206 294.25 498.973 295.396 501.013 297.435C503.054 299.475 504.2 302.241 504.2 305.125V359.5C504.2 362.384 505.346 365.15 507.387 367.19C509.427 369.229 512.194 370.375 515.08 370.375C517.966 370.375 520.733 369.229 522.773 367.19C524.814 365.15 525.96 362.384 525.96 359.5V250.75C525.96 247.866 527.106 245.1 529.147 243.06C531.187 241.021 533.954 239.875 536.84 239.875C539.726 239.875 542.493 241.021 544.533 243.06C546.574 245.1 547.72 247.866 547.72 250.75V316C547.72 318.884 548.866 321.65 550.907 323.69C552.947 325.729 555.714 326.875 558.6 326.875C561.486 326.875 564.253 325.729 566.293 323.69C568.334 321.65 569.48 318.884 569.48 316V272.5C569.48 269.616 570.626 266.85 572.667 264.81C574.707 262.771 577.474 261.625 580.36 261.625C583.246 261.625 586.013 262.771 588.053 264.81C590.094 266.85 591.24 269.616 591.24 272.5V359.5C591.24 362.384 592.386 365.15 594.427 367.19C596.467 369.229 599.234 370.375 602.12 370.375C605.006 370.375 607.773 369.229 609.813 367.19C611.854 365.15 613 362.384 613 359.5V229" stroke="#505D6A" stroke-width="2" stroke-linecap="round"/>
<path d="M482.44 330.375V305.125C482.44 302.241 483.586 299.475 485.627 297.435C487.667 295.396 490.435 294.25 493.32 294.25C496.206 294.25 498.973 295.396 501.013 297.435C503.054 299.475 504.2 302.241 504.2 305.125V359.5C504.2 362.384 505.346 365.15 507.387 367.19C509.427 369.229 512.194 370.375 515.08 370.375C517.966 370.375 520.733 369.229 522.773 367.19C524.814 365.15 525.96 362.384 525.96 359.5V250.75C525.96 247.866 527.106 245.1 529.147 243.06C531.187 241.021 533.955 239.875 536.84 239.875C539.726 239.875 542.493 241.021 544.533 243.06C546.574 245.1 547.72 247.866 547.72 250.75V316C547.72 318.884 548.866 321.65 550.907 323.69C552.947 325.729 555.715 326.875 558.6 326.875C561.486 326.875 564.253 325.729 566.293 323.69C568.334 321.65 569.48 318.884 569.48 316V272.5C569.48 269.616 570.626 266.85 572.667 264.81C574.707 262.771 577.474 261.625 580.36 261.625C583.246 261.625 586.013 262.771 588.053 264.81C590.094 266.85 591.24 269.616 591.24 272.5V359.5C591.24 362.384 592.386 365.15 594.427 367.19C596.467 369.229 599.235 370.375 602.12 370.375C605.006 370.375 607.773 369.229 609.813 367.19C611.854 365.15 613 362.384 613 359.5V229V175H681L680.5 107H613V39H432" stroke="#8692FF" stroke-width="2" stroke-linecap="round"/>
<path d="M308.36 313.375V359.5C308.36 362.384 307.214 365.15 305.173 367.19C303.133 369.229 300.366 370.375 297.48 370.375C294.594 370.375 291.827 369.229 289.787 367.19C287.746 365.15 286.6 362.384 286.6 359.5V294.25C286.6 291.366 285.454 288.6 283.413 286.56C281.373 284.521 278.606 283.375 275.72 283.375C272.834 283.375 270.067 284.521 268.027 286.56C265.986 288.6 264.84 291.366 264.84 294.25V348.625C264.84 351.509 263.694 354.275 261.653 356.315C259.613 358.354 256.846 359.5 253.96 359.5C251.074 359.5 248.307 358.354 246.267 356.315C244.226 354.275 243.08 351.509 243.08 348.625V261.625C243.08 258.741 241.934 255.975 239.893 253.935C237.853 251.896 235.086 250.75 232.2 250.75C229.314 250.75 226.547 251.896 224.507 253.935C222.466 255.975 221.32 258.741 221.32 261.625V316C221.32 318.884 220.174 321.65 218.133 323.69C216.093 325.729 213.326 326.875 210.44 326.875C207.554 326.875 204.787 325.729 202.747 323.69C200.706 321.65 199.56 318.884 199.56 316V283.375C199.56 280.491 198.414 277.725 196.373 275.685C194.333 273.646 191.566 272.5 188.68 272.5C185.794 272.5 183.027 273.646 180.987 275.685C178.946 277.725 177.8 280.491 177.8 283.375V359.5C177.8 362.384 176.654 365.15 174.613 367.19C172.573 369.229 169.806 370.375 166.92 370.375C164.034 370.375 161.267 369.229 159.227 367.19C157.186 365.15 156.04 362.384 156.04 359.5V316C156.04 313.116 154.894 310.35 152.853 308.31C150.813 306.271 148.046 305.125 145.16 305.125C142.274 305.125 139.507 306.271 137.467 308.31C135.426 310.35 134.28 313.116 134.28 316V392.125C134.28 395.009 133.134 397.775 131.093 399.815C129.053 401.854 126.286 403 123.4 403C120.514 403 117.747 401.854 115.707 399.815C113.666 397.775 112.52 395.009 112.52 392.125V283.375C112.52 280.491 111.374 277.725 109.333 275.685C107.293 273.646 104.526 272.5 101.64 272.5C98.7544 272.5 95.9871 273.646 93.9467 275.685C91.9063 277.725 90.76 280.491 90.76 283.375V337.75C90.76 340.634 89.6137 343.4 87.5733 345.44C85.5329 347.479 82.7656 348.625 79.88 348.625C76.9944 348.625 74.2271 347.479 72.1867 345.44C70.1463 343.4 69 340.634 69 337.75V243H1L1 175H69V38.5" stroke="#8692FF" stroke-width="2" stroke-linecap="round"/>
<g clip-path="url(#clip0_23951_1317)">
<path d="M69.9082 177.691C69.4973 182.613 62.7162 210.245 29.1446 250.231L5 251L5 210.757C6.3699 208.621 31.5607 176.558 37.1072 170.771C52.3385 154.879 56.5516 162.312 62.7162 165.901C68.8808 169.489 70.4218 171.54 69.9082 177.691Z" fill="#23272D"/>
<path d="M10.2941 246.688L24.364 255.528L26.412 253.618L29.6759 250.038L15.2144 240.939L10.2941 246.688Z" fill="#2C3139"/>
<path d="M24.4349 255.513L10.8945 246.709M30.7644 222.017L44.9526 230.97M15.797 241.291L29.565 250.128" stroke="#8692FF" stroke-width="2" stroke-linecap="round"/>
<path d="M51.2847 169.996C51.0281 169.905 50.7334 169.869 50.3991 169.892C45.0094 170.255 31.0118 185.692 19.7306 202.13M51.2847 169.996C51.2541 167.925 50.5317 166.782 48.9624 166.888C45.6989 167.108 39.3756 172.686 32.3556 180.686M51.2847 169.996C51.3844 176.75 44.1335 193.377 34.9108 208.816C23.5325 227.864 6.85494 248.418 -0.599688 251.035M-0.599688 251.035C-1.04101 251.19 -1.45 251.282 -1.82366 251.307C-5.15169 251.531 -5.049 246.407 -2.61979 238.714M-0.599688 251.035C-1.99699 249.29 -1.30343 244.452 0.879138 238.038" stroke="#6B7AFF" stroke-width="2" stroke-linecap="round"/>
<path d="M-5.35965 257.03C-2.3495 259.094 4.13525 263.48 5.99295 264.512C8.31507 265.802 10.1212 267.608 14.7654 264.512C36.6966 248.515 67.9162 201.041 70.7544 176.013C71.0124 172.917 69.9802 170.595 67.6581 169.047C65.723 167.757 58.8856 162.941 55.5315 160.791" stroke="#8692FF" stroke-width="2" stroke-linecap="round"/>
<path d="M-6.13526 241.291C-8.11336 246.021 -10.3667 255.74 -5.61923 256.771C9.34749 260.025 63.5304 179.368 55.788 161.306C53.1962 155.26 33.8571 171.111 19.1503 192.784" stroke="#8692FF" stroke-width="2" stroke-linecap="round"/>
</g>
<rect x="58" y="29" width="20" height="20" rx="10" fill="#23272D" stroke="#8692FF" stroke-width="2"/>
<rect x="417" y="29" width="20" height="20" rx="10" fill="#23272D" stroke="#8692FF" stroke-width="2"/>
<rect x="477" y="330" width="10" height="10" rx="5" fill="#23272D" stroke="#8692FF" stroke-width="2"/>
<rect x="303" y="306" width="10" height="10" rx="5" fill="#23272D" stroke="#8692FF" stroke-width="2"/>
<g clip-path="url(#clip1_23951_1317)">
<path d="M644.142 182.226L672.171 189.736C673.796 190.171 675.519 189.544 676.483 188.166L694.121 162.968C695.09 161.583 695.084 159.738 694.106 158.36L677.135 134.439C676.596 133.679 675.808 133.131 674.908 132.889L647.102 125.439C645.488 125.006 643.774 125.623 642.806 126.986L625.05 151.979C624.07 153.358 624.064 155.205 625.035 156.591L641.902 180.658C642.441 181.427 643.234 181.982 644.142 182.226Z" fill="#23272D"/>
<path d="M664.986 152.646L692.91 160.128C694.254 160.488 694.829 162.077 694.026 163.214L675.606 189.302C675.123 189.986 674.264 190.297 673.455 190.08L645.53 182.598C644.186 182.238 643.612 180.649 644.414 179.512L662.834 153.424C663.318 152.74 664.176 152.429 664.986 152.646Z" fill="#8692FF"/>
<path d="M644.142 182.226L672.171 189.736C673.796 190.171 675.519 189.544 676.483 188.166L694.121 162.968C695.09 161.583 695.084 159.738 694.106 158.36L677.135 134.439C676.596 133.679 675.808 133.131 674.908 132.889L647.102 125.439C645.488 125.006 643.774 125.623 642.806 126.986L625.05 151.979C624.07 153.358 624.064 155.205 625.035 156.591L641.902 180.658C642.441 181.427 643.234 181.982 644.142 182.226Z" stroke="#8692FF" stroke-width="2"/>
<path d="M642.737 181.849L663.661 152.064M695.482 160.59L663.661 152.064M663.661 152.064L644.593 124.971" stroke="#8692FF" stroke-width="2"/>
</g>
<defs>
<clipPath id="clip0_23951_1317">
<rect width="134" height="181" fill="white" transform="matrix(-1 0 0 1 136 61)"/>
</clipPath>
<clipPath id="clip1_23951_1317">
<rect width="76" height="67" fill="white" transform="translate(604 107)"/>
</clipPath>
</defs>
</svg>
