<svg viewBox="0 0 683 404" fill="none" xmlns="http://www.w3.org/2000/svg">
    <path d="M69 13c0-6.627 5.373-12 12-12h520c6.627 0 12 5.373 12 12v26H69V13Z" class="stroke-theme-secondary-200 fill-theme-secondary-100 dark:stroke-theme-dark-700 dark:fill-theme-dark-800"
        stroke-width="2" />
    <path fill-rule="evenodd" clip-rule="evenodd"
        d="M113 24a4 4 0 1 0 0-8 4 4 0 0 0 0 8Zm-13 0a4 4 0 1 0 0-8 4 4 0 0 0 0 8Zm-13 0a4 4 0 1 0 0-8 4 4 0 0 0 0 8Z"
        class="fill-theme-secondary-400 dark:fill-theme-dark-700" />
    <path
        d="M1 107V51c0-6.627 5.373-12 12-12h56M1 107h68m-68 0v68M69 39v68m0-68h544M69 107v68M613 39v68m0-68h56c6.627 0 12 5.373 12 12v56m-68 0h68m-68 0v68m68-68v68M1 175h68m-68 0v68m68-68v68m544-68h68m-68 0v68m68-68v68M1 243h68m-68 0v56c0 6.627 5.373 12 12 12h56m0-68v68m544-68h68m-68 0v68m68-68v56c0 6.627-5.373 12-12 12h-56m-544 0v24.5M613 311v29"
        class="stroke-theme-secondary-200 dark:stroke-theme-dark-800" stroke-width="2" />
    <path
        d="M69 283.375v54.375a10.874 10.874 0 0 0 10.88 10.875 10.874 10.874 0 0 0 10.88-10.875v-54.375a10.874 10.874 0 0 1 10.88-10.875c2.886 0 5.653 1.146 7.693 3.185a10.872 10.872 0 0 1 3.187 7.69v108.75c0 2.884 1.146 5.65 3.187 7.69a10.882 10.882 0 0 0 18.573-7.69V316c0-2.884 1.146-5.65 3.187-7.69A10.882 10.882 0 0 1 156.04 316v43.5c0 2.884 1.146 5.65 3.187 7.69a10.882 10.882 0 0 0 18.573-7.69v-76.125c0-2.884 1.146-5.65 3.187-7.69a10.882 10.882 0 0 1 18.573 7.69V316c0 2.884 1.146 5.65 3.187 7.69A10.882 10.882 0 0 0 221.32 316v-54.375c0-2.884 1.146-5.65 3.187-7.69a10.882 10.882 0 0 1 18.573 7.69v87c0 2.884 1.146 5.65 3.187 7.69a10.882 10.882 0 0 0 18.573-7.69V294.25c0-2.884 1.146-5.65 3.187-7.69a10.882 10.882 0 0 1 18.573 7.69v65.25c0 2.884 1.146 5.65 3.187 7.69a10.882 10.882 0 0 0 18.573-7.69v-76.125c0-2.884 1.146-5.65 3.187-7.69a10.882 10.882 0 0 1 18.573 7.69v21.75c0 2.884 1.146 5.65 3.187 7.69a10.882 10.882 0 0 0 18.573-7.69V250.75c0-2.884 1.146-5.65 3.187-7.69a10.882 10.882 0 0 1 18.573 7.69V316c0 2.884 1.146 5.65 3.187 7.69A10.882 10.882 0 0 0 395.4 316v-32.625c0-2.884 1.146-5.65 3.187-7.69a10.882 10.882 0 0 1 18.573 7.69v108.75c0 2.884 1.146 5.65 3.187 7.69a10.882 10.882 0 0 0 18.573-7.69V272.5c0-2.884 1.146-5.65 3.187-7.69a10.882 10.882 0 0 1 18.573 7.69v97.875c0 2.884 1.146 5.65 3.187 7.69a10.882 10.882 0 0 0 18.573-7.69v-65.25c0-2.884 1.146-5.65 3.187-7.69a10.882 10.882 0 0 1 18.573 7.69V359.5c0 2.884 1.146 5.65 3.187 7.69a10.882 10.882 0 0 0 18.573-7.69V250.75c0-2.884 1.146-5.65 3.187-7.69a10.882 10.882 0 0 1 18.573 7.69V316c0 2.884 1.146 5.65 3.187 7.69A10.882 10.882 0 0 0 569.48 316v-43.5c0-2.884 1.146-5.65 3.187-7.69a10.882 10.882 0 0 1 18.573 7.69v87c0 2.884 1.146 5.65 3.187 7.69A10.882 10.882 0 0 0 613 359.5V229"
        class="stroke-theme-secondary-200 dark:stroke-theme-dark-500" stroke-width="2" stroke-linecap="round" />
    <path
        d="M482.44 330.375v-25.25c0-2.884 1.146-5.65 3.187-7.69a10.884 10.884 0 0 1 15.386 0 10.872 10.872 0 0 1 3.187 7.69V359.5c0 2.884 1.146 5.65 3.187 7.69a10.882 10.882 0 0 0 18.573-7.69V250.75c0-2.884 1.146-5.65 3.187-7.69a10.884 10.884 0 0 1 15.386 0 10.872 10.872 0 0 1 3.187 7.69V316c0 2.884 1.146 5.65 3.187 7.69a10.884 10.884 0 0 0 15.386 0 10.872 10.872 0 0 0 3.187-7.69v-43.5c0-2.884 1.146-5.65 3.187-7.69a10.882 10.882 0 0 1 18.573 7.69v87c0 2.884 1.146 5.65 3.187 7.69a10.884 10.884 0 0 0 15.386 0A10.872 10.872 0 0 0 613 359.5V175h68l-.5-68H613V39H432M308.36 313.375V359.5c0 2.884-1.146 5.65-3.187 7.69a10.882 10.882 0 0 1-18.573-7.69v-65.25c0-2.884-1.146-5.65-3.187-7.69a10.882 10.882 0 0 0-18.573 7.69v54.375c0 2.884-1.146 5.65-3.187 7.69a10.882 10.882 0 0 1-18.573-7.69v-87c0-2.884-1.146-5.65-3.187-7.69a10.882 10.882 0 0 0-18.573 7.69V316c0 2.884-1.146 5.65-3.187 7.69A10.882 10.882 0 0 1 199.56 316v-32.625c0-2.884-1.146-5.65-3.187-7.69a10.882 10.882 0 0 0-18.573 7.69V359.5c0 2.884-1.146 5.65-3.187 7.69a10.882 10.882 0 0 1-18.573-7.69V316c0-2.884-1.146-5.65-3.187-7.69A10.882 10.882 0 0 0 134.28 316v76.125c0 2.884-1.146 5.65-3.187 7.69a10.882 10.882 0 0 1-18.573-7.69v-108.75c0-2.884-1.146-5.65-3.187-7.69a10.882 10.882 0 0 0-18.573 7.69v54.375a10.874 10.874 0 0 1-10.88 10.875A10.874 10.874 0 0 1 69 337.75V243H1v-68h68V38.5"
        class="stroke-theme-primary-600 dark:stroke-theme-primary-400" stroke-width="2" stroke-linecap="round" />
    <g clip-path="url(#clip0_19702_89663)">
        <path
            d="M69.908 177.691c-.41 4.922-7.192 32.554-40.763 72.54L5 251v-40.243c1.37-2.136 26.56-34.199 32.107-39.986 15.232-15.892 19.445-8.459 25.61-4.87 6.164 3.588 7.705 5.639 7.191 11.79Z"
            class="fill-white dark:fill-theme-dark-900" />
        <path d="m10.294 246.688 14.07 8.84 2.048-1.91 3.264-3.58-14.462-9.099-4.92 5.749Z" class="fill-theme-secondary-200 dark:fill-theme-dark-800" />
        <path d="m24.435 255.513-13.54-8.804m19.87-24.692 14.188 8.953m-29.156 10.321 13.768 8.837" class="stroke-theme-primary-600 dark:stroke-theme-primary-400"
            stroke-width="2" stroke-linecap="round" />
        <path
            d="M51.285 169.996a2.184 2.184 0 0 0-.886-.104c-5.39.363-19.387 15.8-30.668 32.238m31.554-32.134c-.03-2.071-.753-3.214-2.323-3.108-3.263.22-9.586 5.798-16.606 13.798m18.929-10.69c.1 6.754-7.151 23.381-16.374 38.82C23.532 227.864 6.855 248.418-.6 251.035m0 0a4.685 4.685 0 0 1-1.225.272c-3.328.224-3.225-4.9-.796-12.593m2.02 12.321c-1.397-1.745-.703-6.583 1.48-12.997"
            class="stroke-theme-primary-900 dark:stroke-theme-primary-500" stroke-width="2" stroke-linecap="round" />
        <path
            d="M-5.36 257.03c3.01 2.064 9.495 6.45 11.353 7.482 2.322 1.29 4.128 3.096 8.772 0 21.932-15.997 53.151-63.471 55.99-88.499.257-3.096-.775-5.418-3.097-6.966-1.935-1.29-8.772-6.106-12.127-8.256"
            class="stroke-theme-primary-600 dark:stroke-theme-primary-400" stroke-width="2" stroke-linecap="round" />
        <path
            d="M-6.135 241.291c-1.978 4.73-4.232 14.449.516 15.48 14.966 3.254 69.15-77.403 61.407-95.465-2.592-6.046-21.93 9.805-36.638 31.478"
            class="stroke-theme-primary-600 dark:stroke-theme-primary-400" stroke-width="2" stroke-linecap="round" />
    </g>
    <path
        d="M208.073 182.863a63.62 63.62 0 0 1-3.641-65.4 63.628 63.628 0 0 1 88.801-25.023 63.625 63.625 0 0 1 20.436 89.967"
        class="stroke-theme-primary-900 dark:stroke-theme-primary-500" stroke-width="2" stroke-linecap="round" />
    <path d="M218.148 181.958a54.958 54.958 0 0 1 12.82-81.738 54.955 54.955 0 0 1 71.111 82.173" class="stroke-theme-primary-900 dark:stroke-theme-primary-500"
        stroke-width="2" stroke-linecap="round" stroke-dasharray="5 4" />
    <path
        d="M230.789 182.396a46.276 46.276 0 0 1 30.008-81.656 46.278 46.278 0 0 1 43.375 30.661 46.277 46.277 0 0 1-14.024 51.233"
        class="stroke-theme-primary-900 dark:stroke-theme-primary-500" stroke-width="2" stroke-linecap="round" />
    <path
        d="M260.715 165.996c10.664 0 19.309-8.644 19.309-19.308s-8.645-19.309-19.309-19.309c-10.664 0-19.308 8.645-19.308 19.309 0 10.664 8.644 19.308 19.308 19.308Z"
        class="stroke-theme-primary-900 fill-theme-secondary-100 dark:stroke-theme-primary-500 dark:fill-theme-dark-800" stroke-width="2" stroke-linecap="round" />
    <path
        d="M257.245 83.371V78.87a3.468 3.468 0 0 1 4.8-3.207 3.466 3.466 0 0 1 1.878 1.879c.174.42.264.872.264 1.328v4.56m61.287 61.371h4.592a3.471 3.471 0 0 1 0 6.942h-4.643m-130.05 0h-5.482a3.47 3.47 0 0 1-2.454-5.925 3.47 3.47 0 0 1 2.454-1.017h5.694l-.212 6.942Zm108.541-52.395 3.189-3.189a3.475 3.475 0 0 1 2.467-1.063 3.472 3.472 0 0 1 2.44 5.971l-3.224 3.224m-96.912-.29-3.807-3.807a3.47 3.47 0 0 1 4.907-4.908l3.954 3.954m67.449-11.768 1.854-4.089a3.454 3.454 0 0 1 4.579-1.715 3.46 3.46 0 0 1 1.716 4.58l-1.882 4.135m30.396 81.013 4.089 1.854a3.46 3.46 0 0 1-1.551 6.604c-.454-.016-.9-.12-1.313-.309l-4.136-1.881M200.607 123.28l-4.883-2.222a3.457 3.457 0 0 1 1.551-6.603c.454.015.9.12 1.314.308l5.07 2.307-3.052 6.21Zm119.504-2.066 4.207-1.576a3.46 3.46 0 0 1 4.451 2.026 3.456 3.456 0 0 1-2.025 4.451l-4.255 1.589M201.63 172.35l-5.025 1.882a3.47 3.47 0 0 1-1.331.218 3.472 3.472 0 0 1-2.409-1.096 3.456 3.456 0 0 1 1.314-5.599l5.218-1.954 2.233 6.549ZM233.861 88l-1.882-5.023a3.468 3.468 0 0 1 .879-3.74 3.458 3.458 0 0 1 5.598 1.314l1.954 5.217M168 183.488h144.907c7.732 0 14 6.268 14 14v1.012m141.044 7.382a63.632 63.632 0 0 0 3.641-65.401 63.636 63.636 0 0 0-56.012-33.958 63.632 63.632 0 0 0-56.302 33.474 63.624 63.624 0 0 0 3.076 65.429"
        class="stroke-theme-primary-900 dark:stroke-theme-primary-500" stroke-width="2" stroke-linecap="round" />
    <path
        d="M457.878 204.976a54.952 54.952 0 0 0-12.82-81.737 54.959 54.959 0 0 0-83.756 54.082 54.954 54.954 0 0 0 12.645 28.091"
        class="stroke-theme-primary-900 dark:stroke-theme-primary-500" stroke-width="2" stroke-linecap="round" stroke-dasharray="5 4" />
    <path d="M445.238 205.415a46.28 46.28 0 0 0 13.612-51.344 46.273 46.273 0 1 0-72.97 51.582" class="stroke-theme-primary-900 dark:stroke-theme-primary-500"
        stroke-width="2" stroke-linecap="round" />
    <path
        d="M415.313 189.015c10.664 0 19.309-8.645 19.309-19.308 0-10.664-8.645-19.309-19.309-19.309-10.664 0-19.308 8.645-19.308 19.309 0 10.663 8.644 19.308 19.308 19.308Z"
        class="stroke-theme-primary-900 fill-theme-secondary-100 dark:stroke-theme-primary-500 dark:fill-theme-dark-800" stroke-width="2" stroke-linecap="round" />
    <path
        d="M418.78 106.39v-4.502a3.473 3.473 0 0 0-3.471-3.471 3.471 3.471 0 0 0-3.471 3.471v4.56m-61.429 61.372h-4.503a3.471 3.471 0 0 0 0 6.942h4.561m129.407 0h5.385a3.471 3.471 0 0 0 0-6.942h-5.591l.206 6.942Zm-107.763-52.394-3.189-3.189a3.47 3.47 0 0 0-4.907 4.908l3.224 3.224m96.912-.292 3.807-3.807a3.468 3.468 0 0 0-.045-4.862 3.47 3.47 0 0 0-4.862-.045l-3.954 3.954m-67.446-11.768-1.853-4.089a3.459 3.459 0 0 0-6.296 2.864l1.882 4.136m-30.393 81.013-4.089 1.854a3.453 3.453 0 0 0-2.024 3.266 3.453 3.453 0 0 0 2.243 3.12 3.468 3.468 0 0 0 2.645-.091l4.136-1.882m117.521-54.383 4.883-2.222a3.465 3.465 0 0 0 1.807-1.934 3.459 3.459 0 0 0-4.671-4.361l-5.071 2.307 3.052 6.21Zm-119.505-2.066-4.208-1.576a3.456 3.456 0 0 0-4.451 2.025 3.458 3.458 0 0 0 2.025 4.452l4.255 1.589m120.858 44.646 5.024 1.882a3.459 3.459 0 0 0 2.426-6.477l-5.216-1.955-2.234 6.55Zm-28.847-82.658 1.882-5.024a3.462 3.462 0 0 0-2.025-4.452 3.462 3.462 0 0 0-4.452 2.026l-1.954 5.217M287.18 206h210.767c9.389 0 17 7.611 17 17v0"
        class="stroke-theme-primary-900 dark:stroke-theme-primary-500" stroke-width="2" stroke-linecap="round" />
    <path
        d="M351.401 101.403c20.612 0 37.321-16.71 37.321-37.322 0-20.612-16.709-37.322-37.321-37.322-20.613 0-37.322 16.71-37.322 37.322 0 20.612 16.709 37.322 37.322 37.322Z"
        class="stroke-theme-primary-600 dark:stroke-theme-primary-400" stroke-width="2" />
    <path
        d="M351.161 96.072c17.803 0 32.236-14.433 32.236-32.236 0-17.803-14.433-32.235-32.236-32.235-17.803 0-32.236 14.432-32.236 32.235 0 17.803 14.433 32.236 32.236 32.236Z"
        class="stroke-theme-primary-600 dark:stroke-theme-primary-500" stroke-width="2" stroke-linecap="round" stroke-dasharray="4 4" />
    <path
        d="M351.335 91.165c14.995 0 27.15-12.155 27.15-27.15 0-14.993-12.155-27.148-27.15-27.148-14.994 0-27.149 12.155-27.149 27.149 0 14.994 12.155 27.15 27.149 27.15Z" class="fill-theme-primary-100 stroke-theme-primary-600 dark:fill-theme-dark-900 dark:stroke-theme-primary-400"
        stroke-width="2" />
    <path
        d="M351.404 75.153c6.256 0 11.328-5.071 11.328-11.327s-5.072-11.327-11.328-11.327c-6.256 0-11.327 5.071-11.327 11.327s5.071 11.327 11.327 11.327Zm-2.037-48.469v-2.648A2.039 2.039 0 0 1 351.403 22a2.037 2.037 0 0 1 2.036 2.036v2.675m0 74.927v3.159a2.035 2.035 0 0 1-4.072 0v-3.281l4.072.122Zm36.034-38.918h2.648a2.037 2.037 0 0 1 0 4.072h-2.675m-74.926 0h-3.159a2.037 2.037 0 0 1 0-4.072h3.28l-.121 4.072Zm54.027-36.238 1.324-2.29a2.043 2.043 0 0 1 2.029-1.001 2.031 2.031 0 0 1 1.701 1.49 2.038 2.038 0 0 1-.203 1.546l-1.338 2.316M334.598 97.5l-1.58 2.736a2.034 2.034 0 1 1-3.526-2.035l1.639-2.84 3.467 2.14Zm50.668-15.688 2.291 1.325a2.036 2.036 0 1 1-2.035 3.526l-2.318-1.337m-64.886-37.463-2.735-1.58a2.036 2.036 0 1 1 2.036-3.526l2.841 1.64-2.142 3.466Zm64.808-4.31 2.291-1.324a2.036 2.036 0 1 1 2.035 3.526l-2.317 1.338m-64.887 37.465-2.733 1.578a2.037 2.037 0 0 1-2.035-3.526l2.84-1.64 1.928 3.588Zm51.717 11.75 1.324 2.291c.134.232.221.487.255.752a2.027 2.027 0 0 1-1 2.028 2.038 2.038 0 0 1-2.781-.744l-1.338-2.317m-37.462-64.885-1.58-2.736a2.035 2.035 0 0 1 2.291-2.984c.521.14.966.481 1.236.949l1.639 2.84-3.586 1.93Z"
        class="stroke-theme-primary-600 dark:stroke-theme-primary-400" stroke-width="2" />
    <rect x="58" y="29" width="20" height="20" rx="10" class="stroke-theme-primary-600 fill-white dark:stroke-theme-primary-400 dark:fill-theme-dark-900" stroke-width="2" />
    <rect x="417" y="29" width="20" height="20" rx="10" class="stroke-theme-primary-600 fill-white dark:stroke-theme-primary-400 dark:fill-theme-dark-900" stroke-width="2" />
    <rect x="477" y="330" width="10" height="10" rx="5" class="stroke-theme-primary-600 fill-white dark:stroke-theme-primary-400 dark:fill-theme-dark-900" stroke-width="2" />
    <rect x="303" y="306" width="10" height="10" rx="5" class="stroke-theme-primary-600 fill-white dark:stroke-theme-primary-400 dark:fill-theme-dark-900" stroke-width="2" />
    <g clip-path="url(#clip1_19702_89663)">
        <path
            d="m644.142 182.226 28.029 7.51a4 4 0 0 0 4.312-1.57l17.638-25.198a4 4 0 0 0-.015-4.608l-16.971-23.921a3.999 3.999 0 0 0-2.227-1.549l-27.806-7.451a3.999 3.999 0 0 0-4.296 1.547l-17.756 24.993a4 4 0 0 0-.015 4.612l16.867 24.067a4.004 4.004 0 0 0 2.24 1.568Z"
            class="fill-white dark:fill-theme-dark-900"  />
        <path
            d="m664.986 152.646 27.924 7.482a2 2 0 0 1 1.116 3.086l-18.42 26.088a2 2 0 0 1-2.151.778l-27.925-7.482a2 2 0 0 1-1.116-3.086l18.42-26.088a2.001 2.001 0 0 1 2.152-.778Z"
            class="fill-theme-primary-600 dark:fill-theme-primary-400" />
        <path
            d="m644.142 182.226 28.029 7.51a4 4 0 0 0 4.312-1.57l17.638-25.198a4 4 0 0 0-.015-4.608l-16.971-23.921a3.999 3.999 0 0 0-2.227-1.549l-27.806-7.451a3.999 3.999 0 0 0-4.296 1.547l-17.756 24.993a4 4 0 0 0-.015 4.612l16.867 24.067a4.004 4.004 0 0 0 2.24 1.568Zm-1.405-.377 20.924-29.785m31.821 8.526-31.821-8.526m0 0-19.068-27.093"
            class="stroke-theme-primary-600 dark:stroke-theme-primary-400" stroke-width="2" />
    </g>
    <defs>
        <clipPath id="clip0_19702_89663">
            <rect width="134" height="181" fill="white" transform="matrix(-1 0 0 1 136 61)" />
        </clipPath>
        <clipPath id="clip1_19702_89663">
            <rect width="76" height="67" fill="white" transform="translate(604 107)" />
        </clipPath>
    </defs>
</svg>
