<svg version="1.0" xmlns="http://www.w3.org/2000/svg" width="933.333" height="933.333" viewBox="0 0 700 700"><path d="M341 16.6c-16.3 2.4-26.9 5.3-37 10.4-7.5 3.8-204.1 117.3-211 121.9-7.3 4.8-19.1 16.1-25.1 23.9-5.7 7.5-12.9 21.3-15.7 30.2C47 219.1 47 218.1 47 350c0 108.2.2 123.8 1.6 132.1 2.8 16.1 10.2 33.3 19.8 45.7C74 535.2 86 546.5 93 551.1c7 4.6 203.6 118.2 211 121.9 27.4 13.7 61.8 14.1 89.5 1.1 11.5-5.4 208.7-119.4 216.6-125.2 21.7-16 36.7-40.2 41.3-66.8 1.4-8.4 1.6-23.7 1.6-132.1 0-108.4-.2-123.7-1.6-132.1-2.5-14.5-8-28.3-16.3-40.9-4.9-7.5-17-20-25-25.9-7.9-5.8-205.1-119.8-216.6-125.2-15.4-7.2-38.3-11.3-52.5-9.3zm44 214.2c23.3 5.6 40.7 15 55.4 29.8 16.1 16.2 26.9 39.5 30.6 66 1.8 13 1.3 38.2-.9 51.4-4.6 26.6-15.4 47.6-33.1 64.3-16 15.1-34.1 23.5-60.5 28.4-10.4 1.9-142.6 3.2-148.5 1.4-4.6-1.4-6.7-5.1-5-9 .7-1.4 9.6-9.6 19.8-18.1l18.7-15.5 12.5-.7c6.9-.3 28.7-.6 48.5-.7 19.8-.1 38.9-.6 42.5-1.1 32.3-5.1 49.6-24.3 54-60 2-17 .6-38-3.6-52-6.2-20.8-20.8-34.8-42.4-40.5-7-1.8-38-3.3-44.4-2.1-4.6.9-9.4 5-11.7 10.1-1.6 3.5-1.9 6.8-1.9 24.7 0 25.6-.3 25.2 15 26 3.6.3 4.7.8 5.9 2.9 2.9 5.2 1.6 6.5-29.6 31.4-16.3 13.1-30.9 24.3-32.3 24.8-3.7 1.4-7.7.2-9.7-3-1.7-2.5-1.8-7.3-1.8-67.8 0-59.7.1-65.4 1.8-70 2.4-6.7 7.6-13.6 13.2-17.5 8.8-6.1 7.9-6 55.5-5.6 39.9.3 44.2.5 52 2.4z"/></svg>