<svg width="1376" height="104" viewBox="0 0 1376 104" fill="none" xmlns="http://www.w3.org/2000/svg"><g clip-path="url(#clip0_22053_66326)"><g filter="url(#filter0_b_22053_66326)"><path d="M0 0h1376v200H0V0Z" fill="#F8F8FF"/></g><mask id="path-2-inside-1_22053_66326" fill="white"><path d="M1379.75-38.086a9.707 9.707 0 0 1 9.72 0l18.35 10.604a9.731 9.731 0 0 1 4.86 8.43V2.155a9.731 9.731 0 0 1-4.86 8.43l-18.35 10.603a9.708 9.708 0 0 1-9.72 0l-18.35-10.603a9.752 9.752 0 0 1-4.86-8.43v-21.207a9.752 9.752 0 0 1 4.86-8.43l18.35-10.604Zm67.34 0a9.707 9.707 0 0 1 9.72 0l18.34 10.604a9.74 9.74 0 0 1 4.87 8.43V2.155a9.74 9.74 0 0 1-4.87 8.43l-18.34 10.603a9.708 9.708 0 0 1-9.72 0l-18.35-10.603a9.731 9.731 0 0 1-4.86-8.43v-21.207a9.731 9.731 0 0 1 4.86-8.43l18.35-10.604Zm-33.67 61.611a9.708 9.708 0 0 1 9.72 0l18.35 10.603a9.752 9.752 0 0 1 4.86 8.43v21.207a9.752 9.752 0 0 1-4.86 8.43l-18.35 10.603a9.708 9.708 0 0 1-9.72 0l-18.35-10.603a9.731 9.731 0 0 1-4.86-8.43V42.558a9.731 9.731 0 0 1 4.86-8.43l18.35-10.603Zm-33.67 61.61a9.708 9.708 0 0 1 9.72 0l18.35 10.603a9.73 9.73 0 0 1 4.86 8.43v21.207a9.731 9.731 0 0 1-4.86 8.43l-18.35 10.603a9.707 9.707 0 0 1-9.72 0l-18.35-10.603a9.752 9.752 0 0 1-4.86-8.43v-21.207a9.752 9.752 0 0 1 4.86-8.43l18.35-10.603Zm67.34 0a9.708 9.708 0 0 1 9.72 0l18.34 10.603a9.74 9.74 0 0 1 4.87 8.43v21.207a9.74 9.74 0 0 1-4.87 8.43l-18.34 10.603a9.707 9.707 0 0 1-9.72 0l-18.35-10.603a9.731 9.731 0 0 1-4.86-8.43v-21.207a9.73 9.73 0 0 1 4.86-8.43l18.35-10.603Zm-33.67 61.61a9.707 9.707 0 0 1 9.72 0l18.35 10.603a9.753 9.753 0 0 1 4.86 8.43v21.207a9.752 9.752 0 0 1-4.86 8.43l-18.35 10.603a9.707 9.707 0 0 1-9.72 0l-18.35-10.603a9.731 9.731 0 0 1-4.86-8.43v-21.207a9.732 9.732 0 0 1 4.86-8.43l18.35-10.603ZM35.749-38.086a9.713 9.713 0 0 1 9.723 0l18.345 10.604a9.736 9.736 0 0 1 4.862 8.43V2.155a9.736 9.736 0 0 1-4.862 8.43L45.472 21.188a9.714 9.714 0 0 1-9.723 0L17.404 10.585a9.736 9.736 0 0 1-4.862-8.43v-21.207a9.736 9.736 0 0 1 4.862-8.43l18.345-10.604Zm67.338 0a9.713 9.713 0 0 1 9.723 0l18.345 10.604a9.736 9.736 0 0 1 4.861 8.43V2.155a9.736 9.736 0 0 1-4.861 8.43L112.81 21.188a9.714 9.714 0 0 1-9.723 0L84.741 10.585a9.736 9.736 0 0 1-4.861-8.43v-21.207a9.736 9.736 0 0 1 4.862-8.43l18.345-10.604Zm67.147 0a9.713 9.713 0 0 1 9.723 0l18.346 10.604a9.736 9.736 0 0 1 4.861 8.43V2.155a9.736 9.736 0 0 1-4.861 8.43l-18.346 10.603a9.714 9.714 0 0 1-9.723 0l-18.345-10.603a9.736 9.736 0 0 1-4.861-8.43v-21.207a9.736 9.736 0 0 1 4.861-8.43l18.345-10.604Zm67.211 0a9.713 9.713 0 0 1 9.723 0l18.346 10.604a9.736 9.736 0 0 1 4.861 8.43V2.155a9.736 9.736 0 0 1-4.861 8.43l-18.346 10.603a9.714 9.714 0 0 1-9.723 0L219.1 10.585a9.736 9.736 0 0 1-4.861-8.43v-21.207a9.736 9.736 0 0 1 4.861-8.43l18.345-10.604Zm67.211 0a9.713 9.713 0 0 1 9.723 0l18.346 10.604a9.736 9.736 0 0 1 4.861 8.43V2.155a9.736 9.736 0 0 1-4.861 8.43l-18.346 10.603a9.714 9.714 0 0 1-9.723 0l-18.345-10.603a9.736 9.736 0 0 1-4.861-8.43v-21.207a9.736 9.736 0 0 1 4.861-8.43l18.345-10.604Zm67.148 0a9.713 9.713 0 0 1 9.723 0l18.345 10.604a9.735 9.735 0 0 1 4.862 8.43V2.155a9.735 9.735 0 0 1-4.862 8.43l-18.345 10.603a9.714 9.714 0 0 1-9.723 0l-18.345-10.603a9.735 9.735 0 0 1-4.862-8.43v-21.207a9.735 9.735 0 0 1 4.862-8.43l18.345-10.604Zm67.211 0a9.713 9.713 0 0 1 9.723 0l18.345 10.604a9.735 9.735 0 0 1 4.862 8.43V2.155a9.735 9.735 0 0 1-4.862 8.43l-18.345 10.603a9.714 9.714 0 0 1-9.723 0L420.67 10.585a9.737 9.737 0 0 1-4.862-8.43v-21.207a9.737 9.737 0 0 1 4.862-8.43l18.345-10.604ZM2.207 23.525a9.714 9.714 0 0 1 9.723 0l18.345 10.603a9.736 9.736 0 0 1 4.861 8.43v21.207a9.736 9.736 0 0 1-4.861 8.43L11.93 82.798a9.714 9.714 0 0 1-9.723 0L-16.14 72.195a9.736 9.736 0 0 1-4.86-8.43V42.558a9.736 9.736 0 0 1 4.861-8.43L2.207 23.525Zm67.211 0a9.714 9.714 0 0 1 9.723 0l18.345 10.603a9.737 9.737 0 0 1 4.862 8.43v21.207a9.737 9.737 0 0 1-4.862 8.43L79.141 82.798a9.714 9.714 0 0 1-9.723 0L51.073 72.195a9.736 9.736 0 0 1-4.862-8.43V42.558a9.736 9.736 0 0 1 4.862-8.43l18.345-10.603Zm67.338 0a9.714 9.714 0 0 1 9.723 0l18.345 10.603a9.736 9.736 0 0 1 4.861 8.43v21.207a9.736 9.736 0 0 1-4.861 8.43l-18.345 10.603a9.714 9.714 0 0 1-9.723 0l-18.345-10.603a9.735 9.735 0 0 1-4.862-8.43V42.558a9.735 9.735 0 0 1 4.862-8.43l18.345-10.603Zm67.147 0a9.714 9.714 0 0 1 9.723 0l18.345 10.603a9.735 9.735 0 0 1 4.862 8.43v21.207a9.735 9.735 0 0 1-4.862 8.43l-18.345 10.603a9.714 9.714 0 0 1-9.723 0l-18.345-10.603a9.736 9.736 0 0 1-4.861-8.43V42.558a9.736 9.736 0 0 1 4.861-8.43l18.345-10.603Zm67.211 0a9.714 9.714 0 0 1 9.723 0l18.345 10.603a9.735 9.735 0 0 1 4.862 8.43v21.207a9.735 9.735 0 0 1-4.862 8.43l-18.345 10.603a9.714 9.714 0 0 1-9.723 0l-18.345-10.603a9.736 9.736 0 0 1-4.861-8.43V42.558a9.736 9.736 0 0 1 4.861-8.43l18.345-10.603Zm67.211 0a9.714 9.714 0 0 1 9.723 0l18.346 10.603a9.736 9.736 0 0 1 4.861 8.43v21.207a9.736 9.736 0 0 1-4.861 8.43l-18.346 10.603a9.714 9.714 0 0 1-9.723 0L319.98 72.195a9.736 9.736 0 0 1-4.861-8.43V42.558a9.736 9.736 0 0 1 4.861-8.43l18.345-10.603Zm67.148 0a9.714 9.714 0 0 1 9.723 0l18.345 10.603a9.737 9.737 0 0 1 4.862 8.43v21.207a9.737 9.737 0 0 1-4.862 8.43l-18.345 10.603a9.714 9.714 0 0 1-9.723 0l-18.345-10.603a9.735 9.735 0 0 1-4.862-8.43V42.558a9.735 9.735 0 0 1 4.862-8.43l18.345-10.603Zm67.211 0a9.714 9.714 0 0 1 9.723 0l18.345 10.603a9.735 9.735 0 0 1 4.862 8.43v21.207a9.735 9.735 0 0 1-4.862 8.43l-18.345 10.603a9.714 9.714 0 0 1-9.723 0l-18.345-10.603a9.735 9.735 0 0 1-4.862-8.43V42.558a9.735 9.735 0 0 1 4.862-8.43l18.345-10.603ZM35.749 85.135a9.714 9.714 0 0 1 9.723 0l18.345 10.603a9.736 9.736 0 0 1 4.862 8.43v21.207a9.736 9.736 0 0 1-4.862 8.43l-18.345 10.603a9.713 9.713 0 0 1-9.723 0l-18.345-10.603a9.736 9.736 0 0 1-4.862-8.43v-21.207a9.736 9.736 0 0 1 4.862-8.43l18.345-10.603Zm67.338 0a9.714 9.714 0 0 1 9.723 0l18.345 10.603a9.736 9.736 0 0 1 4.861 8.43v21.207a9.736 9.736 0 0 1-4.861 8.43l-18.345 10.603a9.713 9.713 0 0 1-9.723 0l-18.346-10.603a9.736 9.736 0 0 1-4.861-8.43v-21.207a9.736 9.736 0 0 1 4.862-8.43l18.345-10.603Zm67.147 0a9.714 9.714 0 0 1 9.723 0l18.346 10.603a9.736 9.736 0 0 1 4.861 8.43v21.207a9.736 9.736 0 0 1-4.861 8.43l-18.346 10.603a9.713 9.713 0 0 1-9.723 0l-18.345-10.603a9.736 9.736 0 0 1-4.861-8.43v-21.207a9.736 9.736 0 0 1 4.861-8.43l18.345-10.603Zm67.211 0a9.714 9.714 0 0 1 9.723 0l18.346 10.603a9.736 9.736 0 0 1 4.861 8.43v21.207a9.736 9.736 0 0 1-4.861 8.43l-18.346 10.603a9.713 9.713 0 0 1-9.723 0L219.1 133.805a9.736 9.736 0 0 1-4.861-8.43v-21.207a9.736 9.736 0 0 1 4.861-8.43l18.345-10.603Zm67.211 0a9.714 9.714 0 0 1 9.723 0l18.346 10.603a9.736 9.736 0 0 1 4.861 8.43v21.207a9.736 9.736 0 0 1-4.861 8.43l-18.346 10.603a9.713 9.713 0 0 1-9.723 0l-18.345-10.603a9.736 9.736 0 0 1-4.861-8.43v-21.207a9.736 9.736 0 0 1 4.861-8.43l18.345-10.603Zm67.148 0a9.714 9.714 0 0 1 9.723 0l18.345 10.603a9.735 9.735 0 0 1 4.862 8.43v21.207a9.735 9.735 0 0 1-4.862 8.43l-18.345 10.603a9.713 9.713 0 0 1-9.723 0l-18.345-10.603a9.735 9.735 0 0 1-4.862-8.43v-21.207a9.735 9.735 0 0 1 4.862-8.43l18.345-10.603Zm67.211 0a9.714 9.714 0 0 1 9.723 0l18.345 10.603a9.735 9.735 0 0 1 4.862 8.43v21.207a9.735 9.735 0 0 1-4.862 8.43l-18.345 10.603a9.713 9.713 0 0 1-9.723 0l-18.345-10.603a9.737 9.737 0 0 1-4.862-8.43v-21.207a9.737 9.737 0 0 1 4.862-8.43l18.345-10.603ZM2.207 146.745a9.713 9.713 0 0 1 9.723 0l18.345 10.603a9.737 9.737 0 0 1 4.861 8.43v21.207a9.736 9.736 0 0 1-4.861 8.43L11.93 206.018a9.713 9.713 0 0 1-9.723 0l-18.346-10.603a9.736 9.736 0 0 1-4.861-8.43v-21.207a9.737 9.737 0 0 1 4.861-8.43l18.346-10.603Zm67.211 0a9.713 9.713 0 0 1 9.723 0l18.345 10.603a9.738 9.738 0 0 1 4.862 8.43v21.207a9.737 9.737 0 0 1-4.862 8.43l-18.345 10.603a9.713 9.713 0 0 1-9.723 0l-18.345-10.603a9.736 9.736 0 0 1-4.862-8.43v-21.207a9.737 9.737 0 0 1 4.862-8.43l18.345-10.603Zm67.338 0a9.713 9.713 0 0 1 9.723 0l18.345 10.603a9.737 9.737 0 0 1 4.861 8.43v21.207a9.736 9.736 0 0 1-4.861 8.43l-18.345 10.603a9.713 9.713 0 0 1-9.723 0l-18.345-10.603a9.735 9.735 0 0 1-4.862-8.43v-21.207a9.736 9.736 0 0 1 4.862-8.43l18.345-10.603Zm67.147 0a9.713 9.713 0 0 1 9.723 0l18.345 10.603a9.736 9.736 0 0 1 4.862 8.43v21.207a9.735 9.735 0 0 1-4.862 8.43l-18.345 10.603a9.713 9.713 0 0 1-9.723 0l-18.345-10.603a9.736 9.736 0 0 1-4.861-8.43v-21.207a9.737 9.737 0 0 1 4.861-8.43l18.345-10.603Zm67.211 0a9.713 9.713 0 0 1 9.723 0l18.345 10.603a9.736 9.736 0 0 1 4.862 8.43v21.207a9.735 9.735 0 0 1-4.862 8.43l-18.345 10.603a9.713 9.713 0 0 1-9.723 0l-18.345-10.603a9.736 9.736 0 0 1-4.861-8.43v-21.207a9.737 9.737 0 0 1 4.861-8.43l18.345-10.603Zm67.211 0a9.713 9.713 0 0 1 9.723 0l18.346 10.603a9.737 9.737 0 0 1 4.861 8.43v21.207a9.736 9.736 0 0 1-4.861 8.43l-18.346 10.603a9.713 9.713 0 0 1-9.723 0l-18.345-10.603a9.736 9.736 0 0 1-4.861-8.43v-21.207a9.737 9.737 0 0 1 4.861-8.43l18.345-10.603Zm67.148 0a9.713 9.713 0 0 1 9.723 0l18.345 10.603a9.738 9.738 0 0 1 4.862 8.43v21.207a9.737 9.737 0 0 1-4.862 8.43l-18.345 10.603a9.713 9.713 0 0 1-9.723 0l-18.345-10.603a9.735 9.735 0 0 1-4.862-8.43v-21.207a9.736 9.736 0 0 1 4.862-8.43l18.345-10.603Zm67.211 0a9.713 9.713 0 0 1 9.723 0l18.345 10.603a9.736 9.736 0 0 1 4.862 8.43v21.207a9.735 9.735 0 0 1-4.862 8.43l-18.345 10.603a9.713 9.713 0 0 1-9.723 0l-18.345-10.603a9.735 9.735 0 0 1-4.862-8.43v-21.207a9.736 9.736 0 0 1 4.862-8.43l18.345-10.603ZM977.087-38.086a9.713 9.713 0 0 1 9.723 0l18.34 10.604a9.74 9.74 0 0 1 4.87 8.43V2.155a9.74 9.74 0 0 1-4.87 8.43l-18.34 10.603a9.714 9.714 0 0 1-9.723 0l-18.345-10.603a9.735 9.735 0 0 1-4.862-8.43v-21.207a9.735 9.735 0 0 1 4.862-8.43l18.345-10.604Zm67.143 0a9.726 9.726 0 0 1 9.73 0l18.34 10.604a9.731 9.731 0 0 1 4.86 8.43V2.155a9.731 9.731 0 0 1-4.86 8.43l-18.34 10.603a9.727 9.727 0 0 1-9.73 0l-18.34-10.603a9.731 9.731 0 0 1-4.86-8.43v-21.207a9.731 9.731 0 0 1 4.86-8.43l18.34-10.604Zm67.22 0a9.707 9.707 0 0 1 9.72 0l18.34 10.604a9.74 9.74 0 0 1 4.87 8.43V2.155a9.74 9.74 0 0 1-4.87 8.43l-18.34 10.603a9.708 9.708 0 0 1-9.72 0l-18.35-10.603a9.731 9.731 0 0 1-4.86-8.43v-21.207a9.731 9.731 0 0 1 4.86-8.43l18.35-10.604Zm67.21 0a9.707 9.707 0 0 1 9.72 0l18.34 10.604a9.74 9.74 0 0 1 4.87 8.43V2.155a9.74 9.74 0 0 1-4.87 8.43l-18.34 10.603a9.708 9.708 0 0 1-9.72 0l-18.35-10.603a9.731 9.731 0 0 1-4.86-8.43v-21.207a9.731 9.731 0 0 1 4.86-8.43l18.35-10.604Zm67.14 0a9.726 9.726 0 0 1 9.73 0l18.34 10.604a9.731 9.731 0 0 1 4.86 8.43V2.155a9.731 9.731 0 0 1-4.86 8.43l-18.34 10.603a9.727 9.727 0 0 1-9.73 0l-18.34-10.603a9.731 9.731 0 0 1-4.86-8.43v-21.207a9.731 9.731 0 0 1 4.86-8.43l18.34-10.604Zm67.21 0a9.726 9.726 0 0 1 9.73 0l18.34 10.604a9.731 9.731 0 0 1 4.86 8.43V2.155a9.731 9.731 0 0 1-4.86 8.43l-18.34 10.603a9.727 9.727 0 0 1-9.73 0l-18.34-10.603a9.731 9.731 0 0 1-4.86-8.43v-21.207a9.731 9.731 0 0 1 4.86-8.43l18.34-10.604Zm-302.25 61.611a9.708 9.708 0 0 1 9.72 0l18.34 10.603a9.74 9.74 0 0 1 4.87 8.43v21.207a9.74 9.74 0 0 1-4.87 8.43l-18.34 10.603a9.708 9.708 0 0 1-9.72 0l-18.349-10.603a9.735 9.735 0 0 1-4.862-8.43V42.558a9.735 9.735 0 0 1 4.862-8.43l18.349-10.603Zm67.14 0a9.727 9.727 0 0 1 9.73 0l18.34 10.603a9.731 9.731 0 0 1 4.86 8.43v21.207a9.731 9.731 0 0 1-4.86 8.43l-18.34 10.603a9.727 9.727 0 0 1-9.73 0l-18.34-10.603a9.731 9.731 0 0 1-4.86-8.43V42.558a9.731 9.731 0 0 1 4.86-8.43l18.34-10.603Zm67.21 0a9.727 9.727 0 0 1 9.73 0l18.34 10.603a9.731 9.731 0 0 1 4.86 8.43v21.207a9.731 9.731 0 0 1-4.86 8.43l-18.34 10.603a9.727 9.727 0 0 1-9.73 0l-18.34-10.603a9.731 9.731 0 0 1-4.86-8.43V42.558a9.731 9.731 0 0 1 4.86-8.43l18.34-10.603Zm67.22 0a9.708 9.708 0 0 1 9.72 0l18.34 10.603a9.74 9.74 0 0 1 4.87 8.43v21.207a9.74 9.74 0 0 1-4.87 8.43l-18.34 10.603a9.708 9.708 0 0 1-9.72 0l-18.35-10.603a9.731 9.731 0 0 1-4.86-8.43V42.558a9.731 9.731 0 0 1 4.86-8.43l18.35-10.603Zm67.14 0a9.727 9.727 0 0 1 9.73 0l18.34 10.603a9.731 9.731 0 0 1 4.86 8.43v21.207a9.731 9.731 0 0 1-4.86 8.43l-18.34 10.603a9.727 9.727 0 0 1-9.73 0l-18.34-10.603a9.731 9.731 0 0 1-4.86-8.43V42.558a9.731 9.731 0 0 1 4.86-8.43l18.34-10.603Zm67.21 0a9.727 9.727 0 0 1 9.73 0l18.34 10.603a9.731 9.731 0 0 1 4.86 8.43v21.207a9.731 9.731 0 0 1-4.86 8.43l-18.34 10.603a9.727 9.727 0 0 1-9.73 0l-18.34-10.603a9.731 9.731 0 0 1-4.86-8.43V42.558a9.731 9.731 0 0 1 4.86-8.43l18.34-10.603Zm-369.593 61.61a9.714 9.714 0 0 1 9.723 0l18.34 10.603a9.74 9.74 0 0 1 4.87 8.43v21.207a9.74 9.74 0 0 1-4.87 8.43l-18.34 10.603a9.713 9.713 0 0 1-9.723 0l-18.345-10.603a9.735 9.735 0 0 1-4.862-8.43v-21.207a9.735 9.735 0 0 1 4.862-8.43l18.345-10.603Zm67.143 0a9.727 9.727 0 0 1 9.73 0l18.34 10.603a9.73 9.73 0 0 1 4.86 8.43v21.207a9.731 9.731 0 0 1-4.86 8.43l-18.34 10.603a9.726 9.726 0 0 1-9.73 0l-18.34-10.603a9.731 9.731 0 0 1-4.86-8.43v-21.207a9.73 9.73 0 0 1 4.86-8.43l18.34-10.603Zm67.22 0a9.708 9.708 0 0 1 9.72 0l18.34 10.603a9.74 9.74 0 0 1 4.87 8.43v21.207a9.74 9.74 0 0 1-4.87 8.43l-18.34 10.603a9.707 9.707 0 0 1-9.72 0l-18.35-10.603a9.731 9.731 0 0 1-4.86-8.43v-21.207a9.73 9.73 0 0 1 4.86-8.43l18.35-10.603Zm67.21 0a9.708 9.708 0 0 1 9.72 0l18.34 10.603a9.74 9.74 0 0 1 4.87 8.43v21.207a9.74 9.74 0 0 1-4.87 8.43l-18.34 10.603a9.707 9.707 0 0 1-9.72 0l-18.35-10.603a9.731 9.731 0 0 1-4.86-8.43v-21.207a9.73 9.73 0 0 1 4.86-8.43l18.35-10.603Zm67.14 0a9.727 9.727 0 0 1 9.73 0l18.34 10.603a9.73 9.73 0 0 1 4.86 8.43v21.207a9.731 9.731 0 0 1-4.86 8.43l-18.34 10.603a9.726 9.726 0 0 1-9.73 0l-18.34-10.603a9.731 9.731 0 0 1-4.86-8.43v-21.207a9.73 9.73 0 0 1 4.86-8.43l18.34-10.603Zm67.21 0a9.727 9.727 0 0 1 9.73 0l18.34 10.603a9.73 9.73 0 0 1 4.86 8.43v21.207a9.731 9.731 0 0 1-4.86 8.43l-18.34 10.603a9.726 9.726 0 0 1-9.73 0l-18.34-10.603a9.731 9.731 0 0 1-4.86-8.43v-21.207a9.73 9.73 0 0 1 4.86-8.43l18.34-10.603Zm-302.25 61.61a9.707 9.707 0 0 1 9.72 0l18.34 10.603a9.742 9.742 0 0 1 4.87 8.43v21.207a9.74 9.74 0 0 1-4.87 8.43l-18.34 10.603a9.707 9.707 0 0 1-9.72 0l-18.349-10.603a9.735 9.735 0 0 1-4.862-8.43v-21.207a9.736 9.736 0 0 1 4.862-8.43l18.349-10.603Zm67.14 0a9.726 9.726 0 0 1 9.73 0l18.34 10.603a9.732 9.732 0 0 1 4.86 8.43v21.207a9.731 9.731 0 0 1-4.86 8.43l-18.34 10.603a9.726 9.726 0 0 1-9.73 0l-18.34-10.603a9.731 9.731 0 0 1-4.86-8.43v-21.207a9.732 9.732 0 0 1 4.86-8.43l18.34-10.603Zm67.21 0a9.726 9.726 0 0 1 9.73 0l18.34 10.603a9.732 9.732 0 0 1 4.86 8.43v21.207a9.731 9.731 0 0 1-4.86 8.43l-18.34 10.603a9.726 9.726 0 0 1-9.73 0l-18.34-10.603a9.731 9.731 0 0 1-4.86-8.43v-21.207a9.732 9.732 0 0 1 4.86-8.43l18.34-10.603Zm67.22 0a9.707 9.707 0 0 1 9.72 0l18.34 10.603a9.742 9.742 0 0 1 4.87 8.43v21.207a9.74 9.74 0 0 1-4.87 8.43l-18.34 10.603a9.707 9.707 0 0 1-9.72 0l-18.35-10.603a9.731 9.731 0 0 1-4.86-8.43v-21.207a9.732 9.732 0 0 1 4.86-8.43l18.35-10.603Zm67.14 0a9.726 9.726 0 0 1 9.73 0l18.34 10.603a9.732 9.732 0 0 1 4.86 8.43v21.207a9.731 9.731 0 0 1-4.86 8.43l-18.34 10.603a9.726 9.726 0 0 1-9.73 0l-18.34-10.603a9.731 9.731 0 0 1-4.86-8.43v-21.207a9.732 9.732 0 0 1 4.86-8.43l18.34-10.603Zm67.21 0a9.726 9.726 0 0 1 9.73 0l18.34 10.603a9.732 9.732 0 0 1 4.86 8.43v21.207a9.731 9.731 0 0 1-4.86 8.43l-18.34 10.603a9.726 9.726 0 0 1-9.73 0l-18.34-10.603a9.731 9.731 0 0 1-4.86-8.43v-21.207a9.732 9.732 0 0 1 4.86-8.43l18.34-10.603ZM506.749-38.086a9.713 9.713 0 0 1 9.723 0l18.345 10.604a9.737 9.737 0 0 1 4.862 8.43V2.155a9.737 9.737 0 0 1-4.862 8.43l-18.345 10.603a9.714 9.714 0 0 1-9.723 0l-18.345-10.603a9.735 9.735 0 0 1-4.862-8.43v-21.207a9.735 9.735 0 0 1 4.862-8.43l18.345-10.604Zm67.338 0a9.713 9.713 0 0 1 9.723 0l18.345 10.604a9.736 9.736 0 0 1 4.861 8.43V2.155a9.736 9.736 0 0 1-4.861 8.43L583.81 21.188a9.714 9.714 0 0 1-9.723 0l-18.345-10.603a9.735 9.735 0 0 1-4.862-8.43v-21.207a9.735 9.735 0 0 1 4.862-8.43l18.345-10.604Zm67.147 0a9.713 9.713 0 0 1 9.723 0l18.346 10.604a9.736 9.736 0 0 1 4.861 8.43V2.155a9.736 9.736 0 0 1-4.861 8.43l-18.346 10.603a9.714 9.714 0 0 1-9.723 0l-18.345-10.603a9.736 9.736 0 0 1-4.861-8.43v-21.207a9.736 9.736 0 0 1 4.861-8.43l18.345-10.604Zm67.211 0a9.713 9.713 0 0 1 9.723 0l18.346 10.604a9.736 9.736 0 0 1 4.861 8.43V2.155a9.736 9.736 0 0 1-4.861 8.43l-18.346 10.603a9.714 9.714 0 0 1-9.723 0L690.1 10.585a9.736 9.736 0 0 1-4.861-8.43v-21.207a9.736 9.736 0 0 1 4.861-8.43l18.345-10.604Zm67.211 0a9.713 9.713 0 0 1 9.723 0l18.346 10.604a9.736 9.736 0 0 1 4.861 8.43V2.155a9.736 9.736 0 0 1-4.861 8.43l-18.346 10.603a9.714 9.714 0 0 1-9.723 0l-18.345-10.603a9.736 9.736 0 0 1-4.861-8.43v-21.207a9.736 9.736 0 0 1 4.861-8.43l18.345-10.604Zm67.148 0a9.713 9.713 0 0 1 9.723 0l18.345 10.604a9.735 9.735 0 0 1 4.862 8.43V2.155a9.735 9.735 0 0 1-4.862 8.43l-18.345 10.603a9.714 9.714 0 0 1-9.723 0l-18.345-10.603a9.735 9.735 0 0 1-4.862-8.43v-21.207a9.735 9.735 0 0 1 4.862-8.43l18.345-10.604Zm67.211 0a9.713 9.713 0 0 1 9.723 0l18.345 10.604a9.735 9.735 0 0 1 4.862 8.43V2.155a9.735 9.735 0 0 1-4.862 8.43l-18.345 10.603a9.714 9.714 0 0 1-9.723 0L891.67 10.585a9.737 9.737 0 0 1-4.862-8.43v-21.207a9.737 9.737 0 0 1 4.862-8.43l18.345-10.604ZM540.418 23.525a9.714 9.714 0 0 1 9.723 0l18.345 10.603a9.737 9.737 0 0 1 4.862 8.43v21.207a9.737 9.737 0 0 1-4.862 8.43l-18.345 10.603a9.714 9.714 0 0 1-9.723 0l-18.345-10.603a9.735 9.735 0 0 1-4.862-8.43V42.558a9.735 9.735 0 0 1 4.862-8.43l18.345-10.603Zm67.338 0a9.714 9.714 0 0 1 9.723 0l18.345 10.603a9.736 9.736 0 0 1 4.861 8.43v21.207a9.736 9.736 0 0 1-4.861 8.43l-18.345 10.603a9.714 9.714 0 0 1-9.723 0l-18.345-10.603a9.735 9.735 0 0 1-4.862-8.43V42.558a9.735 9.735 0 0 1 4.862-8.43l18.345-10.603Zm67.147 0a9.714 9.714 0 0 1 9.723 0l18.345 10.603a9.735 9.735 0 0 1 4.862 8.43v21.207a9.735 9.735 0 0 1-4.862 8.43l-18.345 10.603a9.714 9.714 0 0 1-9.723 0l-18.345-10.603a9.736 9.736 0 0 1-4.861-8.43V42.558a9.736 9.736 0 0 1 4.861-8.43l18.345-10.603Zm67.211 0a9.714 9.714 0 0 1 9.723 0l18.345 10.603a9.735 9.735 0 0 1 4.862 8.43v21.207a9.735 9.735 0 0 1-4.862 8.43l-18.345 10.603a9.714 9.714 0 0 1-9.723 0l-18.345-10.603a9.736 9.736 0 0 1-4.861-8.43V42.558a9.736 9.736 0 0 1 4.861-8.43l18.345-10.603Zm67.211 0a9.714 9.714 0 0 1 9.723 0l18.346 10.603a9.736 9.736 0 0 1 4.861 8.43v21.207a9.736 9.736 0 0 1-4.861 8.43l-18.346 10.603a9.714 9.714 0 0 1-9.723 0L790.98 72.195a9.736 9.736 0 0 1-4.861-8.43V42.558a9.736 9.736 0 0 1 4.861-8.43l18.345-10.603Zm67.148 0a9.714 9.714 0 0 1 9.723 0l18.345 10.603a9.737 9.737 0 0 1 4.862 8.43v21.207a9.737 9.737 0 0 1-4.862 8.43l-18.345 10.603a9.714 9.714 0 0 1-9.723 0l-18.345-10.603a9.735 9.735 0 0 1-4.862-8.43V42.558a9.735 9.735 0 0 1 4.862-8.43l18.345-10.603Zm67.211 0a9.714 9.714 0 0 1 9.723 0l18.345 10.603a9.735 9.735 0 0 1 4.862 8.43v21.207a9.735 9.735 0 0 1-4.862 8.43l-18.345 10.603a9.714 9.714 0 0 1-9.723 0l-18.345-10.603a9.735 9.735 0 0 1-4.862-8.43V42.558a9.735 9.735 0 0 1 4.862-8.43l18.345-10.603Zm-436.935 61.61a9.714 9.714 0 0 1 9.723 0l18.345 10.603a9.737 9.737 0 0 1 4.862 8.43v21.207a9.737 9.737 0 0 1-4.862 8.43l-18.345 10.603a9.713 9.713 0 0 1-9.723 0l-18.345-10.603a9.735 9.735 0 0 1-4.862-8.43v-21.207a9.735 9.735 0 0 1 4.862-8.43l18.345-10.603Zm67.338 0a9.714 9.714 0 0 1 9.723 0l18.345 10.603a9.736 9.736 0 0 1 4.861 8.43v21.207a9.736 9.736 0 0 1-4.861 8.43l-18.345 10.603a9.713 9.713 0 0 1-9.723 0l-18.345-10.603a9.735 9.735 0 0 1-4.862-8.43v-21.207a9.735 9.735 0 0 1 4.862-8.43l18.345-10.603Zm67.147 0a9.714 9.714 0 0 1 9.723 0l18.346 10.603a9.736 9.736 0 0 1 4.861 8.43v21.207a9.736 9.736 0 0 1-4.861 8.43l-18.346 10.603a9.713 9.713 0 0 1-9.723 0l-18.345-10.603a9.736 9.736 0 0 1-4.861-8.43v-21.207a9.736 9.736 0 0 1 4.861-8.43l18.345-10.603Zm67.211 0a9.714 9.714 0 0 1 9.723 0l18.346 10.603a9.736 9.736 0 0 1 4.861 8.43v21.207a9.736 9.736 0 0 1-4.861 8.43l-18.346 10.603a9.713 9.713 0 0 1-9.723 0L690.1 133.805a9.736 9.736 0 0 1-4.861-8.43v-21.207a9.736 9.736 0 0 1 4.861-8.43l18.345-10.603Zm67.211 0a9.714 9.714 0 0 1 9.723 0l18.346 10.603a9.736 9.736 0 0 1 4.861 8.43v21.207a9.736 9.736 0 0 1-4.861 8.43l-18.346 10.603a9.713 9.713 0 0 1-9.723 0l-18.345-10.603a9.736 9.736 0 0 1-4.861-8.43v-21.207a9.736 9.736 0 0 1 4.861-8.43l18.345-10.603Zm67.148 0a9.714 9.714 0 0 1 9.723 0l18.345 10.603a9.735 9.735 0 0 1 4.862 8.43v21.207a9.735 9.735 0 0 1-4.862 8.43l-18.345 10.603a9.713 9.713 0 0 1-9.723 0l-18.345-10.603a9.735 9.735 0 0 1-4.862-8.43v-21.207a9.735 9.735 0 0 1 4.862-8.43l18.345-10.603Zm67.211 0a9.714 9.714 0 0 1 9.723 0l18.345 10.603a9.735 9.735 0 0 1 4.862 8.43v21.207a9.735 9.735 0 0 1-4.862 8.43l-18.345 10.603a9.713 9.713 0 0 1-9.723 0l-18.345-10.603a9.737 9.737 0 0 1-4.862-8.43v-21.207a9.737 9.737 0 0 1 4.862-8.43l18.345-10.603Zm-369.597 61.61a9.713 9.713 0 0 1 9.723 0l18.345 10.603a9.738 9.738 0 0 1 4.862 8.43v21.207a9.737 9.737 0 0 1-4.862 8.43l-18.345 10.603a9.713 9.713 0 0 1-9.723 0l-18.345-10.603a9.735 9.735 0 0 1-4.862-8.43v-21.207a9.736 9.736 0 0 1 4.862-8.43l18.345-10.603Zm67.338 0a9.713 9.713 0 0 1 9.723 0l18.345 10.603a9.737 9.737 0 0 1 4.861 8.43v21.207a9.736 9.736 0 0 1-4.861 8.43l-18.345 10.603a9.713 9.713 0 0 1-9.723 0l-18.345-10.603a9.735 9.735 0 0 1-4.862-8.43v-21.207a9.736 9.736 0 0 1 4.862-8.43l18.345-10.603Zm67.147 0a9.713 9.713 0 0 1 9.723 0l18.345 10.603a9.736 9.736 0 0 1 4.862 8.43v21.207a9.735 9.735 0 0 1-4.862 8.43l-18.345 10.603a9.713 9.713 0 0 1-9.723 0l-18.345-10.603a9.736 9.736 0 0 1-4.861-8.43v-21.207a9.737 9.737 0 0 1 4.861-8.43l18.345-10.603Zm67.211 0a9.713 9.713 0 0 1 9.723 0l18.345 10.603a9.736 9.736 0 0 1 4.862 8.43v21.207a9.735 9.735 0 0 1-4.862 8.43l-18.345 10.603a9.713 9.713 0 0 1-9.723 0l-18.345-10.603a9.736 9.736 0 0 1-4.861-8.43v-21.207a9.737 9.737 0 0 1 4.861-8.43l18.345-10.603Zm67.211 0a9.713 9.713 0 0 1 9.723 0l18.346 10.603a9.737 9.737 0 0 1 4.861 8.43v21.207a9.736 9.736 0 0 1-4.861 8.43l-18.346 10.603a9.713 9.713 0 0 1-9.723 0l-18.345-10.603a9.736 9.736 0 0 1-4.861-8.43v-21.207a9.737 9.737 0 0 1 4.861-8.43l18.345-10.603Zm67.148 0a9.713 9.713 0 0 1 9.723 0l18.345 10.603a9.738 9.738 0 0 1 4.862 8.43v21.207a9.737 9.737 0 0 1-4.862 8.43l-18.345 10.603a9.713 9.713 0 0 1-9.723 0l-18.345-10.603a9.735 9.735 0 0 1-4.862-8.43v-21.207a9.736 9.736 0 0 1 4.862-8.43l18.345-10.603Zm67.211 0a9.713 9.713 0 0 1 9.723 0l18.345 10.603a9.736 9.736 0 0 1 4.862 8.43v21.207a9.735 9.735 0 0 1-4.862 8.43l-18.345 10.603a9.713 9.713 0 0 1-9.723 0l-18.345-10.603a9.735 9.735 0 0 1-4.862-8.43v-21.207a9.736 9.736 0 0 1 4.862-8.43l18.345-10.603Z"/></mask><path d="M1379.75-38.086a9.707 9.707 0 0 1 9.72 0l18.35 10.604a9.731 9.731 0 0 1 4.86 8.43V2.155a9.731 9.731 0 0 1-4.86 8.43l-18.35 10.603a9.708 9.708 0 0 1-9.72 0l-18.35-10.603a9.752 9.752 0 0 1-4.86-8.43v-21.207a9.752 9.752 0 0 1 4.86-8.43l18.35-10.604Zm67.34 0a9.707 9.707 0 0 1 9.72 0l18.34 10.604a9.74 9.74 0 0 1 4.87 8.43V2.155a9.74 9.74 0 0 1-4.87 8.43l-18.34 10.603a9.708 9.708 0 0 1-9.72 0l-18.35-10.603a9.731 9.731 0 0 1-4.86-8.43v-21.207a9.731 9.731 0 0 1 4.86-8.43l18.35-10.604Zm-33.67 61.611a9.708 9.708 0 0 1 9.72 0l18.35 10.603a9.752 9.752 0 0 1 4.86 8.43v21.207a9.752 9.752 0 0 1-4.86 8.43l-18.35 10.603a9.708 9.708 0 0 1-9.72 0l-18.35-10.603a9.731 9.731 0 0 1-4.86-8.43V42.558a9.731 9.731 0 0 1 4.86-8.43l18.35-10.603Zm-33.67 61.61a9.708 9.708 0 0 1 9.72 0l18.35 10.603a9.73 9.73 0 0 1 4.86 8.43v21.207a9.731 9.731 0 0 1-4.86 8.43l-18.35 10.603a9.707 9.707 0 0 1-9.72 0l-18.35-10.603a9.752 9.752 0 0 1-4.86-8.43v-21.207a9.752 9.752 0 0 1 4.86-8.43l18.35-10.603Zm67.34 0a9.708 9.708 0 0 1 9.72 0l18.34 10.603a9.74 9.74 0 0 1 4.87 8.43v21.207a9.74 9.74 0 0 1-4.87 8.43l-18.34 10.603a9.707 9.707 0 0 1-9.72 0l-18.35-10.603a9.731 9.731 0 0 1-4.86-8.43v-21.207a9.73 9.73 0 0 1 4.86-8.43l18.35-10.603Zm-33.67 61.61a9.707 9.707 0 0 1 9.72 0l18.35 10.603a9.753 9.753 0 0 1 4.86 8.43v21.207a9.752 9.752 0 0 1-4.86 8.43l-18.35 10.603a9.707 9.707 0 0 1-9.72 0l-18.35-10.603a9.731 9.731 0 0 1-4.86-8.43v-21.207a9.732 9.732 0 0 1 4.86-8.43l18.35-10.603ZM35.749-38.086a9.713 9.713 0 0 1 9.723 0l18.345 10.604a9.736 9.736 0 0 1 4.862 8.43V2.155a9.736 9.736 0 0 1-4.862 8.43L45.472 21.188a9.714 9.714 0 0 1-9.723 0L17.404 10.585a9.736 9.736 0 0 1-4.862-8.43v-21.207a9.736 9.736 0 0 1 4.862-8.43l18.345-10.604Zm67.338 0a9.713 9.713 0 0 1 9.723 0l18.345 10.604a9.736 9.736 0 0 1 4.861 8.43V2.155a9.736 9.736 0 0 1-4.861 8.43L112.81 21.188a9.714 9.714 0 0 1-9.723 0L84.741 10.585a9.736 9.736 0 0 1-4.861-8.43v-21.207a9.736 9.736 0 0 1 4.862-8.43l18.345-10.604Zm67.147 0a9.713 9.713 0 0 1 9.723 0l18.346 10.604a9.736 9.736 0 0 1 4.861 8.43V2.155a9.736 9.736 0 0 1-4.861 8.43l-18.346 10.603a9.714 9.714 0 0 1-9.723 0l-18.345-10.603a9.736 9.736 0 0 1-4.861-8.43v-21.207a9.736 9.736 0 0 1 4.861-8.43l18.345-10.604Zm67.211 0a9.713 9.713 0 0 1 9.723 0l18.346 10.604a9.736 9.736 0 0 1 4.861 8.43V2.155a9.736 9.736 0 0 1-4.861 8.43l-18.346 10.603a9.714 9.714 0 0 1-9.723 0L219.1 10.585a9.736 9.736 0 0 1-4.861-8.43v-21.207a9.736 9.736 0 0 1 4.861-8.43l18.345-10.604Zm67.211 0a9.713 9.713 0 0 1 9.723 0l18.346 10.604a9.736 9.736 0 0 1 4.861 8.43V2.155a9.736 9.736 0 0 1-4.861 8.43l-18.346 10.603a9.714 9.714 0 0 1-9.723 0l-18.345-10.603a9.736 9.736 0 0 1-4.861-8.43v-21.207a9.736 9.736 0 0 1 4.861-8.43l18.345-10.604Zm67.148 0a9.713 9.713 0 0 1 9.723 0l18.345 10.604a9.735 9.735 0 0 1 4.862 8.43V2.155a9.735 9.735 0 0 1-4.862 8.43l-18.345 10.603a9.714 9.714 0 0 1-9.723 0l-18.345-10.603a9.735 9.735 0 0 1-4.862-8.43v-21.207a9.735 9.735 0 0 1 4.862-8.43l18.345-10.604Zm67.211 0a9.713 9.713 0 0 1 9.723 0l18.345 10.604a9.735 9.735 0 0 1 4.862 8.43V2.155a9.735 9.735 0 0 1-4.862 8.43l-18.345 10.603a9.714 9.714 0 0 1-9.723 0L420.67 10.585a9.737 9.737 0 0 1-4.862-8.43v-21.207a9.737 9.737 0 0 1 4.862-8.43l18.345-10.604ZM2.207 23.525a9.714 9.714 0 0 1 9.723 0l18.345 10.603a9.736 9.736 0 0 1 4.861 8.43v21.207a9.736 9.736 0 0 1-4.861 8.43L11.93 82.798a9.714 9.714 0 0 1-9.723 0L-16.14 72.195a9.736 9.736 0 0 1-4.86-8.43V42.558a9.736 9.736 0 0 1 4.861-8.43L2.207 23.525Zm67.211 0a9.714 9.714 0 0 1 9.723 0l18.345 10.603a9.737 9.737 0 0 1 4.862 8.43v21.207a9.737 9.737 0 0 1-4.862 8.43L79.141 82.798a9.714 9.714 0 0 1-9.723 0L51.073 72.195a9.736 9.736 0 0 1-4.862-8.43V42.558a9.736 9.736 0 0 1 4.862-8.43l18.345-10.603Zm67.338 0a9.714 9.714 0 0 1 9.723 0l18.345 10.603a9.736 9.736 0 0 1 4.861 8.43v21.207a9.736 9.736 0 0 1-4.861 8.43l-18.345 10.603a9.714 9.714 0 0 1-9.723 0l-18.345-10.603a9.735 9.735 0 0 1-4.862-8.43V42.558a9.735 9.735 0 0 1 4.862-8.43l18.345-10.603Zm67.147 0a9.714 9.714 0 0 1 9.723 0l18.345 10.603a9.735 9.735 0 0 1 4.862 8.43v21.207a9.735 9.735 0 0 1-4.862 8.43l-18.345 10.603a9.714 9.714 0 0 1-9.723 0l-18.345-10.603a9.736 9.736 0 0 1-4.861-8.43V42.558a9.736 9.736 0 0 1 4.861-8.43l18.345-10.603Zm67.211 0a9.714 9.714 0 0 1 9.723 0l18.345 10.603a9.735 9.735 0 0 1 4.862 8.43v21.207a9.735 9.735 0 0 1-4.862 8.43l-18.345 10.603a9.714 9.714 0 0 1-9.723 0l-18.345-10.603a9.736 9.736 0 0 1-4.861-8.43V42.558a9.736 9.736 0 0 1 4.861-8.43l18.345-10.603Zm67.211 0a9.714 9.714 0 0 1 9.723 0l18.346 10.603a9.736 9.736 0 0 1 4.861 8.43v21.207a9.736 9.736 0 0 1-4.861 8.43l-18.346 10.603a9.714 9.714 0 0 1-9.723 0L319.98 72.195a9.736 9.736 0 0 1-4.861-8.43V42.558a9.736 9.736 0 0 1 4.861-8.43l18.345-10.603Zm67.148 0a9.714 9.714 0 0 1 9.723 0l18.345 10.603a9.737 9.737 0 0 1 4.862 8.43v21.207a9.737 9.737 0 0 1-4.862 8.43l-18.345 10.603a9.714 9.714 0 0 1-9.723 0l-18.345-10.603a9.735 9.735 0 0 1-4.862-8.43V42.558a9.735 9.735 0 0 1 4.862-8.43l18.345-10.603Zm67.211 0a9.714 9.714 0 0 1 9.723 0l18.345 10.603a9.735 9.735 0 0 1 4.862 8.43v21.207a9.735 9.735 0 0 1-4.862 8.43l-18.345 10.603a9.714 9.714 0 0 1-9.723 0l-18.345-10.603a9.735 9.735 0 0 1-4.862-8.43V42.558a9.735 9.735 0 0 1 4.862-8.43l18.345-10.603ZM35.749 85.135a9.714 9.714 0 0 1 9.723 0l18.345 10.603a9.736 9.736 0 0 1 4.862 8.43v21.207a9.736 9.736 0 0 1-4.862 8.43l-18.345 10.603a9.713 9.713 0 0 1-9.723 0l-18.345-10.603a9.736 9.736 0 0 1-4.862-8.43v-21.207a9.736 9.736 0 0 1 4.862-8.43l18.345-10.603Zm67.338 0a9.714 9.714 0 0 1 9.723 0l18.345 10.603a9.736 9.736 0 0 1 4.861 8.43v21.207a9.736 9.736 0 0 1-4.861 8.43l-18.345 10.603a9.713 9.713 0 0 1-9.723 0l-18.346-10.603a9.736 9.736 0 0 1-4.861-8.43v-21.207a9.736 9.736 0 0 1 4.862-8.43l18.345-10.603Zm67.147 0a9.714 9.714 0 0 1 9.723 0l18.346 10.603a9.736 9.736 0 0 1 4.861 8.43v21.207a9.736 9.736 0 0 1-4.861 8.43l-18.346 10.603a9.713 9.713 0 0 1-9.723 0l-18.345-10.603a9.736 9.736 0 0 1-4.861-8.43v-21.207a9.736 9.736 0 0 1 4.861-8.43l18.345-10.603Zm67.211 0a9.714 9.714 0 0 1 9.723 0l18.346 10.603a9.736 9.736 0 0 1 4.861 8.43v21.207a9.736 9.736 0 0 1-4.861 8.43l-18.346 10.603a9.713 9.713 0 0 1-9.723 0L219.1 133.805a9.736 9.736 0 0 1-4.861-8.43v-21.207a9.736 9.736 0 0 1 4.861-8.43l18.345-10.603Zm67.211 0a9.714 9.714 0 0 1 9.723 0l18.346 10.603a9.736 9.736 0 0 1 4.861 8.43v21.207a9.736 9.736 0 0 1-4.861 8.43l-18.346 10.603a9.713 9.713 0 0 1-9.723 0l-18.345-10.603a9.736 9.736 0 0 1-4.861-8.43v-21.207a9.736 9.736 0 0 1 4.861-8.43l18.345-10.603Zm67.148 0a9.714 9.714 0 0 1 9.723 0l18.345 10.603a9.735 9.735 0 0 1 4.862 8.43v21.207a9.735 9.735 0 0 1-4.862 8.43l-18.345 10.603a9.713 9.713 0 0 1-9.723 0l-18.345-10.603a9.735 9.735 0 0 1-4.862-8.43v-21.207a9.735 9.735 0 0 1 4.862-8.43l18.345-10.603Zm67.211 0a9.714 9.714 0 0 1 9.723 0l18.345 10.603a9.735 9.735 0 0 1 4.862 8.43v21.207a9.735 9.735 0 0 1-4.862 8.43l-18.345 10.603a9.713 9.713 0 0 1-9.723 0l-18.345-10.603a9.737 9.737 0 0 1-4.862-8.43v-21.207a9.737 9.737 0 0 1 4.862-8.43l18.345-10.603ZM2.207 146.745a9.713 9.713 0 0 1 9.723 0l18.345 10.603a9.737 9.737 0 0 1 4.861 8.43v21.207a9.736 9.736 0 0 1-4.861 8.43L11.93 206.018a9.713 9.713 0 0 1-9.723 0l-18.346-10.603a9.736 9.736 0 0 1-4.861-8.43v-21.207a9.737 9.737 0 0 1 4.861-8.43l18.346-10.603Zm67.211 0a9.713 9.713 0 0 1 9.723 0l18.345 10.603a9.738 9.738 0 0 1 4.862 8.43v21.207a9.737 9.737 0 0 1-4.862 8.43l-18.345 10.603a9.713 9.713 0 0 1-9.723 0l-18.345-10.603a9.736 9.736 0 0 1-4.862-8.43v-21.207a9.737 9.737 0 0 1 4.862-8.43l18.345-10.603Zm67.338 0a9.713 9.713 0 0 1 9.723 0l18.345 10.603a9.737 9.737 0 0 1 4.861 8.43v21.207a9.736 9.736 0 0 1-4.861 8.43l-18.345 10.603a9.713 9.713 0 0 1-9.723 0l-18.345-10.603a9.735 9.735 0 0 1-4.862-8.43v-21.207a9.736 9.736 0 0 1 4.862-8.43l18.345-10.603Zm67.147 0a9.713 9.713 0 0 1 9.723 0l18.345 10.603a9.736 9.736 0 0 1 4.862 8.43v21.207a9.735 9.735 0 0 1-4.862 8.43l-18.345 10.603a9.713 9.713 0 0 1-9.723 0l-18.345-10.603a9.736 9.736 0 0 1-4.861-8.43v-21.207a9.737 9.737 0 0 1 4.861-8.43l18.345-10.603Zm67.211 0a9.713 9.713 0 0 1 9.723 0l18.345 10.603a9.736 9.736 0 0 1 4.862 8.43v21.207a9.735 9.735 0 0 1-4.862 8.43l-18.345 10.603a9.713 9.713 0 0 1-9.723 0l-18.345-10.603a9.736 9.736 0 0 1-4.861-8.43v-21.207a9.737 9.737 0 0 1 4.861-8.43l18.345-10.603Zm67.211 0a9.713 9.713 0 0 1 9.723 0l18.346 10.603a9.737 9.737 0 0 1 4.861 8.43v21.207a9.736 9.736 0 0 1-4.861 8.43l-18.346 10.603a9.713 9.713 0 0 1-9.723 0l-18.345-10.603a9.736 9.736 0 0 1-4.861-8.43v-21.207a9.737 9.737 0 0 1 4.861-8.43l18.345-10.603Zm67.148 0a9.713 9.713 0 0 1 9.723 0l18.345 10.603a9.738 9.738 0 0 1 4.862 8.43v21.207a9.737 9.737 0 0 1-4.862 8.43l-18.345 10.603a9.713 9.713 0 0 1-9.723 0l-18.345-10.603a9.735 9.735 0 0 1-4.862-8.43v-21.207a9.736 9.736 0 0 1 4.862-8.43l18.345-10.603Zm67.211 0a9.713 9.713 0 0 1 9.723 0l18.345 10.603a9.736 9.736 0 0 1 4.862 8.43v21.207a9.735 9.735 0 0 1-4.862 8.43l-18.345 10.603a9.713 9.713 0 0 1-9.723 0l-18.345-10.603a9.735 9.735 0 0 1-4.862-8.43v-21.207a9.736 9.736 0 0 1 4.862-8.43l18.345-10.603ZM977.087-38.086a9.713 9.713 0 0 1 9.723 0l18.34 10.604a9.74 9.74 0 0 1 4.87 8.43V2.155a9.74 9.74 0 0 1-4.87 8.43l-18.34 10.603a9.714 9.714 0 0 1-9.723 0l-18.345-10.603a9.735 9.735 0 0 1-4.862-8.43v-21.207a9.735 9.735 0 0 1 4.862-8.43l18.345-10.604Zm67.143 0a9.726 9.726 0 0 1 9.73 0l18.34 10.604a9.731 9.731 0 0 1 4.86 8.43V2.155a9.731 9.731 0 0 1-4.86 8.43l-18.34 10.603a9.727 9.727 0 0 1-9.73 0l-18.34-10.603a9.731 9.731 0 0 1-4.86-8.43v-21.207a9.731 9.731 0 0 1 4.86-8.43l18.34-10.604Zm67.22 0a9.707 9.707 0 0 1 9.72 0l18.34 10.604a9.74 9.74 0 0 1 4.87 8.43V2.155a9.74 9.74 0 0 1-4.87 8.43l-18.34 10.603a9.708 9.708 0 0 1-9.72 0l-18.35-10.603a9.731 9.731 0 0 1-4.86-8.43v-21.207a9.731 9.731 0 0 1 4.86-8.43l18.35-10.604Zm67.21 0a9.707 9.707 0 0 1 9.72 0l18.34 10.604a9.74 9.74 0 0 1 4.87 8.43V2.155a9.74 9.74 0 0 1-4.87 8.43l-18.34 10.603a9.708 9.708 0 0 1-9.72 0l-18.35-10.603a9.731 9.731 0 0 1-4.86-8.43v-21.207a9.731 9.731 0 0 1 4.86-8.43l18.35-10.604Zm67.14 0a9.726 9.726 0 0 1 9.73 0l18.34 10.604a9.731 9.731 0 0 1 4.86 8.43V2.155a9.731 9.731 0 0 1-4.86 8.43l-18.34 10.603a9.727 9.727 0 0 1-9.73 0l-18.34-10.603a9.731 9.731 0 0 1-4.86-8.43v-21.207a9.731 9.731 0 0 1 4.86-8.43l18.34-10.604Zm67.21 0a9.726 9.726 0 0 1 9.73 0l18.34 10.604a9.731 9.731 0 0 1 4.86 8.43V2.155a9.731 9.731 0 0 1-4.86 8.43l-18.34 10.603a9.727 9.727 0 0 1-9.73 0l-18.34-10.603a9.731 9.731 0 0 1-4.86-8.43v-21.207a9.731 9.731 0 0 1 4.86-8.43l18.34-10.604Zm-302.25 61.611a9.708 9.708 0 0 1 9.72 0l18.34 10.603a9.74 9.74 0 0 1 4.87 8.43v21.207a9.74 9.74 0 0 1-4.87 8.43l-18.34 10.603a9.708 9.708 0 0 1-9.72 0l-18.349-10.603a9.735 9.735 0 0 1-4.862-8.43V42.558a9.735 9.735 0 0 1 4.862-8.43l18.349-10.603Zm67.14 0a9.727 9.727 0 0 1 9.73 0l18.34 10.603a9.731 9.731 0 0 1 4.86 8.43v21.207a9.731 9.731 0 0 1-4.86 8.43l-18.34 10.603a9.727 9.727 0 0 1-9.73 0l-18.34-10.603a9.731 9.731 0 0 1-4.86-8.43V42.558a9.731 9.731 0 0 1 4.86-8.43l18.34-10.603Zm67.21 0a9.727 9.727 0 0 1 9.73 0l18.34 10.603a9.731 9.731 0 0 1 4.86 8.43v21.207a9.731 9.731 0 0 1-4.86 8.43l-18.34 10.603a9.727 9.727 0 0 1-9.73 0l-18.34-10.603a9.731 9.731 0 0 1-4.86-8.43V42.558a9.731 9.731 0 0 1 4.86-8.43l18.34-10.603Zm67.22 0a9.708 9.708 0 0 1 9.72 0l18.34 10.603a9.74 9.74 0 0 1 4.87 8.43v21.207a9.74 9.74 0 0 1-4.87 8.43l-18.34 10.603a9.708 9.708 0 0 1-9.72 0l-18.35-10.603a9.731 9.731 0 0 1-4.86-8.43V42.558a9.731 9.731 0 0 1 4.86-8.43l18.35-10.603Zm67.14 0a9.727 9.727 0 0 1 9.73 0l18.34 10.603a9.731 9.731 0 0 1 4.86 8.43v21.207a9.731 9.731 0 0 1-4.86 8.43l-18.34 10.603a9.727 9.727 0 0 1-9.73 0l-18.34-10.603a9.731 9.731 0 0 1-4.86-8.43V42.558a9.731 9.731 0 0 1 4.86-8.43l18.34-10.603Zm67.21 0a9.727 9.727 0 0 1 9.73 0l18.34 10.603a9.731 9.731 0 0 1 4.86 8.43v21.207a9.731 9.731 0 0 1-4.86 8.43l-18.34 10.603a9.727 9.727 0 0 1-9.73 0l-18.34-10.603a9.731 9.731 0 0 1-4.86-8.43V42.558a9.731 9.731 0 0 1 4.86-8.43l18.34-10.603Zm-369.593 61.61a9.714 9.714 0 0 1 9.723 0l18.34 10.603a9.74 9.74 0 0 1 4.87 8.43v21.207a9.74 9.74 0 0 1-4.87 8.43l-18.34 10.603a9.713 9.713 0 0 1-9.723 0l-18.345-10.603a9.735 9.735 0 0 1-4.862-8.43v-21.207a9.735 9.735 0 0 1 4.862-8.43l18.345-10.603Zm67.143 0a9.727 9.727 0 0 1 9.73 0l18.34 10.603a9.73 9.73 0 0 1 4.86 8.43v21.207a9.731 9.731 0 0 1-4.86 8.43l-18.34 10.603a9.726 9.726 0 0 1-9.73 0l-18.34-10.603a9.731 9.731 0 0 1-4.86-8.43v-21.207a9.73 9.73 0 0 1 4.86-8.43l18.34-10.603Zm67.22 0a9.708 9.708 0 0 1 9.72 0l18.34 10.603a9.74 9.74 0 0 1 4.87 8.43v21.207a9.74 9.74 0 0 1-4.87 8.43l-18.34 10.603a9.707 9.707 0 0 1-9.72 0l-18.35-10.603a9.731 9.731 0 0 1-4.86-8.43v-21.207a9.73 9.73 0 0 1 4.86-8.43l18.35-10.603Zm67.21 0a9.708 9.708 0 0 1 9.72 0l18.34 10.603a9.74 9.74 0 0 1 4.87 8.43v21.207a9.74 9.74 0 0 1-4.87 8.43l-18.34 10.603a9.707 9.707 0 0 1-9.72 0l-18.35-10.603a9.731 9.731 0 0 1-4.86-8.43v-21.207a9.73 9.73 0 0 1 4.86-8.43l18.35-10.603Zm67.14 0a9.727 9.727 0 0 1 9.73 0l18.34 10.603a9.73 9.73 0 0 1 4.86 8.43v21.207a9.731 9.731 0 0 1-4.86 8.43l-18.34 10.603a9.726 9.726 0 0 1-9.73 0l-18.34-10.603a9.731 9.731 0 0 1-4.86-8.43v-21.207a9.73 9.73 0 0 1 4.86-8.43l18.34-10.603Zm67.21 0a9.727 9.727 0 0 1 9.73 0l18.34 10.603a9.73 9.73 0 0 1 4.86 8.43v21.207a9.731 9.731 0 0 1-4.86 8.43l-18.34 10.603a9.726 9.726 0 0 1-9.73 0l-18.34-10.603a9.731 9.731 0 0 1-4.86-8.43v-21.207a9.73 9.73 0 0 1 4.86-8.43l18.34-10.603Zm-302.25 61.61a9.707 9.707 0 0 1 9.72 0l18.34 10.603a9.742 9.742 0 0 1 4.87 8.43v21.207a9.74 9.74 0 0 1-4.87 8.43l-18.34 10.603a9.707 9.707 0 0 1-9.72 0l-18.349-10.603a9.735 9.735 0 0 1-4.862-8.43v-21.207a9.736 9.736 0 0 1 4.862-8.43l18.349-10.603Zm67.14 0a9.726 9.726 0 0 1 9.73 0l18.34 10.603a9.732 9.732 0 0 1 4.86 8.43v21.207a9.731 9.731 0 0 1-4.86 8.43l-18.34 10.603a9.726 9.726 0 0 1-9.73 0l-18.34-10.603a9.731 9.731 0 0 1-4.86-8.43v-21.207a9.732 9.732 0 0 1 4.86-8.43l18.34-10.603Zm67.21 0a9.726 9.726 0 0 1 9.73 0l18.34 10.603a9.732 9.732 0 0 1 4.86 8.43v21.207a9.731 9.731 0 0 1-4.86 8.43l-18.34 10.603a9.726 9.726 0 0 1-9.73 0l-18.34-10.603a9.731 9.731 0 0 1-4.86-8.43v-21.207a9.732 9.732 0 0 1 4.86-8.43l18.34-10.603Zm67.22 0a9.707 9.707 0 0 1 9.72 0l18.34 10.603a9.742 9.742 0 0 1 4.87 8.43v21.207a9.74 9.74 0 0 1-4.87 8.43l-18.34 10.603a9.707 9.707 0 0 1-9.72 0l-18.35-10.603a9.731 9.731 0 0 1-4.86-8.43v-21.207a9.732 9.732 0 0 1 4.86-8.43l18.35-10.603Zm67.14 0a9.726 9.726 0 0 1 9.73 0l18.34 10.603a9.732 9.732 0 0 1 4.86 8.43v21.207a9.731 9.731 0 0 1-4.86 8.43l-18.34 10.603a9.726 9.726 0 0 1-9.73 0l-18.34-10.603a9.731 9.731 0 0 1-4.86-8.43v-21.207a9.732 9.732 0 0 1 4.86-8.43l18.34-10.603Zm67.21 0a9.726 9.726 0 0 1 9.73 0l18.34 10.603a9.732 9.732 0 0 1 4.86 8.43v21.207a9.731 9.731 0 0 1-4.86 8.43l-18.34 10.603a9.726 9.726 0 0 1-9.73 0l-18.34-10.603a9.731 9.731 0 0 1-4.86-8.43v-21.207a9.732 9.732 0 0 1 4.86-8.43l18.34-10.603ZM506.749-38.086a9.713 9.713 0 0 1 9.723 0l18.345 10.604a9.737 9.737 0 0 1 4.862 8.43V2.155a9.737 9.737 0 0 1-4.862 8.43l-18.345 10.603a9.714 9.714 0 0 1-9.723 0l-18.345-10.603a9.735 9.735 0 0 1-4.862-8.43v-21.207a9.735 9.735 0 0 1 4.862-8.43l18.345-10.604Zm67.338 0a9.713 9.713 0 0 1 9.723 0l18.345 10.604a9.736 9.736 0 0 1 4.861 8.43V2.155a9.736 9.736 0 0 1-4.861 8.43L583.81 21.188a9.714 9.714 0 0 1-9.723 0l-18.345-10.603a9.735 9.735 0 0 1-4.862-8.43v-21.207a9.735 9.735 0 0 1 4.862-8.43l18.345-10.604Zm67.147 0a9.713 9.713 0 0 1 9.723 0l18.346 10.604a9.736 9.736 0 0 1 4.861 8.43V2.155a9.736 9.736 0 0 1-4.861 8.43l-18.346 10.603a9.714 9.714 0 0 1-9.723 0l-18.345-10.603a9.736 9.736 0 0 1-4.861-8.43v-21.207a9.736 9.736 0 0 1 4.861-8.43l18.345-10.604Zm67.211 0a9.713 9.713 0 0 1 9.723 0l18.346 10.604a9.736 9.736 0 0 1 4.861 8.43V2.155a9.736 9.736 0 0 1-4.861 8.43l-18.346 10.603a9.714 9.714 0 0 1-9.723 0L690.1 10.585a9.736 9.736 0 0 1-4.861-8.43v-21.207a9.736 9.736 0 0 1 4.861-8.43l18.345-10.604Zm67.211 0a9.713 9.713 0 0 1 9.723 0l18.346 10.604a9.736 9.736 0 0 1 4.861 8.43V2.155a9.736 9.736 0 0 1-4.861 8.43l-18.346 10.603a9.714 9.714 0 0 1-9.723 0l-18.345-10.603a9.736 9.736 0 0 1-4.861-8.43v-21.207a9.736 9.736 0 0 1 4.861-8.43l18.345-10.604Zm67.148 0a9.713 9.713 0 0 1 9.723 0l18.345 10.604a9.735 9.735 0 0 1 4.862 8.43V2.155a9.735 9.735 0 0 1-4.862 8.43l-18.345 10.603a9.714 9.714 0 0 1-9.723 0l-18.345-10.603a9.735 9.735 0 0 1-4.862-8.43v-21.207a9.735 9.735 0 0 1 4.862-8.43l18.345-10.604Zm67.211 0a9.713 9.713 0 0 1 9.723 0l18.345 10.604a9.735 9.735 0 0 1 4.862 8.43V2.155a9.735 9.735 0 0 1-4.862 8.43l-18.345 10.603a9.714 9.714 0 0 1-9.723 0L891.67 10.585a9.737 9.737 0 0 1-4.862-8.43v-21.207a9.737 9.737 0 0 1 4.862-8.43l18.345-10.604ZM540.418 23.525a9.714 9.714 0 0 1 9.723 0l18.345 10.603a9.737 9.737 0 0 1 4.862 8.43v21.207a9.737 9.737 0 0 1-4.862 8.43l-18.345 10.603a9.714 9.714 0 0 1-9.723 0l-18.345-10.603a9.735 9.735 0 0 1-4.862-8.43V42.558a9.735 9.735 0 0 1 4.862-8.43l18.345-10.603Zm67.338 0a9.714 9.714 0 0 1 9.723 0l18.345 10.603a9.736 9.736 0 0 1 4.861 8.43v21.207a9.736 9.736 0 0 1-4.861 8.43l-18.345 10.603a9.714 9.714 0 0 1-9.723 0l-18.345-10.603a9.735 9.735 0 0 1-4.862-8.43V42.558a9.735 9.735 0 0 1 4.862-8.43l18.345-10.603Zm67.147 0a9.714 9.714 0 0 1 9.723 0l18.345 10.603a9.735 9.735 0 0 1 4.862 8.43v21.207a9.735 9.735 0 0 1-4.862 8.43l-18.345 10.603a9.714 9.714 0 0 1-9.723 0l-18.345-10.603a9.736 9.736 0 0 1-4.861-8.43V42.558a9.736 9.736 0 0 1 4.861-8.43l18.345-10.603Zm67.211 0a9.714 9.714 0 0 1 9.723 0l18.345 10.603a9.735 9.735 0 0 1 4.862 8.43v21.207a9.735 9.735 0 0 1-4.862 8.43l-18.345 10.603a9.714 9.714 0 0 1-9.723 0l-18.345-10.603a9.736 9.736 0 0 1-4.861-8.43V42.558a9.736 9.736 0 0 1 4.861-8.43l18.345-10.603Zm67.211 0a9.714 9.714 0 0 1 9.723 0l18.346 10.603a9.736 9.736 0 0 1 4.861 8.43v21.207a9.736 9.736 0 0 1-4.861 8.43l-18.346 10.603a9.714 9.714 0 0 1-9.723 0L790.98 72.195a9.736 9.736 0 0 1-4.861-8.43V42.558a9.736 9.736 0 0 1 4.861-8.43l18.345-10.603Zm67.148 0a9.714 9.714 0 0 1 9.723 0l18.345 10.603a9.737 9.737 0 0 1 4.862 8.43v21.207a9.737 9.737 0 0 1-4.862 8.43l-18.345 10.603a9.714 9.714 0 0 1-9.723 0l-18.345-10.603a9.735 9.735 0 0 1-4.862-8.43V42.558a9.735 9.735 0 0 1 4.862-8.43l18.345-10.603Zm67.211 0a9.714 9.714 0 0 1 9.723 0l18.345 10.603a9.735 9.735 0 0 1 4.862 8.43v21.207a9.735 9.735 0 0 1-4.862 8.43l-18.345 10.603a9.714 9.714 0 0 1-9.723 0l-18.345-10.603a9.735 9.735 0 0 1-4.862-8.43V42.558a9.735 9.735 0 0 1 4.862-8.43l18.345-10.603Zm-436.935 61.61a9.714 9.714 0 0 1 9.723 0l18.345 10.603a9.737 9.737 0 0 1 4.862 8.43v21.207a9.737 9.737 0 0 1-4.862 8.43l-18.345 10.603a9.713 9.713 0 0 1-9.723 0l-18.345-10.603a9.735 9.735 0 0 1-4.862-8.43v-21.207a9.735 9.735 0 0 1 4.862-8.43l18.345-10.603Zm67.338 0a9.714 9.714 0 0 1 9.723 0l18.345 10.603a9.736 9.736 0 0 1 4.861 8.43v21.207a9.736 9.736 0 0 1-4.861 8.43l-18.345 10.603a9.713 9.713 0 0 1-9.723 0l-18.345-10.603a9.735 9.735 0 0 1-4.862-8.43v-21.207a9.735 9.735 0 0 1 4.862-8.43l18.345-10.603Zm67.147 0a9.714 9.714 0 0 1 9.723 0l18.346 10.603a9.736 9.736 0 0 1 4.861 8.43v21.207a9.736 9.736 0 0 1-4.861 8.43l-18.346 10.603a9.713 9.713 0 0 1-9.723 0l-18.345-10.603a9.736 9.736 0 0 1-4.861-8.43v-21.207a9.736 9.736 0 0 1 4.861-8.43l18.345-10.603Zm67.211 0a9.714 9.714 0 0 1 9.723 0l18.346 10.603a9.736 9.736 0 0 1 4.861 8.43v21.207a9.736 9.736 0 0 1-4.861 8.43l-18.346 10.603a9.713 9.713 0 0 1-9.723 0L690.1 133.805a9.736 9.736 0 0 1-4.861-8.43v-21.207a9.736 9.736 0 0 1 4.861-8.43l18.345-10.603Zm67.211 0a9.714 9.714 0 0 1 9.723 0l18.346 10.603a9.736 9.736 0 0 1 4.861 8.43v21.207a9.736 9.736 0 0 1-4.861 8.43l-18.346 10.603a9.713 9.713 0 0 1-9.723 0l-18.345-10.603a9.736 9.736 0 0 1-4.861-8.43v-21.207a9.736 9.736 0 0 1 4.861-8.43l18.345-10.603Zm67.148 0a9.714 9.714 0 0 1 9.723 0l18.345 10.603a9.735 9.735 0 0 1 4.862 8.43v21.207a9.735 9.735 0 0 1-4.862 8.43l-18.345 10.603a9.713 9.713 0 0 1-9.723 0l-18.345-10.603a9.735 9.735 0 0 1-4.862-8.43v-21.207a9.735 9.735 0 0 1 4.862-8.43l18.345-10.603Zm67.211 0a9.714 9.714 0 0 1 9.723 0l18.345 10.603a9.735 9.735 0 0 1 4.862 8.43v21.207a9.735 9.735 0 0 1-4.862 8.43l-18.345 10.603a9.713 9.713 0 0 1-9.723 0l-18.345-10.603a9.737 9.737 0 0 1-4.862-8.43v-21.207a9.737 9.737 0 0 1 4.862-8.43l18.345-10.603Zm-369.597 61.61a9.713 9.713 0 0 1 9.723 0l18.345 10.603a9.738 9.738 0 0 1 4.862 8.43v21.207a9.737 9.737 0 0 1-4.862 8.43l-18.345 10.603a9.713 9.713 0 0 1-9.723 0l-18.345-10.603a9.735 9.735 0 0 1-4.862-8.43v-21.207a9.736 9.736 0 0 1 4.862-8.43l18.345-10.603Zm67.338 0a9.713 9.713 0 0 1 9.723 0l18.345 10.603a9.737 9.737 0 0 1 4.861 8.43v21.207a9.736 9.736 0 0 1-4.861 8.43l-18.345 10.603a9.713 9.713 0 0 1-9.723 0l-18.345-10.603a9.735 9.735 0 0 1-4.862-8.43v-21.207a9.736 9.736 0 0 1 4.862-8.43l18.345-10.603Zm67.147 0a9.713 9.713 0 0 1 9.723 0l18.345 10.603a9.736 9.736 0 0 1 4.862 8.43v21.207a9.735 9.735 0 0 1-4.862 8.43l-18.345 10.603a9.713 9.713 0 0 1-9.723 0l-18.345-10.603a9.736 9.736 0 0 1-4.861-8.43v-21.207a9.737 9.737 0 0 1 4.861-8.43l18.345-10.603Zm67.211 0a9.713 9.713 0 0 1 9.723 0l18.345 10.603a9.736 9.736 0 0 1 4.862 8.43v21.207a9.735 9.735 0 0 1-4.862 8.43l-18.345 10.603a9.713 9.713 0 0 1-9.723 0l-18.345-10.603a9.736 9.736 0 0 1-4.861-8.43v-21.207a9.737 9.737 0 0 1 4.861-8.43l18.345-10.603Zm67.211 0a9.713 9.713 0 0 1 9.723 0l18.346 10.603a9.737 9.737 0 0 1 4.861 8.43v21.207a9.736 9.736 0 0 1-4.861 8.43l-18.346 10.603a9.713 9.713 0 0 1-9.723 0l-18.345-10.603a9.736 9.736 0 0 1-4.861-8.43v-21.207a9.737 9.737 0 0 1 4.861-8.43l18.345-10.603Zm67.148 0a9.713 9.713 0 0 1 9.723 0l18.345 10.603a9.738 9.738 0 0 1 4.862 8.43v21.207a9.737 9.737 0 0 1-4.862 8.43l-18.345 10.603a9.713 9.713 0 0 1-9.723 0l-18.345-10.603a9.735 9.735 0 0 1-4.862-8.43v-21.207a9.736 9.736 0 0 1 4.862-8.43l18.345-10.603Zm67.211 0a9.713 9.713 0 0 1 9.723 0l18.345 10.603a9.736 9.736 0 0 1 4.862 8.43v21.207a9.735 9.735 0 0 1-4.862 8.43l-18.345 10.603a9.713 9.713 0 0 1-9.723 0l-18.345-10.603a9.735 9.735 0 0 1-4.862-8.43v-21.207a9.736 9.736 0 0 1 4.862-8.43l18.345-10.603Z" stroke="#E5E8FF" stroke-width="2" mask="url(#path-2-inside-1_22053_66326)"/><path d="M104.469 96.812a6.061 6.061 0 0 1 6.062 0l11.438 6.604a6.061 6.061 0 0 1 3.031 5.25v13.207a6.061 6.061 0 0 1-3.031 5.25l-11.438 6.604a6.061 6.061 0 0 1-6.062 0l-11.438-6.604a6.062 6.062 0 0 1-3.031-5.25v-13.207a6.062 6.062 0 0 1 3.031-5.25l11.438-6.604Zm941.001 0a6.058 6.058 0 0 1 6.06 0l11.44 6.604a6.052 6.052 0 0 1 3.03 5.25v13.207a6.052 6.052 0 0 1-3.03 5.25l-11.44 6.604a6.058 6.058 0 0 1-6.06 0l-11.44-6.604a6.073 6.073 0 0 1-3.03-5.25v-13.207a6.073 6.073 0 0 1 3.03-5.25l11.44-6.604Zm-235.001-62a6.064 6.064 0 0 1 6.063 0l11.437 6.604a6.061 6.061 0 0 1 3.031 5.25v13.207a6.061 6.061 0 0 1-3.031 5.25l-11.437 6.604a6.064 6.064 0 0 1-6.063 0l-11.437-6.604a6.062 6.062 0 0 1-3.032-5.25V46.666a6.062 6.062 0 0 1 3.032-5.25l11.437-6.604Zm-235-62a6.064 6.064 0 0 1 6.063 0l11.437 6.604a6.061 6.061 0 0 1 3.031 5.25v13.207a6.061 6.061 0 0 1-3.031 5.25l-11.437 6.604a6.064 6.064 0 0 1-6.063 0l-11.437-6.604A6.062 6.062 0 0 1 561-2.127v-13.207a6.062 6.062 0 0 1 3.032-5.25l11.437-6.604Zm-370 62a6.062 6.062 0 0 1 6.062 0l11.438 6.604a6.061 6.061 0 0 1 3.031 5.25v13.207a6.061 6.061 0 0 1-3.031 5.25l-11.438 6.604a6.062 6.062 0 0 1-6.062 0l-11.438-6.604a6.061 6.061 0 0 1-3.031-5.25V46.666a6.061 6.061 0 0 1 3.031-5.25l11.438-6.604Zm941.001 0a6.058 6.058 0 0 1 6.06 0l11.44 6.604a6.052 6.052 0 0 1 3.03 5.25v13.207a6.052 6.052 0 0 1-3.03 5.25l-11.44 6.604a6.058 6.058 0 0 1-6.06 0l-11.44-6.604a6.073 6.073 0 0 1-3.03-5.25V46.666a6.073 6.073 0 0 1 3.03-5.25l11.44-6.604Zm-1109.001-61a6.062 6.062 0 0 1 6.062 0l11.438 6.604A6.062 6.062 0 0 1 58-14.334v13.207a6.062 6.062 0 0 1-3.031 5.25L43.53 10.727a6.062 6.062 0 0 1-6.062 0L26.03 4.123A6.062 6.062 0 0 1 23-1.127v-13.207a6.062 6.062 0 0 1 3.031-5.25l11.438-6.604Zm941 0a6.064 6.064 0 0 1 6.063 0l11.437 6.604a6.061 6.061 0 0 1 3.031 5.25v13.207a6.061 6.061 0 0 1-3.031 5.25l-11.437 6.604a6.064 6.064 0 0 1-6.063 0l-11.437-6.604A6.062 6.062 0 0 1 964-1.127v-13.207a6.062 6.062 0 0 1 3.032-5.25l11.437-6.604Zm-672 123a6.061 6.061 0 0 1 6.062 0l11.438 6.604a6.061 6.061 0 0 1 3.031 5.25v13.207a6.061 6.061 0 0 1-3.031 5.25l-11.438 6.604a6.061 6.061 0 0 1-6.062 0l-11.438-6.604a6.061 6.061 0 0 1-3.031-5.25v-13.207a6.061 6.061 0 0 1 3.031-5.25l11.438-6.604Zm941.001 0a6.058 6.058 0 0 1 6.06 0l11.44 6.604a6.052 6.052 0 0 1 3.03 5.25v13.207a6.052 6.052 0 0 1-3.03 5.25l-11.44 6.604a6.058 6.058 0 0 1-6.06 0l-11.44-6.604a6.073 6.073 0 0 1-3.03-5.25v-13.207a6.073 6.073 0 0 1 3.03-5.25l11.44-6.604Zm-840.001 60a6.061 6.061 0 0 1 6.062 0l11.438 6.604a6.061 6.061 0 0 1 3.031 5.25v13.207a6.061 6.061 0 0 1-3.031 5.25l-11.438 6.604a6.061 6.061 0 0 1-6.062 0l-11.438-6.604a6.061 6.061 0 0 1-3.031-5.25v-13.207a6.061 6.061 0 0 1 3.031-5.25l11.438-6.604Zm941.001 0a6.058 6.058 0 0 1 6.06 0l11.44 6.604a6.052 6.052 0 0 1 3.03 5.25v13.207a6.052 6.052 0 0 1-3.03 5.25l-11.44 6.604a6.058 6.058 0 0 1-6.06 0l-11.44-6.604a6.073 6.073 0 0 1-3.03-5.25v-13.207a6.073 6.073 0 0 1 3.03-5.25l11.44-6.604Zm-1042.001-183a6.062 6.062 0 0 1 6.062 0l11.438 6.604a6.061 6.061 0 0 1 3.031 5.25v13.207a6.061 6.061 0 0 1-3.031 5.25l-11.438 6.604a6.062 6.062 0 0 1-6.062 0l-11.438-6.604A6.061 6.061 0 0 1 292-1.127v-13.207a6.061 6.061 0 0 1 3.031-5.25l11.438-6.604Zm941.001 0a6.058 6.058 0 0 1 6.06 0l11.44 6.604a6.052 6.052 0 0 1 3.03 5.25v13.207a6.052 6.052 0 0 1-3.03 5.25l-11.44 6.604a6.058 6.058 0 0 1-6.06 0l-11.44-6.604a6.073 6.073 0 0 1-3.03-5.25v-13.207a6.073 6.073 0 0 1 3.03-5.25l11.44-6.604Zm-605.001 123a6.063 6.063 0 0 1 6.063 0l11.437 6.604a6.061 6.061 0 0 1 3.031 5.25v13.207a6.061 6.061 0 0 1-3.031 5.25l-11.437 6.604a6.063 6.063 0 0 1-6.063 0l-11.437-6.604a6.062 6.062 0 0 1-3.032-5.25v-13.207a6.062 6.062 0 0 1 3.032-5.25l11.437-6.604Z" fill="#F0F1FF"/><path d="M642.469 96.812a6.063 6.063 0 0 1 6.063 0l11.437 6.604a6.061 6.061 0 0 1 3.031 5.25v13.207a6.061 6.061 0 0 1-3.031 5.25l-11.437 6.604a6.063 6.063 0 0 1-6.063 0l-11.437-6.604a6.062 6.062 0 0 1-3.032-5.25v-13.207a6.062 6.062 0 0 1 3.032-5.25l11.437-6.604Zm102 60a6.063 6.063 0 0 1 6.063 0l11.437 6.604a6.061 6.061 0 0 1 3.031 5.25v13.207a6.061 6.061 0 0 1-3.031 5.25l-11.437 6.604a6.063 6.063 0 0 1-6.063 0l-11.437-6.604a6.062 6.062 0 0 1-3.032-5.25v-13.207a6.062 6.062 0 0 1 3.032-5.25l11.437-6.604Z" fill="#F0F1FF"/><path d="M367.576 125h9.91c2.064 0 3.836-.4 5.318-1.201a8.18 8.18 0 0 0 3.422-3.447c.801-1.498 1.201-3.288 1.201-5.372 0-2.076-.4-3.86-1.201-5.351a8.162 8.162 0 0 0-3.402-3.428c-1.475-.801-3.235-1.201-5.278-1.201h-4.405a2.857 2.857 0 0 0-2.857 2.857v9.943c0 .598.693.931 1.16.557l4.711-3.768a.572.572 0 0 0-.357-1.018h-.647a.57.57 0 0 1-.571-.571v-2.948c0-.789.639-1.429 1.428-1.429h1.31c1.269 0 2.338.221 3.204.664.866.443 1.518 1.133 1.954 2.07.443.938.665 2.146.665 3.623 0 1.491-.222 2.709-.665 3.653-.436.937-1.091 1.631-1.964 2.08-.866.443-1.934.664-3.204.664h-2.738l-4.083.049a.57.57 0 0 0-.359.133l-2.917 2.431a.571.571 0 0 0 .365 1.01Zm-237-63h9.91c2.064 0 3.836-.4 5.318-1.201a8.177 8.177 0 0 0 3.422-3.447c.801-1.498 1.201-3.288 1.201-5.371 0-2.077-.4-3.861-1.201-5.352a8.163 8.163 0 0 0-3.402-3.428c-1.475-.8-3.235-1.201-5.278-1.201h-4.405a2.857 2.857 0 0 0-2.857 2.857V54.8c0 .599.693.931 1.16.557l4.711-3.768a.572.572 0 0 0-.357-1.018h-.647a.57.57 0 0 1-.571-.571v-2.948c0-.79.639-1.429 1.428-1.429h1.31c1.269 0 2.338.221 3.204.664.866.443 1.518 1.133 1.954 2.07.443.938.665 2.146.665 3.623 0 1.491-.222 2.709-.665 3.653-.436.937-1.091 1.63-1.964 2.08-.866.443-1.934.664-3.204.664h-2.738l-4.083.05a.573.573 0 0 0-.359.132l-2.917 2.43a.571.571 0 0 0 .365 1.011Zm1043.004 62h9.91c2.06 0 3.83-.4 5.31-1.201a8.227 8.227 0 0 0 3.43-3.447c.8-1.498 1.2-3.288 1.2-5.372 0-2.076-.4-3.86-1.2-5.351-.8-1.491-1.93-2.634-3.41-3.428-1.47-.801-3.23-1.201-5.27-1.201h-4.41a2.858 2.858 0 0 0-2.86 2.857v9.943c0 .598.7.931 1.16.557l4.71-3.768a.569.569 0 0 0-.35-1.018h-.65a.573.573 0 0 1-.57-.571v-2.948c0-.789.64-1.429 1.43-1.429h1.31c1.27 0 2.34.221 3.2.664.87.443 1.52 1.133 1.96 2.07.44.938.66 2.146.66 3.623 0 1.491-.22 2.709-.66 3.653-.44.937-1.09 1.631-1.97 2.08-.86.443-1.93.664-3.2.664h-2.74l-4.08.049a.573.573 0 0 0-.36.133l-2.92 2.431a.571.571 0 0 0 .37 1.01Zm-168-61h9.91c2.06 0 3.83-.4 5.31-1.201a8.227 8.227 0 0 0 3.43-3.447c.8-1.498 1.2-3.288 1.2-5.371 0-2.077-.4-3.861-1.2-5.352-.8-1.491-1.93-2.634-3.41-3.428-1.47-.8-3.23-1.201-5.27-1.201h-4.41c-1.58 0-2.86 1.28-2.86 2.857V55.8c0 .599.7.931 1.16.557l4.71-3.768a.568.568 0 0 0-.35-1.018h-.65a.574.574 0 0 1-.57-.571v-2.948c0-.79.64-1.429 1.43-1.429h1.31c1.27 0 2.34.221 3.2.664.87.443 1.52 1.133 1.96 2.07.44.938.66 2.146.66 3.623 0 1.491-.22 2.709-.66 3.653-.44.937-1.09 1.63-1.97 2.08-.86.443-1.93.664-3.2.664h-2.74l-4.08.05a.576.576 0 0 0-.36.132l-2.92 2.43a.572.572 0 0 0 .37 1.011Z" fill="#DFDFFA"/><path d="M837.576 125h9.91c2.064 0 3.836-.4 5.318-1.201a8.18 8.18 0 0 0 3.422-3.447c.801-1.498 1.201-3.288 1.201-5.372 0-2.076-.4-3.86-1.201-5.351a8.162 8.162 0 0 0-3.402-3.428c-1.475-.801-3.235-1.201-5.278-1.201h-4.405a2.857 2.857 0 0 0-2.857 2.857v9.943c0 .598.693.931 1.16.557l4.711-3.768a.572.572 0 0 0-.357-1.018h-.647a.57.57 0 0 1-.571-.571v-2.948c0-.789.639-1.429 1.428-1.429h1.31c1.269 0 2.338.221 3.204.664.866.443 1.518 1.133 1.954 2.07.443.938.665 2.146.665 3.623 0 1.491-.222 2.709-.665 3.653-.436.937-1.091 1.631-1.964 2.08-.866.443-1.934.664-3.204.664h-2.738l-4.083.049a.57.57 0 0 0-.359.133l-2.917 2.431a.571.571 0 0 0 .365 1.01Zm-236-62h9.91c2.064 0 3.836-.4 5.318-1.201a8.177 8.177 0 0 0 3.422-3.447c.801-1.498 1.201-3.288 1.201-5.371 0-2.077-.4-3.861-1.201-5.352a8.163 8.163 0 0 0-3.402-3.428c-1.475-.8-3.235-1.201-5.278-1.201h-4.405a2.857 2.857 0 0 0-2.857 2.857V55.8c0 .599.693.931 1.16.557l4.711-3.768a.572.572 0 0 0-.357-1.018h-.647a.572.572 0 0 1-.572-.571v-2.948c0-.79.64-1.429 1.429-1.429h1.31c1.269 0 2.338.221 3.204.664.866.443 1.518 1.133 1.954 2.07.443.938.665 2.146.665 3.623 0 1.491-.222 2.709-.665 3.653-.436.937-1.091 1.63-1.964 2.08-.866.443-1.934.664-3.204.664h-2.738l-4.083.05a.573.573 0 0 0-.359.132l-2.917 2.43a.571.571 0 0 0 .365 1.011Z" fill="#E5E8FF"/></g><defs><filter id="filter0_b_22053_66326" x="-14" y="-14" width="1404" height="228" filterUnits="userSpaceOnUse" color-interpolation-filters="sRGB"><feFlood flood-opacity="0" result="BackgroundImageFix"/><feGaussianBlur in="BackgroundImageFix" stdDeviation="7"/><feComposite in2="SourceAlpha" operator="in" result="effect1_backgroundBlur_22053_66326"/><feBlend mode="normal" in="SourceGraphic" in2="effect1_backgroundBlur_22053_66326" result="shape"/></filter><clipPath id="clip0_22053_66326"><rect width="1376" height="104" fill="white"/></clipPath></defs></svg>