<svg width="1376" height="104" viewBox="0 0 1376 104" fill="none" xmlns="http://www.w3.org/2000/svg">
<g clip-path="url(#clip0_22053_66326)">
<g filter="url(#filter0_b_22053_66326)">
<path d="M0 0H1376V200H0V0Z" fill="#F8F8FF"/>
</g>
<mask id="path-2-inside-1_22053_66326" fill="white">
<path d="M1379.75 -38.0855C1382.76 -39.8244 1386.46 -39.8244 1389.47 -38.0855L1407.82 -27.4821C1410.83 -25.7433 1412.68 -22.5298 1412.68 -19.0522V2.15471C1412.68 5.63235 1410.83 8.84582 1407.82 10.5846L1389.47 21.1881C1386.46 22.9269 1382.76 22.9269 1379.75 21.1881L1361.4 10.5846C1358.4 8.84582 1356.54 5.63235 1356.54 2.15471V-19.0522C1356.54 -22.5298 1358.4 -25.7433 1361.4 -27.4821L1379.75 -38.0855Z"/>
<path d="M1447.09 -38.0855C1450.09 -39.8244 1453.8 -39.8244 1456.81 -38.0855L1475.15 -27.4821C1478.16 -25.7433 1480.02 -22.5298 1480.02 -19.0522V2.15471C1480.02 5.63235 1478.16 8.84582 1475.15 10.5846L1456.81 21.1881C1453.8 22.9269 1450.09 22.9269 1447.09 21.1881L1428.74 10.5846C1425.73 8.84582 1423.88 5.63235 1423.88 2.15471V-19.0522C1423.88 -22.5298 1425.73 -25.7433 1428.74 -27.4821L1447.09 -38.0855Z"/>
<path d="M1413.42 23.5246C1416.43 21.7858 1420.13 21.7858 1423.14 23.5246L1441.49 34.128C1444.49 35.8668 1446.35 39.0803 1446.35 42.558V63.7648C1446.35 67.2425 1444.49 70.4559 1441.49 72.1947L1423.14 82.7982C1420.13 84.537 1416.43 84.537 1413.42 82.7982L1395.07 72.1947C1392.06 70.4559 1390.21 67.2425 1390.21 63.7648V42.5579C1390.21 39.0803 1392.06 35.8668 1395.07 34.128L1413.42 23.5246Z"/>
<path d="M1379.75 85.1347C1382.76 83.3959 1386.46 83.3959 1389.47 85.1347L1407.82 95.7381C1410.83 97.4769 1412.68 100.69 1412.68 104.168V125.375C1412.68 128.853 1410.83 132.066 1407.82 133.805L1389.47 144.408C1386.46 146.147 1382.76 146.147 1379.75 144.408L1361.4 133.805C1358.4 132.066 1356.54 128.853 1356.54 125.375V104.168C1356.54 100.69 1358.4 97.4769 1361.4 95.7381L1379.75 85.1347Z"/>
<path d="M1447.09 85.1347C1450.09 83.3959 1453.8 83.3959 1456.81 85.1347L1475.15 95.7381C1478.16 97.4769 1480.02 100.69 1480.02 104.168V125.375C1480.02 128.853 1478.16 132.066 1475.15 133.805L1456.81 144.408C1453.8 146.147 1450.09 146.147 1447.09 144.408L1428.74 133.805C1425.73 132.066 1423.88 128.853 1423.88 125.375V104.168C1423.88 100.69 1425.73 97.4769 1428.74 95.7381L1447.09 85.1347Z"/>
<path d="M1413.42 146.745C1416.43 145.006 1420.13 145.006 1423.14 146.745L1441.49 157.348C1444.49 159.087 1446.35 162.301 1446.35 165.778V186.985C1446.35 190.463 1444.49 193.676 1441.49 195.415L1423.14 206.018C1420.13 207.757 1416.43 207.757 1413.42 206.018L1395.07 195.415C1392.06 193.676 1390.21 190.463 1390.21 186.985V165.778C1390.21 162.301 1392.06 159.087 1395.07 157.348L1413.42 146.745Z"/>
<path d="M35.7487 -38.0855C38.7571 -39.8244 42.4635 -39.8244 45.4719 -38.0855L63.817 -27.4821C66.8253 -25.7433 68.6786 -22.5298 68.6786 -19.0522V2.15471C68.6786 5.63235 66.8253 8.84582 63.817 10.5846L45.4719 21.1881C42.4635 22.9269 38.7571 22.9269 35.7487 21.1881L17.4036 10.5846C14.3953 8.84582 12.5421 5.63235 12.5421 2.15471V-19.0522C12.5421 -22.5298 14.3953 -25.7433 17.4036 -27.4821L35.7487 -38.0855Z"/>
<path d="M103.087 -38.0855C106.095 -39.8244 109.801 -39.8244 112.81 -38.0855L131.155 -27.4821C134.163 -25.7433 136.016 -22.5298 136.016 -19.0522V2.15471C136.016 5.63235 134.163 8.84582 131.155 10.5846L112.81 21.1881C109.801 22.9269 106.095 22.9269 103.087 21.1881L84.7415 10.5846C81.7332 8.84582 79.88 5.63235 79.88 2.15471V-19.0522C79.88 -22.5298 81.7332 -25.7433 84.7415 -27.4821L103.087 -38.0855Z"/>
<path d="M170.234 -38.0855C173.243 -39.8244 176.949 -39.8244 179.957 -38.0855L198.303 -27.4821C201.311 -25.7433 203.164 -22.5298 203.164 -19.0522V2.15471C203.164 5.63235 201.311 8.84582 198.303 10.5846L179.957 21.1881C176.949 22.9269 173.243 22.9269 170.234 21.1881L151.889 10.5846C148.881 8.84582 147.028 5.63235 147.028 2.15471V-19.0522C147.028 -22.5298 148.881 -25.7433 151.889 -27.4821L170.234 -38.0855Z"/>
<path d="M237.445 -38.0855C240.454 -39.8244 244.16 -39.8244 247.168 -38.0855L265.514 -27.4821C268.522 -25.7433 270.375 -22.5298 270.375 -19.0522V2.15471C270.375 5.63235 268.522 8.84582 265.514 10.5846L247.168 21.1881C244.16 22.9269 240.454 22.9269 237.445 21.1881L219.1 10.5846C216.092 8.84582 214.239 5.63235 214.239 2.15471V-19.0522C214.239 -22.5298 216.092 -25.7433 219.1 -27.4821L237.445 -38.0855Z"/>
<path d="M304.656 -38.0855C307.665 -39.8244 311.371 -39.8244 314.379 -38.0855L332.725 -27.4821C335.733 -25.7433 337.586 -22.5298 337.586 -19.0522V2.15471C337.586 5.63235 335.733 8.84582 332.725 10.5846L314.379 21.1881C311.371 22.9269 307.665 22.9269 304.656 21.1881L286.311 10.5846C283.303 8.84582 281.45 5.63235 281.45 2.15471V-19.0522C281.45 -22.5298 283.303 -25.7433 286.311 -27.4821L304.656 -38.0855Z"/>
<path d="M371.804 -38.0855C374.812 -39.8244 378.519 -39.8244 381.527 -38.0855L399.872 -27.4821C402.881 -25.7433 404.734 -22.5298 404.734 -19.0522V2.15471C404.734 5.63235 402.881 8.84582 399.872 10.5846L381.527 21.1881C378.519 22.9269 374.812 22.9269 371.804 21.1881L353.459 10.5846C350.45 8.84582 348.597 5.63235 348.597 2.15471V-19.0522C348.597 -22.5298 350.45 -25.7433 353.459 -27.4821L371.804 -38.0855Z"/>
<path d="M439.015 -38.0855C442.023 -39.8244 445.73 -39.8244 448.738 -38.0855L467.083 -27.4821C470.092 -25.7433 471.945 -22.5298 471.945 -19.0522V2.15471C471.945 5.63235 470.092 8.84582 467.083 10.5846L448.738 21.1881C445.73 22.9269 442.023 22.9269 439.015 21.1881L420.67 10.5846C417.662 8.84582 415.808 5.63235 415.808 2.15471V-19.0522C415.808 -22.5298 417.662 -25.7433 420.67 -27.4821L439.015 -38.0855Z"/>
<path d="M2.20667 23.5246C5.21501 21.7858 8.92146 21.7858 11.9298 23.5246L30.2749 34.128C33.2833 35.8668 35.1365 39.0803 35.1365 42.558V63.7648C35.1365 67.2425 33.2833 70.4559 30.2749 72.1947L11.9298 82.7982C8.92146 84.537 5.21501 84.537 2.20667 82.7982L-16.1385 72.1947C-19.1468 70.4559 -21 67.2425 -21 63.7648V42.5579C-21 39.0803 -19.1468 35.8668 -16.1385 34.128L2.20667 23.5246Z"/>
<path d="M69.4177 23.5246C72.4261 21.7858 76.1325 21.7858 79.1408 23.5246L97.486 34.128C100.494 35.8668 102.348 39.0803 102.348 42.558V63.7648C102.348 67.2425 100.494 70.4559 97.486 72.1947L79.1408 82.7982C76.1325 84.537 72.4261 84.537 69.4177 82.7982L51.0726 72.1947C48.0642 70.4559 46.211 67.2425 46.211 63.7648V42.5579C46.211 39.0803 48.0642 35.8668 51.0726 34.128L69.4177 23.5246Z"/>
<path d="M136.756 23.5246C139.764 21.7858 143.47 21.7858 146.479 23.5246L164.824 34.128C167.832 35.8668 169.685 39.0803 169.685 42.558V63.7648C169.685 67.2425 167.832 70.4559 164.824 72.1947L146.479 82.7982C143.47 84.537 139.764 84.537 136.756 82.7982L118.411 72.1947C115.402 70.4559 113.549 67.2425 113.549 63.7648V42.5579C113.549 39.0803 115.402 35.8668 118.411 34.128L136.756 23.5246Z"/>
<path d="M203.903 23.5246C206.912 21.7858 210.618 21.7858 213.626 23.5246L231.971 34.128C234.98 35.8668 236.833 39.0803 236.833 42.558V63.7648C236.833 67.2425 234.98 70.4559 231.971 72.1947L213.626 82.7982C210.618 84.537 206.912 84.537 203.903 82.7982L185.558 72.1947C182.55 70.4559 180.697 67.2425 180.697 63.7648V42.5579C180.697 39.0803 182.55 35.8668 185.558 34.128L203.903 23.5246Z"/>
<path d="M271.114 23.5246C274.123 21.7858 277.829 21.7858 280.837 23.5246L299.182 34.128C302.191 35.8668 304.044 39.0803 304.044 42.558V63.7648C304.044 67.2425 302.191 70.4559 299.182 72.1947L280.837 82.7982C277.829 84.537 274.123 84.537 271.114 82.7982L252.769 72.1947C249.761 70.4559 247.908 67.2425 247.908 63.7648V42.5579C247.908 39.0803 249.761 35.8668 252.769 34.128L271.114 23.5246Z"/>
<path d="M338.325 23.5246C341.334 21.7858 345.04 21.7858 348.048 23.5246L366.394 34.128C369.402 35.8668 371.255 39.0803 371.255 42.558V63.7648C371.255 67.2425 369.402 70.4559 366.394 72.1947L348.048 82.7982C345.04 84.537 341.334 84.537 338.325 82.7982L319.98 72.1947C316.972 70.4559 315.119 67.2425 315.119 63.7648V42.5579C315.119 39.0803 316.972 35.8668 319.98 34.128L338.325 23.5246Z"/>
<path d="M405.473 23.5246C408.481 21.7858 412.188 21.7858 415.196 23.5246L433.541 34.128C436.549 35.8668 438.403 39.0803 438.403 42.558V63.7648C438.403 67.2425 436.549 70.4559 433.541 72.1947L415.196 82.7982C412.188 84.537 408.481 84.537 405.473 82.7982L387.128 72.1947C384.119 70.4559 382.266 67.2425 382.266 63.7648V42.5579C382.266 39.0803 384.119 35.8668 387.128 34.128L405.473 23.5246Z"/>
<path d="M472.684 23.5246C475.692 21.7858 479.399 21.7858 482.407 23.5246L500.752 34.128C503.761 35.8668 505.614 39.0803 505.614 42.558V63.7648C505.614 67.2425 503.761 70.4559 500.752 72.1947L482.407 82.7982C479.399 84.537 475.692 84.537 472.684 82.7982L454.339 72.1947C451.33 70.4559 449.477 67.2425 449.477 63.7648V42.5579C449.477 39.0803 451.33 35.8668 454.339 34.128L472.684 23.5246Z"/>
<path d="M35.7487 85.1347C38.7571 83.3959 42.4635 83.3959 45.4719 85.1347L63.817 95.7381C66.8253 97.4769 68.6786 100.69 68.6786 104.168V125.375C68.6786 128.853 66.8253 132.066 63.817 133.805L45.4719 144.408C42.4635 146.147 38.7571 146.147 35.7487 144.408L17.4036 133.805C14.3953 132.066 12.5421 128.853 12.5421 125.375V104.168C12.5421 100.69 14.3953 97.4769 17.4036 95.7381L35.7487 85.1347Z"/>
<path d="M103.087 85.1347C106.095 83.3959 109.801 83.3959 112.81 85.1347L131.155 95.7381C134.163 97.4769 136.016 100.69 136.016 104.168V125.375C136.016 128.853 134.163 132.066 131.155 133.805L112.81 144.408C109.801 146.147 106.095 146.147 103.087 144.408L84.7415 133.805C81.7332 132.066 79.88 128.853 79.88 125.375V104.168C79.88 100.69 81.7332 97.4769 84.7415 95.7381L103.087 85.1347Z"/>
<path d="M170.234 85.1347C173.243 83.3959 176.949 83.3959 179.957 85.1347L198.303 95.7381C201.311 97.4769 203.164 100.69 203.164 104.168V125.375C203.164 128.853 201.311 132.066 198.303 133.805L179.957 144.408C176.949 146.147 173.243 146.147 170.234 144.408L151.889 133.805C148.881 132.066 147.028 128.853 147.028 125.375V104.168C147.028 100.69 148.881 97.4769 151.889 95.7381L170.234 85.1347Z"/>
<path d="M237.445 85.1347C240.454 83.3959 244.16 83.3959 247.168 85.1347L265.514 95.7381C268.522 97.4769 270.375 100.69 270.375 104.168V125.375C270.375 128.853 268.522 132.066 265.514 133.805L247.168 144.408C244.16 146.147 240.454 146.147 237.445 144.408L219.1 133.805C216.092 132.066 214.239 128.853 214.239 125.375V104.168C214.239 100.69 216.092 97.4769 219.1 95.7381L237.445 85.1347Z"/>
<path d="M304.656 85.1347C307.665 83.3959 311.371 83.3959 314.379 85.1347L332.725 95.7381C335.733 97.4769 337.586 100.69 337.586 104.168V125.375C337.586 128.853 335.733 132.066 332.725 133.805L314.379 144.408C311.371 146.147 307.665 146.147 304.656 144.408L286.311 133.805C283.303 132.066 281.45 128.853 281.45 125.375V104.168C281.45 100.69 283.303 97.4769 286.311 95.7381L304.656 85.1347Z"/>
<path d="M371.804 85.1347C374.812 83.3959 378.519 83.3959 381.527 85.1347L399.872 95.7381C402.881 97.4769 404.734 100.69 404.734 104.168V125.375C404.734 128.853 402.881 132.066 399.872 133.805L381.527 144.408C378.519 146.147 374.812 146.147 371.804 144.408L353.459 133.805C350.45 132.066 348.597 128.853 348.597 125.375V104.168C348.597 100.69 350.45 97.4769 353.459 95.7381L371.804 85.1347Z"/>
<path d="M439.015 85.1347C442.023 83.3959 445.73 83.3959 448.738 85.1347L467.083 95.7381C470.092 97.4769 471.945 100.69 471.945 104.168V125.375C471.945 128.853 470.092 132.066 467.083 133.805L448.738 144.408C445.73 146.147 442.023 146.147 439.015 144.408L420.67 133.805C417.662 132.066 415.808 128.853 415.808 125.375V104.168C415.808 100.69 417.662 97.4769 420.67 95.7381L439.015 85.1347Z"/>
<path d="M2.20667 146.745C5.21501 145.006 8.92146 145.006 11.9298 146.745L30.2749 157.348C33.2833 159.087 35.1365 162.301 35.1365 165.778V186.985C35.1365 190.463 33.2833 193.676 30.2749 195.415L11.9298 206.018C8.92146 207.757 5.21501 207.757 2.20667 206.018L-16.1385 195.415C-19.1468 193.676 -21 190.463 -21 186.985V165.778C-21 162.301 -19.1468 159.087 -16.1385 157.348L2.20667 146.745Z"/>
<path d="M69.4177 146.745C72.4261 145.006 76.1325 145.006 79.1408 146.745L97.486 157.348C100.494 159.087 102.348 162.301 102.348 165.778V186.985C102.348 190.463 100.494 193.676 97.486 195.415L79.1408 206.018C76.1325 207.757 72.4261 207.757 69.4177 206.018L51.0726 195.415C48.0642 193.676 46.211 190.463 46.211 186.985V165.778C46.211 162.301 48.0642 159.087 51.0726 157.348L69.4177 146.745Z"/>
<path d="M136.756 146.745C139.764 145.006 143.47 145.006 146.479 146.745L164.824 157.348C167.832 159.087 169.685 162.301 169.685 165.778V186.985C169.685 190.463 167.832 193.676 164.824 195.415L146.479 206.018C143.47 207.757 139.764 207.757 136.756 206.018L118.411 195.415C115.402 193.676 113.549 190.463 113.549 186.985V165.778C113.549 162.301 115.402 159.087 118.411 157.348L136.756 146.745Z"/>
<path d="M203.903 146.745C206.912 145.006 210.618 145.006 213.626 146.745L231.971 157.348C234.98 159.087 236.833 162.301 236.833 165.778V186.985C236.833 190.463 234.98 193.676 231.971 195.415L213.626 206.018C210.618 207.757 206.912 207.757 203.903 206.018L185.558 195.415C182.55 193.676 180.697 190.463 180.697 186.985V165.778C180.697 162.301 182.55 159.087 185.558 157.348L203.903 146.745Z"/>
<path d="M271.114 146.745C274.123 145.006 277.829 145.006 280.837 146.745L299.182 157.348C302.191 159.087 304.044 162.301 304.044 165.778V186.985C304.044 190.463 302.191 193.676 299.182 195.415L280.837 206.018C277.829 207.757 274.123 207.757 271.114 206.018L252.769 195.415C249.761 193.676 247.908 190.463 247.908 186.985V165.778C247.908 162.301 249.761 159.087 252.769 157.348L271.114 146.745Z"/>
<path d="M338.325 146.745C341.334 145.006 345.04 145.006 348.048 146.745L366.394 157.348C369.402 159.087 371.255 162.301 371.255 165.778V186.985C371.255 190.463 369.402 193.676 366.394 195.415L348.048 206.018C345.04 207.757 341.334 207.757 338.325 206.018L319.98 195.415C316.972 193.676 315.119 190.463 315.119 186.985V165.778C315.119 162.301 316.972 159.087 319.98 157.348L338.325 146.745Z"/>
<path d="M405.473 146.745C408.481 145.006 412.188 145.006 415.196 146.745L433.541 157.348C436.549 159.087 438.403 162.301 438.403 165.778V186.985C438.403 190.463 436.549 193.676 433.541 195.415L415.196 206.018C412.188 207.757 408.481 207.757 405.473 206.018L387.128 195.415C384.119 193.676 382.266 190.463 382.266 186.985V165.778C382.266 162.301 384.119 159.087 387.128 157.348L405.473 146.745Z"/>
<path d="M472.684 146.745C475.692 145.006 479.399 145.006 482.407 146.745L500.752 157.348C503.761 159.087 505.614 162.301 505.614 165.778V186.985C505.614 190.463 503.761 193.676 500.752 195.415L482.407 206.018C479.399 207.757 475.692 207.757 472.684 206.018L454.339 195.415C451.33 193.676 449.477 190.463 449.477 186.985V165.778C449.477 162.301 451.33 159.087 454.339 157.348L472.684 146.745Z"/>
<path d="M977.087 -38.0855C980.095 -39.8244 983.801 -39.8244 986.81 -38.0855L1005.15 -27.4821C1008.16 -25.7433 1010.02 -22.5298 1010.02 -19.0522V2.15471C1010.02 5.63235 1008.16 8.84582 1005.15 10.5846L986.81 21.1881C983.801 22.9269 980.095 22.9269 977.087 21.1881L958.742 10.5846C955.733 8.84582 953.88 5.63235 953.88 2.15471V-19.0522C953.88 -22.5298 955.733 -25.7433 958.742 -27.4821L977.087 -38.0855Z"/>
<path d="M1044.23 -38.0855C1047.24 -39.8244 1050.95 -39.8244 1053.96 -38.0855L1072.3 -27.4821C1075.31 -25.7433 1077.16 -22.5298 1077.16 -19.0522V2.15471C1077.16 5.63235 1075.31 8.84582 1072.3 10.5846L1053.96 21.1881C1050.95 22.9269 1047.24 22.9269 1044.23 21.1881L1025.89 10.5846C1022.88 8.84582 1021.03 5.63235 1021.03 2.15471V-19.0522C1021.03 -22.5298 1022.88 -25.7433 1025.89 -27.4821L1044.23 -38.0855Z"/>
<path d="M1111.45 -38.0855C1114.45 -39.8244 1118.16 -39.8244 1121.17 -38.0855L1139.51 -27.4821C1142.52 -25.7433 1144.38 -22.5298 1144.38 -19.0522V2.15471C1144.38 5.63235 1142.52 8.84582 1139.51 10.5846L1121.17 21.1881C1118.16 22.9269 1114.45 22.9269 1111.45 21.1881L1093.1 10.5846C1090.09 8.84582 1088.24 5.63235 1088.24 2.15471V-19.0522C1088.24 -22.5298 1090.09 -25.7433 1093.1 -27.4821L1111.45 -38.0855Z"/>
<path d="M1178.66 -38.0855C1181.66 -39.8244 1185.37 -39.8244 1188.38 -38.0855L1206.72 -27.4821C1209.73 -25.7433 1211.59 -22.5298 1211.59 -19.0522V2.15471C1211.59 5.63235 1209.73 8.84582 1206.72 10.5846L1188.38 21.1881C1185.37 22.9269 1181.66 22.9269 1178.66 21.1881L1160.31 10.5846C1157.3 8.84582 1155.45 5.63235 1155.45 2.15471V-19.0522C1155.45 -22.5298 1157.3 -25.7433 1160.31 -27.4821L1178.66 -38.0855Z"/>
<path d="M1245.8 -38.0855C1248.81 -39.8244 1252.52 -39.8244 1255.53 -38.0855L1273.87 -27.4821C1276.88 -25.7433 1278.73 -22.5298 1278.73 -19.0522V2.15471C1278.73 5.63235 1276.88 8.84582 1273.87 10.5846L1255.53 21.1881C1252.52 22.9269 1248.81 22.9269 1245.8 21.1881L1227.46 10.5846C1224.45 8.84582 1222.6 5.63235 1222.6 2.15471V-19.0522C1222.6 -22.5298 1224.45 -25.7433 1227.46 -27.4821L1245.8 -38.0855Z"/>
<path d="M1313.01 -38.0855C1316.02 -39.8244 1319.73 -39.8244 1322.74 -38.0855L1341.08 -27.4821C1344.09 -25.7433 1345.94 -22.5298 1345.94 -19.0522V2.15471C1345.94 5.63235 1344.09 8.84582 1341.08 10.5846L1322.74 21.1881C1319.73 22.9269 1316.02 22.9269 1313.01 21.1881L1294.67 10.5846C1291.66 8.84582 1289.81 5.63235 1289.81 2.15471V-19.0522C1289.81 -22.5298 1291.66 -25.7433 1294.67 -27.4821L1313.01 -38.0855Z"/>
<path d="M1010.76 23.5246C1013.76 21.7858 1017.47 21.7858 1020.48 23.5246L1038.82 34.128C1041.83 35.8668 1043.69 39.0803 1043.69 42.558V63.7648C1043.69 67.2425 1041.83 70.4559 1038.82 72.1947L1020.48 82.7982C1017.47 84.537 1013.76 84.537 1010.76 82.7982L992.411 72.1947C989.402 70.4559 987.549 67.2425 987.549 63.7648V42.5579C987.549 39.0803 989.402 35.8668 992.411 34.128L1010.76 23.5246Z"/>
<path d="M1077.9 23.5246C1080.91 21.7858 1084.62 21.7858 1087.63 23.5246L1105.97 34.128C1108.98 35.8668 1110.83 39.0803 1110.83 42.558V63.7648C1110.83 67.2425 1108.98 70.4559 1105.97 72.1947L1087.63 82.7982C1084.62 84.537 1080.91 84.537 1077.9 82.7982L1059.56 72.1947C1056.55 70.4559 1054.7 67.2425 1054.7 63.7648V42.5579C1054.7 39.0803 1056.55 35.8668 1059.56 34.128L1077.9 23.5246Z"/>
<path d="M1145.11 23.5246C1148.12 21.7858 1151.83 21.7858 1154.84 23.5246L1173.18 34.128C1176.19 35.8668 1178.04 39.0803 1178.04 42.558V63.7648C1178.04 67.2425 1176.19 70.4559 1173.18 72.1947L1154.84 82.7982C1151.83 84.537 1148.12 84.537 1145.11 82.7982L1126.77 72.1947C1123.76 70.4559 1121.91 67.2425 1121.91 63.7648V42.5579C1121.91 39.0803 1123.76 35.8668 1126.77 34.128L1145.11 23.5246Z"/>
<path d="M1212.33 23.5246C1215.33 21.7858 1219.04 21.7858 1222.05 23.5246L1240.39 34.128C1243.4 35.8668 1245.26 39.0803 1245.26 42.558V63.7648C1245.26 67.2425 1243.4 70.4559 1240.39 72.1947L1222.05 82.7982C1219.04 84.537 1215.33 84.537 1212.33 82.7982L1193.98 72.1947C1190.97 70.4559 1189.12 67.2425 1189.12 63.7648V42.5579C1189.12 39.0803 1190.97 35.8668 1193.98 34.128L1212.33 23.5246Z"/>
<path d="M1279.47 23.5246C1282.48 21.7858 1286.19 21.7858 1289.2 23.5246L1307.54 34.128C1310.55 35.8668 1312.4 39.0803 1312.4 42.558V63.7648C1312.4 67.2425 1310.55 70.4559 1307.54 72.1947L1289.2 82.7982C1286.19 84.537 1282.48 84.537 1279.47 82.7982L1261.13 72.1947C1258.12 70.4559 1256.27 67.2425 1256.27 63.7648V42.5579C1256.27 39.0803 1258.12 35.8668 1261.13 34.128L1279.47 23.5246Z"/>
<path d="M1346.68 23.5246C1349.69 21.7858 1353.4 21.7858 1356.41 23.5246L1374.75 34.128C1377.76 35.8668 1379.61 39.0803 1379.61 42.558V63.7648C1379.61 67.2425 1377.76 70.4559 1374.75 72.1947L1356.41 82.7982C1353.4 84.537 1349.69 84.537 1346.68 82.7982L1328.34 72.1947C1325.33 70.4559 1323.48 67.2425 1323.48 63.7648V42.5579C1323.48 39.0803 1325.33 35.8668 1328.34 34.128L1346.68 23.5246Z"/>
<path d="M977.087 85.1347C980.095 83.3959 983.801 83.3959 986.81 85.1347L1005.15 95.7381C1008.16 97.4769 1010.02 100.69 1010.02 104.168V125.375C1010.02 128.853 1008.16 132.066 1005.15 133.805L986.81 144.408C983.801 146.147 980.095 146.147 977.087 144.408L958.742 133.805C955.733 132.066 953.88 128.853 953.88 125.375V104.168C953.88 100.69 955.733 97.4769 958.742 95.7381L977.087 85.1347Z"/>
<path d="M1044.23 85.1347C1047.24 83.3959 1050.95 83.3959 1053.96 85.1347L1072.3 95.7381C1075.31 97.4769 1077.16 100.69 1077.16 104.168V125.375C1077.16 128.853 1075.31 132.066 1072.3 133.805L1053.96 144.408C1050.95 146.147 1047.24 146.147 1044.23 144.408L1025.89 133.805C1022.88 132.066 1021.03 128.853 1021.03 125.375V104.168C1021.03 100.69 1022.88 97.4769 1025.89 95.7381L1044.23 85.1347Z"/>
<path d="M1111.45 85.1347C1114.45 83.3959 1118.16 83.3959 1121.17 85.1347L1139.51 95.7381C1142.52 97.4769 1144.38 100.69 1144.38 104.168V125.375C1144.38 128.853 1142.52 132.066 1139.51 133.805L1121.17 144.408C1118.16 146.147 1114.45 146.147 1111.45 144.408L1093.1 133.805C1090.09 132.066 1088.24 128.853 1088.24 125.375V104.168C1088.24 100.69 1090.09 97.4769 1093.1 95.7381L1111.45 85.1347Z"/>
<path d="M1178.66 85.1347C1181.66 83.3959 1185.37 83.3959 1188.38 85.1347L1206.72 95.7381C1209.73 97.4769 1211.59 100.69 1211.59 104.168V125.375C1211.59 128.853 1209.73 132.066 1206.72 133.805L1188.38 144.408C1185.37 146.147 1181.66 146.147 1178.66 144.408L1160.31 133.805C1157.3 132.066 1155.45 128.853 1155.45 125.375V104.168C1155.45 100.69 1157.3 97.4769 1160.31 95.7381L1178.66 85.1347Z"/>
<path d="M1245.8 85.1347C1248.81 83.3959 1252.52 83.3959 1255.53 85.1347L1273.87 95.7381C1276.88 97.4769 1278.73 100.69 1278.73 104.168V125.375C1278.73 128.853 1276.88 132.066 1273.87 133.805L1255.53 144.408C1252.52 146.147 1248.81 146.147 1245.8 144.408L1227.46 133.805C1224.45 132.066 1222.6 128.853 1222.6 125.375V104.168C1222.6 100.69 1224.45 97.4769 1227.46 95.7381L1245.8 85.1347Z"/>
<path d="M1313.01 85.1347C1316.02 83.3959 1319.73 83.3959 1322.74 85.1347L1341.08 95.7381C1344.09 97.4769 1345.94 100.69 1345.94 104.168V125.375C1345.94 128.853 1344.09 132.066 1341.08 133.805L1322.74 144.408C1319.73 146.147 1316.02 146.147 1313.01 144.408L1294.67 133.805C1291.66 132.066 1289.81 128.853 1289.81 125.375V104.168C1289.81 100.69 1291.66 97.4769 1294.67 95.7381L1313.01 85.1347Z"/>
<path d="M1010.76 146.745C1013.76 145.006 1017.47 145.006 1020.48 146.745L1038.82 157.348C1041.83 159.087 1043.69 162.301 1043.69 165.778V186.985C1043.69 190.463 1041.83 193.676 1038.82 195.415L1020.48 206.018C1017.47 207.757 1013.76 207.757 1010.76 206.018L992.411 195.415C989.402 193.676 987.549 190.463 987.549 186.985V165.778C987.549 162.301 989.402 159.087 992.411 157.348L1010.76 146.745Z"/>
<path d="M1077.9 146.745C1080.91 145.006 1084.62 145.006 1087.63 146.745L1105.97 157.348C1108.98 159.087 1110.83 162.301 1110.83 165.778V186.985C1110.83 190.463 1108.98 193.676 1105.97 195.415L1087.63 206.018C1084.62 207.757 1080.91 207.757 1077.9 206.018L1059.56 195.415C1056.55 193.676 1054.7 190.463 1054.7 186.985V165.778C1054.7 162.301 1056.55 159.087 1059.56 157.348L1077.9 146.745Z"/>
<path d="M1145.11 146.745C1148.12 145.006 1151.83 145.006 1154.84 146.745L1173.18 157.348C1176.19 159.087 1178.04 162.301 1178.04 165.778V186.985C1178.04 190.463 1176.19 193.676 1173.18 195.415L1154.84 206.018C1151.83 207.757 1148.12 207.757 1145.11 206.018L1126.77 195.415C1123.76 193.676 1121.91 190.463 1121.91 186.985V165.778C1121.91 162.301 1123.76 159.087 1126.77 157.348L1145.11 146.745Z"/>
<path d="M1212.33 146.745C1215.33 145.006 1219.04 145.006 1222.05 146.745L1240.39 157.348C1243.4 159.087 1245.26 162.301 1245.26 165.778V186.985C1245.26 190.463 1243.4 193.676 1240.39 195.415L1222.05 206.018C1219.04 207.757 1215.33 207.757 1212.33 206.018L1193.98 195.415C1190.97 193.676 1189.12 190.463 1189.12 186.985V165.778C1189.12 162.301 1190.97 159.087 1193.98 157.348L1212.33 146.745Z"/>
<path d="M1279.47 146.745C1282.48 145.006 1286.19 145.006 1289.2 146.745L1307.54 157.348C1310.55 159.087 1312.4 162.301 1312.4 165.778V186.985C1312.4 190.463 1310.55 193.676 1307.54 195.415L1289.2 206.018C1286.19 207.757 1282.48 207.757 1279.47 206.018L1261.13 195.415C1258.12 193.676 1256.27 190.463 1256.27 186.985V165.778C1256.27 162.301 1258.12 159.087 1261.13 157.348L1279.47 146.745Z"/>
<path d="M1346.68 146.745C1349.69 145.006 1353.4 145.006 1356.41 146.745L1374.75 157.348C1377.76 159.087 1379.61 162.301 1379.61 165.778V186.985C1379.61 190.463 1377.76 193.676 1374.75 195.415L1356.41 206.018C1353.4 207.757 1349.69 207.757 1346.68 206.018L1328.34 195.415C1325.33 193.676 1323.48 190.463 1323.48 186.985V165.778C1323.48 162.301 1325.33 159.087 1328.34 157.348L1346.68 146.745Z"/>
<path d="M506.749 -38.0855C509.757 -39.8244 513.464 -39.8244 516.472 -38.0855L534.817 -27.4821C537.825 -25.7433 539.679 -22.5298 539.679 -19.0522V2.15471C539.679 5.63235 537.825 8.84582 534.817 10.5846L516.472 21.1881C513.464 22.9269 509.757 22.9269 506.749 21.1881L488.404 10.5846C485.395 8.84582 483.542 5.63235 483.542 2.15471V-19.0522C483.542 -22.5298 485.395 -25.7433 488.404 -27.4821L506.749 -38.0855Z"/>
<path d="M574.087 -38.0855C577.095 -39.8244 580.801 -39.8244 583.81 -38.0855L602.155 -27.4821C605.163 -25.7433 607.016 -22.5298 607.016 -19.0522V2.15471C607.016 5.63235 605.163 8.84582 602.155 10.5846L583.81 21.1881C580.801 22.9269 577.095 22.9269 574.087 21.1881L555.742 10.5846C552.733 8.84582 550.88 5.63235 550.88 2.15471V-19.0522C550.88 -22.5298 552.733 -25.7433 555.742 -27.4821L574.087 -38.0855Z"/>
<path d="M641.234 -38.0855C644.243 -39.8244 647.949 -39.8244 650.957 -38.0855L669.303 -27.4821C672.311 -25.7433 674.164 -22.5298 674.164 -19.0522V2.15471C674.164 5.63235 672.311 8.84582 669.303 10.5846L650.957 21.1881C647.949 22.9269 644.243 22.9269 641.234 21.1881L622.889 10.5846C619.881 8.84582 618.028 5.63235 618.028 2.15471V-19.0522C618.028 -22.5298 619.881 -25.7433 622.889 -27.4821L641.234 -38.0855Z"/>
<path d="M708.445 -38.0855C711.454 -39.8244 715.16 -39.8244 718.168 -38.0855L736.514 -27.4821C739.522 -25.7433 741.375 -22.5298 741.375 -19.0522V2.15471C741.375 5.63235 739.522 8.84582 736.514 10.5846L718.168 21.1881C715.16 22.9269 711.454 22.9269 708.445 21.1881L690.1 10.5846C687.092 8.84582 685.239 5.63235 685.239 2.15471V-19.0522C685.239 -22.5298 687.092 -25.7433 690.1 -27.4821L708.445 -38.0855Z"/>
<path d="M775.656 -38.0855C778.665 -39.8244 782.371 -39.8244 785.379 -38.0855L803.725 -27.4821C806.733 -25.7433 808.586 -22.5298 808.586 -19.0522V2.15471C808.586 5.63235 806.733 8.84582 803.725 10.5846L785.379 21.1881C782.371 22.9269 778.665 22.9269 775.656 21.1881L757.311 10.5846C754.303 8.84582 752.45 5.63235 752.45 2.15471V-19.0522C752.45 -22.5298 754.303 -25.7433 757.311 -27.4821L775.656 -38.0855Z"/>
<path d="M842.804 -38.0855C845.812 -39.8244 849.519 -39.8244 852.527 -38.0855L870.872 -27.4821C873.881 -25.7433 875.734 -22.5298 875.734 -19.0522V2.15471C875.734 5.63235 873.881 8.84582 870.872 10.5846L852.527 21.1881C849.519 22.9269 845.812 22.9269 842.804 21.1881L824.459 10.5846C821.45 8.84582 819.597 5.63235 819.597 2.15471V-19.0522C819.597 -22.5298 821.45 -25.7433 824.459 -27.4821L842.804 -38.0855Z"/>
<path d="M910.015 -38.0855C913.023 -39.8244 916.73 -39.8244 919.738 -38.0855L938.083 -27.4821C941.092 -25.7433 942.945 -22.5298 942.945 -19.0522V2.15471C942.945 5.63235 941.092 8.84582 938.083 10.5846L919.738 21.1881C916.73 22.9269 913.023 22.9269 910.015 21.1881L891.67 10.5846C888.662 8.84582 886.808 5.63235 886.808 2.15471V-19.0522C886.808 -22.5298 888.662 -25.7433 891.67 -27.4821L910.015 -38.0855Z"/>
<path d="M540.418 23.5246C543.426 21.7858 547.133 21.7858 550.141 23.5246L568.486 34.128C571.494 35.8668 573.348 39.0803 573.348 42.558V63.7648C573.348 67.2425 571.494 70.4559 568.486 72.1947L550.141 82.7982C547.133 84.537 543.426 84.537 540.418 82.7982L522.073 72.1947C519.064 70.4559 517.211 67.2425 517.211 63.7648V42.5579C517.211 39.0803 519.064 35.8668 522.073 34.128L540.418 23.5246Z"/>
<path d="M607.756 23.5246C610.764 21.7858 614.47 21.7858 617.479 23.5246L635.824 34.128C638.832 35.8668 640.685 39.0803 640.685 42.558V63.7648C640.685 67.2425 638.832 70.4559 635.824 72.1947L617.479 82.7982C614.47 84.537 610.764 84.537 607.756 82.7982L589.411 72.1947C586.402 70.4559 584.549 67.2425 584.549 63.7648V42.5579C584.549 39.0803 586.402 35.8668 589.411 34.128L607.756 23.5246Z"/>
<path d="M674.903 23.5246C677.912 21.7858 681.618 21.7858 684.626 23.5246L702.971 34.128C705.98 35.8668 707.833 39.0803 707.833 42.558V63.7648C707.833 67.2425 705.98 70.4559 702.971 72.1947L684.626 82.7982C681.618 84.537 677.912 84.537 674.903 82.7982L656.558 72.1947C653.55 70.4559 651.697 67.2425 651.697 63.7648V42.5579C651.697 39.0803 653.55 35.8668 656.558 34.128L674.903 23.5246Z"/>
<path d="M742.114 23.5246C745.123 21.7858 748.829 21.7858 751.837 23.5246L770.182 34.128C773.191 35.8668 775.044 39.0803 775.044 42.558V63.7648C775.044 67.2425 773.191 70.4559 770.182 72.1947L751.837 82.7982C748.829 84.537 745.123 84.537 742.114 82.7982L723.769 72.1947C720.761 70.4559 718.908 67.2425 718.908 63.7648V42.5579C718.908 39.0803 720.761 35.8668 723.769 34.128L742.114 23.5246Z"/>
<path d="M809.325 23.5246C812.334 21.7858 816.04 21.7858 819.048 23.5246L837.394 34.128C840.402 35.8668 842.255 39.0803 842.255 42.558V63.7648C842.255 67.2425 840.402 70.4559 837.394 72.1947L819.048 82.7982C816.04 84.537 812.334 84.537 809.325 82.7982L790.98 72.1947C787.972 70.4559 786.119 67.2425 786.119 63.7648V42.5579C786.119 39.0803 787.972 35.8668 790.98 34.128L809.325 23.5246Z"/>
<path d="M876.473 23.5246C879.481 21.7858 883.188 21.7858 886.196 23.5246L904.541 34.128C907.549 35.8668 909.403 39.0803 909.403 42.558V63.7648C909.403 67.2425 907.549 70.4559 904.541 72.1947L886.196 82.7982C883.188 84.537 879.481 84.537 876.473 82.7982L858.128 72.1947C855.119 70.4559 853.266 67.2425 853.266 63.7648V42.5579C853.266 39.0803 855.119 35.8668 858.128 34.128L876.473 23.5246Z"/>
<path d="M943.684 23.5246C946.692 21.7858 950.399 21.7858 953.407 23.5246L971.752 34.128C974.761 35.8668 976.614 39.0803 976.614 42.558V63.7648C976.614 67.2425 974.761 70.4559 971.752 72.1947L953.407 82.7982C950.399 84.537 946.692 84.537 943.684 82.7982L925.339 72.1947C922.33 70.4559 920.477 67.2425 920.477 63.7648V42.5579C920.477 39.0803 922.33 35.8668 925.339 34.128L943.684 23.5246Z"/>
<path d="M506.749 85.1347C509.757 83.3959 513.464 83.3959 516.472 85.1347L534.817 95.7381C537.825 97.4769 539.679 100.69 539.679 104.168V125.375C539.679 128.853 537.825 132.066 534.817 133.805L516.472 144.408C513.464 146.147 509.757 146.147 506.749 144.408L488.404 133.805C485.395 132.066 483.542 128.853 483.542 125.375V104.168C483.542 100.69 485.395 97.4769 488.404 95.7381L506.749 85.1347Z"/>
<path d="M574.087 85.1347C577.095 83.3959 580.801 83.3959 583.81 85.1347L602.155 95.7381C605.163 97.4769 607.016 100.69 607.016 104.168V125.375C607.016 128.853 605.163 132.066 602.155 133.805L583.81 144.408C580.801 146.147 577.095 146.147 574.087 144.408L555.742 133.805C552.733 132.066 550.88 128.853 550.88 125.375V104.168C550.88 100.69 552.733 97.4769 555.742 95.7381L574.087 85.1347Z"/>
<path d="M641.234 85.1347C644.243 83.3959 647.949 83.3959 650.957 85.1347L669.303 95.7381C672.311 97.4769 674.164 100.69 674.164 104.168V125.375C674.164 128.853 672.311 132.066 669.303 133.805L650.957 144.408C647.949 146.147 644.243 146.147 641.234 144.408L622.889 133.805C619.881 132.066 618.028 128.853 618.028 125.375V104.168C618.028 100.69 619.881 97.4769 622.889 95.7381L641.234 85.1347Z"/>
<path d="M708.445 85.1347C711.454 83.3959 715.16 83.3959 718.168 85.1347L736.514 95.7381C739.522 97.4769 741.375 100.69 741.375 104.168V125.375C741.375 128.853 739.522 132.066 736.514 133.805L718.168 144.408C715.16 146.147 711.454 146.147 708.445 144.408L690.1 133.805C687.092 132.066 685.239 128.853 685.239 125.375V104.168C685.239 100.69 687.092 97.4769 690.1 95.7381L708.445 85.1347Z"/>
<path d="M775.656 85.1347C778.665 83.3959 782.371 83.3959 785.379 85.1347L803.725 95.7381C806.733 97.4769 808.586 100.69 808.586 104.168V125.375C808.586 128.853 806.733 132.066 803.725 133.805L785.379 144.408C782.371 146.147 778.665 146.147 775.656 144.408L757.311 133.805C754.303 132.066 752.45 128.853 752.45 125.375V104.168C752.45 100.69 754.303 97.4769 757.311 95.7381L775.656 85.1347Z"/>
<path d="M842.804 85.1347C845.812 83.3959 849.519 83.3959 852.527 85.1347L870.872 95.7381C873.881 97.4769 875.734 100.69 875.734 104.168V125.375C875.734 128.853 873.881 132.066 870.872 133.805L852.527 144.408C849.519 146.147 845.812 146.147 842.804 144.408L824.459 133.805C821.45 132.066 819.597 128.853 819.597 125.375V104.168C819.597 100.69 821.45 97.4769 824.459 95.7381L842.804 85.1347Z"/>
<path d="M910.015 85.1347C913.023 83.3959 916.73 83.3959 919.738 85.1347L938.083 95.7381C941.092 97.4769 942.945 100.69 942.945 104.168V125.375C942.945 128.853 941.092 132.066 938.083 133.805L919.738 144.408C916.73 146.147 913.023 146.147 910.015 144.408L891.67 133.805C888.662 132.066 886.808 128.853 886.808 125.375V104.168C886.808 100.69 888.662 97.4769 891.67 95.7381L910.015 85.1347Z"/>
<path d="M540.418 146.745C543.426 145.006 547.133 145.006 550.141 146.745L568.486 157.348C571.494 159.087 573.348 162.301 573.348 165.778V186.985C573.348 190.463 571.494 193.676 568.486 195.415L550.141 206.018C547.133 207.757 543.426 207.757 540.418 206.018L522.073 195.415C519.064 193.676 517.211 190.463 517.211 186.985V165.778C517.211 162.301 519.064 159.087 522.073 157.348L540.418 146.745Z"/>
<path d="M607.756 146.745C610.764 145.006 614.47 145.006 617.479 146.745L635.824 157.348C638.832 159.087 640.685 162.301 640.685 165.778V186.985C640.685 190.463 638.832 193.676 635.824 195.415L617.479 206.018C614.47 207.757 610.764 207.757 607.756 206.018L589.411 195.415C586.402 193.676 584.549 190.463 584.549 186.985V165.778C584.549 162.301 586.402 159.087 589.411 157.348L607.756 146.745Z"/>
<path d="M674.903 146.745C677.912 145.006 681.618 145.006 684.626 146.745L702.971 157.348C705.98 159.087 707.833 162.301 707.833 165.778V186.985C707.833 190.463 705.98 193.676 702.971 195.415L684.626 206.018C681.618 207.757 677.912 207.757 674.903 206.018L656.558 195.415C653.55 193.676 651.697 190.463 651.697 186.985V165.778C651.697 162.301 653.55 159.087 656.558 157.348L674.903 146.745Z"/>
<path d="M742.114 146.745C745.123 145.006 748.829 145.006 751.837 146.745L770.182 157.348C773.191 159.087 775.044 162.301 775.044 165.778V186.985C775.044 190.463 773.191 193.676 770.182 195.415L751.837 206.018C748.829 207.757 745.123 207.757 742.114 206.018L723.769 195.415C720.761 193.676 718.908 190.463 718.908 186.985V165.778C718.908 162.301 720.761 159.087 723.769 157.348L742.114 146.745Z"/>
<path d="M809.325 146.745C812.334 145.006 816.04 145.006 819.048 146.745L837.394 157.348C840.402 159.087 842.255 162.301 842.255 165.778V186.985C842.255 190.463 840.402 193.676 837.394 195.415L819.048 206.018C816.04 207.757 812.334 207.757 809.325 206.018L790.98 195.415C787.972 193.676 786.119 190.463 786.119 186.985V165.778C786.119 162.301 787.972 159.087 790.98 157.348L809.325 146.745Z"/>
<path d="M876.473 146.745C879.481 145.006 883.188 145.006 886.196 146.745L904.541 157.348C907.549 159.087 909.403 162.301 909.403 165.778V186.985C909.403 190.463 907.549 193.676 904.541 195.415L886.196 206.018C883.188 207.757 879.481 207.757 876.473 206.018L858.128 195.415C855.119 193.676 853.266 190.463 853.266 186.985V165.778C853.266 162.301 855.119 159.087 858.128 157.348L876.473 146.745Z"/>
<path d="M943.684 146.745C946.692 145.006 950.399 145.006 953.407 146.745L971.752 157.348C974.761 159.087 976.614 162.301 976.614 165.778V186.985C976.614 190.463 974.761 193.676 971.752 195.415L953.407 206.018C950.399 207.757 946.692 207.757 943.684 206.018L925.339 195.415C922.33 193.676 920.477 190.463 920.477 186.985V165.778C920.477 162.301 922.33 159.087 925.339 157.348L943.684 146.745Z"/>
</mask>
<path d="M1379.75 -38.0855C1382.76 -39.8244 1386.46 -39.8244 1389.47 -38.0855L1407.82 -27.4821C1410.83 -25.7433 1412.68 -22.5298 1412.68 -19.0522V2.15471C1412.68 5.63235 1410.83 8.84582 1407.82 10.5846L1389.47 21.1881C1386.46 22.9269 1382.76 22.9269 1379.75 21.1881L1361.4 10.5846C1358.4 8.84582 1356.54 5.63235 1356.54 2.15471V-19.0522C1356.54 -22.5298 1358.4 -25.7433 1361.4 -27.4821L1379.75 -38.0855Z" stroke="#E5E8FF" stroke-width="2" mask="url(#path-2-inside-1_22053_66326)"/>
<path d="M1447.09 -38.0855C1450.09 -39.8244 1453.8 -39.8244 1456.81 -38.0855L1475.15 -27.4821C1478.16 -25.7433 1480.02 -22.5298 1480.02 -19.0522V2.15471C1480.02 5.63235 1478.16 8.84582 1475.15 10.5846L1456.81 21.1881C1453.8 22.9269 1450.09 22.9269 1447.09 21.1881L1428.74 10.5846C1425.73 8.84582 1423.88 5.63235 1423.88 2.15471V-19.0522C1423.88 -22.5298 1425.73 -25.7433 1428.74 -27.4821L1447.09 -38.0855Z" stroke="#E5E8FF" stroke-width="2" mask="url(#path-2-inside-1_22053_66326)"/>
<path d="M1413.42 23.5246C1416.43 21.7858 1420.13 21.7858 1423.14 23.5246L1441.49 34.128C1444.49 35.8668 1446.35 39.0803 1446.35 42.558V63.7648C1446.35 67.2425 1444.49 70.4559 1441.49 72.1947L1423.14 82.7982C1420.13 84.537 1416.43 84.537 1413.42 82.7982L1395.07 72.1947C1392.06 70.4559 1390.21 67.2425 1390.21 63.7648V42.5579C1390.21 39.0803 1392.06 35.8668 1395.07 34.128L1413.42 23.5246Z" stroke="#E5E8FF" stroke-width="2" mask="url(#path-2-inside-1_22053_66326)"/>
<path d="M1379.75 85.1347C1382.76 83.3959 1386.46 83.3959 1389.47 85.1347L1407.82 95.7381C1410.83 97.4769 1412.68 100.69 1412.68 104.168V125.375C1412.68 128.853 1410.83 132.066 1407.82 133.805L1389.47 144.408C1386.46 146.147 1382.76 146.147 1379.75 144.408L1361.4 133.805C1358.4 132.066 1356.54 128.853 1356.54 125.375V104.168C1356.54 100.69 1358.4 97.4769 1361.4 95.7381L1379.75 85.1347Z" stroke="#E5E8FF" stroke-width="2" mask="url(#path-2-inside-1_22053_66326)"/>
<path d="M1447.09 85.1347C1450.09 83.3959 1453.8 83.3959 1456.81 85.1347L1475.15 95.7381C1478.16 97.4769 1480.02 100.69 1480.02 104.168V125.375C1480.02 128.853 1478.16 132.066 1475.15 133.805L1456.81 144.408C1453.8 146.147 1450.09 146.147 1447.09 144.408L1428.74 133.805C1425.73 132.066 1423.88 128.853 1423.88 125.375V104.168C1423.88 100.69 1425.73 97.4769 1428.74 95.7381L1447.09 85.1347Z" stroke="#E5E8FF" stroke-width="2" mask="url(#path-2-inside-1_22053_66326)"/>
<path d="M1413.42 146.745C1416.43 145.006 1420.13 145.006 1423.14 146.745L1441.49 157.348C1444.49 159.087 1446.35 162.301 1446.35 165.778V186.985C1446.35 190.463 1444.49 193.676 1441.49 195.415L1423.14 206.018C1420.13 207.757 1416.43 207.757 1413.42 206.018L1395.07 195.415C1392.06 193.676 1390.21 190.463 1390.21 186.985V165.778C1390.21 162.301 1392.06 159.087 1395.07 157.348L1413.42 146.745Z" stroke="#E5E8FF" stroke-width="2" mask="url(#path-2-inside-1_22053_66326)"/>
<path d="M35.7487 -38.0855C38.7571 -39.8244 42.4635 -39.8244 45.4719 -38.0855L63.817 -27.4821C66.8253 -25.7433 68.6786 -22.5298 68.6786 -19.0522V2.15471C68.6786 5.63235 66.8253 8.84582 63.817 10.5846L45.4719 21.1881C42.4635 22.9269 38.7571 22.9269 35.7487 21.1881L17.4036 10.5846C14.3953 8.84582 12.5421 5.63235 12.5421 2.15471V-19.0522C12.5421 -22.5298 14.3953 -25.7433 17.4036 -27.4821L35.7487 -38.0855Z" stroke="#E5E8FF" stroke-width="2" mask="url(#path-2-inside-1_22053_66326)"/>
<path d="M103.087 -38.0855C106.095 -39.8244 109.801 -39.8244 112.81 -38.0855L131.155 -27.4821C134.163 -25.7433 136.016 -22.5298 136.016 -19.0522V2.15471C136.016 5.63235 134.163 8.84582 131.155 10.5846L112.81 21.1881C109.801 22.9269 106.095 22.9269 103.087 21.1881L84.7415 10.5846C81.7332 8.84582 79.88 5.63235 79.88 2.15471V-19.0522C79.88 -22.5298 81.7332 -25.7433 84.7415 -27.4821L103.087 -38.0855Z" stroke="#E5E8FF" stroke-width="2" mask="url(#path-2-inside-1_22053_66326)"/>
<path d="M170.234 -38.0855C173.243 -39.8244 176.949 -39.8244 179.957 -38.0855L198.303 -27.4821C201.311 -25.7433 203.164 -22.5298 203.164 -19.0522V2.15471C203.164 5.63235 201.311 8.84582 198.303 10.5846L179.957 21.1881C176.949 22.9269 173.243 22.9269 170.234 21.1881L151.889 10.5846C148.881 8.84582 147.028 5.63235 147.028 2.15471V-19.0522C147.028 -22.5298 148.881 -25.7433 151.889 -27.4821L170.234 -38.0855Z" stroke="#E5E8FF" stroke-width="2" mask="url(#path-2-inside-1_22053_66326)"/>
<path d="M237.445 -38.0855C240.454 -39.8244 244.16 -39.8244 247.168 -38.0855L265.514 -27.4821C268.522 -25.7433 270.375 -22.5298 270.375 -19.0522V2.15471C270.375 5.63235 268.522 8.84582 265.514 10.5846L247.168 21.1881C244.16 22.9269 240.454 22.9269 237.445 21.1881L219.1 10.5846C216.092 8.84582 214.239 5.63235 214.239 2.15471V-19.0522C214.239 -22.5298 216.092 -25.7433 219.1 -27.4821L237.445 -38.0855Z" stroke="#E5E8FF" stroke-width="2" mask="url(#path-2-inside-1_22053_66326)"/>
<path d="M304.656 -38.0855C307.665 -39.8244 311.371 -39.8244 314.379 -38.0855L332.725 -27.4821C335.733 -25.7433 337.586 -22.5298 337.586 -19.0522V2.15471C337.586 5.63235 335.733 8.84582 332.725 10.5846L314.379 21.1881C311.371 22.9269 307.665 22.9269 304.656 21.1881L286.311 10.5846C283.303 8.84582 281.45 5.63235 281.45 2.15471V-19.0522C281.45 -22.5298 283.303 -25.7433 286.311 -27.4821L304.656 -38.0855Z" stroke="#E5E8FF" stroke-width="2" mask="url(#path-2-inside-1_22053_66326)"/>
<path d="M371.804 -38.0855C374.812 -39.8244 378.519 -39.8244 381.527 -38.0855L399.872 -27.4821C402.881 -25.7433 404.734 -22.5298 404.734 -19.0522V2.15471C404.734 5.63235 402.881 8.84582 399.872 10.5846L381.527 21.1881C378.519 22.9269 374.812 22.9269 371.804 21.1881L353.459 10.5846C350.45 8.84582 348.597 5.63235 348.597 2.15471V-19.0522C348.597 -22.5298 350.45 -25.7433 353.459 -27.4821L371.804 -38.0855Z" stroke="#E5E8FF" stroke-width="2" mask="url(#path-2-inside-1_22053_66326)"/>
<path d="M439.015 -38.0855C442.023 -39.8244 445.73 -39.8244 448.738 -38.0855L467.083 -27.4821C470.092 -25.7433 471.945 -22.5298 471.945 -19.0522V2.15471C471.945 5.63235 470.092 8.84582 467.083 10.5846L448.738 21.1881C445.73 22.9269 442.023 22.9269 439.015 21.1881L420.67 10.5846C417.662 8.84582 415.808 5.63235 415.808 2.15471V-19.0522C415.808 -22.5298 417.662 -25.7433 420.67 -27.4821L439.015 -38.0855Z" stroke="#E5E8FF" stroke-width="2" mask="url(#path-2-inside-1_22053_66326)"/>
<path d="M2.20667 23.5246C5.21501 21.7858 8.92146 21.7858 11.9298 23.5246L30.2749 34.128C33.2833 35.8668 35.1365 39.0803 35.1365 42.558V63.7648C35.1365 67.2425 33.2833 70.4559 30.2749 72.1947L11.9298 82.7982C8.92146 84.537 5.21501 84.537 2.20667 82.7982L-16.1385 72.1947C-19.1468 70.4559 -21 67.2425 -21 63.7648V42.5579C-21 39.0803 -19.1468 35.8668 -16.1385 34.128L2.20667 23.5246Z" stroke="#E5E8FF" stroke-width="2" mask="url(#path-2-inside-1_22053_66326)"/>
<path d="M69.4177 23.5246C72.4261 21.7858 76.1325 21.7858 79.1408 23.5246L97.486 34.128C100.494 35.8668 102.348 39.0803 102.348 42.558V63.7648C102.348 67.2425 100.494 70.4559 97.486 72.1947L79.1408 82.7982C76.1325 84.537 72.4261 84.537 69.4177 82.7982L51.0726 72.1947C48.0642 70.4559 46.211 67.2425 46.211 63.7648V42.5579C46.211 39.0803 48.0642 35.8668 51.0726 34.128L69.4177 23.5246Z" stroke="#E5E8FF" stroke-width="2" mask="url(#path-2-inside-1_22053_66326)"/>
<path d="M136.756 23.5246C139.764 21.7858 143.47 21.7858 146.479 23.5246L164.824 34.128C167.832 35.8668 169.685 39.0803 169.685 42.558V63.7648C169.685 67.2425 167.832 70.4559 164.824 72.1947L146.479 82.7982C143.47 84.537 139.764 84.537 136.756 82.7982L118.411 72.1947C115.402 70.4559 113.549 67.2425 113.549 63.7648V42.5579C113.549 39.0803 115.402 35.8668 118.411 34.128L136.756 23.5246Z" stroke="#E5E8FF" stroke-width="2" mask="url(#path-2-inside-1_22053_66326)"/>
<path d="M203.903 23.5246C206.912 21.7858 210.618 21.7858 213.626 23.5246L231.971 34.128C234.98 35.8668 236.833 39.0803 236.833 42.558V63.7648C236.833 67.2425 234.98 70.4559 231.971 72.1947L213.626 82.7982C210.618 84.537 206.912 84.537 203.903 82.7982L185.558 72.1947C182.55 70.4559 180.697 67.2425 180.697 63.7648V42.5579C180.697 39.0803 182.55 35.8668 185.558 34.128L203.903 23.5246Z" stroke="#E5E8FF" stroke-width="2" mask="url(#path-2-inside-1_22053_66326)"/>
<path d="M271.114 23.5246C274.123 21.7858 277.829 21.7858 280.837 23.5246L299.182 34.128C302.191 35.8668 304.044 39.0803 304.044 42.558V63.7648C304.044 67.2425 302.191 70.4559 299.182 72.1947L280.837 82.7982C277.829 84.537 274.123 84.537 271.114 82.7982L252.769 72.1947C249.761 70.4559 247.908 67.2425 247.908 63.7648V42.5579C247.908 39.0803 249.761 35.8668 252.769 34.128L271.114 23.5246Z" stroke="#E5E8FF" stroke-width="2" mask="url(#path-2-inside-1_22053_66326)"/>
<path d="M338.325 23.5246C341.334 21.7858 345.04 21.7858 348.048 23.5246L366.394 34.128C369.402 35.8668 371.255 39.0803 371.255 42.558V63.7648C371.255 67.2425 369.402 70.4559 366.394 72.1947L348.048 82.7982C345.04 84.537 341.334 84.537 338.325 82.7982L319.98 72.1947C316.972 70.4559 315.119 67.2425 315.119 63.7648V42.5579C315.119 39.0803 316.972 35.8668 319.98 34.128L338.325 23.5246Z" stroke="#E5E8FF" stroke-width="2" mask="url(#path-2-inside-1_22053_66326)"/>
<path d="M405.473 23.5246C408.481 21.7858 412.188 21.7858 415.196 23.5246L433.541 34.128C436.549 35.8668 438.403 39.0803 438.403 42.558V63.7648C438.403 67.2425 436.549 70.4559 433.541 72.1947L415.196 82.7982C412.188 84.537 408.481 84.537 405.473 82.7982L387.128 72.1947C384.119 70.4559 382.266 67.2425 382.266 63.7648V42.5579C382.266 39.0803 384.119 35.8668 387.128 34.128L405.473 23.5246Z" stroke="#E5E8FF" stroke-width="2" mask="url(#path-2-inside-1_22053_66326)"/>
<path d="M472.684 23.5246C475.692 21.7858 479.399 21.7858 482.407 23.5246L500.752 34.128C503.761 35.8668 505.614 39.0803 505.614 42.558V63.7648C505.614 67.2425 503.761 70.4559 500.752 72.1947L482.407 82.7982C479.399 84.537 475.692 84.537 472.684 82.7982L454.339 72.1947C451.33 70.4559 449.477 67.2425 449.477 63.7648V42.5579C449.477 39.0803 451.33 35.8668 454.339 34.128L472.684 23.5246Z" stroke="#E5E8FF" stroke-width="2" mask="url(#path-2-inside-1_22053_66326)"/>
<path d="M35.7487 85.1347C38.7571 83.3959 42.4635 83.3959 45.4719 85.1347L63.817 95.7381C66.8253 97.4769 68.6786 100.69 68.6786 104.168V125.375C68.6786 128.853 66.8253 132.066 63.817 133.805L45.4719 144.408C42.4635 146.147 38.7571 146.147 35.7487 144.408L17.4036 133.805C14.3953 132.066 12.5421 128.853 12.5421 125.375V104.168C12.5421 100.69 14.3953 97.4769 17.4036 95.7381L35.7487 85.1347Z" stroke="#E5E8FF" stroke-width="2" mask="url(#path-2-inside-1_22053_66326)"/>
<path d="M103.087 85.1347C106.095 83.3959 109.801 83.3959 112.81 85.1347L131.155 95.7381C134.163 97.4769 136.016 100.69 136.016 104.168V125.375C136.016 128.853 134.163 132.066 131.155 133.805L112.81 144.408C109.801 146.147 106.095 146.147 103.087 144.408L84.7415 133.805C81.7332 132.066 79.88 128.853 79.88 125.375V104.168C79.88 100.69 81.7332 97.4769 84.7415 95.7381L103.087 85.1347Z" stroke="#E5E8FF" stroke-width="2" mask="url(#path-2-inside-1_22053_66326)"/>
<path d="M170.234 85.1347C173.243 83.3959 176.949 83.3959 179.957 85.1347L198.303 95.7381C201.311 97.4769 203.164 100.69 203.164 104.168V125.375C203.164 128.853 201.311 132.066 198.303 133.805L179.957 144.408C176.949 146.147 173.243 146.147 170.234 144.408L151.889 133.805C148.881 132.066 147.028 128.853 147.028 125.375V104.168C147.028 100.69 148.881 97.4769 151.889 95.7381L170.234 85.1347Z" stroke="#E5E8FF" stroke-width="2" mask="url(#path-2-inside-1_22053_66326)"/>
<path d="M237.445 85.1347C240.454 83.3959 244.16 83.3959 247.168 85.1347L265.514 95.7381C268.522 97.4769 270.375 100.69 270.375 104.168V125.375C270.375 128.853 268.522 132.066 265.514 133.805L247.168 144.408C244.16 146.147 240.454 146.147 237.445 144.408L219.1 133.805C216.092 132.066 214.239 128.853 214.239 125.375V104.168C214.239 100.69 216.092 97.4769 219.1 95.7381L237.445 85.1347Z" stroke="#E5E8FF" stroke-width="2" mask="url(#path-2-inside-1_22053_66326)"/>
<path d="M304.656 85.1347C307.665 83.3959 311.371 83.3959 314.379 85.1347L332.725 95.7381C335.733 97.4769 337.586 100.69 337.586 104.168V125.375C337.586 128.853 335.733 132.066 332.725 133.805L314.379 144.408C311.371 146.147 307.665 146.147 304.656 144.408L286.311 133.805C283.303 132.066 281.45 128.853 281.45 125.375V104.168C281.45 100.69 283.303 97.4769 286.311 95.7381L304.656 85.1347Z" stroke="#E5E8FF" stroke-width="2" mask="url(#path-2-inside-1_22053_66326)"/>
<path d="M371.804 85.1347C374.812 83.3959 378.519 83.3959 381.527 85.1347L399.872 95.7381C402.881 97.4769 404.734 100.69 404.734 104.168V125.375C404.734 128.853 402.881 132.066 399.872 133.805L381.527 144.408C378.519 146.147 374.812 146.147 371.804 144.408L353.459 133.805C350.45 132.066 348.597 128.853 348.597 125.375V104.168C348.597 100.69 350.45 97.4769 353.459 95.7381L371.804 85.1347Z" stroke="#E5E8FF" stroke-width="2" mask="url(#path-2-inside-1_22053_66326)"/>
<path d="M439.015 85.1347C442.023 83.3959 445.73 83.3959 448.738 85.1347L467.083 95.7381C470.092 97.4769 471.945 100.69 471.945 104.168V125.375C471.945 128.853 470.092 132.066 467.083 133.805L448.738 144.408C445.73 146.147 442.023 146.147 439.015 144.408L420.67 133.805C417.662 132.066 415.808 128.853 415.808 125.375V104.168C415.808 100.69 417.662 97.4769 420.67 95.7381L439.015 85.1347Z" stroke="#E5E8FF" stroke-width="2" mask="url(#path-2-inside-1_22053_66326)"/>
<path d="M2.20667 146.745C5.21501 145.006 8.92146 145.006 11.9298 146.745L30.2749 157.348C33.2833 159.087 35.1365 162.301 35.1365 165.778V186.985C35.1365 190.463 33.2833 193.676 30.2749 195.415L11.9298 206.018C8.92146 207.757 5.21501 207.757 2.20667 206.018L-16.1385 195.415C-19.1468 193.676 -21 190.463 -21 186.985V165.778C-21 162.301 -19.1468 159.087 -16.1385 157.348L2.20667 146.745Z" stroke="#E5E8FF" stroke-width="2" mask="url(#path-2-inside-1_22053_66326)"/>
<path d="M69.4177 146.745C72.4261 145.006 76.1325 145.006 79.1408 146.745L97.486 157.348C100.494 159.087 102.348 162.301 102.348 165.778V186.985C102.348 190.463 100.494 193.676 97.486 195.415L79.1408 206.018C76.1325 207.757 72.4261 207.757 69.4177 206.018L51.0726 195.415C48.0642 193.676 46.211 190.463 46.211 186.985V165.778C46.211 162.301 48.0642 159.087 51.0726 157.348L69.4177 146.745Z" stroke="#E5E8FF" stroke-width="2" mask="url(#path-2-inside-1_22053_66326)"/>
<path d="M136.756 146.745C139.764 145.006 143.47 145.006 146.479 146.745L164.824 157.348C167.832 159.087 169.685 162.301 169.685 165.778V186.985C169.685 190.463 167.832 193.676 164.824 195.415L146.479 206.018C143.47 207.757 139.764 207.757 136.756 206.018L118.411 195.415C115.402 193.676 113.549 190.463 113.549 186.985V165.778C113.549 162.301 115.402 159.087 118.411 157.348L136.756 146.745Z" stroke="#E5E8FF" stroke-width="2" mask="url(#path-2-inside-1_22053_66326)"/>
<path d="M203.903 146.745C206.912 145.006 210.618 145.006 213.626 146.745L231.971 157.348C234.98 159.087 236.833 162.301 236.833 165.778V186.985C236.833 190.463 234.98 193.676 231.971 195.415L213.626 206.018C210.618 207.757 206.912 207.757 203.903 206.018L185.558 195.415C182.55 193.676 180.697 190.463 180.697 186.985V165.778C180.697 162.301 182.55 159.087 185.558 157.348L203.903 146.745Z" stroke="#E5E8FF" stroke-width="2" mask="url(#path-2-inside-1_22053_66326)"/>
<path d="M271.114 146.745C274.123 145.006 277.829 145.006 280.837 146.745L299.182 157.348C302.191 159.087 304.044 162.301 304.044 165.778V186.985C304.044 190.463 302.191 193.676 299.182 195.415L280.837 206.018C277.829 207.757 274.123 207.757 271.114 206.018L252.769 195.415C249.761 193.676 247.908 190.463 247.908 186.985V165.778C247.908 162.301 249.761 159.087 252.769 157.348L271.114 146.745Z" stroke="#E5E8FF" stroke-width="2" mask="url(#path-2-inside-1_22053_66326)"/>
<path d="M338.325 146.745C341.334 145.006 345.04 145.006 348.048 146.745L366.394 157.348C369.402 159.087 371.255 162.301 371.255 165.778V186.985C371.255 190.463 369.402 193.676 366.394 195.415L348.048 206.018C345.04 207.757 341.334 207.757 338.325 206.018L319.98 195.415C316.972 193.676 315.119 190.463 315.119 186.985V165.778C315.119 162.301 316.972 159.087 319.98 157.348L338.325 146.745Z" stroke="#E5E8FF" stroke-width="2" mask="url(#path-2-inside-1_22053_66326)"/>
<path d="M405.473 146.745C408.481 145.006 412.188 145.006 415.196 146.745L433.541 157.348C436.549 159.087 438.403 162.301 438.403 165.778V186.985C438.403 190.463 436.549 193.676 433.541 195.415L415.196 206.018C412.188 207.757 408.481 207.757 405.473 206.018L387.128 195.415C384.119 193.676 382.266 190.463 382.266 186.985V165.778C382.266 162.301 384.119 159.087 387.128 157.348L405.473 146.745Z" stroke="#E5E8FF" stroke-width="2" mask="url(#path-2-inside-1_22053_66326)"/>
<path d="M472.684 146.745C475.692 145.006 479.399 145.006 482.407 146.745L500.752 157.348C503.761 159.087 505.614 162.301 505.614 165.778V186.985C505.614 190.463 503.761 193.676 500.752 195.415L482.407 206.018C479.399 207.757 475.692 207.757 472.684 206.018L454.339 195.415C451.33 193.676 449.477 190.463 449.477 186.985V165.778C449.477 162.301 451.33 159.087 454.339 157.348L472.684 146.745Z" stroke="#E5E8FF" stroke-width="2" mask="url(#path-2-inside-1_22053_66326)"/>
<path d="M977.087 -38.0855C980.095 -39.8244 983.801 -39.8244 986.81 -38.0855L1005.15 -27.4821C1008.16 -25.7433 1010.02 -22.5298 1010.02 -19.0522V2.15471C1010.02 5.63235 1008.16 8.84582 1005.15 10.5846L986.81 21.1881C983.801 22.9269 980.095 22.9269 977.087 21.1881L958.742 10.5846C955.733 8.84582 953.88 5.63235 953.88 2.15471V-19.0522C953.88 -22.5298 955.733 -25.7433 958.742 -27.4821L977.087 -38.0855Z" stroke="#E5E8FF" stroke-width="2" mask="url(#path-2-inside-1_22053_66326)"/>
<path d="M1044.23 -38.0855C1047.24 -39.8244 1050.95 -39.8244 1053.96 -38.0855L1072.3 -27.4821C1075.31 -25.7433 1077.16 -22.5298 1077.16 -19.0522V2.15471C1077.16 5.63235 1075.31 8.84582 1072.3 10.5846L1053.96 21.1881C1050.95 22.9269 1047.24 22.9269 1044.23 21.1881L1025.89 10.5846C1022.88 8.84582 1021.03 5.63235 1021.03 2.15471V-19.0522C1021.03 -22.5298 1022.88 -25.7433 1025.89 -27.4821L1044.23 -38.0855Z" stroke="#E5E8FF" stroke-width="2" mask="url(#path-2-inside-1_22053_66326)"/>
<path d="M1111.45 -38.0855C1114.45 -39.8244 1118.16 -39.8244 1121.17 -38.0855L1139.51 -27.4821C1142.52 -25.7433 1144.38 -22.5298 1144.38 -19.0522V2.15471C1144.38 5.63235 1142.52 8.84582 1139.51 10.5846L1121.17 21.1881C1118.16 22.9269 1114.45 22.9269 1111.45 21.1881L1093.1 10.5846C1090.09 8.84582 1088.24 5.63235 1088.24 2.15471V-19.0522C1088.24 -22.5298 1090.09 -25.7433 1093.1 -27.4821L1111.45 -38.0855Z" stroke="#E5E8FF" stroke-width="2" mask="url(#path-2-inside-1_22053_66326)"/>
<path d="M1178.66 -38.0855C1181.66 -39.8244 1185.37 -39.8244 1188.38 -38.0855L1206.72 -27.4821C1209.73 -25.7433 1211.59 -22.5298 1211.59 -19.0522V2.15471C1211.59 5.63235 1209.73 8.84582 1206.72 10.5846L1188.38 21.1881C1185.37 22.9269 1181.66 22.9269 1178.66 21.1881L1160.31 10.5846C1157.3 8.84582 1155.45 5.63235 1155.45 2.15471V-19.0522C1155.45 -22.5298 1157.3 -25.7433 1160.31 -27.4821L1178.66 -38.0855Z" stroke="#E5E8FF" stroke-width="2" mask="url(#path-2-inside-1_22053_66326)"/>
<path d="M1245.8 -38.0855C1248.81 -39.8244 1252.52 -39.8244 1255.53 -38.0855L1273.87 -27.4821C1276.88 -25.7433 1278.73 -22.5298 1278.73 -19.0522V2.15471C1278.73 5.63235 1276.88 8.84582 1273.87 10.5846L1255.53 21.1881C1252.52 22.9269 1248.81 22.9269 1245.8 21.1881L1227.46 10.5846C1224.45 8.84582 1222.6 5.63235 1222.6 2.15471V-19.0522C1222.6 -22.5298 1224.45 -25.7433 1227.46 -27.4821L1245.8 -38.0855Z" stroke="#E5E8FF" stroke-width="2" mask="url(#path-2-inside-1_22053_66326)"/>
<path d="M1313.01 -38.0855C1316.02 -39.8244 1319.73 -39.8244 1322.74 -38.0855L1341.08 -27.4821C1344.09 -25.7433 1345.94 -22.5298 1345.94 -19.0522V2.15471C1345.94 5.63235 1344.09 8.84582 1341.08 10.5846L1322.74 21.1881C1319.73 22.9269 1316.02 22.9269 1313.01 21.1881L1294.67 10.5846C1291.66 8.84582 1289.81 5.63235 1289.81 2.15471V-19.0522C1289.81 -22.5298 1291.66 -25.7433 1294.67 -27.4821L1313.01 -38.0855Z" stroke="#E5E8FF" stroke-width="2" mask="url(#path-2-inside-1_22053_66326)"/>
<path d="M1010.76 23.5246C1013.76 21.7858 1017.47 21.7858 1020.48 23.5246L1038.82 34.128C1041.83 35.8668 1043.69 39.0803 1043.69 42.558V63.7648C1043.69 67.2425 1041.83 70.4559 1038.82 72.1947L1020.48 82.7982C1017.47 84.537 1013.76 84.537 1010.76 82.7982L992.411 72.1947C989.402 70.4559 987.549 67.2425 987.549 63.7648V42.5579C987.549 39.0803 989.402 35.8668 992.411 34.128L1010.76 23.5246Z" stroke="#E5E8FF" stroke-width="2" mask="url(#path-2-inside-1_22053_66326)"/>
<path d="M1077.9 23.5246C1080.91 21.7858 1084.62 21.7858 1087.63 23.5246L1105.97 34.128C1108.98 35.8668 1110.83 39.0803 1110.83 42.558V63.7648C1110.83 67.2425 1108.98 70.4559 1105.97 72.1947L1087.63 82.7982C1084.62 84.537 1080.91 84.537 1077.9 82.7982L1059.56 72.1947C1056.55 70.4559 1054.7 67.2425 1054.7 63.7648V42.5579C1054.7 39.0803 1056.55 35.8668 1059.56 34.128L1077.9 23.5246Z" stroke="#E5E8FF" stroke-width="2" mask="url(#path-2-inside-1_22053_66326)"/>
<path d="M1145.11 23.5246C1148.12 21.7858 1151.83 21.7858 1154.84 23.5246L1173.18 34.128C1176.19 35.8668 1178.04 39.0803 1178.04 42.558V63.7648C1178.04 67.2425 1176.19 70.4559 1173.18 72.1947L1154.84 82.7982C1151.83 84.537 1148.12 84.537 1145.11 82.7982L1126.77 72.1947C1123.76 70.4559 1121.91 67.2425 1121.91 63.7648V42.5579C1121.91 39.0803 1123.76 35.8668 1126.77 34.128L1145.11 23.5246Z" stroke="#E5E8FF" stroke-width="2" mask="url(#path-2-inside-1_22053_66326)"/>
<path d="M1212.33 23.5246C1215.33 21.7858 1219.04 21.7858 1222.05 23.5246L1240.39 34.128C1243.4 35.8668 1245.26 39.0803 1245.26 42.558V63.7648C1245.26 67.2425 1243.4 70.4559 1240.39 72.1947L1222.05 82.7982C1219.04 84.537 1215.33 84.537 1212.33 82.7982L1193.98 72.1947C1190.97 70.4559 1189.12 67.2425 1189.12 63.7648V42.5579C1189.12 39.0803 1190.97 35.8668 1193.98 34.128L1212.33 23.5246Z" stroke="#E5E8FF" stroke-width="2" mask="url(#path-2-inside-1_22053_66326)"/>
<path d="M1279.47 23.5246C1282.48 21.7858 1286.19 21.7858 1289.2 23.5246L1307.54 34.128C1310.55 35.8668 1312.4 39.0803 1312.4 42.558V63.7648C1312.4 67.2425 1310.55 70.4559 1307.54 72.1947L1289.2 82.7982C1286.19 84.537 1282.48 84.537 1279.47 82.7982L1261.13 72.1947C1258.12 70.4559 1256.27 67.2425 1256.27 63.7648V42.5579C1256.27 39.0803 1258.12 35.8668 1261.13 34.128L1279.47 23.5246Z" stroke="#E5E8FF" stroke-width="2" mask="url(#path-2-inside-1_22053_66326)"/>
<path d="M1346.68 23.5246C1349.69 21.7858 1353.4 21.7858 1356.41 23.5246L1374.75 34.128C1377.76 35.8668 1379.61 39.0803 1379.61 42.558V63.7648C1379.61 67.2425 1377.76 70.4559 1374.75 72.1947L1356.41 82.7982C1353.4 84.537 1349.69 84.537 1346.68 82.7982L1328.34 72.1947C1325.33 70.4559 1323.48 67.2425 1323.48 63.7648V42.5579C1323.48 39.0803 1325.33 35.8668 1328.34 34.128L1346.68 23.5246Z" stroke="#E5E8FF" stroke-width="2" mask="url(#path-2-inside-1_22053_66326)"/>
<path d="M977.087 85.1347C980.095 83.3959 983.801 83.3959 986.81 85.1347L1005.15 95.7381C1008.16 97.4769 1010.02 100.69 1010.02 104.168V125.375C1010.02 128.853 1008.16 132.066 1005.15 133.805L986.81 144.408C983.801 146.147 980.095 146.147 977.087 144.408L958.742 133.805C955.733 132.066 953.88 128.853 953.88 125.375V104.168C953.88 100.69 955.733 97.4769 958.742 95.7381L977.087 85.1347Z" stroke="#E5E8FF" stroke-width="2" mask="url(#path-2-inside-1_22053_66326)"/>
<path d="M1044.23 85.1347C1047.24 83.3959 1050.95 83.3959 1053.96 85.1347L1072.3 95.7381C1075.31 97.4769 1077.16 100.69 1077.16 104.168V125.375C1077.16 128.853 1075.31 132.066 1072.3 133.805L1053.96 144.408C1050.95 146.147 1047.24 146.147 1044.23 144.408L1025.89 133.805C1022.88 132.066 1021.03 128.853 1021.03 125.375V104.168C1021.03 100.69 1022.88 97.4769 1025.89 95.7381L1044.23 85.1347Z" stroke="#E5E8FF" stroke-width="2" mask="url(#path-2-inside-1_22053_66326)"/>
<path d="M1111.45 85.1347C1114.45 83.3959 1118.16 83.3959 1121.17 85.1347L1139.51 95.7381C1142.52 97.4769 1144.38 100.69 1144.38 104.168V125.375C1144.38 128.853 1142.52 132.066 1139.51 133.805L1121.17 144.408C1118.16 146.147 1114.45 146.147 1111.45 144.408L1093.1 133.805C1090.09 132.066 1088.24 128.853 1088.24 125.375V104.168C1088.24 100.69 1090.09 97.4769 1093.1 95.7381L1111.45 85.1347Z" stroke="#E5E8FF" stroke-width="2" mask="url(#path-2-inside-1_22053_66326)"/>
<path d="M1178.66 85.1347C1181.66 83.3959 1185.37 83.3959 1188.38 85.1347L1206.72 95.7381C1209.73 97.4769 1211.59 100.69 1211.59 104.168V125.375C1211.59 128.853 1209.73 132.066 1206.72 133.805L1188.38 144.408C1185.37 146.147 1181.66 146.147 1178.66 144.408L1160.31 133.805C1157.3 132.066 1155.45 128.853 1155.45 125.375V104.168C1155.45 100.69 1157.3 97.4769 1160.31 95.7381L1178.66 85.1347Z" stroke="#E5E8FF" stroke-width="2" mask="url(#path-2-inside-1_22053_66326)"/>
<path d="M1245.8 85.1347C1248.81 83.3959 1252.52 83.3959 1255.53 85.1347L1273.87 95.7381C1276.88 97.4769 1278.73 100.69 1278.73 104.168V125.375C1278.73 128.853 1276.88 132.066 1273.87 133.805L1255.53 144.408C1252.52 146.147 1248.81 146.147 1245.8 144.408L1227.46 133.805C1224.45 132.066 1222.6 128.853 1222.6 125.375V104.168C1222.6 100.69 1224.45 97.4769 1227.46 95.7381L1245.8 85.1347Z" stroke="#E5E8FF" stroke-width="2" mask="url(#path-2-inside-1_22053_66326)"/>
<path d="M1313.01 85.1347C1316.02 83.3959 1319.73 83.3959 1322.74 85.1347L1341.08 95.7381C1344.09 97.4769 1345.94 100.69 1345.94 104.168V125.375C1345.94 128.853 1344.09 132.066 1341.08 133.805L1322.74 144.408C1319.73 146.147 1316.02 146.147 1313.01 144.408L1294.67 133.805C1291.66 132.066 1289.81 128.853 1289.81 125.375V104.168C1289.81 100.69 1291.66 97.4769 1294.67 95.7381L1313.01 85.1347Z" stroke="#E5E8FF" stroke-width="2" mask="url(#path-2-inside-1_22053_66326)"/>
<path d="M1010.76 146.745C1013.76 145.006 1017.47 145.006 1020.48 146.745L1038.82 157.348C1041.83 159.087 1043.69 162.301 1043.69 165.778V186.985C1043.69 190.463 1041.83 193.676 1038.82 195.415L1020.48 206.018C1017.47 207.757 1013.76 207.757 1010.76 206.018L992.411 195.415C989.402 193.676 987.549 190.463 987.549 186.985V165.778C987.549 162.301 989.402 159.087 992.411 157.348L1010.76 146.745Z" stroke="#E5E8FF" stroke-width="2" mask="url(#path-2-inside-1_22053_66326)"/>
<path d="M1077.9 146.745C1080.91 145.006 1084.62 145.006 1087.63 146.745L1105.97 157.348C1108.98 159.087 1110.83 162.301 1110.83 165.778V186.985C1110.83 190.463 1108.98 193.676 1105.97 195.415L1087.63 206.018C1084.62 207.757 1080.91 207.757 1077.9 206.018L1059.56 195.415C1056.55 193.676 1054.7 190.463 1054.7 186.985V165.778C1054.7 162.301 1056.55 159.087 1059.56 157.348L1077.9 146.745Z" stroke="#E5E8FF" stroke-width="2" mask="url(#path-2-inside-1_22053_66326)"/>
<path d="M1145.11 146.745C1148.12 145.006 1151.83 145.006 1154.84 146.745L1173.18 157.348C1176.19 159.087 1178.04 162.301 1178.04 165.778V186.985C1178.04 190.463 1176.19 193.676 1173.18 195.415L1154.84 206.018C1151.83 207.757 1148.12 207.757 1145.11 206.018L1126.77 195.415C1123.76 193.676 1121.91 190.463 1121.91 186.985V165.778C1121.91 162.301 1123.76 159.087 1126.77 157.348L1145.11 146.745Z" stroke="#E5E8FF" stroke-width="2" mask="url(#path-2-inside-1_22053_66326)"/>
<path d="M1212.33 146.745C1215.33 145.006 1219.04 145.006 1222.05 146.745L1240.39 157.348C1243.4 159.087 1245.26 162.301 1245.26 165.778V186.985C1245.26 190.463 1243.4 193.676 1240.39 195.415L1222.05 206.018C1219.04 207.757 1215.33 207.757 1212.33 206.018L1193.98 195.415C1190.97 193.676 1189.12 190.463 1189.12 186.985V165.778C1189.12 162.301 1190.97 159.087 1193.98 157.348L1212.33 146.745Z" stroke="#E5E8FF" stroke-width="2" mask="url(#path-2-inside-1_22053_66326)"/>
<path d="M1279.47 146.745C1282.48 145.006 1286.19 145.006 1289.2 146.745L1307.54 157.348C1310.55 159.087 1312.4 162.301 1312.4 165.778V186.985C1312.4 190.463 1310.55 193.676 1307.54 195.415L1289.2 206.018C1286.19 207.757 1282.48 207.757 1279.47 206.018L1261.13 195.415C1258.12 193.676 1256.27 190.463 1256.27 186.985V165.778C1256.27 162.301 1258.12 159.087 1261.13 157.348L1279.47 146.745Z" stroke="#E5E8FF" stroke-width="2" mask="url(#path-2-inside-1_22053_66326)"/>
<path d="M1346.68 146.745C1349.69 145.006 1353.4 145.006 1356.41 146.745L1374.75 157.348C1377.76 159.087 1379.61 162.301 1379.61 165.778V186.985C1379.61 190.463 1377.76 193.676 1374.75 195.415L1356.41 206.018C1353.4 207.757 1349.69 207.757 1346.68 206.018L1328.34 195.415C1325.33 193.676 1323.48 190.463 1323.48 186.985V165.778C1323.48 162.301 1325.33 159.087 1328.34 157.348L1346.68 146.745Z" stroke="#E5E8FF" stroke-width="2" mask="url(#path-2-inside-1_22053_66326)"/>
<path d="M506.749 -38.0855C509.757 -39.8244 513.464 -39.8244 516.472 -38.0855L534.817 -27.4821C537.825 -25.7433 539.679 -22.5298 539.679 -19.0522V2.15471C539.679 5.63235 537.825 8.84582 534.817 10.5846L516.472 21.1881C513.464 22.9269 509.757 22.9269 506.749 21.1881L488.404 10.5846C485.395 8.84582 483.542 5.63235 483.542 2.15471V-19.0522C483.542 -22.5298 485.395 -25.7433 488.404 -27.4821L506.749 -38.0855Z" stroke="#E5E8FF" stroke-width="2" mask="url(#path-2-inside-1_22053_66326)"/>
<path d="M574.087 -38.0855C577.095 -39.8244 580.801 -39.8244 583.81 -38.0855L602.155 -27.4821C605.163 -25.7433 607.016 -22.5298 607.016 -19.0522V2.15471C607.016 5.63235 605.163 8.84582 602.155 10.5846L583.81 21.1881C580.801 22.9269 577.095 22.9269 574.087 21.1881L555.742 10.5846C552.733 8.84582 550.88 5.63235 550.88 2.15471V-19.0522C550.88 -22.5298 552.733 -25.7433 555.742 -27.4821L574.087 -38.0855Z" stroke="#E5E8FF" stroke-width="2" mask="url(#path-2-inside-1_22053_66326)"/>
<path d="M641.234 -38.0855C644.243 -39.8244 647.949 -39.8244 650.957 -38.0855L669.303 -27.4821C672.311 -25.7433 674.164 -22.5298 674.164 -19.0522V2.15471C674.164 5.63235 672.311 8.84582 669.303 10.5846L650.957 21.1881C647.949 22.9269 644.243 22.9269 641.234 21.1881L622.889 10.5846C619.881 8.84582 618.028 5.63235 618.028 2.15471V-19.0522C618.028 -22.5298 619.881 -25.7433 622.889 -27.4821L641.234 -38.0855Z" stroke="#E5E8FF" stroke-width="2" mask="url(#path-2-inside-1_22053_66326)"/>
<path d="M708.445 -38.0855C711.454 -39.8244 715.16 -39.8244 718.168 -38.0855L736.514 -27.4821C739.522 -25.7433 741.375 -22.5298 741.375 -19.0522V2.15471C741.375 5.63235 739.522 8.84582 736.514 10.5846L718.168 21.1881C715.16 22.9269 711.454 22.9269 708.445 21.1881L690.1 10.5846C687.092 8.84582 685.239 5.63235 685.239 2.15471V-19.0522C685.239 -22.5298 687.092 -25.7433 690.1 -27.4821L708.445 -38.0855Z" stroke="#E5E8FF" stroke-width="2" mask="url(#path-2-inside-1_22053_66326)"/>
<path d="M775.656 -38.0855C778.665 -39.8244 782.371 -39.8244 785.379 -38.0855L803.725 -27.4821C806.733 -25.7433 808.586 -22.5298 808.586 -19.0522V2.15471C808.586 5.63235 806.733 8.84582 803.725 10.5846L785.379 21.1881C782.371 22.9269 778.665 22.9269 775.656 21.1881L757.311 10.5846C754.303 8.84582 752.45 5.63235 752.45 2.15471V-19.0522C752.45 -22.5298 754.303 -25.7433 757.311 -27.4821L775.656 -38.0855Z" stroke="#E5E8FF" stroke-width="2" mask="url(#path-2-inside-1_22053_66326)"/>
<path d="M842.804 -38.0855C845.812 -39.8244 849.519 -39.8244 852.527 -38.0855L870.872 -27.4821C873.881 -25.7433 875.734 -22.5298 875.734 -19.0522V2.15471C875.734 5.63235 873.881 8.84582 870.872 10.5846L852.527 21.1881C849.519 22.9269 845.812 22.9269 842.804 21.1881L824.459 10.5846C821.45 8.84582 819.597 5.63235 819.597 2.15471V-19.0522C819.597 -22.5298 821.45 -25.7433 824.459 -27.4821L842.804 -38.0855Z" stroke="#E5E8FF" stroke-width="2" mask="url(#path-2-inside-1_22053_66326)"/>
<path d="M910.015 -38.0855C913.023 -39.8244 916.73 -39.8244 919.738 -38.0855L938.083 -27.4821C941.092 -25.7433 942.945 -22.5298 942.945 -19.0522V2.15471C942.945 5.63235 941.092 8.84582 938.083 10.5846L919.738 21.1881C916.73 22.9269 913.023 22.9269 910.015 21.1881L891.67 10.5846C888.662 8.84582 886.808 5.63235 886.808 2.15471V-19.0522C886.808 -22.5298 888.662 -25.7433 891.67 -27.4821L910.015 -38.0855Z" stroke="#E5E8FF" stroke-width="2" mask="url(#path-2-inside-1_22053_66326)"/>
<path d="M540.418 23.5246C543.426 21.7858 547.133 21.7858 550.141 23.5246L568.486 34.128C571.494 35.8668 573.348 39.0803 573.348 42.558V63.7648C573.348 67.2425 571.494 70.4559 568.486 72.1947L550.141 82.7982C547.133 84.537 543.426 84.537 540.418 82.7982L522.073 72.1947C519.064 70.4559 517.211 67.2425 517.211 63.7648V42.5579C517.211 39.0803 519.064 35.8668 522.073 34.128L540.418 23.5246Z" stroke="#E5E8FF" stroke-width="2" mask="url(#path-2-inside-1_22053_66326)"/>
<path d="M607.756 23.5246C610.764 21.7858 614.47 21.7858 617.479 23.5246L635.824 34.128C638.832 35.8668 640.685 39.0803 640.685 42.558V63.7648C640.685 67.2425 638.832 70.4559 635.824 72.1947L617.479 82.7982C614.47 84.537 610.764 84.537 607.756 82.7982L589.411 72.1947C586.402 70.4559 584.549 67.2425 584.549 63.7648V42.5579C584.549 39.0803 586.402 35.8668 589.411 34.128L607.756 23.5246Z" stroke="#E5E8FF" stroke-width="2" mask="url(#path-2-inside-1_22053_66326)"/>
<path d="M674.903 23.5246C677.912 21.7858 681.618 21.7858 684.626 23.5246L702.971 34.128C705.98 35.8668 707.833 39.0803 707.833 42.558V63.7648C707.833 67.2425 705.98 70.4559 702.971 72.1947L684.626 82.7982C681.618 84.537 677.912 84.537 674.903 82.7982L656.558 72.1947C653.55 70.4559 651.697 67.2425 651.697 63.7648V42.5579C651.697 39.0803 653.55 35.8668 656.558 34.128L674.903 23.5246Z" stroke="#E5E8FF" stroke-width="2" mask="url(#path-2-inside-1_22053_66326)"/>
<path d="M742.114 23.5246C745.123 21.7858 748.829 21.7858 751.837 23.5246L770.182 34.128C773.191 35.8668 775.044 39.0803 775.044 42.558V63.7648C775.044 67.2425 773.191 70.4559 770.182 72.1947L751.837 82.7982C748.829 84.537 745.123 84.537 742.114 82.7982L723.769 72.1947C720.761 70.4559 718.908 67.2425 718.908 63.7648V42.5579C718.908 39.0803 720.761 35.8668 723.769 34.128L742.114 23.5246Z" stroke="#E5E8FF" stroke-width="2" mask="url(#path-2-inside-1_22053_66326)"/>
<path d="M809.325 23.5246C812.334 21.7858 816.04 21.7858 819.048 23.5246L837.394 34.128C840.402 35.8668 842.255 39.0803 842.255 42.558V63.7648C842.255 67.2425 840.402 70.4559 837.394 72.1947L819.048 82.7982C816.04 84.537 812.334 84.537 809.325 82.7982L790.98 72.1947C787.972 70.4559 786.119 67.2425 786.119 63.7648V42.5579C786.119 39.0803 787.972 35.8668 790.98 34.128L809.325 23.5246Z" stroke="#E5E8FF" stroke-width="2" mask="url(#path-2-inside-1_22053_66326)"/>
<path d="M876.473 23.5246C879.481 21.7858 883.188 21.7858 886.196 23.5246L904.541 34.128C907.549 35.8668 909.403 39.0803 909.403 42.558V63.7648C909.403 67.2425 907.549 70.4559 904.541 72.1947L886.196 82.7982C883.188 84.537 879.481 84.537 876.473 82.7982L858.128 72.1947C855.119 70.4559 853.266 67.2425 853.266 63.7648V42.5579C853.266 39.0803 855.119 35.8668 858.128 34.128L876.473 23.5246Z" stroke="#E5E8FF" stroke-width="2" mask="url(#path-2-inside-1_22053_66326)"/>
<path d="M943.684 23.5246C946.692 21.7858 950.399 21.7858 953.407 23.5246L971.752 34.128C974.761 35.8668 976.614 39.0803 976.614 42.558V63.7648C976.614 67.2425 974.761 70.4559 971.752 72.1947L953.407 82.7982C950.399 84.537 946.692 84.537 943.684 82.7982L925.339 72.1947C922.33 70.4559 920.477 67.2425 920.477 63.7648V42.5579C920.477 39.0803 922.33 35.8668 925.339 34.128L943.684 23.5246Z" stroke="#E5E8FF" stroke-width="2" mask="url(#path-2-inside-1_22053_66326)"/>
<path d="M506.749 85.1347C509.757 83.3959 513.464 83.3959 516.472 85.1347L534.817 95.7381C537.825 97.4769 539.679 100.69 539.679 104.168V125.375C539.679 128.853 537.825 132.066 534.817 133.805L516.472 144.408C513.464 146.147 509.757 146.147 506.749 144.408L488.404 133.805C485.395 132.066 483.542 128.853 483.542 125.375V104.168C483.542 100.69 485.395 97.4769 488.404 95.7381L506.749 85.1347Z" stroke="#E5E8FF" stroke-width="2" mask="url(#path-2-inside-1_22053_66326)"/>
<path d="M574.087 85.1347C577.095 83.3959 580.801 83.3959 583.81 85.1347L602.155 95.7381C605.163 97.4769 607.016 100.69 607.016 104.168V125.375C607.016 128.853 605.163 132.066 602.155 133.805L583.81 144.408C580.801 146.147 577.095 146.147 574.087 144.408L555.742 133.805C552.733 132.066 550.88 128.853 550.88 125.375V104.168C550.88 100.69 552.733 97.4769 555.742 95.7381L574.087 85.1347Z" stroke="#E5E8FF" stroke-width="2" mask="url(#path-2-inside-1_22053_66326)"/>
<path d="M641.234 85.1347C644.243 83.3959 647.949 83.3959 650.957 85.1347L669.303 95.7381C672.311 97.4769 674.164 100.69 674.164 104.168V125.375C674.164 128.853 672.311 132.066 669.303 133.805L650.957 144.408C647.949 146.147 644.243 146.147 641.234 144.408L622.889 133.805C619.881 132.066 618.028 128.853 618.028 125.375V104.168C618.028 100.69 619.881 97.4769 622.889 95.7381L641.234 85.1347Z" stroke="#E5E8FF" stroke-width="2" mask="url(#path-2-inside-1_22053_66326)"/>
<path d="M708.445 85.1347C711.454 83.3959 715.16 83.3959 718.168 85.1347L736.514 95.7381C739.522 97.4769 741.375 100.69 741.375 104.168V125.375C741.375 128.853 739.522 132.066 736.514 133.805L718.168 144.408C715.16 146.147 711.454 146.147 708.445 144.408L690.1 133.805C687.092 132.066 685.239 128.853 685.239 125.375V104.168C685.239 100.69 687.092 97.4769 690.1 95.7381L708.445 85.1347Z" stroke="#E5E8FF" stroke-width="2" mask="url(#path-2-inside-1_22053_66326)"/>
<path d="M775.656 85.1347C778.665 83.3959 782.371 83.3959 785.379 85.1347L803.725 95.7381C806.733 97.4769 808.586 100.69 808.586 104.168V125.375C808.586 128.853 806.733 132.066 803.725 133.805L785.379 144.408C782.371 146.147 778.665 146.147 775.656 144.408L757.311 133.805C754.303 132.066 752.45 128.853 752.45 125.375V104.168C752.45 100.69 754.303 97.4769 757.311 95.7381L775.656 85.1347Z" stroke="#E5E8FF" stroke-width="2" mask="url(#path-2-inside-1_22053_66326)"/>
<path d="M842.804 85.1347C845.812 83.3959 849.519 83.3959 852.527 85.1347L870.872 95.7381C873.881 97.4769 875.734 100.69 875.734 104.168V125.375C875.734 128.853 873.881 132.066 870.872 133.805L852.527 144.408C849.519 146.147 845.812 146.147 842.804 144.408L824.459 133.805C821.45 132.066 819.597 128.853 819.597 125.375V104.168C819.597 100.69 821.45 97.4769 824.459 95.7381L842.804 85.1347Z" stroke="#E5E8FF" stroke-width="2" mask="url(#path-2-inside-1_22053_66326)"/>
<path d="M910.015 85.1347C913.023 83.3959 916.73 83.3959 919.738 85.1347L938.083 95.7381C941.092 97.4769 942.945 100.69 942.945 104.168V125.375C942.945 128.853 941.092 132.066 938.083 133.805L919.738 144.408C916.73 146.147 913.023 146.147 910.015 144.408L891.67 133.805C888.662 132.066 886.808 128.853 886.808 125.375V104.168C886.808 100.69 888.662 97.4769 891.67 95.7381L910.015 85.1347Z" stroke="#E5E8FF" stroke-width="2" mask="url(#path-2-inside-1_22053_66326)"/>
<path d="M540.418 146.745C543.426 145.006 547.133 145.006 550.141 146.745L568.486 157.348C571.494 159.087 573.348 162.301 573.348 165.778V186.985C573.348 190.463 571.494 193.676 568.486 195.415L550.141 206.018C547.133 207.757 543.426 207.757 540.418 206.018L522.073 195.415C519.064 193.676 517.211 190.463 517.211 186.985V165.778C517.211 162.301 519.064 159.087 522.073 157.348L540.418 146.745Z" stroke="#E5E8FF" stroke-width="2" mask="url(#path-2-inside-1_22053_66326)"/>
<path d="M607.756 146.745C610.764 145.006 614.47 145.006 617.479 146.745L635.824 157.348C638.832 159.087 640.685 162.301 640.685 165.778V186.985C640.685 190.463 638.832 193.676 635.824 195.415L617.479 206.018C614.47 207.757 610.764 207.757 607.756 206.018L589.411 195.415C586.402 193.676 584.549 190.463 584.549 186.985V165.778C584.549 162.301 586.402 159.087 589.411 157.348L607.756 146.745Z" stroke="#E5E8FF" stroke-width="2" mask="url(#path-2-inside-1_22053_66326)"/>
<path d="M674.903 146.745C677.912 145.006 681.618 145.006 684.626 146.745L702.971 157.348C705.98 159.087 707.833 162.301 707.833 165.778V186.985C707.833 190.463 705.98 193.676 702.971 195.415L684.626 206.018C681.618 207.757 677.912 207.757 674.903 206.018L656.558 195.415C653.55 193.676 651.697 190.463 651.697 186.985V165.778C651.697 162.301 653.55 159.087 656.558 157.348L674.903 146.745Z" stroke="#E5E8FF" stroke-width="2" mask="url(#path-2-inside-1_22053_66326)"/>
<path d="M742.114 146.745C745.123 145.006 748.829 145.006 751.837 146.745L770.182 157.348C773.191 159.087 775.044 162.301 775.044 165.778V186.985C775.044 190.463 773.191 193.676 770.182 195.415L751.837 206.018C748.829 207.757 745.123 207.757 742.114 206.018L723.769 195.415C720.761 193.676 718.908 190.463 718.908 186.985V165.778C718.908 162.301 720.761 159.087 723.769 157.348L742.114 146.745Z" stroke="#E5E8FF" stroke-width="2" mask="url(#path-2-inside-1_22053_66326)"/>
<path d="M809.325 146.745C812.334 145.006 816.04 145.006 819.048 146.745L837.394 157.348C840.402 159.087 842.255 162.301 842.255 165.778V186.985C842.255 190.463 840.402 193.676 837.394 195.415L819.048 206.018C816.04 207.757 812.334 207.757 809.325 206.018L790.98 195.415C787.972 193.676 786.119 190.463 786.119 186.985V165.778C786.119 162.301 787.972 159.087 790.98 157.348L809.325 146.745Z" stroke="#E5E8FF" stroke-width="2" mask="url(#path-2-inside-1_22053_66326)"/>
<path d="M876.473 146.745C879.481 145.006 883.188 145.006 886.196 146.745L904.541 157.348C907.549 159.087 909.403 162.301 909.403 165.778V186.985C909.403 190.463 907.549 193.676 904.541 195.415L886.196 206.018C883.188 207.757 879.481 207.757 876.473 206.018L858.128 195.415C855.119 193.676 853.266 190.463 853.266 186.985V165.778C853.266 162.301 855.119 159.087 858.128 157.348L876.473 146.745Z" stroke="#E5E8FF" stroke-width="2" mask="url(#path-2-inside-1_22053_66326)"/>
<path d="M943.684 146.745C946.692 145.006 950.399 145.006 953.407 146.745L971.752 157.348C974.761 159.087 976.614 162.301 976.614 165.778V186.985C976.614 190.463 974.761 193.676 971.752 195.415L953.407 206.018C950.399 207.757 946.692 207.757 943.684 206.018L925.339 195.415C922.33 193.676 920.477 190.463 920.477 186.985V165.778C920.477 162.301 922.33 159.087 925.339 157.348L943.684 146.745Z" stroke="#E5E8FF" stroke-width="2" mask="url(#path-2-inside-1_22053_66326)"/>
<path d="M104.469 96.812C106.345 95.729 108.655 95.729 110.531 96.812L121.969 103.416C123.845 104.499 125 106.5 125 108.666V121.873C125 124.039 123.845 126.04 121.969 127.123L110.531 133.727C108.655 134.81 106.345 134.81 104.469 133.727L93.0311 127.123C91.1554 126.04 90 124.039 90 121.873V108.666C90 106.5 91.1554 104.499 93.0311 103.416L104.469 96.812Z" fill="#F0F1FF"/>
<path d="M1045.47 96.812C1047.35 95.729 1049.66 95.729 1051.53 96.812L1062.97 103.416C1064.85 104.499 1066 106.5 1066 108.666V121.873C1066 124.039 1064.85 126.04 1062.97 127.123L1051.53 133.727C1049.66 134.81 1047.35 134.81 1045.47 133.727L1034.03 127.123C1032.16 126.04 1031 124.039 1031 121.873V108.666C1031 106.5 1032.16 104.499 1034.03 103.416L1045.47 96.812Z" fill="#F0F1FF"/>
<path d="M810.469 34.8122C812.345 33.7293 814.656 33.7293 816.532 34.8122L827.969 41.4158C829.845 42.4987 831 44.5 831 46.6658V59.8731C831 62.0389 829.845 64.0402 827.969 65.1231L816.532 71.7267C814.656 72.8096 812.345 72.8096 810.469 71.7267L799.032 65.1231C797.156 64.0402 796 62.0389 796 59.8731V46.6658C796 44.5 797.156 42.4987 799.032 41.4158L810.469 34.8122Z" fill="#F0F1FF"/>
<path d="M575.469 -27.1878C577.345 -28.2707 579.656 -28.2707 581.532 -27.1878L592.969 -20.5842C594.845 -19.5013 596 -17.5 596 -15.3342V-2.12692C596 0.0388756 594.845 2.04018 592.969 3.12308L581.532 9.72668C579.656 10.8096 577.345 10.8096 575.469 9.72668L564.032 3.12308C562.156 2.04018 561 0.0388756 561 -2.12692V-15.3342C561 -17.5 562.156 -19.5013 564.032 -20.5842L575.469 -27.1878Z" fill="#F0F1FF"/>
<path d="M205.469 34.8123C207.345 33.7294 209.655 33.7294 211.531 34.8123L222.969 41.4159C224.845 42.4988 226 44.5001 226 46.6659V59.8732C226 62.039 224.845 64.0403 222.969 65.1232L211.531 71.7268C209.655 72.8097 207.345 72.8097 205.469 71.7268L194.031 65.1232C192.155 64.0403 191 62.039 191 59.8732V46.6659C191 44.5001 192.155 42.4988 194.031 41.4159L205.469 34.8123Z" fill="#F0F1FF"/>
<path d="M1146.47 34.8122C1148.35 33.7293 1150.66 33.7293 1152.53 34.8122L1163.97 41.4158C1165.85 42.4987 1167 44.5 1167 46.6658V59.8731C1167 62.0389 1165.85 64.0402 1163.97 65.1231L1152.53 71.7267C1150.66 72.8096 1148.35 72.8096 1146.47 71.7267L1135.03 65.1231C1133.16 64.0402 1132 62.0389 1132 59.8731V46.6658C1132 44.5 1133.16 42.4987 1135.03 41.4158L1146.47 34.8122Z" fill="#F0F1FF"/>
<path d="M37.4689 -26.1877C39.3446 -27.2706 41.6554 -27.2706 43.5311 -26.1877L54.9689 -19.5841C56.8446 -18.5012 58 -16.4999 58 -14.3341V-1.12682C58 1.03898 56.8446 3.04028 54.9689 4.12318L43.5311 10.7268C41.6554 11.8097 39.3446 11.8097 37.4689 10.7268L26.0311 4.12318C24.1554 3.04028 23 1.03898 23 -1.12682V-14.3341C23 -16.4999 24.1554 -18.5012 26.0311 -19.5841L37.4689 -26.1877Z" fill="#F0F1FF"/>
<path d="M978.469 -26.1878C980.345 -27.2707 982.656 -27.2707 984.532 -26.1878L995.969 -19.5842C997.845 -18.5013 999 -16.5 999 -14.3342V-1.12692C999 1.03888 997.845 3.04018 995.969 4.12308L984.532 10.7267C982.656 11.8096 980.345 11.8096 978.469 10.7267L967.032 4.12308C965.156 3.04018 964 1.03888 964 -1.12692V-14.3342C964 -16.5 965.156 -18.5013 967.032 -19.5842L978.469 -26.1878Z" fill="#F0F1FF"/>
<path d="M306.469 96.812C308.345 95.729 310.655 95.729 312.531 96.812L323.969 103.416C325.845 104.499 327 106.5 327 108.666V121.873C327 124.039 325.845 126.04 323.969 127.123L312.531 133.727C310.655 134.81 308.345 134.81 306.469 133.727L295.031 127.123C293.155 126.04 292 124.039 292 121.873V108.666C292 106.5 293.155 104.499 295.031 103.416L306.469 96.812Z" fill="#F0F1FF"/>
<path d="M1247.47 96.812C1249.35 95.729 1251.66 95.729 1253.53 96.812L1264.97 103.416C1266.85 104.499 1268 106.5 1268 108.666V121.873C1268 124.039 1266.85 126.04 1264.97 127.123L1253.53 133.727C1251.66 134.81 1249.35 134.81 1247.47 133.727L1236.03 127.123C1234.16 126.04 1233 124.039 1233 121.873V108.666C1233 106.5 1234.16 104.499 1236.03 103.416L1247.47 96.812Z" fill="#F0F1FF"/>
<path d="M407.469 156.812C409.345 155.729 411.655 155.729 413.531 156.812L424.969 163.416C426.845 164.499 428 166.5 428 168.666V181.873C428 184.039 426.845 186.04 424.969 187.123L413.531 193.727C411.655 194.81 409.345 194.81 407.469 193.727L396.031 187.123C394.155 186.04 393 184.039 393 181.873V168.666C393 166.5 394.155 164.499 396.031 163.416L407.469 156.812Z" fill="#F0F1FF"/>
<path d="M1348.47 156.812C1350.35 155.729 1352.66 155.729 1354.53 156.812L1365.97 163.416C1367.85 164.499 1369 166.5 1369 168.666V181.873C1369 184.039 1367.85 186.04 1365.97 187.123L1354.53 193.727C1352.66 194.81 1350.35 194.81 1348.47 193.727L1337.03 187.123C1335.16 186.04 1334 184.039 1334 181.873V168.666C1334 166.5 1335.16 164.499 1337.03 163.416L1348.47 156.812Z" fill="#F0F1FF"/>
<path d="M306.469 -26.1877C308.345 -27.2706 310.655 -27.2706 312.531 -26.1877L323.969 -19.5841C325.845 -18.5012 327 -16.4999 327 -14.3341V-1.12682C327 1.03898 325.845 3.04028 323.969 4.12318L312.531 10.7268C310.655 11.8097 308.345 11.8097 306.469 10.7268L295.031 4.12318C293.155 3.04028 292 1.03898 292 -1.12682V-14.3341C292 -16.4999 293.155 -18.5012 295.031 -19.5841L306.469 -26.1877Z" fill="#F0F1FF"/>
<path d="M1247.47 -26.1878C1249.35 -27.2707 1251.66 -27.2707 1253.53 -26.1878L1264.97 -19.5842C1266.85 -18.5013 1268 -16.5 1268 -14.3342V-1.12692C1268 1.03888 1266.85 3.04018 1264.97 4.12308L1253.53 10.7267C1251.66 11.8096 1249.35 11.8096 1247.47 10.7267L1236.03 4.12308C1234.16 3.04018 1233 1.03888 1233 -1.12692V-14.3342C1233 -16.5 1234.16 -18.5013 1236.03 -19.5842L1247.47 -26.1878Z" fill="#F0F1FF"/>
<path d="M642.469 96.812C644.345 95.729 646.656 95.729 648.532 96.812L659.969 103.416C661.845 104.499 663 106.5 663 108.666V121.873C663 124.039 661.845 126.04 659.969 127.123L648.532 133.727C646.656 134.81 644.345 134.81 642.469 133.727L631.032 127.123C629.156 126.04 628 124.039 628 121.873V108.666C628 106.5 629.156 104.499 631.032 103.416L642.469 96.812Z" fill="#F0F1FF"/>
<path d="M642.469 96.812C644.345 95.729 646.656 95.729 648.532 96.812L659.969 103.416C661.845 104.499 663 106.5 663 108.666V121.873C663 124.039 661.845 126.04 659.969 127.123L648.532 133.727C646.656 134.81 644.345 134.81 642.469 133.727L631.032 127.123C629.156 126.04 628 124.039 628 121.873V108.666C628 106.5 629.156 104.499 631.032 103.416L642.469 96.812Z" fill="#F0F1FF"/>
<path d="M744.469 156.812C746.345 155.729 748.656 155.729 750.532 156.812L761.969 163.416C763.845 164.499 765 166.5 765 168.666V181.873C765 184.039 763.845 186.04 761.969 187.123L750.532 193.727C748.656 194.81 746.345 194.81 744.469 193.727L733.032 187.123C731.156 186.04 730 184.039 730 181.873V168.666C730 166.5 731.156 164.499 733.032 163.416L744.469 156.812Z" fill="#F0F1FF"/>
<path d="M367.576 125H377.486C379.55 125 381.322 124.6 382.804 123.799C384.292 122.998 385.433 121.849 386.226 120.352C387.027 118.854 387.427 117.064 387.427 114.98C387.427 112.904 387.027 111.12 386.226 109.629C385.433 108.138 384.298 106.995 382.824 106.201C381.349 105.4 379.589 105 377.546 105H373.141C371.563 105 370.284 106.279 370.284 107.857V117.8C370.284 118.398 370.977 118.731 371.444 118.357L376.155 114.589C376.576 114.252 376.338 113.571 375.798 113.571H375.151C374.835 113.571 374.58 113.316 374.58 113V110.052C374.58 109.263 375.219 108.623 376.008 108.623H377.318C378.587 108.623 379.656 108.844 380.522 109.287C381.388 109.73 382.04 110.42 382.476 111.357C382.919 112.295 383.141 113.503 383.141 114.98C383.141 116.471 382.919 117.689 382.476 118.633C382.04 119.57 381.385 120.264 380.512 120.713C379.646 121.156 378.578 121.377 377.308 121.377H374.57L370.487 121.426C370.356 121.428 370.229 121.474 370.128 121.559L367.211 123.99C366.8 124.332 367.042 125 367.576 125Z" fill="#DFDFFA"/>
<path d="M130.576 62H140.486C142.55 62 144.322 61.5996 145.804 60.7988C147.292 59.998 148.433 58.849 149.226 57.3516C150.027 55.8542 150.427 54.0638 150.427 51.9805C150.427 49.9036 150.027 48.1198 149.226 46.6289C148.433 45.138 147.298 43.9954 145.824 43.2012C144.349 42.4004 142.589 42 140.546 42H136.141C134.563 42 133.284 43.2792 133.284 44.8571V54.7996C133.284 55.3985 133.977 55.7315 134.444 55.3573L139.155 51.5891C139.576 51.2516 139.338 50.5714 138.798 50.5714H138.151C137.835 50.5714 137.58 50.3156 137.58 50V47.0516C137.58 46.2626 138.219 45.623 139.008 45.623H140.318C141.587 45.623 142.656 45.8444 143.522 46.2871C144.388 46.7298 145.04 47.4199 145.476 48.3574C145.919 49.2949 146.141 50.5026 146.141 51.9805C146.141 53.4714 145.919 54.6888 145.476 55.6328C145.04 56.5703 144.385 57.2637 143.512 57.7129C142.646 58.1556 141.578 58.377 140.308 58.377H137.57L133.487 58.4261C133.356 58.4277 133.229 58.4745 133.128 58.5585L130.211 60.9896C129.8 61.3317 130.042 62 130.576 62Z" fill="#DFDFFA"/>
<path d="M1173.58 124H1183.49C1185.55 124 1187.32 123.6 1188.8 122.799C1190.29 121.998 1191.43 120.849 1192.23 119.352C1193.03 117.854 1193.43 116.064 1193.43 113.98C1193.43 111.904 1193.03 110.12 1192.23 108.629C1191.43 107.138 1190.3 105.995 1188.82 105.201C1187.35 104.4 1185.59 104 1183.55 104H1179.14C1177.56 104 1176.28 105.279 1176.28 106.857V116.8C1176.28 117.398 1176.98 117.731 1177.44 117.357L1182.15 113.589C1182.58 113.252 1182.34 112.571 1181.8 112.571H1181.15C1180.84 112.571 1180.58 112.316 1180.58 112V109.052C1180.58 108.263 1181.22 107.623 1182.01 107.623H1183.32C1184.59 107.623 1185.66 107.844 1186.52 108.287C1187.39 108.73 1188.04 109.42 1188.48 110.357C1188.92 111.295 1189.14 112.503 1189.14 113.98C1189.14 115.471 1188.92 116.689 1188.48 117.633C1188.04 118.57 1187.39 119.264 1186.51 119.713C1185.65 120.156 1184.58 120.377 1183.31 120.377H1180.57L1176.49 120.426C1176.36 120.428 1176.23 120.474 1176.13 120.559L1173.21 122.99C1172.8 123.332 1173.04 124 1173.58 124Z" fill="#DFDFFA"/>
<path d="M1005.58 63H1015.49C1017.55 63 1019.32 62.5996 1020.8 61.7988C1022.29 60.998 1023.43 59.849 1024.23 58.3516C1025.03 56.8542 1025.43 55.0638 1025.43 52.9805C1025.43 50.9036 1025.03 49.1198 1024.23 47.6289C1023.43 46.138 1022.3 44.9954 1020.82 44.2012C1019.35 43.4004 1017.59 43 1015.55 43H1011.14C1009.56 43 1008.28 44.2792 1008.28 45.8571V55.7996C1008.28 56.3985 1008.98 56.7315 1009.44 56.3573L1014.15 52.5891C1014.58 52.2516 1014.34 51.5714 1013.8 51.5714H1013.15C1012.84 51.5714 1012.58 51.3156 1012.58 51V48.0516C1012.58 47.2626 1013.22 46.623 1014.01 46.623H1015.32C1016.59 46.623 1017.66 46.8444 1018.52 47.2871C1019.39 47.7298 1020.04 48.4199 1020.48 49.3574C1020.92 50.2949 1021.14 51.5026 1021.14 52.9805C1021.14 54.4714 1020.92 55.6888 1020.48 56.6328C1020.04 57.5703 1019.39 58.2637 1018.51 58.7129C1017.65 59.1556 1016.58 59.377 1015.31 59.377H1012.57L1008.49 59.4261C1008.36 59.4277 1008.23 59.4745 1008.13 59.5585L1005.21 61.9896C1004.8 62.3317 1005.04 63 1005.58 63Z" fill="#DFDFFA"/>
<path d="M837.576 125H847.486C849.55 125 851.322 124.6 852.804 123.799C854.292 122.998 855.433 121.849 856.226 120.352C857.027 118.854 857.427 117.064 857.427 114.98C857.427 112.904 857.027 111.12 856.226 109.629C855.433 108.138 854.298 106.995 852.824 106.201C851.349 105.4 849.589 105 847.546 105H843.141C841.563 105 840.284 106.279 840.284 107.857V117.8C840.284 118.398 840.977 118.731 841.444 118.357L846.155 114.589C846.576 114.252 846.338 113.571 845.798 113.571H845.151C844.835 113.571 844.58 113.316 844.58 113V110.052C844.58 109.263 845.219 108.623 846.008 108.623H847.318C848.587 108.623 849.656 108.844 850.522 109.287C851.388 109.73 852.04 110.42 852.476 111.357C852.919 112.295 853.141 113.503 853.141 114.98C853.141 116.471 852.919 117.689 852.476 118.633C852.04 119.57 851.385 120.264 850.512 120.713C849.646 121.156 848.578 121.377 847.308 121.377H844.57L840.487 121.426C840.356 121.428 840.229 121.474 840.128 121.559L837.211 123.99C836.8 124.332 837.042 125 837.576 125Z" fill="#E5E8FF"/>
<path d="M601.576 63H611.486C613.55 63 615.322 62.5996 616.804 61.7988C618.292 60.998 619.433 59.849 620.226 58.3516C621.027 56.8542 621.427 55.0638 621.427 52.9805C621.427 50.9036 621.027 49.1198 620.226 47.6289C619.433 46.138 618.298 44.9954 616.824 44.2012C615.349 43.4004 613.589 43 611.546 43H607.141C605.563 43 604.284 44.2792 604.284 45.8571V55.7996C604.284 56.3985 604.977 56.7315 605.444 56.3573L610.155 52.5891C610.576 52.2516 610.338 51.5714 609.798 51.5714H609.151C608.835 51.5714 608.579 51.3156 608.579 51V48.0516C608.579 47.2626 609.219 46.623 610.008 46.623H611.318C612.587 46.623 613.656 46.8444 614.522 47.2871C615.388 47.7298 616.04 48.4199 616.476 49.3574C616.919 50.2949 617.141 51.5026 617.141 52.9805C617.141 54.4714 616.919 55.6888 616.476 56.6328C616.04 57.5703 615.385 58.2637 614.512 58.7129C613.646 59.1556 612.578 59.377 611.308 59.377H608.57L604.487 59.4261C604.356 59.4277 604.229 59.4745 604.128 59.5585L601.211 61.9896C600.8 62.3317 601.042 63 601.576 63Z" fill="#E5E8FF"/>
</g>
<defs>
<filter id="filter0_b_22053_66326" x="-14" y="-14" width="1404" height="228" filterUnits="userSpaceOnUse" color-interpolation-filters="sRGB">
<feFlood flood-opacity="0" result="BackgroundImageFix"/>
<feGaussianBlur in="BackgroundImageFix" stdDeviation="7"/>
<feComposite in2="SourceAlpha" operator="in" result="effect1_backgroundBlur_22053_66326"/>
<feBlend mode="normal" in="SourceGraphic" in2="effect1_backgroundBlur_22053_66326" result="shape"/>
</filter>
<clipPath id="clip0_22053_66326">
<rect width="1376" height="104" fill="white"/>
</clipPath>
</defs>
</svg>
