<svg width="272" height="169" viewBox="0 0 272 169" fill="none" xmlns="http://www.w3.org/2000/svg">
<g filter="url(#filter0_b_22053_64527)">
<path d="M0 0H1376V200H0V0Z" fill="#F8F8FF"/>
</g>
<mask id="path-2-inside-1_22053_64527" fill="white">
<path d="M1149.75 -18.0855C1152.76 -19.8244 1156.46 -19.8244 1159.47 -18.0855L1177.82 -7.4821C1180.83 -5.74328 1182.68 -2.52981 1182.68 0.947828V22.1547C1182.68 25.6323 1180.83 28.8458 1177.82 30.5846L1159.47 41.1881C1156.46 42.9269 1152.76 42.9269 1149.75 41.1881L1131.4 30.5846C1128.4 28.8458 1126.54 25.6323 1126.54 22.1547V0.947828C1126.54 -2.52981 1128.4 -5.74328 1131.4 -7.4821L1149.75 -18.0855Z"/>
<path d="M1217.09 -18.0855C1220.09 -19.8244 1223.8 -19.8244 1226.81 -18.0855L1245.15 -7.4821C1248.16 -5.74328 1250.02 -2.52981 1250.02 0.947828V22.1547C1250.02 25.6323 1248.16 28.8458 1245.15 30.5846L1226.81 41.1881C1223.8 42.9269 1220.09 42.9269 1217.09 41.1881L1198.74 30.5846C1195.73 28.8458 1193.88 25.6323 1193.88 22.1547V0.947828C1193.88 -2.52981 1195.73 -5.74328 1198.74 -7.4821L1217.09 -18.0855Z"/>
<path d="M1183.42 43.5246C1186.43 41.7858 1190.13 41.7858 1193.14 43.5246L1211.49 54.128C1214.49 55.8668 1216.35 59.0803 1216.35 62.558V83.7648C1216.35 87.2425 1214.49 90.4559 1211.49 92.1947L1193.14 102.798C1190.13 104.537 1186.43 104.537 1183.42 102.798L1165.07 92.1947C1162.06 90.4559 1160.21 87.2425 1160.21 83.7648V62.5579C1160.21 59.0803 1162.06 55.8668 1165.07 54.128L1183.42 43.5246Z"/>
<path d="M1149.75 105.135C1152.76 103.396 1156.46 103.396 1159.47 105.135L1177.82 115.738C1180.83 117.477 1182.68 120.69 1182.68 124.168V145.375C1182.68 148.853 1180.83 152.066 1177.82 153.805L1159.47 164.408C1156.46 166.147 1152.76 166.147 1149.75 164.408L1131.4 153.805C1128.4 152.066 1126.54 148.853 1126.54 145.375V124.168C1126.54 120.69 1128.4 117.477 1131.4 115.738L1149.75 105.135Z"/>
<path d="M1217.09 105.135C1220.09 103.396 1223.8 103.396 1226.81 105.135L1245.15 115.738C1248.16 117.477 1250.02 120.69 1250.02 124.168V145.375C1250.02 148.853 1248.16 152.066 1245.15 153.805L1226.81 164.408C1223.8 166.147 1220.09 166.147 1217.09 164.408L1198.74 153.805C1195.73 152.066 1193.88 148.853 1193.88 145.375V124.168C1193.88 120.69 1195.73 117.477 1198.74 115.738L1217.09 105.135Z"/>
<path d="M1183.42 166.745C1186.43 165.006 1190.13 165.006 1193.14 166.745L1211.49 177.348C1214.49 179.087 1216.35 182.301 1216.35 185.778V206.985C1216.35 210.463 1214.49 213.676 1211.49 215.415L1193.14 226.018C1190.13 227.757 1186.43 227.757 1183.42 226.018L1165.07 215.415C1162.06 213.676 1160.21 210.463 1160.21 206.985V185.778C1160.21 182.301 1162.06 179.087 1165.07 177.348L1183.42 166.745Z"/>
<path d="M-194.251 -18.0855C-191.243 -19.8244 -187.536 -19.8244 -184.528 -18.0855L-166.183 -7.4821C-163.175 -5.74328 -161.321 -2.52981 -161.321 0.947828V22.1547C-161.321 25.6323 -163.175 28.8458 -166.183 30.5846L-184.528 41.1881C-187.536 42.9269 -191.243 42.9269 -194.251 41.1881L-212.596 30.5846C-215.605 28.8458 -217.458 25.6323 -217.458 22.1547V0.947828C-217.458 -2.52981 -215.605 -5.74328 -212.596 -7.4821L-194.251 -18.0855Z"/>
<path d="M-126.913 -18.0855C-123.905 -19.8244 -120.199 -19.8244 -117.19 -18.0855L-98.8451 -7.4821C-95.8367 -5.74328 -93.9835 -2.52981 -93.9835 0.947828V22.1547C-93.9835 25.6323 -95.8367 28.8458 -98.8451 30.5846L-117.19 41.1881C-120.199 42.9269 -123.905 42.9269 -126.913 41.1881L-145.258 30.5846C-148.267 28.8458 -150.12 25.6323 -150.12 22.1547V0.947828C-150.12 -2.52981 -148.267 -5.74328 -145.258 -7.4821L-126.913 -18.0855Z"/>
<path d="M-59.7657 -18.0855C-56.7574 -19.8244 -53.0509 -19.8244 -50.0426 -18.0855L-31.6974 -7.4821C-28.6891 -5.74328 -26.8359 -2.52981 -26.8359 0.947828V22.1547C-26.8359 25.6323 -28.6891 28.8458 -31.6974 30.5846L-50.0426 41.1881C-53.0509 42.9269 -56.7574 42.9269 -59.7657 41.1881L-78.1109 30.5846C-81.1192 28.8458 -82.9724 25.6323 -82.9724 22.1547V0.947828C-82.9724 -2.52981 -81.1192 -5.74328 -78.1109 -7.4821L-59.7657 -18.0855Z"/>
<path d="M7.44531 -18.0855C10.4536 -19.8244 14.1601 -19.8244 17.1685 -18.0855L35.5135 -7.4821C38.5219 -5.74328 40.3751 -2.52981 40.3751 0.947828V22.1547C40.3751 25.6323 38.5219 28.8458 35.5135 30.5846L17.1685 41.1881C14.1601 42.9269 10.4536 42.9269 7.44531 41.1881L-10.8998 30.5846C-13.9082 28.8458 -15.7614 25.6323 -15.7614 22.1547V0.947828C-15.7614 -2.52981 -13.9082 -5.74328 -10.8998 -7.4821L7.44531 -18.0855Z"/>
<path d="M74.6564 -18.0855C77.6647 -19.8244 81.3711 -19.8244 84.3795 -18.0855L102.725 -7.4821C105.733 -5.74328 107.586 -2.52981 107.586 0.947828V22.1547C107.586 25.6323 105.733 28.8458 102.725 30.5846L84.3795 41.1881C81.3711 42.9269 77.6647 42.9269 74.6564 41.1881L56.3112 30.5846C53.3029 28.8458 51.4496 25.6323 51.4496 22.1547V0.947828C51.4496 -2.52981 53.3029 -5.74328 56.3112 -7.4821L74.6564 -18.0855Z"/>
<path d="M141.804 -18.0855C144.812 -19.8244 148.519 -19.8244 151.527 -18.0855L169.872 -7.4821C172.881 -5.74328 174.734 -2.52981 174.734 0.947828V22.1547C174.734 25.6323 172.881 28.8458 169.872 30.5846L151.527 41.1881C148.519 42.9269 144.812 42.9269 141.804 41.1881L123.459 30.5846C120.45 28.8458 118.597 25.6323 118.597 22.1547V0.947828C118.597 -2.52981 120.45 -5.74328 123.459 -7.4821L141.804 -18.0855Z"/>
<path d="M209.015 -18.0855C212.023 -19.8244 215.73 -19.8244 218.738 -18.0855L237.083 -7.4821C240.092 -5.74328 241.945 -2.52981 241.945 0.947828V22.1547C241.945 25.6323 240.092 28.8458 237.083 30.5846L218.738 41.1881C215.73 42.9269 212.023 42.9269 209.015 41.1881L190.67 30.5846C187.662 28.8458 185.808 25.6323 185.808 22.1547V0.947828C185.808 -2.52981 187.662 -5.74328 190.67 -7.4821L209.015 -18.0855Z"/>
<path d="M-227.793 43.5246C-224.785 41.7858 -221.079 41.7858 -218.07 43.5246L-199.725 54.128C-196.717 55.8668 -194.863 59.0803 -194.863 62.558V83.7648C-194.863 87.2425 -196.717 90.4559 -199.725 92.1947L-218.07 102.798C-221.079 104.537 -224.785 104.537 -227.793 102.798L-246.138 92.1947C-249.147 90.4559 -251 87.2425 -251 83.7648V62.5579C-251 59.0803 -249.147 55.8668 -246.138 54.128L-227.793 43.5246Z"/>
<path d="M-160.582 43.5246C-157.574 41.7858 -153.868 41.7858 -150.859 43.5246L-132.514 54.128C-129.506 55.8668 -127.652 59.0803 -127.652 62.558V83.7648C-127.652 87.2425 -129.506 90.4559 -132.514 92.1947L-150.859 102.798C-153.868 104.537 -157.574 104.537 -160.582 102.798L-178.927 92.1947C-181.936 90.4559 -183.789 87.2425 -183.789 83.7648V62.5579C-183.789 59.0803 -181.936 55.8668 -178.927 54.128L-160.582 43.5246Z"/>
<path d="M-93.2444 43.5246C-90.236 41.7858 -86.5296 41.7858 -83.5212 43.5246L-65.1761 54.128C-62.1677 55.8668 -60.3145 59.0803 -60.3145 62.558V83.7648C-60.3145 87.2425 -62.1677 90.4559 -65.1761 92.1947L-83.5212 102.798C-86.5296 104.537 -90.236 104.537 -93.2444 102.798L-111.589 92.1947C-114.598 90.4559 -116.451 87.2425 -116.451 83.7648V62.5579C-116.451 59.0803 -114.598 55.8668 -111.589 54.128L-93.2444 43.5246Z"/>
<path d="M-26.0967 43.5246C-23.0884 41.7858 -19.382 41.7858 -16.3737 43.5246L1.9715 54.128C4.97984 55.8668 6.83307 59.0803 6.83307 62.558V83.7648C6.83307 87.2425 4.97984 90.4559 1.9715 92.1947L-16.3737 102.798C-19.382 104.537 -23.0884 104.537 -26.0967 102.798L-44.4419 92.1947C-47.4502 90.4559 -49.3035 87.2425 -49.3035 83.7648V62.5579C-49.3035 59.0803 -47.4502 55.8668 -44.4419 54.128L-26.0967 43.5246Z"/>
<path d="M41.1143 43.5246C44.1226 41.7858 47.8291 41.7858 50.8374 43.5246L69.1825 54.128C72.1909 55.8668 74.0441 59.0803 74.0441 62.558V83.7648C74.0441 87.2425 72.1909 90.4559 69.1825 92.1947L50.8374 102.798C47.8291 104.537 44.1226 104.537 41.1143 102.798L22.7692 92.1947C19.7608 90.4559 17.9076 87.2425 17.9076 83.7648V62.5579C17.9076 59.0803 19.7608 55.8668 22.7692 54.128L41.1143 43.5246Z"/>
<path d="M108.325 43.5246C111.334 41.7858 115.04 41.7858 118.048 43.5246L136.394 54.128C139.402 55.8668 141.255 59.0803 141.255 62.558V83.7648C141.255 87.2425 139.402 90.4559 136.394 92.1947L118.048 102.798C115.04 104.537 111.334 104.537 108.325 102.798L89.9802 92.1947C86.9718 90.4559 85.1186 87.2425 85.1186 83.7648V62.5579C85.1186 59.0803 86.9718 55.8668 89.9802 54.128L108.325 43.5246Z"/>
<path d="M175.473 43.5246C178.481 41.7858 182.188 41.7858 185.196 43.5246L203.541 54.128C206.549 55.8668 208.403 59.0803 208.403 62.558V83.7648C208.403 87.2425 206.549 90.4559 203.541 92.1947L185.196 102.798C182.188 104.537 178.481 104.537 175.473 102.798L157.128 92.1947C154.119 90.4559 152.266 87.2425 152.266 83.7648V62.5579C152.266 59.0803 154.119 55.8668 157.128 54.128L175.473 43.5246Z"/>
<path d="M242.684 43.5246C245.692 41.7858 249.399 41.7858 252.407 43.5246L270.752 54.128C273.761 55.8668 275.614 59.0803 275.614 62.558V83.7648C275.614 87.2425 273.761 90.4559 270.752 92.1947L252.407 102.798C249.399 104.537 245.692 104.537 242.684 102.798L224.339 92.1947C221.33 90.4559 219.477 87.2425 219.477 83.7648V62.5579C219.477 59.0803 221.33 55.8668 224.339 54.128L242.684 43.5246Z"/>
<path d="M-194.251 105.135C-191.243 103.396 -187.536 103.396 -184.528 105.135L-166.183 115.738C-163.175 117.477 -161.321 120.69 -161.321 124.168V145.375C-161.321 148.853 -163.175 152.066 -166.183 153.805L-184.528 164.408C-187.536 166.147 -191.243 166.147 -194.251 164.408L-212.596 153.805C-215.605 152.066 -217.458 148.853 -217.458 145.375V124.168C-217.458 120.69 -215.605 117.477 -212.596 115.738L-194.251 105.135Z"/>
<path d="M-126.913 105.135C-123.905 103.396 -120.199 103.396 -117.19 105.135L-98.8451 115.738C-95.8367 117.477 -93.9835 120.69 -93.9835 124.168V145.375C-93.9835 148.853 -95.8367 152.066 -98.8451 153.805L-117.19 164.408C-120.199 166.147 -123.905 166.147 -126.913 164.408L-145.258 153.805C-148.267 152.066 -150.12 148.853 -150.12 145.375V124.168C-150.12 120.69 -148.267 117.477 -145.258 115.738L-126.913 105.135Z"/>
<path d="M-59.7657 105.135C-56.7574 103.396 -53.0509 103.396 -50.0426 105.135L-31.6974 115.738C-28.6891 117.477 -26.8359 120.69 -26.8359 124.168V145.375C-26.8359 148.853 -28.6891 152.066 -31.6974 153.805L-50.0426 164.408C-53.0509 166.147 -56.7574 166.147 -59.7657 164.408L-78.1109 153.805C-81.1192 152.066 -82.9724 148.853 -82.9724 145.375V124.168C-82.9724 120.69 -81.1192 117.477 -78.1109 115.738L-59.7657 105.135Z"/>
<path d="M7.44531 105.135C10.4536 103.396 14.1601 103.396 17.1685 105.135L35.5135 115.738C38.5219 117.477 40.3751 120.69 40.3751 124.168V145.375C40.3751 148.853 38.5219 152.066 35.5135 153.805L17.1685 164.408C14.1601 166.147 10.4536 166.147 7.44531 164.408L-10.8998 153.805C-13.9082 152.066 -15.7614 148.853 -15.7614 145.375V124.168C-15.7614 120.69 -13.9082 117.477 -10.8998 115.738L7.44531 105.135Z"/>
<path d="M74.6564 105.135C77.6647 103.396 81.3711 103.396 84.3795 105.135L102.725 115.738C105.733 117.477 107.586 120.69 107.586 124.168V145.375C107.586 148.853 105.733 152.066 102.725 153.805L84.3795 164.408C81.3711 166.147 77.6647 166.147 74.6564 164.408L56.3112 153.805C53.3029 152.066 51.4496 148.853 51.4496 145.375V124.168C51.4496 120.69 53.3029 117.477 56.3112 115.738L74.6564 105.135Z"/>
<path d="M141.804 105.135C144.812 103.396 148.519 103.396 151.527 105.135L169.872 115.738C172.881 117.477 174.734 120.69 174.734 124.168V145.375C174.734 148.853 172.881 152.066 169.872 153.805L151.527 164.408C148.519 166.147 144.812 166.147 141.804 164.408L123.459 153.805C120.45 152.066 118.597 148.853 118.597 145.375V124.168C118.597 120.69 120.45 117.477 123.459 115.738L141.804 105.135Z"/>
<path d="M209.015 105.135C212.023 103.396 215.73 103.396 218.738 105.135L237.083 115.738C240.092 117.477 241.945 120.69 241.945 124.168V145.375C241.945 148.853 240.092 152.066 237.083 153.805L218.738 164.408C215.73 166.147 212.023 166.147 209.015 164.408L190.67 153.805C187.662 152.066 185.808 148.853 185.808 145.375V124.168C185.808 120.69 187.662 117.477 190.67 115.738L209.015 105.135Z"/>
<path d="M-227.793 166.745C-224.785 165.006 -221.079 165.006 -218.07 166.745L-199.725 177.348C-196.717 179.087 -194.863 182.301 -194.863 185.778V206.985C-194.863 210.463 -196.717 213.676 -199.725 215.415L-218.07 226.018C-221.079 227.757 -224.785 227.757 -227.793 226.018L-246.138 215.415C-249.147 213.676 -251 210.463 -251 206.985V185.778C-251 182.301 -249.147 179.087 -246.138 177.348L-227.793 166.745Z"/>
<path d="M-160.582 166.745C-157.574 165.006 -153.868 165.006 -150.859 166.745L-132.514 177.348C-129.506 179.087 -127.652 182.301 -127.652 185.778V206.985C-127.652 210.463 -129.506 213.676 -132.514 215.415L-150.859 226.018C-153.868 227.757 -157.574 227.757 -160.582 226.018L-178.927 215.415C-181.936 213.676 -183.789 210.463 -183.789 206.985V185.778C-183.789 182.301 -181.936 179.087 -178.927 177.348L-160.582 166.745Z"/>
<path d="M-93.2444 166.745C-90.236 165.006 -86.5296 165.006 -83.5212 166.745L-65.1761 177.348C-62.1677 179.087 -60.3145 182.301 -60.3145 185.778V206.985C-60.3145 210.463 -62.1677 213.676 -65.1761 215.415L-83.5212 226.018C-86.5296 227.757 -90.236 227.757 -93.2444 226.018L-111.589 215.415C-114.598 213.676 -116.451 210.463 -116.451 206.985V185.778C-116.451 182.301 -114.598 179.087 -111.589 177.348L-93.2444 166.745Z"/>
<path d="M-26.0967 166.745C-23.0884 165.006 -19.382 165.006 -16.3737 166.745L1.9715 177.348C4.97984 179.087 6.83307 182.301 6.83307 185.778V206.985C6.83307 210.463 4.97984 213.676 1.9715 215.415L-16.3737 226.018C-19.382 227.757 -23.0884 227.757 -26.0967 226.018L-44.4419 215.415C-47.4502 213.676 -49.3035 210.463 -49.3035 206.985V185.778C-49.3035 182.301 -47.4502 179.087 -44.4419 177.348L-26.0967 166.745Z"/>
<path d="M41.1143 166.745C44.1226 165.006 47.8291 165.006 50.8374 166.745L69.1825 177.348C72.1909 179.087 74.0441 182.301 74.0441 185.778V206.985C74.0441 210.463 72.1909 213.676 69.1825 215.415L50.8374 226.018C47.8291 227.757 44.1226 227.757 41.1143 226.018L22.7692 215.415C19.7608 213.676 17.9076 210.463 17.9076 206.985V185.778C17.9076 182.301 19.7608 179.087 22.7692 177.348L41.1143 166.745Z"/>
<path d="M108.325 166.745C111.334 165.006 115.04 165.006 118.048 166.745L136.394 177.348C139.402 179.087 141.255 182.301 141.255 185.778V206.985C141.255 210.463 139.402 213.676 136.394 215.415L118.048 226.018C115.04 227.757 111.334 227.757 108.325 226.018L89.9802 215.415C86.9718 213.676 85.1186 210.463 85.1186 206.985V185.778C85.1186 182.301 86.9718 179.087 89.9802 177.348L108.325 166.745Z"/>
<path d="M175.473 166.745C178.481 165.006 182.188 165.006 185.196 166.745L203.541 177.348C206.549 179.087 208.403 182.301 208.403 185.778V206.985C208.403 210.463 206.549 213.676 203.541 215.415L185.196 226.018C182.188 227.757 178.481 227.757 175.473 226.018L157.128 215.415C154.119 213.676 152.266 210.463 152.266 206.985V185.778C152.266 182.301 154.119 179.087 157.128 177.348L175.473 166.745Z"/>
<path d="M242.684 166.745C245.692 165.006 249.399 165.006 252.407 166.745L270.752 177.348C273.761 179.087 275.614 182.301 275.614 185.778V206.985C275.614 210.463 273.761 213.676 270.752 215.415L252.407 226.018C249.399 227.757 245.692 227.757 242.684 226.018L224.339 215.415C221.33 213.676 219.477 210.463 219.477 206.985V185.778C219.477 182.301 221.33 179.087 224.339 177.348L242.684 166.745Z"/>
<path d="M747.087 -18.0855C750.095 -19.8244 753.801 -19.8244 756.81 -18.0855L775.155 -7.4821C778.163 -5.74328 780.016 -2.52981 780.016 0.947828V22.1547C780.016 25.6323 778.163 28.8458 775.155 30.5846L756.81 41.1881C753.801 42.9269 750.095 42.9269 747.087 41.1881L728.742 30.5846C725.733 28.8458 723.88 25.6323 723.88 22.1547V0.947828C723.88 -2.52981 725.733 -5.74328 728.742 -7.4821L747.087 -18.0855Z"/>
<path d="M814.234 -18.0855C817.243 -19.8244 820.949 -19.8244 823.957 -18.0855L842.302 -7.4821C845.311 -5.74328 847.164 -2.52981 847.164 0.947828V22.1547C847.164 25.6323 845.311 28.8458 842.302 30.5846L823.957 41.1881C820.949 42.9269 817.243 42.9269 814.234 41.1881L795.889 30.5846C792.881 28.8458 791.028 25.6323 791.028 22.1547V0.947828C791.028 -2.52981 792.881 -5.74328 795.889 -7.4821L814.234 -18.0855Z"/>
<path d="M881.445 -18.0855C884.454 -19.8244 888.16 -19.8244 891.168 -18.0855L909.514 -7.4821C912.522 -5.74328 914.375 -2.52981 914.375 0.947828V22.1547C914.375 25.6323 912.522 28.8458 909.514 30.5846L891.168 41.1881C888.16 42.9269 884.454 42.9269 881.445 41.1881L863.1 30.5846C860.092 28.8458 858.239 25.6323 858.239 22.1547V0.947828C858.239 -2.52981 860.092 -5.74328 863.1 -7.4821L881.445 -18.0855Z"/>
<path d="M948.656 -18.0855C951.665 -19.8244 955.371 -19.8244 958.379 -18.0855L976.725 -7.4821C979.733 -5.74328 981.586 -2.52981 981.586 0.947828V22.1547C981.586 25.6323 979.733 28.8458 976.725 30.5846L958.379 41.1881C955.371 42.9269 951.665 42.9269 948.656 41.1881L930.311 30.5846C927.303 28.8458 925.45 25.6323 925.45 22.1547V0.947828C925.45 -2.52981 927.303 -5.74328 930.311 -7.4821L948.656 -18.0855Z"/>
<path d="M1015.8 -18.0855C1018.81 -19.8244 1022.52 -19.8244 1025.53 -18.0855L1043.87 -7.4821C1046.88 -5.74328 1048.73 -2.52981 1048.73 0.947828V22.1547C1048.73 25.6323 1046.88 28.8458 1043.87 30.5846L1025.53 41.1881C1022.52 42.9269 1018.81 42.9269 1015.8 41.1881L997.459 30.5846C994.45 28.8458 992.597 25.6323 992.597 22.1547V0.947828C992.597 -2.52981 994.45 -5.74328 997.459 -7.4821L1015.8 -18.0855Z"/>
<path d="M1083.01 -18.0855C1086.02 -19.8244 1089.73 -19.8244 1092.74 -18.0855L1111.08 -7.4821C1114.09 -5.74328 1115.94 -2.52981 1115.94 0.947828V22.1547C1115.94 25.6323 1114.09 28.8458 1111.08 30.5846L1092.74 41.1881C1089.73 42.9269 1086.02 42.9269 1083.01 41.1881L1064.67 30.5846C1061.66 28.8458 1059.81 25.6323 1059.81 22.1547V0.947828C1059.81 -2.52981 1061.66 -5.74328 1064.67 -7.4821L1083.01 -18.0855Z"/>
<path d="M780.756 43.5246C783.764 41.7858 787.47 41.7858 790.479 43.5246L808.824 54.128C811.832 55.8668 813.685 59.0803 813.685 62.558V83.7648C813.685 87.2425 811.832 90.4559 808.824 92.1947L790.479 102.798C787.47 104.537 783.764 104.537 780.756 102.798L762.411 92.1947C759.402 90.4559 757.549 87.2425 757.549 83.7648V62.5579C757.549 59.0803 759.402 55.8668 762.411 54.128L780.756 43.5246Z"/>
<path d="M847.903 43.5246C850.912 41.7858 854.618 41.7858 857.626 43.5246L875.971 54.128C878.98 55.8668 880.833 59.0803 880.833 62.558V83.7648C880.833 87.2425 878.98 90.4559 875.971 92.1947L857.626 102.798C854.618 104.537 850.912 104.537 847.903 102.798L829.558 92.1947C826.55 90.4559 824.697 87.2425 824.697 83.7648V62.5579C824.697 59.0803 826.55 55.8668 829.558 54.128L847.903 43.5246Z"/>
<path d="M915.114 43.5246C918.123 41.7858 921.829 41.7858 924.837 43.5246L943.182 54.128C946.191 55.8668 948.044 59.0803 948.044 62.558V83.7648C948.044 87.2425 946.191 90.4559 943.182 92.1947L924.837 102.798C921.829 104.537 918.123 104.537 915.114 102.798L896.769 92.1947C893.761 90.4559 891.908 87.2425 891.908 83.7648V62.5579C891.908 59.0803 893.761 55.8668 896.769 54.128L915.114 43.5246Z"/>
<path d="M982.325 43.5246C985.334 41.7858 989.04 41.7858 992.048 43.5246L1010.39 54.128C1013.4 55.8668 1015.26 59.0803 1015.26 62.558V83.7648C1015.26 87.2425 1013.4 90.4559 1010.39 92.1947L992.048 102.798C989.04 104.537 985.334 104.537 982.325 102.798L963.98 92.1947C960.972 90.4559 959.119 87.2425 959.119 83.7648V62.5579C959.119 59.0803 960.972 55.8668 963.98 54.128L982.325 43.5246Z"/>
<path d="M1049.47 43.5246C1052.48 41.7858 1056.19 41.7858 1059.2 43.5246L1077.54 54.128C1080.55 55.8668 1082.4 59.0803 1082.4 62.558V83.7648C1082.4 87.2425 1080.55 90.4559 1077.54 92.1947L1059.2 102.798C1056.19 104.537 1052.48 104.537 1049.47 102.798L1031.13 92.1947C1028.12 90.4559 1026.27 87.2425 1026.27 83.7648V62.5579C1026.27 59.0803 1028.12 55.8668 1031.13 54.128L1049.47 43.5246Z"/>
<path d="M1116.68 43.5246C1119.69 41.7858 1123.4 41.7858 1126.41 43.5246L1144.75 54.128C1147.76 55.8668 1149.61 59.0803 1149.61 62.558V83.7648C1149.61 87.2425 1147.76 90.4559 1144.75 92.1947L1126.41 102.798C1123.4 104.537 1119.69 104.537 1116.68 102.798L1098.34 92.1947C1095.33 90.4559 1093.48 87.2425 1093.48 83.7648V62.5579C1093.48 59.0803 1095.33 55.8668 1098.34 54.128L1116.68 43.5246Z"/>
<path d="M747.087 105.135C750.095 103.396 753.801 103.396 756.81 105.135L775.155 115.738C778.163 117.477 780.016 120.69 780.016 124.168V145.375C780.016 148.853 778.163 152.066 775.155 153.805L756.81 164.408C753.801 166.147 750.095 166.147 747.087 164.408L728.742 153.805C725.733 152.066 723.88 148.853 723.88 145.375V124.168C723.88 120.69 725.733 117.477 728.742 115.738L747.087 105.135Z"/>
<path d="M814.234 105.135C817.243 103.396 820.949 103.396 823.957 105.135L842.302 115.738C845.311 117.477 847.164 120.69 847.164 124.168V145.375C847.164 148.853 845.311 152.066 842.302 153.805L823.957 164.408C820.949 166.147 817.243 166.147 814.234 164.408L795.889 153.805C792.881 152.066 791.028 148.853 791.028 145.375V124.168C791.028 120.69 792.881 117.477 795.889 115.738L814.234 105.135Z"/>
<path d="M881.445 105.135C884.454 103.396 888.16 103.396 891.168 105.135L909.514 115.738C912.522 117.477 914.375 120.69 914.375 124.168V145.375C914.375 148.853 912.522 152.066 909.514 153.805L891.168 164.408C888.16 166.147 884.454 166.147 881.445 164.408L863.1 153.805C860.092 152.066 858.239 148.853 858.239 145.375V124.168C858.239 120.69 860.092 117.477 863.1 115.738L881.445 105.135Z"/>
<path d="M948.656 105.135C951.665 103.396 955.371 103.396 958.379 105.135L976.725 115.738C979.733 117.477 981.586 120.69 981.586 124.168V145.375C981.586 148.853 979.733 152.066 976.725 153.805L958.379 164.408C955.371 166.147 951.665 166.147 948.656 164.408L930.311 153.805C927.303 152.066 925.45 148.853 925.45 145.375V124.168C925.45 120.69 927.303 117.477 930.311 115.738L948.656 105.135Z"/>
<path d="M1015.8 105.135C1018.81 103.396 1022.52 103.396 1025.53 105.135L1043.87 115.738C1046.88 117.477 1048.73 120.69 1048.73 124.168V145.375C1048.73 148.853 1046.88 152.066 1043.87 153.805L1025.53 164.408C1022.52 166.147 1018.81 166.147 1015.8 164.408L997.459 153.805C994.45 152.066 992.597 148.853 992.597 145.375V124.168C992.597 120.69 994.45 117.477 997.459 115.738L1015.8 105.135Z"/>
<path d="M1083.01 105.135C1086.02 103.396 1089.73 103.396 1092.74 105.135L1111.08 115.738C1114.09 117.477 1115.94 120.69 1115.94 124.168V145.375C1115.94 148.853 1114.09 152.066 1111.08 153.805L1092.74 164.408C1089.73 166.147 1086.02 166.147 1083.01 164.408L1064.67 153.805C1061.66 152.066 1059.81 148.853 1059.81 145.375V124.168C1059.81 120.69 1061.66 117.477 1064.67 115.738L1083.01 105.135Z"/>
<path d="M780.756 166.745C783.764 165.006 787.47 165.006 790.479 166.745L808.824 177.348C811.832 179.087 813.685 182.301 813.685 185.778V206.985C813.685 210.463 811.832 213.676 808.824 215.415L790.479 226.018C787.47 227.757 783.764 227.757 780.756 226.018L762.411 215.415C759.402 213.676 757.549 210.463 757.549 206.985V185.778C757.549 182.301 759.402 179.087 762.411 177.348L780.756 166.745Z"/>
<path d="M847.903 166.745C850.912 165.006 854.618 165.006 857.626 166.745L875.971 177.348C878.98 179.087 880.833 182.301 880.833 185.778V206.985C880.833 210.463 878.98 213.676 875.971 215.415L857.626 226.018C854.618 227.757 850.912 227.757 847.903 226.018L829.558 215.415C826.55 213.676 824.697 210.463 824.697 206.985V185.778C824.697 182.301 826.55 179.087 829.558 177.348L847.903 166.745Z"/>
<path d="M915.114 166.745C918.123 165.006 921.829 165.006 924.837 166.745L943.182 177.348C946.191 179.087 948.044 182.301 948.044 185.778V206.985C948.044 210.463 946.191 213.676 943.182 215.415L924.837 226.018C921.829 227.757 918.123 227.757 915.114 226.018L896.769 215.415C893.761 213.676 891.908 210.463 891.908 206.985V185.778C891.908 182.301 893.761 179.087 896.769 177.348L915.114 166.745Z"/>
<path d="M982.325 166.745C985.334 165.006 989.04 165.006 992.048 166.745L1010.39 177.348C1013.4 179.087 1015.26 182.301 1015.26 185.778V206.985C1015.26 210.463 1013.4 213.676 1010.39 215.415L992.048 226.018C989.04 227.757 985.334 227.757 982.325 226.018L963.98 215.415C960.972 213.676 959.119 210.463 959.119 206.985V185.778C959.119 182.301 960.972 179.087 963.98 177.348L982.325 166.745Z"/>
<path d="M1049.47 166.745C1052.48 165.006 1056.19 165.006 1059.2 166.745L1077.54 177.348C1080.55 179.087 1082.4 182.301 1082.4 185.778V206.985C1082.4 210.463 1080.55 213.676 1077.54 215.415L1059.2 226.018C1056.19 227.757 1052.48 227.757 1049.47 226.018L1031.13 215.415C1028.12 213.676 1026.27 210.463 1026.27 206.985V185.778C1026.27 182.301 1028.12 179.087 1031.13 177.348L1049.47 166.745Z"/>
<path d="M1116.68 166.745C1119.69 165.006 1123.4 165.006 1126.41 166.745L1144.75 177.348C1147.76 179.087 1149.61 182.301 1149.61 185.778V206.985C1149.61 210.463 1147.76 213.676 1144.75 215.415L1126.41 226.018C1123.4 227.757 1119.69 227.757 1116.68 226.018L1098.34 215.415C1095.33 213.676 1093.48 210.463 1093.48 206.985V185.778C1093.48 182.301 1095.33 179.087 1098.34 177.348L1116.68 166.745Z"/>
<path d="M276.749 -18.0855C279.757 -19.8244 283.464 -19.8244 286.472 -18.0855L304.817 -7.4821C307.825 -5.74328 309.679 -2.52981 309.679 0.947828V22.1547C309.679 25.6323 307.825 28.8458 304.817 30.5846L286.472 41.1881C283.464 42.9269 279.757 42.9269 276.749 41.1881L258.404 30.5846C255.395 28.8458 253.542 25.6323 253.542 22.1547V0.947828C253.542 -2.52981 255.395 -5.74328 258.404 -7.4821L276.749 -18.0855Z"/>
<path d="M344.087 -18.0855C347.095 -19.8244 350.801 -19.8244 353.81 -18.0855L372.155 -7.4821C375.163 -5.74328 377.016 -2.52981 377.016 0.947828V22.1547C377.016 25.6323 375.163 28.8458 372.155 30.5846L353.81 41.1881C350.801 42.9269 347.095 42.9269 344.087 41.1881L325.742 30.5846C322.733 28.8458 320.88 25.6323 320.88 22.1547V0.947828C320.88 -2.52981 322.733 -5.74328 325.742 -7.4821L344.087 -18.0855Z"/>
<path d="M411.234 -18.0855C414.243 -19.8244 417.949 -19.8244 420.957 -18.0855L439.303 -7.4821C442.311 -5.74328 444.164 -2.52981 444.164 0.947828V22.1547C444.164 25.6323 442.311 28.8458 439.303 30.5846L420.957 41.1881C417.949 42.9269 414.243 42.9269 411.234 41.1881L392.889 30.5846C389.881 28.8458 388.028 25.6323 388.028 22.1547V0.947828C388.028 -2.52981 389.881 -5.74328 392.889 -7.4821L411.234 -18.0855Z"/>
<path d="M478.445 -18.0855C481.454 -19.8244 485.16 -19.8244 488.168 -18.0855L506.514 -7.4821C509.522 -5.74328 511.375 -2.52981 511.375 0.947828V22.1547C511.375 25.6323 509.522 28.8458 506.514 30.5846L488.168 41.1881C485.16 42.9269 481.454 42.9269 478.445 41.1881L460.1 30.5846C457.092 28.8458 455.239 25.6323 455.239 22.1547V0.947828C455.239 -2.52981 457.092 -5.74328 460.1 -7.4821L478.445 -18.0855Z"/>
<path d="M545.656 -18.0855C548.665 -19.8244 552.371 -19.8244 555.379 -18.0855L573.725 -7.4821C576.733 -5.74328 578.586 -2.52981 578.586 0.947828V22.1547C578.586 25.6323 576.733 28.8458 573.725 30.5846L555.379 41.1881C552.371 42.9269 548.665 42.9269 545.656 41.1881L527.311 30.5846C524.303 28.8458 522.45 25.6323 522.45 22.1547V0.947828C522.45 -2.52981 524.303 -5.74328 527.311 -7.4821L545.656 -18.0855Z"/>
<path d="M612.804 -18.0855C615.812 -19.8244 619.519 -19.8244 622.527 -18.0855L640.872 -7.4821C643.881 -5.74328 645.734 -2.52981 645.734 0.947828V22.1547C645.734 25.6323 643.881 28.8458 640.872 30.5846L622.527 41.1881C619.519 42.9269 615.812 42.9269 612.804 41.1881L594.459 30.5846C591.45 28.8458 589.597 25.6323 589.597 22.1547V0.947828C589.597 -2.52981 591.45 -5.74328 594.459 -7.4821L612.804 -18.0855Z"/>
<path d="M680.015 -18.0855C683.023 -19.8244 686.73 -19.8244 689.738 -18.0855L708.083 -7.4821C711.092 -5.74328 712.945 -2.52981 712.945 0.947828V22.1547C712.945 25.6323 711.092 28.8458 708.083 30.5846L689.738 41.1881C686.73 42.9269 683.023 42.9269 680.015 41.1881L661.67 30.5846C658.661 28.8458 656.808 25.6323 656.808 22.1547V0.947828C656.808 -2.52981 658.661 -5.74328 661.67 -7.4821L680.015 -18.0855Z"/>
<path d="M310.418 43.5246C313.426 41.7858 317.133 41.7858 320.141 43.5246L338.486 54.128C341.494 55.8668 343.348 59.0803 343.348 62.558V83.7648C343.348 87.2425 341.494 90.4559 338.486 92.1947L320.141 102.798C317.133 104.537 313.426 104.537 310.418 102.798L292.073 92.1947C289.064 90.4559 287.211 87.2425 287.211 83.7648V62.5579C287.211 59.0803 289.064 55.8668 292.073 54.128L310.418 43.5246Z"/>
<path d="M377.756 43.5246C380.764 41.7858 384.47 41.7858 387.479 43.5246L405.824 54.128C408.832 55.8668 410.685 59.0803 410.685 62.558V83.7648C410.685 87.2425 408.832 90.4559 405.824 92.1947L387.479 102.798C384.47 104.537 380.764 104.537 377.756 102.798L359.411 92.1947C356.402 90.4559 354.549 87.2425 354.549 83.7648V62.5579C354.549 59.0803 356.402 55.8668 359.411 54.128L377.756 43.5246Z"/>
<path d="M444.903 43.5246C447.912 41.7858 451.618 41.7858 454.626 43.5246L472.971 54.128C475.98 55.8668 477.833 59.0803 477.833 62.558V83.7648C477.833 87.2425 475.98 90.4559 472.971 92.1947L454.626 102.798C451.618 104.537 447.912 104.537 444.903 102.798L426.558 92.1947C423.55 90.4559 421.697 87.2425 421.697 83.7648V62.5579C421.697 59.0803 423.55 55.8668 426.558 54.128L444.903 43.5246Z"/>
<path d="M512.114 43.5246C515.123 41.7858 518.829 41.7858 521.837 43.5246L540.182 54.128C543.191 55.8668 545.044 59.0803 545.044 62.558V83.7648C545.044 87.2425 543.191 90.4559 540.182 92.1947L521.837 102.798C518.829 104.537 515.123 104.537 512.114 102.798L493.769 92.1947C490.761 90.4559 488.908 87.2425 488.908 83.7648V62.5579C488.908 59.0803 490.761 55.8668 493.769 54.128L512.114 43.5246Z"/>
<path d="M579.325 43.5246C582.334 41.7858 586.04 41.7858 589.048 43.5246L607.394 54.128C610.402 55.8668 612.255 59.0803 612.255 62.558V83.7648C612.255 87.2425 610.402 90.4559 607.394 92.1947L589.048 102.798C586.04 104.537 582.334 104.537 579.325 102.798L560.98 92.1947C557.972 90.4559 556.119 87.2425 556.119 83.7648V62.5579C556.119 59.0803 557.972 55.8668 560.98 54.128L579.325 43.5246Z"/>
<path d="M646.473 43.5246C649.481 41.7858 653.188 41.7858 656.196 43.5246L674.541 54.128C677.549 55.8668 679.403 59.0803 679.403 62.558V83.7648C679.403 87.2425 677.549 90.4559 674.541 92.1947L656.196 102.798C653.188 104.537 649.481 104.537 646.473 102.798L628.128 92.1947C625.119 90.4559 623.266 87.2425 623.266 83.7648V62.5579C623.266 59.0803 625.119 55.8668 628.128 54.128L646.473 43.5246Z"/>
<path d="M713.684 43.5246C716.692 41.7858 720.399 41.7858 723.407 43.5246L741.752 54.128C744.761 55.8668 746.614 59.0803 746.614 62.558V83.7648C746.614 87.2425 744.761 90.4559 741.752 92.1947L723.407 102.798C720.399 104.537 716.692 104.537 713.684 102.798L695.339 92.1947C692.33 90.4559 690.477 87.2425 690.477 83.7648V62.5579C690.477 59.0803 692.33 55.8668 695.339 54.128L713.684 43.5246Z"/>
<path d="M276.749 105.135C279.757 103.396 283.464 103.396 286.472 105.135L304.817 115.738C307.825 117.477 309.679 120.69 309.679 124.168V145.375C309.679 148.853 307.825 152.066 304.817 153.805L286.472 164.408C283.464 166.147 279.757 166.147 276.749 164.408L258.404 153.805C255.395 152.066 253.542 148.853 253.542 145.375V124.168C253.542 120.69 255.395 117.477 258.404 115.738L276.749 105.135Z"/>
<path d="M344.087 105.135C347.095 103.396 350.801 103.396 353.81 105.135L372.155 115.738C375.163 117.477 377.016 120.69 377.016 124.168V145.375C377.016 148.853 375.163 152.066 372.155 153.805L353.81 164.408C350.801 166.147 347.095 166.147 344.087 164.408L325.742 153.805C322.733 152.066 320.88 148.853 320.88 145.375V124.168C320.88 120.69 322.733 117.477 325.742 115.738L344.087 105.135Z"/>
<path d="M411.234 105.135C414.243 103.396 417.949 103.396 420.957 105.135L439.303 115.738C442.311 117.477 444.164 120.69 444.164 124.168V145.375C444.164 148.853 442.311 152.066 439.303 153.805L420.957 164.408C417.949 166.147 414.243 166.147 411.234 164.408L392.889 153.805C389.881 152.066 388.028 148.853 388.028 145.375V124.168C388.028 120.69 389.881 117.477 392.889 115.738L411.234 105.135Z"/>
<path d="M478.445 105.135C481.454 103.396 485.16 103.396 488.168 105.135L506.514 115.738C509.522 117.477 511.375 120.69 511.375 124.168V145.375C511.375 148.853 509.522 152.066 506.514 153.805L488.168 164.408C485.16 166.147 481.454 166.147 478.445 164.408L460.1 153.805C457.092 152.066 455.239 148.853 455.239 145.375V124.168C455.239 120.69 457.092 117.477 460.1 115.738L478.445 105.135Z"/>
<path d="M545.656 105.135C548.665 103.396 552.371 103.396 555.379 105.135L573.725 115.738C576.733 117.477 578.586 120.69 578.586 124.168V145.375C578.586 148.853 576.733 152.066 573.725 153.805L555.379 164.408C552.371 166.147 548.665 166.147 545.656 164.408L527.311 153.805C524.303 152.066 522.45 148.853 522.45 145.375V124.168C522.45 120.69 524.303 117.477 527.311 115.738L545.656 105.135Z"/>
<path d="M612.804 105.135C615.812 103.396 619.519 103.396 622.527 105.135L640.872 115.738C643.881 117.477 645.734 120.69 645.734 124.168V145.375C645.734 148.853 643.881 152.066 640.872 153.805L622.527 164.408C619.519 166.147 615.812 166.147 612.804 164.408L594.459 153.805C591.45 152.066 589.597 148.853 589.597 145.375V124.168C589.597 120.69 591.45 117.477 594.459 115.738L612.804 105.135Z"/>
<path d="M680.015 105.135C683.023 103.396 686.73 103.396 689.738 105.135L708.083 115.738C711.092 117.477 712.945 120.69 712.945 124.168V145.375C712.945 148.853 711.092 152.066 708.083 153.805L689.738 164.408C686.73 166.147 683.023 166.147 680.015 164.408L661.67 153.805C658.661 152.066 656.808 148.853 656.808 145.375V124.168C656.808 120.69 658.661 117.477 661.67 115.738L680.015 105.135Z"/>
<path d="M310.418 166.745C313.426 165.006 317.133 165.006 320.141 166.745L338.486 177.348C341.494 179.087 343.348 182.301 343.348 185.778V206.985C343.348 210.463 341.494 213.676 338.486 215.415L320.141 226.018C317.133 227.757 313.426 227.757 310.418 226.018L292.073 215.415C289.064 213.676 287.211 210.463 287.211 206.985V185.778C287.211 182.301 289.064 179.087 292.073 177.348L310.418 166.745Z"/>
<path d="M377.756 166.745C380.764 165.006 384.47 165.006 387.479 166.745L405.824 177.348C408.832 179.087 410.685 182.301 410.685 185.778V206.985C410.685 210.463 408.832 213.676 405.824 215.415L387.479 226.018C384.47 227.757 380.764 227.757 377.756 226.018L359.411 215.415C356.402 213.676 354.549 210.463 354.549 206.985V185.778C354.549 182.301 356.402 179.087 359.411 177.348L377.756 166.745Z"/>
<path d="M444.903 166.745C447.912 165.006 451.618 165.006 454.626 166.745L472.971 177.348C475.98 179.087 477.833 182.301 477.833 185.778V206.985C477.833 210.463 475.98 213.676 472.971 215.415L454.626 226.018C451.618 227.757 447.912 227.757 444.903 226.018L426.558 215.415C423.55 213.676 421.697 210.463 421.697 206.985V185.778C421.697 182.301 423.55 179.087 426.558 177.348L444.903 166.745Z"/>
<path d="M512.114 166.745C515.123 165.006 518.829 165.006 521.837 166.745L540.182 177.348C543.191 179.087 545.044 182.301 545.044 185.778V206.985C545.044 210.463 543.191 213.676 540.182 215.415L521.837 226.018C518.829 227.757 515.123 227.757 512.114 226.018L493.769 215.415C490.761 213.676 488.908 210.463 488.908 206.985V185.778C488.908 182.301 490.761 179.087 493.769 177.348L512.114 166.745Z"/>
<path d="M579.325 166.745C582.334 165.006 586.04 165.006 589.048 166.745L607.394 177.348C610.402 179.087 612.255 182.301 612.255 185.778V206.985C612.255 210.463 610.402 213.676 607.394 215.415L589.048 226.018C586.04 227.757 582.334 227.757 579.325 226.018L560.98 215.415C557.972 213.676 556.119 210.463 556.119 206.985V185.778C556.119 182.301 557.972 179.087 560.98 177.348L579.325 166.745Z"/>
<path d="M646.473 166.745C649.481 165.006 653.188 165.006 656.196 166.745L674.541 177.348C677.549 179.087 679.403 182.301 679.403 185.778V206.985C679.403 210.463 677.549 213.676 674.541 215.415L656.196 226.018C653.188 227.757 649.481 227.757 646.473 226.018L628.128 215.415C625.119 213.676 623.266 210.463 623.266 206.985V185.778C623.266 182.301 625.119 179.087 628.128 177.348L646.473 166.745Z"/>
<path d="M713.684 166.745C716.692 165.006 720.399 165.006 723.407 166.745L741.752 177.348C744.761 179.087 746.614 182.301 746.614 185.778V206.985C746.614 210.463 744.761 213.676 741.752 215.415L723.407 226.018C720.399 227.757 716.692 227.757 713.684 226.018L695.339 215.415C692.33 213.676 690.477 210.463 690.477 206.985V185.778C690.477 182.301 692.33 179.087 695.339 177.348L713.684 166.745Z"/>
</mask>
<path d="M1149.75 -18.0855C1152.76 -19.8244 1156.46 -19.8244 1159.47 -18.0855L1177.82 -7.4821C1180.83 -5.74328 1182.68 -2.52981 1182.68 0.947828V22.1547C1182.68 25.6323 1180.83 28.8458 1177.82 30.5846L1159.47 41.1881C1156.46 42.9269 1152.76 42.9269 1149.75 41.1881L1131.4 30.5846C1128.4 28.8458 1126.54 25.6323 1126.54 22.1547V0.947828C1126.54 -2.52981 1128.4 -5.74328 1131.4 -7.4821L1149.75 -18.0855Z" stroke="#E5E8FF" stroke-width="2" mask="url(#path-2-inside-1_22053_64527)"/>
<path d="M1217.09 -18.0855C1220.09 -19.8244 1223.8 -19.8244 1226.81 -18.0855L1245.15 -7.4821C1248.16 -5.74328 1250.02 -2.52981 1250.02 0.947828V22.1547C1250.02 25.6323 1248.16 28.8458 1245.15 30.5846L1226.81 41.1881C1223.8 42.9269 1220.09 42.9269 1217.09 41.1881L1198.74 30.5846C1195.73 28.8458 1193.88 25.6323 1193.88 22.1547V0.947828C1193.88 -2.52981 1195.73 -5.74328 1198.74 -7.4821L1217.09 -18.0855Z" stroke="#E5E8FF" stroke-width="2" mask="url(#path-2-inside-1_22053_64527)"/>
<path d="M1183.42 43.5246C1186.43 41.7858 1190.13 41.7858 1193.14 43.5246L1211.49 54.128C1214.49 55.8668 1216.35 59.0803 1216.35 62.558V83.7648C1216.35 87.2425 1214.49 90.4559 1211.49 92.1947L1193.14 102.798C1190.13 104.537 1186.43 104.537 1183.42 102.798L1165.07 92.1947C1162.06 90.4559 1160.21 87.2425 1160.21 83.7648V62.5579C1160.21 59.0803 1162.06 55.8668 1165.07 54.128L1183.42 43.5246Z" stroke="#E5E8FF" stroke-width="2" mask="url(#path-2-inside-1_22053_64527)"/>
<path d="M1149.75 105.135C1152.76 103.396 1156.46 103.396 1159.47 105.135L1177.82 115.738C1180.83 117.477 1182.68 120.69 1182.68 124.168V145.375C1182.68 148.853 1180.83 152.066 1177.82 153.805L1159.47 164.408C1156.46 166.147 1152.76 166.147 1149.75 164.408L1131.4 153.805C1128.4 152.066 1126.54 148.853 1126.54 145.375V124.168C1126.54 120.69 1128.4 117.477 1131.4 115.738L1149.75 105.135Z" stroke="#E5E8FF" stroke-width="2" mask="url(#path-2-inside-1_22053_64527)"/>
<path d="M1217.09 105.135C1220.09 103.396 1223.8 103.396 1226.81 105.135L1245.15 115.738C1248.16 117.477 1250.02 120.69 1250.02 124.168V145.375C1250.02 148.853 1248.16 152.066 1245.15 153.805L1226.81 164.408C1223.8 166.147 1220.09 166.147 1217.09 164.408L1198.74 153.805C1195.73 152.066 1193.88 148.853 1193.88 145.375V124.168C1193.88 120.69 1195.73 117.477 1198.74 115.738L1217.09 105.135Z" stroke="#E5E8FF" stroke-width="2" mask="url(#path-2-inside-1_22053_64527)"/>
<path d="M1183.42 166.745C1186.43 165.006 1190.13 165.006 1193.14 166.745L1211.49 177.348C1214.49 179.087 1216.35 182.301 1216.35 185.778V206.985C1216.35 210.463 1214.49 213.676 1211.49 215.415L1193.14 226.018C1190.13 227.757 1186.43 227.757 1183.42 226.018L1165.07 215.415C1162.06 213.676 1160.21 210.463 1160.21 206.985V185.778C1160.21 182.301 1162.06 179.087 1165.07 177.348L1183.42 166.745Z" stroke="#E5E8FF" stroke-width="2" mask="url(#path-2-inside-1_22053_64527)"/>
<path d="M-194.251 -18.0855C-191.243 -19.8244 -187.536 -19.8244 -184.528 -18.0855L-166.183 -7.4821C-163.175 -5.74328 -161.321 -2.52981 -161.321 0.947828V22.1547C-161.321 25.6323 -163.175 28.8458 -166.183 30.5846L-184.528 41.1881C-187.536 42.9269 -191.243 42.9269 -194.251 41.1881L-212.596 30.5846C-215.605 28.8458 -217.458 25.6323 -217.458 22.1547V0.947828C-217.458 -2.52981 -215.605 -5.74328 -212.596 -7.4821L-194.251 -18.0855Z" stroke="#E5E8FF" stroke-width="2" mask="url(#path-2-inside-1_22053_64527)"/>
<path d="M-126.913 -18.0855C-123.905 -19.8244 -120.199 -19.8244 -117.19 -18.0855L-98.8451 -7.4821C-95.8367 -5.74328 -93.9835 -2.52981 -93.9835 0.947828V22.1547C-93.9835 25.6323 -95.8367 28.8458 -98.8451 30.5846L-117.19 41.1881C-120.199 42.9269 -123.905 42.9269 -126.913 41.1881L-145.258 30.5846C-148.267 28.8458 -150.12 25.6323 -150.12 22.1547V0.947828C-150.12 -2.52981 -148.267 -5.74328 -145.258 -7.4821L-126.913 -18.0855Z" stroke="#E5E8FF" stroke-width="2" mask="url(#path-2-inside-1_22053_64527)"/>
<path d="M-59.7657 -18.0855C-56.7574 -19.8244 -53.0509 -19.8244 -50.0426 -18.0855L-31.6974 -7.4821C-28.6891 -5.74328 -26.8359 -2.52981 -26.8359 0.947828V22.1547C-26.8359 25.6323 -28.6891 28.8458 -31.6974 30.5846L-50.0426 41.1881C-53.0509 42.9269 -56.7574 42.9269 -59.7657 41.1881L-78.1109 30.5846C-81.1192 28.8458 -82.9724 25.6323 -82.9724 22.1547V0.947828C-82.9724 -2.52981 -81.1192 -5.74328 -78.1109 -7.4821L-59.7657 -18.0855Z" stroke="#E5E8FF" stroke-width="2" mask="url(#path-2-inside-1_22053_64527)"/>
<path d="M7.44531 -18.0855C10.4536 -19.8244 14.1601 -19.8244 17.1685 -18.0855L35.5135 -7.4821C38.5219 -5.74328 40.3751 -2.52981 40.3751 0.947828V22.1547C40.3751 25.6323 38.5219 28.8458 35.5135 30.5846L17.1685 41.1881C14.1601 42.9269 10.4536 42.9269 7.44531 41.1881L-10.8998 30.5846C-13.9082 28.8458 -15.7614 25.6323 -15.7614 22.1547V0.947828C-15.7614 -2.52981 -13.9082 -5.74328 -10.8998 -7.4821L7.44531 -18.0855Z" stroke="#E5E8FF" stroke-width="2" mask="url(#path-2-inside-1_22053_64527)"/>
<path d="M74.6564 -18.0855C77.6647 -19.8244 81.3711 -19.8244 84.3795 -18.0855L102.725 -7.4821C105.733 -5.74328 107.586 -2.52981 107.586 0.947828V22.1547C107.586 25.6323 105.733 28.8458 102.725 30.5846L84.3795 41.1881C81.3711 42.9269 77.6647 42.9269 74.6564 41.1881L56.3112 30.5846C53.3029 28.8458 51.4496 25.6323 51.4496 22.1547V0.947828C51.4496 -2.52981 53.3029 -5.74328 56.3112 -7.4821L74.6564 -18.0855Z" stroke="#E5E8FF" stroke-width="2" mask="url(#path-2-inside-1_22053_64527)"/>
<path d="M141.804 -18.0855C144.812 -19.8244 148.519 -19.8244 151.527 -18.0855L169.872 -7.4821C172.881 -5.74328 174.734 -2.52981 174.734 0.947828V22.1547C174.734 25.6323 172.881 28.8458 169.872 30.5846L151.527 41.1881C148.519 42.9269 144.812 42.9269 141.804 41.1881L123.459 30.5846C120.45 28.8458 118.597 25.6323 118.597 22.1547V0.947828C118.597 -2.52981 120.45 -5.74328 123.459 -7.4821L141.804 -18.0855Z" stroke="#E5E8FF" stroke-width="2" mask="url(#path-2-inside-1_22053_64527)"/>
<path d="M209.015 -18.0855C212.023 -19.8244 215.73 -19.8244 218.738 -18.0855L237.083 -7.4821C240.092 -5.74328 241.945 -2.52981 241.945 0.947828V22.1547C241.945 25.6323 240.092 28.8458 237.083 30.5846L218.738 41.1881C215.73 42.9269 212.023 42.9269 209.015 41.1881L190.67 30.5846C187.662 28.8458 185.808 25.6323 185.808 22.1547V0.947828C185.808 -2.52981 187.662 -5.74328 190.67 -7.4821L209.015 -18.0855Z" stroke="#E5E8FF" stroke-width="2" mask="url(#path-2-inside-1_22053_64527)"/>
<path d="M-227.793 43.5246C-224.785 41.7858 -221.079 41.7858 -218.07 43.5246L-199.725 54.128C-196.717 55.8668 -194.863 59.0803 -194.863 62.558V83.7648C-194.863 87.2425 -196.717 90.4559 -199.725 92.1947L-218.07 102.798C-221.079 104.537 -224.785 104.537 -227.793 102.798L-246.138 92.1947C-249.147 90.4559 -251 87.2425 -251 83.7648V62.5579C-251 59.0803 -249.147 55.8668 -246.138 54.128L-227.793 43.5246Z" stroke="#E5E8FF" stroke-width="2" mask="url(#path-2-inside-1_22053_64527)"/>
<path d="M-160.582 43.5246C-157.574 41.7858 -153.868 41.7858 -150.859 43.5246L-132.514 54.128C-129.506 55.8668 -127.652 59.0803 -127.652 62.558V83.7648C-127.652 87.2425 -129.506 90.4559 -132.514 92.1947L-150.859 102.798C-153.868 104.537 -157.574 104.537 -160.582 102.798L-178.927 92.1947C-181.936 90.4559 -183.789 87.2425 -183.789 83.7648V62.5579C-183.789 59.0803 -181.936 55.8668 -178.927 54.128L-160.582 43.5246Z" stroke="#E5E8FF" stroke-width="2" mask="url(#path-2-inside-1_22053_64527)"/>
<path d="M-93.2444 43.5246C-90.236 41.7858 -86.5296 41.7858 -83.5212 43.5246L-65.1761 54.128C-62.1677 55.8668 -60.3145 59.0803 -60.3145 62.558V83.7648C-60.3145 87.2425 -62.1677 90.4559 -65.1761 92.1947L-83.5212 102.798C-86.5296 104.537 -90.236 104.537 -93.2444 102.798L-111.589 92.1947C-114.598 90.4559 -116.451 87.2425 -116.451 83.7648V62.5579C-116.451 59.0803 -114.598 55.8668 -111.589 54.128L-93.2444 43.5246Z" stroke="#E5E8FF" stroke-width="2" mask="url(#path-2-inside-1_22053_64527)"/>
<path d="M-26.0967 43.5246C-23.0884 41.7858 -19.382 41.7858 -16.3737 43.5246L1.9715 54.128C4.97984 55.8668 6.83307 59.0803 6.83307 62.558V83.7648C6.83307 87.2425 4.97984 90.4559 1.9715 92.1947L-16.3737 102.798C-19.382 104.537 -23.0884 104.537 -26.0967 102.798L-44.4419 92.1947C-47.4502 90.4559 -49.3035 87.2425 -49.3035 83.7648V62.5579C-49.3035 59.0803 -47.4502 55.8668 -44.4419 54.128L-26.0967 43.5246Z" stroke="#E5E8FF" stroke-width="2" mask="url(#path-2-inside-1_22053_64527)"/>
<path d="M41.1143 43.5246C44.1226 41.7858 47.8291 41.7858 50.8374 43.5246L69.1825 54.128C72.1909 55.8668 74.0441 59.0803 74.0441 62.558V83.7648C74.0441 87.2425 72.1909 90.4559 69.1825 92.1947L50.8374 102.798C47.8291 104.537 44.1226 104.537 41.1143 102.798L22.7692 92.1947C19.7608 90.4559 17.9076 87.2425 17.9076 83.7648V62.5579C17.9076 59.0803 19.7608 55.8668 22.7692 54.128L41.1143 43.5246Z" stroke="#E5E8FF" stroke-width="2" mask="url(#path-2-inside-1_22053_64527)"/>
<path d="M108.325 43.5246C111.334 41.7858 115.04 41.7858 118.048 43.5246L136.394 54.128C139.402 55.8668 141.255 59.0803 141.255 62.558V83.7648C141.255 87.2425 139.402 90.4559 136.394 92.1947L118.048 102.798C115.04 104.537 111.334 104.537 108.325 102.798L89.9802 92.1947C86.9718 90.4559 85.1186 87.2425 85.1186 83.7648V62.5579C85.1186 59.0803 86.9718 55.8668 89.9802 54.128L108.325 43.5246Z" stroke="#E5E8FF" stroke-width="2" mask="url(#path-2-inside-1_22053_64527)"/>
<path d="M175.473 43.5246C178.481 41.7858 182.188 41.7858 185.196 43.5246L203.541 54.128C206.549 55.8668 208.403 59.0803 208.403 62.558V83.7648C208.403 87.2425 206.549 90.4559 203.541 92.1947L185.196 102.798C182.188 104.537 178.481 104.537 175.473 102.798L157.128 92.1947C154.119 90.4559 152.266 87.2425 152.266 83.7648V62.5579C152.266 59.0803 154.119 55.8668 157.128 54.128L175.473 43.5246Z" stroke="#E5E8FF" stroke-width="2" mask="url(#path-2-inside-1_22053_64527)"/>
<path d="M242.684 43.5246C245.692 41.7858 249.399 41.7858 252.407 43.5246L270.752 54.128C273.761 55.8668 275.614 59.0803 275.614 62.558V83.7648C275.614 87.2425 273.761 90.4559 270.752 92.1947L252.407 102.798C249.399 104.537 245.692 104.537 242.684 102.798L224.339 92.1947C221.33 90.4559 219.477 87.2425 219.477 83.7648V62.5579C219.477 59.0803 221.33 55.8668 224.339 54.128L242.684 43.5246Z" stroke="#E5E8FF" stroke-width="2" mask="url(#path-2-inside-1_22053_64527)"/>
<path d="M-194.251 105.135C-191.243 103.396 -187.536 103.396 -184.528 105.135L-166.183 115.738C-163.175 117.477 -161.321 120.69 -161.321 124.168V145.375C-161.321 148.853 -163.175 152.066 -166.183 153.805L-184.528 164.408C-187.536 166.147 -191.243 166.147 -194.251 164.408L-212.596 153.805C-215.605 152.066 -217.458 148.853 -217.458 145.375V124.168C-217.458 120.69 -215.605 117.477 -212.596 115.738L-194.251 105.135Z" stroke="#E5E8FF" stroke-width="2" mask="url(#path-2-inside-1_22053_64527)"/>
<path d="M-126.913 105.135C-123.905 103.396 -120.199 103.396 -117.19 105.135L-98.8451 115.738C-95.8367 117.477 -93.9835 120.69 -93.9835 124.168V145.375C-93.9835 148.853 -95.8367 152.066 -98.8451 153.805L-117.19 164.408C-120.199 166.147 -123.905 166.147 -126.913 164.408L-145.258 153.805C-148.267 152.066 -150.12 148.853 -150.12 145.375V124.168C-150.12 120.69 -148.267 117.477 -145.258 115.738L-126.913 105.135Z" stroke="#E5E8FF" stroke-width="2" mask="url(#path-2-inside-1_22053_64527)"/>
<path d="M-59.7657 105.135C-56.7574 103.396 -53.0509 103.396 -50.0426 105.135L-31.6974 115.738C-28.6891 117.477 -26.8359 120.69 -26.8359 124.168V145.375C-26.8359 148.853 -28.6891 152.066 -31.6974 153.805L-50.0426 164.408C-53.0509 166.147 -56.7574 166.147 -59.7657 164.408L-78.1109 153.805C-81.1192 152.066 -82.9724 148.853 -82.9724 145.375V124.168C-82.9724 120.69 -81.1192 117.477 -78.1109 115.738L-59.7657 105.135Z" stroke="#E5E8FF" stroke-width="2" mask="url(#path-2-inside-1_22053_64527)"/>
<path d="M7.44531 105.135C10.4536 103.396 14.1601 103.396 17.1685 105.135L35.5135 115.738C38.5219 117.477 40.3751 120.69 40.3751 124.168V145.375C40.3751 148.853 38.5219 152.066 35.5135 153.805L17.1685 164.408C14.1601 166.147 10.4536 166.147 7.44531 164.408L-10.8998 153.805C-13.9082 152.066 -15.7614 148.853 -15.7614 145.375V124.168C-15.7614 120.69 -13.9082 117.477 -10.8998 115.738L7.44531 105.135Z" stroke="#E5E8FF" stroke-width="2" mask="url(#path-2-inside-1_22053_64527)"/>
<path d="M74.6564 105.135C77.6647 103.396 81.3711 103.396 84.3795 105.135L102.725 115.738C105.733 117.477 107.586 120.69 107.586 124.168V145.375C107.586 148.853 105.733 152.066 102.725 153.805L84.3795 164.408C81.3711 166.147 77.6647 166.147 74.6564 164.408L56.3112 153.805C53.3029 152.066 51.4496 148.853 51.4496 145.375V124.168C51.4496 120.69 53.3029 117.477 56.3112 115.738L74.6564 105.135Z" stroke="#E5E8FF" stroke-width="2" mask="url(#path-2-inside-1_22053_64527)"/>
<path d="M141.804 105.135C144.812 103.396 148.519 103.396 151.527 105.135L169.872 115.738C172.881 117.477 174.734 120.69 174.734 124.168V145.375C174.734 148.853 172.881 152.066 169.872 153.805L151.527 164.408C148.519 166.147 144.812 166.147 141.804 164.408L123.459 153.805C120.45 152.066 118.597 148.853 118.597 145.375V124.168C118.597 120.69 120.45 117.477 123.459 115.738L141.804 105.135Z" stroke="#E5E8FF" stroke-width="2" mask="url(#path-2-inside-1_22053_64527)"/>
<path d="M209.015 105.135C212.023 103.396 215.73 103.396 218.738 105.135L237.083 115.738C240.092 117.477 241.945 120.69 241.945 124.168V145.375C241.945 148.853 240.092 152.066 237.083 153.805L218.738 164.408C215.73 166.147 212.023 166.147 209.015 164.408L190.67 153.805C187.662 152.066 185.808 148.853 185.808 145.375V124.168C185.808 120.69 187.662 117.477 190.67 115.738L209.015 105.135Z" stroke="#E5E8FF" stroke-width="2" mask="url(#path-2-inside-1_22053_64527)"/>
<path d="M-227.793 166.745C-224.785 165.006 -221.079 165.006 -218.07 166.745L-199.725 177.348C-196.717 179.087 -194.863 182.301 -194.863 185.778V206.985C-194.863 210.463 -196.717 213.676 -199.725 215.415L-218.07 226.018C-221.079 227.757 -224.785 227.757 -227.793 226.018L-246.138 215.415C-249.147 213.676 -251 210.463 -251 206.985V185.778C-251 182.301 -249.147 179.087 -246.138 177.348L-227.793 166.745Z" stroke="#E5E8FF" stroke-width="2" mask="url(#path-2-inside-1_22053_64527)"/>
<path d="M-160.582 166.745C-157.574 165.006 -153.868 165.006 -150.859 166.745L-132.514 177.348C-129.506 179.087 -127.652 182.301 -127.652 185.778V206.985C-127.652 210.463 -129.506 213.676 -132.514 215.415L-150.859 226.018C-153.868 227.757 -157.574 227.757 -160.582 226.018L-178.927 215.415C-181.936 213.676 -183.789 210.463 -183.789 206.985V185.778C-183.789 182.301 -181.936 179.087 -178.927 177.348L-160.582 166.745Z" stroke="#E5E8FF" stroke-width="2" mask="url(#path-2-inside-1_22053_64527)"/>
<path d="M-93.2444 166.745C-90.236 165.006 -86.5296 165.006 -83.5212 166.745L-65.1761 177.348C-62.1677 179.087 -60.3145 182.301 -60.3145 185.778V206.985C-60.3145 210.463 -62.1677 213.676 -65.1761 215.415L-83.5212 226.018C-86.5296 227.757 -90.236 227.757 -93.2444 226.018L-111.589 215.415C-114.598 213.676 -116.451 210.463 -116.451 206.985V185.778C-116.451 182.301 -114.598 179.087 -111.589 177.348L-93.2444 166.745Z" stroke="#E5E8FF" stroke-width="2" mask="url(#path-2-inside-1_22053_64527)"/>
<path d="M-26.0967 166.745C-23.0884 165.006 -19.382 165.006 -16.3737 166.745L1.9715 177.348C4.97984 179.087 6.83307 182.301 6.83307 185.778V206.985C6.83307 210.463 4.97984 213.676 1.9715 215.415L-16.3737 226.018C-19.382 227.757 -23.0884 227.757 -26.0967 226.018L-44.4419 215.415C-47.4502 213.676 -49.3035 210.463 -49.3035 206.985V185.778C-49.3035 182.301 -47.4502 179.087 -44.4419 177.348L-26.0967 166.745Z" stroke="#E5E8FF" stroke-width="2" mask="url(#path-2-inside-1_22053_64527)"/>
<path d="M41.1143 166.745C44.1226 165.006 47.8291 165.006 50.8374 166.745L69.1825 177.348C72.1909 179.087 74.0441 182.301 74.0441 185.778V206.985C74.0441 210.463 72.1909 213.676 69.1825 215.415L50.8374 226.018C47.8291 227.757 44.1226 227.757 41.1143 226.018L22.7692 215.415C19.7608 213.676 17.9076 210.463 17.9076 206.985V185.778C17.9076 182.301 19.7608 179.087 22.7692 177.348L41.1143 166.745Z" stroke="#E5E8FF" stroke-width="2" mask="url(#path-2-inside-1_22053_64527)"/>
<path d="M108.325 166.745C111.334 165.006 115.04 165.006 118.048 166.745L136.394 177.348C139.402 179.087 141.255 182.301 141.255 185.778V206.985C141.255 210.463 139.402 213.676 136.394 215.415L118.048 226.018C115.04 227.757 111.334 227.757 108.325 226.018L89.9802 215.415C86.9718 213.676 85.1186 210.463 85.1186 206.985V185.778C85.1186 182.301 86.9718 179.087 89.9802 177.348L108.325 166.745Z" stroke="#E5E8FF" stroke-width="2" mask="url(#path-2-inside-1_22053_64527)"/>
<path d="M175.473 166.745C178.481 165.006 182.188 165.006 185.196 166.745L203.541 177.348C206.549 179.087 208.403 182.301 208.403 185.778V206.985C208.403 210.463 206.549 213.676 203.541 215.415L185.196 226.018C182.188 227.757 178.481 227.757 175.473 226.018L157.128 215.415C154.119 213.676 152.266 210.463 152.266 206.985V185.778C152.266 182.301 154.119 179.087 157.128 177.348L175.473 166.745Z" stroke="#E5E8FF" stroke-width="2" mask="url(#path-2-inside-1_22053_64527)"/>
<path d="M242.684 166.745C245.692 165.006 249.399 165.006 252.407 166.745L270.752 177.348C273.761 179.087 275.614 182.301 275.614 185.778V206.985C275.614 210.463 273.761 213.676 270.752 215.415L252.407 226.018C249.399 227.757 245.692 227.757 242.684 226.018L224.339 215.415C221.33 213.676 219.477 210.463 219.477 206.985V185.778C219.477 182.301 221.33 179.087 224.339 177.348L242.684 166.745Z" stroke="#E5E8FF" stroke-width="2" mask="url(#path-2-inside-1_22053_64527)"/>
<path d="M747.087 -18.0855C750.095 -19.8244 753.801 -19.8244 756.81 -18.0855L775.155 -7.4821C778.163 -5.74328 780.016 -2.52981 780.016 0.947828V22.1547C780.016 25.6323 778.163 28.8458 775.155 30.5846L756.81 41.1881C753.801 42.9269 750.095 42.9269 747.087 41.1881L728.742 30.5846C725.733 28.8458 723.88 25.6323 723.88 22.1547V0.947828C723.88 -2.52981 725.733 -5.74328 728.742 -7.4821L747.087 -18.0855Z" stroke="#E5E8FF" stroke-width="2" mask="url(#path-2-inside-1_22053_64527)"/>
<path d="M814.234 -18.0855C817.243 -19.8244 820.949 -19.8244 823.957 -18.0855L842.302 -7.4821C845.311 -5.74328 847.164 -2.52981 847.164 0.947828V22.1547C847.164 25.6323 845.311 28.8458 842.302 30.5846L823.957 41.1881C820.949 42.9269 817.243 42.9269 814.234 41.1881L795.889 30.5846C792.881 28.8458 791.028 25.6323 791.028 22.1547V0.947828C791.028 -2.52981 792.881 -5.74328 795.889 -7.4821L814.234 -18.0855Z" stroke="#E5E8FF" stroke-width="2" mask="url(#path-2-inside-1_22053_64527)"/>
<path d="M881.445 -18.0855C884.454 -19.8244 888.16 -19.8244 891.168 -18.0855L909.514 -7.4821C912.522 -5.74328 914.375 -2.52981 914.375 0.947828V22.1547C914.375 25.6323 912.522 28.8458 909.514 30.5846L891.168 41.1881C888.16 42.9269 884.454 42.9269 881.445 41.1881L863.1 30.5846C860.092 28.8458 858.239 25.6323 858.239 22.1547V0.947828C858.239 -2.52981 860.092 -5.74328 863.1 -7.4821L881.445 -18.0855Z" stroke="#E5E8FF" stroke-width="2" mask="url(#path-2-inside-1_22053_64527)"/>
<path d="M948.656 -18.0855C951.665 -19.8244 955.371 -19.8244 958.379 -18.0855L976.725 -7.4821C979.733 -5.74328 981.586 -2.52981 981.586 0.947828V22.1547C981.586 25.6323 979.733 28.8458 976.725 30.5846L958.379 41.1881C955.371 42.9269 951.665 42.9269 948.656 41.1881L930.311 30.5846C927.303 28.8458 925.45 25.6323 925.45 22.1547V0.947828C925.45 -2.52981 927.303 -5.74328 930.311 -7.4821L948.656 -18.0855Z" stroke="#E5E8FF" stroke-width="2" mask="url(#path-2-inside-1_22053_64527)"/>
<path d="M1015.8 -18.0855C1018.81 -19.8244 1022.52 -19.8244 1025.53 -18.0855L1043.87 -7.4821C1046.88 -5.74328 1048.73 -2.52981 1048.73 0.947828V22.1547C1048.73 25.6323 1046.88 28.8458 1043.87 30.5846L1025.53 41.1881C1022.52 42.9269 1018.81 42.9269 1015.8 41.1881L997.459 30.5846C994.45 28.8458 992.597 25.6323 992.597 22.1547V0.947828C992.597 -2.52981 994.45 -5.74328 997.459 -7.4821L1015.8 -18.0855Z" stroke="#E5E8FF" stroke-width="2" mask="url(#path-2-inside-1_22053_64527)"/>
<path d="M1083.01 -18.0855C1086.02 -19.8244 1089.73 -19.8244 1092.74 -18.0855L1111.08 -7.4821C1114.09 -5.74328 1115.94 -2.52981 1115.94 0.947828V22.1547C1115.94 25.6323 1114.09 28.8458 1111.08 30.5846L1092.74 41.1881C1089.73 42.9269 1086.02 42.9269 1083.01 41.1881L1064.67 30.5846C1061.66 28.8458 1059.81 25.6323 1059.81 22.1547V0.947828C1059.81 -2.52981 1061.66 -5.74328 1064.67 -7.4821L1083.01 -18.0855Z" stroke="#E5E8FF" stroke-width="2" mask="url(#path-2-inside-1_22053_64527)"/>
<path d="M780.756 43.5246C783.764 41.7858 787.47 41.7858 790.479 43.5246L808.824 54.128C811.832 55.8668 813.685 59.0803 813.685 62.558V83.7648C813.685 87.2425 811.832 90.4559 808.824 92.1947L790.479 102.798C787.47 104.537 783.764 104.537 780.756 102.798L762.411 92.1947C759.402 90.4559 757.549 87.2425 757.549 83.7648V62.5579C757.549 59.0803 759.402 55.8668 762.411 54.128L780.756 43.5246Z" stroke="#E5E8FF" stroke-width="2" mask="url(#path-2-inside-1_22053_64527)"/>
<path d="M847.903 43.5246C850.912 41.7858 854.618 41.7858 857.626 43.5246L875.971 54.128C878.98 55.8668 880.833 59.0803 880.833 62.558V83.7648C880.833 87.2425 878.98 90.4559 875.971 92.1947L857.626 102.798C854.618 104.537 850.912 104.537 847.903 102.798L829.558 92.1947C826.55 90.4559 824.697 87.2425 824.697 83.7648V62.5579C824.697 59.0803 826.55 55.8668 829.558 54.128L847.903 43.5246Z" stroke="#E5E8FF" stroke-width="2" mask="url(#path-2-inside-1_22053_64527)"/>
<path d="M915.114 43.5246C918.123 41.7858 921.829 41.7858 924.837 43.5246L943.182 54.128C946.191 55.8668 948.044 59.0803 948.044 62.558V83.7648C948.044 87.2425 946.191 90.4559 943.182 92.1947L924.837 102.798C921.829 104.537 918.123 104.537 915.114 102.798L896.769 92.1947C893.761 90.4559 891.908 87.2425 891.908 83.7648V62.5579C891.908 59.0803 893.761 55.8668 896.769 54.128L915.114 43.5246Z" stroke="#E5E8FF" stroke-width="2" mask="url(#path-2-inside-1_22053_64527)"/>
<path d="M982.325 43.5246C985.334 41.7858 989.04 41.7858 992.048 43.5246L1010.39 54.128C1013.4 55.8668 1015.26 59.0803 1015.26 62.558V83.7648C1015.26 87.2425 1013.4 90.4559 1010.39 92.1947L992.048 102.798C989.04 104.537 985.334 104.537 982.325 102.798L963.98 92.1947C960.972 90.4559 959.119 87.2425 959.119 83.7648V62.5579C959.119 59.0803 960.972 55.8668 963.98 54.128L982.325 43.5246Z" stroke="#E5E8FF" stroke-width="2" mask="url(#path-2-inside-1_22053_64527)"/>
<path d="M1049.47 43.5246C1052.48 41.7858 1056.19 41.7858 1059.2 43.5246L1077.54 54.128C1080.55 55.8668 1082.4 59.0803 1082.4 62.558V83.7648C1082.4 87.2425 1080.55 90.4559 1077.54 92.1947L1059.2 102.798C1056.19 104.537 1052.48 104.537 1049.47 102.798L1031.13 92.1947C1028.12 90.4559 1026.27 87.2425 1026.27 83.7648V62.5579C1026.27 59.0803 1028.12 55.8668 1031.13 54.128L1049.47 43.5246Z" stroke="#E5E8FF" stroke-width="2" mask="url(#path-2-inside-1_22053_64527)"/>
<path d="M1116.68 43.5246C1119.69 41.7858 1123.4 41.7858 1126.41 43.5246L1144.75 54.128C1147.76 55.8668 1149.61 59.0803 1149.61 62.558V83.7648C1149.61 87.2425 1147.76 90.4559 1144.75 92.1947L1126.41 102.798C1123.4 104.537 1119.69 104.537 1116.68 102.798L1098.34 92.1947C1095.33 90.4559 1093.48 87.2425 1093.48 83.7648V62.5579C1093.48 59.0803 1095.33 55.8668 1098.34 54.128L1116.68 43.5246Z" stroke="#E5E8FF" stroke-width="2" mask="url(#path-2-inside-1_22053_64527)"/>
<path d="M747.087 105.135C750.095 103.396 753.801 103.396 756.81 105.135L775.155 115.738C778.163 117.477 780.016 120.69 780.016 124.168V145.375C780.016 148.853 778.163 152.066 775.155 153.805L756.81 164.408C753.801 166.147 750.095 166.147 747.087 164.408L728.742 153.805C725.733 152.066 723.88 148.853 723.88 145.375V124.168C723.88 120.69 725.733 117.477 728.742 115.738L747.087 105.135Z" stroke="#E5E8FF" stroke-width="2" mask="url(#path-2-inside-1_22053_64527)"/>
<path d="M814.234 105.135C817.243 103.396 820.949 103.396 823.957 105.135L842.302 115.738C845.311 117.477 847.164 120.69 847.164 124.168V145.375C847.164 148.853 845.311 152.066 842.302 153.805L823.957 164.408C820.949 166.147 817.243 166.147 814.234 164.408L795.889 153.805C792.881 152.066 791.028 148.853 791.028 145.375V124.168C791.028 120.69 792.881 117.477 795.889 115.738L814.234 105.135Z" stroke="#E5E8FF" stroke-width="2" mask="url(#path-2-inside-1_22053_64527)"/>
<path d="M881.445 105.135C884.454 103.396 888.16 103.396 891.168 105.135L909.514 115.738C912.522 117.477 914.375 120.69 914.375 124.168V145.375C914.375 148.853 912.522 152.066 909.514 153.805L891.168 164.408C888.16 166.147 884.454 166.147 881.445 164.408L863.1 153.805C860.092 152.066 858.239 148.853 858.239 145.375V124.168C858.239 120.69 860.092 117.477 863.1 115.738L881.445 105.135Z" stroke="#E5E8FF" stroke-width="2" mask="url(#path-2-inside-1_22053_64527)"/>
<path d="M948.656 105.135C951.665 103.396 955.371 103.396 958.379 105.135L976.725 115.738C979.733 117.477 981.586 120.69 981.586 124.168V145.375C981.586 148.853 979.733 152.066 976.725 153.805L958.379 164.408C955.371 166.147 951.665 166.147 948.656 164.408L930.311 153.805C927.303 152.066 925.45 148.853 925.45 145.375V124.168C925.45 120.69 927.303 117.477 930.311 115.738L948.656 105.135Z" stroke="#E5E8FF" stroke-width="2" mask="url(#path-2-inside-1_22053_64527)"/>
<path d="M1015.8 105.135C1018.81 103.396 1022.52 103.396 1025.53 105.135L1043.87 115.738C1046.88 117.477 1048.73 120.69 1048.73 124.168V145.375C1048.73 148.853 1046.88 152.066 1043.87 153.805L1025.53 164.408C1022.52 166.147 1018.81 166.147 1015.8 164.408L997.459 153.805C994.45 152.066 992.597 148.853 992.597 145.375V124.168C992.597 120.69 994.45 117.477 997.459 115.738L1015.8 105.135Z" stroke="#E5E8FF" stroke-width="2" mask="url(#path-2-inside-1_22053_64527)"/>
<path d="M1083.01 105.135C1086.02 103.396 1089.73 103.396 1092.74 105.135L1111.08 115.738C1114.09 117.477 1115.94 120.69 1115.94 124.168V145.375C1115.94 148.853 1114.09 152.066 1111.08 153.805L1092.74 164.408C1089.73 166.147 1086.02 166.147 1083.01 164.408L1064.67 153.805C1061.66 152.066 1059.81 148.853 1059.81 145.375V124.168C1059.81 120.69 1061.66 117.477 1064.67 115.738L1083.01 105.135Z" stroke="#E5E8FF" stroke-width="2" mask="url(#path-2-inside-1_22053_64527)"/>
<path d="M780.756 166.745C783.764 165.006 787.47 165.006 790.479 166.745L808.824 177.348C811.832 179.087 813.685 182.301 813.685 185.778V206.985C813.685 210.463 811.832 213.676 808.824 215.415L790.479 226.018C787.47 227.757 783.764 227.757 780.756 226.018L762.411 215.415C759.402 213.676 757.549 210.463 757.549 206.985V185.778C757.549 182.301 759.402 179.087 762.411 177.348L780.756 166.745Z" stroke="#E5E8FF" stroke-width="2" mask="url(#path-2-inside-1_22053_64527)"/>
<path d="M847.903 166.745C850.912 165.006 854.618 165.006 857.626 166.745L875.971 177.348C878.98 179.087 880.833 182.301 880.833 185.778V206.985C880.833 210.463 878.98 213.676 875.971 215.415L857.626 226.018C854.618 227.757 850.912 227.757 847.903 226.018L829.558 215.415C826.55 213.676 824.697 210.463 824.697 206.985V185.778C824.697 182.301 826.55 179.087 829.558 177.348L847.903 166.745Z" stroke="#E5E8FF" stroke-width="2" mask="url(#path-2-inside-1_22053_64527)"/>
<path d="M915.114 166.745C918.123 165.006 921.829 165.006 924.837 166.745L943.182 177.348C946.191 179.087 948.044 182.301 948.044 185.778V206.985C948.044 210.463 946.191 213.676 943.182 215.415L924.837 226.018C921.829 227.757 918.123 227.757 915.114 226.018L896.769 215.415C893.761 213.676 891.908 210.463 891.908 206.985V185.778C891.908 182.301 893.761 179.087 896.769 177.348L915.114 166.745Z" stroke="#E5E8FF" stroke-width="2" mask="url(#path-2-inside-1_22053_64527)"/>
<path d="M982.325 166.745C985.334 165.006 989.04 165.006 992.048 166.745L1010.39 177.348C1013.4 179.087 1015.26 182.301 1015.26 185.778V206.985C1015.26 210.463 1013.4 213.676 1010.39 215.415L992.048 226.018C989.04 227.757 985.334 227.757 982.325 226.018L963.98 215.415C960.972 213.676 959.119 210.463 959.119 206.985V185.778C959.119 182.301 960.972 179.087 963.98 177.348L982.325 166.745Z" stroke="#E5E8FF" stroke-width="2" mask="url(#path-2-inside-1_22053_64527)"/>
<path d="M1049.47 166.745C1052.48 165.006 1056.19 165.006 1059.2 166.745L1077.54 177.348C1080.55 179.087 1082.4 182.301 1082.4 185.778V206.985C1082.4 210.463 1080.55 213.676 1077.54 215.415L1059.2 226.018C1056.19 227.757 1052.48 227.757 1049.47 226.018L1031.13 215.415C1028.12 213.676 1026.27 210.463 1026.27 206.985V185.778C1026.27 182.301 1028.12 179.087 1031.13 177.348L1049.47 166.745Z" stroke="#E5E8FF" stroke-width="2" mask="url(#path-2-inside-1_22053_64527)"/>
<path d="M1116.68 166.745C1119.69 165.006 1123.4 165.006 1126.41 166.745L1144.75 177.348C1147.76 179.087 1149.61 182.301 1149.61 185.778V206.985C1149.61 210.463 1147.76 213.676 1144.75 215.415L1126.41 226.018C1123.4 227.757 1119.69 227.757 1116.68 226.018L1098.34 215.415C1095.33 213.676 1093.48 210.463 1093.48 206.985V185.778C1093.48 182.301 1095.33 179.087 1098.34 177.348L1116.68 166.745Z" stroke="#E5E8FF" stroke-width="2" mask="url(#path-2-inside-1_22053_64527)"/>
<path d="M276.749 -18.0855C279.757 -19.8244 283.464 -19.8244 286.472 -18.0855L304.817 -7.4821C307.825 -5.74328 309.679 -2.52981 309.679 0.947828V22.1547C309.679 25.6323 307.825 28.8458 304.817 30.5846L286.472 41.1881C283.464 42.9269 279.757 42.9269 276.749 41.1881L258.404 30.5846C255.395 28.8458 253.542 25.6323 253.542 22.1547V0.947828C253.542 -2.52981 255.395 -5.74328 258.404 -7.4821L276.749 -18.0855Z" stroke="#E5E8FF" stroke-width="2" mask="url(#path-2-inside-1_22053_64527)"/>
<path d="M344.087 -18.0855C347.095 -19.8244 350.801 -19.8244 353.81 -18.0855L372.155 -7.4821C375.163 -5.74328 377.016 -2.52981 377.016 0.947828V22.1547C377.016 25.6323 375.163 28.8458 372.155 30.5846L353.81 41.1881C350.801 42.9269 347.095 42.9269 344.087 41.1881L325.742 30.5846C322.733 28.8458 320.88 25.6323 320.88 22.1547V0.947828C320.88 -2.52981 322.733 -5.74328 325.742 -7.4821L344.087 -18.0855Z" stroke="#E5E8FF" stroke-width="2" mask="url(#path-2-inside-1_22053_64527)"/>
<path d="M411.234 -18.0855C414.243 -19.8244 417.949 -19.8244 420.957 -18.0855L439.303 -7.4821C442.311 -5.74328 444.164 -2.52981 444.164 0.947828V22.1547C444.164 25.6323 442.311 28.8458 439.303 30.5846L420.957 41.1881C417.949 42.9269 414.243 42.9269 411.234 41.1881L392.889 30.5846C389.881 28.8458 388.028 25.6323 388.028 22.1547V0.947828C388.028 -2.52981 389.881 -5.74328 392.889 -7.4821L411.234 -18.0855Z" stroke="#E5E8FF" stroke-width="2" mask="url(#path-2-inside-1_22053_64527)"/>
<path d="M478.445 -18.0855C481.454 -19.8244 485.16 -19.8244 488.168 -18.0855L506.514 -7.4821C509.522 -5.74328 511.375 -2.52981 511.375 0.947828V22.1547C511.375 25.6323 509.522 28.8458 506.514 30.5846L488.168 41.1881C485.16 42.9269 481.454 42.9269 478.445 41.1881L460.1 30.5846C457.092 28.8458 455.239 25.6323 455.239 22.1547V0.947828C455.239 -2.52981 457.092 -5.74328 460.1 -7.4821L478.445 -18.0855Z" stroke="#E5E8FF" stroke-width="2" mask="url(#path-2-inside-1_22053_64527)"/>
<path d="M545.656 -18.0855C548.665 -19.8244 552.371 -19.8244 555.379 -18.0855L573.725 -7.4821C576.733 -5.74328 578.586 -2.52981 578.586 0.947828V22.1547C578.586 25.6323 576.733 28.8458 573.725 30.5846L555.379 41.1881C552.371 42.9269 548.665 42.9269 545.656 41.1881L527.311 30.5846C524.303 28.8458 522.45 25.6323 522.45 22.1547V0.947828C522.45 -2.52981 524.303 -5.74328 527.311 -7.4821L545.656 -18.0855Z" stroke="#E5E8FF" stroke-width="2" mask="url(#path-2-inside-1_22053_64527)"/>
<path d="M612.804 -18.0855C615.812 -19.8244 619.519 -19.8244 622.527 -18.0855L640.872 -7.4821C643.881 -5.74328 645.734 -2.52981 645.734 0.947828V22.1547C645.734 25.6323 643.881 28.8458 640.872 30.5846L622.527 41.1881C619.519 42.9269 615.812 42.9269 612.804 41.1881L594.459 30.5846C591.45 28.8458 589.597 25.6323 589.597 22.1547V0.947828C589.597 -2.52981 591.45 -5.74328 594.459 -7.4821L612.804 -18.0855Z" stroke="#E5E8FF" stroke-width="2" mask="url(#path-2-inside-1_22053_64527)"/>
<path d="M680.015 -18.0855C683.023 -19.8244 686.73 -19.8244 689.738 -18.0855L708.083 -7.4821C711.092 -5.74328 712.945 -2.52981 712.945 0.947828V22.1547C712.945 25.6323 711.092 28.8458 708.083 30.5846L689.738 41.1881C686.73 42.9269 683.023 42.9269 680.015 41.1881L661.67 30.5846C658.661 28.8458 656.808 25.6323 656.808 22.1547V0.947828C656.808 -2.52981 658.661 -5.74328 661.67 -7.4821L680.015 -18.0855Z" stroke="#E5E8FF" stroke-width="2" mask="url(#path-2-inside-1_22053_64527)"/>
<path d="M310.418 43.5246C313.426 41.7858 317.133 41.7858 320.141 43.5246L338.486 54.128C341.494 55.8668 343.348 59.0803 343.348 62.558V83.7648C343.348 87.2425 341.494 90.4559 338.486 92.1947L320.141 102.798C317.133 104.537 313.426 104.537 310.418 102.798L292.073 92.1947C289.064 90.4559 287.211 87.2425 287.211 83.7648V62.5579C287.211 59.0803 289.064 55.8668 292.073 54.128L310.418 43.5246Z" stroke="#E5E8FF" stroke-width="2" mask="url(#path-2-inside-1_22053_64527)"/>
<path d="M377.756 43.5246C380.764 41.7858 384.47 41.7858 387.479 43.5246L405.824 54.128C408.832 55.8668 410.685 59.0803 410.685 62.558V83.7648C410.685 87.2425 408.832 90.4559 405.824 92.1947L387.479 102.798C384.47 104.537 380.764 104.537 377.756 102.798L359.411 92.1947C356.402 90.4559 354.549 87.2425 354.549 83.7648V62.5579C354.549 59.0803 356.402 55.8668 359.411 54.128L377.756 43.5246Z" stroke="#E5E8FF" stroke-width="2" mask="url(#path-2-inside-1_22053_64527)"/>
<path d="M444.903 43.5246C447.912 41.7858 451.618 41.7858 454.626 43.5246L472.971 54.128C475.98 55.8668 477.833 59.0803 477.833 62.558V83.7648C477.833 87.2425 475.98 90.4559 472.971 92.1947L454.626 102.798C451.618 104.537 447.912 104.537 444.903 102.798L426.558 92.1947C423.55 90.4559 421.697 87.2425 421.697 83.7648V62.5579C421.697 59.0803 423.55 55.8668 426.558 54.128L444.903 43.5246Z" stroke="#E5E8FF" stroke-width="2" mask="url(#path-2-inside-1_22053_64527)"/>
<path d="M512.114 43.5246C515.123 41.7858 518.829 41.7858 521.837 43.5246L540.182 54.128C543.191 55.8668 545.044 59.0803 545.044 62.558V83.7648C545.044 87.2425 543.191 90.4559 540.182 92.1947L521.837 102.798C518.829 104.537 515.123 104.537 512.114 102.798L493.769 92.1947C490.761 90.4559 488.908 87.2425 488.908 83.7648V62.5579C488.908 59.0803 490.761 55.8668 493.769 54.128L512.114 43.5246Z" stroke="#E5E8FF" stroke-width="2" mask="url(#path-2-inside-1_22053_64527)"/>
<path d="M579.325 43.5246C582.334 41.7858 586.04 41.7858 589.048 43.5246L607.394 54.128C610.402 55.8668 612.255 59.0803 612.255 62.558V83.7648C612.255 87.2425 610.402 90.4559 607.394 92.1947L589.048 102.798C586.04 104.537 582.334 104.537 579.325 102.798L560.98 92.1947C557.972 90.4559 556.119 87.2425 556.119 83.7648V62.5579C556.119 59.0803 557.972 55.8668 560.98 54.128L579.325 43.5246Z" stroke="#E5E8FF" stroke-width="2" mask="url(#path-2-inside-1_22053_64527)"/>
<path d="M646.473 43.5246C649.481 41.7858 653.188 41.7858 656.196 43.5246L674.541 54.128C677.549 55.8668 679.403 59.0803 679.403 62.558V83.7648C679.403 87.2425 677.549 90.4559 674.541 92.1947L656.196 102.798C653.188 104.537 649.481 104.537 646.473 102.798L628.128 92.1947C625.119 90.4559 623.266 87.2425 623.266 83.7648V62.5579C623.266 59.0803 625.119 55.8668 628.128 54.128L646.473 43.5246Z" stroke="#E5E8FF" stroke-width="2" mask="url(#path-2-inside-1_22053_64527)"/>
<path d="M713.684 43.5246C716.692 41.7858 720.399 41.7858 723.407 43.5246L741.752 54.128C744.761 55.8668 746.614 59.0803 746.614 62.558V83.7648C746.614 87.2425 744.761 90.4559 741.752 92.1947L723.407 102.798C720.399 104.537 716.692 104.537 713.684 102.798L695.339 92.1947C692.33 90.4559 690.477 87.2425 690.477 83.7648V62.5579C690.477 59.0803 692.33 55.8668 695.339 54.128L713.684 43.5246Z" stroke="#E5E8FF" stroke-width="2" mask="url(#path-2-inside-1_22053_64527)"/>
<path d="M276.749 105.135C279.757 103.396 283.464 103.396 286.472 105.135L304.817 115.738C307.825 117.477 309.679 120.69 309.679 124.168V145.375C309.679 148.853 307.825 152.066 304.817 153.805L286.472 164.408C283.464 166.147 279.757 166.147 276.749 164.408L258.404 153.805C255.395 152.066 253.542 148.853 253.542 145.375V124.168C253.542 120.69 255.395 117.477 258.404 115.738L276.749 105.135Z" stroke="#E5E8FF" stroke-width="2" mask="url(#path-2-inside-1_22053_64527)"/>
<path d="M344.087 105.135C347.095 103.396 350.801 103.396 353.81 105.135L372.155 115.738C375.163 117.477 377.016 120.69 377.016 124.168V145.375C377.016 148.853 375.163 152.066 372.155 153.805L353.81 164.408C350.801 166.147 347.095 166.147 344.087 164.408L325.742 153.805C322.733 152.066 320.88 148.853 320.88 145.375V124.168C320.88 120.69 322.733 117.477 325.742 115.738L344.087 105.135Z" stroke="#E5E8FF" stroke-width="2" mask="url(#path-2-inside-1_22053_64527)"/>
<path d="M411.234 105.135C414.243 103.396 417.949 103.396 420.957 105.135L439.303 115.738C442.311 117.477 444.164 120.69 444.164 124.168V145.375C444.164 148.853 442.311 152.066 439.303 153.805L420.957 164.408C417.949 166.147 414.243 166.147 411.234 164.408L392.889 153.805C389.881 152.066 388.028 148.853 388.028 145.375V124.168C388.028 120.69 389.881 117.477 392.889 115.738L411.234 105.135Z" stroke="#E5E8FF" stroke-width="2" mask="url(#path-2-inside-1_22053_64527)"/>
<path d="M478.445 105.135C481.454 103.396 485.16 103.396 488.168 105.135L506.514 115.738C509.522 117.477 511.375 120.69 511.375 124.168V145.375C511.375 148.853 509.522 152.066 506.514 153.805L488.168 164.408C485.16 166.147 481.454 166.147 478.445 164.408L460.1 153.805C457.092 152.066 455.239 148.853 455.239 145.375V124.168C455.239 120.69 457.092 117.477 460.1 115.738L478.445 105.135Z" stroke="#E5E8FF" stroke-width="2" mask="url(#path-2-inside-1_22053_64527)"/>
<path d="M545.656 105.135C548.665 103.396 552.371 103.396 555.379 105.135L573.725 115.738C576.733 117.477 578.586 120.69 578.586 124.168V145.375C578.586 148.853 576.733 152.066 573.725 153.805L555.379 164.408C552.371 166.147 548.665 166.147 545.656 164.408L527.311 153.805C524.303 152.066 522.45 148.853 522.45 145.375V124.168C522.45 120.69 524.303 117.477 527.311 115.738L545.656 105.135Z" stroke="#E5E8FF" stroke-width="2" mask="url(#path-2-inside-1_22053_64527)"/>
<path d="M612.804 105.135C615.812 103.396 619.519 103.396 622.527 105.135L640.872 115.738C643.881 117.477 645.734 120.69 645.734 124.168V145.375C645.734 148.853 643.881 152.066 640.872 153.805L622.527 164.408C619.519 166.147 615.812 166.147 612.804 164.408L594.459 153.805C591.45 152.066 589.597 148.853 589.597 145.375V124.168C589.597 120.69 591.45 117.477 594.459 115.738L612.804 105.135Z" stroke="#E5E8FF" stroke-width="2" mask="url(#path-2-inside-1_22053_64527)"/>
<path d="M680.015 105.135C683.023 103.396 686.73 103.396 689.738 105.135L708.083 115.738C711.092 117.477 712.945 120.69 712.945 124.168V145.375C712.945 148.853 711.092 152.066 708.083 153.805L689.738 164.408C686.73 166.147 683.023 166.147 680.015 164.408L661.67 153.805C658.661 152.066 656.808 148.853 656.808 145.375V124.168C656.808 120.69 658.661 117.477 661.67 115.738L680.015 105.135Z" stroke="#E5E8FF" stroke-width="2" mask="url(#path-2-inside-1_22053_64527)"/>
<path d="M310.418 166.745C313.426 165.006 317.133 165.006 320.141 166.745L338.486 177.348C341.494 179.087 343.348 182.301 343.348 185.778V206.985C343.348 210.463 341.494 213.676 338.486 215.415L320.141 226.018C317.133 227.757 313.426 227.757 310.418 226.018L292.073 215.415C289.064 213.676 287.211 210.463 287.211 206.985V185.778C287.211 182.301 289.064 179.087 292.073 177.348L310.418 166.745Z" stroke="#E5E8FF" stroke-width="2" mask="url(#path-2-inside-1_22053_64527)"/>
<path d="M377.756 166.745C380.764 165.006 384.47 165.006 387.479 166.745L405.824 177.348C408.832 179.087 410.685 182.301 410.685 185.778V206.985C410.685 210.463 408.832 213.676 405.824 215.415L387.479 226.018C384.47 227.757 380.764 227.757 377.756 226.018L359.411 215.415C356.402 213.676 354.549 210.463 354.549 206.985V185.778C354.549 182.301 356.402 179.087 359.411 177.348L377.756 166.745Z" stroke="#E5E8FF" stroke-width="2" mask="url(#path-2-inside-1_22053_64527)"/>
<path d="M444.903 166.745C447.912 165.006 451.618 165.006 454.626 166.745L472.971 177.348C475.98 179.087 477.833 182.301 477.833 185.778V206.985C477.833 210.463 475.98 213.676 472.971 215.415L454.626 226.018C451.618 227.757 447.912 227.757 444.903 226.018L426.558 215.415C423.55 213.676 421.697 210.463 421.697 206.985V185.778C421.697 182.301 423.55 179.087 426.558 177.348L444.903 166.745Z" stroke="#E5E8FF" stroke-width="2" mask="url(#path-2-inside-1_22053_64527)"/>
<path d="M512.114 166.745C515.123 165.006 518.829 165.006 521.837 166.745L540.182 177.348C543.191 179.087 545.044 182.301 545.044 185.778V206.985C545.044 210.463 543.191 213.676 540.182 215.415L521.837 226.018C518.829 227.757 515.123 227.757 512.114 226.018L493.769 215.415C490.761 213.676 488.908 210.463 488.908 206.985V185.778C488.908 182.301 490.761 179.087 493.769 177.348L512.114 166.745Z" stroke="#E5E8FF" stroke-width="2" mask="url(#path-2-inside-1_22053_64527)"/>
<path d="M579.325 166.745C582.334 165.006 586.04 165.006 589.048 166.745L607.394 177.348C610.402 179.087 612.255 182.301 612.255 185.778V206.985C612.255 210.463 610.402 213.676 607.394 215.415L589.048 226.018C586.04 227.757 582.334 227.757 579.325 226.018L560.98 215.415C557.972 213.676 556.119 210.463 556.119 206.985V185.778C556.119 182.301 557.972 179.087 560.98 177.348L579.325 166.745Z" stroke="#E5E8FF" stroke-width="2" mask="url(#path-2-inside-1_22053_64527)"/>
<path d="M646.473 166.745C649.481 165.006 653.188 165.006 656.196 166.745L674.541 177.348C677.549 179.087 679.403 182.301 679.403 185.778V206.985C679.403 210.463 677.549 213.676 674.541 215.415L656.196 226.018C653.188 227.757 649.481 227.757 646.473 226.018L628.128 215.415C625.119 213.676 623.266 210.463 623.266 206.985V185.778C623.266 182.301 625.119 179.087 628.128 177.348L646.473 166.745Z" stroke="#E5E8FF" stroke-width="2" mask="url(#path-2-inside-1_22053_64527)"/>
<path d="M713.684 166.745C716.692 165.006 720.399 165.006 723.407 166.745L741.752 177.348C744.761 179.087 746.614 182.301 746.614 185.778V206.985C746.614 210.463 744.761 213.676 741.752 215.415L723.407 226.018C720.399 227.757 716.692 227.757 713.684 226.018L695.339 215.415C692.33 213.676 690.477 210.463 690.477 206.985V185.778C690.477 182.301 692.33 179.087 695.339 177.348L713.684 166.745Z" stroke="#E5E8FF" stroke-width="2" mask="url(#path-2-inside-1_22053_64527)"/>
<path d="M-125.531 116.812C-123.655 115.729 -121.345 115.729 -119.469 116.812L-108.031 123.416C-106.155 124.499 -105 126.5 -105 128.666V141.873C-105 144.039 -106.155 146.04 -108.031 147.123L-119.469 153.727C-121.345 154.81 -123.655 154.81 -125.531 153.727L-136.969 147.123C-138.845 146.04 -140 144.039 -140 141.873V128.666C-140 126.5 -138.845 124.499 -136.969 123.416L-125.531 116.812Z" fill="#F0F1FF"/>
<path d="M815.47 116.812C817.35 115.729 819.66 115.729 821.53 116.812L832.97 123.416C834.85 124.499 836 126.5 836 128.666V141.873C836 144.039 834.85 146.04 832.97 147.123L821.53 153.727C819.66 154.81 817.35 154.81 815.47 153.727L804.03 147.123C802.16 146.04 801 144.039 801 141.873V128.666C801 126.5 802.16 124.499 804.03 123.416L815.47 116.812Z" fill="#F0F1FF"/>
<path d="M580.469 54.8122C582.345 53.7293 584.656 53.7293 586.532 54.8122L597.969 61.4158C599.845 62.4987 601 64.5 601 66.6658V79.8731C601 82.0389 599.845 84.0402 597.969 85.1231L586.532 91.7267C584.656 92.8096 582.345 92.8096 580.469 91.7267L569.032 85.1231C567.156 84.0402 566 82.0389 566 79.8731V66.6658C566 64.5 567.156 62.4987 569.032 61.4158L580.469 54.8122Z" fill="#F0F1FF"/>
<path d="M345.469 -7.18782C347.345 -8.27073 349.656 -8.27073 351.532 -7.18782L362.969 -0.584214C364.845 0.498695 366 2.49999 366 4.66579V17.8731C366 20.0389 364.845 22.0402 362.969 23.1231L351.532 29.7267C349.656 30.8096 347.345 30.8096 345.469 29.7267L334.032 23.1231C332.156 22.0402 331 20.0389 331 17.8731V4.66579C331 2.49999 332.156 0.498695 334.032 -0.584214L345.469 -7.18782Z" fill="#F0F1FF"/>
<path d="M-24.531 54.8123C-22.655 53.7294 -20.345 53.7294 -18.469 54.8123L-7.03101 61.4159C-5.155 62.4988 -4 64.5001 -4 66.6659V79.8732C-4 82.039 -5.155 84.0403 -7.03101 85.1232L-18.469 91.7268C-20.345 92.8097 -22.655 92.8097 -24.531 91.7268L-35.969 85.1232C-37.845 84.0403 -39 82.039 -39 79.8732V66.6659C-39 64.5001 -37.845 62.4988 -35.969 61.4159L-24.531 54.8123Z" fill="#F0F1FF"/>
<path d="M916.47 54.8122C918.35 53.7293 920.66 53.7293 922.53 54.8122L933.97 61.4158C935.85 62.4987 937 64.5 937 66.6658V79.8731C937 82.0389 935.85 84.0402 933.97 85.1231L922.53 91.7267C920.66 92.8096 918.35 92.8096 916.47 91.7267L905.03 85.1231C903.16 84.0402 902 82.0389 902 79.8731V66.6658C902 64.5 903.16 62.4987 905.03 61.4158L916.47 54.8122Z" fill="#F0F1FF"/>
<path d="M-192.531 -6.18772C-190.655 -7.27062 -188.345 -7.27062 -186.469 -6.18772L-175.031 0.415865C-173.155 1.49876 -172 3.50006 -172 5.66588V18.8732C-172 21.039 -173.155 23.0403 -175.031 24.1232L-186.469 30.7268C-188.345 31.8097 -190.655 31.8097 -192.531 30.7268L-203.969 24.1232C-205.845 23.0403 -207 21.039 -207 18.8732V5.66587C-207 3.50006 -205.845 1.49876 -203.969 0.415865L-192.531 -6.18772Z" fill="#F0F1FF"/>
<path d="M748.469 -6.18782C750.345 -7.27073 752.656 -7.27073 754.532 -6.18782L765.969 0.415786C767.845 1.4987 769 3.49998 769 5.6658V18.8731C769 21.0389 767.845 23.0402 765.969 24.1231L754.532 30.7267C752.656 31.8096 750.345 31.8096 748.469 30.7267L737.032 24.1231C735.156 23.0402 734 21.0389 734 18.8731V5.6658C734 3.49998 735.156 1.4987 737.032 0.415786L748.469 -6.18782Z" fill="#F0F1FF"/>
<path d="M76.469 116.812C78.345 115.729 80.655 115.729 82.531 116.812L93.969 123.416C95.845 124.499 97 126.5 97 128.666V141.873C97 144.039 95.845 146.04 93.969 147.123L82.531 153.727C80.655 154.81 78.345 154.81 76.469 153.727L65.031 147.123C63.155 146.04 62 144.039 62 141.873V128.666C62 126.5 63.155 124.499 65.031 123.416L76.469 116.812Z" fill="#F0F1FF"/>
<path d="M1017.47 116.812C1019.35 115.729 1021.66 115.729 1023.53 116.812L1034.97 123.416C1036.85 124.499 1038 126.5 1038 128.666V141.873C1038 144.039 1036.85 146.04 1034.97 147.123L1023.53 153.727C1021.66 154.81 1019.35 154.81 1017.47 153.727L1006.03 147.123C1004.16 146.04 1003 144.039 1003 141.873V128.666C1003 126.5 1004.16 124.499 1006.03 123.416L1017.47 116.812Z" fill="#F0F1FF"/>
<path d="M177.469 176.812C179.345 175.729 181.655 175.729 183.531 176.812L194.969 183.416C196.845 184.499 198 186.5 198 188.666V201.873C198 204.039 196.845 206.04 194.969 207.123L183.531 213.727C181.655 214.81 179.345 214.81 177.469 213.727L166.031 207.123C164.155 206.04 163 204.039 163 201.873V188.666C163 186.5 164.155 184.499 166.031 183.416L177.469 176.812Z" fill="#F0F1FF"/>
<path d="M1118.47 176.812C1120.35 175.729 1122.66 175.729 1124.53 176.812L1135.97 183.416C1137.85 184.499 1139 186.5 1139 188.666V201.873C1139 204.039 1137.85 206.04 1135.97 207.123L1124.53 213.727C1122.66 214.81 1120.35 214.81 1118.47 213.727L1107.03 207.123C1105.16 206.04 1104 204.039 1104 201.873V188.666C1104 186.5 1105.16 184.499 1107.03 183.416L1118.47 176.812Z" fill="#F0F1FF"/>
<path d="M76.469 -6.18772C78.345 -7.27062 80.655 -7.27062 82.531 -6.18772L93.969 0.415865C95.845 1.49876 97 3.50006 97 5.66588V18.8732C97 21.039 95.845 23.0403 93.969 24.1232L82.531 30.7268C80.655 31.8097 78.345 31.8097 76.469 30.7268L65.031 24.1232C63.155 23.0403 62 21.039 62 18.8732V5.66587C62 3.50006 63.155 1.49876 65.031 0.415865L76.469 -6.18772Z" fill="#F0F1FF"/>
<path d="M1017.47 -6.18782C1019.35 -7.27073 1021.66 -7.27073 1023.53 -6.18782L1034.97 0.415786C1036.85 1.4987 1038 3.49998 1038 5.6658V18.8731C1038 21.0389 1036.85 23.0402 1034.97 24.1231L1023.53 30.7267C1021.66 31.8096 1019.35 31.8096 1017.47 30.7267L1006.03 24.1231C1004.16 23.0402 1003 21.0389 1003 18.8731V5.6658C1003 3.49998 1004.16 1.4987 1006.03 0.415786L1017.47 -6.18782Z" fill="#F0F1FF"/>
<path d="M412.469 116.812C414.345 115.729 416.656 115.729 418.532 116.812L429.969 123.416C431.845 124.499 433 126.5 433 128.666V141.873C433 144.039 431.845 146.04 429.969 147.123L418.532 153.727C416.656 154.81 414.345 154.81 412.469 153.727L401.032 147.123C399.156 146.04 398 144.039 398 141.873V128.666C398 126.5 399.156 124.499 401.032 123.416L412.469 116.812Z" fill="#F0F1FF"/>
<path d="M412.469 116.812C414.345 115.729 416.656 115.729 418.532 116.812L429.969 123.416C431.845 124.499 433 126.5 433 128.666V141.873C433 144.039 431.845 146.04 429.969 147.123L418.532 153.727C416.656 154.81 414.345 154.81 412.469 153.727L401.032 147.123C399.156 146.04 398 144.039 398 141.873V128.666C398 126.5 399.156 124.499 401.032 123.416L412.469 116.812Z" fill="#F0F1FF"/>
<path d="M514.469 176.812C516.345 175.729 518.656 175.729 520.532 176.812L531.969 183.416C533.845 184.499 535 186.5 535 188.666V201.873C535 204.039 533.845 206.04 531.969 207.123L520.532 213.727C518.656 214.81 516.345 214.81 514.469 213.727L503.032 207.123C501.156 206.04 500 204.039 500 201.873V188.666C500 186.5 501.156 184.499 503.032 183.416L514.469 176.812Z" fill="#F0F1FF"/>
<defs>
<filter id="filter0_b_22053_64527" x="-14" y="-14" width="1404" height="228" filterUnits="userSpaceOnUse" color-interpolation-filters="sRGB">
<feFlood flood-opacity="0" result="BackgroundImageFix"/>
<feGaussianBlur in="BackgroundImageFix" stdDeviation="7"/>
<feComposite in2="SourceAlpha" operator="in" result="effect1_backgroundBlur_22053_64527"/>
<feBlend mode="normal" in="SourceGraphic" in2="effect1_backgroundBlur_22053_64527" result="shape"/>
</filter>
</defs>
</svg>
