<svg width="272" height="198" viewBox="0 0 272 198" fill="none" xmlns="http://www.w3.org/2000/svg"><path d="M-1085-32H291v262h-1376V-32Z" fill="url(#paint0_linear_22990_158332)"/><mask id="path-2-inside-1_22990_158332" fill="white"><path d="M211.749-23.696a9.714 9.714 0 0 1 9.723 0l18.345 10.604a9.736 9.736 0 0 1 4.861 8.43v21.206a9.736 9.736 0 0 1-4.861 8.43l-18.345 10.604a9.714 9.714 0 0 1-9.723 0l-18.345-10.604a9.735 9.735 0 0 1-4.862-8.43V-4.663a9.735 9.735 0 0 1 4.862-8.43l18.345-10.603Zm67.338 0a9.714 9.714 0 0 1 9.723 0l18.345 10.604a9.736 9.736 0 0 1 4.861 8.43v21.206a9.736 9.736 0 0 1-4.861 8.43L288.81 35.578a9.714 9.714 0 0 1-9.723 0l-18.346-10.604a9.736 9.736 0 0 1-4.861-8.43V-4.663a9.736 9.736 0 0 1 4.861-8.43l18.346-10.603Zm-33.669 61.61a9.714 9.714 0 0 1 9.723 0l18.345 10.604a9.736 9.736 0 0 1 4.861 8.43v21.206a9.736 9.736 0 0 1-4.861 8.43l-18.345 10.604a9.713 9.713 0 0 1-9.723 0l-18.345-10.604a9.735 9.735 0 0 1-4.862-8.43V56.948a9.735 9.735 0 0 1 4.862-8.43l18.345-10.604Zm-33.669 61.61a9.713 9.713 0 0 1 9.723 0l18.345 10.604a9.736 9.736 0 0 1 4.861 8.43v21.207a9.737 9.737 0 0 1-4.861 8.43l-18.345 10.603a9.713 9.713 0 0 1-9.723 0l-18.345-10.603a9.736 9.736 0 0 1-4.862-8.43v-21.207a9.735 9.735 0 0 1 4.862-8.43l18.345-10.604Zm67.338 0a9.713 9.713 0 0 1 9.723 0l18.345 10.604a9.736 9.736 0 0 1 4.861 8.43v21.207a9.737 9.737 0 0 1-4.861 8.43l-18.345 10.603a9.713 9.713 0 0 1-9.723 0l-18.346-10.603a9.737 9.737 0 0 1-4.861-8.43v-21.207a9.736 9.736 0 0 1 4.861-8.43l18.346-10.604Zm-33.669 61.61a9.717 9.717 0 0 1 9.723 0l18.345 10.604a9.736 9.736 0 0 1 4.861 8.43v21.207a9.737 9.737 0 0 1-4.861 8.43l-18.345 10.603a9.713 9.713 0 0 1-9.723 0l-18.345-10.603a9.736 9.736 0 0 1-4.862-8.43v-21.207a9.735 9.735 0 0 1 4.862-8.43l18.345-10.604ZM-1132.25-23.696a9.708 9.708 0 0 1 9.72 0l18.35 10.604a9.731 9.731 0 0 1 4.86 8.43v21.206a9.731 9.731 0 0 1-4.86 8.43l-18.35 10.604a9.708 9.708 0 0 1-9.72 0l-18.35-10.604a9.752 9.752 0 0 1-4.86-8.43V-4.663a9.752 9.752 0 0 1 4.86-8.43l18.35-10.603Zm67.34 0a9.708 9.708 0 0 1 9.72 0l18.34 10.604a9.74 9.74 0 0 1 4.87 8.43v21.206a9.74 9.74 0 0 1-4.87 8.43l-18.34 10.604a9.708 9.708 0 0 1-9.72 0l-18.35-10.604a9.731 9.731 0 0 1-4.86-8.43V-4.663a9.731 9.731 0 0 1 4.86-8.43l18.35-10.603Zm67.144 0a9.714 9.714 0 0 1 9.723 0l18.346 10.604a9.736 9.736 0 0 1 4.861 8.43v21.206a9.736 9.736 0 0 1-4.861 8.43l-18.346 10.604a9.714 9.714 0 0 1-9.723 0l-18.344-10.604a9.731 9.731 0 0 1-4.86-8.43V-4.663a9.731 9.731 0 0 1 4.86-8.43l18.344-10.603Zm67.211 0a9.714 9.714 0 0 1 9.723 0l18.346 10.604a9.736 9.736 0 0 1 4.861 8.43v21.206a9.736 9.736 0 0 1-4.861 8.43l-18.346 10.604a9.714 9.714 0 0 1-9.723 0L-948.9 24.974a9.736 9.736 0 0 1-4.861-8.43V-4.663a9.736 9.736 0 0 1 4.861-8.43l18.345-10.603Zm67.211 0a9.714 9.714 0 0 1 9.723 0l18.346 10.604a9.736 9.736 0 0 1 4.861 8.43v21.206a9.736 9.736 0 0 1-4.861 8.43l-18.346 10.604a9.714 9.714 0 0 1-9.723 0l-18.345-10.604a9.736 9.736 0 0 1-4.861-8.43V-4.663a9.736 9.736 0 0 1 4.861-8.43l18.345-10.603Zm67.148 0a9.714 9.714 0 0 1 9.723 0l18.345 10.604a9.735 9.735 0 0 1 4.862 8.43v21.206a9.735 9.735 0 0 1-4.862 8.43l-18.345 10.604a9.714 9.714 0 0 1-9.723 0l-18.345-10.604a9.735 9.735 0 0 1-4.862-8.43V-4.663a9.735 9.735 0 0 1 4.862-8.43l18.345-10.603Zm67.211 0a9.714 9.714 0 0 1 9.723 0l18.345 10.604a9.735 9.735 0 0 1 4.862 8.43v21.206a9.735 9.735 0 0 1-4.862 8.43l-18.345 10.604a9.714 9.714 0 0 1-9.723 0l-18.345-10.604a9.737 9.737 0 0 1-4.862-8.43V-4.663a9.737 9.737 0 0 1 4.862-8.43l18.345-10.603Zm-436.805 61.61a9.708 9.708 0 0 1 9.72 0l18.34 10.604a9.74 9.74 0 0 1 4.87 8.43v21.206a9.74 9.74 0 0 1-4.87 8.43l-18.34 10.604a9.707 9.707 0 0 1-9.72 0l-18.35-10.604a9.731 9.731 0 0 1-4.86-8.43V56.948a9.731 9.731 0 0 1 4.86-8.43l18.35-10.604Zm67.21 0a9.708 9.708 0 0 1 9.72 0l18.35 10.604a9.752 9.752 0 0 1 4.86 8.43v21.206a9.752 9.752 0 0 1-4.86 8.43l-18.35 10.604a9.707 9.707 0 0 1-9.72 0l-18.35-10.604a9.731 9.731 0 0 1-4.86-8.43V56.948a9.731 9.731 0 0 1 4.86-8.43l18.35-10.604Zm67.34 0a9.708 9.708 0 0 1 9.72 0l18.34 10.604a9.736 9.736 0 0 1 4.865 8.43v21.206a9.736 9.736 0 0 1-4.865 8.43l-18.34 10.604a9.707 9.707 0 0 1-9.72 0l-18.35-10.604a9.731 9.731 0 0 1-4.86-8.43V56.948a9.731 9.731 0 0 1 4.86-8.43l18.35-10.604Zm67.143 0a9.714 9.714 0 0 1 9.723 0l18.345 10.604a9.735 9.735 0 0 1 4.862 8.43v21.206a9.735 9.735 0 0 1-4.862 8.43l-18.345 10.604a9.713 9.713 0 0 1-9.723 0l-18.345-10.604a9.736 9.736 0 0 1-4.861-8.43V56.948a9.736 9.736 0 0 1 4.861-8.43l18.345-10.604Zm67.211 0a9.714 9.714 0 0 1 9.723 0l18.345 10.604a9.735 9.735 0 0 1 4.862 8.43v21.206a9.735 9.735 0 0 1-4.862 8.43l-18.345 10.604a9.713 9.713 0 0 1-9.723 0l-18.345-10.604a9.736 9.736 0 0 1-4.861-8.43V56.948a9.736 9.736 0 0 1 4.861-8.43l18.345-10.604Zm67.211 0a9.714 9.714 0 0 1 9.723 0l18.346 10.604a9.736 9.736 0 0 1 4.861 8.43v21.206a9.736 9.736 0 0 1-4.861 8.43l-18.346 10.604a9.713 9.713 0 0 1-9.723 0l-18.345-10.604a9.736 9.736 0 0 1-4.861-8.43V56.948a9.736 9.736 0 0 1 4.861-8.43l18.345-10.604Zm67.148 0a9.714 9.714 0 0 1 9.723 0l18.345 10.604a9.737 9.737 0 0 1 4.862 8.43v21.206a9.737 9.737 0 0 1-4.862 8.43l-18.345 10.604a9.713 9.713 0 0 1-9.723 0l-18.345-10.604a9.735 9.735 0 0 1-4.862-8.43V56.948a9.735 9.735 0 0 1 4.862-8.43l18.345-10.604Zm67.211 0a9.714 9.714 0 0 1 9.723 0l18.345 10.604a9.735 9.735 0 0 1 4.862 8.43v21.206a9.735 9.735 0 0 1-4.862 8.43l-18.345 10.604a9.713 9.713 0 0 1-9.723 0l-18.345-10.604a9.735 9.735 0 0 1-4.862-8.43V56.948a9.735 9.735 0 0 1 4.862-8.43l18.345-10.604Zm-436.934 61.61a9.707 9.707 0 0 1 9.72 0l18.35 10.604a9.731 9.731 0 0 1 4.86 8.43v21.207a9.732 9.732 0 0 1-4.86 8.43l-18.35 10.603a9.707 9.707 0 0 1-9.72 0l-18.35-10.603a9.753 9.753 0 0 1-4.86-8.43v-21.207a9.752 9.752 0 0 1 4.86-8.43l18.35-10.604Zm67.34 0a9.707 9.707 0 0 1 9.72 0l18.34 10.604a9.74 9.74 0 0 1 4.87 8.43v21.207a9.742 9.742 0 0 1-4.87 8.43l-18.34 10.603a9.707 9.707 0 0 1-9.72 0l-18.35-10.603a9.732 9.732 0 0 1-4.86-8.43v-21.207a9.731 9.731 0 0 1 4.86-8.43l18.35-10.604Zm67.144 0a9.713 9.713 0 0 1 9.723 0l18.346 10.604a9.736 9.736 0 0 1 4.861 8.43v21.207a9.737 9.737 0 0 1-4.861 8.43l-18.346 10.603a9.713 9.713 0 0 1-9.723 0l-18.344-10.603a9.732 9.732 0 0 1-4.86-8.43v-21.207a9.731 9.731 0 0 1 4.86-8.43l18.344-10.604Zm67.211 0a9.713 9.713 0 0 1 9.723 0l18.346 10.604a9.736 9.736 0 0 1 4.861 8.43v21.207a9.737 9.737 0 0 1-4.861 8.43l-18.346 10.603a9.713 9.713 0 0 1-9.723 0l-18.345-10.603a9.737 9.737 0 0 1-4.861-8.43v-21.207a9.736 9.736 0 0 1 4.861-8.43l18.345-10.604Zm67.211 0a9.713 9.713 0 0 1 9.723 0l18.346 10.604a9.736 9.736 0 0 1 4.861 8.43v21.207a9.737 9.737 0 0 1-4.861 8.43l-18.346 10.603a9.713 9.713 0 0 1-9.723 0l-18.345-10.603a9.737 9.737 0 0 1-4.861-8.43v-21.207a9.736 9.736 0 0 1 4.861-8.43l18.345-10.604Zm67.148 0a9.713 9.713 0 0 1 9.723 0l18.345 10.604a9.735 9.735 0 0 1 4.862 8.43v21.207a9.736 9.736 0 0 1-4.862 8.43l-18.345 10.603a9.713 9.713 0 0 1-9.723 0l-18.345-10.603a9.736 9.736 0 0 1-4.862-8.43v-21.207a9.735 9.735 0 0 1 4.862-8.43l18.345-10.604Zm67.211 0a9.713 9.713 0 0 1 9.723 0l18.345 10.604a9.735 9.735 0 0 1 4.862 8.43v21.207a9.736 9.736 0 0 1-4.862 8.43l-18.345 10.603a9.713 9.713 0 0 1-9.723 0l-18.345-10.603a9.738 9.738 0 0 1-4.862-8.43v-21.207a9.737 9.737 0 0 1 4.862-8.43l18.345-10.604Zm-436.805 61.61a9.712 9.712 0 0 1 9.72 0l18.34 10.604a9.74 9.74 0 0 1 4.87 8.43v21.207a9.742 9.742 0 0 1-4.87 8.43l-18.34 10.603a9.707 9.707 0 0 1-9.72 0l-18.35-10.603a9.732 9.732 0 0 1-4.86-8.43v-21.207a9.731 9.731 0 0 1 4.86-8.43l18.35-10.604Zm67.21 0a9.712 9.712 0 0 1 9.72 0l18.35 10.604a9.752 9.752 0 0 1 4.86 8.43v21.207a9.753 9.753 0 0 1-4.86 8.43l-18.35 10.603a9.707 9.707 0 0 1-9.72 0l-18.35-10.603a9.732 9.732 0 0 1-4.86-8.43v-21.207a9.731 9.731 0 0 1 4.86-8.43l18.35-10.604Zm67.34 0a9.712 9.712 0 0 1 9.72 0l18.34 10.604a9.736 9.736 0 0 1 4.865 8.43v21.207a9.737 9.737 0 0 1-4.865 8.43l-18.34 10.603a9.707 9.707 0 0 1-9.72 0l-18.35-10.603a9.732 9.732 0 0 1-4.86-8.43v-21.207a9.731 9.731 0 0 1 4.86-8.43l18.35-10.604Zm67.143 0a9.717 9.717 0 0 1 9.723 0l18.345 10.604a9.735 9.735 0 0 1 4.862 8.43v21.207a9.736 9.736 0 0 1-4.862 8.43l-18.345 10.603a9.713 9.713 0 0 1-9.723 0l-18.345-10.603a9.737 9.737 0 0 1-4.861-8.43v-21.207a9.736 9.736 0 0 1 4.861-8.43l18.345-10.604Zm67.211 0a9.717 9.717 0 0 1 9.723 0l18.345 10.604a9.735 9.735 0 0 1 4.862 8.43v21.207a9.736 9.736 0 0 1-4.862 8.43l-18.345 10.603a9.713 9.713 0 0 1-9.723 0l-18.345-10.603a9.737 9.737 0 0 1-4.861-8.43v-21.207a9.736 9.736 0 0 1 4.861-8.43l18.345-10.604Zm67.211 0a9.717 9.717 0 0 1 9.723 0l18.346 10.604a9.736 9.736 0 0 1 4.861 8.43v21.207a9.737 9.737 0 0 1-4.861 8.43l-18.346 10.603a9.713 9.713 0 0 1-9.723 0l-18.345-10.603a9.737 9.737 0 0 1-4.861-8.43v-21.207a9.736 9.736 0 0 1 4.861-8.43l18.345-10.604Zm67.148 0a9.717 9.717 0 0 1 9.723 0l18.345 10.604a9.737 9.737 0 0 1 4.862 8.43v21.207a9.738 9.738 0 0 1-4.862 8.43l-18.345 10.603a9.713 9.713 0 0 1-9.723 0l-18.345-10.603a9.736 9.736 0 0 1-4.862-8.43v-21.207a9.735 9.735 0 0 1 4.862-8.43l18.345-10.604Zm67.211 0a9.717 9.717 0 0 1 9.723 0l18.345 10.604a9.735 9.735 0 0 1 4.862 8.43v21.207a9.736 9.736 0 0 1-4.862 8.43l-18.345 10.603a9.713 9.713 0 0 1-9.723 0l-18.345-10.603a9.736 9.736 0 0 1-4.862-8.43v-21.207a9.735 9.735 0 0 1 4.862-8.43l18.345-10.604Zm504.403-184.83a9.714 9.714 0 0 1 9.723 0l18.345 10.604a9.736 9.736 0 0 1 4.861 8.43v21.206a9.736 9.736 0 0 1-4.861 8.43l-18.345 10.604a9.714 9.714 0 0 1-9.723 0l-18.345-10.604a9.735 9.735 0 0 1-4.862-8.43V-4.663a9.735 9.735 0 0 1 4.862-8.43l18.345-10.603Zm67.147 0a9.714 9.714 0 0 1 9.723 0l18.346 10.604a9.736 9.736 0 0 1 4.861 8.43v21.206a9.736 9.736 0 0 1-4.862 8.43l-18.345 10.604a9.714 9.714 0 0 1-9.723 0l-18.345-10.604a9.736 9.736 0 0 1-4.861-8.43V-4.663a9.736 9.736 0 0 1 4.861-8.43l18.345-10.603Zm67.211 0a9.714 9.714 0 0 1 9.724 0l18.345 10.604a9.736 9.736 0 0 1 4.861 8.43v21.206a9.736 9.736 0 0 1-4.861 8.43l-18.345 10.604a9.714 9.714 0 0 1-9.724 0L-74.9 24.974a9.736 9.736 0 0 1-4.861-8.43V-4.663a9.736 9.736 0 0 1 4.861-8.43l18.345-10.603Zm67.211 0a9.714 9.714 0 0 1 9.723 0l18.346 10.604a9.736 9.736 0 0 1 4.861 8.43v21.206a9.736 9.736 0 0 1-4.861 8.43L20.379 35.578a9.714 9.714 0 0 1-9.723 0L-7.689 24.974a9.736 9.736 0 0 1-4.861-8.43V-4.663a9.736 9.736 0 0 1 4.861-8.43l18.345-10.603Zm67.148 0a9.714 9.714 0 0 1 9.723 0l18.345 10.604a9.737 9.737 0 0 1 4.862 8.43v21.206a9.737 9.737 0 0 1-4.862 8.43L87.527 35.578a9.714 9.714 0 0 1-9.723 0L59.459 24.974a9.736 9.736 0 0 1-4.862-8.43V-4.663a9.736 9.736 0 0 1 4.862-8.43l18.345-10.603Zm67.211 0a9.714 9.714 0 0 1 9.723 0l18.345 10.604a9.735 9.735 0 0 1 4.862 8.43v21.206a9.735 9.735 0 0 1-4.862 8.43l-18.345 10.604a9.714 9.714 0 0 1-9.723 0L126.67 24.974a9.737 9.737 0 0 1-4.862-8.43V-4.663a9.737 9.737 0 0 1 4.862-8.43l18.345-10.603Zm-302.259 61.61a9.714 9.714 0 0 1 9.723 0l18.345 10.604a9.736 9.736 0 0 1 4.861 8.43v21.206a9.736 9.736 0 0 1-4.861 8.43l-18.345 10.604a9.713 9.713 0 0 1-9.723 0l-18.345-10.604a9.735 9.735 0 0 1-4.862-8.43V56.948a9.735 9.735 0 0 1 4.862-8.43l18.345-10.604Zm67.147 0a9.714 9.714 0 0 1 9.723 0l18.345 10.604a9.736 9.736 0 0 1 4.862 8.43v21.206a9.736 9.736 0 0 1-4.862 8.43l-18.345 10.604a9.713 9.713 0 0 1-9.723 0l-18.345-10.604a9.736 9.736 0 0 1-4.861-8.43V56.948a9.736 9.736 0 0 1 4.861-8.43l18.345-10.604Zm67.211 0a9.714 9.714 0 0 1 9.723 0L5.183 48.518a9.736 9.736 0 0 1 4.861 8.43v21.206a9.736 9.736 0 0 1-4.862 8.43l-18.345 10.604a9.713 9.713 0 0 1-9.723 0L-41.23 86.584a9.736 9.736 0 0 1-4.861-8.43V56.948a9.736 9.736 0 0 1 4.861-8.43l18.345-10.604Zm67.211 0a9.714 9.714 0 0 1 9.723 0l18.346 10.604a9.736 9.736 0 0 1 4.861 8.43v21.206a9.736 9.736 0 0 1-4.861 8.43L54.048 97.188a9.713 9.713 0 0 1-9.723 0L25.98 86.584a9.736 9.736 0 0 1-4.861-8.43V56.948a9.736 9.736 0 0 1 4.861-8.43l18.345-10.604Zm67.148 0a9.714 9.714 0 0 1 9.723 0l18.345 10.604a9.737 9.737 0 0 1 4.862 8.43v21.206a9.737 9.737 0 0 1-4.862 8.43l-18.345 10.604a9.713 9.713 0 0 1-9.723 0L93.128 86.584a9.736 9.736 0 0 1-4.862-8.43V56.948a9.736 9.736 0 0 1 4.862-8.43l18.345-10.604Zm67.211 0a9.714 9.714 0 0 1 9.723 0l18.345 10.604a9.737 9.737 0 0 1 4.862 8.43v21.206a9.737 9.737 0 0 1-4.862 8.43l-18.345 10.604a9.713 9.713 0 0 1-9.723 0l-18.345-10.604a9.737 9.737 0 0 1-4.862-8.43V56.948a9.737 9.737 0 0 1 4.862-8.43l18.345-10.604Zm-369.597 61.61a9.713 9.713 0 0 1 9.723 0l18.345 10.604a9.736 9.736 0 0 1 4.861 8.43v21.207a9.737 9.737 0 0 1-4.861 8.43l-18.345 10.603a9.713 9.713 0 0 1-9.723 0l-18.345-10.603a9.736 9.736 0 0 1-4.862-8.43v-21.207a9.735 9.735 0 0 1 4.862-8.43l18.345-10.604Zm67.147 0a9.713 9.713 0 0 1 9.723 0l18.346 10.604a9.736 9.736 0 0 1 4.861 8.43v21.207a9.737 9.737 0 0 1-4.862 8.43l-18.345 10.603a9.713 9.713 0 0 1-9.723 0l-18.345-10.603a9.737 9.737 0 0 1-4.861-8.43v-21.207a9.736 9.736 0 0 1 4.861-8.43l18.345-10.604Zm67.211 0a9.713 9.713 0 0 1 9.724 0l18.345 10.604a9.736 9.736 0 0 1 4.861 8.43v21.207a9.737 9.737 0 0 1-4.861 8.43l-18.345 10.603a9.713 9.713 0 0 1-9.724 0L-74.9 148.195a9.737 9.737 0 0 1-4.861-8.43v-21.207a9.736 9.736 0 0 1 4.861-8.43l18.345-10.604Zm67.211 0a9.713 9.713 0 0 1 9.723 0l18.346 10.604a9.736 9.736 0 0 1 4.861 8.43v21.207a9.737 9.737 0 0 1-4.861 8.43l-18.346 10.603a9.713 9.713 0 0 1-9.723 0l-18.345-10.603a9.737 9.737 0 0 1-4.861-8.43v-21.207a9.736 9.736 0 0 1 4.861-8.43l18.345-10.604Zm67.148 0a9.713 9.713 0 0 1 9.723 0l18.345 10.604a9.737 9.737 0 0 1 4.862 8.43v21.207a9.738 9.738 0 0 1-4.862 8.43l-18.345 10.603a9.713 9.713 0 0 1-9.723 0l-18.345-10.603a9.737 9.737 0 0 1-4.862-8.43v-21.207a9.736 9.736 0 0 1 4.862-8.43l18.345-10.604Zm67.211 0a9.713 9.713 0 0 1 9.723 0l18.345 10.604a9.735 9.735 0 0 1 4.862 8.43v21.207a9.736 9.736 0 0 1-4.862 8.43l-18.345 10.603a9.713 9.713 0 0 1-9.723 0l-18.345-10.603a9.738 9.738 0 0 1-4.862-8.43v-21.207a9.737 9.737 0 0 1 4.862-8.43l18.345-10.604Zm-302.259 61.61a9.717 9.717 0 0 1 9.723 0l18.345 10.604a9.736 9.736 0 0 1 4.861 8.43v21.207a9.737 9.737 0 0 1-4.861 8.43l-18.345 10.603a9.713 9.713 0 0 1-9.723 0l-18.345-10.603a9.736 9.736 0 0 1-4.862-8.43v-21.207a9.735 9.735 0 0 1 4.862-8.43l18.345-10.604Zm67.147 0a9.717 9.717 0 0 1 9.723 0l18.345 10.604a9.736 9.736 0 0 1 4.862 8.43v21.207a9.737 9.737 0 0 1-4.862 8.43l-18.345 10.603a9.713 9.713 0 0 1-9.723 0l-18.345-10.603a9.737 9.737 0 0 1-4.861-8.43v-21.207a9.736 9.736 0 0 1 4.861-8.43l18.345-10.604Zm67.211 0a9.718 9.718 0 0 1 9.723 0l18.346 10.604a9.736 9.736 0 0 1 4.861 8.43v21.207a9.737 9.737 0 0 1-4.862 8.43l-18.345 10.603a9.713 9.713 0 0 1-9.723 0l-18.345-10.603a9.737 9.737 0 0 1-4.861-8.43v-21.207a9.736 9.736 0 0 1 4.861-8.43l18.345-10.604Zm67.211 0a9.717 9.717 0 0 1 9.723 0l18.346 10.604a9.736 9.736 0 0 1 4.861 8.43v21.207a9.737 9.737 0 0 1-4.861 8.43l-18.346 10.603a9.713 9.713 0 0 1-9.723 0L25.98 209.805a9.737 9.737 0 0 1-4.861-8.43v-21.207a9.736 9.736 0 0 1 4.861-8.43l18.345-10.604Zm67.148 0a9.717 9.717 0 0 1 9.723 0l18.345 10.604a9.737 9.737 0 0 1 4.862 8.43v21.207a9.738 9.738 0 0 1-4.862 8.43l-18.345 10.603a9.713 9.713 0 0 1-9.723 0l-18.345-10.603a9.737 9.737 0 0 1-4.862-8.43v-21.207a9.736 9.736 0 0 1 4.862-8.43l18.345-10.604Zm67.211 0a9.717 9.717 0 0 1 9.723 0l18.345 10.604a9.737 9.737 0 0 1 4.862 8.43v21.207a9.738 9.738 0 0 1-4.862 8.43l-18.345 10.603a9.713 9.713 0 0 1-9.723 0l-18.345-10.603a9.738 9.738 0 0 1-4.862-8.43v-21.207a9.737 9.737 0 0 1 4.862-8.43l18.345-10.604Zm-839.935-184.83a9.714 9.714 0 0 1 9.723 0l18.345 10.604a9.737 9.737 0 0 1 4.862 8.43v21.206a9.737 9.737 0 0 1-4.862 8.43l-18.345 10.604a9.714 9.714 0 0 1-9.723 0l-18.345-10.604a9.735 9.735 0 0 1-4.862-8.43V-4.663a9.735 9.735 0 0 1 4.862-8.43l18.345-10.603Zm67.338 0a9.714 9.714 0 0 1 9.723 0l18.345 10.604a9.736 9.736 0 0 1 4.861 8.43v21.206a9.736 9.736 0 0 1-4.861 8.43l-18.345 10.604a9.714 9.714 0 0 1-9.723 0l-18.345-10.604a9.735 9.735 0 0 1-4.862-8.43V-4.663a9.735 9.735 0 0 1 4.862-8.43l18.345-10.603Zm67.147 0a9.714 9.714 0 0 1 9.723 0l18.346 10.604a9.736 9.736 0 0 1 4.861 8.43v21.206a9.736 9.736 0 0 1-4.861 8.43l-18.346 10.604a9.714 9.714 0 0 1-9.723 0l-18.345-10.604a9.736 9.736 0 0 1-4.861-8.43V-4.663a9.736 9.736 0 0 1 4.861-8.43l18.345-10.603Zm67.211 0a9.714 9.714 0 0 1 9.723 0l18.346 10.604a9.736 9.736 0 0 1 4.861 8.43v21.206a9.736 9.736 0 0 1-4.861 8.43l-18.346 10.604a9.714 9.714 0 0 1-9.723 0L-477.9 24.974a9.736 9.736 0 0 1-4.861-8.43V-4.663a9.736 9.736 0 0 1 4.861-8.43l18.345-10.603Zm67.211 0a9.714 9.714 0 0 1 9.723 0l18.346 10.604a9.736 9.736 0 0 1 4.861 8.43v21.206a9.736 9.736 0 0 1-4.861 8.43l-18.346 10.604a9.714 9.714 0 0 1-9.723 0l-18.345-10.604a9.736 9.736 0 0 1-4.861-8.43V-4.663a9.736 9.736 0 0 1 4.861-8.43l18.345-10.603Zm67.148 0a9.714 9.714 0 0 1 9.723 0l18.345 10.604a9.735 9.735 0 0 1 4.862 8.43v21.206a9.735 9.735 0 0 1-4.862 8.43l-18.345 10.604a9.714 9.714 0 0 1-9.723 0l-18.345-10.604a9.735 9.735 0 0 1-4.862-8.43V-4.663a9.735 9.735 0 0 1 4.862-8.43l18.345-10.603Zm67.211 0a9.714 9.714 0 0 1 9.723 0l18.345 10.604a9.735 9.735 0 0 1 4.862 8.43v21.206a9.735 9.735 0 0 1-4.862 8.43l-18.345 10.604a9.714 9.714 0 0 1-9.723 0l-18.345-10.604a9.735 9.735 0 0 1-4.862-8.43V-4.663a9.735 9.735 0 0 1 4.862-8.43l18.345-10.603Zm-369.597 61.61a9.714 9.714 0 0 1 9.723 0l18.345 10.604a9.737 9.737 0 0 1 4.862 8.43v21.206a9.737 9.737 0 0 1-4.862 8.43l-18.345 10.604a9.713 9.713 0 0 1-9.723 0l-18.345-10.604a9.735 9.735 0 0 1-4.862-8.43V56.948a9.735 9.735 0 0 1 4.862-8.43l18.345-10.604Zm67.338 0a9.714 9.714 0 0 1 9.723 0l18.345 10.604a9.736 9.736 0 0 1 4.861 8.43v21.206a9.736 9.736 0 0 1-4.861 8.43l-18.345 10.604a9.713 9.713 0 0 1-9.723 0l-18.345-10.604a9.735 9.735 0 0 1-4.862-8.43V56.948a9.735 9.735 0 0 1 4.862-8.43l18.345-10.604Zm67.147 0a9.714 9.714 0 0 1 9.723 0l18.345 10.604a9.735 9.735 0 0 1 4.862 8.43v21.206a9.735 9.735 0 0 1-4.862 8.43l-18.345 10.604a9.713 9.713 0 0 1-9.723 0l-18.345-10.604a9.736 9.736 0 0 1-4.861-8.43V56.948a9.736 9.736 0 0 1 4.861-8.43l18.345-10.604Zm67.211 0a9.714 9.714 0 0 1 9.723 0l18.345 10.604a9.735 9.735 0 0 1 4.862 8.43v21.206a9.735 9.735 0 0 1-4.862 8.43l-18.345 10.604a9.713 9.713 0 0 1-9.723 0l-18.345-10.604a9.736 9.736 0 0 1-4.861-8.43V56.948a9.736 9.736 0 0 1 4.861-8.43l18.345-10.604Zm67.211 0a9.714 9.714 0 0 1 9.723 0l18.346 10.604a9.736 9.736 0 0 1 4.861 8.43v21.206a9.736 9.736 0 0 1-4.861 8.43l-18.346 10.604a9.713 9.713 0 0 1-9.723 0l-18.345-10.604a9.736 9.736 0 0 1-4.861-8.43V56.948a9.736 9.736 0 0 1 4.861-8.43l18.345-10.604Zm67.148 0a9.714 9.714 0 0 1 9.723 0l18.345 10.604a9.737 9.737 0 0 1 4.862 8.43v21.206a9.737 9.737 0 0 1-4.862 8.43l-18.345 10.604a9.713 9.713 0 0 1-9.723 0l-18.345-10.604a9.735 9.735 0 0 1-4.862-8.43V56.948a9.735 9.735 0 0 1 4.862-8.43l18.345-10.604Zm67.211 0a9.714 9.714 0 0 1 9.723 0l18.345 10.604a9.735 9.735 0 0 1 4.862 8.43v21.206a9.735 9.735 0 0 1-4.862 8.43l-18.345 10.604a9.713 9.713 0 0 1-9.723 0l-18.345-10.604a9.735 9.735 0 0 1-4.862-8.43V56.948a9.735 9.735 0 0 1 4.862-8.43l18.345-10.604Zm-436.935 61.61a9.713 9.713 0 0 1 9.723 0l18.345 10.604a9.737 9.737 0 0 1 4.862 8.43v21.207a9.738 9.738 0 0 1-4.862 8.43l-18.345 10.603a9.713 9.713 0 0 1-9.723 0l-18.345-10.603a9.736 9.736 0 0 1-4.862-8.43v-21.207a9.735 9.735 0 0 1 4.862-8.43l18.345-10.604Zm67.338 0a9.713 9.713 0 0 1 9.723 0l18.345 10.604a9.736 9.736 0 0 1 4.861 8.43v21.207a9.737 9.737 0 0 1-4.861 8.43l-18.345 10.603a9.713 9.713 0 0 1-9.723 0l-18.345-10.603a9.736 9.736 0 0 1-4.862-8.43v-21.207a9.735 9.735 0 0 1 4.862-8.43l18.345-10.604Zm67.147 0a9.713 9.713 0 0 1 9.723 0l18.346 10.604a9.736 9.736 0 0 1 4.861 8.43v21.207a9.737 9.737 0 0 1-4.861 8.43l-18.346 10.603a9.713 9.713 0 0 1-9.723 0l-18.345-10.603a9.737 9.737 0 0 1-4.861-8.43v-21.207a9.736 9.736 0 0 1 4.861-8.43l18.345-10.604Zm67.211 0a9.713 9.713 0 0 1 9.723 0l18.346 10.604a9.736 9.736 0 0 1 4.861 8.43v21.207a9.737 9.737 0 0 1-4.861 8.43l-18.346 10.603a9.713 9.713 0 0 1-9.723 0l-18.345-10.603a9.737 9.737 0 0 1-4.861-8.43v-21.207a9.736 9.736 0 0 1 4.861-8.43l18.345-10.604Zm67.211 0a9.713 9.713 0 0 1 9.723 0l18.346 10.604a9.736 9.736 0 0 1 4.861 8.43v21.207a9.737 9.737 0 0 1-4.861 8.43l-18.346 10.603a9.713 9.713 0 0 1-9.723 0l-18.345-10.603a9.737 9.737 0 0 1-4.861-8.43v-21.207a9.736 9.736 0 0 1 4.861-8.43l18.345-10.604Zm67.148 0a9.713 9.713 0 0 1 9.723 0l18.345 10.604a9.735 9.735 0 0 1 4.862 8.43v21.207a9.736 9.736 0 0 1-4.862 8.43l-18.345 10.603a9.713 9.713 0 0 1-9.723 0l-18.345-10.603a9.736 9.736 0 0 1-4.862-8.43v-21.207a9.735 9.735 0 0 1 4.862-8.43l18.345-10.604Zm67.211 0a9.713 9.713 0 0 1 9.723 0l18.345 10.604a9.735 9.735 0 0 1 4.862 8.43v21.207a9.736 9.736 0 0 1-4.862 8.43l-18.345 10.603a9.713 9.713 0 0 1-9.723 0l-18.345-10.603a9.736 9.736 0 0 1-4.862-8.43v-21.207a9.735 9.735 0 0 1 4.862-8.43l18.345-10.604Zm-369.597 61.61a9.717 9.717 0 0 1 9.723 0l18.345 10.604a9.737 9.737 0 0 1 4.862 8.43v21.207a9.738 9.738 0 0 1-4.862 8.43l-18.345 10.603a9.713 9.713 0 0 1-9.723 0l-18.345-10.603a9.736 9.736 0 0 1-4.862-8.43v-21.207a9.735 9.735 0 0 1 4.862-8.43l18.345-10.604Zm67.338 0a9.717 9.717 0 0 1 9.723 0l18.345 10.604a9.736 9.736 0 0 1 4.861 8.43v21.207a9.737 9.737 0 0 1-4.861 8.43l-18.345 10.603a9.713 9.713 0 0 1-9.723 0l-18.345-10.603a9.736 9.736 0 0 1-4.862-8.43v-21.207a9.735 9.735 0 0 1 4.862-8.43l18.345-10.604Zm67.147 0a9.717 9.717 0 0 1 9.723 0l18.345 10.604a9.735 9.735 0 0 1 4.862 8.43v21.207a9.736 9.736 0 0 1-4.862 8.43l-18.345 10.603a9.713 9.713 0 0 1-9.723 0l-18.345-10.603a9.737 9.737 0 0 1-4.861-8.43v-21.207a9.736 9.736 0 0 1 4.861-8.43l18.345-10.604Zm67.211 0a9.717 9.717 0 0 1 9.723 0l18.345 10.604a9.735 9.735 0 0 1 4.862 8.43v21.207a9.736 9.736 0 0 1-4.862 8.43l-18.345 10.603a9.713 9.713 0 0 1-9.723 0l-18.345-10.603a9.737 9.737 0 0 1-4.861-8.43v-21.207a9.736 9.736 0 0 1 4.861-8.43l18.345-10.604Zm67.211 0a9.717 9.717 0 0 1 9.723 0l18.346 10.604a9.736 9.736 0 0 1 4.861 8.43v21.207a9.737 9.737 0 0 1-4.861 8.43l-18.346 10.603a9.713 9.713 0 0 1-9.723 0l-18.345-10.603a9.737 9.737 0 0 1-4.861-8.43v-21.207a9.736 9.736 0 0 1 4.861-8.43l18.345-10.604Zm67.148 0a9.717 9.717 0 0 1 9.723 0l18.345 10.604a9.737 9.737 0 0 1 4.862 8.43v21.207a9.738 9.738 0 0 1-4.862 8.43l-18.345 10.603a9.713 9.713 0 0 1-9.723 0l-18.345-10.603a9.736 9.736 0 0 1-4.862-8.43v-21.207a9.735 9.735 0 0 1 4.862-8.43l18.345-10.604Zm67.211 0a9.717 9.717 0 0 1 9.723 0l18.345 10.604a9.735 9.735 0 0 1 4.862 8.43v21.207a9.736 9.736 0 0 1-4.862 8.43l-18.345 10.603a9.713 9.713 0 0 1-9.723 0l-18.345-10.603a9.736 9.736 0 0 1-4.862-8.43v-21.207a9.735 9.735 0 0 1 4.862-8.43l18.345-10.604Z"/></mask><path d="M211.749-23.696a9.714 9.714 0 0 1 9.723 0l18.345 10.604a9.736 9.736 0 0 1 4.861 8.43v21.206a9.736 9.736 0 0 1-4.861 8.43l-18.345 10.604a9.714 9.714 0 0 1-9.723 0l-18.345-10.604a9.735 9.735 0 0 1-4.862-8.43V-4.663a9.735 9.735 0 0 1 4.862-8.43l18.345-10.603Z" stroke="url(#paint1_linear_22990_158332)" stroke-width="2" mask="url(#path-2-inside-1_22990_158332)"/><path d="M279.087-23.696a9.714 9.714 0 0 1 9.723 0l18.345 10.604a9.736 9.736 0 0 1 4.861 8.43v21.206a9.736 9.736 0 0 1-4.861 8.43L288.81 35.578a9.714 9.714 0 0 1-9.723 0l-18.346-10.604a9.736 9.736 0 0 1-4.861-8.43V-4.663a9.736 9.736 0 0 1 4.861-8.43l18.346-10.603Z" stroke="url(#paint2_linear_22990_158332)" stroke-width="2" mask="url(#path-2-inside-1_22990_158332)"/><path d="M245.418 37.914a9.714 9.714 0 0 1 9.723 0l18.345 10.604a9.736 9.736 0 0 1 4.861 8.43v21.206a9.736 9.736 0 0 1-4.861 8.43l-18.345 10.604a9.713 9.713 0 0 1-9.723 0l-18.345-10.604a9.735 9.735 0 0 1-4.862-8.43V56.948a9.735 9.735 0 0 1 4.862-8.43l18.345-10.604Z" stroke="url(#paint3_linear_22990_158332)" stroke-width="2" mask="url(#path-2-inside-1_22990_158332)"/><path d="M211.749 99.524a9.713 9.713 0 0 1 9.723 0l18.345 10.604a9.736 9.736 0 0 1 4.861 8.43v21.207a9.737 9.737 0 0 1-4.861 8.43l-18.345 10.603a9.713 9.713 0 0 1-9.723 0l-18.345-10.603a9.736 9.736 0 0 1-4.862-8.43v-21.207a9.735 9.735 0 0 1 4.862-8.43l18.345-10.604Z" stroke="url(#paint4_linear_22990_158332)" stroke-width="2" mask="url(#path-2-inside-1_22990_158332)"/><path d="M279.087 99.524a9.713 9.713 0 0 1 9.723 0l18.345 10.604a9.736 9.736 0 0 1 4.861 8.43v21.207a9.737 9.737 0 0 1-4.861 8.43l-18.345 10.603a9.713 9.713 0 0 1-9.723 0l-18.346-10.603a9.737 9.737 0 0 1-4.861-8.43v-21.207a9.736 9.736 0 0 1 4.861-8.43l18.346-10.604Z" stroke="url(#paint5_linear_22990_158332)" stroke-width="2" mask="url(#path-2-inside-1_22990_158332)"/><path d="M245.418 161.134a9.717 9.717 0 0 1 9.723 0l18.345 10.604a9.736 9.736 0 0 1 4.861 8.43v21.207a9.737 9.737 0 0 1-4.861 8.43l-18.345 10.603a9.713 9.713 0 0 1-9.723 0l-18.345-10.603a9.736 9.736 0 0 1-4.862-8.43v-21.207a9.735 9.735 0 0 1 4.862-8.43l18.345-10.604Z" stroke="url(#paint6_linear_22990_158332)" stroke-width="2" mask="url(#path-2-inside-1_22990_158332)"/><path d="M-1132.25-23.696a9.708 9.708 0 0 1 9.72 0l18.35 10.604a9.731 9.731 0 0 1 4.86 8.43v21.206a9.731 9.731 0 0 1-4.86 8.43l-18.35 10.604a9.708 9.708 0 0 1-9.72 0l-18.35-10.604a9.752 9.752 0 0 1-4.86-8.43V-4.663a9.752 9.752 0 0 1 4.86-8.43l18.35-10.603Z" stroke="url(#paint7_linear_22990_158332)" stroke-width="2" mask="url(#path-2-inside-1_22990_158332)"/><path d="M-1064.91-23.696a9.708 9.708 0 0 1 9.72 0l18.34 10.604a9.74 9.74 0 0 1 4.87 8.43v21.206a9.74 9.74 0 0 1-4.87 8.43l-18.34 10.604a9.708 9.708 0 0 1-9.72 0l-18.35-10.604a9.731 9.731 0 0 1-4.86-8.43V-4.663a9.731 9.731 0 0 1 4.86-8.43l18.35-10.603Z" stroke="url(#paint8_linear_22990_158332)" stroke-width="2" mask="url(#path-2-inside-1_22990_158332)"/><path d="M-997.766-23.696a9.714 9.714 0 0 1 9.723 0l18.346 10.604a9.736 9.736 0 0 1 4.861 8.43v21.206a9.736 9.736 0 0 1-4.861 8.43l-18.346 10.604a9.714 9.714 0 0 1-9.723 0l-18.344-10.604a9.731 9.731 0 0 1-4.86-8.43V-4.663a9.731 9.731 0 0 1 4.86-8.43l18.344-10.603Z" stroke="url(#paint9_linear_22990_158332)" stroke-width="2" mask="url(#path-2-inside-1_22990_158332)"/><path d="M-930.555-23.696a9.714 9.714 0 0 1 9.723 0l18.346 10.604a9.736 9.736 0 0 1 4.861 8.43v21.206a9.736 9.736 0 0 1-4.861 8.43l-18.346 10.604a9.714 9.714 0 0 1-9.723 0L-948.9 24.974a9.736 9.736 0 0 1-4.861-8.43V-4.663a9.736 9.736 0 0 1 4.861-8.43l18.345-10.603Z" stroke="url(#paint10_linear_22990_158332)" stroke-width="2" mask="url(#path-2-inside-1_22990_158332)"/><path d="M-863.344-23.696a9.714 9.714 0 0 1 9.723 0l18.346 10.604a9.736 9.736 0 0 1 4.861 8.43v21.206a9.736 9.736 0 0 1-4.861 8.43l-18.346 10.604a9.714 9.714 0 0 1-9.723 0l-18.345-10.604a9.736 9.736 0 0 1-4.861-8.43V-4.663a9.736 9.736 0 0 1 4.861-8.43l18.345-10.603Z" stroke="url(#paint11_linear_22990_158332)" stroke-width="2" mask="url(#path-2-inside-1_22990_158332)"/><path d="M-796.196-23.696a9.714 9.714 0 0 1 9.723 0l18.345 10.604a9.735 9.735 0 0 1 4.862 8.43v21.206a9.735 9.735 0 0 1-4.862 8.43l-18.345 10.604a9.714 9.714 0 0 1-9.723 0l-18.345-10.604a9.735 9.735 0 0 1-4.862-8.43V-4.663a9.735 9.735 0 0 1 4.862-8.43l18.345-10.603Z" stroke="url(#paint12_linear_22990_158332)" stroke-width="2" mask="url(#path-2-inside-1_22990_158332)"/><path d="M-728.985-23.696a9.714 9.714 0 0 1 9.723 0l18.345 10.604a9.735 9.735 0 0 1 4.862 8.43v21.206a9.735 9.735 0 0 1-4.862 8.43l-18.345 10.604a9.714 9.714 0 0 1-9.723 0l-18.345-10.604a9.737 9.737 0 0 1-4.862-8.43V-4.663a9.737 9.737 0 0 1 4.862-8.43l18.345-10.603Z" stroke="url(#paint13_linear_22990_158332)" stroke-width="2" mask="url(#path-2-inside-1_22990_158332)"/><path d="M-1165.79 37.914a9.708 9.708 0 0 1 9.72 0l18.34 10.604a9.74 9.74 0 0 1 4.87 8.43v21.206a9.74 9.74 0 0 1-4.87 8.43l-18.34 10.604a9.707 9.707 0 0 1-9.72 0l-18.35-10.604a9.731 9.731 0 0 1-4.86-8.43V56.948a9.731 9.731 0 0 1 4.86-8.43l18.35-10.604Z" stroke="url(#paint14_linear_22990_158332)" stroke-width="2" mask="url(#path-2-inside-1_22990_158332)"/><path d="M-1098.58 37.914a9.708 9.708 0 0 1 9.72 0l18.35 10.604a9.752 9.752 0 0 1 4.86 8.43v21.206a9.752 9.752 0 0 1-4.86 8.43l-18.35 10.604a9.707 9.707 0 0 1-9.72 0l-18.35-10.604a9.731 9.731 0 0 1-4.86-8.43V56.948a9.731 9.731 0 0 1 4.86-8.43l18.35-10.604Z" stroke="url(#paint15_linear_22990_158332)" stroke-width="2" mask="url(#path-2-inside-1_22990_158332)"/><path d="M-1031.24 37.914a9.708 9.708 0 0 1 9.72 0l18.34 10.604a9.736 9.736 0 0 1 4.865 8.43v21.206a9.736 9.736 0 0 1-4.865 8.43l-18.34 10.604a9.707 9.707 0 0 1-9.72 0l-18.35-10.604a9.731 9.731 0 0 1-4.86-8.43V56.948a9.731 9.731 0 0 1 4.86-8.43l18.35-10.604Z" stroke="url(#paint16_linear_22990_158332)" stroke-width="2" mask="url(#path-2-inside-1_22990_158332)"/><path d="M-964.097 37.914a9.714 9.714 0 0 1 9.723 0l18.345 10.604a9.735 9.735 0 0 1 4.862 8.43v21.206a9.735 9.735 0 0 1-4.862 8.43l-18.345 10.604a9.713 9.713 0 0 1-9.723 0l-18.345-10.604a9.736 9.736 0 0 1-4.861-8.43V56.948a9.736 9.736 0 0 1 4.861-8.43l18.345-10.604Z" stroke="url(#paint17_linear_22990_158332)" stroke-width="2" mask="url(#path-2-inside-1_22990_158332)"/><path d="M-896.886 37.914a9.714 9.714 0 0 1 9.723 0l18.345 10.604a9.735 9.735 0 0 1 4.862 8.43v21.206a9.735 9.735 0 0 1-4.862 8.43l-18.345 10.604a9.713 9.713 0 0 1-9.723 0l-18.345-10.604a9.736 9.736 0 0 1-4.861-8.43V56.948a9.736 9.736 0 0 1 4.861-8.43l18.345-10.604Z" stroke="url(#paint18_linear_22990_158332)" stroke-width="2" mask="url(#path-2-inside-1_22990_158332)"/><path d="M-829.675 37.914a9.714 9.714 0 0 1 9.723 0l18.346 10.604a9.736 9.736 0 0 1 4.861 8.43v21.206a9.736 9.736 0 0 1-4.861 8.43l-18.346 10.604a9.713 9.713 0 0 1-9.723 0l-18.345-10.604a9.736 9.736 0 0 1-4.861-8.43V56.948a9.736 9.736 0 0 1 4.861-8.43l18.345-10.604Z" stroke="url(#paint19_linear_22990_158332)" stroke-width="2" mask="url(#path-2-inside-1_22990_158332)"/><path d="M-762.527 37.914a9.714 9.714 0 0 1 9.723 0l18.345 10.604a9.737 9.737 0 0 1 4.862 8.43v21.206a9.737 9.737 0 0 1-4.862 8.43l-18.345 10.604a9.713 9.713 0 0 1-9.723 0l-18.345-10.604a9.735 9.735 0 0 1-4.862-8.43V56.948a9.735 9.735 0 0 1 4.862-8.43l18.345-10.604Z" stroke="url(#paint20_linear_22990_158332)" stroke-width="2" mask="url(#path-2-inside-1_22990_158332)"/><path d="M-695.316 37.914a9.714 9.714 0 0 1 9.723 0l18.345 10.604a9.735 9.735 0 0 1 4.862 8.43v21.206a9.735 9.735 0 0 1-4.862 8.43l-18.345 10.604a9.713 9.713 0 0 1-9.723 0l-18.345-10.604a9.735 9.735 0 0 1-4.862-8.43V56.948a9.735 9.735 0 0 1 4.862-8.43l18.345-10.604Z" stroke="url(#paint21_linear_22990_158332)" stroke-width="2" mask="url(#path-2-inside-1_22990_158332)"/><path d="M-1132.25 99.524a9.707 9.707 0 0 1 9.72 0l18.35 10.604a9.731 9.731 0 0 1 4.86 8.43v21.207a9.732 9.732 0 0 1-4.86 8.43l-18.35 10.603a9.707 9.707 0 0 1-9.72 0l-18.35-10.603a9.753 9.753 0 0 1-4.86-8.43v-21.207a9.752 9.752 0 0 1 4.86-8.43l18.35-10.604Z" stroke="url(#paint22_linear_22990_158332)" stroke-width="2" mask="url(#path-2-inside-1_22990_158332)"/><path d="M-1064.91 99.524a9.707 9.707 0 0 1 9.72 0l18.34 10.604a9.74 9.74 0 0 1 4.87 8.43v21.207a9.742 9.742 0 0 1-4.87 8.43l-18.34 10.603a9.707 9.707 0 0 1-9.72 0l-18.35-10.603a9.732 9.732 0 0 1-4.86-8.43v-21.207a9.731 9.731 0 0 1 4.86-8.43l18.35-10.604Z" stroke="url(#paint23_linear_22990_158332)" stroke-width="2" mask="url(#path-2-inside-1_22990_158332)"/><path d="M-997.766 99.524a9.713 9.713 0 0 1 9.723 0l18.346 10.604a9.736 9.736 0 0 1 4.861 8.43v21.207a9.737 9.737 0 0 1-4.861 8.43l-18.346 10.603a9.713 9.713 0 0 1-9.723 0l-18.344-10.603a9.732 9.732 0 0 1-4.86-8.43v-21.207a9.731 9.731 0 0 1 4.86-8.43l18.344-10.604Z" stroke="url(#paint24_linear_22990_158332)" stroke-width="2" mask="url(#path-2-inside-1_22990_158332)"/><path d="M-930.555 99.524a9.713 9.713 0 0 1 9.723 0l18.346 10.604a9.736 9.736 0 0 1 4.861 8.43v21.207a9.737 9.737 0 0 1-4.861 8.43l-18.346 10.603a9.713 9.713 0 0 1-9.723 0l-18.345-10.603a9.737 9.737 0 0 1-4.861-8.43v-21.207a9.736 9.736 0 0 1 4.861-8.43l18.345-10.604Z" stroke="url(#paint25_linear_22990_158332)" stroke-width="2" mask="url(#path-2-inside-1_22990_158332)"/><path d="M-863.344 99.524a9.713 9.713 0 0 1 9.723 0l18.346 10.604a9.736 9.736 0 0 1 4.861 8.43v21.207a9.737 9.737 0 0 1-4.861 8.43l-18.346 10.603a9.713 9.713 0 0 1-9.723 0l-18.345-10.603a9.737 9.737 0 0 1-4.861-8.43v-21.207a9.736 9.736 0 0 1 4.861-8.43l18.345-10.604Z" stroke="url(#paint26_linear_22990_158332)" stroke-width="2" mask="url(#path-2-inside-1_22990_158332)"/><path d="M-796.196 99.524a9.713 9.713 0 0 1 9.723 0l18.345 10.604a9.735 9.735 0 0 1 4.862 8.43v21.207a9.736 9.736 0 0 1-4.862 8.43l-18.345 10.603a9.713 9.713 0 0 1-9.723 0l-18.345-10.603a9.736 9.736 0 0 1-4.862-8.43v-21.207a9.735 9.735 0 0 1 4.862-8.43l18.345-10.604Z" stroke="url(#paint27_linear_22990_158332)" stroke-width="2" mask="url(#path-2-inside-1_22990_158332)"/><path d="M-728.985 99.524a9.713 9.713 0 0 1 9.723 0l18.345 10.604a9.735 9.735 0 0 1 4.862 8.43v21.207a9.736 9.736 0 0 1-4.862 8.43l-18.345 10.603a9.713 9.713 0 0 1-9.723 0l-18.345-10.603a9.738 9.738 0 0 1-4.862-8.43v-21.207a9.737 9.737 0 0 1 4.862-8.43l18.345-10.604Z" stroke="url(#paint28_linear_22990_158332)" stroke-width="2" mask="url(#path-2-inside-1_22990_158332)"/><path d="M-1165.79 161.134a9.712 9.712 0 0 1 9.72 0l18.34 10.604a9.74 9.74 0 0 1 4.87 8.43v21.207a9.742 9.742 0 0 1-4.87 8.43l-18.34 10.603a9.707 9.707 0 0 1-9.72 0l-18.35-10.603a9.732 9.732 0 0 1-4.86-8.43v-21.207a9.731 9.731 0 0 1 4.86-8.43l18.35-10.604Z" stroke="url(#paint29_linear_22990_158332)" stroke-width="2" mask="url(#path-2-inside-1_22990_158332)"/><path d="M-1098.58 161.134a9.712 9.712 0 0 1 9.72 0l18.35 10.604a9.752 9.752 0 0 1 4.86 8.43v21.207a9.753 9.753 0 0 1-4.86 8.43l-18.35 10.603a9.707 9.707 0 0 1-9.72 0l-18.35-10.603a9.732 9.732 0 0 1-4.86-8.43v-21.207a9.731 9.731 0 0 1 4.86-8.43l18.35-10.604Z" stroke="url(#paint30_linear_22990_158332)" stroke-width="2" mask="url(#path-2-inside-1_22990_158332)"/><path d="M-1031.24 161.134a9.712 9.712 0 0 1 9.72 0l18.34 10.604a9.736 9.736 0 0 1 4.865 8.43v21.207a9.737 9.737 0 0 1-4.865 8.43l-18.34 10.603a9.707 9.707 0 0 1-9.72 0l-18.35-10.603a9.732 9.732 0 0 1-4.86-8.43v-21.207a9.731 9.731 0 0 1 4.86-8.43l18.35-10.604Z" stroke="url(#paint31_linear_22990_158332)" stroke-width="2" mask="url(#path-2-inside-1_22990_158332)"/><path d="M-964.097 161.134a9.717 9.717 0 0 1 9.723 0l18.345 10.604a9.735 9.735 0 0 1 4.862 8.43v21.207a9.736 9.736 0 0 1-4.862 8.43l-18.345 10.603a9.713 9.713 0 0 1-9.723 0l-18.345-10.603a9.737 9.737 0 0 1-4.861-8.43v-21.207a9.736 9.736 0 0 1 4.861-8.43l18.345-10.604Z" stroke="url(#paint32_linear_22990_158332)" stroke-width="2" mask="url(#path-2-inside-1_22990_158332)"/><path d="M-896.886 161.134a9.717 9.717 0 0 1 9.723 0l18.345 10.604a9.735 9.735 0 0 1 4.862 8.43v21.207a9.736 9.736 0 0 1-4.862 8.43l-18.345 10.603a9.713 9.713 0 0 1-9.723 0l-18.345-10.603a9.737 9.737 0 0 1-4.861-8.43v-21.207a9.736 9.736 0 0 1 4.861-8.43l18.345-10.604Z" stroke="url(#paint33_linear_22990_158332)" stroke-width="2" mask="url(#path-2-inside-1_22990_158332)"/><path d="M-829.675 161.134a9.717 9.717 0 0 1 9.723 0l18.346 10.604a9.736 9.736 0 0 1 4.861 8.43v21.207a9.737 9.737 0 0 1-4.861 8.43l-18.346 10.603a9.713 9.713 0 0 1-9.723 0l-18.345-10.603a9.737 9.737 0 0 1-4.861-8.43v-21.207a9.736 9.736 0 0 1 4.861-8.43l18.345-10.604Z" stroke="url(#paint34_linear_22990_158332)" stroke-width="2" mask="url(#path-2-inside-1_22990_158332)"/><path d="M-762.527 161.134a9.717 9.717 0 0 1 9.723 0l18.345 10.604a9.737 9.737 0 0 1 4.862 8.43v21.207a9.738 9.738 0 0 1-4.862 8.43l-18.345 10.603a9.713 9.713 0 0 1-9.723 0l-18.345-10.603a9.736 9.736 0 0 1-4.862-8.43v-21.207a9.735 9.735 0 0 1 4.862-8.43l18.345-10.604Z" stroke="url(#paint35_linear_22990_158332)" stroke-width="2" mask="url(#path-2-inside-1_22990_158332)"/><path d="M-695.316 161.134a9.717 9.717 0 0 1 9.723 0l18.345 10.604a9.735 9.735 0 0 1 4.862 8.43v21.207a9.736 9.736 0 0 1-4.862 8.43l-18.345 10.603a9.713 9.713 0 0 1-9.723 0l-18.345-10.603a9.736 9.736 0 0 1-4.862-8.43v-21.207a9.735 9.735 0 0 1 4.862-8.43l18.345-10.604Z" stroke="url(#paint36_linear_22990_158332)" stroke-width="2" mask="url(#path-2-inside-1_22990_158332)"/><path d="M-190.913-23.696a9.714 9.714 0 0 1 9.723 0l18.345 10.604a9.736 9.736 0 0 1 4.861 8.43v21.206a9.736 9.736 0 0 1-4.861 8.43l-18.345 10.604a9.714 9.714 0 0 1-9.723 0l-18.345-10.604a9.735 9.735 0 0 1-4.862-8.43V-4.663a9.735 9.735 0 0 1 4.862-8.43l18.345-10.603Z" stroke="url(#paint37_linear_22990_158332)" stroke-width="2" mask="url(#path-2-inside-1_22990_158332)"/><path d="M-123.766-23.696a9.714 9.714 0 0 1 9.723 0l18.346 10.604a9.736 9.736 0 0 1 4.861 8.43v21.206a9.736 9.736 0 0 1-4.862 8.43l-18.345 10.604a9.714 9.714 0 0 1-9.723 0l-18.345-10.604a9.736 9.736 0 0 1-4.861-8.43V-4.663a9.736 9.736 0 0 1 4.861-8.43l18.345-10.603Z" stroke="url(#paint38_linear_22990_158332)" stroke-width="2" mask="url(#path-2-inside-1_22990_158332)"/><path d="M-56.555-23.696a9.714 9.714 0 0 1 9.724 0l18.345 10.604a9.736 9.736 0 0 1 4.861 8.43v21.206a9.736 9.736 0 0 1-4.861 8.43l-18.345 10.604a9.714 9.714 0 0 1-9.724 0L-74.9 24.974a9.736 9.736 0 0 1-4.861-8.43V-4.663a9.736 9.736 0 0 1 4.861-8.43l18.345-10.603Z" stroke="url(#paint39_linear_22990_158332)" stroke-width="2" mask="url(#path-2-inside-1_22990_158332)"/><path d="M10.656-23.696a9.714 9.714 0 0 1 9.723 0l18.346 10.604a9.736 9.736 0 0 1 4.861 8.43v21.206a9.736 9.736 0 0 1-4.861 8.43L20.379 35.578a9.714 9.714 0 0 1-9.723 0L-7.689 24.974a9.736 9.736 0 0 1-4.861-8.43V-4.663a9.736 9.736 0 0 1 4.861-8.43l18.345-10.603Z" stroke="url(#paint40_linear_22990_158332)" stroke-width="2" mask="url(#path-2-inside-1_22990_158332)"/><path d="M77.804-23.696a9.714 9.714 0 0 1 9.723 0l18.345 10.604a9.737 9.737 0 0 1 4.862 8.43v21.206a9.737 9.737 0 0 1-4.862 8.43L87.527 35.578a9.714 9.714 0 0 1-9.723 0L59.459 24.974a9.736 9.736 0 0 1-4.862-8.43V-4.663a9.736 9.736 0 0 1 4.862-8.43l18.345-10.603Z" stroke="url(#paint41_linear_22990_158332)" stroke-width="2" mask="url(#path-2-inside-1_22990_158332)"/><path d="M145.015-23.696a9.714 9.714 0 0 1 9.723 0l18.345 10.604a9.735 9.735 0 0 1 4.862 8.43v21.206a9.735 9.735 0 0 1-4.862 8.43l-18.345 10.604a9.714 9.714 0 0 1-9.723 0L126.67 24.974a9.737 9.737 0 0 1-4.862-8.43V-4.663a9.737 9.737 0 0 1 4.862-8.43l18.345-10.603Z" stroke="url(#paint42_linear_22990_158332)" stroke-width="2" mask="url(#path-2-inside-1_22990_158332)"/><path d="M-157.244 37.914a9.714 9.714 0 0 1 9.723 0l18.345 10.604a9.736 9.736 0 0 1 4.861 8.43v21.206a9.736 9.736 0 0 1-4.861 8.43l-18.345 10.604a9.713 9.713 0 0 1-9.723 0l-18.345-10.604a9.735 9.735 0 0 1-4.862-8.43V56.948a9.735 9.735 0 0 1 4.862-8.43l18.345-10.604Z" stroke="url(#paint43_linear_22990_158332)" stroke-width="2" mask="url(#path-2-inside-1_22990_158332)"/><path d="M-90.097 37.914a9.714 9.714 0 0 1 9.723 0l18.345 10.604a9.736 9.736 0 0 1 4.862 8.43v21.206a9.736 9.736 0 0 1-4.862 8.43l-18.345 10.604a9.713 9.713 0 0 1-9.723 0l-18.345-10.604a9.736 9.736 0 0 1-4.861-8.43V56.948a9.736 9.736 0 0 1 4.861-8.43l18.345-10.604Z" stroke="url(#paint44_linear_22990_158332)" stroke-width="2" mask="url(#path-2-inside-1_22990_158332)"/><path d="M-22.886 37.914a9.714 9.714 0 0 1 9.723 0L5.183 48.518a9.736 9.736 0 0 1 4.861 8.43v21.206a9.736 9.736 0 0 1-4.862 8.43l-18.345 10.604a9.713 9.713 0 0 1-9.723 0L-41.23 86.584a9.736 9.736 0 0 1-4.861-8.43V56.948a9.736 9.736 0 0 1 4.861-8.43l18.345-10.604Z" stroke="url(#paint45_linear_22990_158332)" stroke-width="2" mask="url(#path-2-inside-1_22990_158332)"/><path d="M44.325 37.914a9.714 9.714 0 0 1 9.723 0l18.346 10.604a9.736 9.736 0 0 1 4.861 8.43v21.206a9.736 9.736 0 0 1-4.861 8.43L54.048 97.188a9.713 9.713 0 0 1-9.723 0L25.98 86.584a9.736 9.736 0 0 1-4.861-8.43V56.948a9.736 9.736 0 0 1 4.861-8.43l18.345-10.604Z" stroke="url(#paint46_linear_22990_158332)" stroke-width="2" mask="url(#path-2-inside-1_22990_158332)"/><path d="M111.473 37.914a9.714 9.714 0 0 1 9.723 0l18.345 10.604a9.737 9.737 0 0 1 4.862 8.43v21.206a9.737 9.737 0 0 1-4.862 8.43l-18.345 10.604a9.713 9.713 0 0 1-9.723 0L93.128 86.584a9.736 9.736 0 0 1-4.862-8.43V56.948a9.736 9.736 0 0 1 4.862-8.43l18.345-10.604Z" stroke="url(#paint47_linear_22990_158332)" stroke-width="2" mask="url(#path-2-inside-1_22990_158332)"/><path d="M178.684 37.914a9.714 9.714 0 0 1 9.723 0l18.345 10.604a9.737 9.737 0 0 1 4.862 8.43v21.206a9.737 9.737 0 0 1-4.862 8.43l-18.345 10.604a9.713 9.713 0 0 1-9.723 0l-18.345-10.604a9.737 9.737 0 0 1-4.862-8.43V56.948a9.737 9.737 0 0 1 4.862-8.43l18.345-10.604Z" stroke="url(#paint48_linear_22990_158332)" stroke-width="2" mask="url(#path-2-inside-1_22990_158332)"/><path d="M-190.913 99.524a9.713 9.713 0 0 1 9.723 0l18.345 10.604a9.736 9.736 0 0 1 4.861 8.43v21.207a9.737 9.737 0 0 1-4.861 8.43l-18.345 10.603a9.713 9.713 0 0 1-9.723 0l-18.345-10.603a9.736 9.736 0 0 1-4.862-8.43v-21.207a9.735 9.735 0 0 1 4.862-8.43l18.345-10.604Z" stroke="url(#paint49_linear_22990_158332)" stroke-width="2" mask="url(#path-2-inside-1_22990_158332)"/><path d="M-123.766 99.524a9.713 9.713 0 0 1 9.723 0l18.346 10.604a9.736 9.736 0 0 1 4.861 8.43v21.207a9.737 9.737 0 0 1-4.862 8.43l-18.345 10.603a9.713 9.713 0 0 1-9.723 0l-18.345-10.603a9.737 9.737 0 0 1-4.861-8.43v-21.207a9.736 9.736 0 0 1 4.861-8.43l18.345-10.604Z" stroke="url(#paint50_linear_22990_158332)" stroke-width="2" mask="url(#path-2-inside-1_22990_158332)"/><path d="M-56.555 99.524a9.713 9.713 0 0 1 9.724 0l18.345 10.604a9.736 9.736 0 0 1 4.861 8.43v21.207a9.737 9.737 0 0 1-4.861 8.43l-18.345 10.603a9.713 9.713 0 0 1-9.724 0L-74.9 148.195a9.737 9.737 0 0 1-4.861-8.43v-21.207a9.736 9.736 0 0 1 4.861-8.43l18.345-10.604Z" stroke="url(#paint51_linear_22990_158332)" stroke-width="2" mask="url(#path-2-inside-1_22990_158332)"/><path d="M10.656 99.524a9.713 9.713 0 0 1 9.723 0l18.346 10.604a9.736 9.736 0 0 1 4.861 8.43v21.207a9.737 9.737 0 0 1-4.861 8.43l-18.346 10.603a9.713 9.713 0 0 1-9.723 0l-18.345-10.603a9.737 9.737 0 0 1-4.861-8.43v-21.207a9.736 9.736 0 0 1 4.861-8.43l18.345-10.604Z" stroke="url(#paint52_linear_22990_158332)" stroke-width="2" mask="url(#path-2-inside-1_22990_158332)"/><path d="M77.804 99.524a9.713 9.713 0 0 1 9.723 0l18.345 10.604a9.737 9.737 0 0 1 4.862 8.43v21.207a9.738 9.738 0 0 1-4.862 8.43l-18.345 10.603a9.713 9.713 0 0 1-9.723 0l-18.345-10.603a9.737 9.737 0 0 1-4.862-8.43v-21.207a9.736 9.736 0 0 1 4.862-8.43l18.345-10.604Z" stroke="url(#paint53_linear_22990_158332)" stroke-width="2" mask="url(#path-2-inside-1_22990_158332)"/><path d="M145.015 99.524a9.713 9.713 0 0 1 9.723 0l18.345 10.604a9.735 9.735 0 0 1 4.862 8.43v21.207a9.736 9.736 0 0 1-4.862 8.43l-18.345 10.603a9.713 9.713 0 0 1-9.723 0l-18.345-10.603a9.738 9.738 0 0 1-4.862-8.43v-21.207a9.737 9.737 0 0 1 4.862-8.43l18.345-10.604Z" stroke="url(#paint54_linear_22990_158332)" stroke-width="2" mask="url(#path-2-inside-1_22990_158332)"/><path d="M-157.244 161.134a9.717 9.717 0 0 1 9.723 0l18.345 10.604a9.736 9.736 0 0 1 4.861 8.43v21.207a9.737 9.737 0 0 1-4.861 8.43l-18.345 10.603a9.713 9.713 0 0 1-9.723 0l-18.345-10.603a9.736 9.736 0 0 1-4.862-8.43v-21.207a9.735 9.735 0 0 1 4.862-8.43l18.345-10.604Z" stroke="url(#paint55_linear_22990_158332)" stroke-width="2" mask="url(#path-2-inside-1_22990_158332)"/><path d="M-90.097 161.134a9.717 9.717 0 0 1 9.723 0l18.345 10.604a9.736 9.736 0 0 1 4.862 8.43v21.207a9.737 9.737 0 0 1-4.862 8.43l-18.345 10.603a9.713 9.713 0 0 1-9.723 0l-18.345-10.603a9.737 9.737 0 0 1-4.861-8.43v-21.207a9.736 9.736 0 0 1 4.861-8.43l18.345-10.604Z" stroke="url(#paint56_linear_22990_158332)" stroke-width="2" mask="url(#path-2-inside-1_22990_158332)"/><path d="M-22.886 161.134a9.718 9.718 0 0 1 9.723 0l18.346 10.604a9.736 9.736 0 0 1 4.861 8.43v21.207a9.737 9.737 0 0 1-4.862 8.43l-18.345 10.603a9.713 9.713 0 0 1-9.723 0l-18.345-10.603a9.737 9.737 0 0 1-4.861-8.43v-21.207a9.736 9.736 0 0 1 4.861-8.43l18.345-10.604Z" stroke="url(#paint57_linear_22990_158332)" stroke-width="2" mask="url(#path-2-inside-1_22990_158332)"/><path d="M44.325 161.134a9.717 9.717 0 0 1 9.723 0l18.346 10.604a9.736 9.736 0 0 1 4.861 8.43v21.207a9.737 9.737 0 0 1-4.861 8.43l-18.346 10.603a9.713 9.713 0 0 1-9.723 0L25.98 209.805a9.737 9.737 0 0 1-4.861-8.43v-21.207a9.736 9.736 0 0 1 4.861-8.43l18.345-10.604Z" stroke="url(#paint58_linear_22990_158332)" stroke-width="2" mask="url(#path-2-inside-1_22990_158332)"/><path d="M111.473 161.134a9.717 9.717 0 0 1 9.723 0l18.345 10.604a9.737 9.737 0 0 1 4.862 8.43v21.207a9.738 9.738 0 0 1-4.862 8.43l-18.345 10.603a9.713 9.713 0 0 1-9.723 0l-18.345-10.603a9.737 9.737 0 0 1-4.862-8.43v-21.207a9.736 9.736 0 0 1 4.862-8.43l18.345-10.604Z" stroke="url(#paint59_linear_22990_158332)" stroke-width="2" mask="url(#path-2-inside-1_22990_158332)"/><path d="M178.684 161.134a9.717 9.717 0 0 1 9.723 0l18.345 10.604a9.737 9.737 0 0 1 4.862 8.43v21.207a9.738 9.738 0 0 1-4.862 8.43l-18.345 10.603a9.713 9.713 0 0 1-9.723 0l-18.345-10.603a9.738 9.738 0 0 1-4.862-8.43v-21.207a9.737 9.737 0 0 1 4.862-8.43l18.345-10.604Z" stroke="url(#paint60_linear_22990_158332)" stroke-width="2" mask="url(#path-2-inside-1_22990_158332)"/><path d="M-661.251-23.696a9.714 9.714 0 0 1 9.723 0l18.345 10.604a9.737 9.737 0 0 1 4.862 8.43v21.206a9.737 9.737 0 0 1-4.862 8.43l-18.345 10.604a9.714 9.714 0 0 1-9.723 0l-18.345-10.604a9.735 9.735 0 0 1-4.862-8.43V-4.663a9.735 9.735 0 0 1 4.862-8.43l18.345-10.603Z" stroke="url(#paint61_linear_22990_158332)" stroke-width="2" mask="url(#path-2-inside-1_22990_158332)"/><path d="M-593.913-23.696a9.714 9.714 0 0 1 9.723 0l18.345 10.604a9.736 9.736 0 0 1 4.861 8.43v21.206a9.736 9.736 0 0 1-4.861 8.43l-18.345 10.604a9.714 9.714 0 0 1-9.723 0l-18.345-10.604a9.735 9.735 0 0 1-4.862-8.43V-4.663a9.735 9.735 0 0 1 4.862-8.43l18.345-10.603Z" stroke="url(#paint62_linear_22990_158332)" stroke-width="2" mask="url(#path-2-inside-1_22990_158332)"/><path d="M-526.766-23.696a9.714 9.714 0 0 1 9.723 0l18.346 10.604a9.736 9.736 0 0 1 4.861 8.43v21.206a9.736 9.736 0 0 1-4.861 8.43l-18.346 10.604a9.714 9.714 0 0 1-9.723 0l-18.345-10.604a9.736 9.736 0 0 1-4.861-8.43V-4.663a9.736 9.736 0 0 1 4.861-8.43l18.345-10.603Z" stroke="url(#paint63_linear_22990_158332)" stroke-width="2" mask="url(#path-2-inside-1_22990_158332)"/><path d="M-459.555-23.696a9.714 9.714 0 0 1 9.723 0l18.346 10.604a9.736 9.736 0 0 1 4.861 8.43v21.206a9.736 9.736 0 0 1-4.861 8.43l-18.346 10.604a9.714 9.714 0 0 1-9.723 0L-477.9 24.974a9.736 9.736 0 0 1-4.861-8.43V-4.663a9.736 9.736 0 0 1 4.861-8.43l18.345-10.603Z" stroke="url(#paint64_linear_22990_158332)" stroke-width="2" mask="url(#path-2-inside-1_22990_158332)"/><path d="M-392.344-23.696a9.714 9.714 0 0 1 9.723 0l18.346 10.604a9.736 9.736 0 0 1 4.861 8.43v21.206a9.736 9.736 0 0 1-4.861 8.43l-18.346 10.604a9.714 9.714 0 0 1-9.723 0l-18.345-10.604a9.736 9.736 0 0 1-4.861-8.43V-4.663a9.736 9.736 0 0 1 4.861-8.43l18.345-10.603Z" stroke="url(#paint65_linear_22990_158332)" stroke-width="2" mask="url(#path-2-inside-1_22990_158332)"/><path d="M-325.196-23.696a9.714 9.714 0 0 1 9.723 0l18.345 10.604a9.735 9.735 0 0 1 4.862 8.43v21.206a9.735 9.735 0 0 1-4.862 8.43l-18.345 10.604a9.714 9.714 0 0 1-9.723 0l-18.345-10.604a9.735 9.735 0 0 1-4.862-8.43V-4.663a9.735 9.735 0 0 1 4.862-8.43l18.345-10.603Z" stroke="url(#paint66_linear_22990_158332)" stroke-width="2" mask="url(#path-2-inside-1_22990_158332)"/><path d="M-257.985-23.696a9.714 9.714 0 0 1 9.723 0l18.345 10.604a9.735 9.735 0 0 1 4.862 8.43v21.206a9.735 9.735 0 0 1-4.862 8.43l-18.345 10.604a9.714 9.714 0 0 1-9.723 0l-18.345-10.604a9.735 9.735 0 0 1-4.862-8.43V-4.663a9.735 9.735 0 0 1 4.862-8.43l18.345-10.603Z" stroke="url(#paint67_linear_22990_158332)" stroke-width="2" mask="url(#path-2-inside-1_22990_158332)"/><path d="M-627.582 37.914a9.714 9.714 0 0 1 9.723 0l18.345 10.604a9.737 9.737 0 0 1 4.862 8.43v21.206a9.737 9.737 0 0 1-4.862 8.43l-18.345 10.604a9.713 9.713 0 0 1-9.723 0l-18.345-10.604a9.735 9.735 0 0 1-4.862-8.43V56.948a9.735 9.735 0 0 1 4.862-8.43l18.345-10.604Z" stroke="url(#paint68_linear_22990_158332)" stroke-width="2" mask="url(#path-2-inside-1_22990_158332)"/><path d="M-560.244 37.914a9.714 9.714 0 0 1 9.723 0l18.345 10.604a9.736 9.736 0 0 1 4.861 8.43v21.206a9.736 9.736 0 0 1-4.861 8.43l-18.345 10.604a9.713 9.713 0 0 1-9.723 0l-18.345-10.604a9.735 9.735 0 0 1-4.862-8.43V56.948a9.735 9.735 0 0 1 4.862-8.43l18.345-10.604Z" stroke="url(#paint69_linear_22990_158332)" stroke-width="2" mask="url(#path-2-inside-1_22990_158332)"/><path d="M-493.097 37.914a9.714 9.714 0 0 1 9.723 0l18.345 10.604a9.735 9.735 0 0 1 4.862 8.43v21.206a9.735 9.735 0 0 1-4.862 8.43l-18.345 10.604a9.713 9.713 0 0 1-9.723 0l-18.345-10.604a9.736 9.736 0 0 1-4.861-8.43V56.948a9.736 9.736 0 0 1 4.861-8.43l18.345-10.604Z" stroke="url(#paint70_linear_22990_158332)" stroke-width="2" mask="url(#path-2-inside-1_22990_158332)"/><path d="M-425.886 37.914a9.714 9.714 0 0 1 9.723 0l18.345 10.604a9.735 9.735 0 0 1 4.862 8.43v21.206a9.735 9.735 0 0 1-4.862 8.43l-18.345 10.604a9.713 9.713 0 0 1-9.723 0l-18.345-10.604a9.736 9.736 0 0 1-4.861-8.43V56.948a9.736 9.736 0 0 1 4.861-8.43l18.345-10.604Z" stroke="url(#paint71_linear_22990_158332)" stroke-width="2" mask="url(#path-2-inside-1_22990_158332)"/><path d="M-358.675 37.914a9.714 9.714 0 0 1 9.723 0l18.346 10.604a9.736 9.736 0 0 1 4.861 8.43v21.206a9.736 9.736 0 0 1-4.861 8.43l-18.346 10.604a9.713 9.713 0 0 1-9.723 0l-18.345-10.604a9.736 9.736 0 0 1-4.861-8.43V56.948a9.736 9.736 0 0 1 4.861-8.43l18.345-10.604Z" stroke="url(#paint72_linear_22990_158332)" stroke-width="2" mask="url(#path-2-inside-1_22990_158332)"/><path d="M-291.527 37.914a9.714 9.714 0 0 1 9.723 0l18.345 10.604a9.737 9.737 0 0 1 4.862 8.43v21.206a9.737 9.737 0 0 1-4.862 8.43l-18.345 10.604a9.713 9.713 0 0 1-9.723 0l-18.345-10.604a9.735 9.735 0 0 1-4.862-8.43V56.948a9.735 9.735 0 0 1 4.862-8.43l18.345-10.604Z" stroke="url(#paint73_linear_22990_158332)" stroke-width="2" mask="url(#path-2-inside-1_22990_158332)"/><path d="M-224.316 37.914a9.714 9.714 0 0 1 9.723 0l18.345 10.604a9.735 9.735 0 0 1 4.862 8.43v21.206a9.735 9.735 0 0 1-4.862 8.43l-18.345 10.604a9.713 9.713 0 0 1-9.723 0l-18.345-10.604a9.735 9.735 0 0 1-4.862-8.43V56.948a9.735 9.735 0 0 1 4.862-8.43l18.345-10.604Z" stroke="url(#paint74_linear_22990_158332)" stroke-width="2" mask="url(#path-2-inside-1_22990_158332)"/><path d="M-661.251 99.524a9.713 9.713 0 0 1 9.723 0l18.345 10.604a9.737 9.737 0 0 1 4.862 8.43v21.207a9.738 9.738 0 0 1-4.862 8.43l-18.345 10.603a9.713 9.713 0 0 1-9.723 0l-18.345-10.603a9.736 9.736 0 0 1-4.862-8.43v-21.207a9.735 9.735 0 0 1 4.862-8.43l18.345-10.604Z" stroke="url(#paint75_linear_22990_158332)" stroke-width="2" mask="url(#path-2-inside-1_22990_158332)"/><path d="M-593.913 99.524a9.713 9.713 0 0 1 9.723 0l18.345 10.604a9.736 9.736 0 0 1 4.861 8.43v21.207a9.737 9.737 0 0 1-4.861 8.43l-18.345 10.603a9.713 9.713 0 0 1-9.723 0l-18.345-10.603a9.736 9.736 0 0 1-4.862-8.43v-21.207a9.735 9.735 0 0 1 4.862-8.43l18.345-10.604Z" stroke="url(#paint76_linear_22990_158332)" stroke-width="2" mask="url(#path-2-inside-1_22990_158332)"/><path d="M-526.766 99.524a9.713 9.713 0 0 1 9.723 0l18.346 10.604a9.736 9.736 0 0 1 4.861 8.43v21.207a9.737 9.737 0 0 1-4.861 8.43l-18.346 10.603a9.713 9.713 0 0 1-9.723 0l-18.345-10.603a9.737 9.737 0 0 1-4.861-8.43v-21.207a9.736 9.736 0 0 1 4.861-8.43l18.345-10.604Z" stroke="url(#paint77_linear_22990_158332)" stroke-width="2" mask="url(#path-2-inside-1_22990_158332)"/><path d="M-459.555 99.524a9.713 9.713 0 0 1 9.723 0l18.346 10.604a9.736 9.736 0 0 1 4.861 8.43v21.207a9.737 9.737 0 0 1-4.861 8.43l-18.346 10.603a9.713 9.713 0 0 1-9.723 0l-18.345-10.603a9.737 9.737 0 0 1-4.861-8.43v-21.207a9.736 9.736 0 0 1 4.861-8.43l18.345-10.604Z" stroke="url(#paint78_linear_22990_158332)" stroke-width="2" mask="url(#path-2-inside-1_22990_158332)"/><path d="M-392.344 99.524a9.713 9.713 0 0 1 9.723 0l18.346 10.604a9.736 9.736 0 0 1 4.861 8.43v21.207a9.737 9.737 0 0 1-4.861 8.43l-18.346 10.603a9.713 9.713 0 0 1-9.723 0l-18.345-10.603a9.737 9.737 0 0 1-4.861-8.43v-21.207a9.736 9.736 0 0 1 4.861-8.43l18.345-10.604Z" stroke="url(#paint79_linear_22990_158332)" stroke-width="2" mask="url(#path-2-inside-1_22990_158332)"/><path d="M-325.196 99.524a9.713 9.713 0 0 1 9.723 0l18.345 10.604a9.735 9.735 0 0 1 4.862 8.43v21.207a9.736 9.736 0 0 1-4.862 8.43l-18.345 10.603a9.713 9.713 0 0 1-9.723 0l-18.345-10.603a9.736 9.736 0 0 1-4.862-8.43v-21.207a9.735 9.735 0 0 1 4.862-8.43l18.345-10.604Z" stroke="url(#paint80_linear_22990_158332)" stroke-width="2" mask="url(#path-2-inside-1_22990_158332)"/><path d="M-257.985 99.524a9.713 9.713 0 0 1 9.723 0l18.345 10.604a9.735 9.735 0 0 1 4.862 8.43v21.207a9.736 9.736 0 0 1-4.862 8.43l-18.345 10.603a9.713 9.713 0 0 1-9.723 0l-18.345-10.603a9.736 9.736 0 0 1-4.862-8.43v-21.207a9.735 9.735 0 0 1 4.862-8.43l18.345-10.604Z" stroke="url(#paint81_linear_22990_158332)" stroke-width="2" mask="url(#path-2-inside-1_22990_158332)"/><path d="M-627.582 161.134a9.717 9.717 0 0 1 9.723 0l18.345 10.604a9.737 9.737 0 0 1 4.862 8.43v21.207a9.738 9.738 0 0 1-4.862 8.43l-18.345 10.603a9.713 9.713 0 0 1-9.723 0l-18.345-10.603a9.736 9.736 0 0 1-4.862-8.43v-21.207a9.735 9.735 0 0 1 4.862-8.43l18.345-10.604Z" stroke="url(#paint82_linear_22990_158332)" stroke-width="2" mask="url(#path-2-inside-1_22990_158332)"/><path d="M-560.244 161.134a9.717 9.717 0 0 1 9.723 0l18.345 10.604a9.736 9.736 0 0 1 4.861 8.43v21.207a9.737 9.737 0 0 1-4.861 8.43l-18.345 10.603a9.713 9.713 0 0 1-9.723 0l-18.345-10.603a9.736 9.736 0 0 1-4.862-8.43v-21.207a9.735 9.735 0 0 1 4.862-8.43l18.345-10.604Z" stroke="url(#paint83_linear_22990_158332)" stroke-width="2" mask="url(#path-2-inside-1_22990_158332)"/><path d="M-493.097 161.134a9.717 9.717 0 0 1 9.723 0l18.345 10.604a9.735 9.735 0 0 1 4.862 8.43v21.207a9.736 9.736 0 0 1-4.862 8.43l-18.345 10.603a9.713 9.713 0 0 1-9.723 0l-18.345-10.603a9.737 9.737 0 0 1-4.861-8.43v-21.207a9.736 9.736 0 0 1 4.861-8.43l18.345-10.604Z" stroke="url(#paint84_linear_22990_158332)" stroke-width="2" mask="url(#path-2-inside-1_22990_158332)"/><path d="M-425.886 161.134a9.717 9.717 0 0 1 9.723 0l18.345 10.604a9.735 9.735 0 0 1 4.862 8.43v21.207a9.736 9.736 0 0 1-4.862 8.43l-18.345 10.603a9.713 9.713 0 0 1-9.723 0l-18.345-10.603a9.737 9.737 0 0 1-4.861-8.43v-21.207a9.736 9.736 0 0 1 4.861-8.43l18.345-10.604Z" stroke="url(#paint85_linear_22990_158332)" stroke-width="2" mask="url(#path-2-inside-1_22990_158332)"/><path d="M-358.675 161.134a9.717 9.717 0 0 1 9.723 0l18.346 10.604a9.736 9.736 0 0 1 4.861 8.43v21.207a9.737 9.737 0 0 1-4.861 8.43l-18.346 10.603a9.713 9.713 0 0 1-9.723 0l-18.345-10.603a9.737 9.737 0 0 1-4.861-8.43v-21.207a9.736 9.736 0 0 1 4.861-8.43l18.345-10.604Z" stroke="url(#paint86_linear_22990_158332)" stroke-width="2" mask="url(#path-2-inside-1_22990_158332)"/><path d="M-291.527 161.134a9.717 9.717 0 0 1 9.723 0l18.345 10.604a9.737 9.737 0 0 1 4.862 8.43v21.207a9.738 9.738 0 0 1-4.862 8.43l-18.345 10.603a9.713 9.713 0 0 1-9.723 0l-18.345-10.603a9.736 9.736 0 0 1-4.862-8.43v-21.207a9.735 9.735 0 0 1 4.862-8.43l18.345-10.604Z" stroke="url(#paint87_linear_22990_158332)" stroke-width="2" mask="url(#path-2-inside-1_22990_158332)"/><path d="M-224.316 161.134a9.717 9.717 0 0 1 9.723 0l18.345 10.604a9.735 9.735 0 0 1 4.862 8.43v21.207a9.736 9.736 0 0 1-4.862 8.43l-18.345 10.603a9.713 9.713 0 0 1-9.723 0l-18.345-10.603a9.736 9.736 0 0 1-4.862-8.43v-21.207a9.735 9.735 0 0 1 4.862-8.43l18.345-10.604Z" stroke="url(#paint88_linear_22990_158332)" stroke-width="2" mask="url(#path-2-inside-1_22990_158332)"/><path d="M-1063.53 111.202a6.058 6.058 0 0 1 6.06 0l11.44 6.604a6.052 6.052 0 0 1 3.03 5.25v13.207a6.052 6.052 0 0 1-3.03 5.25l-11.44 6.604a6.058 6.058 0 0 1-6.06 0l-11.44-6.604a6.073 6.073 0 0 1-3.03-5.25v-13.207a6.073 6.073 0 0 1 3.03-5.25l11.44-6.604Z" fill="url(#paint89_linear_22990_158332)"/><path d="M-122.53 111.202a6.058 6.058 0 0 1 6.06 0l11.44 6.604a6.052 6.052 0 0 1 3.03 5.25v13.207a6.052 6.052 0 0 1-3.03 5.25l-11.44 6.604a6.058 6.058 0 0 1-6.06 0l-11.44-6.604a6.073 6.073 0 0 1-3.03-5.25v-13.207a6.073 6.073 0 0 1 3.03-5.25l11.44-6.604Z" fill="url(#paint90_linear_22990_158332)"/><path d="M-357.531 49.202a6.064 6.064 0 0 1 6.063 0l11.437 6.603a6.061 6.061 0 0 1 3.031 5.25v13.208a6.061 6.061 0 0 1-3.031 5.25l-11.437 6.603a6.064 6.064 0 0 1-6.063 0l-11.437-6.603a6.062 6.062 0 0 1-3.032-5.25V61.055a6.062 6.062 0 0 1 3.032-5.25l11.437-6.603Z" fill="url(#paint91_linear_22990_158332)"/><path d="M-592.531-12.798a6.064 6.064 0 0 1 6.063 0l11.437 6.603A6.061 6.061 0 0 1-572-.945v13.208a6.061 6.061 0 0 1-3.031 5.25l-11.437 6.603a6.064 6.064 0 0 1-6.063 0l-11.437-6.603a6.062 6.062 0 0 1-3.032-5.25V-.945a6.062 6.062 0 0 1 3.032-5.25l11.437-6.603Z" fill="url(#paint92_linear_22990_158332)"/><path d="M-962.531 49.202a6.062 6.062 0 0 1 6.062 0l11.438 6.604a6.061 6.061 0 0 1 3.031 5.25v13.207a6.061 6.061 0 0 1-3.031 5.25l-11.438 6.603a6.062 6.062 0 0 1-6.062 0l-11.438-6.603a6.061 6.061 0 0 1-3.031-5.25V61.055a6.061 6.061 0 0 1 3.031-5.25l11.438-6.603Z" fill="url(#paint93_linear_22990_158332)"/><path d="M-21.53 49.202a6.058 6.058 0 0 1 6.06 0l11.44 6.603A6.052 6.052 0 0 1-1 61.055v13.208a6.052 6.052 0 0 1-3.03 5.25l-11.44 6.603a6.058 6.058 0 0 1-6.06 0l-11.44-6.603a6.073 6.073 0 0 1-3.03-5.25V61.055a6.073 6.073 0 0 1 3.03-5.25l11.44-6.603Z" fill="url(#paint94_linear_22990_158332)"/><path d="M-1130.53-11.798a6.058 6.058 0 0 1 6.06 0l11.44 6.604a6.073 6.073 0 0 1 3.03 5.25v13.207a6.073 6.073 0 0 1-3.03 5.25l-11.44 6.603a6.058 6.058 0 0 1-6.06 0l-11.44-6.603a6.073 6.073 0 0 1-3.03-5.25V.056a6.073 6.073 0 0 1 3.03-5.25l11.44-6.604Z" fill="url(#paint95_linear_22990_158332)"/><path d="M-189.531-11.798a6.064 6.064 0 0 1 6.063 0l11.437 6.603A6.061 6.061 0 0 1-169 .055v13.208a6.061 6.061 0 0 1-3.031 5.25l-11.437 6.603a6.064 6.064 0 0 1-6.063 0l-11.437-6.603a6.062 6.062 0 0 1-3.032-5.25V.055a6.062 6.062 0 0 1 3.032-5.25l11.437-6.603Z" fill="url(#paint96_linear_22990_158332)"/><path d="M-861.531 111.202a6.061 6.061 0 0 1 6.062 0l11.438 6.604a6.061 6.061 0 0 1 3.031 5.25v13.207a6.061 6.061 0 0 1-3.031 5.25l-11.438 6.604a6.061 6.061 0 0 1-6.062 0l-11.438-6.604a6.061 6.061 0 0 1-3.031-5.25v-13.207a6.061 6.061 0 0 1 3.031-5.25l11.438-6.604Z" fill="url(#paint97_linear_22990_158332)"/><path d="M79.47 111.202a6.058 6.058 0 0 1 6.06 0l11.44 6.604a6.052 6.052 0 0 1 3.03 5.25v13.207a6.052 6.052 0 0 1-3.03 5.25l-11.44 6.604a6.058 6.058 0 0 1-6.06 0l-11.44-6.604a6.073 6.073 0 0 1-3.03-5.25v-13.207a6.073 6.073 0 0 1 3.03-5.25l11.44-6.604Z" fill="url(#paint98_linear_22990_158332)"/><path d="M-760.531 171.202a6.061 6.061 0 0 1 6.062 0l11.438 6.604a6.061 6.061 0 0 1 3.031 5.25v13.207a6.061 6.061 0 0 1-3.031 5.25l-11.438 6.604a6.061 6.061 0 0 1-6.062 0l-11.438-6.604a6.061 6.061 0 0 1-3.031-5.25v-13.207a6.061 6.061 0 0 1 3.031-5.25l11.438-6.604Z" fill="url(#paint99_linear_22990_158332)"/><path d="M180.47 171.202a6.058 6.058 0 0 1 6.06 0l11.44 6.604a6.052 6.052 0 0 1 3.03 5.25v13.207a6.052 6.052 0 0 1-3.03 5.25l-11.44 6.604a6.058 6.058 0 0 1-6.06 0l-11.44-6.604a6.073 6.073 0 0 1-3.03-5.25v-13.207a6.073 6.073 0 0 1 3.03-5.25l11.44-6.604Z" fill="url(#paint100_linear_22990_158332)"/><path d="M-861.531-11.798a6.062 6.062 0 0 1 6.062 0l11.438 6.604A6.061 6.061 0 0 1-841 .056v13.207a6.061 6.061 0 0 1-3.031 5.25l-11.438 6.603a6.062 6.062 0 0 1-6.062 0l-11.438-6.603a6.061 6.061 0 0 1-3.031-5.25V.056a6.061 6.061 0 0 1 3.031-5.25l11.438-6.604Z" fill="url(#paint101_linear_22990_158332)"/><path d="M79.47-11.798a6.058 6.058 0 0 1 6.06 0l11.44 6.603A6.052 6.052 0 0 1 100 .055v13.208a6.052 6.052 0 0 1-3.03 5.25l-11.44 6.603a6.058 6.058 0 0 1-6.06 0l-11.44-6.603a6.073 6.073 0 0 1-3.03-5.25V.055a6.073 6.073 0 0 1 3.03-5.25l11.44-6.603Z" fill="url(#paint102_linear_22990_158332)"/><path d="M-525.531 111.202a6.063 6.063 0 0 1 6.063 0l11.437 6.604a6.061 6.061 0 0 1 3.031 5.25v13.207a6.061 6.061 0 0 1-3.031 5.25l-11.437 6.604a6.063 6.063 0 0 1-6.063 0l-11.437-6.604a6.062 6.062 0 0 1-3.032-5.25v-13.207a6.062 6.062 0 0 1 3.032-5.25l11.437-6.604Z" fill="url(#paint103_linear_22990_158332)"/><path d="M-525.531 111.202a6.063 6.063 0 0 1 6.063 0l11.437 6.604a6.061 6.061 0 0 1 3.031 5.25v13.207a6.061 6.061 0 0 1-3.031 5.25l-11.437 6.604a6.063 6.063 0 0 1-6.063 0l-11.437-6.604a6.062 6.062 0 0 1-3.032-5.25v-13.207a6.062 6.062 0 0 1 3.032-5.25l11.437-6.604Z" fill="url(#paint104_linear_22990_158332)"/><path d="M-423.531 171.202a6.063 6.063 0 0 1 6.063 0l11.437 6.604a6.061 6.061 0 0 1 3.031 5.25v13.207a6.061 6.061 0 0 1-3.031 5.25l-11.437 6.604a6.063 6.063 0 0 1-6.063 0l-11.437-6.604a6.062 6.062 0 0 1-3.032-5.25v-13.207a6.062 6.062 0 0 1 3.032-5.25l11.437-6.604Z" fill="url(#paint105_linear_22990_158332)"/><defs><linearGradient id="paint0_linear_22990_158332" x1="-893.5" y1="98.9997" x2="385.5" y2="98.9997" gradientUnits="userSpaceOnUse"><stop stop-color="#2C3139"/><stop offset="1" stop-color="#353B6C"/></linearGradient><linearGradient id="paint1_linear_22990_158332" x1="-1153" y1="84.3896" x2="457" y2="98.3896" gradientUnits="userSpaceOnUse"><stop stop-color="#19202B"/><stop offset="1" stop-color="#30355C"/></linearGradient><linearGradient id="paint2_linear_22990_158332" x1="-1153" y1="84.3896" x2="457" y2="98.3896" gradientUnits="userSpaceOnUse"><stop stop-color="#19202B"/><stop offset="1" stop-color="#30355C"/></linearGradient><linearGradient id="paint3_linear_22990_158332" x1="-1153" y1="84.3896" x2="457" y2="98.3896" gradientUnits="userSpaceOnUse"><stop stop-color="#19202B"/><stop offset="1" stop-color="#30355C"/></linearGradient><linearGradient id="paint4_linear_22990_158332" x1="-1153" y1="84.3896" x2="457" y2="98.3896" gradientUnits="userSpaceOnUse"><stop stop-color="#19202B"/><stop offset="1" stop-color="#30355C"/></linearGradient><linearGradient id="paint5_linear_22990_158332" x1="-1153" y1="84.3896" x2="457" y2="98.3896" gradientUnits="userSpaceOnUse"><stop stop-color="#19202B"/><stop offset="1" stop-color="#30355C"/></linearGradient><linearGradient id="paint6_linear_22990_158332" x1="-1153" y1="84.3896" x2="457" y2="98.3896" gradientUnits="userSpaceOnUse"><stop stop-color="#19202B"/><stop offset="1" stop-color="#30355C"/></linearGradient><linearGradient id="paint7_linear_22990_158332" x1="-1153" y1="84.3896" x2="457" y2="98.3896" gradientUnits="userSpaceOnUse"><stop stop-color="#19202B"/><stop offset="1" stop-color="#30355C"/></linearGradient><linearGradient id="paint8_linear_22990_158332" x1="-1153" y1="84.3896" x2="457" y2="98.3896" gradientUnits="userSpaceOnUse"><stop stop-color="#19202B"/><stop offset="1" stop-color="#30355C"/></linearGradient><linearGradient id="paint9_linear_22990_158332" x1="-1153" y1="84.3896" x2="457" y2="98.3896" gradientUnits="userSpaceOnUse"><stop stop-color="#19202B"/><stop offset="1" stop-color="#30355C"/></linearGradient><linearGradient id="paint10_linear_22990_158332" x1="-1153" y1="84.3896" x2="457" y2="98.3896" gradientUnits="userSpaceOnUse"><stop stop-color="#19202B"/><stop offset="1" stop-color="#30355C"/></linearGradient><linearGradient id="paint11_linear_22990_158332" x1="-1153" y1="84.3896" x2="457" y2="98.3896" gradientUnits="userSpaceOnUse"><stop stop-color="#19202B"/><stop offset="1" stop-color="#30355C"/></linearGradient><linearGradient id="paint12_linear_22990_158332" x1="-1153" y1="84.3896" x2="457" y2="98.3896" gradientUnits="userSpaceOnUse"><stop stop-color="#19202B"/><stop offset="1" stop-color="#30355C"/></linearGradient><linearGradient id="paint13_linear_22990_158332" x1="-1153" y1="84.3896" x2="457" y2="98.3896" gradientUnits="userSpaceOnUse"><stop stop-color="#19202B"/><stop offset="1" stop-color="#30355C"/></linearGradient><linearGradient id="paint14_linear_22990_158332" x1="-1153" y1="84.3896" x2="457" y2="98.3896" gradientUnits="userSpaceOnUse"><stop stop-color="#19202B"/><stop offset="1" stop-color="#30355C"/></linearGradient><linearGradient id="paint15_linear_22990_158332" x1="-1153" y1="84.3896" x2="457" y2="98.3896" gradientUnits="userSpaceOnUse"><stop stop-color="#19202B"/><stop offset="1" stop-color="#30355C"/></linearGradient><linearGradient id="paint16_linear_22990_158332" x1="-1153" y1="84.3896" x2="457" y2="98.3896" gradientUnits="userSpaceOnUse"><stop stop-color="#19202B"/><stop offset="1" stop-color="#30355C"/></linearGradient><linearGradient id="paint17_linear_22990_158332" x1="-1153" y1="84.3896" x2="457" y2="98.3896" gradientUnits="userSpaceOnUse"><stop stop-color="#19202B"/><stop offset="1" stop-color="#30355C"/></linearGradient><linearGradient id="paint18_linear_22990_158332" x1="-1153" y1="84.3896" x2="457" y2="98.3896" gradientUnits="userSpaceOnUse"><stop stop-color="#19202B"/><stop offset="1" stop-color="#30355C"/></linearGradient><linearGradient id="paint19_linear_22990_158332" x1="-1153" y1="84.3896" x2="457" y2="98.3896" gradientUnits="userSpaceOnUse"><stop stop-color="#19202B"/><stop offset="1" stop-color="#30355C"/></linearGradient><linearGradient id="paint20_linear_22990_158332" x1="-1153" y1="84.3896" x2="457" y2="98.3896" gradientUnits="userSpaceOnUse"><stop stop-color="#19202B"/><stop offset="1" stop-color="#30355C"/></linearGradient><linearGradient id="paint21_linear_22990_158332" x1="-1153" y1="84.3896" x2="457" y2="98.3896" gradientUnits="userSpaceOnUse"><stop stop-color="#19202B"/><stop offset="1" stop-color="#30355C"/></linearGradient><linearGradient id="paint22_linear_22990_158332" x1="-1153" y1="84.3896" x2="457" y2="98.3896" gradientUnits="userSpaceOnUse"><stop stop-color="#19202B"/><stop offset="1" stop-color="#30355C"/></linearGradient><linearGradient id="paint23_linear_22990_158332" x1="-1153" y1="84.3896" x2="457" y2="98.3896" gradientUnits="userSpaceOnUse"><stop stop-color="#19202B"/><stop offset="1" stop-color="#30355C"/></linearGradient><linearGradient id="paint24_linear_22990_158332" x1="-1153" y1="84.3896" x2="457" y2="98.3896" gradientUnits="userSpaceOnUse"><stop stop-color="#19202B"/><stop offset="1" stop-color="#30355C"/></linearGradient><linearGradient id="paint25_linear_22990_158332" x1="-1153" y1="84.3896" x2="457" y2="98.3896" gradientUnits="userSpaceOnUse"><stop stop-color="#19202B"/><stop offset="1" stop-color="#30355C"/></linearGradient><linearGradient id="paint26_linear_22990_158332" x1="-1153" y1="84.3896" x2="457" y2="98.3896" gradientUnits="userSpaceOnUse"><stop stop-color="#19202B"/><stop offset="1" stop-color="#30355C"/></linearGradient><linearGradient id="paint27_linear_22990_158332" x1="-1153" y1="84.3896" x2="457" y2="98.3896" gradientUnits="userSpaceOnUse"><stop stop-color="#19202B"/><stop offset="1" stop-color="#30355C"/></linearGradient><linearGradient id="paint28_linear_22990_158332" x1="-1153" y1="84.3896" x2="457" y2="98.3896" gradientUnits="userSpaceOnUse"><stop stop-color="#19202B"/><stop offset="1" stop-color="#30355C"/></linearGradient><linearGradient id="paint29_linear_22990_158332" x1="-1153" y1="84.3896" x2="457" y2="98.3896" gradientUnits="userSpaceOnUse"><stop stop-color="#19202B"/><stop offset="1" stop-color="#30355C"/></linearGradient><linearGradient id="paint30_linear_22990_158332" x1="-1153" y1="84.3896" x2="457" y2="98.3896" gradientUnits="userSpaceOnUse"><stop stop-color="#19202B"/><stop offset="1" stop-color="#30355C"/></linearGradient><linearGradient id="paint31_linear_22990_158332" x1="-1153" y1="84.3896" x2="457" y2="98.3896" gradientUnits="userSpaceOnUse"><stop stop-color="#19202B"/><stop offset="1" stop-color="#30355C"/></linearGradient><linearGradient id="paint32_linear_22990_158332" x1="-1153" y1="84.3896" x2="457" y2="98.3896" gradientUnits="userSpaceOnUse"><stop stop-color="#19202B"/><stop offset="1" stop-color="#30355C"/></linearGradient><linearGradient id="paint33_linear_22990_158332" x1="-1153" y1="84.3896" x2="457" y2="98.3896" gradientUnits="userSpaceOnUse"><stop stop-color="#19202B"/><stop offset="1" stop-color="#30355C"/></linearGradient><linearGradient id="paint34_linear_22990_158332" x1="-1153" y1="84.3896" x2="457" y2="98.3896" gradientUnits="userSpaceOnUse"><stop stop-color="#19202B"/><stop offset="1" stop-color="#30355C"/></linearGradient><linearGradient id="paint35_linear_22990_158332" x1="-1153" y1="84.3896" x2="457" y2="98.3896" gradientUnits="userSpaceOnUse"><stop stop-color="#19202B"/><stop offset="1" stop-color="#30355C"/></linearGradient><linearGradient id="paint36_linear_22990_158332" x1="-1153" y1="84.3896" x2="457" y2="98.3896" gradientUnits="userSpaceOnUse"><stop stop-color="#19202B"/><stop offset="1" stop-color="#30355C"/></linearGradient><linearGradient id="paint37_linear_22990_158332" x1="-1153" y1="84.3896" x2="457" y2="98.3896" gradientUnits="userSpaceOnUse"><stop stop-color="#19202B"/><stop offset="1" stop-color="#30355C"/></linearGradient><linearGradient id="paint38_linear_22990_158332" x1="-1153" y1="84.3896" x2="457" y2="98.3896" gradientUnits="userSpaceOnUse"><stop stop-color="#19202B"/><stop offset="1" stop-color="#30355C"/></linearGradient><linearGradient id="paint39_linear_22990_158332" x1="-1153" y1="84.3896" x2="457" y2="98.3896" gradientUnits="userSpaceOnUse"><stop stop-color="#19202B"/><stop offset="1" stop-color="#30355C"/></linearGradient><linearGradient id="paint40_linear_22990_158332" x1="-1153" y1="84.3896" x2="457" y2="98.3896" gradientUnits="userSpaceOnUse"><stop stop-color="#19202B"/><stop offset="1" stop-color="#30355C"/></linearGradient><linearGradient id="paint41_linear_22990_158332" x1="-1153" y1="84.3896" x2="457" y2="98.3896" gradientUnits="userSpaceOnUse"><stop stop-color="#19202B"/><stop offset="1" stop-color="#30355C"/></linearGradient><linearGradient id="paint42_linear_22990_158332" x1="-1153" y1="84.3896" x2="457" y2="98.3896" gradientUnits="userSpaceOnUse"><stop stop-color="#19202B"/><stop offset="1" stop-color="#30355C"/></linearGradient><linearGradient id="paint43_linear_22990_158332" x1="-1153" y1="84.3896" x2="457" y2="98.3896" gradientUnits="userSpaceOnUse"><stop stop-color="#19202B"/><stop offset="1" stop-color="#30355C"/></linearGradient><linearGradient id="paint44_linear_22990_158332" x1="-1153" y1="84.3896" x2="457" y2="98.3896" gradientUnits="userSpaceOnUse"><stop stop-color="#19202B"/><stop offset="1" stop-color="#30355C"/></linearGradient><linearGradient id="paint45_linear_22990_158332" x1="-1153" y1="84.3896" x2="457" y2="98.3896" gradientUnits="userSpaceOnUse"><stop stop-color="#19202B"/><stop offset="1" stop-color="#30355C"/></linearGradient><linearGradient id="paint46_linear_22990_158332" x1="-1153" y1="84.3896" x2="457" y2="98.3896" gradientUnits="userSpaceOnUse"><stop stop-color="#19202B"/><stop offset="1" stop-color="#30355C"/></linearGradient><linearGradient id="paint47_linear_22990_158332" x1="-1153" y1="84.3896" x2="457" y2="98.3896" gradientUnits="userSpaceOnUse"><stop stop-color="#19202B"/><stop offset="1" stop-color="#30355C"/></linearGradient><linearGradient id="paint48_linear_22990_158332" x1="-1153" y1="84.3896" x2="457" y2="98.3896" gradientUnits="userSpaceOnUse"><stop stop-color="#19202B"/><stop offset="1" stop-color="#30355C"/></linearGradient><linearGradient id="paint49_linear_22990_158332" x1="-1153" y1="84.3896" x2="457" y2="98.3896" gradientUnits="userSpaceOnUse"><stop stop-color="#19202B"/><stop offset="1" stop-color="#30355C"/></linearGradient><linearGradient id="paint50_linear_22990_158332" x1="-1153" y1="84.3896" x2="457" y2="98.3896" gradientUnits="userSpaceOnUse"><stop stop-color="#19202B"/><stop offset="1" stop-color="#30355C"/></linearGradient><linearGradient id="paint51_linear_22990_158332" x1="-1153" y1="84.3896" x2="457" y2="98.3896" gradientUnits="userSpaceOnUse"><stop stop-color="#19202B"/><stop offset="1" stop-color="#30355C"/></linearGradient><linearGradient id="paint52_linear_22990_158332" x1="-1153" y1="84.3896" x2="457" y2="98.3896" gradientUnits="userSpaceOnUse"><stop stop-color="#19202B"/><stop offset="1" stop-color="#30355C"/></linearGradient><linearGradient id="paint53_linear_22990_158332" x1="-1153" y1="84.3896" x2="457" y2="98.3896" gradientUnits="userSpaceOnUse"><stop stop-color="#19202B"/><stop offset="1" stop-color="#30355C"/></linearGradient><linearGradient id="paint54_linear_22990_158332" x1="-1153" y1="84.3896" x2="457" y2="98.3896" gradientUnits="userSpaceOnUse"><stop stop-color="#19202B"/><stop offset="1" stop-color="#30355C"/></linearGradient><linearGradient id="paint55_linear_22990_158332" x1="-1153" y1="84.3896" x2="457" y2="98.3896" gradientUnits="userSpaceOnUse"><stop stop-color="#19202B"/><stop offset="1" stop-color="#30355C"/></linearGradient><linearGradient id="paint56_linear_22990_158332" x1="-1153" y1="84.3896" x2="457" y2="98.3896" gradientUnits="userSpaceOnUse"><stop stop-color="#19202B"/><stop offset="1" stop-color="#30355C"/></linearGradient><linearGradient id="paint57_linear_22990_158332" x1="-1153" y1="84.3896" x2="457" y2="98.3896" gradientUnits="userSpaceOnUse"><stop stop-color="#19202B"/><stop offset="1" stop-color="#30355C"/></linearGradient><linearGradient id="paint58_linear_22990_158332" x1="-1153" y1="84.3896" x2="457" y2="98.3896" gradientUnits="userSpaceOnUse"><stop stop-color="#19202B"/><stop offset="1" stop-color="#30355C"/></linearGradient><linearGradient id="paint59_linear_22990_158332" x1="-1153" y1="84.3896" x2="457" y2="98.3896" gradientUnits="userSpaceOnUse"><stop stop-color="#19202B"/><stop offset="1" stop-color="#30355C"/></linearGradient><linearGradient id="paint60_linear_22990_158332" x1="-1153" y1="84.3896" x2="457" y2="98.3896" gradientUnits="userSpaceOnUse"><stop stop-color="#19202B"/><stop offset="1" stop-color="#30355C"/></linearGradient><linearGradient id="paint61_linear_22990_158332" x1="-1153" y1="84.3896" x2="457" y2="98.3896" gradientUnits="userSpaceOnUse"><stop stop-color="#19202B"/><stop offset="1" stop-color="#30355C"/></linearGradient><linearGradient id="paint62_linear_22990_158332" x1="-1153" y1="84.3896" x2="457" y2="98.3896" gradientUnits="userSpaceOnUse"><stop stop-color="#19202B"/><stop offset="1" stop-color="#30355C"/></linearGradient><linearGradient id="paint63_linear_22990_158332" x1="-1153" y1="84.3896" x2="457" y2="98.3896" gradientUnits="userSpaceOnUse"><stop stop-color="#19202B"/><stop offset="1" stop-color="#30355C"/></linearGradient><linearGradient id="paint64_linear_22990_158332" x1="-1153" y1="84.3896" x2="457" y2="98.3896" gradientUnits="userSpaceOnUse"><stop stop-color="#19202B"/><stop offset="1" stop-color="#30355C"/></linearGradient><linearGradient id="paint65_linear_22990_158332" x1="-1153" y1="84.3896" x2="457" y2="98.3896" gradientUnits="userSpaceOnUse"><stop stop-color="#19202B"/><stop offset="1" stop-color="#30355C"/></linearGradient><linearGradient id="paint66_linear_22990_158332" x1="-1153" y1="84.3896" x2="457" y2="98.3896" gradientUnits="userSpaceOnUse"><stop stop-color="#19202B"/><stop offset="1" stop-color="#30355C"/></linearGradient><linearGradient id="paint67_linear_22990_158332" x1="-1153" y1="84.3896" x2="457" y2="98.3896" gradientUnits="userSpaceOnUse"><stop stop-color="#19202B"/><stop offset="1" stop-color="#30355C"/></linearGradient><linearGradient id="paint68_linear_22990_158332" x1="-1153" y1="84.3896" x2="457" y2="98.3896" gradientUnits="userSpaceOnUse"><stop stop-color="#19202B"/><stop offset="1" stop-color="#30355C"/></linearGradient><linearGradient id="paint69_linear_22990_158332" x1="-1153" y1="84.3896" x2="457" y2="98.3896" gradientUnits="userSpaceOnUse"><stop stop-color="#19202B"/><stop offset="1" stop-color="#30355C"/></linearGradient><linearGradient id="paint70_linear_22990_158332" x1="-1153" y1="84.3896" x2="457" y2="98.3896" gradientUnits="userSpaceOnUse"><stop stop-color="#19202B"/><stop offset="1" stop-color="#30355C"/></linearGradient><linearGradient id="paint71_linear_22990_158332" x1="-1153" y1="84.3896" x2="457" y2="98.3896" gradientUnits="userSpaceOnUse"><stop stop-color="#19202B"/><stop offset="1" stop-color="#30355C"/></linearGradient><linearGradient id="paint72_linear_22990_158332" x1="-1153" y1="84.3896" x2="457" y2="98.3896" gradientUnits="userSpaceOnUse"><stop stop-color="#19202B"/><stop offset="1" stop-color="#30355C"/></linearGradient><linearGradient id="paint73_linear_22990_158332" x1="-1153" y1="84.3896" x2="457" y2="98.3896" gradientUnits="userSpaceOnUse"><stop stop-color="#19202B"/><stop offset="1" stop-color="#30355C"/></linearGradient><linearGradient id="paint74_linear_22990_158332" x1="-1153" y1="84.3896" x2="457" y2="98.3896" gradientUnits="userSpaceOnUse"><stop stop-color="#19202B"/><stop offset="1" stop-color="#30355C"/></linearGradient><linearGradient id="paint75_linear_22990_158332" x1="-1153" y1="84.3896" x2="457" y2="98.3896" gradientUnits="userSpaceOnUse"><stop stop-color="#19202B"/><stop offset="1" stop-color="#30355C"/></linearGradient><linearGradient id="paint76_linear_22990_158332" x1="-1153" y1="84.3896" x2="457" y2="98.3896" gradientUnits="userSpaceOnUse"><stop stop-color="#19202B"/><stop offset="1" stop-color="#30355C"/></linearGradient><linearGradient id="paint77_linear_22990_158332" x1="-1153" y1="84.3896" x2="457" y2="98.3896" gradientUnits="userSpaceOnUse"><stop stop-color="#19202B"/><stop offset="1" stop-color="#30355C"/></linearGradient><linearGradient id="paint78_linear_22990_158332" x1="-1153" y1="84.3896" x2="457" y2="98.3896" gradientUnits="userSpaceOnUse"><stop stop-color="#19202B"/><stop offset="1" stop-color="#30355C"/></linearGradient><linearGradient id="paint79_linear_22990_158332" x1="-1153" y1="84.3896" x2="457" y2="98.3896" gradientUnits="userSpaceOnUse"><stop stop-color="#19202B"/><stop offset="1" stop-color="#30355C"/></linearGradient><linearGradient id="paint80_linear_22990_158332" x1="-1153" y1="84.3896" x2="457" y2="98.3896" gradientUnits="userSpaceOnUse"><stop stop-color="#19202B"/><stop offset="1" stop-color="#30355C"/></linearGradient><linearGradient id="paint81_linear_22990_158332" x1="-1153" y1="84.3896" x2="457" y2="98.3896" gradientUnits="userSpaceOnUse"><stop stop-color="#19202B"/><stop offset="1" stop-color="#30355C"/></linearGradient><linearGradient id="paint82_linear_22990_158332" x1="-1153" y1="84.3896" x2="457" y2="98.3896" gradientUnits="userSpaceOnUse"><stop stop-color="#19202B"/><stop offset="1" stop-color="#30355C"/></linearGradient><linearGradient id="paint83_linear_22990_158332" x1="-1153" y1="84.3896" x2="457" y2="98.3896" gradientUnits="userSpaceOnUse"><stop stop-color="#19202B"/><stop offset="1" stop-color="#30355C"/></linearGradient><linearGradient id="paint84_linear_22990_158332" x1="-1153" y1="84.3896" x2="457" y2="98.3896" gradientUnits="userSpaceOnUse"><stop stop-color="#19202B"/><stop offset="1" stop-color="#30355C"/></linearGradient><linearGradient id="paint85_linear_22990_158332" x1="-1153" y1="84.3896" x2="457" y2="98.3896" gradientUnits="userSpaceOnUse"><stop stop-color="#19202B"/><stop offset="1" stop-color="#30355C"/></linearGradient><linearGradient id="paint86_linear_22990_158332" x1="-1153" y1="84.3896" x2="457" y2="98.3896" gradientUnits="userSpaceOnUse"><stop stop-color="#19202B"/><stop offset="1" stop-color="#30355C"/></linearGradient><linearGradient id="paint87_linear_22990_158332" x1="-1153" y1="84.3896" x2="457" y2="98.3896" gradientUnits="userSpaceOnUse"><stop stop-color="#19202B"/><stop offset="1" stop-color="#30355C"/></linearGradient><linearGradient id="paint88_linear_22990_158332" x1="-1153" y1="84.3896" x2="457" y2="98.3896" gradientUnits="userSpaceOnUse"><stop stop-color="#19202B"/><stop offset="1" stop-color="#30355C"/></linearGradient><linearGradient id="paint89_linear_22990_158332" x1="-911" y1="97.3896" x2="230" y2="97.3897" gradientUnits="userSpaceOnUse"><stop stop-color="#3C4155"/><stop offset="1" stop-color="#373F6D"/></linearGradient><linearGradient id="paint90_linear_22990_158332" x1="-911" y1="97.3896" x2="230" y2="97.3897" gradientUnits="userSpaceOnUse"><stop stop-color="#3C4155"/><stop offset="1" stop-color="#373F6D"/></linearGradient><linearGradient id="paint91_linear_22990_158332" x1="-911" y1="97.3896" x2="230" y2="97.3897" gradientUnits="userSpaceOnUse"><stop stop-color="#3C4155"/><stop offset="1" stop-color="#373F6D"/></linearGradient><linearGradient id="paint92_linear_22990_158332" x1="-911" y1="97.3896" x2="230" y2="97.3897" gradientUnits="userSpaceOnUse"><stop stop-color="#3C4155"/><stop offset="1" stop-color="#373F6D"/></linearGradient><linearGradient id="paint93_linear_22990_158332" x1="-911" y1="97.3896" x2="230" y2="97.3897" gradientUnits="userSpaceOnUse"><stop stop-color="#3C4155"/><stop offset="1" stop-color="#373F6D"/></linearGradient><linearGradient id="paint94_linear_22990_158332" x1="-911" y1="97.3896" x2="230" y2="97.3897" gradientUnits="userSpaceOnUse"><stop stop-color="#3C4155"/><stop offset="1" stop-color="#373F6D"/></linearGradient><linearGradient id="paint95_linear_22990_158332" x1="-911" y1="97.3896" x2="230" y2="97.3897" gradientUnits="userSpaceOnUse"><stop stop-color="#3C4155"/><stop offset="1" stop-color="#373F6D"/></linearGradient><linearGradient id="paint96_linear_22990_158332" x1="-911" y1="97.3896" x2="230" y2="97.3897" gradientUnits="userSpaceOnUse"><stop stop-color="#3C4155"/><stop offset="1" stop-color="#373F6D"/></linearGradient><linearGradient id="paint97_linear_22990_158332" x1="-911" y1="97.3896" x2="230" y2="97.3897" gradientUnits="userSpaceOnUse"><stop stop-color="#3C4155"/><stop offset="1" stop-color="#373F6D"/></linearGradient><linearGradient id="paint98_linear_22990_158332" x1="-911" y1="97.3896" x2="230" y2="97.3897" gradientUnits="userSpaceOnUse"><stop stop-color="#3C4155"/><stop offset="1" stop-color="#373F6D"/></linearGradient><linearGradient id="paint99_linear_22990_158332" x1="-911" y1="97.3896" x2="230" y2="97.3897" gradientUnits="userSpaceOnUse"><stop stop-color="#3C4155"/><stop offset="1" stop-color="#373F6D"/></linearGradient><linearGradient id="paint100_linear_22990_158332" x1="-911" y1="97.3896" x2="230" y2="97.3897" gradientUnits="userSpaceOnUse"><stop stop-color="#3C4155"/><stop offset="1" stop-color="#373F6D"/></linearGradient><linearGradient id="paint101_linear_22990_158332" x1="-911" y1="97.3896" x2="230" y2="97.3897" gradientUnits="userSpaceOnUse"><stop stop-color="#3C4155"/><stop offset="1" stop-color="#373F6D"/></linearGradient><linearGradient id="paint102_linear_22990_158332" x1="-911" y1="97.3896" x2="230" y2="97.3897" gradientUnits="userSpaceOnUse"><stop stop-color="#3C4155"/><stop offset="1" stop-color="#373F6D"/></linearGradient><linearGradient id="paint103_linear_22990_158332" x1="-911" y1="97.3896" x2="230" y2="97.3897" gradientUnits="userSpaceOnUse"><stop stop-color="#3C4155"/><stop offset="1" stop-color="#373F6D"/></linearGradient><linearGradient id="paint104_linear_22990_158332" x1="-911" y1="97.3896" x2="230" y2="97.3897" gradientUnits="userSpaceOnUse"><stop stop-color="#3C4155"/><stop offset="1" stop-color="#373F6D"/></linearGradient><linearGradient id="paint105_linear_22990_158332" x1="-911" y1="97.3896" x2="230" y2="97.3897" gradientUnits="userSpaceOnUse"><stop stop-color="#3C4155"/><stop offset="1" stop-color="#373F6D"/></linearGradient></defs></svg>