<svg width="1376" height="104" viewBox="0 0 1376 104" fill="none" xmlns="http://www.w3.org/2000/svg"><path d="M0 0h1376v104H0V0Z" fill="url(#paint0_linear_22990_157227)"/><mask id="path-2-inside-1_22990_157227" fill="white"><path d="M1379.75-38.086a9.707 9.707 0 0 1 9.72 0l18.35 10.604a9.731 9.731 0 0 1 4.86 8.43V2.155a9.731 9.731 0 0 1-4.86 8.43l-18.35 10.603a9.708 9.708 0 0 1-9.72 0l-18.35-10.603a9.752 9.752 0 0 1-4.86-8.43v-21.207a9.752 9.752 0 0 1 4.86-8.43l18.35-10.604Zm67.34 0a9.707 9.707 0 0 1 9.72 0l18.34 10.604a9.74 9.74 0 0 1 4.87 8.43V2.155a9.74 9.74 0 0 1-4.87 8.43l-18.34 10.603a9.708 9.708 0 0 1-9.72 0l-18.35-10.603a9.731 9.731 0 0 1-4.86-8.43v-21.207a9.731 9.731 0 0 1 4.86-8.43l18.35-10.604Zm-33.67 61.611a9.708 9.708 0 0 1 9.72 0l18.35 10.603a9.752 9.752 0 0 1 4.86 8.43v21.207a9.752 9.752 0 0 1-4.86 8.43l-18.35 10.603a9.708 9.708 0 0 1-9.72 0l-18.35-10.603a9.731 9.731 0 0 1-4.86-8.43V42.558a9.731 9.731 0 0 1 4.86-8.43l18.35-10.603Zm-33.67 61.61a9.708 9.708 0 0 1 9.72 0l18.35 10.603a9.73 9.73 0 0 1 4.86 8.43v21.207a9.731 9.731 0 0 1-4.86 8.43l-18.35 10.603a9.707 9.707 0 0 1-9.72 0l-18.35-10.603a9.752 9.752 0 0 1-4.86-8.43v-21.207a9.752 9.752 0 0 1 4.86-8.43l18.35-10.603Zm67.34 0a9.708 9.708 0 0 1 9.72 0l18.34 10.603a9.74 9.74 0 0 1 4.87 8.43v21.207a9.74 9.74 0 0 1-4.87 8.43l-18.34 10.603a9.707 9.707 0 0 1-9.72 0l-18.35-10.603a9.731 9.731 0 0 1-4.86-8.43v-21.207a9.73 9.73 0 0 1 4.86-8.43l18.35-10.603Zm-33.67 61.61a9.707 9.707 0 0 1 9.72 0l18.35 10.603a9.753 9.753 0 0 1 4.86 8.43v21.207a9.752 9.752 0 0 1-4.86 8.43l-18.35 10.603a9.707 9.707 0 0 1-9.72 0l-18.35-10.603a9.731 9.731 0 0 1-4.86-8.43v-21.207a9.732 9.732 0 0 1 4.86-8.43l18.35-10.603ZM35.749-38.086a9.713 9.713 0 0 1 9.723 0l18.345 10.604a9.736 9.736 0 0 1 4.862 8.43V2.155a9.736 9.736 0 0 1-4.862 8.43L45.472 21.188a9.714 9.714 0 0 1-9.723 0L17.404 10.585a9.736 9.736 0 0 1-4.862-8.43v-21.207a9.736 9.736 0 0 1 4.862-8.43l18.345-10.604Zm67.338 0a9.713 9.713 0 0 1 9.723 0l18.345 10.604a9.736 9.736 0 0 1 4.861 8.43V2.155a9.736 9.736 0 0 1-4.861 8.43L112.81 21.188a9.714 9.714 0 0 1-9.723 0L84.741 10.585a9.736 9.736 0 0 1-4.861-8.43v-21.207a9.736 9.736 0 0 1 4.862-8.43l18.345-10.604Zm67.147 0a9.713 9.713 0 0 1 9.723 0l18.346 10.604a9.736 9.736 0 0 1 4.861 8.43V2.155a9.736 9.736 0 0 1-4.861 8.43l-18.346 10.603a9.714 9.714 0 0 1-9.723 0l-18.345-10.603a9.736 9.736 0 0 1-4.861-8.43v-21.207a9.736 9.736 0 0 1 4.861-8.43l18.345-10.604Zm67.211 0a9.713 9.713 0 0 1 9.723 0l18.346 10.604a9.736 9.736 0 0 1 4.861 8.43V2.155a9.736 9.736 0 0 1-4.861 8.43l-18.346 10.603a9.714 9.714 0 0 1-9.723 0L219.1 10.585a9.736 9.736 0 0 1-4.861-8.43v-21.207a9.736 9.736 0 0 1 4.861-8.43l18.345-10.604Zm67.211 0a9.713 9.713 0 0 1 9.723 0l18.346 10.604a9.736 9.736 0 0 1 4.861 8.43V2.155a9.736 9.736 0 0 1-4.861 8.43l-18.346 10.603a9.714 9.714 0 0 1-9.723 0l-18.345-10.603a9.736 9.736 0 0 1-4.861-8.43v-21.207a9.736 9.736 0 0 1 4.861-8.43l18.345-10.604Zm67.148 0a9.713 9.713 0 0 1 9.723 0l18.345 10.604a9.735 9.735 0 0 1 4.862 8.43V2.155a9.735 9.735 0 0 1-4.862 8.43l-18.345 10.603a9.714 9.714 0 0 1-9.723 0l-18.345-10.603a9.735 9.735 0 0 1-4.862-8.43v-21.207a9.735 9.735 0 0 1 4.862-8.43l18.345-10.604Zm67.211 0a9.713 9.713 0 0 1 9.723 0l18.345 10.604a9.735 9.735 0 0 1 4.862 8.43V2.155a9.735 9.735 0 0 1-4.862 8.43l-18.345 10.603a9.714 9.714 0 0 1-9.723 0L420.67 10.585a9.737 9.737 0 0 1-4.862-8.43v-21.207a9.737 9.737 0 0 1 4.862-8.43l18.345-10.604ZM2.207 23.525a9.714 9.714 0 0 1 9.723 0l18.345 10.603a9.736 9.736 0 0 1 4.861 8.43v21.207a9.736 9.736 0 0 1-4.861 8.43L11.93 82.798a9.714 9.714 0 0 1-9.723 0L-16.14 72.195a9.736 9.736 0 0 1-4.86-8.43V42.558a9.736 9.736 0 0 1 4.861-8.43L2.207 23.525Zm67.211 0a9.714 9.714 0 0 1 9.723 0l18.345 10.603a9.737 9.737 0 0 1 4.862 8.43v21.207a9.737 9.737 0 0 1-4.862 8.43L79.141 82.798a9.714 9.714 0 0 1-9.723 0L51.073 72.195a9.736 9.736 0 0 1-4.862-8.43V42.558a9.736 9.736 0 0 1 4.862-8.43l18.345-10.603Zm67.338 0a9.714 9.714 0 0 1 9.723 0l18.345 10.603a9.736 9.736 0 0 1 4.861 8.43v21.207a9.736 9.736 0 0 1-4.861 8.43l-18.345 10.603a9.714 9.714 0 0 1-9.723 0l-18.345-10.603a9.735 9.735 0 0 1-4.862-8.43V42.558a9.735 9.735 0 0 1 4.862-8.43l18.345-10.603Zm67.147 0a9.714 9.714 0 0 1 9.723 0l18.345 10.603a9.735 9.735 0 0 1 4.862 8.43v21.207a9.735 9.735 0 0 1-4.862 8.43l-18.345 10.603a9.714 9.714 0 0 1-9.723 0l-18.345-10.603a9.736 9.736 0 0 1-4.861-8.43V42.558a9.736 9.736 0 0 1 4.861-8.43l18.345-10.603Zm67.211 0a9.714 9.714 0 0 1 9.723 0l18.345 10.603a9.735 9.735 0 0 1 4.862 8.43v21.207a9.735 9.735 0 0 1-4.862 8.43l-18.345 10.603a9.714 9.714 0 0 1-9.723 0l-18.345-10.603a9.736 9.736 0 0 1-4.861-8.43V42.558a9.736 9.736 0 0 1 4.861-8.43l18.345-10.603Zm67.211 0a9.714 9.714 0 0 1 9.723 0l18.346 10.603a9.736 9.736 0 0 1 4.861 8.43v21.207a9.736 9.736 0 0 1-4.861 8.43l-18.346 10.603a9.714 9.714 0 0 1-9.723 0L319.98 72.195a9.736 9.736 0 0 1-4.861-8.43V42.558a9.736 9.736 0 0 1 4.861-8.43l18.345-10.603Zm67.148 0a9.714 9.714 0 0 1 9.723 0l18.345 10.603a9.737 9.737 0 0 1 4.862 8.43v21.207a9.737 9.737 0 0 1-4.862 8.43l-18.345 10.603a9.714 9.714 0 0 1-9.723 0l-18.345-10.603a9.735 9.735 0 0 1-4.862-8.43V42.558a9.735 9.735 0 0 1 4.862-8.43l18.345-10.603Zm67.211 0a9.714 9.714 0 0 1 9.723 0l18.345 10.603a9.735 9.735 0 0 1 4.862 8.43v21.207a9.735 9.735 0 0 1-4.862 8.43l-18.345 10.603a9.714 9.714 0 0 1-9.723 0l-18.345-10.603a9.735 9.735 0 0 1-4.862-8.43V42.558a9.735 9.735 0 0 1 4.862-8.43l18.345-10.603ZM35.749 85.135a9.714 9.714 0 0 1 9.723 0l18.345 10.603a9.736 9.736 0 0 1 4.862 8.43v21.207a9.736 9.736 0 0 1-4.862 8.43l-18.345 10.603a9.713 9.713 0 0 1-9.723 0l-18.345-10.603a9.736 9.736 0 0 1-4.862-8.43v-21.207a9.736 9.736 0 0 1 4.862-8.43l18.345-10.603Zm67.338 0a9.714 9.714 0 0 1 9.723 0l18.345 10.603a9.736 9.736 0 0 1 4.861 8.43v21.207a9.736 9.736 0 0 1-4.861 8.43l-18.345 10.603a9.713 9.713 0 0 1-9.723 0l-18.346-10.603a9.736 9.736 0 0 1-4.861-8.43v-21.207a9.736 9.736 0 0 1 4.862-8.43l18.345-10.603Zm67.147 0a9.714 9.714 0 0 1 9.723 0l18.346 10.603a9.736 9.736 0 0 1 4.861 8.43v21.207a9.736 9.736 0 0 1-4.861 8.43l-18.346 10.603a9.713 9.713 0 0 1-9.723 0l-18.345-10.603a9.736 9.736 0 0 1-4.861-8.43v-21.207a9.736 9.736 0 0 1 4.861-8.43l18.345-10.603Zm67.211 0a9.714 9.714 0 0 1 9.723 0l18.346 10.603a9.736 9.736 0 0 1 4.861 8.43v21.207a9.736 9.736 0 0 1-4.861 8.43l-18.346 10.603a9.713 9.713 0 0 1-9.723 0L219.1 133.805a9.736 9.736 0 0 1-4.861-8.43v-21.207a9.736 9.736 0 0 1 4.861-8.43l18.345-10.603Zm67.211 0a9.714 9.714 0 0 1 9.723 0l18.346 10.603a9.736 9.736 0 0 1 4.861 8.43v21.207a9.736 9.736 0 0 1-4.861 8.43l-18.346 10.603a9.713 9.713 0 0 1-9.723 0l-18.345-10.603a9.736 9.736 0 0 1-4.861-8.43v-21.207a9.736 9.736 0 0 1 4.861-8.43l18.345-10.603Zm67.148 0a9.714 9.714 0 0 1 9.723 0l18.345 10.603a9.735 9.735 0 0 1 4.862 8.43v21.207a9.735 9.735 0 0 1-4.862 8.43l-18.345 10.603a9.713 9.713 0 0 1-9.723 0l-18.345-10.603a9.735 9.735 0 0 1-4.862-8.43v-21.207a9.735 9.735 0 0 1 4.862-8.43l18.345-10.603Zm67.211 0a9.714 9.714 0 0 1 9.723 0l18.345 10.603a9.735 9.735 0 0 1 4.862 8.43v21.207a9.735 9.735 0 0 1-4.862 8.43l-18.345 10.603a9.713 9.713 0 0 1-9.723 0l-18.345-10.603a9.737 9.737 0 0 1-4.862-8.43v-21.207a9.737 9.737 0 0 1 4.862-8.43l18.345-10.603ZM2.207 146.745a9.713 9.713 0 0 1 9.723 0l18.345 10.603a9.737 9.737 0 0 1 4.861 8.43v21.207a9.736 9.736 0 0 1-4.861 8.43L11.93 206.018a9.713 9.713 0 0 1-9.723 0l-18.346-10.603a9.736 9.736 0 0 1-4.861-8.43v-21.207a9.737 9.737 0 0 1 4.861-8.43l18.346-10.603Zm67.211 0a9.713 9.713 0 0 1 9.723 0l18.345 10.603a9.738 9.738 0 0 1 4.862 8.43v21.207a9.737 9.737 0 0 1-4.862 8.43l-18.345 10.603a9.713 9.713 0 0 1-9.723 0l-18.345-10.603a9.736 9.736 0 0 1-4.862-8.43v-21.207a9.737 9.737 0 0 1 4.862-8.43l18.345-10.603Zm67.338 0a9.713 9.713 0 0 1 9.723 0l18.345 10.603a9.737 9.737 0 0 1 4.861 8.43v21.207a9.736 9.736 0 0 1-4.861 8.43l-18.345 10.603a9.713 9.713 0 0 1-9.723 0l-18.345-10.603a9.735 9.735 0 0 1-4.862-8.43v-21.207a9.736 9.736 0 0 1 4.862-8.43l18.345-10.603Zm67.147 0a9.713 9.713 0 0 1 9.723 0l18.345 10.603a9.736 9.736 0 0 1 4.862 8.43v21.207a9.735 9.735 0 0 1-4.862 8.43l-18.345 10.603a9.713 9.713 0 0 1-9.723 0l-18.345-10.603a9.736 9.736 0 0 1-4.861-8.43v-21.207a9.737 9.737 0 0 1 4.861-8.43l18.345-10.603Zm67.211 0a9.713 9.713 0 0 1 9.723 0l18.345 10.603a9.736 9.736 0 0 1 4.862 8.43v21.207a9.735 9.735 0 0 1-4.862 8.43l-18.345 10.603a9.713 9.713 0 0 1-9.723 0l-18.345-10.603a9.736 9.736 0 0 1-4.861-8.43v-21.207a9.737 9.737 0 0 1 4.861-8.43l18.345-10.603Zm67.211 0a9.713 9.713 0 0 1 9.723 0l18.346 10.603a9.737 9.737 0 0 1 4.861 8.43v21.207a9.736 9.736 0 0 1-4.861 8.43l-18.346 10.603a9.713 9.713 0 0 1-9.723 0l-18.345-10.603a9.736 9.736 0 0 1-4.861-8.43v-21.207a9.737 9.737 0 0 1 4.861-8.43l18.345-10.603Zm67.148 0a9.713 9.713 0 0 1 9.723 0l18.345 10.603a9.738 9.738 0 0 1 4.862 8.43v21.207a9.737 9.737 0 0 1-4.862 8.43l-18.345 10.603a9.713 9.713 0 0 1-9.723 0l-18.345-10.603a9.735 9.735 0 0 1-4.862-8.43v-21.207a9.736 9.736 0 0 1 4.862-8.43l18.345-10.603Zm67.211 0a9.713 9.713 0 0 1 9.723 0l18.345 10.603a9.736 9.736 0 0 1 4.862 8.43v21.207a9.735 9.735 0 0 1-4.862 8.43l-18.345 10.603a9.713 9.713 0 0 1-9.723 0l-18.345-10.603a9.735 9.735 0 0 1-4.862-8.43v-21.207a9.736 9.736 0 0 1 4.862-8.43l18.345-10.603ZM977.087-38.086a9.713 9.713 0 0 1 9.723 0l18.34 10.604a9.74 9.74 0 0 1 4.87 8.43V2.155a9.74 9.74 0 0 1-4.87 8.43l-18.34 10.603a9.714 9.714 0 0 1-9.723 0l-18.345-10.603a9.735 9.735 0 0 1-4.862-8.43v-21.207a9.735 9.735 0 0 1 4.862-8.43l18.345-10.604Zm67.143 0a9.726 9.726 0 0 1 9.73 0l18.34 10.604a9.731 9.731 0 0 1 4.86 8.43V2.155a9.731 9.731 0 0 1-4.86 8.43l-18.34 10.603a9.727 9.727 0 0 1-9.73 0l-18.34-10.603a9.731 9.731 0 0 1-4.86-8.43v-21.207a9.731 9.731 0 0 1 4.86-8.43l18.34-10.604Zm67.22 0a9.707 9.707 0 0 1 9.72 0l18.34 10.604a9.74 9.74 0 0 1 4.87 8.43V2.155a9.74 9.74 0 0 1-4.87 8.43l-18.34 10.603a9.708 9.708 0 0 1-9.72 0l-18.35-10.603a9.731 9.731 0 0 1-4.86-8.43v-21.207a9.731 9.731 0 0 1 4.86-8.43l18.35-10.604Zm67.21 0a9.707 9.707 0 0 1 9.72 0l18.34 10.604a9.74 9.74 0 0 1 4.87 8.43V2.155a9.74 9.74 0 0 1-4.87 8.43l-18.34 10.603a9.708 9.708 0 0 1-9.72 0l-18.35-10.603a9.731 9.731 0 0 1-4.86-8.43v-21.207a9.731 9.731 0 0 1 4.86-8.43l18.35-10.604Zm67.14 0a9.726 9.726 0 0 1 9.73 0l18.34 10.604a9.731 9.731 0 0 1 4.86 8.43V2.155a9.731 9.731 0 0 1-4.86 8.43l-18.34 10.603a9.727 9.727 0 0 1-9.73 0l-18.34-10.603a9.731 9.731 0 0 1-4.86-8.43v-21.207a9.731 9.731 0 0 1 4.86-8.43l18.34-10.604Zm67.21 0a9.726 9.726 0 0 1 9.73 0l18.34 10.604a9.731 9.731 0 0 1 4.86 8.43V2.155a9.731 9.731 0 0 1-4.86 8.43l-18.34 10.603a9.727 9.727 0 0 1-9.73 0l-18.34-10.603a9.731 9.731 0 0 1-4.86-8.43v-21.207a9.731 9.731 0 0 1 4.86-8.43l18.34-10.604Zm-302.25 61.611a9.708 9.708 0 0 1 9.72 0l18.34 10.603a9.74 9.74 0 0 1 4.87 8.43v21.207a9.74 9.74 0 0 1-4.87 8.43l-18.34 10.603a9.708 9.708 0 0 1-9.72 0l-18.349-10.603a9.735 9.735 0 0 1-4.862-8.43V42.558a9.735 9.735 0 0 1 4.862-8.43l18.349-10.603Zm67.14 0a9.727 9.727 0 0 1 9.73 0l18.34 10.603a9.731 9.731 0 0 1 4.86 8.43v21.207a9.731 9.731 0 0 1-4.86 8.43l-18.34 10.603a9.727 9.727 0 0 1-9.73 0l-18.34-10.603a9.731 9.731 0 0 1-4.86-8.43V42.558a9.731 9.731 0 0 1 4.86-8.43l18.34-10.603Zm67.21 0a9.727 9.727 0 0 1 9.73 0l18.34 10.603a9.731 9.731 0 0 1 4.86 8.43v21.207a9.731 9.731 0 0 1-4.86 8.43l-18.34 10.603a9.727 9.727 0 0 1-9.73 0l-18.34-10.603a9.731 9.731 0 0 1-4.86-8.43V42.558a9.731 9.731 0 0 1 4.86-8.43l18.34-10.603Zm67.22 0a9.708 9.708 0 0 1 9.72 0l18.34 10.603a9.74 9.74 0 0 1 4.87 8.43v21.207a9.74 9.74 0 0 1-4.87 8.43l-18.34 10.603a9.708 9.708 0 0 1-9.72 0l-18.35-10.603a9.731 9.731 0 0 1-4.86-8.43V42.558a9.731 9.731 0 0 1 4.86-8.43l18.35-10.603Zm67.14 0a9.727 9.727 0 0 1 9.73 0l18.34 10.603a9.731 9.731 0 0 1 4.86 8.43v21.207a9.731 9.731 0 0 1-4.86 8.43l-18.34 10.603a9.727 9.727 0 0 1-9.73 0l-18.34-10.603a9.731 9.731 0 0 1-4.86-8.43V42.558a9.731 9.731 0 0 1 4.86-8.43l18.34-10.603Zm67.21 0a9.727 9.727 0 0 1 9.73 0l18.34 10.603a9.731 9.731 0 0 1 4.86 8.43v21.207a9.731 9.731 0 0 1-4.86 8.43l-18.34 10.603a9.727 9.727 0 0 1-9.73 0l-18.34-10.603a9.731 9.731 0 0 1-4.86-8.43V42.558a9.731 9.731 0 0 1 4.86-8.43l18.34-10.603Zm-369.593 61.61a9.714 9.714 0 0 1 9.723 0l18.34 10.603a9.74 9.74 0 0 1 4.87 8.43v21.207a9.74 9.74 0 0 1-4.87 8.43l-18.34 10.603a9.713 9.713 0 0 1-9.723 0l-18.345-10.603a9.735 9.735 0 0 1-4.862-8.43v-21.207a9.735 9.735 0 0 1 4.862-8.43l18.345-10.603Zm67.143 0a9.727 9.727 0 0 1 9.73 0l18.34 10.603a9.73 9.73 0 0 1 4.86 8.43v21.207a9.731 9.731 0 0 1-4.86 8.43l-18.34 10.603a9.726 9.726 0 0 1-9.73 0l-18.34-10.603a9.731 9.731 0 0 1-4.86-8.43v-21.207a9.73 9.73 0 0 1 4.86-8.43l18.34-10.603Zm67.22 0a9.708 9.708 0 0 1 9.72 0l18.34 10.603a9.74 9.74 0 0 1 4.87 8.43v21.207a9.74 9.74 0 0 1-4.87 8.43l-18.34 10.603a9.707 9.707 0 0 1-9.72 0l-18.35-10.603a9.731 9.731 0 0 1-4.86-8.43v-21.207a9.73 9.73 0 0 1 4.86-8.43l18.35-10.603Zm67.21 0a9.708 9.708 0 0 1 9.72 0l18.34 10.603a9.74 9.74 0 0 1 4.87 8.43v21.207a9.74 9.74 0 0 1-4.87 8.43l-18.34 10.603a9.707 9.707 0 0 1-9.72 0l-18.35-10.603a9.731 9.731 0 0 1-4.86-8.43v-21.207a9.73 9.73 0 0 1 4.86-8.43l18.35-10.603Zm67.14 0a9.727 9.727 0 0 1 9.73 0l18.34 10.603a9.73 9.73 0 0 1 4.86 8.43v21.207a9.731 9.731 0 0 1-4.86 8.43l-18.34 10.603a9.726 9.726 0 0 1-9.73 0l-18.34-10.603a9.731 9.731 0 0 1-4.86-8.43v-21.207a9.73 9.73 0 0 1 4.86-8.43l18.34-10.603Zm67.21 0a9.727 9.727 0 0 1 9.73 0l18.34 10.603a9.73 9.73 0 0 1 4.86 8.43v21.207a9.731 9.731 0 0 1-4.86 8.43l-18.34 10.603a9.726 9.726 0 0 1-9.73 0l-18.34-10.603a9.731 9.731 0 0 1-4.86-8.43v-21.207a9.73 9.73 0 0 1 4.86-8.43l18.34-10.603Zm-302.25 61.61a9.707 9.707 0 0 1 9.72 0l18.34 10.603a9.742 9.742 0 0 1 4.87 8.43v21.207a9.74 9.74 0 0 1-4.87 8.43l-18.34 10.603a9.707 9.707 0 0 1-9.72 0l-18.349-10.603a9.735 9.735 0 0 1-4.862-8.43v-21.207a9.736 9.736 0 0 1 4.862-8.43l18.349-10.603Zm67.14 0a9.726 9.726 0 0 1 9.73 0l18.34 10.603a9.732 9.732 0 0 1 4.86 8.43v21.207a9.731 9.731 0 0 1-4.86 8.43l-18.34 10.603a9.726 9.726 0 0 1-9.73 0l-18.34-10.603a9.731 9.731 0 0 1-4.86-8.43v-21.207a9.732 9.732 0 0 1 4.86-8.43l18.34-10.603Zm67.21 0a9.726 9.726 0 0 1 9.73 0l18.34 10.603a9.732 9.732 0 0 1 4.86 8.43v21.207a9.731 9.731 0 0 1-4.86 8.43l-18.34 10.603a9.726 9.726 0 0 1-9.73 0l-18.34-10.603a9.731 9.731 0 0 1-4.86-8.43v-21.207a9.732 9.732 0 0 1 4.86-8.43l18.34-10.603Zm67.22 0a9.707 9.707 0 0 1 9.72 0l18.34 10.603a9.742 9.742 0 0 1 4.87 8.43v21.207a9.74 9.74 0 0 1-4.87 8.43l-18.34 10.603a9.707 9.707 0 0 1-9.72 0l-18.35-10.603a9.731 9.731 0 0 1-4.86-8.43v-21.207a9.732 9.732 0 0 1 4.86-8.43l18.35-10.603Zm67.14 0a9.726 9.726 0 0 1 9.73 0l18.34 10.603a9.732 9.732 0 0 1 4.86 8.43v21.207a9.731 9.731 0 0 1-4.86 8.43l-18.34 10.603a9.726 9.726 0 0 1-9.73 0l-18.34-10.603a9.731 9.731 0 0 1-4.86-8.43v-21.207a9.732 9.732 0 0 1 4.86-8.43l18.34-10.603Zm67.21 0a9.726 9.726 0 0 1 9.73 0l18.34 10.603a9.732 9.732 0 0 1 4.86 8.43v21.207a9.731 9.731 0 0 1-4.86 8.43l-18.34 10.603a9.726 9.726 0 0 1-9.73 0l-18.34-10.603a9.731 9.731 0 0 1-4.86-8.43v-21.207a9.732 9.732 0 0 1 4.86-8.43l18.34-10.603ZM506.749-38.086a9.713 9.713 0 0 1 9.723 0l18.345 10.604a9.737 9.737 0 0 1 4.862 8.43V2.155a9.737 9.737 0 0 1-4.862 8.43l-18.345 10.603a9.714 9.714 0 0 1-9.723 0l-18.345-10.603a9.735 9.735 0 0 1-4.862-8.43v-21.207a9.735 9.735 0 0 1 4.862-8.43l18.345-10.604Zm67.338 0a9.713 9.713 0 0 1 9.723 0l18.345 10.604a9.736 9.736 0 0 1 4.861 8.43V2.155a9.736 9.736 0 0 1-4.861 8.43L583.81 21.188a9.714 9.714 0 0 1-9.723 0l-18.345-10.603a9.735 9.735 0 0 1-4.862-8.43v-21.207a9.735 9.735 0 0 1 4.862-8.43l18.345-10.604Zm67.147 0a9.713 9.713 0 0 1 9.723 0l18.346 10.604a9.736 9.736 0 0 1 4.861 8.43V2.155a9.736 9.736 0 0 1-4.861 8.43l-18.346 10.603a9.714 9.714 0 0 1-9.723 0l-18.345-10.603a9.736 9.736 0 0 1-4.861-8.43v-21.207a9.736 9.736 0 0 1 4.861-8.43l18.345-10.604Zm67.211 0a9.713 9.713 0 0 1 9.723 0l18.346 10.604a9.736 9.736 0 0 1 4.861 8.43V2.155a9.736 9.736 0 0 1-4.861 8.43l-18.346 10.603a9.714 9.714 0 0 1-9.723 0L690.1 10.585a9.736 9.736 0 0 1-4.861-8.43v-21.207a9.736 9.736 0 0 1 4.861-8.43l18.345-10.604Zm67.211 0a9.713 9.713 0 0 1 9.723 0l18.346 10.604a9.736 9.736 0 0 1 4.861 8.43V2.155a9.736 9.736 0 0 1-4.861 8.43l-18.346 10.603a9.714 9.714 0 0 1-9.723 0l-18.345-10.603a9.736 9.736 0 0 1-4.861-8.43v-21.207a9.736 9.736 0 0 1 4.861-8.43l18.345-10.604Zm67.148 0a9.713 9.713 0 0 1 9.723 0l18.345 10.604a9.735 9.735 0 0 1 4.862 8.43V2.155a9.735 9.735 0 0 1-4.862 8.43l-18.345 10.603a9.714 9.714 0 0 1-9.723 0l-18.345-10.603a9.735 9.735 0 0 1-4.862-8.43v-21.207a9.735 9.735 0 0 1 4.862-8.43l18.345-10.604Zm67.211 0a9.713 9.713 0 0 1 9.723 0l18.345 10.604a9.735 9.735 0 0 1 4.862 8.43V2.155a9.735 9.735 0 0 1-4.862 8.43l-18.345 10.603a9.714 9.714 0 0 1-9.723 0L891.67 10.585a9.735 9.735 0 0 1-4.862-8.43v-21.207a9.735 9.735 0 0 1 4.862-8.43l18.345-10.604ZM540.418 23.525a9.714 9.714 0 0 1 9.723 0l18.345 10.603a9.737 9.737 0 0 1 4.862 8.43v21.207a9.737 9.737 0 0 1-4.862 8.43l-18.345 10.603a9.714 9.714 0 0 1-9.723 0l-18.345-10.603a9.735 9.735 0 0 1-4.862-8.43V42.558a9.735 9.735 0 0 1 4.862-8.43l18.345-10.603Zm67.338 0a9.714 9.714 0 0 1 9.723 0l18.345 10.603a9.736 9.736 0 0 1 4.861 8.43v21.207a9.736 9.736 0 0 1-4.861 8.43l-18.345 10.603a9.714 9.714 0 0 1-9.723 0l-18.345-10.603a9.735 9.735 0 0 1-4.862-8.43V42.558a9.735 9.735 0 0 1 4.862-8.43l18.345-10.603Zm67.147 0a9.714 9.714 0 0 1 9.723 0l18.345 10.603a9.735 9.735 0 0 1 4.862 8.43v21.207a9.735 9.735 0 0 1-4.862 8.43l-18.345 10.603a9.714 9.714 0 0 1-9.723 0l-18.345-10.603a9.736 9.736 0 0 1-4.861-8.43V42.558a9.736 9.736 0 0 1 4.861-8.43l18.345-10.603Zm67.211 0a9.714 9.714 0 0 1 9.723 0l18.345 10.603a9.735 9.735 0 0 1 4.862 8.43v21.207a9.735 9.735 0 0 1-4.862 8.43l-18.345 10.603a9.714 9.714 0 0 1-9.723 0l-18.345-10.603a9.736 9.736 0 0 1-4.861-8.43V42.558a9.736 9.736 0 0 1 4.861-8.43l18.345-10.603Zm67.211 0a9.714 9.714 0 0 1 9.723 0l18.346 10.603a9.736 9.736 0 0 1 4.861 8.43v21.207a9.736 9.736 0 0 1-4.861 8.43l-18.346 10.603a9.714 9.714 0 0 1-9.723 0L790.98 72.195a9.736 9.736 0 0 1-4.861-8.43V42.558a9.736 9.736 0 0 1 4.861-8.43l18.345-10.603Zm67.148 0a9.714 9.714 0 0 1 9.723 0l18.345 10.603a9.737 9.737 0 0 1 4.862 8.43v21.207a9.737 9.737 0 0 1-4.862 8.43l-18.345 10.603a9.714 9.714 0 0 1-9.723 0l-18.345-10.603a9.735 9.735 0 0 1-4.862-8.43V42.558a9.735 9.735 0 0 1 4.862-8.43l18.345-10.603Zm67.211 0a9.714 9.714 0 0 1 9.723 0l18.345 10.603a9.735 9.735 0 0 1 4.862 8.43v21.207a9.735 9.735 0 0 1-4.862 8.43l-18.345 10.603a9.714 9.714 0 0 1-9.723 0l-18.345-10.603a9.735 9.735 0 0 1-4.862-8.43V42.558a9.735 9.735 0 0 1 4.862-8.43l18.345-10.603Zm-436.935 61.61a9.714 9.714 0 0 1 9.723 0l18.345 10.603a9.737 9.737 0 0 1 4.862 8.43v21.207a9.737 9.737 0 0 1-4.862 8.43l-18.345 10.603a9.713 9.713 0 0 1-9.723 0l-18.345-10.603a9.735 9.735 0 0 1-4.862-8.43v-21.207a9.735 9.735 0 0 1 4.862-8.43l18.345-10.603Zm67.338 0a9.714 9.714 0 0 1 9.723 0l18.345 10.603a9.736 9.736 0 0 1 4.861 8.43v21.207a9.736 9.736 0 0 1-4.861 8.43l-18.345 10.603a9.713 9.713 0 0 1-9.723 0l-18.345-10.603a9.735 9.735 0 0 1-4.862-8.43v-21.207a9.735 9.735 0 0 1 4.862-8.43l18.345-10.603Zm67.147 0a9.714 9.714 0 0 1 9.723 0l18.346 10.603a9.736 9.736 0 0 1 4.861 8.43v21.207a9.736 9.736 0 0 1-4.861 8.43l-18.346 10.603a9.713 9.713 0 0 1-9.723 0l-18.345-10.603a9.736 9.736 0 0 1-4.861-8.43v-21.207a9.736 9.736 0 0 1 4.861-8.43l18.345-10.603Zm67.211 0a9.714 9.714 0 0 1 9.723 0l18.346 10.603a9.736 9.736 0 0 1 4.861 8.43v21.207a9.736 9.736 0 0 1-4.861 8.43l-18.346 10.603a9.713 9.713 0 0 1-9.723 0L690.1 133.805a9.736 9.736 0 0 1-4.861-8.43v-21.207a9.736 9.736 0 0 1 4.861-8.43l18.345-10.603Zm67.211 0a9.714 9.714 0 0 1 9.723 0l18.346 10.603a9.736 9.736 0 0 1 4.861 8.43v21.207a9.736 9.736 0 0 1-4.861 8.43l-18.346 10.603a9.713 9.713 0 0 1-9.723 0l-18.345-10.603a9.736 9.736 0 0 1-4.861-8.43v-21.207a9.736 9.736 0 0 1 4.861-8.43l18.345-10.603Zm67.148 0a9.714 9.714 0 0 1 9.723 0l18.345 10.603a9.735 9.735 0 0 1 4.862 8.43v21.207a9.735 9.735 0 0 1-4.862 8.43l-18.345 10.603a9.713 9.713 0 0 1-9.723 0l-18.345-10.603a9.735 9.735 0 0 1-4.862-8.43v-21.207a9.735 9.735 0 0 1 4.862-8.43l18.345-10.603Zm67.211 0a9.714 9.714 0 0 1 9.723 0l18.345 10.603a9.735 9.735 0 0 1 4.862 8.43v21.207a9.735 9.735 0 0 1-4.862 8.43l-18.345 10.603a9.713 9.713 0 0 1-9.723 0l-18.345-10.603a9.735 9.735 0 0 1-4.862-8.43v-21.207a9.735 9.735 0 0 1 4.862-8.43l18.345-10.603Zm-369.597 61.61a9.713 9.713 0 0 1 9.723 0l18.345 10.603a9.738 9.738 0 0 1 4.862 8.43v21.207a9.737 9.737 0 0 1-4.862 8.43l-18.345 10.603a9.713 9.713 0 0 1-9.723 0l-18.345-10.603a9.735 9.735 0 0 1-4.862-8.43v-21.207a9.736 9.736 0 0 1 4.862-8.43l18.345-10.603Zm67.338 0a9.713 9.713 0 0 1 9.723 0l18.345 10.603a9.737 9.737 0 0 1 4.861 8.43v21.207a9.736 9.736 0 0 1-4.861 8.43l-18.345 10.603a9.713 9.713 0 0 1-9.723 0l-18.345-10.603a9.735 9.735 0 0 1-4.862-8.43v-21.207a9.736 9.736 0 0 1 4.862-8.43l18.345-10.603Zm67.147 0a9.713 9.713 0 0 1 9.723 0l18.345 10.603a9.736 9.736 0 0 1 4.862 8.43v21.207a9.735 9.735 0 0 1-4.862 8.43l-18.345 10.603a9.713 9.713 0 0 1-9.723 0l-18.345-10.603a9.736 9.736 0 0 1-4.861-8.43v-21.207a9.737 9.737 0 0 1 4.861-8.43l18.345-10.603Zm67.211 0a9.713 9.713 0 0 1 9.723 0l18.345 10.603a9.736 9.736 0 0 1 4.862 8.43v21.207a9.735 9.735 0 0 1-4.862 8.43l-18.345 10.603a9.713 9.713 0 0 1-9.723 0l-18.345-10.603a9.736 9.736 0 0 1-4.861-8.43v-21.207a9.737 9.737 0 0 1 4.861-8.43l18.345-10.603Zm67.211 0a9.713 9.713 0 0 1 9.723 0l18.346 10.603a9.737 9.737 0 0 1 4.861 8.43v21.207a9.736 9.736 0 0 1-4.861 8.43l-18.346 10.603a9.713 9.713 0 0 1-9.723 0l-18.345-10.603a9.736 9.736 0 0 1-4.861-8.43v-21.207a9.737 9.737 0 0 1 4.861-8.43l18.345-10.603Zm67.148 0a9.713 9.713 0 0 1 9.723 0l18.345 10.603a9.738 9.738 0 0 1 4.862 8.43v21.207a9.737 9.737 0 0 1-4.862 8.43l-18.345 10.603a9.713 9.713 0 0 1-9.723 0l-18.345-10.603a9.735 9.735 0 0 1-4.862-8.43v-21.207a9.736 9.736 0 0 1 4.862-8.43l18.345-10.603Zm67.211 0a9.713 9.713 0 0 1 9.723 0l18.345 10.603a9.736 9.736 0 0 1 4.862 8.43v21.207a9.735 9.735 0 0 1-4.862 8.43l-18.345 10.603a9.713 9.713 0 0 1-9.723 0l-18.345-10.603a9.735 9.735 0 0 1-4.862-8.43v-21.207a9.736 9.736 0 0 1 4.862-8.43l18.345-10.603Z"/></mask><path d="M1379.75-38.086a9.707 9.707 0 0 1 9.72 0l18.35 10.604a9.731 9.731 0 0 1 4.86 8.43V2.155a9.731 9.731 0 0 1-4.86 8.43l-18.35 10.603a9.708 9.708 0 0 1-9.72 0l-18.35-10.603a9.752 9.752 0 0 1-4.86-8.43v-21.207a9.752 9.752 0 0 1 4.86-8.43l18.35-10.604Z" stroke="url(#paint1_linear_22990_157227)" stroke-width="2" mask="url(#path-2-inside-1_22990_157227)"/><path d="M1447.09-38.086a9.707 9.707 0 0 1 9.72 0l18.34 10.604a9.74 9.74 0 0 1 4.87 8.43V2.155a9.74 9.74 0 0 1-4.87 8.43l-18.34 10.603a9.708 9.708 0 0 1-9.72 0l-18.35-10.603a9.731 9.731 0 0 1-4.86-8.43v-21.207a9.731 9.731 0 0 1 4.86-8.43l18.35-10.604Z" stroke="url(#paint2_linear_22990_157227)" stroke-width="2" mask="url(#path-2-inside-1_22990_157227)"/><path d="M1413.42 23.525a9.708 9.708 0 0 1 9.72 0l18.35 10.603a9.752 9.752 0 0 1 4.86 8.43v21.207a9.752 9.752 0 0 1-4.86 8.43l-18.35 10.603a9.708 9.708 0 0 1-9.72 0l-18.35-10.603a9.731 9.731 0 0 1-4.86-8.43V42.558a9.731 9.731 0 0 1 4.86-8.43l18.35-10.603Z" stroke="url(#paint3_linear_22990_157227)" stroke-width="2" mask="url(#path-2-inside-1_22990_157227)"/><path d="M1379.75 85.135a9.708 9.708 0 0 1 9.72 0l18.35 10.603a9.73 9.73 0 0 1 4.86 8.43v21.207a9.731 9.731 0 0 1-4.86 8.43l-18.35 10.603a9.707 9.707 0 0 1-9.72 0l-18.35-10.603a9.752 9.752 0 0 1-4.86-8.43v-21.207a9.752 9.752 0 0 1 4.86-8.43l18.35-10.603Z" stroke="url(#paint4_linear_22990_157227)" stroke-width="2" mask="url(#path-2-inside-1_22990_157227)"/><path d="M1447.09 85.135a9.708 9.708 0 0 1 9.72 0l18.34 10.603a9.74 9.74 0 0 1 4.87 8.43v21.207a9.74 9.74 0 0 1-4.87 8.43l-18.34 10.603a9.707 9.707 0 0 1-9.72 0l-18.35-10.603a9.731 9.731 0 0 1-4.86-8.43v-21.207a9.73 9.73 0 0 1 4.86-8.43l18.35-10.603Z" stroke="url(#paint5_linear_22990_157227)" stroke-width="2" mask="url(#path-2-inside-1_22990_157227)"/><path d="M1413.42 146.745a9.707 9.707 0 0 1 9.72 0l18.35 10.603a9.753 9.753 0 0 1 4.86 8.43v21.207a9.752 9.752 0 0 1-4.86 8.43l-18.35 10.603a9.707 9.707 0 0 1-9.72 0l-18.35-10.603a9.731 9.731 0 0 1-4.86-8.43v-21.207a9.732 9.732 0 0 1 4.86-8.43l18.35-10.603Z" stroke="url(#paint6_linear_22990_157227)" stroke-width="2" mask="url(#path-2-inside-1_22990_157227)"/><path d="M35.749-38.086a9.713 9.713 0 0 1 9.723 0l18.345 10.604a9.736 9.736 0 0 1 4.862 8.43V2.155a9.736 9.736 0 0 1-4.862 8.43L45.472 21.188a9.714 9.714 0 0 1-9.723 0L17.404 10.585a9.736 9.736 0 0 1-4.862-8.43v-21.207a9.736 9.736 0 0 1 4.862-8.43l18.345-10.604Z" stroke="url(#paint7_linear_22990_157227)" stroke-width="2" mask="url(#path-2-inside-1_22990_157227)"/><path d="M103.087-38.086a9.713 9.713 0 0 1 9.723 0l18.345 10.604a9.736 9.736 0 0 1 4.861 8.43V2.155a9.736 9.736 0 0 1-4.861 8.43L112.81 21.188a9.714 9.714 0 0 1-9.723 0L84.741 10.585a9.736 9.736 0 0 1-4.861-8.43v-21.207a9.736 9.736 0 0 1 4.862-8.43l18.345-10.604Z" stroke="url(#paint8_linear_22990_157227)" stroke-width="2" mask="url(#path-2-inside-1_22990_157227)"/><path d="M170.234-38.086a9.713 9.713 0 0 1 9.723 0l18.346 10.604a9.736 9.736 0 0 1 4.861 8.43V2.155a9.736 9.736 0 0 1-4.861 8.43l-18.346 10.603a9.714 9.714 0 0 1-9.723 0l-18.345-10.603a9.736 9.736 0 0 1-4.861-8.43v-21.207a9.736 9.736 0 0 1 4.861-8.43l18.345-10.604Z" stroke="url(#paint9_linear_22990_157227)" stroke-width="2" mask="url(#path-2-inside-1_22990_157227)"/><path d="M237.445-38.086a9.713 9.713 0 0 1 9.723 0l18.346 10.604a9.736 9.736 0 0 1 4.861 8.43V2.155a9.736 9.736 0 0 1-4.861 8.43l-18.346 10.603a9.714 9.714 0 0 1-9.723 0L219.1 10.585a9.736 9.736 0 0 1-4.861-8.43v-21.207a9.736 9.736 0 0 1 4.861-8.43l18.345-10.604Z" stroke="url(#paint10_linear_22990_157227)" stroke-width="2" mask="url(#path-2-inside-1_22990_157227)"/><path d="M304.656-38.086a9.713 9.713 0 0 1 9.723 0l18.346 10.604a9.736 9.736 0 0 1 4.861 8.43V2.155a9.736 9.736 0 0 1-4.861 8.43l-18.346 10.603a9.714 9.714 0 0 1-9.723 0l-18.345-10.603a9.736 9.736 0 0 1-4.861-8.43v-21.207a9.736 9.736 0 0 1 4.861-8.43l18.345-10.604Z" stroke="url(#paint11_linear_22990_157227)" stroke-width="2" mask="url(#path-2-inside-1_22990_157227)"/><path d="M371.804-38.086a9.713 9.713 0 0 1 9.723 0l18.345 10.604a9.735 9.735 0 0 1 4.862 8.43V2.155a9.735 9.735 0 0 1-4.862 8.43l-18.345 10.603a9.714 9.714 0 0 1-9.723 0l-18.345-10.603a9.735 9.735 0 0 1-4.862-8.43v-21.207a9.735 9.735 0 0 1 4.862-8.43l18.345-10.604Z" stroke="url(#paint12_linear_22990_157227)" stroke-width="2" mask="url(#path-2-inside-1_22990_157227)"/><path d="M439.015-38.086a9.713 9.713 0 0 1 9.723 0l18.345 10.604a9.735 9.735 0 0 1 4.862 8.43V2.155a9.735 9.735 0 0 1-4.862 8.43l-18.345 10.603a9.714 9.714 0 0 1-9.723 0L420.67 10.585a9.737 9.737 0 0 1-4.862-8.43v-21.207a9.737 9.737 0 0 1 4.862-8.43l18.345-10.604Z" stroke="url(#paint13_linear_22990_157227)" stroke-width="2" mask="url(#path-2-inside-1_22990_157227)"/><path d="M2.207 23.525a9.714 9.714 0 0 1 9.723 0l18.345 10.603a9.736 9.736 0 0 1 4.861 8.43v21.207a9.736 9.736 0 0 1-4.861 8.43L11.93 82.798a9.714 9.714 0 0 1-9.723 0L-16.14 72.195a9.736 9.736 0 0 1-4.86-8.43V42.558a9.736 9.736 0 0 1 4.861-8.43L2.207 23.525Z" stroke="url(#paint14_linear_22990_157227)" stroke-width="2" mask="url(#path-2-inside-1_22990_157227)"/><path d="M69.418 23.525a9.714 9.714 0 0 1 9.723 0l18.345 10.603a9.737 9.737 0 0 1 4.862 8.43v21.207a9.737 9.737 0 0 1-4.862 8.43L79.141 82.798a9.714 9.714 0 0 1-9.723 0L51.073 72.195a9.736 9.736 0 0 1-4.862-8.43V42.558a9.736 9.736 0 0 1 4.862-8.43l18.345-10.603Z" stroke="url(#paint15_linear_22990_157227)" stroke-width="2" mask="url(#path-2-inside-1_22990_157227)"/><path d="M136.756 23.525a9.714 9.714 0 0 1 9.723 0l18.345 10.603a9.736 9.736 0 0 1 4.861 8.43v21.207a9.736 9.736 0 0 1-4.861 8.43l-18.345 10.603a9.714 9.714 0 0 1-9.723 0l-18.345-10.603a9.735 9.735 0 0 1-4.862-8.43V42.558a9.735 9.735 0 0 1 4.862-8.43l18.345-10.603Z" stroke="url(#paint16_linear_22990_157227)" stroke-width="2" mask="url(#path-2-inside-1_22990_157227)"/><path d="M203.903 23.525a9.714 9.714 0 0 1 9.723 0l18.345 10.603a9.735 9.735 0 0 1 4.862 8.43v21.207a9.735 9.735 0 0 1-4.862 8.43l-18.345 10.603a9.714 9.714 0 0 1-9.723 0l-18.345-10.603a9.736 9.736 0 0 1-4.861-8.43V42.558a9.736 9.736 0 0 1 4.861-8.43l18.345-10.603Z" stroke="url(#paint17_linear_22990_157227)" stroke-width="2" mask="url(#path-2-inside-1_22990_157227)"/><path d="M271.114 23.525a9.714 9.714 0 0 1 9.723 0l18.345 10.603a9.735 9.735 0 0 1 4.862 8.43v21.207a9.735 9.735 0 0 1-4.862 8.43l-18.345 10.603a9.714 9.714 0 0 1-9.723 0l-18.345-10.603a9.736 9.736 0 0 1-4.861-8.43V42.558a9.736 9.736 0 0 1 4.861-8.43l18.345-10.603Z" stroke="url(#paint18_linear_22990_157227)" stroke-width="2" mask="url(#path-2-inside-1_22990_157227)"/><path d="M338.325 23.525a9.714 9.714 0 0 1 9.723 0l18.346 10.603a9.736 9.736 0 0 1 4.861 8.43v21.207a9.736 9.736 0 0 1-4.861 8.43l-18.346 10.603a9.714 9.714 0 0 1-9.723 0L319.98 72.195a9.736 9.736 0 0 1-4.861-8.43V42.558a9.736 9.736 0 0 1 4.861-8.43l18.345-10.603Z" stroke="url(#paint19_linear_22990_157227)" stroke-width="2" mask="url(#path-2-inside-1_22990_157227)"/><path d="M405.473 23.525a9.714 9.714 0 0 1 9.723 0l18.345 10.603a9.737 9.737 0 0 1 4.862 8.43v21.207a9.737 9.737 0 0 1-4.862 8.43l-18.345 10.603a9.714 9.714 0 0 1-9.723 0l-18.345-10.603a9.735 9.735 0 0 1-4.862-8.43V42.558a9.735 9.735 0 0 1 4.862-8.43l18.345-10.603Z" stroke="url(#paint20_linear_22990_157227)" stroke-width="2" mask="url(#path-2-inside-1_22990_157227)"/><path d="M472.684 23.525a9.714 9.714 0 0 1 9.723 0l18.345 10.603a9.735 9.735 0 0 1 4.862 8.43v21.207a9.735 9.735 0 0 1-4.862 8.43l-18.345 10.603a9.714 9.714 0 0 1-9.723 0l-18.345-10.603a9.735 9.735 0 0 1-4.862-8.43V42.558a9.735 9.735 0 0 1 4.862-8.43l18.345-10.603Z" stroke="url(#paint21_linear_22990_157227)" stroke-width="2" mask="url(#path-2-inside-1_22990_157227)"/><path d="M35.749 85.135a9.714 9.714 0 0 1 9.723 0l18.345 10.603a9.736 9.736 0 0 1 4.862 8.43v21.207a9.736 9.736 0 0 1-4.862 8.43l-18.345 10.603a9.713 9.713 0 0 1-9.723 0l-18.345-10.603a9.736 9.736 0 0 1-4.862-8.43v-21.207a9.736 9.736 0 0 1 4.862-8.43l18.345-10.603Z" stroke="url(#paint22_linear_22990_157227)" stroke-width="2" mask="url(#path-2-inside-1_22990_157227)"/><path d="M103.087 85.135a9.714 9.714 0 0 1 9.723 0l18.345 10.603a9.736 9.736 0 0 1 4.861 8.43v21.207a9.736 9.736 0 0 1-4.861 8.43l-18.345 10.603a9.713 9.713 0 0 1-9.723 0l-18.346-10.603a9.736 9.736 0 0 1-4.861-8.43v-21.207a9.736 9.736 0 0 1 4.862-8.43l18.345-10.603Z" stroke="url(#paint23_linear_22990_157227)" stroke-width="2" mask="url(#path-2-inside-1_22990_157227)"/><path d="M170.234 85.135a9.714 9.714 0 0 1 9.723 0l18.346 10.603a9.736 9.736 0 0 1 4.861 8.43v21.207a9.736 9.736 0 0 1-4.861 8.43l-18.346 10.603a9.713 9.713 0 0 1-9.723 0l-18.345-10.603a9.736 9.736 0 0 1-4.861-8.43v-21.207a9.736 9.736 0 0 1 4.861-8.43l18.345-10.603Z" stroke="url(#paint24_linear_22990_157227)" stroke-width="2" mask="url(#path-2-inside-1_22990_157227)"/><path d="M237.445 85.135a9.714 9.714 0 0 1 9.723 0l18.346 10.603a9.736 9.736 0 0 1 4.861 8.43v21.207a9.736 9.736 0 0 1-4.861 8.43l-18.346 10.603a9.713 9.713 0 0 1-9.723 0L219.1 133.805a9.736 9.736 0 0 1-4.861-8.43v-21.207a9.736 9.736 0 0 1 4.861-8.43l18.345-10.603Z" stroke="url(#paint25_linear_22990_157227)" stroke-width="2" mask="url(#path-2-inside-1_22990_157227)"/><path d="M304.656 85.135a9.714 9.714 0 0 1 9.723 0l18.346 10.603a9.736 9.736 0 0 1 4.861 8.43v21.207a9.736 9.736 0 0 1-4.861 8.43l-18.346 10.603a9.713 9.713 0 0 1-9.723 0l-18.345-10.603a9.736 9.736 0 0 1-4.861-8.43v-21.207a9.736 9.736 0 0 1 4.861-8.43l18.345-10.603Z" stroke="url(#paint26_linear_22990_157227)" stroke-width="2" mask="url(#path-2-inside-1_22990_157227)"/><path d="M371.804 85.135a9.714 9.714 0 0 1 9.723 0l18.345 10.603a9.735 9.735 0 0 1 4.862 8.43v21.207a9.735 9.735 0 0 1-4.862 8.43l-18.345 10.603a9.713 9.713 0 0 1-9.723 0l-18.345-10.603a9.735 9.735 0 0 1-4.862-8.43v-21.207a9.735 9.735 0 0 1 4.862-8.43l18.345-10.603Z" stroke="url(#paint27_linear_22990_157227)" stroke-width="2" mask="url(#path-2-inside-1_22990_157227)"/><path d="M439.015 85.135a9.714 9.714 0 0 1 9.723 0l18.345 10.603a9.735 9.735 0 0 1 4.862 8.43v21.207a9.735 9.735 0 0 1-4.862 8.43l-18.345 10.603a9.713 9.713 0 0 1-9.723 0l-18.345-10.603a9.737 9.737 0 0 1-4.862-8.43v-21.207a9.737 9.737 0 0 1 4.862-8.43l18.345-10.603Z" stroke="url(#paint28_linear_22990_157227)" stroke-width="2" mask="url(#path-2-inside-1_22990_157227)"/><path d="M2.207 146.745a9.713 9.713 0 0 1 9.723 0l18.345 10.603a9.737 9.737 0 0 1 4.861 8.43v21.207a9.736 9.736 0 0 1-4.861 8.43L11.93 206.018a9.713 9.713 0 0 1-9.723 0l-18.346-10.603a9.736 9.736 0 0 1-4.861-8.43v-21.207a9.737 9.737 0 0 1 4.861-8.43l18.346-10.603Z" stroke="url(#paint29_linear_22990_157227)" stroke-width="2" mask="url(#path-2-inside-1_22990_157227)"/><path d="M69.418 146.745a9.713 9.713 0 0 1 9.723 0l18.345 10.603a9.738 9.738 0 0 1 4.862 8.43v21.207a9.737 9.737 0 0 1-4.862 8.43l-18.345 10.603a9.713 9.713 0 0 1-9.723 0l-18.345-10.603a9.736 9.736 0 0 1-4.862-8.43v-21.207a9.737 9.737 0 0 1 4.862-8.43l18.345-10.603Z" stroke="url(#paint30_linear_22990_157227)" stroke-width="2" mask="url(#path-2-inside-1_22990_157227)"/><path d="M136.756 146.745a9.713 9.713 0 0 1 9.723 0l18.345 10.603a9.737 9.737 0 0 1 4.861 8.43v21.207a9.736 9.736 0 0 1-4.861 8.43l-18.345 10.603a9.713 9.713 0 0 1-9.723 0l-18.345-10.603a9.735 9.735 0 0 1-4.862-8.43v-21.207a9.736 9.736 0 0 1 4.862-8.43l18.345-10.603Z" stroke="url(#paint31_linear_22990_157227)" stroke-width="2" mask="url(#path-2-inside-1_22990_157227)"/><path d="M203.903 146.745a9.713 9.713 0 0 1 9.723 0l18.345 10.603a9.736 9.736 0 0 1 4.862 8.43v21.207a9.735 9.735 0 0 1-4.862 8.43l-18.345 10.603a9.713 9.713 0 0 1-9.723 0l-18.345-10.603a9.736 9.736 0 0 1-4.861-8.43v-21.207a9.737 9.737 0 0 1 4.861-8.43l18.345-10.603Z" stroke="url(#paint32_linear_22990_157227)" stroke-width="2" mask="url(#path-2-inside-1_22990_157227)"/><path d="M271.114 146.745a9.713 9.713 0 0 1 9.723 0l18.345 10.603a9.736 9.736 0 0 1 4.862 8.43v21.207a9.735 9.735 0 0 1-4.862 8.43l-18.345 10.603a9.713 9.713 0 0 1-9.723 0l-18.345-10.603a9.736 9.736 0 0 1-4.861-8.43v-21.207a9.737 9.737 0 0 1 4.861-8.43l18.345-10.603Z" stroke="url(#paint33_linear_22990_157227)" stroke-width="2" mask="url(#path-2-inside-1_22990_157227)"/><path d="M338.325 146.745a9.713 9.713 0 0 1 9.723 0l18.346 10.603a9.737 9.737 0 0 1 4.861 8.43v21.207a9.736 9.736 0 0 1-4.861 8.43l-18.346 10.603a9.713 9.713 0 0 1-9.723 0l-18.345-10.603a9.736 9.736 0 0 1-4.861-8.43v-21.207a9.737 9.737 0 0 1 4.861-8.43l18.345-10.603Z" stroke="url(#paint34_linear_22990_157227)" stroke-width="2" mask="url(#path-2-inside-1_22990_157227)"/><path d="M405.473 146.745a9.713 9.713 0 0 1 9.723 0l18.345 10.603a9.738 9.738 0 0 1 4.862 8.43v21.207a9.737 9.737 0 0 1-4.862 8.43l-18.345 10.603a9.713 9.713 0 0 1-9.723 0l-18.345-10.603a9.735 9.735 0 0 1-4.862-8.43v-21.207a9.736 9.736 0 0 1 4.862-8.43l18.345-10.603Z" stroke="url(#paint35_linear_22990_157227)" stroke-width="2" mask="url(#path-2-inside-1_22990_157227)"/><path d="M472.684 146.745a9.713 9.713 0 0 1 9.723 0l18.345 10.603a9.736 9.736 0 0 1 4.862 8.43v21.207a9.735 9.735 0 0 1-4.862 8.43l-18.345 10.603a9.713 9.713 0 0 1-9.723 0l-18.345-10.603a9.735 9.735 0 0 1-4.862-8.43v-21.207a9.736 9.736 0 0 1 4.862-8.43l18.345-10.603Z" stroke="url(#paint36_linear_22990_157227)" stroke-width="2" mask="url(#path-2-inside-1_22990_157227)"/><path d="M977.087-38.086a9.713 9.713 0 0 1 9.723 0l18.34 10.604a9.74 9.74 0 0 1 4.87 8.43V2.155a9.74 9.74 0 0 1-4.87 8.43l-18.34 10.603a9.714 9.714 0 0 1-9.723 0l-18.345-10.603a9.735 9.735 0 0 1-4.862-8.43v-21.207a9.735 9.735 0 0 1 4.862-8.43l18.345-10.604Z" stroke="url(#paint37_linear_22990_157227)" stroke-width="2" mask="url(#path-2-inside-1_22990_157227)"/><path d="M1044.23-38.086a9.726 9.726 0 0 1 9.73 0l18.34 10.604a9.731 9.731 0 0 1 4.86 8.43V2.155a9.731 9.731 0 0 1-4.86 8.43l-18.34 10.603a9.727 9.727 0 0 1-9.73 0l-18.34-10.603a9.731 9.731 0 0 1-4.86-8.43v-21.207a9.731 9.731 0 0 1 4.86-8.43l18.34-10.604Z" stroke="url(#paint38_linear_22990_157227)" stroke-width="2" mask="url(#path-2-inside-1_22990_157227)"/><path d="M1111.45-38.086a9.707 9.707 0 0 1 9.72 0l18.34 10.604a9.74 9.74 0 0 1 4.87 8.43V2.155a9.74 9.74 0 0 1-4.87 8.43l-18.34 10.603a9.708 9.708 0 0 1-9.72 0l-18.35-10.603a9.731 9.731 0 0 1-4.86-8.43v-21.207a9.731 9.731 0 0 1 4.86-8.43l18.35-10.604Z" stroke="url(#paint39_linear_22990_157227)" stroke-width="2" mask="url(#path-2-inside-1_22990_157227)"/><path d="M1178.66-38.086a9.707 9.707 0 0 1 9.72 0l18.34 10.604a9.74 9.74 0 0 1 4.87 8.43V2.155a9.74 9.74 0 0 1-4.87 8.43l-18.34 10.603a9.708 9.708 0 0 1-9.72 0l-18.35-10.603a9.731 9.731 0 0 1-4.86-8.43v-21.207a9.731 9.731 0 0 1 4.86-8.43l18.35-10.604Z" stroke="url(#paint40_linear_22990_157227)" stroke-width="2" mask="url(#path-2-inside-1_22990_157227)"/><path d="M1245.8-38.086a9.726 9.726 0 0 1 9.73 0l18.34 10.604a9.731 9.731 0 0 1 4.86 8.43V2.155a9.731 9.731 0 0 1-4.86 8.43l-18.34 10.603a9.727 9.727 0 0 1-9.73 0l-18.34-10.603a9.731 9.731 0 0 1-4.86-8.43v-21.207a9.731 9.731 0 0 1 4.86-8.43l18.34-10.604Z" stroke="url(#paint41_linear_22990_157227)" stroke-width="2" mask="url(#path-2-inside-1_22990_157227)"/><path d="M1313.01-38.086a9.726 9.726 0 0 1 9.73 0l18.34 10.604a9.731 9.731 0 0 1 4.86 8.43V2.155a9.731 9.731 0 0 1-4.86 8.43l-18.34 10.603a9.727 9.727 0 0 1-9.73 0l-18.34-10.603a9.731 9.731 0 0 1-4.86-8.43v-21.207a9.731 9.731 0 0 1 4.86-8.43l18.34-10.604Z" stroke="url(#paint42_linear_22990_157227)" stroke-width="2" mask="url(#path-2-inside-1_22990_157227)"/><path d="M1010.76 23.525a9.708 9.708 0 0 1 9.72 0l18.34 10.603a9.74 9.74 0 0 1 4.87 8.43v21.207a9.74 9.74 0 0 1-4.87 8.43l-18.34 10.603a9.708 9.708 0 0 1-9.72 0l-18.349-10.603a9.735 9.735 0 0 1-4.862-8.43V42.558a9.735 9.735 0 0 1 4.862-8.43l18.349-10.603Z" stroke="url(#paint43_linear_22990_157227)" stroke-width="2" mask="url(#path-2-inside-1_22990_157227)"/><path d="M1077.9 23.525a9.727 9.727 0 0 1 9.73 0l18.34 10.603a9.731 9.731 0 0 1 4.86 8.43v21.207a9.731 9.731 0 0 1-4.86 8.43l-18.34 10.603a9.727 9.727 0 0 1-9.73 0l-18.34-10.603a9.731 9.731 0 0 1-4.86-8.43V42.558a9.731 9.731 0 0 1 4.86-8.43l18.34-10.603Z" stroke="url(#paint44_linear_22990_157227)" stroke-width="2" mask="url(#path-2-inside-1_22990_157227)"/><path d="M1145.11 23.525a9.727 9.727 0 0 1 9.73 0l18.34 10.603a9.731 9.731 0 0 1 4.86 8.43v21.207a9.731 9.731 0 0 1-4.86 8.43l-18.34 10.603a9.727 9.727 0 0 1-9.73 0l-18.34-10.603a9.731 9.731 0 0 1-4.86-8.43V42.558a9.731 9.731 0 0 1 4.86-8.43l18.34-10.603Z" stroke="url(#paint45_linear_22990_157227)" stroke-width="2" mask="url(#path-2-inside-1_22990_157227)"/><path d="M1212.33 23.525a9.708 9.708 0 0 1 9.72 0l18.34 10.603a9.74 9.74 0 0 1 4.87 8.43v21.207a9.74 9.74 0 0 1-4.87 8.43l-18.34 10.603a9.708 9.708 0 0 1-9.72 0l-18.35-10.603a9.731 9.731 0 0 1-4.86-8.43V42.558a9.731 9.731 0 0 1 4.86-8.43l18.35-10.603Z" stroke="url(#paint46_linear_22990_157227)" stroke-width="2" mask="url(#path-2-inside-1_22990_157227)"/><path d="M1279.47 23.525a9.727 9.727 0 0 1 9.73 0l18.34 10.603a9.731 9.731 0 0 1 4.86 8.43v21.207a9.731 9.731 0 0 1-4.86 8.43l-18.34 10.603a9.727 9.727 0 0 1-9.73 0l-18.34-10.603a9.731 9.731 0 0 1-4.86-8.43V42.558a9.731 9.731 0 0 1 4.86-8.43l18.34-10.603Z" stroke="url(#paint47_linear_22990_157227)" stroke-width="2" mask="url(#path-2-inside-1_22990_157227)"/><path d="M1346.68 23.525a9.727 9.727 0 0 1 9.73 0l18.34 10.603a9.731 9.731 0 0 1 4.86 8.43v21.207a9.731 9.731 0 0 1-4.86 8.43l-18.34 10.603a9.727 9.727 0 0 1-9.73 0l-18.34-10.603a9.731 9.731 0 0 1-4.86-8.43V42.558a9.731 9.731 0 0 1 4.86-8.43l18.34-10.603Z" stroke="url(#paint48_linear_22990_157227)" stroke-width="2" mask="url(#path-2-inside-1_22990_157227)"/><path d="M977.087 85.135a9.714 9.714 0 0 1 9.723 0l18.34 10.603a9.74 9.74 0 0 1 4.87 8.43v21.207a9.74 9.74 0 0 1-4.87 8.43l-18.34 10.603a9.713 9.713 0 0 1-9.723 0l-18.345-10.603a9.735 9.735 0 0 1-4.862-8.43v-21.207a9.735 9.735 0 0 1 4.862-8.43l18.345-10.603Z" stroke="url(#paint49_linear_22990_157227)" stroke-width="2" mask="url(#path-2-inside-1_22990_157227)"/><path d="M1044.23 85.135a9.727 9.727 0 0 1 9.73 0l18.34 10.603a9.73 9.73 0 0 1 4.86 8.43v21.207a9.731 9.731 0 0 1-4.86 8.43l-18.34 10.603a9.726 9.726 0 0 1-9.73 0l-18.34-10.603a9.731 9.731 0 0 1-4.86-8.43v-21.207a9.73 9.73 0 0 1 4.86-8.43l18.34-10.603Z" stroke="url(#paint50_linear_22990_157227)" stroke-width="2" mask="url(#path-2-inside-1_22990_157227)"/><path d="M1111.45 85.135a9.708 9.708 0 0 1 9.72 0l18.34 10.603a9.74 9.74 0 0 1 4.87 8.43v21.207a9.74 9.74 0 0 1-4.87 8.43l-18.34 10.603a9.707 9.707 0 0 1-9.72 0l-18.35-10.603a9.731 9.731 0 0 1-4.86-8.43v-21.207a9.73 9.73 0 0 1 4.86-8.43l18.35-10.603Z" stroke="url(#paint51_linear_22990_157227)" stroke-width="2" mask="url(#path-2-inside-1_22990_157227)"/><path d="M1178.66 85.135a9.708 9.708 0 0 1 9.72 0l18.34 10.603a9.74 9.74 0 0 1 4.87 8.43v21.207a9.74 9.74 0 0 1-4.87 8.43l-18.34 10.603a9.707 9.707 0 0 1-9.72 0l-18.35-10.603a9.731 9.731 0 0 1-4.86-8.43v-21.207a9.73 9.73 0 0 1 4.86-8.43l18.35-10.603Z" stroke="url(#paint52_linear_22990_157227)" stroke-width="2" mask="url(#path-2-inside-1_22990_157227)"/><path d="M1245.8 85.135a9.727 9.727 0 0 1 9.73 0l18.34 10.603a9.73 9.73 0 0 1 4.86 8.43v21.207a9.731 9.731 0 0 1-4.86 8.43l-18.34 10.603a9.726 9.726 0 0 1-9.73 0l-18.34-10.603a9.731 9.731 0 0 1-4.86-8.43v-21.207a9.73 9.73 0 0 1 4.86-8.43l18.34-10.603Z" stroke="url(#paint53_linear_22990_157227)" stroke-width="2" mask="url(#path-2-inside-1_22990_157227)"/><path d="M1313.01 85.135a9.727 9.727 0 0 1 9.73 0l18.34 10.603a9.73 9.73 0 0 1 4.86 8.43v21.207a9.731 9.731 0 0 1-4.86 8.43l-18.34 10.603a9.726 9.726 0 0 1-9.73 0l-18.34-10.603a9.731 9.731 0 0 1-4.86-8.43v-21.207a9.73 9.73 0 0 1 4.86-8.43l18.34-10.603Z" stroke="url(#paint54_linear_22990_157227)" stroke-width="2" mask="url(#path-2-inside-1_22990_157227)"/><path d="M1010.76 146.745a9.707 9.707 0 0 1 9.72 0l18.34 10.603a9.742 9.742 0 0 1 4.87 8.43v21.207a9.74 9.74 0 0 1-4.87 8.43l-18.34 10.603a9.707 9.707 0 0 1-9.72 0l-18.349-10.603a9.735 9.735 0 0 1-4.862-8.43v-21.207a9.736 9.736 0 0 1 4.862-8.43l18.349-10.603Z" stroke="url(#paint55_linear_22990_157227)" stroke-width="2" mask="url(#path-2-inside-1_22990_157227)"/><path d="M1077.9 146.745a9.726 9.726 0 0 1 9.73 0l18.34 10.603a9.732 9.732 0 0 1 4.86 8.43v21.207a9.731 9.731 0 0 1-4.86 8.43l-18.34 10.603a9.726 9.726 0 0 1-9.73 0l-18.34-10.603a9.731 9.731 0 0 1-4.86-8.43v-21.207a9.732 9.732 0 0 1 4.86-8.43l18.34-10.603Z" stroke="url(#paint56_linear_22990_157227)" stroke-width="2" mask="url(#path-2-inside-1_22990_157227)"/><path d="M1145.11 146.745a9.726 9.726 0 0 1 9.73 0l18.34 10.603a9.732 9.732 0 0 1 4.86 8.43v21.207a9.731 9.731 0 0 1-4.86 8.43l-18.34 10.603a9.726 9.726 0 0 1-9.73 0l-18.34-10.603a9.731 9.731 0 0 1-4.86-8.43v-21.207a9.732 9.732 0 0 1 4.86-8.43l18.34-10.603Z" stroke="url(#paint57_linear_22990_157227)" stroke-width="2" mask="url(#path-2-inside-1_22990_157227)"/><path d="M1212.33 146.745a9.707 9.707 0 0 1 9.72 0l18.34 10.603a9.742 9.742 0 0 1 4.87 8.43v21.207a9.74 9.74 0 0 1-4.87 8.43l-18.34 10.603a9.707 9.707 0 0 1-9.72 0l-18.35-10.603a9.731 9.731 0 0 1-4.86-8.43v-21.207a9.732 9.732 0 0 1 4.86-8.43l18.35-10.603Z" stroke="url(#paint58_linear_22990_157227)" stroke-width="2" mask="url(#path-2-inside-1_22990_157227)"/><path d="M1279.47 146.745a9.726 9.726 0 0 1 9.73 0l18.34 10.603a9.732 9.732 0 0 1 4.86 8.43v21.207a9.731 9.731 0 0 1-4.86 8.43l-18.34 10.603a9.726 9.726 0 0 1-9.73 0l-18.34-10.603a9.731 9.731 0 0 1-4.86-8.43v-21.207a9.732 9.732 0 0 1 4.86-8.43l18.34-10.603Z" stroke="url(#paint59_linear_22990_157227)" stroke-width="2" mask="url(#path-2-inside-1_22990_157227)"/><path d="M1346.68 146.745a9.726 9.726 0 0 1 9.73 0l18.34 10.603a9.732 9.732 0 0 1 4.86 8.43v21.207a9.731 9.731 0 0 1-4.86 8.43l-18.34 10.603a9.726 9.726 0 0 1-9.73 0l-18.34-10.603a9.731 9.731 0 0 1-4.86-8.43v-21.207a9.732 9.732 0 0 1 4.86-8.43l18.34-10.603Z" stroke="url(#paint60_linear_22990_157227)" stroke-width="2" mask="url(#path-2-inside-1_22990_157227)"/><path d="M506.749-38.086a9.713 9.713 0 0 1 9.723 0l18.345 10.604a9.737 9.737 0 0 1 4.862 8.43V2.155a9.737 9.737 0 0 1-4.862 8.43l-18.345 10.603a9.714 9.714 0 0 1-9.723 0l-18.345-10.603a9.735 9.735 0 0 1-4.862-8.43v-21.207a9.735 9.735 0 0 1 4.862-8.43l18.345-10.604Z" stroke="url(#paint61_linear_22990_157227)" stroke-width="2" mask="url(#path-2-inside-1_22990_157227)"/><path d="M574.087-38.086a9.713 9.713 0 0 1 9.723 0l18.345 10.604a9.736 9.736 0 0 1 4.861 8.43V2.155a9.736 9.736 0 0 1-4.861 8.43L583.81 21.188a9.714 9.714 0 0 1-9.723 0l-18.345-10.603a9.735 9.735 0 0 1-4.862-8.43v-21.207a9.735 9.735 0 0 1 4.862-8.43l18.345-10.604Z" stroke="url(#paint62_linear_22990_157227)" stroke-width="2" mask="url(#path-2-inside-1_22990_157227)"/><path d="M641.234-38.086a9.713 9.713 0 0 1 9.723 0l18.346 10.604a9.736 9.736 0 0 1 4.861 8.43V2.155a9.736 9.736 0 0 1-4.861 8.43l-18.346 10.603a9.714 9.714 0 0 1-9.723 0l-18.345-10.603a9.736 9.736 0 0 1-4.861-8.43v-21.207a9.736 9.736 0 0 1 4.861-8.43l18.345-10.604Z" stroke="url(#paint63_linear_22990_157227)" stroke-width="2" mask="url(#path-2-inside-1_22990_157227)"/><path d="M708.445-38.086a9.713 9.713 0 0 1 9.723 0l18.346 10.604a9.736 9.736 0 0 1 4.861 8.43V2.155a9.736 9.736 0 0 1-4.861 8.43l-18.346 10.603a9.714 9.714 0 0 1-9.723 0L690.1 10.585a9.736 9.736 0 0 1-4.861-8.43v-21.207a9.736 9.736 0 0 1 4.861-8.43l18.345-10.604Z" stroke="url(#paint64_linear_22990_157227)" stroke-width="2" mask="url(#path-2-inside-1_22990_157227)"/><path d="M775.656-38.086a9.713 9.713 0 0 1 9.723 0l18.346 10.604a9.736 9.736 0 0 1 4.861 8.43V2.155a9.736 9.736 0 0 1-4.861 8.43l-18.346 10.603a9.714 9.714 0 0 1-9.723 0l-18.345-10.603a9.736 9.736 0 0 1-4.861-8.43v-21.207a9.736 9.736 0 0 1 4.861-8.43l18.345-10.604Z" stroke="url(#paint65_linear_22990_157227)" stroke-width="2" mask="url(#path-2-inside-1_22990_157227)"/><path d="M842.804-38.086a9.713 9.713 0 0 1 9.723 0l18.345 10.604a9.735 9.735 0 0 1 4.862 8.43V2.155a9.735 9.735 0 0 1-4.862 8.43l-18.345 10.603a9.714 9.714 0 0 1-9.723 0l-18.345-10.603a9.735 9.735 0 0 1-4.862-8.43v-21.207a9.735 9.735 0 0 1 4.862-8.43l18.345-10.604Z" stroke="url(#paint66_linear_22990_157227)" stroke-width="2" mask="url(#path-2-inside-1_22990_157227)"/><path d="M910.015-38.086a9.713 9.713 0 0 1 9.723 0l18.345 10.604a9.735 9.735 0 0 1 4.862 8.43V2.155a9.735 9.735 0 0 1-4.862 8.43l-18.345 10.603a9.714 9.714 0 0 1-9.723 0L891.67 10.585a9.735 9.735 0 0 1-4.862-8.43v-21.207a9.735 9.735 0 0 1 4.862-8.43l18.345-10.604Z" stroke="url(#paint67_linear_22990_157227)" stroke-width="2" mask="url(#path-2-inside-1_22990_157227)"/><path d="M540.418 23.525a9.714 9.714 0 0 1 9.723 0l18.345 10.603a9.737 9.737 0 0 1 4.862 8.43v21.207a9.737 9.737 0 0 1-4.862 8.43l-18.345 10.603a9.714 9.714 0 0 1-9.723 0l-18.345-10.603a9.735 9.735 0 0 1-4.862-8.43V42.558a9.735 9.735 0 0 1 4.862-8.43l18.345-10.603Z" stroke="url(#paint68_linear_22990_157227)" stroke-width="2" mask="url(#path-2-inside-1_22990_157227)"/><path d="M607.756 23.525a9.714 9.714 0 0 1 9.723 0l18.345 10.603a9.736 9.736 0 0 1 4.861 8.43v21.207a9.736 9.736 0 0 1-4.861 8.43l-18.345 10.603a9.714 9.714 0 0 1-9.723 0l-18.345-10.603a9.735 9.735 0 0 1-4.862-8.43V42.558a9.735 9.735 0 0 1 4.862-8.43l18.345-10.603Z" stroke="url(#paint69_linear_22990_157227)" stroke-width="2" mask="url(#path-2-inside-1_22990_157227)"/><path d="M674.903 23.525a9.714 9.714 0 0 1 9.723 0l18.345 10.603a9.735 9.735 0 0 1 4.862 8.43v21.207a9.735 9.735 0 0 1-4.862 8.43l-18.345 10.603a9.714 9.714 0 0 1-9.723 0l-18.345-10.603a9.736 9.736 0 0 1-4.861-8.43V42.558a9.736 9.736 0 0 1 4.861-8.43l18.345-10.603Z" stroke="url(#paint70_linear_22990_157227)" stroke-width="2" mask="url(#path-2-inside-1_22990_157227)"/><path d="M742.114 23.525a9.714 9.714 0 0 1 9.723 0l18.345 10.603a9.735 9.735 0 0 1 4.862 8.43v21.207a9.735 9.735 0 0 1-4.862 8.43l-18.345 10.603a9.714 9.714 0 0 1-9.723 0l-18.345-10.603a9.736 9.736 0 0 1-4.861-8.43V42.558a9.736 9.736 0 0 1 4.861-8.43l18.345-10.603Z" stroke="url(#paint71_linear_22990_157227)" stroke-width="2" mask="url(#path-2-inside-1_22990_157227)"/><path d="M809.325 23.525a9.714 9.714 0 0 1 9.723 0l18.346 10.603a9.736 9.736 0 0 1 4.861 8.43v21.207a9.736 9.736 0 0 1-4.861 8.43l-18.346 10.603a9.714 9.714 0 0 1-9.723 0L790.98 72.195a9.736 9.736 0 0 1-4.861-8.43V42.558a9.736 9.736 0 0 1 4.861-8.43l18.345-10.603Z" stroke="url(#paint72_linear_22990_157227)" stroke-width="2" mask="url(#path-2-inside-1_22990_157227)"/><path d="M876.473 23.525a9.714 9.714 0 0 1 9.723 0l18.345 10.603a9.737 9.737 0 0 1 4.862 8.43v21.207a9.737 9.737 0 0 1-4.862 8.43l-18.345 10.603a9.714 9.714 0 0 1-9.723 0l-18.345-10.603a9.735 9.735 0 0 1-4.862-8.43V42.558a9.735 9.735 0 0 1 4.862-8.43l18.345-10.603Z" stroke="url(#paint73_linear_22990_157227)" stroke-width="2" mask="url(#path-2-inside-1_22990_157227)"/><path d="M943.684 23.525a9.714 9.714 0 0 1 9.723 0l18.345 10.603a9.735 9.735 0 0 1 4.862 8.43v21.207a9.735 9.735 0 0 1-4.862 8.43l-18.345 10.603a9.714 9.714 0 0 1-9.723 0l-18.345-10.603a9.735 9.735 0 0 1-4.862-8.43V42.558a9.735 9.735 0 0 1 4.862-8.43l18.345-10.603Z" stroke="url(#paint74_linear_22990_157227)" stroke-width="2" mask="url(#path-2-inside-1_22990_157227)"/><path d="M506.749 85.135a9.714 9.714 0 0 1 9.723 0l18.345 10.603a9.737 9.737 0 0 1 4.862 8.43v21.207a9.737 9.737 0 0 1-4.862 8.43l-18.345 10.603a9.713 9.713 0 0 1-9.723 0l-18.345-10.603a9.735 9.735 0 0 1-4.862-8.43v-21.207a9.735 9.735 0 0 1 4.862-8.43l18.345-10.603Z" stroke="url(#paint75_linear_22990_157227)" stroke-width="2" mask="url(#path-2-inside-1_22990_157227)"/><path d="M574.087 85.135a9.714 9.714 0 0 1 9.723 0l18.345 10.603a9.736 9.736 0 0 1 4.861 8.43v21.207a9.736 9.736 0 0 1-4.861 8.43l-18.345 10.603a9.713 9.713 0 0 1-9.723 0l-18.345-10.603a9.735 9.735 0 0 1-4.862-8.43v-21.207a9.735 9.735 0 0 1 4.862-8.43l18.345-10.603Z" stroke="url(#paint76_linear_22990_157227)" stroke-width="2" mask="url(#path-2-inside-1_22990_157227)"/><path d="M641.234 85.135a9.714 9.714 0 0 1 9.723 0l18.346 10.603a9.736 9.736 0 0 1 4.861 8.43v21.207a9.736 9.736 0 0 1-4.861 8.43l-18.346 10.603a9.713 9.713 0 0 1-9.723 0l-18.345-10.603a9.736 9.736 0 0 1-4.861-8.43v-21.207a9.736 9.736 0 0 1 4.861-8.43l18.345-10.603Z" stroke="url(#paint77_linear_22990_157227)" stroke-width="2" mask="url(#path-2-inside-1_22990_157227)"/><path d="M708.445 85.135a9.714 9.714 0 0 1 9.723 0l18.346 10.603a9.736 9.736 0 0 1 4.861 8.43v21.207a9.736 9.736 0 0 1-4.861 8.43l-18.346 10.603a9.713 9.713 0 0 1-9.723 0L690.1 133.805a9.736 9.736 0 0 1-4.861-8.43v-21.207a9.736 9.736 0 0 1 4.861-8.43l18.345-10.603Z" stroke="url(#paint78_linear_22990_157227)" stroke-width="2" mask="url(#path-2-inside-1_22990_157227)"/><path d="M775.656 85.135a9.714 9.714 0 0 1 9.723 0l18.346 10.603a9.736 9.736 0 0 1 4.861 8.43v21.207a9.736 9.736 0 0 1-4.861 8.43l-18.346 10.603a9.713 9.713 0 0 1-9.723 0l-18.345-10.603a9.736 9.736 0 0 1-4.861-8.43v-21.207a9.736 9.736 0 0 1 4.861-8.43l18.345-10.603Z" stroke="url(#paint79_linear_22990_157227)" stroke-width="2" mask="url(#path-2-inside-1_22990_157227)"/><path d="M842.804 85.135a9.714 9.714 0 0 1 9.723 0l18.345 10.603a9.735 9.735 0 0 1 4.862 8.43v21.207a9.735 9.735 0 0 1-4.862 8.43l-18.345 10.603a9.713 9.713 0 0 1-9.723 0l-18.345-10.603a9.735 9.735 0 0 1-4.862-8.43v-21.207a9.735 9.735 0 0 1 4.862-8.43l18.345-10.603Z" stroke="url(#paint80_linear_22990_157227)" stroke-width="2" mask="url(#path-2-inside-1_22990_157227)"/><path d="M910.015 85.135a9.714 9.714 0 0 1 9.723 0l18.345 10.603a9.735 9.735 0 0 1 4.862 8.43v21.207a9.735 9.735 0 0 1-4.862 8.43l-18.345 10.603a9.713 9.713 0 0 1-9.723 0l-18.345-10.603a9.735 9.735 0 0 1-4.862-8.43v-21.207a9.735 9.735 0 0 1 4.862-8.43l18.345-10.603Z" stroke="url(#paint81_linear_22990_157227)" stroke-width="2" mask="url(#path-2-inside-1_22990_157227)"/><path d="M540.418 146.745a9.713 9.713 0 0 1 9.723 0l18.345 10.603a9.738 9.738 0 0 1 4.862 8.43v21.207a9.737 9.737 0 0 1-4.862 8.43l-18.345 10.603a9.713 9.713 0 0 1-9.723 0l-18.345-10.603a9.735 9.735 0 0 1-4.862-8.43v-21.207a9.736 9.736 0 0 1 4.862-8.43l18.345-10.603Z" stroke="url(#paint82_linear_22990_157227)" stroke-width="2" mask="url(#path-2-inside-1_22990_157227)"/><path d="M607.756 146.745a9.713 9.713 0 0 1 9.723 0l18.345 10.603a9.737 9.737 0 0 1 4.861 8.43v21.207a9.736 9.736 0 0 1-4.861 8.43l-18.345 10.603a9.713 9.713 0 0 1-9.723 0l-18.345-10.603a9.735 9.735 0 0 1-4.862-8.43v-21.207a9.736 9.736 0 0 1 4.862-8.43l18.345-10.603Z" stroke="url(#paint83_linear_22990_157227)" stroke-width="2" mask="url(#path-2-inside-1_22990_157227)"/><path d="M674.903 146.745a9.713 9.713 0 0 1 9.723 0l18.345 10.603a9.736 9.736 0 0 1 4.862 8.43v21.207a9.735 9.735 0 0 1-4.862 8.43l-18.345 10.603a9.713 9.713 0 0 1-9.723 0l-18.345-10.603a9.736 9.736 0 0 1-4.861-8.43v-21.207a9.737 9.737 0 0 1 4.861-8.43l18.345-10.603Z" stroke="url(#paint84_linear_22990_157227)" stroke-width="2" mask="url(#path-2-inside-1_22990_157227)"/><path d="M742.114 146.745a9.713 9.713 0 0 1 9.723 0l18.345 10.603a9.736 9.736 0 0 1 4.862 8.43v21.207a9.735 9.735 0 0 1-4.862 8.43l-18.345 10.603a9.713 9.713 0 0 1-9.723 0l-18.345-10.603a9.736 9.736 0 0 1-4.861-8.43v-21.207a9.737 9.737 0 0 1 4.861-8.43l18.345-10.603Z" stroke="url(#paint85_linear_22990_157227)" stroke-width="2" mask="url(#path-2-inside-1_22990_157227)"/><path d="M809.325 146.745a9.713 9.713 0 0 1 9.723 0l18.346 10.603a9.737 9.737 0 0 1 4.861 8.43v21.207a9.736 9.736 0 0 1-4.861 8.43l-18.346 10.603a9.713 9.713 0 0 1-9.723 0l-18.345-10.603a9.736 9.736 0 0 1-4.861-8.43v-21.207a9.737 9.737 0 0 1 4.861-8.43l18.345-10.603Z" stroke="url(#paint86_linear_22990_157227)" stroke-width="2" mask="url(#path-2-inside-1_22990_157227)"/><path d="M876.473 146.745a9.713 9.713 0 0 1 9.723 0l18.345 10.603a9.738 9.738 0 0 1 4.862 8.43v21.207a9.737 9.737 0 0 1-4.862 8.43l-18.345 10.603a9.713 9.713 0 0 1-9.723 0l-18.345-10.603a9.735 9.735 0 0 1-4.862-8.43v-21.207a9.736 9.736 0 0 1 4.862-8.43l18.345-10.603Z" stroke="url(#paint87_linear_22990_157227)" stroke-width="2" mask="url(#path-2-inside-1_22990_157227)"/><path d="M943.684 146.745a9.713 9.713 0 0 1 9.723 0l18.345 10.603a9.736 9.736 0 0 1 4.862 8.43v21.207a9.735 9.735 0 0 1-4.862 8.43l-18.345 10.603a9.713 9.713 0 0 1-9.723 0l-18.345-10.603a9.735 9.735 0 0 1-4.862-8.43v-21.207a9.736 9.736 0 0 1 4.862-8.43l18.345-10.603Z" stroke="url(#paint88_linear_22990_157227)" stroke-width="2" mask="url(#path-2-inside-1_22990_157227)"/><path d="M104.469 96.812a6.061 6.061 0 0 1 6.062 0l11.438 6.604a6.061 6.061 0 0 1 3.031 5.25v13.207a6.061 6.061 0 0 1-3.031 5.25l-11.438 6.604a6.061 6.061 0 0 1-6.062 0l-11.438-6.604a6.062 6.062 0 0 1-3.031-5.25v-13.207a6.062 6.062 0 0 1 3.031-5.25l11.438-6.604Z" fill="url(#paint89_linear_22990_157227)"/><path d="M1045.47 96.812a6.058 6.058 0 0 1 6.06 0l11.44 6.604a6.052 6.052 0 0 1 3.03 5.25v13.207a6.052 6.052 0 0 1-3.03 5.25l-11.44 6.604a6.058 6.058 0 0 1-6.06 0l-11.44-6.604a6.073 6.073 0 0 1-3.03-5.25v-13.207a6.073 6.073 0 0 1 3.03-5.25l11.44-6.604Z" fill="url(#paint90_linear_22990_157227)"/><path d="M810.469 34.812a6.064 6.064 0 0 1 6.063 0l11.437 6.604a6.061 6.061 0 0 1 3.031 5.25v13.207a6.061 6.061 0 0 1-3.031 5.25l-11.437 6.604a6.064 6.064 0 0 1-6.063 0l-11.437-6.604a6.062 6.062 0 0 1-3.032-5.25V46.666a6.062 6.062 0 0 1 3.032-5.25l11.437-6.604Z" fill="url(#paint91_linear_22990_157227)"/><path d="M575.469-27.188a6.064 6.064 0 0 1 6.063 0l11.437 6.604a6.061 6.061 0 0 1 3.031 5.25v13.207a6.061 6.061 0 0 1-3.031 5.25l-11.437 6.604a6.064 6.064 0 0 1-6.063 0l-11.437-6.604A6.062 6.062 0 0 1 561-2.127v-13.207a6.062 6.062 0 0 1 3.032-5.25l11.437-6.604Z" fill="url(#paint92_linear_22990_157227)"/><path d="M205.469 34.812a6.062 6.062 0 0 1 6.062 0l11.438 6.604a6.061 6.061 0 0 1 3.031 5.25v13.207a6.061 6.061 0 0 1-3.031 5.25l-11.438 6.604a6.062 6.062 0 0 1-6.062 0l-11.438-6.604a6.061 6.061 0 0 1-3.031-5.25V46.666a6.061 6.061 0 0 1 3.031-5.25l11.438-6.604Z" fill="url(#paint93_linear_22990_157227)"/><path d="M1146.47 34.812a6.058 6.058 0 0 1 6.06 0l11.44 6.604a6.052 6.052 0 0 1 3.03 5.25v13.207a6.052 6.052 0 0 1-3.03 5.25l-11.44 6.604a6.058 6.058 0 0 1-6.06 0l-11.44-6.604a6.073 6.073 0 0 1-3.03-5.25V46.666a6.073 6.073 0 0 1 3.03-5.25l11.44-6.604Z" fill="url(#paint94_linear_22990_157227)"/><path d="M37.469-26.188a6.062 6.062 0 0 1 6.062 0l11.438 6.604A6.062 6.062 0 0 1 58-14.334v13.207a6.062 6.062 0 0 1-3.031 5.25L43.53 10.727a6.062 6.062 0 0 1-6.062 0L26.03 4.123A6.062 6.062 0 0 1 23-1.127v-13.207a6.062 6.062 0 0 1 3.031-5.25l11.438-6.604Z" fill="url(#paint95_linear_22990_157227)"/><path d="M978.469-26.188a6.064 6.064 0 0 1 6.063 0l11.437 6.604a6.061 6.061 0 0 1 3.031 5.25v13.207a6.061 6.061 0 0 1-3.031 5.25l-11.437 6.604a6.064 6.064 0 0 1-6.063 0l-11.437-6.604A6.062 6.062 0 0 1 964-1.127v-13.207a6.062 6.062 0 0 1 3.032-5.25l11.437-6.604Z" fill="url(#paint96_linear_22990_157227)"/><path d="M306.469 96.812a6.061 6.061 0 0 1 6.062 0l11.438 6.604a6.061 6.061 0 0 1 3.031 5.25v13.207a6.061 6.061 0 0 1-3.031 5.25l-11.438 6.604a6.061 6.061 0 0 1-6.062 0l-11.438-6.604a6.061 6.061 0 0 1-3.031-5.25v-13.207a6.061 6.061 0 0 1 3.031-5.25l11.438-6.604Z" fill="url(#paint97_linear_22990_157227)"/><path d="M1247.47 96.812a6.058 6.058 0 0 1 6.06 0l11.44 6.604a6.052 6.052 0 0 1 3.03 5.25v13.207a6.052 6.052 0 0 1-3.03 5.25l-11.44 6.604a6.058 6.058 0 0 1-6.06 0l-11.44-6.604a6.073 6.073 0 0 1-3.03-5.25v-13.207a6.073 6.073 0 0 1 3.03-5.25l11.44-6.604Z" fill="url(#paint98_linear_22990_157227)"/><path d="M407.469 156.812a6.061 6.061 0 0 1 6.062 0l11.438 6.604a6.061 6.061 0 0 1 3.031 5.25v13.207a6.061 6.061 0 0 1-3.031 5.25l-11.438 6.604a6.061 6.061 0 0 1-6.062 0l-11.438-6.604a6.061 6.061 0 0 1-3.031-5.25v-13.207a6.061 6.061 0 0 1 3.031-5.25l11.438-6.604Z" fill="url(#paint99_linear_22990_157227)"/><path d="M1348.47 156.812a6.058 6.058 0 0 1 6.06 0l11.44 6.604a6.052 6.052 0 0 1 3.03 5.25v13.207a6.052 6.052 0 0 1-3.03 5.25l-11.44 6.604a6.058 6.058 0 0 1-6.06 0l-11.44-6.604a6.073 6.073 0 0 1-3.03-5.25v-13.207a6.073 6.073 0 0 1 3.03-5.25l11.44-6.604Z" fill="url(#paint100_linear_22990_157227)"/><path d="M306.469-26.188a6.062 6.062 0 0 1 6.062 0l11.438 6.604a6.061 6.061 0 0 1 3.031 5.25v13.207a6.061 6.061 0 0 1-3.031 5.25l-11.438 6.604a6.062 6.062 0 0 1-6.062 0l-11.438-6.604A6.061 6.061 0 0 1 292-1.127v-13.207a6.061 6.061 0 0 1 3.031-5.25l11.438-6.604Z" fill="url(#paint101_linear_22990_157227)"/><path d="M1247.47-26.188a6.058 6.058 0 0 1 6.06 0l11.44 6.604a6.052 6.052 0 0 1 3.03 5.25v13.207a6.052 6.052 0 0 1-3.03 5.25l-11.44 6.604a6.058 6.058 0 0 1-6.06 0l-11.44-6.604a6.073 6.073 0 0 1-3.03-5.25v-13.207a6.073 6.073 0 0 1 3.03-5.25l11.44-6.604Z" fill="url(#paint102_linear_22990_157227)"/><path d="M642.469 96.812a6.063 6.063 0 0 1 6.063 0l11.437 6.604a6.061 6.061 0 0 1 3.031 5.25v13.207a6.061 6.061 0 0 1-3.031 5.25l-11.437 6.604a6.063 6.063 0 0 1-6.063 0l-11.437-6.604a6.062 6.062 0 0 1-3.032-5.25v-13.207a6.062 6.062 0 0 1 3.032-5.25l11.437-6.604Z" fill="url(#paint103_linear_22990_157227)"/><path d="M642.469 96.812a6.063 6.063 0 0 1 6.063 0l11.437 6.604a6.061 6.061 0 0 1 3.031 5.25v13.207a6.061 6.061 0 0 1-3.031 5.25l-11.437 6.604a6.063 6.063 0 0 1-6.063 0l-11.437-6.604a6.062 6.062 0 0 1-3.032-5.25v-13.207a6.062 6.062 0 0 1 3.032-5.25l11.437-6.604Z" fill="url(#paint104_linear_22990_157227)"/><path d="M744.469 156.812a6.063 6.063 0 0 1 6.063 0l11.437 6.604a6.061 6.061 0 0 1 3.031 5.25v13.207a6.061 6.061 0 0 1-3.031 5.25l-11.437 6.604a6.063 6.063 0 0 1-6.063 0l-11.437-6.604a6.062 6.062 0 0 1-3.032-5.25v-13.207a6.062 6.062 0 0 1 3.032-5.25l11.437-6.604Z" fill="url(#paint105_linear_22990_157227)"/><path d="M367.573 125h9.909c2.064 0 3.836-.4 5.318-1.201a8.18 8.18 0 0 0 3.422-3.447c.801-1.498 1.201-3.288 1.201-5.372 0-2.076-.4-3.86-1.201-5.351a8.157 8.157 0 0 0-3.402-3.428c-1.475-.801-3.234-1.201-5.278-1.201h-4.405a2.857 2.857 0 0 0-2.857 2.857v9.943c0 .598.693.931 1.16.557l4.711-3.768a.572.572 0 0 0-.357-1.018h-.647a.57.57 0 0 1-.571-.571v-2.948c0-.789.639-1.429 1.428-1.429h1.31c1.27 0 2.338.221 3.204.664.866.443 1.518 1.133 1.954 2.07.444.938.665 2.146.665 3.623 0 1.491-.221 2.709-.665 3.653-.436.937-1.091 1.631-1.964 2.08-.866.443-1.934.664-3.204.664h-2.738l-4.083.049a.57.57 0 0 0-.359.133l-2.917 2.431a.571.571 0 0 0 .366 1.01Z" fill="url(#paint106_linear_22990_157227)"/><path d="M130.573 62h9.909c2.064 0 3.836-.4 5.318-1.201a8.177 8.177 0 0 0 3.422-3.447c.801-1.498 1.201-3.288 1.201-5.371 0-2.077-.4-3.861-1.201-5.352a8.158 8.158 0 0 0-3.402-3.428c-1.475-.8-3.234-1.201-5.278-1.201h-4.405a2.857 2.857 0 0 0-2.857 2.857V54.8c0 .599.693.931 1.16.557l4.711-3.768a.571.571 0 0 0-.357-1.018h-.647a.57.57 0 0 1-.571-.571v-2.948c0-.79.639-1.429 1.428-1.429h1.31c1.27 0 2.338.221 3.204.664.866.443 1.518 1.133 1.954 2.07.444.938.665 2.146.665 3.623 0 1.491-.221 2.709-.665 3.653-.436.937-1.091 1.63-1.964 2.08-.866.443-1.934.664-3.204.664h-2.738l-4.083.05a.573.573 0 0 0-.359.132l-2.917 2.43a.571.571 0 0 0 .366 1.011Z" fill="url(#paint107_linear_22990_157227)"/><path d="M1173.57 124h9.91c2.07 0 3.84-.4 5.32-1.201a8.147 8.147 0 0 0 3.42-3.447c.8-1.498 1.2-3.288 1.2-5.372 0-2.076-.4-3.86-1.2-5.351a8.163 8.163 0 0 0-3.4-3.428c-1.48-.801-3.23-1.201-5.28-1.201h-4.4a2.858 2.858 0 0 0-2.86 2.857v9.943c0 .598.69.931 1.16.557l4.71-3.768c.42-.337.18-1.018-.36-1.018h-.64a.567.567 0 0 1-.57-.571v-2.948c0-.789.64-1.429 1.42-1.429h1.31c1.27 0 2.34.221 3.21.664.86.443 1.52 1.133 1.95 2.07.45.938.67 2.146.67 3.623 0 1.491-.22 2.709-.67 3.653-.43.937-1.09 1.631-1.96 2.08-.87.443-1.94.664-3.21.664h-2.73l-4.09.049a.573.573 0 0 0-.36.133l-2.91 2.431c-.41.342-.17 1.01.36 1.01Z" fill="url(#paint108_linear_22990_157227)"/><path d="M1005.57 63h9.91c2.07 0 3.84-.4 5.32-1.201a8.147 8.147 0 0 0 3.42-3.447c.8-1.498 1.2-3.288 1.2-5.371 0-2.077-.4-3.861-1.2-5.352a8.164 8.164 0 0 0-3.4-3.428c-1.48-.8-3.23-1.201-5.28-1.201h-4.4c-1.58 0-2.86 1.28-2.86 2.857V55.8c0 .599.69.931 1.16.557l4.71-3.768c.42-.337.18-1.018-.36-1.018h-.64a.567.567 0 0 1-.57-.571v-2.948c0-.79.64-1.429 1.42-1.429h1.31c1.27 0 2.34.221 3.21.664.86.443 1.52 1.133 1.95 2.07.45.938.67 2.146.67 3.623 0 1.491-.22 2.709-.67 3.653-.43.937-1.09 1.63-1.96 2.08-.87.443-1.94.664-3.21.664h-2.73l-4.09.05a.576.576 0 0 0-.36.132l-2.91 2.43c-.41.343-.17 1.011.36 1.011Z" fill="url(#paint109_linear_22990_157227)"/><path d="M837.573 125h9.909c2.064 0 3.836-.4 5.318-1.201a8.18 8.18 0 0 0 3.422-3.447c.801-1.498 1.201-3.288 1.201-5.372 0-2.076-.4-3.86-1.201-5.351a8.162 8.162 0 0 0-3.402-3.428c-1.475-.801-3.234-1.201-5.278-1.201h-4.405a2.857 2.857 0 0 0-2.857 2.857v9.943c0 .598.693.931 1.16.557l4.711-3.768a.572.572 0 0 0-.357-1.018h-.647a.57.57 0 0 1-.571-.571v-2.948c0-.789.639-1.429 1.428-1.429h1.31c1.27 0 2.338.221 3.204.664.866.443 1.518 1.133 1.954 2.07.444.938.665 2.146.665 3.623 0 1.491-.221 2.709-.665 3.653-.436.937-1.091 1.631-1.964 2.08-.866.443-1.934.664-3.204.664h-2.738l-4.083.049a.57.57 0 0 0-.359.133l-2.917 2.431a.571.571 0 0 0 .366 1.01Z" fill="url(#paint110_linear_22990_157227)"/><path d="M601.573 63h9.909c2.064 0 3.836-.4 5.318-1.201a8.177 8.177 0 0 0 3.422-3.447c.801-1.498 1.201-3.288 1.201-5.371 0-2.077-.4-3.861-1.201-5.352a8.163 8.163 0 0 0-3.402-3.428c-1.475-.8-3.234-1.201-5.278-1.201h-4.405a2.857 2.857 0 0 0-2.857 2.857V55.8c0 .599.693.931 1.16.557l4.711-3.768a.571.571 0 0 0-.357-1.018h-.647a.57.57 0 0 1-.571-.571v-2.948c0-.79.639-1.429 1.428-1.429h1.31c1.27 0 2.338.221 3.204.664.866.443 1.518 1.133 1.954 2.07.444.938.665 2.146.665 3.623 0 1.491-.221 2.709-.665 3.653-.436.937-1.091 1.63-1.964 2.08-.866.443-1.934.664-3.204.664h-2.738l-4.083.05a.573.573 0 0 0-.359.132l-2.917 2.43a.571.571 0 0 0 .366 1.011Z" fill="url(#paint111_linear_22990_157227)"/><defs><linearGradient id="paint0_linear_22990_157227" x1="191.5" y1="51.9999" x2="1470.5" y2="51.9999" gradientUnits="userSpaceOnUse"><stop stop-color="#2C3139"/><stop offset="1" stop-color="#353B6C"/></linearGradient><linearGradient id="paint1_linear_22990_157227" x1="15" y1="70" x2="1625" y2="83.9999" gradientUnits="userSpaceOnUse"><stop stop-color="#19202B"/><stop offset="1" stop-color="#30355C"/></linearGradient><linearGradient id="paint2_linear_22990_157227" x1="15" y1="70" x2="1625" y2="83.9999" gradientUnits="userSpaceOnUse"><stop stop-color="#19202B"/><stop offset="1" stop-color="#30355C"/></linearGradient><linearGradient id="paint3_linear_22990_157227" x1="15" y1="70" x2="1625" y2="83.9999" gradientUnits="userSpaceOnUse"><stop stop-color="#19202B"/><stop offset="1" stop-color="#30355C"/></linearGradient><linearGradient id="paint4_linear_22990_157227" x1="15" y1="70" x2="1625" y2="83.9999" gradientUnits="userSpaceOnUse"><stop stop-color="#19202B"/><stop offset="1" stop-color="#30355C"/></linearGradient><linearGradient id="paint5_linear_22990_157227" x1="15" y1="70" x2="1625" y2="83.9999" gradientUnits="userSpaceOnUse"><stop stop-color="#19202B"/><stop offset="1" stop-color="#30355C"/></linearGradient><linearGradient id="paint6_linear_22990_157227" x1="15" y1="70" x2="1625" y2="83.9999" gradientUnits="userSpaceOnUse"><stop stop-color="#19202B"/><stop offset="1" stop-color="#30355C"/></linearGradient><linearGradient id="paint7_linear_22990_157227" x1="15" y1="70" x2="1625" y2="83.9999" gradientUnits="userSpaceOnUse"><stop stop-color="#19202B"/><stop offset="1" stop-color="#30355C"/></linearGradient><linearGradient id="paint8_linear_22990_157227" x1="15" y1="70" x2="1625" y2="83.9999" gradientUnits="userSpaceOnUse"><stop stop-color="#19202B"/><stop offset="1" stop-color="#30355C"/></linearGradient><linearGradient id="paint9_linear_22990_157227" x1="15" y1="70" x2="1625" y2="83.9999" gradientUnits="userSpaceOnUse"><stop stop-color="#19202B"/><stop offset="1" stop-color="#30355C"/></linearGradient><linearGradient id="paint10_linear_22990_157227" x1="15" y1="70" x2="1625" y2="83.9999" gradientUnits="userSpaceOnUse"><stop stop-color="#19202B"/><stop offset="1" stop-color="#30355C"/></linearGradient><linearGradient id="paint11_linear_22990_157227" x1="15" y1="70" x2="1625" y2="83.9999" gradientUnits="userSpaceOnUse"><stop stop-color="#19202B"/><stop offset="1" stop-color="#30355C"/></linearGradient><linearGradient id="paint12_linear_22990_157227" x1="15" y1="70" x2="1625" y2="83.9999" gradientUnits="userSpaceOnUse"><stop stop-color="#19202B"/><stop offset="1" stop-color="#30355C"/></linearGradient><linearGradient id="paint13_linear_22990_157227" x1="15" y1="70" x2="1625" y2="83.9999" gradientUnits="userSpaceOnUse"><stop stop-color="#19202B"/><stop offset="1" stop-color="#30355C"/></linearGradient><linearGradient id="paint14_linear_22990_157227" x1="15" y1="70" x2="1625" y2="83.9999" gradientUnits="userSpaceOnUse"><stop stop-color="#19202B"/><stop offset="1" stop-color="#30355C"/></linearGradient><linearGradient id="paint15_linear_22990_157227" x1="15" y1="70" x2="1625" y2="83.9999" gradientUnits="userSpaceOnUse"><stop stop-color="#19202B"/><stop offset="1" stop-color="#30355C"/></linearGradient><linearGradient id="paint16_linear_22990_157227" x1="15" y1="70" x2="1625" y2="83.9999" gradientUnits="userSpaceOnUse"><stop stop-color="#19202B"/><stop offset="1" stop-color="#30355C"/></linearGradient><linearGradient id="paint17_linear_22990_157227" x1="15" y1="70" x2="1625" y2="83.9999" gradientUnits="userSpaceOnUse"><stop stop-color="#19202B"/><stop offset="1" stop-color="#30355C"/></linearGradient><linearGradient id="paint18_linear_22990_157227" x1="15" y1="70" x2="1625" y2="83.9999" gradientUnits="userSpaceOnUse"><stop stop-color="#19202B"/><stop offset="1" stop-color="#30355C"/></linearGradient><linearGradient id="paint19_linear_22990_157227" x1="15" y1="70" x2="1625" y2="83.9999" gradientUnits="userSpaceOnUse"><stop stop-color="#19202B"/><stop offset="1" stop-color="#30355C"/></linearGradient><linearGradient id="paint20_linear_22990_157227" x1="15" y1="70" x2="1625" y2="83.9999" gradientUnits="userSpaceOnUse"><stop stop-color="#19202B"/><stop offset="1" stop-color="#30355C"/></linearGradient><linearGradient id="paint21_linear_22990_157227" x1="15" y1="70" x2="1625" y2="83.9999" gradientUnits="userSpaceOnUse"><stop stop-color="#19202B"/><stop offset="1" stop-color="#30355C"/></linearGradient><linearGradient id="paint22_linear_22990_157227" x1="15" y1="70" x2="1625" y2="83.9999" gradientUnits="userSpaceOnUse"><stop stop-color="#19202B"/><stop offset="1" stop-color="#30355C"/></linearGradient><linearGradient id="paint23_linear_22990_157227" x1="15" y1="70" x2="1625" y2="83.9999" gradientUnits="userSpaceOnUse"><stop stop-color="#19202B"/><stop offset="1" stop-color="#30355C"/></linearGradient><linearGradient id="paint24_linear_22990_157227" x1="15" y1="70" x2="1625" y2="83.9999" gradientUnits="userSpaceOnUse"><stop stop-color="#19202B"/><stop offset="1" stop-color="#30355C"/></linearGradient><linearGradient id="paint25_linear_22990_157227" x1="15" y1="70" x2="1625" y2="83.9999" gradientUnits="userSpaceOnUse"><stop stop-color="#19202B"/><stop offset="1" stop-color="#30355C"/></linearGradient><linearGradient id="paint26_linear_22990_157227" x1="15" y1="70" x2="1625" y2="83.9999" gradientUnits="userSpaceOnUse"><stop stop-color="#19202B"/><stop offset="1" stop-color="#30355C"/></linearGradient><linearGradient id="paint27_linear_22990_157227" x1="15" y1="70" x2="1625" y2="83.9999" gradientUnits="userSpaceOnUse"><stop stop-color="#19202B"/><stop offset="1" stop-color="#30355C"/></linearGradient><linearGradient id="paint28_linear_22990_157227" x1="15" y1="70" x2="1625" y2="83.9999" gradientUnits="userSpaceOnUse"><stop stop-color="#19202B"/><stop offset="1" stop-color="#30355C"/></linearGradient><linearGradient id="paint29_linear_22990_157227" x1="15" y1="70" x2="1625" y2="83.9999" gradientUnits="userSpaceOnUse"><stop stop-color="#19202B"/><stop offset="1" stop-color="#30355C"/></linearGradient><linearGradient id="paint30_linear_22990_157227" x1="15" y1="70" x2="1625" y2="83.9999" gradientUnits="userSpaceOnUse"><stop stop-color="#19202B"/><stop offset="1" stop-color="#30355C"/></linearGradient><linearGradient id="paint31_linear_22990_157227" x1="15" y1="70" x2="1625" y2="83.9999" gradientUnits="userSpaceOnUse"><stop stop-color="#19202B"/><stop offset="1" stop-color="#30355C"/></linearGradient><linearGradient id="paint32_linear_22990_157227" x1="15" y1="70" x2="1625" y2="83.9999" gradientUnits="userSpaceOnUse"><stop stop-color="#19202B"/><stop offset="1" stop-color="#30355C"/></linearGradient><linearGradient id="paint33_linear_22990_157227" x1="15" y1="70" x2="1625" y2="83.9999" gradientUnits="userSpaceOnUse"><stop stop-color="#19202B"/><stop offset="1" stop-color="#30355C"/></linearGradient><linearGradient id="paint34_linear_22990_157227" x1="15" y1="70" x2="1625" y2="83.9999" gradientUnits="userSpaceOnUse"><stop stop-color="#19202B"/><stop offset="1" stop-color="#30355C"/></linearGradient><linearGradient id="paint35_linear_22990_157227" x1="15" y1="70" x2="1625" y2="83.9999" gradientUnits="userSpaceOnUse"><stop stop-color="#19202B"/><stop offset="1" stop-color="#30355C"/></linearGradient><linearGradient id="paint36_linear_22990_157227" x1="15" y1="70" x2="1625" y2="83.9999" gradientUnits="userSpaceOnUse"><stop stop-color="#19202B"/><stop offset="1" stop-color="#30355C"/></linearGradient><linearGradient id="paint37_linear_22990_157227" x1="15" y1="70" x2="1625" y2="83.9999" gradientUnits="userSpaceOnUse"><stop stop-color="#19202B"/><stop offset="1" stop-color="#30355C"/></linearGradient><linearGradient id="paint38_linear_22990_157227" x1="15" y1="70" x2="1625" y2="83.9999" gradientUnits="userSpaceOnUse"><stop stop-color="#19202B"/><stop offset="1" stop-color="#30355C"/></linearGradient><linearGradient id="paint39_linear_22990_157227" x1="15" y1="70" x2="1625" y2="83.9999" gradientUnits="userSpaceOnUse"><stop stop-color="#19202B"/><stop offset="1" stop-color="#30355C"/></linearGradient><linearGradient id="paint40_linear_22990_157227" x1="15" y1="70" x2="1625" y2="83.9999" gradientUnits="userSpaceOnUse"><stop stop-color="#19202B"/><stop offset="1" stop-color="#30355C"/></linearGradient><linearGradient id="paint41_linear_22990_157227" x1="15" y1="70" x2="1625" y2="83.9999" gradientUnits="userSpaceOnUse"><stop stop-color="#19202B"/><stop offset="1" stop-color="#30355C"/></linearGradient><linearGradient id="paint42_linear_22990_157227" x1="15" y1="70" x2="1625" y2="83.9999" gradientUnits="userSpaceOnUse"><stop stop-color="#19202B"/><stop offset="1" stop-color="#30355C"/></linearGradient><linearGradient id="paint43_linear_22990_157227" x1="15" y1="70" x2="1625" y2="83.9999" gradientUnits="userSpaceOnUse"><stop stop-color="#19202B"/><stop offset="1" stop-color="#30355C"/></linearGradient><linearGradient id="paint44_linear_22990_157227" x1="15" y1="70" x2="1625" y2="83.9999" gradientUnits="userSpaceOnUse"><stop stop-color="#19202B"/><stop offset="1" stop-color="#30355C"/></linearGradient><linearGradient id="paint45_linear_22990_157227" x1="15" y1="70" x2="1625" y2="83.9999" gradientUnits="userSpaceOnUse"><stop stop-color="#19202B"/><stop offset="1" stop-color="#30355C"/></linearGradient><linearGradient id="paint46_linear_22990_157227" x1="15" y1="70" x2="1625" y2="83.9999" gradientUnits="userSpaceOnUse"><stop stop-color="#19202B"/><stop offset="1" stop-color="#30355C"/></linearGradient><linearGradient id="paint47_linear_22990_157227" x1="15" y1="70" x2="1625" y2="83.9999" gradientUnits="userSpaceOnUse"><stop stop-color="#19202B"/><stop offset="1" stop-color="#30355C"/></linearGradient><linearGradient id="paint48_linear_22990_157227" x1="15" y1="70" x2="1625" y2="83.9999" gradientUnits="userSpaceOnUse"><stop stop-color="#19202B"/><stop offset="1" stop-color="#30355C"/></linearGradient><linearGradient id="paint49_linear_22990_157227" x1="15" y1="70" x2="1625" y2="83.9999" gradientUnits="userSpaceOnUse"><stop stop-color="#19202B"/><stop offset="1" stop-color="#30355C"/></linearGradient><linearGradient id="paint50_linear_22990_157227" x1="15" y1="70" x2="1625" y2="83.9999" gradientUnits="userSpaceOnUse"><stop stop-color="#19202B"/><stop offset="1" stop-color="#30355C"/></linearGradient><linearGradient id="paint51_linear_22990_157227" x1="15" y1="70" x2="1625" y2="83.9999" gradientUnits="userSpaceOnUse"><stop stop-color="#19202B"/><stop offset="1" stop-color="#30355C"/></linearGradient><linearGradient id="paint52_linear_22990_157227" x1="15" y1="70" x2="1625" y2="83.9999" gradientUnits="userSpaceOnUse"><stop stop-color="#19202B"/><stop offset="1" stop-color="#30355C"/></linearGradient><linearGradient id="paint53_linear_22990_157227" x1="15" y1="70" x2="1625" y2="83.9999" gradientUnits="userSpaceOnUse"><stop stop-color="#19202B"/><stop offset="1" stop-color="#30355C"/></linearGradient><linearGradient id="paint54_linear_22990_157227" x1="15" y1="70" x2="1625" y2="83.9999" gradientUnits="userSpaceOnUse"><stop stop-color="#19202B"/><stop offset="1" stop-color="#30355C"/></linearGradient><linearGradient id="paint55_linear_22990_157227" x1="15" y1="70" x2="1625" y2="83.9999" gradientUnits="userSpaceOnUse"><stop stop-color="#19202B"/><stop offset="1" stop-color="#30355C"/></linearGradient><linearGradient id="paint56_linear_22990_157227" x1="15" y1="70" x2="1625" y2="83.9999" gradientUnits="userSpaceOnUse"><stop stop-color="#19202B"/><stop offset="1" stop-color="#30355C"/></linearGradient><linearGradient id="paint57_linear_22990_157227" x1="15" y1="70" x2="1625" y2="83.9999" gradientUnits="userSpaceOnUse"><stop stop-color="#19202B"/><stop offset="1" stop-color="#30355C"/></linearGradient><linearGradient id="paint58_linear_22990_157227" x1="15" y1="70" x2="1625" y2="83.9999" gradientUnits="userSpaceOnUse"><stop stop-color="#19202B"/><stop offset="1" stop-color="#30355C"/></linearGradient><linearGradient id="paint59_linear_22990_157227" x1="15" y1="70" x2="1625" y2="83.9999" gradientUnits="userSpaceOnUse"><stop stop-color="#19202B"/><stop offset="1" stop-color="#30355C"/></linearGradient><linearGradient id="paint60_linear_22990_157227" x1="15" y1="70" x2="1625" y2="83.9999" gradientUnits="userSpaceOnUse"><stop stop-color="#19202B"/><stop offset="1" stop-color="#30355C"/></linearGradient><linearGradient id="paint61_linear_22990_157227" x1="15" y1="70" x2="1625" y2="83.9999" gradientUnits="userSpaceOnUse"><stop stop-color="#19202B"/><stop offset="1" stop-color="#30355C"/></linearGradient><linearGradient id="paint62_linear_22990_157227" x1="15" y1="70" x2="1625" y2="83.9999" gradientUnits="userSpaceOnUse"><stop stop-color="#19202B"/><stop offset="1" stop-color="#30355C"/></linearGradient><linearGradient id="paint63_linear_22990_157227" x1="15" y1="70" x2="1625" y2="83.9999" gradientUnits="userSpaceOnUse"><stop stop-color="#19202B"/><stop offset="1" stop-color="#30355C"/></linearGradient><linearGradient id="paint64_linear_22990_157227" x1="15" y1="70" x2="1625" y2="83.9999" gradientUnits="userSpaceOnUse"><stop stop-color="#19202B"/><stop offset="1" stop-color="#30355C"/></linearGradient><linearGradient id="paint65_linear_22990_157227" x1="15" y1="70" x2="1625" y2="83.9999" gradientUnits="userSpaceOnUse"><stop stop-color="#19202B"/><stop offset="1" stop-color="#30355C"/></linearGradient><linearGradient id="paint66_linear_22990_157227" x1="15" y1="70" x2="1625" y2="83.9999" gradientUnits="userSpaceOnUse"><stop stop-color="#19202B"/><stop offset="1" stop-color="#30355C"/></linearGradient><linearGradient id="paint67_linear_22990_157227" x1="15" y1="70" x2="1625" y2="83.9999" gradientUnits="userSpaceOnUse"><stop stop-color="#19202B"/><stop offset="1" stop-color="#30355C"/></linearGradient><linearGradient id="paint68_linear_22990_157227" x1="15" y1="70" x2="1625" y2="83.9999" gradientUnits="userSpaceOnUse"><stop stop-color="#19202B"/><stop offset="1" stop-color="#30355C"/></linearGradient><linearGradient id="paint69_linear_22990_157227" x1="15" y1="70" x2="1625" y2="83.9999" gradientUnits="userSpaceOnUse"><stop stop-color="#19202B"/><stop offset="1" stop-color="#30355C"/></linearGradient><linearGradient id="paint70_linear_22990_157227" x1="15" y1="70" x2="1625" y2="83.9999" gradientUnits="userSpaceOnUse"><stop stop-color="#19202B"/><stop offset="1" stop-color="#30355C"/></linearGradient><linearGradient id="paint71_linear_22990_157227" x1="15" y1="70" x2="1625" y2="83.9999" gradientUnits="userSpaceOnUse"><stop stop-color="#19202B"/><stop offset="1" stop-color="#30355C"/></linearGradient><linearGradient id="paint72_linear_22990_157227" x1="15" y1="70" x2="1625" y2="83.9999" gradientUnits="userSpaceOnUse"><stop stop-color="#19202B"/><stop offset="1" stop-color="#30355C"/></linearGradient><linearGradient id="paint73_linear_22990_157227" x1="15" y1="70" x2="1625" y2="83.9999" gradientUnits="userSpaceOnUse"><stop stop-color="#19202B"/><stop offset="1" stop-color="#30355C"/></linearGradient><linearGradient id="paint74_linear_22990_157227" x1="15" y1="70" x2="1625" y2="83.9999" gradientUnits="userSpaceOnUse"><stop stop-color="#19202B"/><stop offset="1" stop-color="#30355C"/></linearGradient><linearGradient id="paint75_linear_22990_157227" x1="15" y1="70" x2="1625" y2="83.9999" gradientUnits="userSpaceOnUse"><stop stop-color="#19202B"/><stop offset="1" stop-color="#30355C"/></linearGradient><linearGradient id="paint76_linear_22990_157227" x1="15" y1="70" x2="1625" y2="83.9999" gradientUnits="userSpaceOnUse"><stop stop-color="#19202B"/><stop offset="1" stop-color="#30355C"/></linearGradient><linearGradient id="paint77_linear_22990_157227" x1="15" y1="70" x2="1625" y2="83.9999" gradientUnits="userSpaceOnUse"><stop stop-color="#19202B"/><stop offset="1" stop-color="#30355C"/></linearGradient><linearGradient id="paint78_linear_22990_157227" x1="15" y1="70" x2="1625" y2="83.9999" gradientUnits="userSpaceOnUse"><stop stop-color="#19202B"/><stop offset="1" stop-color="#30355C"/></linearGradient><linearGradient id="paint79_linear_22990_157227" x1="15" y1="70" x2="1625" y2="83.9999" gradientUnits="userSpaceOnUse"><stop stop-color="#19202B"/><stop offset="1" stop-color="#30355C"/></linearGradient><linearGradient id="paint80_linear_22990_157227" x1="15" y1="70" x2="1625" y2="83.9999" gradientUnits="userSpaceOnUse"><stop stop-color="#19202B"/><stop offset="1" stop-color="#30355C"/></linearGradient><linearGradient id="paint81_linear_22990_157227" x1="15" y1="70" x2="1625" y2="83.9999" gradientUnits="userSpaceOnUse"><stop stop-color="#19202B"/><stop offset="1" stop-color="#30355C"/></linearGradient><linearGradient id="paint82_linear_22990_157227" x1="15" y1="70" x2="1625" y2="83.9999" gradientUnits="userSpaceOnUse"><stop stop-color="#19202B"/><stop offset="1" stop-color="#30355C"/></linearGradient><linearGradient id="paint83_linear_22990_157227" x1="15" y1="70" x2="1625" y2="83.9999" gradientUnits="userSpaceOnUse"><stop stop-color="#19202B"/><stop offset="1" stop-color="#30355C"/></linearGradient><linearGradient id="paint84_linear_22990_157227" x1="15" y1="70" x2="1625" y2="83.9999" gradientUnits="userSpaceOnUse"><stop stop-color="#19202B"/><stop offset="1" stop-color="#30355C"/></linearGradient><linearGradient id="paint85_linear_22990_157227" x1="15" y1="70" x2="1625" y2="83.9999" gradientUnits="userSpaceOnUse"><stop stop-color="#19202B"/><stop offset="1" stop-color="#30355C"/></linearGradient><linearGradient id="paint86_linear_22990_157227" x1="15" y1="70" x2="1625" y2="83.9999" gradientUnits="userSpaceOnUse"><stop stop-color="#19202B"/><stop offset="1" stop-color="#30355C"/></linearGradient><linearGradient id="paint87_linear_22990_157227" x1="15" y1="70" x2="1625" y2="83.9999" gradientUnits="userSpaceOnUse"><stop stop-color="#19202B"/><stop offset="1" stop-color="#30355C"/></linearGradient><linearGradient id="paint88_linear_22990_157227" x1="15" y1="70" x2="1625" y2="83.9999" gradientUnits="userSpaceOnUse"><stop stop-color="#19202B"/><stop offset="1" stop-color="#30355C"/></linearGradient><linearGradient id="paint89_linear_22990_157227" x1="257" y1="82.9999" x2="1398" y2="83" gradientUnits="userSpaceOnUse"><stop stop-color="#3C4155"/><stop offset="1" stop-color="#373F6D"/></linearGradient><linearGradient id="paint90_linear_22990_157227" x1="257" y1="82.9999" x2="1398" y2="83" gradientUnits="userSpaceOnUse"><stop stop-color="#3C4155"/><stop offset="1" stop-color="#373F6D"/></linearGradient><linearGradient id="paint91_linear_22990_157227" x1="257" y1="82.9999" x2="1398" y2="83" gradientUnits="userSpaceOnUse"><stop stop-color="#3C4155"/><stop offset="1" stop-color="#373F6D"/></linearGradient><linearGradient id="paint92_linear_22990_157227" x1="257" y1="82.9999" x2="1398" y2="83" gradientUnits="userSpaceOnUse"><stop stop-color="#3C4155"/><stop offset="1" stop-color="#373F6D"/></linearGradient><linearGradient id="paint93_linear_22990_157227" x1="257" y1="82.9999" x2="1398" y2="83" gradientUnits="userSpaceOnUse"><stop stop-color="#3C4155"/><stop offset="1" stop-color="#373F6D"/></linearGradient><linearGradient id="paint94_linear_22990_157227" x1="257" y1="82.9999" x2="1398" y2="83" gradientUnits="userSpaceOnUse"><stop stop-color="#3C4155"/><stop offset="1" stop-color="#373F6D"/></linearGradient><linearGradient id="paint95_linear_22990_157227" x1="257" y1="82.9999" x2="1398" y2="83" gradientUnits="userSpaceOnUse"><stop stop-color="#3C4155"/><stop offset="1" stop-color="#373F6D"/></linearGradient><linearGradient id="paint96_linear_22990_157227" x1="257" y1="82.9999" x2="1398" y2="83" gradientUnits="userSpaceOnUse"><stop stop-color="#3C4155"/><stop offset="1" stop-color="#373F6D"/></linearGradient><linearGradient id="paint97_linear_22990_157227" x1="257" y1="82.9999" x2="1398" y2="83" gradientUnits="userSpaceOnUse"><stop stop-color="#3C4155"/><stop offset="1" stop-color="#373F6D"/></linearGradient><linearGradient id="paint98_linear_22990_157227" x1="257" y1="82.9999" x2="1398" y2="83" gradientUnits="userSpaceOnUse"><stop stop-color="#3C4155"/><stop offset="1" stop-color="#373F6D"/></linearGradient><linearGradient id="paint99_linear_22990_157227" x1="257" y1="82.9999" x2="1398" y2="83" gradientUnits="userSpaceOnUse"><stop stop-color="#3C4155"/><stop offset="1" stop-color="#373F6D"/></linearGradient><linearGradient id="paint100_linear_22990_157227" x1="257" y1="82.9999" x2="1398" y2="83" gradientUnits="userSpaceOnUse"><stop stop-color="#3C4155"/><stop offset="1" stop-color="#373F6D"/></linearGradient><linearGradient id="paint101_linear_22990_157227" x1="257" y1="82.9999" x2="1398" y2="83" gradientUnits="userSpaceOnUse"><stop stop-color="#3C4155"/><stop offset="1" stop-color="#373F6D"/></linearGradient><linearGradient id="paint102_linear_22990_157227" x1="257" y1="82.9999" x2="1398" y2="83" gradientUnits="userSpaceOnUse"><stop stop-color="#3C4155"/><stop offset="1" stop-color="#373F6D"/></linearGradient><linearGradient id="paint103_linear_22990_157227" x1="257" y1="82.9999" x2="1398" y2="83" gradientUnits="userSpaceOnUse"><stop stop-color="#3C4155"/><stop offset="1" stop-color="#373F6D"/></linearGradient><linearGradient id="paint104_linear_22990_157227" x1="257" y1="82.9999" x2="1398" y2="83" gradientUnits="userSpaceOnUse"><stop stop-color="#3C4155"/><stop offset="1" stop-color="#373F6D"/></linearGradient><linearGradient id="paint105_linear_22990_157227" x1="257" y1="82.9999" x2="1398" y2="83" gradientUnits="userSpaceOnUse"><stop stop-color="#3C4155"/><stop offset="1" stop-color="#373F6D"/></linearGradient><linearGradient id="paint106_linear_22990_157227" x1="314.874" y1="83.3994" x2="1216.33" y2="83.3996" gradientUnits="userSpaceOnUse"><stop stop-color="#1E212E"/><stop offset="1" stop-color="#282E52"/></linearGradient><linearGradient id="paint107_linear_22990_157227" x1="314.874" y1="83.3994" x2="1216.33" y2="83.3996" gradientUnits="userSpaceOnUse"><stop stop-color="#1E212E"/><stop offset="1" stop-color="#282E52"/></linearGradient><linearGradient id="paint108_linear_22990_157227" x1="314.874" y1="83.3994" x2="1216.33" y2="83.3996" gradientUnits="userSpaceOnUse"><stop stop-color="#1E212E"/><stop offset="1" stop-color="#282E52"/></linearGradient><linearGradient id="paint109_linear_22990_157227" x1="314.874" y1="83.3994" x2="1216.33" y2="83.3996" gradientUnits="userSpaceOnUse"><stop stop-color="#1E212E"/><stop offset="1" stop-color="#282E52"/></linearGradient><linearGradient id="paint110_linear_22990_157227" x1="314.874" y1="83.3994" x2="1216.33" y2="83.3996" gradientUnits="userSpaceOnUse"><stop stop-color="#1E212E"/><stop offset="1" stop-color="#282E52"/></linearGradient><linearGradient id="paint111_linear_22990_157227" x1="314.874" y1="83.3994" x2="1216.33" y2="83.3996" gradientUnits="userSpaceOnUse"><stop stop-color="#1E212E"/><stop offset="1" stop-color="#282E52"/></linearGradient></defs></svg>