<svg width="272" height="169" viewBox="0 0 272 169" fill="none" xmlns="http://www.w3.org/2000/svg"><g filter="url(#filter0_b_22053_64527)"><path d="M0 0h1376v200H0V0Z" fill="#F8F8FF"/></g><mask id="path-2-inside-1_22053_64527" fill="white"><path d="M1149.75-18.085a9.707 9.707 0 0 1 9.72 0l18.35 10.603a9.731 9.731 0 0 1 4.86 8.43v21.207a9.731 9.731 0 0 1-4.86 8.43l-18.35 10.603a9.708 9.708 0 0 1-9.72 0l-18.35-10.603a9.752 9.752 0 0 1-4.86-8.43V.948a9.752 9.752 0 0 1 4.86-8.43l18.35-10.604Zm67.34 0a9.707 9.707 0 0 1 9.72 0l18.34 10.603a9.74 9.74 0 0 1 4.87 8.43v21.207a9.74 9.74 0 0 1-4.87 8.43l-18.34 10.603a9.708 9.708 0 0 1-9.72 0l-18.35-10.603a9.731 9.731 0 0 1-4.86-8.43V.948a9.731 9.731 0 0 1 4.86-8.43l18.35-10.604Zm-33.67 61.61a9.708 9.708 0 0 1 9.72 0l18.35 10.603a9.752 9.752 0 0 1 4.86 8.43v21.207a9.752 9.752 0 0 1-4.86 8.43l-18.35 10.603a9.707 9.707 0 0 1-9.72 0l-18.35-10.603a9.731 9.731 0 0 1-4.86-8.43V62.558a9.731 9.731 0 0 1 4.86-8.43l18.35-10.603Zm-33.67 61.61a9.707 9.707 0 0 1 9.72 0l18.35 10.603a9.731 9.731 0 0 1 4.86 8.43v21.207a9.731 9.731 0 0 1-4.86 8.43l-18.35 10.603a9.707 9.707 0 0 1-9.72 0l-18.35-10.603a9.752 9.752 0 0 1-4.86-8.43v-21.207a9.752 9.752 0 0 1 4.86-8.43l18.35-10.603Zm67.34 0a9.707 9.707 0 0 1 9.72 0l18.34 10.603a9.74 9.74 0 0 1 4.87 8.43v21.207a9.74 9.74 0 0 1-4.87 8.43l-18.34 10.603a9.707 9.707 0 0 1-9.72 0l-18.35-10.603a9.731 9.731 0 0 1-4.86-8.43v-21.207a9.731 9.731 0 0 1 4.86-8.43l18.35-10.603Zm-33.67 61.61a9.707 9.707 0 0 1 9.72 0l18.35 10.603a9.753 9.753 0 0 1 4.86 8.43v21.207a9.752 9.752 0 0 1-4.86 8.43l-18.35 10.603a9.707 9.707 0 0 1-9.72 0l-18.35-10.603a9.731 9.731 0 0 1-4.86-8.43v-21.207a9.732 9.732 0 0 1 4.86-8.43l18.35-10.603ZM-194.251-18.085a9.713 9.713 0 0 1 9.723 0l18.345 10.603a9.737 9.737 0 0 1 4.862 8.43v21.207a9.737 9.737 0 0 1-4.862 8.43l-18.345 10.603a9.714 9.714 0 0 1-9.723 0l-18.345-10.603a9.735 9.735 0 0 1-4.862-8.43V.948a9.735 9.735 0 0 1 4.862-8.43l18.345-10.604Zm67.338 0a9.713 9.713 0 0 1 9.723 0l18.345 10.603a9.736 9.736 0 0 1 4.861 8.43v21.207a9.736 9.736 0 0 1-4.861 8.43l-18.345 10.603a9.714 9.714 0 0 1-9.723 0l-18.345-10.603a9.735 9.735 0 0 1-4.862-8.43V.948a9.735 9.735 0 0 1 4.862-8.43l18.345-10.604Zm67.147 0a9.713 9.713 0 0 1 9.723 0l18.346 10.603a9.736 9.736 0 0 1 4.861 8.43v21.207a9.736 9.736 0 0 1-4.861 8.43l-18.346 10.603a9.714 9.714 0 0 1-9.723 0L-78.11 30.585a9.736 9.736 0 0 1-4.861-8.43V.948a9.736 9.736 0 0 1 4.861-8.43l18.345-10.604Zm67.211 0a9.713 9.713 0 0 1 9.724 0L35.514-7.482a9.736 9.736 0 0 1 4.861 8.43v21.207a9.736 9.736 0 0 1-4.861 8.43L17.168 41.188a9.714 9.714 0 0 1-9.723 0L-10.9 30.585a9.736 9.736 0 0 1-4.861-8.43V.948a9.736 9.736 0 0 1 4.861-8.43L7.445-18.086Zm67.211 0a9.713 9.713 0 0 1 9.723 0l18.346 10.603a9.736 9.736 0 0 1 4.861 8.43v21.207a9.736 9.736 0 0 1-4.861 8.43L84.379 41.188a9.714 9.714 0 0 1-9.723 0L56.311 30.585a9.736 9.736 0 0 1-4.861-8.43V.948a9.736 9.736 0 0 1 4.861-8.43l18.345-10.604Zm67.148 0a9.713 9.713 0 0 1 9.723 0l18.345 10.603a9.735 9.735 0 0 1 4.862 8.43v21.207a9.735 9.735 0 0 1-4.862 8.43l-18.345 10.603a9.714 9.714 0 0 1-9.723 0l-18.345-10.603a9.735 9.735 0 0 1-4.862-8.43V.948a9.735 9.735 0 0 1 4.862-8.43l18.345-10.604Zm67.211 0a9.713 9.713 0 0 1 9.723 0l18.345 10.603a9.735 9.735 0 0 1 4.862 8.43v21.207a9.735 9.735 0 0 1-4.862 8.43l-18.345 10.603a9.714 9.714 0 0 1-9.723 0L190.67 30.585a9.737 9.737 0 0 1-4.862-8.43V.948a9.737 9.737 0 0 1 4.862-8.43l18.345-10.604Zm-436.808 61.61a9.714 9.714 0 0 1 9.723 0l18.345 10.603a9.737 9.737 0 0 1 4.862 8.43v21.207a9.737 9.737 0 0 1-4.862 8.43l-18.345 10.603a9.713 9.713 0 0 1-9.723 0l-18.345-10.603a9.735 9.735 0 0 1-4.862-8.43V62.558a9.735 9.735 0 0 1 4.862-8.43l18.345-10.603Zm67.211 0a9.714 9.714 0 0 1 9.723 0l18.345 10.603a9.737 9.737 0 0 1 4.862 8.43v21.207a9.737 9.737 0 0 1-4.862 8.43l-18.345 10.603a9.713 9.713 0 0 1-9.723 0l-18.345-10.603a9.735 9.735 0 0 1-4.862-8.43V62.558a9.735 9.735 0 0 1 4.862-8.43l18.345-10.603Zm67.338 0a9.714 9.714 0 0 1 9.723 0l18.345 10.603a9.736 9.736 0 0 1 4.861 8.43v21.207a9.736 9.736 0 0 1-4.861 8.43l-18.345 10.603a9.713 9.713 0 0 1-9.723 0l-18.345-10.603a9.735 9.735 0 0 1-4.862-8.43V62.558a9.735 9.735 0 0 1 4.862-8.43l18.345-10.603Zm67.147 0a9.714 9.714 0 0 1 9.723 0L1.971 54.128a9.736 9.736 0 0 1 4.862 8.43v21.207a9.736 9.736 0 0 1-4.862 8.43l-18.345 10.603a9.713 9.713 0 0 1-9.723 0l-18.345-10.603a9.736 9.736 0 0 1-4.861-8.43V62.558a9.736 9.736 0 0 1 4.861-8.43l18.345-10.603Zm67.211 0a9.714 9.714 0 0 1 9.723 0l18.346 10.603a9.736 9.736 0 0 1 4.861 8.43v21.207a9.736 9.736 0 0 1-4.861 8.43l-18.346 10.603a9.713 9.713 0 0 1-9.723 0L22.77 92.195a9.736 9.736 0 0 1-4.861-8.43V62.558a9.736 9.736 0 0 1 4.861-8.43l18.345-10.603Zm67.211 0a9.714 9.714 0 0 1 9.723 0l18.346 10.603a9.736 9.736 0 0 1 4.861 8.43v21.207a9.736 9.736 0 0 1-4.861 8.43l-18.346 10.603a9.713 9.713 0 0 1-9.723 0L89.98 92.195a9.736 9.736 0 0 1-4.861-8.43V62.558a9.736 9.736 0 0 1 4.861-8.43l18.345-10.603Zm67.148 0a9.714 9.714 0 0 1 9.723 0l18.345 10.603a9.737 9.737 0 0 1 4.862 8.43v21.207a9.737 9.737 0 0 1-4.862 8.43l-18.345 10.603a9.713 9.713 0 0 1-9.723 0l-18.345-10.603a9.735 9.735 0 0 1-4.862-8.43V62.558a9.735 9.735 0 0 1 4.862-8.43l18.345-10.603Zm67.211 0a9.714 9.714 0 0 1 9.723 0l18.345 10.603a9.735 9.735 0 0 1 4.862 8.43v21.207a9.735 9.735 0 0 1-4.862 8.43l-18.345 10.603a9.713 9.713 0 0 1-9.723 0l-18.345-10.603a9.735 9.735 0 0 1-4.862-8.43V62.558a9.735 9.735 0 0 1 4.862-8.43l18.345-10.603Zm-436.935 61.61a9.713 9.713 0 0 1 9.723 0l18.345 10.603a9.737 9.737 0 0 1 4.862 8.43v21.207a9.737 9.737 0 0 1-4.862 8.43l-18.345 10.603a9.713 9.713 0 0 1-9.723 0l-18.345-10.603a9.735 9.735 0 0 1-4.862-8.43v-21.207a9.735 9.735 0 0 1 4.862-8.43l18.345-10.603Zm67.338 0a9.713 9.713 0 0 1 9.723 0l18.345 10.603a9.736 9.736 0 0 1 4.861 8.43v21.207a9.736 9.736 0 0 1-4.861 8.43l-18.345 10.603a9.713 9.713 0 0 1-9.723 0l-18.345-10.603a9.735 9.735 0 0 1-4.862-8.43v-21.207a9.735 9.735 0 0 1 4.862-8.43l18.345-10.603Zm67.147 0a9.713 9.713 0 0 1 9.723 0l18.346 10.603a9.736 9.736 0 0 1 4.861 8.43v21.207a9.736 9.736 0 0 1-4.861 8.43l-18.346 10.603a9.713 9.713 0 0 1-9.723 0l-18.345-10.603a9.736 9.736 0 0 1-4.861-8.43v-21.207a9.736 9.736 0 0 1 4.861-8.43l18.345-10.603Zm67.211 0a9.713 9.713 0 0 1 9.724 0l18.345 10.603a9.736 9.736 0 0 1 4.861 8.43v21.207a9.736 9.736 0 0 1-4.861 8.43l-18.346 10.603a9.713 9.713 0 0 1-9.723 0L-10.9 153.805a9.736 9.736 0 0 1-4.861-8.43v-21.207a9.736 9.736 0 0 1 4.861-8.43l18.345-10.603Zm67.211 0a9.713 9.713 0 0 1 9.723 0l18.346 10.603a9.736 9.736 0 0 1 4.861 8.43v21.207a9.736 9.736 0 0 1-4.861 8.43l-18.346 10.603a9.713 9.713 0 0 1-9.723 0l-18.345-10.603a9.736 9.736 0 0 1-4.861-8.43v-21.207a9.736 9.736 0 0 1 4.861-8.43l18.345-10.603Zm67.148 0a9.713 9.713 0 0 1 9.723 0l18.345 10.603a9.735 9.735 0 0 1 4.862 8.43v21.207a9.735 9.735 0 0 1-4.862 8.43l-18.345 10.603a9.713 9.713 0 0 1-9.723 0l-18.345-10.603a9.735 9.735 0 0 1-4.862-8.43v-21.207a9.735 9.735 0 0 1 4.862-8.43l18.345-10.603Zm67.211 0a9.713 9.713 0 0 1 9.723 0l18.345 10.603a9.735 9.735 0 0 1 4.862 8.43v21.207a9.735 9.735 0 0 1-4.862 8.43l-18.345 10.603a9.713 9.713 0 0 1-9.723 0l-18.345-10.603a9.737 9.737 0 0 1-4.862-8.43v-21.207a9.737 9.737 0 0 1 4.862-8.43l18.345-10.603Zm-436.808 61.61a9.713 9.713 0 0 1 9.723 0l18.345 10.603a9.738 9.738 0 0 1 4.862 8.43v21.207a9.737 9.737 0 0 1-4.862 8.43l-18.345 10.603a9.713 9.713 0 0 1-9.723 0l-18.345-10.603a9.735 9.735 0 0 1-4.862-8.43v-21.207a9.736 9.736 0 0 1 4.862-8.43l18.345-10.603Zm67.211 0a9.713 9.713 0 0 1 9.723 0l18.345 10.603a9.738 9.738 0 0 1 4.862 8.43v21.207a9.737 9.737 0 0 1-4.862 8.43l-18.345 10.603a9.713 9.713 0 0 1-9.723 0l-18.345-10.603a9.735 9.735 0 0 1-4.862-8.43v-21.207a9.736 9.736 0 0 1 4.862-8.43l18.345-10.603Zm67.338 0a9.713 9.713 0 0 1 9.723 0l18.345 10.603a9.737 9.737 0 0 1 4.861 8.43v21.207a9.736 9.736 0 0 1-4.861 8.43l-18.345 10.603a9.713 9.713 0 0 1-9.723 0l-18.345-10.603a9.735 9.735 0 0 1-4.862-8.43v-21.207a9.736 9.736 0 0 1 4.862-8.43l18.345-10.603Zm67.147 0a9.713 9.713 0 0 1 9.723 0l18.345 10.603a9.737 9.737 0 0 1 4.862 8.43v21.207a9.736 9.736 0 0 1-4.862 8.43l-18.345 10.603a9.713 9.713 0 0 1-9.723 0l-18.345-10.603a9.736 9.736 0 0 1-4.861-8.43v-21.207a9.737 9.737 0 0 1 4.861-8.43l18.345-10.603Zm67.211 0a9.713 9.713 0 0 1 9.723 0l18.346 10.603a9.737 9.737 0 0 1 4.861 8.43v21.207a9.736 9.736 0 0 1-4.861 8.43l-18.346 10.603a9.713 9.713 0 0 1-9.723 0L22.77 215.415a9.736 9.736 0 0 1-4.861-8.43v-21.207a9.737 9.737 0 0 1 4.861-8.43l18.345-10.603Zm67.211 0a9.713 9.713 0 0 1 9.723 0l18.346 10.603a9.737 9.737 0 0 1 4.861 8.43v21.207a9.736 9.736 0 0 1-4.861 8.43l-18.346 10.603a9.713 9.713 0 0 1-9.723 0L89.98 215.415a9.736 9.736 0 0 1-4.861-8.43v-21.207a9.737 9.737 0 0 1 4.861-8.43l18.345-10.603Zm67.148 0a9.713 9.713 0 0 1 9.723 0l18.345 10.603a9.738 9.738 0 0 1 4.862 8.43v21.207a9.737 9.737 0 0 1-4.862 8.43l-18.345 10.603a9.713 9.713 0 0 1-9.723 0l-18.345-10.603a9.735 9.735 0 0 1-4.862-8.43v-21.207a9.736 9.736 0 0 1 4.862-8.43l18.345-10.603Zm67.211 0a9.713 9.713 0 0 1 9.723 0l18.345 10.603a9.736 9.736 0 0 1 4.862 8.43v21.207a9.735 9.735 0 0 1-4.862 8.43l-18.345 10.603a9.713 9.713 0 0 1-9.723 0l-18.345-10.603a9.735 9.735 0 0 1-4.862-8.43v-21.207a9.736 9.736 0 0 1 4.862-8.43l18.345-10.603Zm504.403-184.83a9.713 9.713 0 0 1 9.723 0l18.345 10.603a9.736 9.736 0 0 1 4.861 8.43v21.207a9.736 9.736 0 0 1-4.861 8.43L756.81 41.188a9.714 9.714 0 0 1-9.723 0l-18.345-10.603a9.735 9.735 0 0 1-4.862-8.43V.948a9.735 9.735 0 0 1 4.862-8.43l18.345-10.604Zm67.147 0a9.713 9.713 0 0 1 9.723 0l18.345 10.603a9.735 9.735 0 0 1 4.862 8.43v21.207a9.735 9.735 0 0 1-4.862 8.43l-18.345 10.603a9.714 9.714 0 0 1-9.723 0l-18.345-10.603a9.736 9.736 0 0 1-4.861-8.43V.948a9.736 9.736 0 0 1 4.861-8.43l18.345-10.604Zm67.211 0a9.713 9.713 0 0 1 9.723 0l18.346 10.603a9.736 9.736 0 0 1 4.861 8.43v21.207a9.736 9.736 0 0 1-4.861 8.43l-18.346 10.603a9.714 9.714 0 0 1-9.723 0L863.1 30.585a9.736 9.736 0 0 1-4.861-8.43V.948a9.736 9.736 0 0 1 4.861-8.43l18.345-10.604Zm67.211 0a9.713 9.713 0 0 1 9.723 0l18.346 10.603a9.736 9.736 0 0 1 4.861 8.43v21.207a9.736 9.736 0 0 1-4.861 8.43l-18.346 10.603a9.714 9.714 0 0 1-9.723 0l-18.345-10.603a9.736 9.736 0 0 1-4.861-8.43V.948a9.736 9.736 0 0 1 4.861-8.43l18.345-10.604Zm67.144 0a9.726 9.726 0 0 1 9.73 0l18.34 10.603a9.731 9.731 0 0 1 4.86 8.43v21.207a9.731 9.731 0 0 1-4.86 8.43l-18.34 10.603a9.727 9.727 0 0 1-9.73 0l-18.341-10.603a9.735 9.735 0 0 1-4.862-8.43V.948a9.735 9.735 0 0 1 4.862-8.43l18.341-10.604Zm67.21 0a9.726 9.726 0 0 1 9.73 0l18.34 10.603a9.731 9.731 0 0 1 4.86 8.43v21.207a9.731 9.731 0 0 1-4.86 8.43l-18.34 10.603a9.727 9.727 0 0 1-9.73 0l-18.34-10.603a9.731 9.731 0 0 1-4.86-8.43V.948a9.731 9.731 0 0 1 4.86-8.43l18.34-10.604Zm-302.254 61.61a9.714 9.714 0 0 1 9.723 0l18.345 10.603a9.736 9.736 0 0 1 4.861 8.43v21.207a9.736 9.736 0 0 1-4.861 8.43l-18.345 10.603a9.713 9.713 0 0 1-9.723 0l-18.345-10.603a9.735 9.735 0 0 1-4.862-8.43V62.558a9.735 9.735 0 0 1 4.862-8.43l18.345-10.603Zm67.147 0a9.714 9.714 0 0 1 9.723 0l18.345 10.603a9.735 9.735 0 0 1 4.862 8.43v21.207a9.735 9.735 0 0 1-4.862 8.43l-18.345 10.603a9.713 9.713 0 0 1-9.723 0l-18.345-10.603a9.736 9.736 0 0 1-4.861-8.43V62.558a9.736 9.736 0 0 1 4.861-8.43l18.345-10.603Zm67.211 0a9.714 9.714 0 0 1 9.723 0l18.345 10.603a9.735 9.735 0 0 1 4.862 8.43v21.207a9.735 9.735 0 0 1-4.862 8.43l-18.345 10.603a9.713 9.713 0 0 1-9.723 0l-18.345-10.603a9.736 9.736 0 0 1-4.861-8.43V62.558a9.736 9.736 0 0 1 4.861-8.43l18.345-10.603Zm67.211 0a9.714 9.714 0 0 1 9.723 0l18.342 10.603a9.74 9.74 0 0 1 4.87 8.43v21.207a9.74 9.74 0 0 1-4.87 8.43l-18.342 10.603a9.713 9.713 0 0 1-9.723 0L963.98 92.195a9.736 9.736 0 0 1-4.861-8.43V62.558a9.736 9.736 0 0 1 4.861-8.43l18.345-10.603Zm67.145 0a9.727 9.727 0 0 1 9.73 0l18.34 10.603a9.731 9.731 0 0 1 4.86 8.43v21.207a9.731 9.731 0 0 1-4.86 8.43l-18.34 10.603a9.726 9.726 0 0 1-9.73 0l-18.34-10.603a9.731 9.731 0 0 1-4.86-8.43V62.558a9.731 9.731 0 0 1 4.86-8.43l18.34-10.603Zm67.21 0a9.727 9.727 0 0 1 9.73 0l18.34 10.603a9.731 9.731 0 0 1 4.86 8.43v21.207a9.731 9.731 0 0 1-4.86 8.43l-18.34 10.603a9.726 9.726 0 0 1-9.73 0l-18.34-10.603a9.731 9.731 0 0 1-4.86-8.43V62.558a9.731 9.731 0 0 1 4.86-8.43l18.34-10.603Zm-369.593 61.61a9.713 9.713 0 0 1 9.723 0l18.345 10.603a9.736 9.736 0 0 1 4.861 8.43v21.207a9.736 9.736 0 0 1-4.861 8.43l-18.345 10.603a9.713 9.713 0 0 1-9.723 0l-18.345-10.603a9.735 9.735 0 0 1-4.862-8.43v-21.207a9.735 9.735 0 0 1 4.862-8.43l18.345-10.603Zm67.147 0a9.713 9.713 0 0 1 9.723 0l18.345 10.603a9.735 9.735 0 0 1 4.862 8.43v21.207a9.735 9.735 0 0 1-4.862 8.43l-18.345 10.603a9.713 9.713 0 0 1-9.723 0l-18.345-10.603a9.736 9.736 0 0 1-4.861-8.43v-21.207a9.736 9.736 0 0 1 4.861-8.43l18.345-10.603Zm67.211 0a9.713 9.713 0 0 1 9.723 0l18.346 10.603a9.736 9.736 0 0 1 4.861 8.43v21.207a9.736 9.736 0 0 1-4.861 8.43l-18.346 10.603a9.713 9.713 0 0 1-9.723 0L863.1 153.805a9.736 9.736 0 0 1-4.861-8.43v-21.207a9.736 9.736 0 0 1 4.861-8.43l18.345-10.603Zm67.211 0a9.713 9.713 0 0 1 9.723 0l18.346 10.603a9.736 9.736 0 0 1 4.861 8.43v21.207a9.736 9.736 0 0 1-4.861 8.43l-18.346 10.603a9.713 9.713 0 0 1-9.723 0l-18.345-10.603a9.736 9.736 0 0 1-4.861-8.43v-21.207a9.736 9.736 0 0 1 4.861-8.43l18.345-10.603Zm67.144 0a9.726 9.726 0 0 1 9.73 0l18.34 10.603a9.731 9.731 0 0 1 4.86 8.43v21.207a9.731 9.731 0 0 1-4.86 8.43l-18.34 10.603a9.726 9.726 0 0 1-9.73 0l-18.341-10.603a9.735 9.735 0 0 1-4.862-8.43v-21.207a9.735 9.735 0 0 1 4.862-8.43l18.341-10.603Zm67.21 0a9.726 9.726 0 0 1 9.73 0l18.34 10.603a9.731 9.731 0 0 1 4.86 8.43v21.207a9.731 9.731 0 0 1-4.86 8.43l-18.34 10.603a9.726 9.726 0 0 1-9.73 0l-18.34-10.603a9.731 9.731 0 0 1-4.86-8.43v-21.207a9.731 9.731 0 0 1 4.86-8.43l18.34-10.603Zm-302.254 61.61a9.713 9.713 0 0 1 9.723 0l18.345 10.603a9.737 9.737 0 0 1 4.861 8.43v21.207a9.736 9.736 0 0 1-4.861 8.43l-18.345 10.603a9.713 9.713 0 0 1-9.723 0l-18.345-10.603a9.735 9.735 0 0 1-4.862-8.43v-21.207a9.736 9.736 0 0 1 4.862-8.43l18.345-10.603Zm67.147 0a9.713 9.713 0 0 1 9.723 0l18.345 10.603a9.736 9.736 0 0 1 4.862 8.43v21.207a9.735 9.735 0 0 1-4.862 8.43l-18.345 10.603a9.713 9.713 0 0 1-9.723 0l-18.345-10.603a9.736 9.736 0 0 1-4.861-8.43v-21.207a9.737 9.737 0 0 1 4.861-8.43l18.345-10.603Zm67.211 0a9.713 9.713 0 0 1 9.723 0l18.345 10.603a9.736 9.736 0 0 1 4.862 8.43v21.207a9.735 9.735 0 0 1-4.862 8.43l-18.345 10.603a9.713 9.713 0 0 1-9.723 0l-18.345-10.603a9.736 9.736 0 0 1-4.861-8.43v-21.207a9.737 9.737 0 0 1 4.861-8.43l18.345-10.603Zm67.211 0a9.713 9.713 0 0 1 9.723 0l18.342 10.603a9.742 9.742 0 0 1 4.87 8.43v21.207a9.74 9.74 0 0 1-4.87 8.43l-18.342 10.603a9.713 9.713 0 0 1-9.723 0l-18.345-10.603a9.736 9.736 0 0 1-4.861-8.43v-21.207a9.737 9.737 0 0 1 4.861-8.43l18.345-10.603Zm67.145 0a9.726 9.726 0 0 1 9.73 0l18.34 10.603a9.732 9.732 0 0 1 4.86 8.43v21.207a9.731 9.731 0 0 1-4.86 8.43l-18.34 10.603a9.726 9.726 0 0 1-9.73 0l-18.34-10.603a9.731 9.731 0 0 1-4.86-8.43v-21.207a9.732 9.732 0 0 1 4.86-8.43l18.34-10.603Zm67.21 0a9.726 9.726 0 0 1 9.73 0l18.34 10.603a9.732 9.732 0 0 1 4.86 8.43v21.207a9.731 9.731 0 0 1-4.86 8.43l-18.34 10.603a9.726 9.726 0 0 1-9.73 0l-18.34-10.603a9.731 9.731 0 0 1-4.86-8.43v-21.207a9.732 9.732 0 0 1 4.86-8.43l18.34-10.603ZM276.749-18.085a9.713 9.713 0 0 1 9.723 0l18.345 10.603a9.737 9.737 0 0 1 4.862 8.43v21.207a9.737 9.737 0 0 1-4.862 8.43l-18.345 10.603a9.714 9.714 0 0 1-9.723 0l-18.345-10.603a9.735 9.735 0 0 1-4.862-8.43V.948a9.735 9.735 0 0 1 4.862-8.43l18.345-10.604Zm67.338 0a9.713 9.713 0 0 1 9.723 0l18.345 10.603a9.736 9.736 0 0 1 4.861 8.43v21.207a9.736 9.736 0 0 1-4.861 8.43L353.81 41.188a9.714 9.714 0 0 1-9.723 0l-18.345-10.603a9.735 9.735 0 0 1-4.862-8.43V.948a9.735 9.735 0 0 1 4.862-8.43l18.345-10.604Zm67.147 0a9.713 9.713 0 0 1 9.723 0l18.346 10.603a9.736 9.736 0 0 1 4.861 8.43v21.207a9.736 9.736 0 0 1-4.861 8.43l-18.346 10.603a9.714 9.714 0 0 1-9.723 0l-18.345-10.603a9.736 9.736 0 0 1-4.861-8.43V.948a9.736 9.736 0 0 1 4.861-8.43l18.345-10.604Zm67.211 0a9.713 9.713 0 0 1 9.723 0l18.346 10.603a9.736 9.736 0 0 1 4.861 8.43v21.207a9.736 9.736 0 0 1-4.861 8.43l-18.346 10.603a9.714 9.714 0 0 1-9.723 0L460.1 30.585a9.736 9.736 0 0 1-4.861-8.43V.948a9.736 9.736 0 0 1 4.861-8.43l18.345-10.604Zm67.211 0a9.713 9.713 0 0 1 9.723 0l18.346 10.603a9.736 9.736 0 0 1 4.861 8.43v21.207a9.736 9.736 0 0 1-4.861 8.43l-18.346 10.603a9.714 9.714 0 0 1-9.723 0l-18.345-10.603a9.736 9.736 0 0 1-4.861-8.43V.948a9.736 9.736 0 0 1 4.861-8.43l18.345-10.604Zm67.148 0a9.713 9.713 0 0 1 9.723 0l18.345 10.603a9.735 9.735 0 0 1 4.862 8.43v21.207a9.735 9.735 0 0 1-4.862 8.43l-18.345 10.603a9.714 9.714 0 0 1-9.723 0l-18.345-10.603a9.735 9.735 0 0 1-4.862-8.43V.948a9.735 9.735 0 0 1 4.862-8.43l18.345-10.604Zm67.211 0a9.713 9.713 0 0 1 9.723 0l18.345 10.603a9.735 9.735 0 0 1 4.862 8.43v21.207a9.735 9.735 0 0 1-4.862 8.43l-18.345 10.603a9.714 9.714 0 0 1-9.723 0L661.67 30.585a9.735 9.735 0 0 1-4.862-8.43V.948a9.735 9.735 0 0 1 4.862-8.43l18.345-10.604Zm-369.597 61.61a9.714 9.714 0 0 1 9.723 0l18.345 10.603a9.737 9.737 0 0 1 4.862 8.43v21.207a9.737 9.737 0 0 1-4.862 8.43l-18.345 10.603a9.713 9.713 0 0 1-9.723 0l-18.345-10.603a9.735 9.735 0 0 1-4.862-8.43V62.558a9.735 9.735 0 0 1 4.862-8.43l18.345-10.603Zm67.338 0a9.714 9.714 0 0 1 9.723 0l18.345 10.603a9.736 9.736 0 0 1 4.861 8.43v21.207a9.736 9.736 0 0 1-4.861 8.43l-18.345 10.603a9.713 9.713 0 0 1-9.723 0l-18.345-10.603a9.735 9.735 0 0 1-4.862-8.43V62.558a9.735 9.735 0 0 1 4.862-8.43l18.345-10.603Zm67.147 0a9.714 9.714 0 0 1 9.723 0l18.345 10.603a9.735 9.735 0 0 1 4.862 8.43v21.207a9.735 9.735 0 0 1-4.862 8.43l-18.345 10.603a9.713 9.713 0 0 1-9.723 0l-18.345-10.603a9.736 9.736 0 0 1-4.861-8.43V62.558a9.736 9.736 0 0 1 4.861-8.43l18.345-10.603Zm67.211 0a9.714 9.714 0 0 1 9.723 0l18.345 10.603a9.735 9.735 0 0 1 4.862 8.43v21.207a9.735 9.735 0 0 1-4.862 8.43l-18.345 10.603a9.713 9.713 0 0 1-9.723 0l-18.345-10.603a9.736 9.736 0 0 1-4.861-8.43V62.558a9.736 9.736 0 0 1 4.861-8.43l18.345-10.603Zm67.211 0a9.714 9.714 0 0 1 9.723 0l18.346 10.603a9.736 9.736 0 0 1 4.861 8.43v21.207a9.736 9.736 0 0 1-4.861 8.43l-18.346 10.603a9.713 9.713 0 0 1-9.723 0L560.98 92.195a9.736 9.736 0 0 1-4.861-8.43V62.558a9.736 9.736 0 0 1 4.861-8.43l18.345-10.603Zm67.148 0a9.714 9.714 0 0 1 9.723 0l18.345 10.603a9.737 9.737 0 0 1 4.862 8.43v21.207a9.737 9.737 0 0 1-4.862 8.43l-18.345 10.603a9.713 9.713 0 0 1-9.723 0l-18.345-10.603a9.735 9.735 0 0 1-4.862-8.43V62.558a9.735 9.735 0 0 1 4.862-8.43l18.345-10.603Zm67.211 0a9.714 9.714 0 0 1 9.723 0l18.345 10.603a9.735 9.735 0 0 1 4.862 8.43v21.207a9.735 9.735 0 0 1-4.862 8.43l-18.345 10.603a9.713 9.713 0 0 1-9.723 0l-18.345-10.603a9.735 9.735 0 0 1-4.862-8.43V62.558a9.735 9.735 0 0 1 4.862-8.43l18.345-10.603Zm-436.935 61.61a9.713 9.713 0 0 1 9.723 0l18.345 10.603a9.737 9.737 0 0 1 4.862 8.43v21.207a9.737 9.737 0 0 1-4.862 8.43l-18.345 10.603a9.713 9.713 0 0 1-9.723 0l-18.345-10.603a9.735 9.735 0 0 1-4.862-8.43v-21.207a9.735 9.735 0 0 1 4.862-8.43l18.345-10.603Zm67.338 0a9.713 9.713 0 0 1 9.723 0l18.345 10.603a9.736 9.736 0 0 1 4.861 8.43v21.207a9.736 9.736 0 0 1-4.861 8.43l-18.345 10.603a9.713 9.713 0 0 1-9.723 0l-18.345-10.603a9.735 9.735 0 0 1-4.862-8.43v-21.207a9.735 9.735 0 0 1 4.862-8.43l18.345-10.603Zm67.147 0a9.713 9.713 0 0 1 9.723 0l18.346 10.603a9.736 9.736 0 0 1 4.861 8.43v21.207a9.736 9.736 0 0 1-4.861 8.43l-18.346 10.603a9.713 9.713 0 0 1-9.723 0l-18.345-10.603a9.736 9.736 0 0 1-4.861-8.43v-21.207a9.736 9.736 0 0 1 4.861-8.43l18.345-10.603Zm67.211 0a9.713 9.713 0 0 1 9.723 0l18.346 10.603a9.736 9.736 0 0 1 4.861 8.43v21.207a9.736 9.736 0 0 1-4.861 8.43l-18.346 10.603a9.713 9.713 0 0 1-9.723 0L460.1 153.805a9.736 9.736 0 0 1-4.861-8.43v-21.207a9.736 9.736 0 0 1 4.861-8.43l18.345-10.603Zm67.211 0a9.713 9.713 0 0 1 9.723 0l18.346 10.603a9.736 9.736 0 0 1 4.861 8.43v21.207a9.736 9.736 0 0 1-4.861 8.43l-18.346 10.603a9.713 9.713 0 0 1-9.723 0l-18.345-10.603a9.736 9.736 0 0 1-4.861-8.43v-21.207a9.736 9.736 0 0 1 4.861-8.43l18.345-10.603Zm67.148 0a9.713 9.713 0 0 1 9.723 0l18.345 10.603a9.735 9.735 0 0 1 4.862 8.43v21.207a9.735 9.735 0 0 1-4.862 8.43l-18.345 10.603a9.713 9.713 0 0 1-9.723 0l-18.345-10.603a9.735 9.735 0 0 1-4.862-8.43v-21.207a9.735 9.735 0 0 1 4.862-8.43l18.345-10.603Zm67.211 0a9.713 9.713 0 0 1 9.723 0l18.345 10.603a9.735 9.735 0 0 1 4.862 8.43v21.207a9.735 9.735 0 0 1-4.862 8.43l-18.345 10.603a9.713 9.713 0 0 1-9.723 0l-18.345-10.603a9.735 9.735 0 0 1-4.862-8.43v-21.207a9.735 9.735 0 0 1 4.862-8.43l18.345-10.603Zm-369.597 61.61a9.713 9.713 0 0 1 9.723 0l18.345 10.603a9.738 9.738 0 0 1 4.862 8.43v21.207a9.737 9.737 0 0 1-4.862 8.43l-18.345 10.603a9.713 9.713 0 0 1-9.723 0l-18.345-10.603a9.735 9.735 0 0 1-4.862-8.43v-21.207a9.736 9.736 0 0 1 4.862-8.43l18.345-10.603Zm67.338 0a9.713 9.713 0 0 1 9.723 0l18.345 10.603a9.737 9.737 0 0 1 4.861 8.43v21.207a9.736 9.736 0 0 1-4.861 8.43l-18.345 10.603a9.713 9.713 0 0 1-9.723 0l-18.345-10.603a9.735 9.735 0 0 1-4.862-8.43v-21.207a9.736 9.736 0 0 1 4.862-8.43l18.345-10.603Zm67.147 0a9.713 9.713 0 0 1 9.723 0l18.345 10.603a9.736 9.736 0 0 1 4.862 8.43v21.207a9.735 9.735 0 0 1-4.862 8.43l-18.345 10.603a9.713 9.713 0 0 1-9.723 0l-18.345-10.603a9.736 9.736 0 0 1-4.861-8.43v-21.207a9.737 9.737 0 0 1 4.861-8.43l18.345-10.603Zm67.211 0a9.713 9.713 0 0 1 9.723 0l18.345 10.603a9.736 9.736 0 0 1 4.862 8.43v21.207a9.735 9.735 0 0 1-4.862 8.43l-18.345 10.603a9.713 9.713 0 0 1-9.723 0l-18.345-10.603a9.736 9.736 0 0 1-4.861-8.43v-21.207a9.737 9.737 0 0 1 4.861-8.43l18.345-10.603Zm67.211 0a9.713 9.713 0 0 1 9.723 0l18.346 10.603a9.737 9.737 0 0 1 4.861 8.43v21.207a9.736 9.736 0 0 1-4.861 8.43l-18.346 10.603a9.713 9.713 0 0 1-9.723 0l-18.345-10.603a9.736 9.736 0 0 1-4.861-8.43v-21.207a9.737 9.737 0 0 1 4.861-8.43l18.345-10.603Zm67.148 0a9.713 9.713 0 0 1 9.723 0l18.345 10.603a9.738 9.738 0 0 1 4.862 8.43v21.207a9.737 9.737 0 0 1-4.862 8.43l-18.345 10.603a9.713 9.713 0 0 1-9.723 0l-18.345-10.603a9.735 9.735 0 0 1-4.862-8.43v-21.207a9.736 9.736 0 0 1 4.862-8.43l18.345-10.603Zm67.211 0a9.713 9.713 0 0 1 9.723 0l18.345 10.603a9.736 9.736 0 0 1 4.862 8.43v21.207a9.735 9.735 0 0 1-4.862 8.43l-18.345 10.603a9.713 9.713 0 0 1-9.723 0l-18.345-10.603a9.735 9.735 0 0 1-4.862-8.43v-21.207a9.736 9.736 0 0 1 4.862-8.43l18.345-10.603Z"/></mask><path d="M1149.75-18.085a9.707 9.707 0 0 1 9.72 0l18.35 10.603a9.731 9.731 0 0 1 4.86 8.43v21.207a9.731 9.731 0 0 1-4.86 8.43l-18.35 10.603a9.708 9.708 0 0 1-9.72 0l-18.35-10.603a9.752 9.752 0 0 1-4.86-8.43V.948a9.752 9.752 0 0 1 4.86-8.43l18.35-10.604Zm67.34 0a9.707 9.707 0 0 1 9.72 0l18.34 10.603a9.74 9.74 0 0 1 4.87 8.43v21.207a9.74 9.74 0 0 1-4.87 8.43l-18.34 10.603a9.708 9.708 0 0 1-9.72 0l-18.35-10.603a9.731 9.731 0 0 1-4.86-8.43V.948a9.731 9.731 0 0 1 4.86-8.43l18.35-10.604Zm-33.67 61.61a9.708 9.708 0 0 1 9.72 0l18.35 10.603a9.752 9.752 0 0 1 4.86 8.43v21.207a9.752 9.752 0 0 1-4.86 8.43l-18.35 10.603a9.707 9.707 0 0 1-9.72 0l-18.35-10.603a9.731 9.731 0 0 1-4.86-8.43V62.558a9.731 9.731 0 0 1 4.86-8.43l18.35-10.603Zm-33.67 61.61a9.707 9.707 0 0 1 9.72 0l18.35 10.603a9.731 9.731 0 0 1 4.86 8.43v21.207a9.731 9.731 0 0 1-4.86 8.43l-18.35 10.603a9.707 9.707 0 0 1-9.72 0l-18.35-10.603a9.752 9.752 0 0 1-4.86-8.43v-21.207a9.752 9.752 0 0 1 4.86-8.43l18.35-10.603Zm67.34 0a9.707 9.707 0 0 1 9.72 0l18.34 10.603a9.74 9.74 0 0 1 4.87 8.43v21.207a9.74 9.74 0 0 1-4.87 8.43l-18.34 10.603a9.707 9.707 0 0 1-9.72 0l-18.35-10.603a9.731 9.731 0 0 1-4.86-8.43v-21.207a9.731 9.731 0 0 1 4.86-8.43l18.35-10.603Zm-33.67 61.61a9.707 9.707 0 0 1 9.72 0l18.35 10.603a9.753 9.753 0 0 1 4.86 8.43v21.207a9.752 9.752 0 0 1-4.86 8.43l-18.35 10.603a9.707 9.707 0 0 1-9.72 0l-18.35-10.603a9.731 9.731 0 0 1-4.86-8.43v-21.207a9.732 9.732 0 0 1 4.86-8.43l18.35-10.603ZM-194.251-18.085a9.713 9.713 0 0 1 9.723 0l18.345 10.603a9.737 9.737 0 0 1 4.862 8.43v21.207a9.737 9.737 0 0 1-4.862 8.43l-18.345 10.603a9.714 9.714 0 0 1-9.723 0l-18.345-10.603a9.735 9.735 0 0 1-4.862-8.43V.948a9.735 9.735 0 0 1 4.862-8.43l18.345-10.604Zm67.338 0a9.713 9.713 0 0 1 9.723 0l18.345 10.603a9.736 9.736 0 0 1 4.861 8.43v21.207a9.736 9.736 0 0 1-4.861 8.43l-18.345 10.603a9.714 9.714 0 0 1-9.723 0l-18.345-10.603a9.735 9.735 0 0 1-4.862-8.43V.948a9.735 9.735 0 0 1 4.862-8.43l18.345-10.604Zm67.147 0a9.713 9.713 0 0 1 9.723 0l18.346 10.603a9.736 9.736 0 0 1 4.861 8.43v21.207a9.736 9.736 0 0 1-4.861 8.43l-18.346 10.603a9.714 9.714 0 0 1-9.723 0L-78.11 30.585a9.736 9.736 0 0 1-4.861-8.43V.948a9.736 9.736 0 0 1 4.861-8.43l18.345-10.604Zm67.211 0a9.713 9.713 0 0 1 9.724 0L35.514-7.482a9.736 9.736 0 0 1 4.861 8.43v21.207a9.736 9.736 0 0 1-4.861 8.43L17.168 41.188a9.714 9.714 0 0 1-9.723 0L-10.9 30.585a9.736 9.736 0 0 1-4.861-8.43V.948a9.736 9.736 0 0 1 4.861-8.43L7.445-18.086Zm67.211 0a9.713 9.713 0 0 1 9.723 0l18.346 10.603a9.736 9.736 0 0 1 4.861 8.43v21.207a9.736 9.736 0 0 1-4.861 8.43L84.379 41.188a9.714 9.714 0 0 1-9.723 0L56.311 30.585a9.736 9.736 0 0 1-4.861-8.43V.948a9.736 9.736 0 0 1 4.861-8.43l18.345-10.604Zm67.148 0a9.713 9.713 0 0 1 9.723 0l18.345 10.603a9.735 9.735 0 0 1 4.862 8.43v21.207a9.735 9.735 0 0 1-4.862 8.43l-18.345 10.603a9.714 9.714 0 0 1-9.723 0l-18.345-10.603a9.735 9.735 0 0 1-4.862-8.43V.948a9.735 9.735 0 0 1 4.862-8.43l18.345-10.604Zm67.211 0a9.713 9.713 0 0 1 9.723 0l18.345 10.603a9.735 9.735 0 0 1 4.862 8.43v21.207a9.735 9.735 0 0 1-4.862 8.43l-18.345 10.603a9.714 9.714 0 0 1-9.723 0L190.67 30.585a9.737 9.737 0 0 1-4.862-8.43V.948a9.737 9.737 0 0 1 4.862-8.43l18.345-10.604Zm-436.808 61.61a9.714 9.714 0 0 1 9.723 0l18.345 10.603a9.737 9.737 0 0 1 4.862 8.43v21.207a9.737 9.737 0 0 1-4.862 8.43l-18.345 10.603a9.713 9.713 0 0 1-9.723 0l-18.345-10.603a9.735 9.735 0 0 1-4.862-8.43V62.558a9.735 9.735 0 0 1 4.862-8.43l18.345-10.603Zm67.211 0a9.714 9.714 0 0 1 9.723 0l18.345 10.603a9.737 9.737 0 0 1 4.862 8.43v21.207a9.737 9.737 0 0 1-4.862 8.43l-18.345 10.603a9.713 9.713 0 0 1-9.723 0l-18.345-10.603a9.735 9.735 0 0 1-4.862-8.43V62.558a9.735 9.735 0 0 1 4.862-8.43l18.345-10.603Zm67.338 0a9.714 9.714 0 0 1 9.723 0l18.345 10.603a9.736 9.736 0 0 1 4.861 8.43v21.207a9.736 9.736 0 0 1-4.861 8.43l-18.345 10.603a9.713 9.713 0 0 1-9.723 0l-18.345-10.603a9.735 9.735 0 0 1-4.862-8.43V62.558a9.735 9.735 0 0 1 4.862-8.43l18.345-10.603Zm67.147 0a9.714 9.714 0 0 1 9.723 0L1.971 54.128a9.736 9.736 0 0 1 4.862 8.43v21.207a9.736 9.736 0 0 1-4.862 8.43l-18.345 10.603a9.713 9.713 0 0 1-9.723 0l-18.345-10.603a9.736 9.736 0 0 1-4.861-8.43V62.558a9.736 9.736 0 0 1 4.861-8.43l18.345-10.603Zm67.211 0a9.714 9.714 0 0 1 9.723 0l18.346 10.603a9.736 9.736 0 0 1 4.861 8.43v21.207a9.736 9.736 0 0 1-4.861 8.43l-18.346 10.603a9.713 9.713 0 0 1-9.723 0L22.77 92.195a9.736 9.736 0 0 1-4.861-8.43V62.558a9.736 9.736 0 0 1 4.861-8.43l18.345-10.603Zm67.211 0a9.714 9.714 0 0 1 9.723 0l18.346 10.603a9.736 9.736 0 0 1 4.861 8.43v21.207a9.736 9.736 0 0 1-4.861 8.43l-18.346 10.603a9.713 9.713 0 0 1-9.723 0L89.98 92.195a9.736 9.736 0 0 1-4.861-8.43V62.558a9.736 9.736 0 0 1 4.861-8.43l18.345-10.603Zm67.148 0a9.714 9.714 0 0 1 9.723 0l18.345 10.603a9.737 9.737 0 0 1 4.862 8.43v21.207a9.737 9.737 0 0 1-4.862 8.43l-18.345 10.603a9.713 9.713 0 0 1-9.723 0l-18.345-10.603a9.735 9.735 0 0 1-4.862-8.43V62.558a9.735 9.735 0 0 1 4.862-8.43l18.345-10.603Zm67.211 0a9.714 9.714 0 0 1 9.723 0l18.345 10.603a9.735 9.735 0 0 1 4.862 8.43v21.207a9.735 9.735 0 0 1-4.862 8.43l-18.345 10.603a9.713 9.713 0 0 1-9.723 0l-18.345-10.603a9.735 9.735 0 0 1-4.862-8.43V62.558a9.735 9.735 0 0 1 4.862-8.43l18.345-10.603Zm-436.935 61.61a9.713 9.713 0 0 1 9.723 0l18.345 10.603a9.737 9.737 0 0 1 4.862 8.43v21.207a9.737 9.737 0 0 1-4.862 8.43l-18.345 10.603a9.713 9.713 0 0 1-9.723 0l-18.345-10.603a9.735 9.735 0 0 1-4.862-8.43v-21.207a9.735 9.735 0 0 1 4.862-8.43l18.345-10.603Zm67.338 0a9.713 9.713 0 0 1 9.723 0l18.345 10.603a9.736 9.736 0 0 1 4.861 8.43v21.207a9.736 9.736 0 0 1-4.861 8.43l-18.345 10.603a9.713 9.713 0 0 1-9.723 0l-18.345-10.603a9.735 9.735 0 0 1-4.862-8.43v-21.207a9.735 9.735 0 0 1 4.862-8.43l18.345-10.603Zm67.147 0a9.713 9.713 0 0 1 9.723 0l18.346 10.603a9.736 9.736 0 0 1 4.861 8.43v21.207a9.736 9.736 0 0 1-4.861 8.43l-18.346 10.603a9.713 9.713 0 0 1-9.723 0l-18.345-10.603a9.736 9.736 0 0 1-4.861-8.43v-21.207a9.736 9.736 0 0 1 4.861-8.43l18.345-10.603Zm67.211 0a9.713 9.713 0 0 1 9.724 0l18.345 10.603a9.736 9.736 0 0 1 4.861 8.43v21.207a9.736 9.736 0 0 1-4.861 8.43l-18.346 10.603a9.713 9.713 0 0 1-9.723 0L-10.9 153.805a9.736 9.736 0 0 1-4.861-8.43v-21.207a9.736 9.736 0 0 1 4.861-8.43l18.345-10.603Zm67.211 0a9.713 9.713 0 0 1 9.723 0l18.346 10.603a9.736 9.736 0 0 1 4.861 8.43v21.207a9.736 9.736 0 0 1-4.861 8.43l-18.346 10.603a9.713 9.713 0 0 1-9.723 0l-18.345-10.603a9.736 9.736 0 0 1-4.861-8.43v-21.207a9.736 9.736 0 0 1 4.861-8.43l18.345-10.603Zm67.148 0a9.713 9.713 0 0 1 9.723 0l18.345 10.603a9.735 9.735 0 0 1 4.862 8.43v21.207a9.735 9.735 0 0 1-4.862 8.43l-18.345 10.603a9.713 9.713 0 0 1-9.723 0l-18.345-10.603a9.735 9.735 0 0 1-4.862-8.43v-21.207a9.735 9.735 0 0 1 4.862-8.43l18.345-10.603Zm67.211 0a9.713 9.713 0 0 1 9.723 0l18.345 10.603a9.735 9.735 0 0 1 4.862 8.43v21.207a9.735 9.735 0 0 1-4.862 8.43l-18.345 10.603a9.713 9.713 0 0 1-9.723 0l-18.345-10.603a9.737 9.737 0 0 1-4.862-8.43v-21.207a9.737 9.737 0 0 1 4.862-8.43l18.345-10.603Zm-436.808 61.61a9.713 9.713 0 0 1 9.723 0l18.345 10.603a9.738 9.738 0 0 1 4.862 8.43v21.207a9.737 9.737 0 0 1-4.862 8.43l-18.345 10.603a9.713 9.713 0 0 1-9.723 0l-18.345-10.603a9.735 9.735 0 0 1-4.862-8.43v-21.207a9.736 9.736 0 0 1 4.862-8.43l18.345-10.603Zm67.211 0a9.713 9.713 0 0 1 9.723 0l18.345 10.603a9.738 9.738 0 0 1 4.862 8.43v21.207a9.737 9.737 0 0 1-4.862 8.43l-18.345 10.603a9.713 9.713 0 0 1-9.723 0l-18.345-10.603a9.735 9.735 0 0 1-4.862-8.43v-21.207a9.736 9.736 0 0 1 4.862-8.43l18.345-10.603Zm67.338 0a9.713 9.713 0 0 1 9.723 0l18.345 10.603a9.737 9.737 0 0 1 4.861 8.43v21.207a9.736 9.736 0 0 1-4.861 8.43l-18.345 10.603a9.713 9.713 0 0 1-9.723 0l-18.345-10.603a9.735 9.735 0 0 1-4.862-8.43v-21.207a9.736 9.736 0 0 1 4.862-8.43l18.345-10.603Zm67.147 0a9.713 9.713 0 0 1 9.723 0l18.345 10.603a9.737 9.737 0 0 1 4.862 8.43v21.207a9.736 9.736 0 0 1-4.862 8.43l-18.345 10.603a9.713 9.713 0 0 1-9.723 0l-18.345-10.603a9.736 9.736 0 0 1-4.861-8.43v-21.207a9.737 9.737 0 0 1 4.861-8.43l18.345-10.603Zm67.211 0a9.713 9.713 0 0 1 9.723 0l18.346 10.603a9.737 9.737 0 0 1 4.861 8.43v21.207a9.736 9.736 0 0 1-4.861 8.43l-18.346 10.603a9.713 9.713 0 0 1-9.723 0L22.77 215.415a9.736 9.736 0 0 1-4.861-8.43v-21.207a9.737 9.737 0 0 1 4.861-8.43l18.345-10.603Zm67.211 0a9.713 9.713 0 0 1 9.723 0l18.346 10.603a9.737 9.737 0 0 1 4.861 8.43v21.207a9.736 9.736 0 0 1-4.861 8.43l-18.346 10.603a9.713 9.713 0 0 1-9.723 0L89.98 215.415a9.736 9.736 0 0 1-4.861-8.43v-21.207a9.737 9.737 0 0 1 4.861-8.43l18.345-10.603Zm67.148 0a9.713 9.713 0 0 1 9.723 0l18.345 10.603a9.738 9.738 0 0 1 4.862 8.43v21.207a9.737 9.737 0 0 1-4.862 8.43l-18.345 10.603a9.713 9.713 0 0 1-9.723 0l-18.345-10.603a9.735 9.735 0 0 1-4.862-8.43v-21.207a9.736 9.736 0 0 1 4.862-8.43l18.345-10.603Zm67.211 0a9.713 9.713 0 0 1 9.723 0l18.345 10.603a9.736 9.736 0 0 1 4.862 8.43v21.207a9.735 9.735 0 0 1-4.862 8.43l-18.345 10.603a9.713 9.713 0 0 1-9.723 0l-18.345-10.603a9.735 9.735 0 0 1-4.862-8.43v-21.207a9.736 9.736 0 0 1 4.862-8.43l18.345-10.603Zm504.403-184.83a9.713 9.713 0 0 1 9.723 0l18.345 10.603a9.736 9.736 0 0 1 4.861 8.43v21.207a9.736 9.736 0 0 1-4.861 8.43L756.81 41.188a9.714 9.714 0 0 1-9.723 0l-18.345-10.603a9.735 9.735 0 0 1-4.862-8.43V.948a9.735 9.735 0 0 1 4.862-8.43l18.345-10.604Zm67.147 0a9.713 9.713 0 0 1 9.723 0l18.345 10.603a9.735 9.735 0 0 1 4.862 8.43v21.207a9.735 9.735 0 0 1-4.862 8.43l-18.345 10.603a9.714 9.714 0 0 1-9.723 0l-18.345-10.603a9.736 9.736 0 0 1-4.861-8.43V.948a9.736 9.736 0 0 1 4.861-8.43l18.345-10.604Zm67.211 0a9.713 9.713 0 0 1 9.723 0l18.346 10.603a9.736 9.736 0 0 1 4.861 8.43v21.207a9.736 9.736 0 0 1-4.861 8.43l-18.346 10.603a9.714 9.714 0 0 1-9.723 0L863.1 30.585a9.736 9.736 0 0 1-4.861-8.43V.948a9.736 9.736 0 0 1 4.861-8.43l18.345-10.604Zm67.211 0a9.713 9.713 0 0 1 9.723 0l18.346 10.603a9.736 9.736 0 0 1 4.861 8.43v21.207a9.736 9.736 0 0 1-4.861 8.43l-18.346 10.603a9.714 9.714 0 0 1-9.723 0l-18.345-10.603a9.736 9.736 0 0 1-4.861-8.43V.948a9.736 9.736 0 0 1 4.861-8.43l18.345-10.604Zm67.144 0a9.726 9.726 0 0 1 9.73 0l18.34 10.603a9.731 9.731 0 0 1 4.86 8.43v21.207a9.731 9.731 0 0 1-4.86 8.43l-18.34 10.603a9.727 9.727 0 0 1-9.73 0l-18.341-10.603a9.735 9.735 0 0 1-4.862-8.43V.948a9.735 9.735 0 0 1 4.862-8.43l18.341-10.604Zm67.21 0a9.726 9.726 0 0 1 9.73 0l18.34 10.603a9.731 9.731 0 0 1 4.86 8.43v21.207a9.731 9.731 0 0 1-4.86 8.43l-18.34 10.603a9.727 9.727 0 0 1-9.73 0l-18.34-10.603a9.731 9.731 0 0 1-4.86-8.43V.948a9.731 9.731 0 0 1 4.86-8.43l18.34-10.604Zm-302.254 61.61a9.714 9.714 0 0 1 9.723 0l18.345 10.603a9.736 9.736 0 0 1 4.861 8.43v21.207a9.736 9.736 0 0 1-4.861 8.43l-18.345 10.603a9.713 9.713 0 0 1-9.723 0l-18.345-10.603a9.735 9.735 0 0 1-4.862-8.43V62.558a9.735 9.735 0 0 1 4.862-8.43l18.345-10.603Zm67.147 0a9.714 9.714 0 0 1 9.723 0l18.345 10.603a9.735 9.735 0 0 1 4.862 8.43v21.207a9.735 9.735 0 0 1-4.862 8.43l-18.345 10.603a9.713 9.713 0 0 1-9.723 0l-18.345-10.603a9.736 9.736 0 0 1-4.861-8.43V62.558a9.736 9.736 0 0 1 4.861-8.43l18.345-10.603Zm67.211 0a9.714 9.714 0 0 1 9.723 0l18.345 10.603a9.735 9.735 0 0 1 4.862 8.43v21.207a9.735 9.735 0 0 1-4.862 8.43l-18.345 10.603a9.713 9.713 0 0 1-9.723 0l-18.345-10.603a9.736 9.736 0 0 1-4.861-8.43V62.558a9.736 9.736 0 0 1 4.861-8.43l18.345-10.603Zm67.211 0a9.714 9.714 0 0 1 9.723 0l18.342 10.603a9.74 9.74 0 0 1 4.87 8.43v21.207a9.74 9.74 0 0 1-4.87 8.43l-18.342 10.603a9.713 9.713 0 0 1-9.723 0L963.98 92.195a9.736 9.736 0 0 1-4.861-8.43V62.558a9.736 9.736 0 0 1 4.861-8.43l18.345-10.603Zm67.145 0a9.727 9.727 0 0 1 9.73 0l18.34 10.603a9.731 9.731 0 0 1 4.86 8.43v21.207a9.731 9.731 0 0 1-4.86 8.43l-18.34 10.603a9.726 9.726 0 0 1-9.73 0l-18.34-10.603a9.731 9.731 0 0 1-4.86-8.43V62.558a9.731 9.731 0 0 1 4.86-8.43l18.34-10.603Zm67.21 0a9.727 9.727 0 0 1 9.73 0l18.34 10.603a9.731 9.731 0 0 1 4.86 8.43v21.207a9.731 9.731 0 0 1-4.86 8.43l-18.34 10.603a9.726 9.726 0 0 1-9.73 0l-18.34-10.603a9.731 9.731 0 0 1-4.86-8.43V62.558a9.731 9.731 0 0 1 4.86-8.43l18.34-10.603Zm-369.593 61.61a9.713 9.713 0 0 1 9.723 0l18.345 10.603a9.736 9.736 0 0 1 4.861 8.43v21.207a9.736 9.736 0 0 1-4.861 8.43l-18.345 10.603a9.713 9.713 0 0 1-9.723 0l-18.345-10.603a9.735 9.735 0 0 1-4.862-8.43v-21.207a9.735 9.735 0 0 1 4.862-8.43l18.345-10.603Zm67.147 0a9.713 9.713 0 0 1 9.723 0l18.345 10.603a9.735 9.735 0 0 1 4.862 8.43v21.207a9.735 9.735 0 0 1-4.862 8.43l-18.345 10.603a9.713 9.713 0 0 1-9.723 0l-18.345-10.603a9.736 9.736 0 0 1-4.861-8.43v-21.207a9.736 9.736 0 0 1 4.861-8.43l18.345-10.603Zm67.211 0a9.713 9.713 0 0 1 9.723 0l18.346 10.603a9.736 9.736 0 0 1 4.861 8.43v21.207a9.736 9.736 0 0 1-4.861 8.43l-18.346 10.603a9.713 9.713 0 0 1-9.723 0L863.1 153.805a9.736 9.736 0 0 1-4.861-8.43v-21.207a9.736 9.736 0 0 1 4.861-8.43l18.345-10.603Zm67.211 0a9.713 9.713 0 0 1 9.723 0l18.346 10.603a9.736 9.736 0 0 1 4.861 8.43v21.207a9.736 9.736 0 0 1-4.861 8.43l-18.346 10.603a9.713 9.713 0 0 1-9.723 0l-18.345-10.603a9.736 9.736 0 0 1-4.861-8.43v-21.207a9.736 9.736 0 0 1 4.861-8.43l18.345-10.603Zm67.144 0a9.726 9.726 0 0 1 9.73 0l18.34 10.603a9.731 9.731 0 0 1 4.86 8.43v21.207a9.731 9.731 0 0 1-4.86 8.43l-18.34 10.603a9.726 9.726 0 0 1-9.73 0l-18.341-10.603a9.735 9.735 0 0 1-4.862-8.43v-21.207a9.735 9.735 0 0 1 4.862-8.43l18.341-10.603Zm67.21 0a9.726 9.726 0 0 1 9.73 0l18.34 10.603a9.731 9.731 0 0 1 4.86 8.43v21.207a9.731 9.731 0 0 1-4.86 8.43l-18.34 10.603a9.726 9.726 0 0 1-9.73 0l-18.34-10.603a9.731 9.731 0 0 1-4.86-8.43v-21.207a9.731 9.731 0 0 1 4.86-8.43l18.34-10.603Zm-302.254 61.61a9.713 9.713 0 0 1 9.723 0l18.345 10.603a9.737 9.737 0 0 1 4.861 8.43v21.207a9.736 9.736 0 0 1-4.861 8.43l-18.345 10.603a9.713 9.713 0 0 1-9.723 0l-18.345-10.603a9.735 9.735 0 0 1-4.862-8.43v-21.207a9.736 9.736 0 0 1 4.862-8.43l18.345-10.603Zm67.147 0a9.713 9.713 0 0 1 9.723 0l18.345 10.603a9.736 9.736 0 0 1 4.862 8.43v21.207a9.735 9.735 0 0 1-4.862 8.43l-18.345 10.603a9.713 9.713 0 0 1-9.723 0l-18.345-10.603a9.736 9.736 0 0 1-4.861-8.43v-21.207a9.737 9.737 0 0 1 4.861-8.43l18.345-10.603Zm67.211 0a9.713 9.713 0 0 1 9.723 0l18.345 10.603a9.736 9.736 0 0 1 4.862 8.43v21.207a9.735 9.735 0 0 1-4.862 8.43l-18.345 10.603a9.713 9.713 0 0 1-9.723 0l-18.345-10.603a9.736 9.736 0 0 1-4.861-8.43v-21.207a9.737 9.737 0 0 1 4.861-8.43l18.345-10.603Zm67.211 0a9.713 9.713 0 0 1 9.723 0l18.342 10.603a9.742 9.742 0 0 1 4.87 8.43v21.207a9.74 9.74 0 0 1-4.87 8.43l-18.342 10.603a9.713 9.713 0 0 1-9.723 0l-18.345-10.603a9.736 9.736 0 0 1-4.861-8.43v-21.207a9.737 9.737 0 0 1 4.861-8.43l18.345-10.603Zm67.145 0a9.726 9.726 0 0 1 9.73 0l18.34 10.603a9.732 9.732 0 0 1 4.86 8.43v21.207a9.731 9.731 0 0 1-4.86 8.43l-18.34 10.603a9.726 9.726 0 0 1-9.73 0l-18.34-10.603a9.731 9.731 0 0 1-4.86-8.43v-21.207a9.732 9.732 0 0 1 4.86-8.43l18.34-10.603Zm67.21 0a9.726 9.726 0 0 1 9.73 0l18.34 10.603a9.732 9.732 0 0 1 4.86 8.43v21.207a9.731 9.731 0 0 1-4.86 8.43l-18.34 10.603a9.726 9.726 0 0 1-9.73 0l-18.34-10.603a9.731 9.731 0 0 1-4.86-8.43v-21.207a9.732 9.732 0 0 1 4.86-8.43l18.34-10.603ZM276.749-18.085a9.713 9.713 0 0 1 9.723 0l18.345 10.603a9.737 9.737 0 0 1 4.862 8.43v21.207a9.737 9.737 0 0 1-4.862 8.43l-18.345 10.603a9.714 9.714 0 0 1-9.723 0l-18.345-10.603a9.735 9.735 0 0 1-4.862-8.43V.948a9.735 9.735 0 0 1 4.862-8.43l18.345-10.604Zm67.338 0a9.713 9.713 0 0 1 9.723 0l18.345 10.603a9.736 9.736 0 0 1 4.861 8.43v21.207a9.736 9.736 0 0 1-4.861 8.43L353.81 41.188a9.714 9.714 0 0 1-9.723 0l-18.345-10.603a9.735 9.735 0 0 1-4.862-8.43V.948a9.735 9.735 0 0 1 4.862-8.43l18.345-10.604Zm67.147 0a9.713 9.713 0 0 1 9.723 0l18.346 10.603a9.736 9.736 0 0 1 4.861 8.43v21.207a9.736 9.736 0 0 1-4.861 8.43l-18.346 10.603a9.714 9.714 0 0 1-9.723 0l-18.345-10.603a9.736 9.736 0 0 1-4.861-8.43V.948a9.736 9.736 0 0 1 4.861-8.43l18.345-10.604Zm67.211 0a9.713 9.713 0 0 1 9.723 0l18.346 10.603a9.736 9.736 0 0 1 4.861 8.43v21.207a9.736 9.736 0 0 1-4.861 8.43l-18.346 10.603a9.714 9.714 0 0 1-9.723 0L460.1 30.585a9.736 9.736 0 0 1-4.861-8.43V.948a9.736 9.736 0 0 1 4.861-8.43l18.345-10.604Zm67.211 0a9.713 9.713 0 0 1 9.723 0l18.346 10.603a9.736 9.736 0 0 1 4.861 8.43v21.207a9.736 9.736 0 0 1-4.861 8.43l-18.346 10.603a9.714 9.714 0 0 1-9.723 0l-18.345-10.603a9.736 9.736 0 0 1-4.861-8.43V.948a9.736 9.736 0 0 1 4.861-8.43l18.345-10.604Zm67.148 0a9.713 9.713 0 0 1 9.723 0l18.345 10.603a9.735 9.735 0 0 1 4.862 8.43v21.207a9.735 9.735 0 0 1-4.862 8.43l-18.345 10.603a9.714 9.714 0 0 1-9.723 0l-18.345-10.603a9.735 9.735 0 0 1-4.862-8.43V.948a9.735 9.735 0 0 1 4.862-8.43l18.345-10.604Zm67.211 0a9.713 9.713 0 0 1 9.723 0l18.345 10.603a9.735 9.735 0 0 1 4.862 8.43v21.207a9.735 9.735 0 0 1-4.862 8.43l-18.345 10.603a9.714 9.714 0 0 1-9.723 0L661.67 30.585a9.735 9.735 0 0 1-4.862-8.43V.948a9.735 9.735 0 0 1 4.862-8.43l18.345-10.604Zm-369.597 61.61a9.714 9.714 0 0 1 9.723 0l18.345 10.603a9.737 9.737 0 0 1 4.862 8.43v21.207a9.737 9.737 0 0 1-4.862 8.43l-18.345 10.603a9.713 9.713 0 0 1-9.723 0l-18.345-10.603a9.735 9.735 0 0 1-4.862-8.43V62.558a9.735 9.735 0 0 1 4.862-8.43l18.345-10.603Zm67.338 0a9.714 9.714 0 0 1 9.723 0l18.345 10.603a9.736 9.736 0 0 1 4.861 8.43v21.207a9.736 9.736 0 0 1-4.861 8.43l-18.345 10.603a9.713 9.713 0 0 1-9.723 0l-18.345-10.603a9.735 9.735 0 0 1-4.862-8.43V62.558a9.735 9.735 0 0 1 4.862-8.43l18.345-10.603Zm67.147 0a9.714 9.714 0 0 1 9.723 0l18.345 10.603a9.735 9.735 0 0 1 4.862 8.43v21.207a9.735 9.735 0 0 1-4.862 8.43l-18.345 10.603a9.713 9.713 0 0 1-9.723 0l-18.345-10.603a9.736 9.736 0 0 1-4.861-8.43V62.558a9.736 9.736 0 0 1 4.861-8.43l18.345-10.603Zm67.211 0a9.714 9.714 0 0 1 9.723 0l18.345 10.603a9.735 9.735 0 0 1 4.862 8.43v21.207a9.735 9.735 0 0 1-4.862 8.43l-18.345 10.603a9.713 9.713 0 0 1-9.723 0l-18.345-10.603a9.736 9.736 0 0 1-4.861-8.43V62.558a9.736 9.736 0 0 1 4.861-8.43l18.345-10.603Zm67.211 0a9.714 9.714 0 0 1 9.723 0l18.346 10.603a9.736 9.736 0 0 1 4.861 8.43v21.207a9.736 9.736 0 0 1-4.861 8.43l-18.346 10.603a9.713 9.713 0 0 1-9.723 0L560.98 92.195a9.736 9.736 0 0 1-4.861-8.43V62.558a9.736 9.736 0 0 1 4.861-8.43l18.345-10.603Zm67.148 0a9.714 9.714 0 0 1 9.723 0l18.345 10.603a9.737 9.737 0 0 1 4.862 8.43v21.207a9.737 9.737 0 0 1-4.862 8.43l-18.345 10.603a9.713 9.713 0 0 1-9.723 0l-18.345-10.603a9.735 9.735 0 0 1-4.862-8.43V62.558a9.735 9.735 0 0 1 4.862-8.43l18.345-10.603Zm67.211 0a9.714 9.714 0 0 1 9.723 0l18.345 10.603a9.735 9.735 0 0 1 4.862 8.43v21.207a9.735 9.735 0 0 1-4.862 8.43l-18.345 10.603a9.713 9.713 0 0 1-9.723 0l-18.345-10.603a9.735 9.735 0 0 1-4.862-8.43V62.558a9.735 9.735 0 0 1 4.862-8.43l18.345-10.603Zm-436.935 61.61a9.713 9.713 0 0 1 9.723 0l18.345 10.603a9.737 9.737 0 0 1 4.862 8.43v21.207a9.737 9.737 0 0 1-4.862 8.43l-18.345 10.603a9.713 9.713 0 0 1-9.723 0l-18.345-10.603a9.735 9.735 0 0 1-4.862-8.43v-21.207a9.735 9.735 0 0 1 4.862-8.43l18.345-10.603Zm67.338 0a9.713 9.713 0 0 1 9.723 0l18.345 10.603a9.736 9.736 0 0 1 4.861 8.43v21.207a9.736 9.736 0 0 1-4.861 8.43l-18.345 10.603a9.713 9.713 0 0 1-9.723 0l-18.345-10.603a9.735 9.735 0 0 1-4.862-8.43v-21.207a9.735 9.735 0 0 1 4.862-8.43l18.345-10.603Zm67.147 0a9.713 9.713 0 0 1 9.723 0l18.346 10.603a9.736 9.736 0 0 1 4.861 8.43v21.207a9.736 9.736 0 0 1-4.861 8.43l-18.346 10.603a9.713 9.713 0 0 1-9.723 0l-18.345-10.603a9.736 9.736 0 0 1-4.861-8.43v-21.207a9.736 9.736 0 0 1 4.861-8.43l18.345-10.603Zm67.211 0a9.713 9.713 0 0 1 9.723 0l18.346 10.603a9.736 9.736 0 0 1 4.861 8.43v21.207a9.736 9.736 0 0 1-4.861 8.43l-18.346 10.603a9.713 9.713 0 0 1-9.723 0L460.1 153.805a9.736 9.736 0 0 1-4.861-8.43v-21.207a9.736 9.736 0 0 1 4.861-8.43l18.345-10.603Zm67.211 0a9.713 9.713 0 0 1 9.723 0l18.346 10.603a9.736 9.736 0 0 1 4.861 8.43v21.207a9.736 9.736 0 0 1-4.861 8.43l-18.346 10.603a9.713 9.713 0 0 1-9.723 0l-18.345-10.603a9.736 9.736 0 0 1-4.861-8.43v-21.207a9.736 9.736 0 0 1 4.861-8.43l18.345-10.603Zm67.148 0a9.713 9.713 0 0 1 9.723 0l18.345 10.603a9.735 9.735 0 0 1 4.862 8.43v21.207a9.735 9.735 0 0 1-4.862 8.43l-18.345 10.603a9.713 9.713 0 0 1-9.723 0l-18.345-10.603a9.735 9.735 0 0 1-4.862-8.43v-21.207a9.735 9.735 0 0 1 4.862-8.43l18.345-10.603Zm67.211 0a9.713 9.713 0 0 1 9.723 0l18.345 10.603a9.735 9.735 0 0 1 4.862 8.43v21.207a9.735 9.735 0 0 1-4.862 8.43l-18.345 10.603a9.713 9.713 0 0 1-9.723 0l-18.345-10.603a9.735 9.735 0 0 1-4.862-8.43v-21.207a9.735 9.735 0 0 1 4.862-8.43l18.345-10.603Zm-369.597 61.61a9.713 9.713 0 0 1 9.723 0l18.345 10.603a9.738 9.738 0 0 1 4.862 8.43v21.207a9.737 9.737 0 0 1-4.862 8.43l-18.345 10.603a9.713 9.713 0 0 1-9.723 0l-18.345-10.603a9.735 9.735 0 0 1-4.862-8.43v-21.207a9.736 9.736 0 0 1 4.862-8.43l18.345-10.603Zm67.338 0a9.713 9.713 0 0 1 9.723 0l18.345 10.603a9.737 9.737 0 0 1 4.861 8.43v21.207a9.736 9.736 0 0 1-4.861 8.43l-18.345 10.603a9.713 9.713 0 0 1-9.723 0l-18.345-10.603a9.735 9.735 0 0 1-4.862-8.43v-21.207a9.736 9.736 0 0 1 4.862-8.43l18.345-10.603Zm67.147 0a9.713 9.713 0 0 1 9.723 0l18.345 10.603a9.736 9.736 0 0 1 4.862 8.43v21.207a9.735 9.735 0 0 1-4.862 8.43l-18.345 10.603a9.713 9.713 0 0 1-9.723 0l-18.345-10.603a9.736 9.736 0 0 1-4.861-8.43v-21.207a9.737 9.737 0 0 1 4.861-8.43l18.345-10.603Zm67.211 0a9.713 9.713 0 0 1 9.723 0l18.345 10.603a9.736 9.736 0 0 1 4.862 8.43v21.207a9.735 9.735 0 0 1-4.862 8.43l-18.345 10.603a9.713 9.713 0 0 1-9.723 0l-18.345-10.603a9.736 9.736 0 0 1-4.861-8.43v-21.207a9.737 9.737 0 0 1 4.861-8.43l18.345-10.603Zm67.211 0a9.713 9.713 0 0 1 9.723 0l18.346 10.603a9.737 9.737 0 0 1 4.861 8.43v21.207a9.736 9.736 0 0 1-4.861 8.43l-18.346 10.603a9.713 9.713 0 0 1-9.723 0l-18.345-10.603a9.736 9.736 0 0 1-4.861-8.43v-21.207a9.737 9.737 0 0 1 4.861-8.43l18.345-10.603Zm67.148 0a9.713 9.713 0 0 1 9.723 0l18.345 10.603a9.738 9.738 0 0 1 4.862 8.43v21.207a9.737 9.737 0 0 1-4.862 8.43l-18.345 10.603a9.713 9.713 0 0 1-9.723 0l-18.345-10.603a9.735 9.735 0 0 1-4.862-8.43v-21.207a9.736 9.736 0 0 1 4.862-8.43l18.345-10.603Zm67.211 0a9.713 9.713 0 0 1 9.723 0l18.345 10.603a9.736 9.736 0 0 1 4.862 8.43v21.207a9.735 9.735 0 0 1-4.862 8.43l-18.345 10.603a9.713 9.713 0 0 1-9.723 0l-18.345-10.603a9.735 9.735 0 0 1-4.862-8.43v-21.207a9.736 9.736 0 0 1 4.862-8.43l18.345-10.603Z" stroke="#E5E8FF" stroke-width="2" mask="url(#path-2-inside-1_22053_64527)"/><path d="M-125.531 116.812a6.061 6.061 0 0 1 6.062 0l11.438 6.604a6.061 6.061 0 0 1 3.031 5.25v13.207a6.061 6.061 0 0 1-3.031 5.25l-11.438 6.604a6.061 6.061 0 0 1-6.062 0l-11.438-6.604a6.061 6.061 0 0 1-3.031-5.25v-13.207a6.061 6.061 0 0 1 3.031-5.25l11.438-6.604Zm941.001 0a6.058 6.058 0 0 1 6.06 0l11.44 6.604a6.052 6.052 0 0 1 3.03 5.25v13.207a6.052 6.052 0 0 1-3.03 5.25l-11.44 6.604a6.058 6.058 0 0 1-6.06 0l-11.44-6.604a6.073 6.073 0 0 1-3.03-5.25v-13.207a6.073 6.073 0 0 1 3.03-5.25l11.44-6.604Zm-235.001-62a6.064 6.064 0 0 1 6.063 0l11.437 6.604a6.061 6.061 0 0 1 3.031 5.25v13.207a6.061 6.061 0 0 1-3.031 5.25l-11.437 6.604a6.064 6.064 0 0 1-6.063 0l-11.437-6.604a6.062 6.062 0 0 1-3.032-5.25V66.666a6.062 6.062 0 0 1 3.032-5.25l11.437-6.604Zm-235-62a6.064 6.064 0 0 1 6.063 0l11.437 6.604A6.061 6.061 0 0 1 366 4.666v13.207a6.061 6.061 0 0 1-3.031 5.25l-11.437 6.604a6.064 6.064 0 0 1-6.063 0l-11.437-6.604a6.062 6.062 0 0 1-3.032-5.25V4.666a6.062 6.062 0 0 1 3.032-5.25l11.437-6.604Zm-370 62a6.062 6.062 0 0 1 6.062 0l11.438 6.604A6.061 6.061 0 0 1-4 66.666v13.207a6.061 6.061 0 0 1-3.031 5.25l-11.438 6.604a6.062 6.062 0 0 1-6.062 0l-11.438-6.604A6.061 6.061 0 0 1-39 79.873V66.666a6.061 6.061 0 0 1 3.031-5.25l11.438-6.604Zm941.001 0a6.058 6.058 0 0 1 6.06 0l11.44 6.604a6.052 6.052 0 0 1 3.03 5.25v13.207a6.052 6.052 0 0 1-3.03 5.25l-11.44 6.604a6.058 6.058 0 0 1-6.06 0l-11.44-6.604a6.073 6.073 0 0 1-3.03-5.25V66.666a6.073 6.073 0 0 1 3.03-5.25l11.44-6.604Zm-1109.001-61a6.062 6.062 0 0 1 6.062 0l11.438 6.604A6.061 6.061 0 0 1-172 5.666v13.207a6.061 6.061 0 0 1-3.031 5.25l-11.438 6.604a6.062 6.062 0 0 1-6.062 0l-11.438-6.604a6.061 6.061 0 0 1-3.031-5.25V5.666a6.061 6.061 0 0 1 3.031-5.25l11.438-6.604Zm941 0a6.064 6.064 0 0 1 6.063 0L765.969.416A6.061 6.061 0 0 1 769 5.666v13.207a6.061 6.061 0 0 1-3.031 5.25l-11.437 6.604a6.064 6.064 0 0 1-6.063 0l-11.437-6.604a6.062 6.062 0 0 1-3.032-5.25V5.666a6.062 6.062 0 0 1 3.032-5.25l11.437-6.604Zm-672 123a6.061 6.061 0 0 1 6.062 0l11.438 6.604a6.061 6.061 0 0 1 3.031 5.25v13.207a6.061 6.061 0 0 1-3.031 5.25l-11.438 6.604a6.061 6.061 0 0 1-6.062 0l-11.438-6.604a6.061 6.061 0 0 1-3.031-5.25v-13.207a6.061 6.061 0 0 1 3.031-5.25l11.438-6.604Zm941.001 0a6.058 6.058 0 0 1 6.06 0l11.44 6.604a6.052 6.052 0 0 1 3.03 5.25v13.207a6.052 6.052 0 0 1-3.03 5.25l-11.44 6.604a6.058 6.058 0 0 1-6.06 0l-11.44-6.604a6.073 6.073 0 0 1-3.03-5.25v-13.207a6.073 6.073 0 0 1 3.03-5.25l11.44-6.604Zm-840.001 60a6.061 6.061 0 0 1 6.062 0l11.438 6.604a6.061 6.061 0 0 1 3.031 5.25v13.207a6.061 6.061 0 0 1-3.031 5.25l-11.438 6.604a6.061 6.061 0 0 1-6.062 0l-11.438-6.604a6.061 6.061 0 0 1-3.031-5.25v-13.207a6.061 6.061 0 0 1 3.031-5.25l11.438-6.604Zm941.001 0a6.058 6.058 0 0 1 6.06 0l11.44 6.604a6.052 6.052 0 0 1 3.03 5.25v13.207a6.052 6.052 0 0 1-3.03 5.25l-11.44 6.604a6.058 6.058 0 0 1-6.06 0l-11.44-6.604a6.073 6.073 0 0 1-3.03-5.25v-13.207a6.073 6.073 0 0 1 3.03-5.25l11.44-6.604ZM76.469-6.188a6.062 6.062 0 0 1 6.062 0L93.969.416A6.061 6.061 0 0 1 97 5.666v13.207a6.061 6.061 0 0 1-3.031 5.25l-11.438 6.604a6.062 6.062 0 0 1-6.062 0l-11.438-6.604A6.061 6.061 0 0 1 62 18.873V5.666a6.061 6.061 0 0 1 3.031-5.25l11.438-6.604Zm941.001 0a6.058 6.058 0 0 1 6.06 0l11.44 6.604a6.052 6.052 0 0 1 3.03 5.25v13.207a6.052 6.052 0 0 1-3.03 5.25l-11.44 6.604a6.058 6.058 0 0 1-6.06 0l-11.44-6.604a6.073 6.073 0 0 1-3.03-5.25V5.666a6.073 6.073 0 0 1 3.03-5.25l11.44-6.604Zm-605.001 123a6.063 6.063 0 0 1 6.063 0l11.437 6.604a6.061 6.061 0 0 1 3.031 5.25v13.207a6.061 6.061 0 0 1-3.031 5.25l-11.437 6.604a6.063 6.063 0 0 1-6.063 0l-11.437-6.604a6.062 6.062 0 0 1-3.032-5.25v-13.207a6.062 6.062 0 0 1 3.032-5.25l11.437-6.604Z" fill="#F0F1FF"/><path d="M412.469 116.812a6.063 6.063 0 0 1 6.063 0l11.437 6.604a6.061 6.061 0 0 1 3.031 5.25v13.207a6.061 6.061 0 0 1-3.031 5.25l-11.437 6.604a6.063 6.063 0 0 1-6.063 0l-11.437-6.604a6.062 6.062 0 0 1-3.032-5.25v-13.207a6.062 6.062 0 0 1 3.032-5.25l11.437-6.604Zm102 60a6.063 6.063 0 0 1 6.063 0l11.437 6.604a6.061 6.061 0 0 1 3.031 5.25v13.207a6.061 6.061 0 0 1-3.031 5.25l-11.437 6.604a6.063 6.063 0 0 1-6.063 0l-11.437-6.604a6.062 6.062 0 0 1-3.032-5.25v-13.207a6.062 6.062 0 0 1 3.032-5.25l11.437-6.604Z" fill="#F0F1FF"/><defs><filter id="filter0_b_22053_64527" x="-14" y="-14" width="1404" height="228" filterUnits="userSpaceOnUse" color-interpolation-filters="sRGB"><feFlood flood-opacity="0" result="BackgroundImageFix"/><feGaussianBlur in="BackgroundImageFix" stdDeviation="7"/><feComposite in2="SourceAlpha" operator="in" result="effect1_backgroundBlur_22053_64527"/><feBlend mode="normal" in="SourceGraphic" in2="effect1_backgroundBlur_22053_64527" result="shape"/></filter></defs></svg>