<svg xmlns="http://www.w3.org/2000/svg" width="48" height="48"><g fill="none" fill-rule="evenodd"><path fill="#B7F0EF" d="m27.222 9.045 14-2.777A4 4 0 0 1 46 10.192v22.39a4 4 0 0 1-3.222 3.923l-14 2.777A4 4 0 0 1 24 35.358v-22.39a4 4 0 0 1 3.222-3.923Z" opacity=".7"/><path fill="#87E6E5" d="m6.778 6.268 14 2.777A4 4 0 0 1 24 12.97v22.39a4 4 0 0 1-4.778 3.923l-14-2.777A4 4 0 0 1 2 32.58V10.19a4 4 0 0 1 4.778-3.923Z"/><path fill="#61C1FD" d="M22 10c1.167.23 2.018.625 2.554 1.188.536.562 1.018 1.687 1.446 3.374V39.22c0 1.698.424 3.74 1.272 6.125l-2.718-3.469-1.572 3.469C22.327 43.199 22 41.23 22 39.438V10Z"/></g></svg>