<svg viewBox="0 0 41 40" fill="none" xmlns="http://www.w3.org/2000/svg"><g clip-path="url(#clip0_22075_67641)"><path d="M20.5 40c11.046 0 20-8.954 20-20s-8.954-20-20-20S.5 8.954.5 20s8.954 20 20 20Z" fill="#0B0609"/><path d="M19.58 17.66c-.232.212-.457.434-.702.63a.528.528 0 0 1-.311.085c-3.237.004-6.474.007-9.711.008-.234 0-.317-.079-.293-.302.012-.101-.023-.214.01-.304a.58.58 0 0 1 .19-.206c.025-.02.08-.004.121-.004H19.514l.066.094ZM19.643 14.842h-.323c-3.443 0-6.885 0-10.328-.002-.384 0-.59-.338-.411-.682a.217.217 0 0 1 .142-.088c.092-.01.184-.013.276-.008 3.135-.001 6.27.005 9.406-.011.4-.002.711.08.96.4.086.109.222.178.335.266l-.057.125ZM19.732 12.932c-.262.248-.468.46-.695.647a.52.52 0 0 1-.31.088c-3.288.004-6.575 0-9.863.007-.257 0-.332-.102-.297-.329.028-.182-.124-.455.26-.454 3.574.004 7.149.005 10.723.002.061.01.122.022.182.039ZM19.58 10.15c-.155.008-.254.017-.352.017-3.412 0-6.825-.001-10.237-.004-.135 0-.372-.018-.387-.074-.052-.19-.032-.4-.018-.602.002-.035.107-.079.17-.09.09-.01.183-.013.275-.007 3.085 0 6.17.02 9.253-.019.64-.008.91.372 1.297.78ZM22.113 17.566h.301c3.033 0 6.065.002 9.098.004.122 0 .344.035.351.08.028.22.028.443 0 .664-.003.027-.14.061-.216.061-2.879.004-5.758.003-8.636-.001a.448.448 0 0 1-.273-.102c-.229-.203-.441-.423-.66-.636l.035-.07ZM18.417 18.733c-.4.457-.712.81-1.37.799-2.684-.047-5.369-.02-8.053-.02-.384 0-.593-.342-.413-.685a.221.221 0 0 1 .143-.088 1.33 1.33 0 0 1 .245-.005h9.448ZM18.42 8.997h-.35c-3.045 0-6.089-.001-9.133-.004-.12 0-.334-.04-.344-.093-.035-.199-.033-.403.007-.602.008-.045.194-.08.299-.08 1.127-.007 2.255-.006 3.382-.006 1.578 0 3.158.04 4.735-.017.664-.025 1 .322 1.403.802ZM23.278 18.734h.27c2.662 0 5.325.004 7.988-.006.275 0 .384.065.37.356-.01.26-.008.438-.365.436-2.427-.014-4.854-.004-7.281-.016-.163-.001-.344-.097-.483-.195a5.96 5.96 0 0 1-.547-.487l.048-.088ZM25.57 17.212c-1.279 0-2.462.004-3.644-.008a.285.285 0 0 1-.199-.19c-.084-.583-.05-.615.545-.615.695 0 1.39.013 2.084-.006.28-.008.487.068.666.282.143.17.318.314.548.537ZM16.762 17.213c.15-.264.278-.508.427-.738.033-.05.14-.073.213-.073.756-.005 1.512 0 2.268-.006.19-.001.259.08.248.257-.003.05 0 .102 0 .153 0 .406 0 .407-.4.407h-2.756ZM9.963 17.212c-.389 0-.778-.005-1.167.002-.172.003-.235-.064-.233-.235.007-.698-.054-.572.561-.58.645-.006 1.29.007 1.935-.006.23-.005.32.075.295.3-.01.092-.01.184-.001.276.015.188-.071.25-.254.246-.378-.009-.757-.002-1.136-.002v-.002ZM16.906 15.23h1.098c.541 0 1.083.007 1.624-.003.211-.004.286.07.29.282.007.49.017.5-.469.51-.673.017-1.347.013-2.021.025-.189.003-.26-.061-.29-.258-.028-.185-.145-.357-.232-.557ZM9.94 16.016c-.366 0-.734-.007-1.101.002-.214.005-.298-.085-.277-.293.009-.09-.026-.196.009-.271.04-.088.134-.212.206-.213a60.393 60.393 0 0 1 2.359-.002c.073.001.155.13.21.214.028.044.005.12.005.18 0 .406 0 .407-.4.407h-1.01v-.024ZM9.962 11.328c-.378 0-.756-.007-1.133.003-.196.005-.288-.06-.268-.263a1.651 1.651 0 0 0 .001-.274c-.01-.163.053-.249.225-.25.776-.007 1.552-.015 2.328-.026.167-.003.248.062.236.234a1.84 1.84 0 0 0 .002.305c.022.22-.082.283-.288.277-.367-.012-.735-.003-1.103-.003v-.003ZM16.758 10.543h.749c.686 0 1.372.014 2.058-.005.329-.01.36.153.359.414-.001.251-.031.396-.347.386-.696-.024-1.392-.011-2.088-.004-.195.001-.31-.022-.36-.258-.037-.17-.21-.312-.371-.534ZM16.914 12.512c.092-.232.156-.427.247-.609.036-.072.13-.164.2-.165.786-.01 1.572-.01 2.358.002a.271.271 0 0 1 .186.177c.099.501.017.594-.485.595H16.914ZM23.148 15.23c.337 0 .675.02 1.01-.005.296-.021.389.096.35.368a.862.862 0 0 0 0 .183c.012.17-.07.24-.235.24-.776-.002-1.553-.002-2.329 0-.172 0-.235-.088-.228-.25a2.908 2.908 0 0 0 0-.305c-.01-.172.069-.235.237-.232.398.006.797.002 1.195.002ZM23.11 14.842c-.37 0-.738-.006-1.107.003-.208.005-.289-.069-.291-.284-.005-.5-.015-.5.497-.5.666 0 1.333.015 1.999-.004.292-.008.316.137.3.358-.013.203.074.45-.292.43-.368-.02-.738-.004-1.107-.004v.001ZM23.098 8.997c-.37 0-.738-.007-1.107.003-.192.005-.293-.051-.273-.259.009-.101-.027-.217.01-.303.04-.088.141-.21.218-.212a58.21 58.21 0 0 1 2.335.001c.076.002.182.124.216.212.037.098.002.222.01.333.013.18-.079.229-.242.226-.39-.005-.778-.001-1.168-.001ZM23.102 13.669c-.379 0-.758-.005-1.137.002-.183.003-.287-.072-.247-.251.041-.18-.163-.503.185-.516.808-.031 1.618-.013 2.427 0 .059.002.145.117.166.194.028.104.001.223.009.335.012.173-.067.238-.235.236-.39-.006-.779-.002-1.168-.002v.002ZM23.13 12.51c-.378 0-.758-.01-1.136.003-.371.013-.262-.25-.279-.445-.017-.205.009-.35.286-.343.747.016 1.495.011 2.243.004.202-.002.264.072.266.27.004.508.012.509-.488.51h-.891v.001ZM9.954 11.73c.37 0 .738.01 1.107-.005.232-.009.299.082.297.304-.004.483.006.484-.488.484-.666 0-1.332-.019-1.997.003-.382.012-.293-.234-.31-.447-.022-.24.045-.358.316-.343.357.02.717.005 1.075.005v-.002ZM23.126 11.33c-.388 0-.776-.005-1.164.003-.185.004-.263-.068-.25-.25a1.983 1.983 0 0 0 0-.276c-.01-.177.062-.263.248-.262.765.003 1.53.004 2.296 0 .183 0 .264.076.248.26a1.259 1.259 0 0 0 0 .243c.024.21-.059.293-.276.285-.367-.013-.735-.003-1.102-.003ZM23.09 10.167c-.368 0-.736-.006-1.105.003-.193.005-.29-.058-.272-.262a1.834 1.834 0 0 0 .001-.276c-.01-.166.06-.242.232-.241.778.003 1.556-.004 2.334.011.075.002.177.122.214.21.037.086.002.201.01.302.016.184-.06.258-.247.254-.388-.008-.777-.002-1.166-.002v.001ZM32.87 25.178c-.41.428-.681.803-1.32.795-3.115-.038-6.231-.017-9.347-.016-.425 0-.61-.27-.443-.66a.254.254 0 0 1 .159-.112.982.982 0 0 1 .244-.01l10.3.003h.408ZM32.844 27.107c-.143.009-.232.02-.321.02-3.461 0-6.922 0-10.383-.002-.123 0-.338-.035-.35-.09a2.128 2.128 0 0 1-.012-.601c.001-.031.092-.073.145-.08.102-.01.204-.012.307-.008 3.072 0 6.144.024 9.215-.018.654-.009 1.017.284 1.4.78ZM19.5 29.95c-.233.212-.458.434-.703.63a.531.531 0 0 1-.313.082c-2.867.004-5.734.003-8.6-.004a.785.785 0 0 1-.429-.173c-.21-.158-.393-.353-.588-.532l.04-.07h10.527l.066.067ZM32.733 22.453h-.384l-10.145.002c-.444 0-.581-.189-.444-.628a.26.26 0 0 1 .165-.14c.1-.016.204-.02.306-.011 3.053 0 6.107.023 9.16-.017.645-.009.95.34 1.342.794ZM31.53 21.285h-3.347c-2.017 0-4.034-.001-6.05-.004-.121 0-.335-.04-.345-.092a1.507 1.507 0 0 1 .009-.6c.01-.05.211-.084.325-.085 1.515-.006 3.03-.005 4.546-.005 1.229 0 2.457.013 3.686-.007.348-.005.607.086.829.35.114.138.275.237.415.353l-.068.09ZM18.317 31.103c-.223.207-.437.425-.673.616a.54.54 0 0 1-.317.075 877.16 877.16 0 0 1-6.304-.004.811.811 0 0 1-.433-.173 7.37 7.37 0 0 1-.569-.504l.052-.072h8.188l.056.062ZM16.059 29.411c.237-.22.469-.448.715-.657a.43.43 0 0 1 .258-.066c.84-.004 1.682.002 2.522-.006.212-.002.288.072.294.283.014.534.022.534-.5.534h-3.227l-.062-.088ZM12.232 29.499c-1.156 0-2.312-.002-3.468.002-.167 0-.25-.058-.243-.23a1.91 1.91 0 0 0-.002-.276c-.024-.239.074-.318.318-.314.777.013 1.556.015 2.333-.002a.75.75 0 0 1 .618.258c.168.162.345.312.53.452l-.086.11ZM31.747 29.853c.368 0 .736.007 1.104-.002.19-.005.265.07.245.252a.52.52 0 0 0 0 .062c.006.5.006.5-.485.5-.665 0-1.33-.011-1.993.005-.25.006-.336-.082-.308-.318a1.121 1.121 0 0 0 0-.244c-.02-.207.08-.263.272-.258.388.01.777.003 1.165.003ZM31.673 29.499c-.358 0-.716-.008-1.074.003-.202.007-.299-.044-.294-.27.012-.647-.04-.54.536-.545.654-.006 1.31.007 1.963-.005.234-.005.32.079.292.302a.809.809 0 0 0 0 .214c.037.254-.086.315-.319.305-.367-.015-.736-.004-1.104-.004ZM23.106 30.665c-.359 0-.718-.01-1.076.004-.214.008-.303-.07-.286-.282.007-.102.007-.205.002-.307-.008-.173.078-.23.244-.228.758.004 1.516.005 2.275 0 .17-.001.246.065.238.234-.006.102-.006.204.001.306.02.22-.084.283-.292.277-.368-.012-.737-.004-1.106-.004ZM23.139 28.685c.367 0 .735.008 1.102-.003.203-.006.279.078.265.27a1.76 1.76 0 0 0 0 .275c.02.219-.086.277-.292.275-.724-.01-1.45-.011-2.174.001-.233.004-.298-.084-.3-.303-.002-.516-.01-.516.51-.516h.889ZM23.128 23.618c-.37 0-.738-.007-1.107.002-.192.005-.274-.057-.282-.26-.02-.527-.004-.552.535-.554.635-.001 1.27.01 1.906-.005.26-.006.337.09.332.339-.008.477.003.478-.462.478h-.922ZM29.928 22.851c.112-.008.2-.02.287-.02.84-.001 1.68.016 2.518-.006.348-.01.369.153.371.426.003.268-.054.38-.354.372-.716-.02-1.433-.008-2.149-.003-.17.001-.264-.021-.312-.232-.04-.18-.215-.329-.361-.537ZM30.1 24.795c.063-.215.137-.426.22-.632a.297.297 0 0 1 .223-.139c.777-.009 1.556-.01 2.333.006.075.002.182.122.211.209a.667.667 0 0 1 0 .362c-.02.075-.115.183-.177.184-.94.006-1.88-.003-2.821-.01-.006 0-.011-.014.012.02ZM30.117 27.518c.898 0 1.82.004 2.74-.002.19-.002.26.074.245.255-.009.102.026.216-.01.303-.038.09-.137.216-.212.217-.778.016-1.556.015-2.334.004a.3.3 0 0 1-.22-.148 6.395 6.395 0 0 1-.209-.629ZM23.11 28.329c-.337 0-.676-.018-1.012.005-.294.02-.391-.1-.357-.372.007-.07.007-.142.002-.214-.007-.17.076-.233.242-.232.758.004 1.515.006 2.272 0 .19-.002.243.081.251.257.023.517.015.531-.508.532h-.89v.024ZM18.473 27.517c.348 0 .696.01 1.042-.004.232-.009.338.06.33.308-.015.56.082.508-.503.506-.654-.003-1.308-.028-1.961-.018-.351.006-.295-.217-.301-.428-.006-.207-.015-.386.29-.368.367.022.736.005 1.103.005ZM18.495 26.347c.368 0 .736.007 1.104-.003.196-.005.287.065.27.265a2.271 2.271 0 0 0 0 .275c.007.162-.058.245-.231.244-.777-.003-1.553-.004-2.33-.002-.176 0-.218-.09-.225-.249-.025-.528-.03-.528.493-.529h.92v-.001ZM31.716 31.02c.368 0 .736.01 1.103-.004.22-.008.298.077.276.286-.01.09.027.197-.01.271-.042.088-.14.21-.215.212-.777.016-1.554.009-2.33.01-.172.001-.24-.08-.23-.245a2.455 2.455 0 0 0 0-.305c-.012-.177.075-.23.24-.227.389.007.777.002 1.166.002ZM18.482 25.954c-.367 0-.735-.01-1.102.004-.226.008-.304-.072-.302-.3.004-.478-.007-.479.485-.48.663 0 1.328.015 1.99-.008.346-.012.31.19.316.412.006.227-.004.4-.315.38-.356-.023-.714-.006-1.072-.006v-.002ZM18.453 24.796c-.368 0-.736-.006-1.103.002-.198.004-.265-.074-.27-.27-.01-.509-.017-.509.485-.51.674 0 1.348.011 2.022-.006.31-.008.286.18.28.378-.005.197.058.426-.28.412-.378-.016-.756-.004-1.134-.004v-.002ZM9.88 28.303c-.357 0-.715-.01-1.072.003-.355.012-.28-.236-.29-.44-.009-.196-.008-.358.277-.352.734.014 1.47.013 2.204 0 .256-.005.294.128.27.323-.023.186.113.466-.256.466H9.88ZM18.44 21.283c-.368 0-.738-.007-1.107.003-.189.004-.245-.073-.25-.254-.016-.53-.023-.53.504-.53.646-.001 1.292.01 1.937-.006.366-.009.308.229.322.452.015.244-.063.355-.33.341-.357-.02-.717-.005-1.075-.005v-.001ZM9.877 25.954c-.368 0-.737-.006-1.105.002-.329.008-.245-.229-.252-.406-.007-.182-.04-.376.258-.372.747.01 1.494.006 2.241.001.185-.001.247.072.254.254.02.522.027.522-.505.523h-.89v-.002ZM9.87 21.284c-.359 0-.717-.007-1.075.003-.196.006-.27-.063-.276-.263-.013-.512-.014-.52.487-.52.645-.002 1.29.016 1.935-.007.359-.013.324.196.334.43.011.249-.038.383-.331.363-.357-.024-.716-.006-1.074-.006ZM23.122 24.017c.368 0 .736.012 1.104-.005.278-.012.298.15.281.35-.015.185.087.44-.258.438-.746-.004-1.493-.006-2.24 0-.342.004-.254-.242-.265-.43-.012-.193-.012-.37.274-.357.367.015.736.004 1.104.004ZM9.87 24.795c-.358 0-.716-.011-1.074.003-.312.013-.283-.191-.277-.387.005-.184-.06-.4.265-.395.737.012 1.474.007 2.21 0 .192-.001.274.056.28.26.012.52.021.52-.513.52h-.89ZM18.453 23.616c-.378 0-.756-.005-1.134.002-.17.003-.245-.065-.234-.235a2.707 2.707 0 0 0 0-.306c-.008-.166.064-.245.233-.244.756.001 1.512-.003 2.268 0 .36.003.236.283.258.473.023.208-.045.325-.288.315-.367-.014-.735-.003-1.103-.003v-.002ZM9.89 23.615c-.358 0-.718-.015-1.075.005-.269.015-.316-.121-.295-.335.019-.195-.09-.458.275-.455.738.007 1.476.004 2.213.001.176 0 .273.061.262.25a2.698 2.698 0 0 0 0 .307c.01.175-.076.231-.242.229-.38-.007-.758-.002-1.138-.002ZM18.461 22.453c-.369 0-.738-.007-1.106.003-.192.004-.294-.053-.274-.26a1.76 1.76 0 0 0 0-.276c-.01-.167.06-.243.232-.242.758.002 1.516 0 2.275 0 .345 0 .233.264.25.446.019.192-.012.343-.27.333-.369-.013-.738-.003-1.107-.003v-.001ZM9.904 22.453c-.358 0-.717-.009-1.074.003-.217.008-.314-.053-.314-.29 0-.487-.012-.488.484-.488.645 0 1.29.018 1.933-.007.351-.014.337.178.342.42.005.243-.03.388-.328.367-.347-.023-.696-.005-1.043-.005ZM23.118 31.02c.368 0 .737.01 1.106-.004.22-.008.28.08.283.287.005.493.013.493-.483.494-.635 0-1.27-.016-1.904.008-.343.013-.377-.148-.38-.425-.002-.275.071-.388.365-.366.336.025.675.006 1.013.006ZM9.898 26.35c.369 0 .738.013 1.106-.004.295-.013.275.174.266.361-.01.19.077.429-.27.424a78.4 78.4 0 0 0-2.211-.001c-.345.004-.26-.237-.27-.426-.01-.193-.015-.37.273-.358.368.017.737.005 1.106.005Z" fill="#F46825"/></g><defs><clipPath id="clip0_22075_67641"><rect width="40" height="40" fill="white" transform="translate(0.5)"/></clipPath></defs></svg>