<svg viewBox="0 0 41 40" fill="none" xmlns="http://www.w3.org/2000/svg">
  <g clip-path="url(#clip0_22075_67641)">
    <path
      d="M20.5 40C31.5457 40 40.5 31.0457 40.5 20C40.5 8.9543 31.5457 0 20.5 0C9.4543 0 0.5 8.9543 0.5 20C0.5 31.0457 9.4543 40 20.5 40Z"
      fill="#0B0609" />
    <path
      d="M19.5804 17.6606C19.3478 17.8725 19.1228 18.0937 18.8783 18.2909C18.7858 18.3508 18.6769 18.3803 18.5669 18.3752C15.3297 18.3793 12.0926 18.3818 8.85551 18.3826C8.62223 18.3831 8.53851 18.3042 8.56348 18.0805C8.57474 17.9796 8.54037 17.8673 8.57324 17.777C8.61886 17.6937 8.68429 17.6228 8.76377 17.5707C8.78814 17.5505 8.84309 17.5666 8.88406 17.5666C12.367 17.5665 15.85 17.5664 19.333 17.5663C19.3934 17.5663 19.4539 17.5663 19.5143 17.5663L19.5804 17.6606Z"
      fill="#F46825" />
    <path
      d="M19.643 14.8423C19.5353 14.8423 19.4275 14.8423 19.3197 14.8423C15.8772 14.8418 12.4348 14.8411 8.9923 14.8405C8.60834 14.8404 8.40196 14.502 8.58074 14.1579C8.59746 14.1344 8.61869 14.1145 8.64319 14.0993C8.6677 14.0841 8.69498 14.074 8.72345 14.0695C8.81504 14.0593 8.90732 14.0568 8.99934 14.0619C12.1344 14.061 15.2696 14.0674 18.4046 14.0508C18.8058 14.0487 19.1163 14.131 19.3656 14.4506C19.4508 14.5598 19.5872 14.6292 19.7003 14.7168L19.643 14.8423Z"
      fill="#F46825" />
    <path
      d="M19.7321 12.9319C19.4699 13.1797 19.264 13.3919 19.0373 13.579C18.9457 13.6407 18.8369 13.6717 18.7266 13.6675C15.4391 13.6712 12.1516 13.6671 8.86415 13.6736C8.60713 13.6741 8.53158 13.5716 8.56668 13.3455C8.59496 13.1634 8.44311 12.8902 8.82704 12.8906C12.4013 12.8949 15.9755 12.8958 19.5498 12.8934C19.6113 12.9024 19.6722 12.9152 19.7321 12.9319Z"
      fill="#F46825" />
    <path
      d="M19.5809 10.1509C19.4248 10.1581 19.3263 10.1666 19.2278 10.1667C15.8156 10.167 12.4034 10.1659 8.99123 10.1633C8.85582 10.1631 8.61886 10.1454 8.60362 10.089C8.55244 9.8996 8.57188 9.68841 8.58595 9.48707C8.58841 9.45197 8.69284 9.40808 8.75534 9.39683C8.84693 9.38648 8.93926 9.38419 9.03125 9.39C12.1155 9.38946 15.2001 9.41055 18.2839 9.37122C18.9248 9.36304 19.1941 9.74273 19.5809 10.1509Z"
      fill="#F46825" />
    <path
      d="M22.1125 17.5662C22.2131 17.5662 22.3137 17.5662 22.4143 17.5662C25.4467 17.5664 28.4792 17.5678 31.5116 17.5703C31.6344 17.5705 31.8558 17.6047 31.8632 17.6502C31.8907 17.8704 31.8906 18.0933 31.8628 18.3135C31.8602 18.3413 31.7222 18.3753 31.6469 18.3754C28.7681 18.3786 25.8893 18.3781 23.0106 18.374C22.9108 18.3712 22.8147 18.3352 22.7378 18.2716C22.5094 18.0691 22.2968 17.849 22.0781 17.6356L22.1125 17.5662Z"
      fill="#F46825" />
    <path
      d="M18.4172 18.7333C18.0169 19.19 17.7054 19.543 17.0462 19.5315C14.3629 19.4848 11.6784 19.5123 8.9943 19.5118C8.6098 19.5117 8.40144 19.1704 8.5807 18.8271C8.61508 18.7801 8.66654 18.7486 8.72398 18.7393C8.80533 18.7299 8.88739 18.728 8.9691 18.7337C11.9912 18.7335 15.0134 18.7334 18.0355 18.7333C18.1375 18.7333 18.2394 18.7333 18.4172 18.7333Z"
      fill="#F46825" />
    <path
      d="M18.4192 8.99742C18.2526 8.99742 18.1611 8.99743 18.0695 8.99742C15.0254 8.99721 11.9812 8.99569 8.93701 8.99287C8.81668 8.99266 8.6033 8.95313 8.59281 8.90039C8.5579 8.70096 8.56039 8.49678 8.60015 8.29826C8.60836 8.25344 8.79424 8.21786 8.89856 8.21727C10.026 8.21092 11.1535 8.21192 12.281 8.21191C13.8594 8.21188 15.4393 8.25192 17.0157 8.19455C17.6797 8.17039 18.0169 8.51682 18.4192 8.99742Z"
      fill="#F46825" />
    <path
      d="M23.278 18.7338C23.3678 18.7338 23.4576 18.7338 23.5473 18.7338C26.2101 18.7339 28.8728 18.7379 31.5355 18.7285C31.8114 18.7276 31.9197 18.7931 31.9067 19.0841C31.8951 19.3448 31.8983 19.5219 31.5411 19.5198C29.114 19.5059 26.6868 19.5161 24.2597 19.5038C24.0971 19.503 23.9165 19.4071 23.7773 19.3089C23.5852 19.1578 23.4026 18.9951 23.2305 18.8216L23.278 18.7338Z"
      fill="#F46825" />
    <path
      d="M25.5701 17.2125C24.291 17.2125 23.1082 17.2158 21.9256 17.2041C21.8793 17.1917 21.8369 17.1679 21.8023 17.1348C21.7677 17.1017 21.7419 17.0604 21.7274 17.0148C21.6434 16.4309 21.6771 16.3993 22.2717 16.3993C22.9666 16.3992 23.6618 16.4123 24.3561 16.3931C24.6366 16.3854 24.8431 16.4612 25.0224 16.6748C25.1654 16.845 25.3397 16.989 25.5701 17.2125Z"
      fill="#F46825" />
    <path
      d="M16.7617 17.2129C16.9114 16.9495 17.0398 16.7054 17.1891 16.4749C17.2217 16.4246 17.3291 16.4022 17.4023 16.4017C18.1581 16.3967 18.914 16.4027 19.6698 16.3965C19.8595 16.3949 19.929 16.4761 19.9178 16.6529C19.9146 16.7036 19.918 16.7548 19.918 16.8057C19.9176 17.212 19.9176 17.2126 19.5174 17.2128C18.5987 17.2131 17.6802 17.2132 16.7617 17.2129Z"
      fill="#F46825" />
    <path
      d="M9.96306 17.2115C9.57414 17.2115 9.18512 17.2066 8.79633 17.2137C8.62399 17.2169 8.56072 17.1497 8.56254 16.9789C8.56998 16.281 8.50946 16.4066 9.12448 16.3998C9.76921 16.3927 10.4142 16.4056 11.0588 16.3928C11.2894 16.3882 11.3788 16.4685 11.3539 16.6935C11.3449 16.785 11.3446 16.8772 11.353 16.9688C11.3679 17.1568 11.2819 17.2197 11.0991 17.2154C10.7206 17.2065 10.3417 17.2127 9.96306 17.2127V17.2115Z"
      fill="#F46825" />
    <path
      d="M16.9062 15.2293C17.2579 15.2293 17.6311 15.2292 18.0043 15.2293C18.5455 15.2295 19.0868 15.2367 19.6278 15.2267C19.8391 15.2228 19.9142 15.2977 19.9176 15.5089C19.9254 15.9984 19.9345 16.0083 19.4491 16.0198C18.7756 16.0359 18.1016 16.0316 17.428 16.0435C17.239 16.0468 17.1685 15.9827 17.1382 15.7858C17.1097 15.6006 16.9934 15.4288 16.9062 15.2293Z"
      fill="#F46825" />
    <path
      d="M9.94082 16.0156C9.57351 16.0156 9.20605 16.0091 8.83895 16.018C8.62455 16.0232 8.54064 15.9335 8.56153 15.7251C8.57062 15.6344 8.53565 15.5294 8.57051 15.4537C8.61071 15.3665 8.70468 15.2424 8.77747 15.241C9.56339 15.225 10.3495 15.2244 11.1358 15.2391C11.2086 15.2404 11.2907 15.3692 11.3456 15.4535C11.3737 15.4966 11.3513 15.5726 11.3513 15.6337C11.3513 16.0394 11.3513 16.0398 10.9518 16.0404C10.6148 16.0409 10.2779 16.0409 9.94093 16.0405L9.94082 16.0156Z"
      fill="#F46825" />
    <path
      d="M9.96229 11.3283C9.58447 11.3283 9.20646 11.3213 8.8289 11.3312C8.63347 11.3363 8.54059 11.2719 8.56148 11.0683C8.56933 10.977 8.56955 10.8851 8.56215 10.7937C8.55152 10.6306 8.61478 10.5453 8.78737 10.5438C9.56322 10.5373 10.339 10.5286 11.1149 10.5176C11.2817 10.5152 11.3625 10.5797 11.3515 10.752C11.3434 10.8536 11.3438 10.9557 11.3526 11.0572C11.375 11.277 11.2713 11.34 11.065 11.3336C10.6978 11.3224 10.3299 11.3305 9.96229 11.3305L9.96229 11.3283Z"
      fill="#F46825" />
    <path
      d="M16.7578 10.5425C17.0437 10.5425 17.2753 10.5424 17.5069 10.5425C18.1929 10.5428 18.8793 10.5573 19.5647 10.5375C19.8939 10.528 19.925 10.691 19.924 10.952C19.923 11.2033 19.8928 11.3483 19.577 11.3377C18.8815 11.3143 18.1847 11.3268 17.4886 11.3335C17.2945 11.3353 17.1796 11.3118 17.1287 11.0755C17.0919 10.9052 16.9191 10.7641 16.7578 10.5425Z"
      fill="#F46825" />
    <path
      d="M16.9141 12.5119C17.0058 12.2799 17.07 12.0849 17.161 11.9033C17.1973 11.8308 17.2919 11.7394 17.3611 11.7384C18.147 11.7272 18.933 11.7279 19.719 11.7403C19.7622 11.7521 19.8018 11.7745 19.8343 11.8054C19.8667 11.8363 19.891 11.8747 19.905 11.9172C20.0038 12.4182 19.9224 12.5112 19.42 12.5116C18.6748 12.5122 17.9295 12.5123 17.1843 12.5119C17.0853 12.5119 16.9863 12.5119 16.9141 12.5119Z"
      fill="#F46825" />
    <path
      d="M23.148 15.2307C23.485 15.2309 23.8234 15.2498 24.1586 15.2252C24.4538 15.2035 24.5469 15.3213 24.5082 15.5928C24.5014 15.6536 24.5012 15.715 24.5074 15.7759C24.5201 15.946 24.4386 16.0165 24.2727 16.0161C23.4966 16.0143 22.7204 16.0142 21.9443 16.0157C21.7724 16.016 21.7085 15.9281 21.7162 15.7662C21.7214 15.6645 21.7212 15.5625 21.7157 15.4608C21.7056 15.2892 21.785 15.226 21.9532 15.2286C22.3514 15.2347 22.7497 15.2306 23.148 15.2307Z"
      fill="#F46825" />
    <path
      d="M23.1095 14.8424C22.7406 14.8424 22.3715 14.8356 22.0029 14.845C21.7946 14.8504 21.7142 14.7765 21.712 14.5611C21.7071 14.0617 21.6974 14.0615 22.2094 14.0617C22.8755 14.0619 23.542 14.0759 24.2076 14.057C24.4998 14.0487 24.5243 14.1938 24.5089 14.415C24.4947 14.6177 24.5816 14.8651 24.2161 14.8454C23.8482 14.8256 23.4785 14.8411 23.1095 14.8411L23.1095 14.8424Z"
      fill="#F46825" />
    <path
      d="M23.0975 8.99698C22.7287 8.99738 22.3599 8.99049 21.9914 9.00021C21.7995 9.00528 21.6984 8.94858 21.7176 8.74115C21.7269 8.63985 21.6909 8.52437 21.7285 8.43845C21.7673 8.34978 21.8695 8.22738 21.946 8.22589C22.7241 8.21073 23.5023 8.21118 24.2808 8.22724C24.3569 8.2288 24.4626 8.35052 24.4965 8.43868C24.5342 8.53664 24.4991 8.6605 24.507 8.7723C24.5197 8.95219 24.4282 9.00087 24.265 8.99844C23.8759 8.99263 23.4867 8.99657 23.0975 8.99698Z"
      fill="#F46825" />
    <path
      d="M23.102 13.669C22.723 13.669 22.3439 13.6641 21.965 13.6711C21.7818 13.6744 21.6777 13.5991 21.7185 13.4196C21.7594 13.2398 21.5546 12.9169 21.903 12.9036C22.7109 12.8727 23.521 12.8911 24.33 12.9047C24.3886 12.9057 24.4745 13.0213 24.4956 13.0978C24.5244 13.2023 24.497 13.321 24.5047 13.4328C24.5166 13.6056 24.4383 13.6707 24.2697 13.6685C23.8805 13.6633 23.4912 13.6668 23.102 13.6668V13.669Z"
      fill="#F46825" />
    <path
      d="M23.1308 12.5104C22.7517 12.5104 22.3723 12.5001 21.9937 12.5133C21.623 12.5263 21.7321 12.2622 21.7153 12.0683C21.6975 11.8625 21.7235 11.7187 22.0007 11.7248C22.7482 11.7412 23.4964 11.7361 24.2443 11.729C24.4458 11.7271 24.5082 11.8012 24.5098 11.9988C24.5138 12.5075 24.5224 12.5078 24.0222 12.509C23.7251 12.5096 23.4279 12.5091 23.1308 12.5091V12.5104Z"
      fill="#F46825" />
    <path
      d="M9.95441 11.7291C10.3232 11.7291 10.6924 11.7398 11.0607 11.7252C11.2931 11.7161 11.3598 11.8068 11.3579 12.0293C11.3538 12.5123 11.364 12.513 10.8702 12.5126C10.2043 12.5121 9.53787 12.4944 8.87269 12.5156C8.49051 12.5278 8.58047 12.2824 8.5621 12.069C8.5414 11.8285 8.60796 11.7112 8.87902 11.7265C9.23644 11.7466 9.59585 11.7314 9.95441 11.7314V11.7291Z"
      fill="#F46825" />
    <path
      d="M23.1261 11.3306C22.7382 11.3306 22.3501 11.3247 21.9624 11.3332C21.777 11.3372 21.6987 11.2654 21.7125 11.0822C21.719 10.9907 21.7191 10.899 21.7129 10.8075C21.7015 10.6297 21.7744 10.5441 21.9596 10.5449C22.7252 10.5483 23.4908 10.5485 24.2563 10.5457C24.4387 10.545 24.5197 10.6213 24.5042 10.8041C24.4964 10.8853 24.4966 10.967 24.5046 11.0481C24.5281 11.2582 24.4455 11.3409 24.2284 11.3332C23.8614 11.32 23.4935 11.3296 23.1261 11.3296V11.3306Z"
      fill="#F46825" />
    <path
      d="M23.0907 10.1672C22.7222 10.1672 22.3535 10.1605 21.9853 10.1699C21.7917 10.1749 21.6944 10.1124 21.7133 9.90783C21.7205 9.81618 21.7208 9.72413 21.7142 9.63244C21.7044 9.46574 21.7748 9.38988 21.9464 9.39063C22.7243 9.39404 23.5023 9.38663 24.28 9.40221C24.3555 9.40373 24.4568 9.5244 24.4943 9.61186C24.5314 9.69817 24.4957 9.81314 24.5044 9.91449C24.52 10.0984 24.4447 10.1721 24.2575 10.1681C23.8688 10.1598 23.4797 10.1656 23.0907 10.1656V10.1672Z"
      fill="#F46825" />
    <path
      d="M32.8708 25.1778C32.4603 25.6057 32.1886 25.9809 31.5496 25.9731C28.4347 25.9349 25.3189 25.9565 22.2035 25.9567C21.7775 25.9568 21.5933 25.6879 21.7604 25.2977C21.7961 25.2407 21.853 25.2001 21.9186 25.1849C21.9994 25.1716 22.0816 25.1685 22.1632 25.1756C25.5963 25.1762 29.0295 25.1769 32.4626 25.1778C32.571 25.1778 32.6793 25.1778 32.8708 25.1778Z"
      fill="#F46825" />
    <path
      d="M32.8444 27.1072C32.7012 27.116 32.612 27.1262 32.5228 27.1263C29.0618 27.1277 25.6008 27.1272 22.1399 27.125C22.0174 27.1248 21.8021 27.09 21.7894 27.0348C21.757 26.836 21.753 26.6336 21.7775 26.4337C21.7794 26.4029 21.8696 26.361 21.923 26.3537C22.0249 26.3443 22.1273 26.3419 22.2296 26.3463C25.3015 26.3465 28.3736 26.3705 31.4449 26.3283C32.0992 26.3193 32.4623 26.6117 32.8444 27.1072Z"
      fill="#F46825" />
    <path
      d="M19.5001 29.9502C19.2672 30.1622 19.0419 30.3837 18.7969 30.5808C18.7036 30.6396 18.5943 30.668 18.4842 30.6619C15.6172 30.6661 12.7502 30.6647 9.8832 30.6578C9.72642 30.6444 9.57728 30.5842 9.45512 30.485C9.24485 30.3266 9.0617 30.1324 8.86719 29.9533L8.90776 29.8828H19.4338C19.4559 29.9053 19.478 29.9277 19.5001 29.9502Z"
      fill="#F46825" />
    <path
      d="M32.7326 22.4532C32.5525 22.4532 32.4507 22.4532 32.349 22.4532C28.9673 22.4539 25.5857 22.4546 22.204 22.4552C21.7603 22.4553 21.6226 22.2663 21.7599 21.827C21.7758 21.7932 21.7987 21.7633 21.8272 21.7391C21.8556 21.7149 21.8889 21.6971 21.9248 21.6869C22.0259 21.6706 22.1286 21.6669 22.2306 21.6757C25.2843 21.6758 28.3384 21.6985 31.3916 21.6587C32.0365 21.6503 32.3409 21.9983 32.7326 22.4532Z"
      fill="#F46825" />
    <path
      d="M31.5297 21.2852C30.4142 21.2852 29.2986 21.2852 28.1831 21.2852C26.1662 21.2851 24.1492 21.2838 22.1322 21.2811C22.0117 21.2807 21.7981 21.2417 21.7875 21.1889C21.7503 20.9905 21.7534 20.7867 21.7965 20.5895C21.8074 20.539 22.0083 20.5046 22.122 20.5041C23.6373 20.4981 25.1526 20.499 26.6679 20.499C27.8965 20.4989 29.1253 20.5122 30.3536 20.4924C30.7021 20.4868 30.9612 20.5778 31.1827 20.8426C31.2975 20.9797 31.4578 21.079 31.5976 21.1954C31.5749 21.2253 31.5523 21.2553 31.5297 21.2852Z"
      fill="#F46825" />
    <path
      d="M18.3165 31.1027C18.094 31.31 17.8799 31.5278 17.6441 31.7188C17.5485 31.7761 17.4376 31.8024 17.3266 31.7942C15.2254 31.7984 13.1241 31.8009 11.023 31.79C10.865 31.7759 10.7146 31.7158 10.5904 31.6171C10.3922 31.459 10.2023 31.2909 10.0215 31.1133L10.0728 31.041H18.2606L18.3165 31.1027Z"
      fill="#F46825" />
    <path
      d="M16.0586 29.4112C16.2959 29.1905 16.5278 28.9634 16.7745 28.7538C16.8513 28.7053 16.9416 28.6824 17.0322 28.6884C17.8729 28.6836 18.7136 28.6902 19.5542 28.6817C19.7661 28.6795 19.8419 28.7544 19.8475 28.9652C19.8619 29.4994 19.8698 29.4993 19.3483 29.4994C18.2725 29.4994 17.1967 29.4995 16.1209 29.4994L16.0586 29.4112Z"
      fill="#F46825" />
    <path
      d="M12.232 29.4987C11.0759 29.4987 9.9199 29.4968 8.76388 29.5007C8.59659 29.5013 8.51359 29.4429 8.521 29.2709C8.52705 29.1792 8.52647 29.0871 8.51926 28.9955C8.49476 28.756 8.59334 28.6767 8.83652 28.6808C9.61423 28.6941 10.3925 28.6956 11.1701 28.6795C11.2861 28.6715 11.4024 28.6906 11.5097 28.7353C11.617 28.78 11.7124 28.8491 11.7884 28.9371C11.9555 29.0986 12.1325 29.2494 12.3185 29.3886L12.232 29.4987Z"
      fill="#F46825" />
    <path
      d="M31.7473 29.8531C32.1153 29.8533 32.4834 29.8601 32.8511 29.8506C33.0402 29.8457 33.1156 29.9212 33.0958 30.1034C33.0946 30.1238 33.0945 30.1442 33.0957 30.1646C33.1015 30.6642 33.1015 30.6643 32.6108 30.6644C31.9464 30.6646 31.2817 30.6539 30.6177 30.6699C30.368 30.6759 30.2816 30.5884 30.3098 30.3525C30.3188 30.2713 30.3188 30.1894 30.31 30.1082C30.2891 29.9013 30.3897 29.8449 30.5821 29.8499C30.9703 29.86 31.3589 29.8529 31.7473 29.8531Z"
      fill="#F46825" />
    <path
      d="M31.6729 29.4989C31.3149 29.499 30.9566 29.4907 30.599 29.5022C30.3968 29.5087 30.3004 29.4575 30.3048 29.2318C30.3175 28.5849 30.2659 28.6913 30.8408 28.6867C31.4954 28.6813 32.1502 28.6943 32.8045 28.6818C33.0376 28.6773 33.1231 28.7608 33.0956 28.984C33.0862 29.0549 33.0862 29.1268 33.0957 29.1977C33.1329 29.4521 33.0099 29.5127 32.7773 29.5029C32.4098 29.4875 32.0411 29.4988 31.6729 29.4989Z"
      fill="#F46825" />
    <path
      d="M23.106 30.6653C22.7474 30.6655 22.3884 30.6558 22.0304 30.6691C21.8158 30.6771 21.727 30.5983 21.7443 30.3865C21.751 30.2845 21.7514 30.1822 21.7455 30.0802C21.7383 29.9067 21.824 29.8505 21.99 29.8516C22.7482 29.8564 23.5063 29.8565 24.2645 29.8519C24.4352 29.8508 24.5107 29.9169 24.5032 30.0861C24.4968 30.1881 24.4972 30.2904 24.5042 30.3924C24.5231 30.6112 24.4199 30.6754 24.2123 30.6686C23.8439 30.6565 23.4748 30.6652 23.106 30.6653Z"
      fill="#F46825" />
    <path
      d="M23.1387 28.6846C23.5062 28.685 23.8739 28.6929 24.241 28.6819C24.4442 28.6759 24.5198 28.7601 24.5063 28.9526C24.4991 29.044 24.4991 29.1358 24.5062 29.2272C24.5251 29.4458 24.4198 29.5043 24.2142 29.5018C23.4896 29.4929 22.7646 29.4909 22.0401 29.5031C21.8074 29.507 21.742 29.4195 21.7408 29.2003C21.7378 28.6843 21.7291 28.6843 22.2507 28.6842C22.5467 28.6841 22.8427 28.6842 23.1387 28.6846Z"
      fill="#F46825" />
    <path
      d="M23.1275 23.618C22.7586 23.6177 22.3895 23.6113 22.0208 23.6203C21.8291 23.625 21.7469 23.5627 21.7393 23.3597C21.7195 22.8329 21.7346 22.8075 22.2737 22.8063C22.9091 22.8048 23.5447 22.8157 24.1797 22.801C24.4391 22.7951 24.5169 22.8904 24.5124 23.1395C24.5037 23.6174 24.5152 23.6178 24.0499 23.6182C23.7424 23.6184 23.435 23.6184 23.1275 23.618Z"
      fill="#F46825" />
    <path
      d="M29.9277 22.8514C30.0401 22.8429 30.1277 22.8307 30.2154 22.8306C31.0546 22.83 31.8942 22.8473 32.7328 22.8246C33.0813 22.8152 33.1016 22.9782 33.1042 23.2512C33.1068 23.5192 33.0496 23.6319 32.7501 23.6231C32.0344 23.6022 31.3175 23.6152 30.6011 23.62C30.4306 23.6211 30.3373 23.5987 30.2894 23.3885C30.2485 23.2086 30.0744 23.059 29.9277 22.8514Z"
      fill="#F46825" />
    <path
      d="M30.1009 24.7948C30.1633 24.5804 30.2367 24.3695 30.3208 24.1627C30.3448 24.1242 30.3772 24.0917 30.4157 24.0677C30.4541 24.0437 30.4975 24.0288 30.5426 24.0242C31.3205 24.015 32.0987 24.014 32.8764 24.0301C32.9509 24.0316 33.0584 24.1525 33.087 24.2389C33.1205 24.3573 33.1207 24.4828 33.0873 24.6013C33.0677 24.6755 32.9722 24.7843 32.9101 24.7847C31.9697 24.791 31.0291 24.782 30.0887 24.7755C30.0833 24.7754 30.078 24.7605 30.1009 24.7948Z"
      fill="#F46825" />
    <path
      d="M30.1172 27.5183C31.0155 27.5183 31.9364 27.5216 32.8571 27.5156C33.0471 27.5144 33.1167 27.5897 33.1017 27.7712C33.0933 27.8726 33.1284 27.9871 33.0918 28.074C33.0542 28.1635 32.9547 28.2897 32.88 28.2912C32.1021 28.3073 31.3238 28.3057 30.5458 28.2952C30.5003 28.289 30.4569 28.2724 30.4188 28.2467C30.3808 28.221 30.3492 28.1868 30.3265 28.1469C30.2459 27.9412 30.1761 27.7313 30.1172 27.5183Z"
      fill="#F46825" />
    <path
      d="M23.1103 28.3288C22.7727 28.3288 22.4338 28.3113 22.0978 28.3341C21.8038 28.3541 21.7067 28.2349 21.7409 27.9623C21.7476 27.8911 21.7483 27.8195 21.743 27.7482C21.7356 27.5775 21.8187 27.5151 21.9855 27.5161C22.7426 27.5202 23.4998 27.5216 24.2569 27.5156C24.4466 27.5142 24.5003 27.5972 24.5081 27.7732C24.5308 28.2899 24.5229 28.3043 23.9998 28.3053C23.7034 28.3059 23.4069 28.3059 23.1104 28.3054L23.1103 28.3288Z"
      fill="#F46825" />
    <path
      d="M18.4734 27.5171C18.8208 27.5171 19.1686 27.5273 19.5154 27.5134C19.7465 27.5042 19.8526 27.5732 19.8458 27.8212C19.8304 28.3816 19.9271 28.3293 19.3419 28.327C18.6882 28.3245 18.0343 28.2991 17.381 28.3093C17.03 28.3149 17.0861 28.0917 17.08 27.8806C17.074 27.6738 17.0647 27.4946 17.3703 27.513C17.7368 27.5351 18.1056 27.5182 18.4734 27.5182V27.5171Z"
      fill="#F46825" />
    <path
      d="M18.4952 26.3468C18.863 26.3468 19.231 26.3538 19.5985 26.344C19.7946 26.3388 19.8857 26.4086 19.8699 26.6088C19.8641 26.7003 19.8638 26.7921 19.8691 26.8837C19.876 27.0462 19.8114 27.129 19.6378 27.1282C18.8614 27.1245 18.085 27.1239 17.3086 27.1264C17.132 27.1269 17.0899 27.0362 17.0826 26.8771C17.0581 26.3486 17.0532 26.3486 17.5758 26.3482C17.8823 26.3479 18.1888 26.3479 18.4952 26.3481V26.3468Z"
      fill="#F46825" />
    <path
      d="M31.7156 31.0201C32.0836 31.0201 32.452 31.0304 32.8194 31.0162C33.0391 31.0077 33.1175 31.0925 33.0952 31.3017C33.0856 31.3924 33.1218 31.4988 33.0856 31.5731C33.0428 31.6611 32.9456 31.7838 32.8699 31.7853C32.0933 31.8009 31.3163 31.7937 30.5395 31.7958C30.3683 31.7963 30.3002 31.7156 30.31 31.5503C30.3162 31.4485 30.3161 31.3464 30.3096 31.2446C30.2979 31.0679 30.3847 31.0151 30.5503 31.018C30.9386 31.0248 31.3271 31.0202 31.7156 31.0201Z"
      fill="#F46825" />
    <path
      d="M18.4824 25.9545C18.1148 25.9545 17.7468 25.9449 17.3796 25.958C17.154 25.9661 17.0763 25.8857 17.0782 25.6587C17.082 25.1798 17.071 25.1793 17.5626 25.1786C18.2264 25.1776 18.8907 25.1934 19.5537 25.1704C19.8991 25.1584 19.8636 25.3608 19.8694 25.5817C19.8754 25.8094 19.8646 25.9812 19.5543 25.9617C19.1983 25.9392 18.8398 25.9564 18.4824 25.9564V25.9545Z"
      fill="#F46825" />
    <path
      d="M18.4528 24.7955C18.0851 24.7955 17.7173 24.7897 17.3498 24.7979C17.1522 24.8022 17.0847 24.7237 17.0808 24.5272C17.0708 24.0194 17.0627 24.0193 17.5645 24.0187C18.2386 24.0179 18.913 24.0292 19.5866 24.012C19.8979 24.004 19.8734 24.1911 19.8678 24.3899C19.8623 24.5865 19.9252 24.8159 19.5864 24.8018C19.2091 24.7861 18.8307 24.7982 18.4528 24.7982V24.7955Z"
      fill="#F46825" />
    <path
      d="M9.88007 28.3029C9.52284 28.3029 9.16527 28.2931 8.80848 28.3056C8.45321 28.3181 8.52712 28.0701 8.51799 27.8663C8.5092 27.6702 8.5104 27.5082 8.79456 27.5138C9.52915 27.5283 10.2644 27.527 10.999 27.5138C11.2553 27.5092 11.2931 27.6418 11.269 27.8373C11.246 28.0235 11.3824 28.3035 11.013 28.303C10.6353 28.3025 10.2577 28.3025 9.88007 28.3029Z"
      fill="#F46825" />
    <path
      d="M18.4406 21.2829C18.0716 21.2829 17.7023 21.2763 17.3335 21.2856C17.1443 21.2904 17.0884 21.2129 17.0829 21.0319C17.067 20.5019 17.0602 20.5017 17.5868 20.5012C18.2327 20.5007 18.8788 20.5127 19.5242 20.4964C19.8899 20.4871 19.832 20.725 19.8458 20.9478C19.861 21.1917 19.7832 21.3034 19.5167 21.289C19.159 21.2696 18.7994 21.2841 18.4406 21.2841V21.2829Z"
      fill="#F46825" />
    <path
      d="M9.87744 25.9544C9.50902 25.9544 9.14045 25.9476 8.77225 25.9564C8.44311 25.9643 8.52744 25.7271 8.52038 25.5496C8.51317 25.3684 8.48025 25.1737 8.77791 25.1778C9.52482 25.1881 10.272 25.1844 11.019 25.179C11.204 25.1777 11.2657 25.2513 11.2727 25.4328C11.293 25.9551 11.2998 25.9549 10.7678 25.9555C10.471 25.9558 10.1742 25.9558 9.87744 25.9556V25.9544Z"
      fill="#F46825" />
    <path
      d="M9.86956 21.2843C9.51131 21.2842 9.15285 21.2768 8.79489 21.2871C8.59896 21.2927 8.52471 21.2241 8.5193 21.0238C8.50551 20.5125 8.50487 20.5037 9.0063 20.5031C9.65116 20.5023 10.2966 20.5201 10.9406 20.4967C11.3 20.4836 11.2652 20.6934 11.2755 20.9278C11.2865 21.1756 11.2372 21.3097 10.9439 21.29C10.5873 21.2661 10.2278 21.2844 9.86956 21.2843Z"
      fill="#F46825" />
    <path
      d="M23.1217 24.0166C23.4898 24.0165 23.8585 24.029 24.2258 24.0124C24.5043 23.9999 24.5243 24.1621 24.5073 24.3629C24.4918 24.5473 24.5944 24.8013 24.249 24.7996C23.5026 24.796 22.7561 24.7942 22.0097 24.8007C21.6667 24.8036 21.7554 24.5585 21.7439 24.3705C21.7321 24.1766 21.7319 24.0007 22.0176 24.0128C22.385 24.0285 22.7536 24.0166 23.1217 24.0166Z"
      fill="#F46825" />
    <path
      d="M9.87046 24.7951C9.51221 24.7951 9.1535 24.784 8.79584 24.7985C8.48437 24.8111 8.51331 24.6065 8.51885 24.4109C8.52406 24.2268 8.4591 24.0102 8.78393 24.0157C9.5207 24.0282 10.2579 24.0234 10.9948 24.0166C11.186 24.0149 11.2678 24.0715 11.2731 24.2765C11.2863 24.7953 11.2953 24.7953 10.761 24.7961C10.4641 24.7966 10.1673 24.7966 9.87046 24.7962V24.7951Z"
      fill="#F46825" />
    <path
      d="M18.4532 23.6157C18.0752 23.6157 17.6971 23.6111 17.3191 23.6177C17.1482 23.6207 17.0744 23.5527 17.085 23.3828C17.0909 23.2811 17.091 23.1791 17.0854 23.0773C17.0768 22.9115 17.1487 22.8324 17.3178 22.8327C18.0739 22.8341 18.83 22.8298 19.586 22.8337C19.9457 22.8355 19.8219 23.1161 19.8437 23.3062C19.8674 23.5137 19.7986 23.631 19.5565 23.6214C19.1893 23.6069 18.821 23.6176 18.4532 23.6176L18.4532 23.6157Z"
      fill="#F46825" />
    <path
      d="M9.89039 23.6148C9.53181 23.615 9.17237 23.5999 8.81492 23.62C8.54599 23.635 8.4991 23.4989 8.52 23.2846C8.53894 23.0905 8.42978 22.8267 8.79535 22.8301C9.53294 22.8369 10.2706 22.834 11.0083 22.8311C11.1837 22.8304 11.2808 22.8924 11.2697 23.0813C11.2639 23.1833 11.264 23.2856 11.2698 23.3876C11.2795 23.5626 11.1935 23.6193 11.0276 23.6166C10.6486 23.6103 10.2695 23.6146 9.89039 23.6148Z"
      fill="#F46825" />
    <path
      d="M18.4612 22.4528C18.0924 22.4528 17.7233 22.4463 17.3546 22.4555C17.1633 22.4603 17.0608 22.4033 17.0805 22.1957C17.088 22.104 17.0882 22.0119 17.0813 21.9201C17.0711 21.7533 17.1408 21.6771 17.3129 21.6777C18.0711 21.6805 18.8294 21.6774 19.5876 21.6778C19.9327 21.678 19.8211 21.9416 19.8385 22.1239C19.8567 22.3156 19.8262 22.4667 19.5678 22.4573C19.1994 22.4441 18.8301 22.454 18.4612 22.454V22.4528Z"
      fill="#F46825" />
    <path
      d="M9.90358 22.4529C9.54554 22.4529 9.1872 22.4441 8.82958 22.4562C8.61343 22.4636 8.51598 22.4031 8.51573 22.1667C8.51521 21.6787 8.50365 21.6782 9.00017 21.678C9.64464 21.6776 10.2898 21.6962 10.9333 21.6711C11.2843 21.6574 11.2703 21.8485 11.2752 22.0918C11.2801 22.3339 11.2443 22.4788 10.9466 22.4584C10.6004 22.4347 10.2514 22.4529 9.90358 22.4529Z"
      fill="#F46825" />
    <path
      d="M23.1178 31.02C23.4864 31.0202 23.8554 31.0303 24.2235 31.0164C24.4432 31.0081 24.5048 31.0967 24.5069 31.3032C24.5118 31.7959 24.52 31.7963 24.0238 31.797C23.389 31.7978 22.7536 31.7806 22.1197 31.805C21.7773 31.8182 21.7429 31.6567 21.7403 31.3795C21.7377 31.1048 21.8114 30.9921 22.1046 31.014C22.4406 31.0392 22.78 31.0199 23.1178 31.02Z"
      fill="#F46825" />
    <path
      d="M9.89803 26.3505C10.2667 26.3504 10.6359 26.363 11.0038 26.3464C11.2985 26.3331 11.2786 26.5197 11.2697 26.7075C11.2608 26.8964 11.3473 27.136 11.0006 27.1309C10.2635 27.1201 9.52621 27.1197 8.78882 27.1297C8.44395 27.1339 8.52995 26.8931 8.51922 26.704C8.50825 26.5107 8.5042 26.3336 8.79226 26.3465C9.16016 26.3631 9.52938 26.3506 9.89803 26.3505Z"
      fill="#F46825" />
  </g>
  <defs>
    <clipPath id="clip0_22075_67641">
      <rect width="40" height="40" fill="white" transform="translate(0.5)" />
    </clipPath>
  </defs>
</svg>