<svg viewBox="0 0 41 40" fill="none" xmlns="http://www.w3.org/2000/svg"><g clip-path="url(#clip0_22075_67702)"><path d="M20.5 40c11.046 0 20-8.954 20-20s-8.954-20-20-20S.5 8.954.5 20s8.954 20 20 20Z" fill="black"/><path d="M13.18 14.546c4.041-4.02 10.595-4.02 14.637 0l3.492 3.472-3.492 3.472c-4.042 4.019-10.596 4.019-14.638 0l-3.492-3.472 3.492-3.472Z" fill="black"/><path fill-rule="evenodd" clip-rule="evenodd" d="m7.168 18.023 7.928-7.933h10.81l7.929 7.933L20.5 31.351 7.168 18.023Zm19.46-2.888c-3.37-3.384-8.884-3.384-12.253 0l-2.883 2.883 2.883 2.883c3.369 3.383 8.884 3.383 12.252 0l2.883-2.883-2.883-2.883Z" fill="#0CE466"/><path d="M20.5 20.541a2.522 2.522 0 1 1 0-5.045 2.522 2.522 0 0 1 0 5.045Z" fill="black"/><path fill-rule="evenodd" clip-rule="evenodd" d="M16.355 18.017a4.144 4.144 0 1 0 8.289 0 4.144 4.144 0 0 0-8.288 0Zm2.343 0a1.802 1.802 0 1 0 3.603 0 1.802 1.802 0 0 0-3.603 0Z" fill="white"/></g><defs><clipPath id="clip0_22075_67702"><rect width="40" height="40" fill="white" transform="translate(0.5)"/></clipPath></defs></svg>