<svg viewBox="0 0 41 40" fill="none" xmlns="http://www.w3.org/2000/svg"><g clip-path="url(#clip0_22075_67632)"><path d="M40.5 20c0 11.045-8.955 20-20 20S.5 31.045.5 20s8.955-20 20-20c11.047 0 20 8.955 20 20Z" fill="#2081E2"/><path d="m10.368 20.672.087-.136 5.203-8.139a.178.178 0 0 1 .312.023c.869 1.948 1.619 4.37 1.268 5.879-.15.62-.561 1.46-1.024 2.238-.06.113-.125.224-.195.33a.177.177 0 0 1-.148.078h-5.35a.178.178 0 0 1-.153-.273Z" fill="white"/><path d="M33.556 22.184v1.289c0 .074-.045.14-.11.168-.404.173-1.782.806-2.356 1.603-1.463 2.036-2.58 4.948-5.08 4.948H15.588c-3.695 0-6.689-3.004-6.689-6.711v-.12c0-.098.08-.178.18-.178h5.81c.115 0 .2.107.19.22-.042.378.028.764.207 1.116.345.7 1.06 1.138 1.833 1.138h2.876v-2.246h-2.843a.183.183 0 0 1-.148-.288c.03-.047.065-.096.102-.152.27-.382.654-.976 1.036-1.652.26-.456.514-.943.717-1.432.041-.088.074-.179.107-.267.055-.156.113-.302.154-.448.041-.123.074-.253.107-.374.097-.415.138-.855.138-1.31a6.05 6.05 0 0 0-.025-.546 7.074 7.074 0 0 0-.058-.585 6.049 6.049 0 0 0-.08-.522 8.785 8.785 0 0 0-.164-.78l-.023-.1c-.049-.178-.09-.349-.148-.527a19.926 19.926 0 0 0-.546-1.62c-.072-.203-.154-.398-.236-.594-.122-.293-.245-.56-.358-.813-.058-.115-.107-.22-.156-.327a11.923 11.923 0 0 0-.17-.358c-.042-.088-.09-.17-.122-.252l-.351-.65c-.05-.088.032-.193.129-.166l2.199.596h.006l.008.002.29.08.318.09.117.033V9.142c0-.63.506-1.142 1.13-1.142.313 0 .597.127.8.335.203.207.33.491.33.807v1.94l.235.066a.184.184 0 0 1 .053.027c.058.043.14.107.245.185.082.065.17.146.277.228.212.17.465.39.742.643.074.064.146.13.212.195.357.333.758.723 1.14 1.155.107.121.212.244.319.374.107.131.22.26.318.39.13.173.27.352.39.539.058.088.124.178.18.267.155.236.293.48.425.725.055.113.113.236.162.358.146.326.261.66.335.992.023.072.039.15.047.22v.016c.025.1.033.204.041.31a3.317 3.317 0 0 1-.178 1.456c-.05.14-.1.285-.163.423-.123.285-.269.571-.442.838a4.802 4.802 0 0 1-.186.302c-.072.105-.146.204-.212.3-.09.123-.187.253-.286.368a3.9 3.9 0 0 1-.277.35c-.138.162-.27.316-.407.464-.082.096-.17.195-.261.283-.088.099-.179.187-.261.27-.138.137-.253.244-.35.332l-.225.208a.184.184 0 0 1-.121.045h-1.751v2.246h2.203a2.06 2.06 0 0 0 1.34-.495c.129-.113.694-.602 1.362-1.34a.17.17 0 0 1 .084-.051l6.084-1.76a.18.18 0 0 1 .228.173Z" fill="white"/></g><defs><clipPath id="clip0_22075_67632"><rect width="40" height="40" fill="white" transform="translate(0.5)"/></clipPath></defs></svg>