<svg viewBox="0 0 41 40" fill="none" xmlns="http://www.w3.org/2000/svg"><g clip-path="url(#clip0_22075_67637)"><path d="M40.5 20c0 11.045-8.955 20-20 20S.5 31.045.5 20s8.955-20 20-20c11.047 0 20 8.955 20 20Z" fill="#FEDA03"/><path fill-rule="evenodd" clip-rule="evenodd" d="M29.817 16.76c0 1.873-1.095 2.805-2.325 3.129 1.473.441 2.538 1.648 2.538 3.561v3.512h-5.619v-3.335c0-1.02-.6-1.433-1.627-1.433h-6.665v4.768H10.5V12.914h13.35c3.351 0 5.967.726 5.967 3.845Zm-13.696.079h7.63c.523 0 .946.429.946.958a.952.952 0 0 1-.98.957h-7.596V16.84Z" fill="black"/></g><defs><clipPath id="clip0_22075_67637"><rect width="40" height="40" fill="white" transform="translate(0.5)"/></clipPath></defs></svg>