<svg viewBox="0 0 41 40" fill="none" xmlns="http://www.w3.org/2000/svg">
  <g clip-path="url(#clip0_22075_67637)">
    <path
      d="M40.5 20C40.5 31.0451 31.5451 40 20.5 40C9.45493 40 0.5 31.0451 0.5 20C0.5 8.95493 9.45493 0 20.5 0C31.5474 0 40.5 8.95493 40.5 20Z"
      fill="#FEDA03" />
    <path fill-rule="evenodd" clip-rule="evenodd"
      d="M29.817 16.7595C29.817 18.6332 28.7223 19.5652 27.492 19.889C28.9645 20.3304 30.0301 21.5371 30.0301 23.45V26.962H24.4113V23.6266C24.4113 22.6063 23.8107 22.1943 22.7838 22.1943H16.1188V26.962H10.5V12.9141H23.8495C27.2013 12.9141 29.817 13.6399 29.817 16.7595ZM16.1213 16.8389H23.7172C23.7286 16.8385 23.74 16.8389 23.7514 16.8389C24.2737 16.8389 24.6971 17.2676 24.6971 17.7966C24.6971 18.3255 24.2737 18.7542 23.7514 18.7542C23.74 18.7542 23.7286 18.7541 23.7172 18.7537L16.1213 18.7542V16.8389Z"
      fill="black" />
  </g>
  <defs>
    <clipPath id="clip0_22075_67637">
      <rect width="40" height="40" fill="white" transform="translate(0.5)" />
    </clipPath>
  </defs>
</svg>