<svg width="1376" height="200" viewBox="0 0 1376 200" fill="none" xmlns="http://www.w3.org/2000/svg">
<g clip-path="url(#clip0_21829_88398)">
<g filter="url(#filter0_b_21829_88398)">
<path d="M0 0H1376V200H0V0Z" fill="#F8F8FF"/>
</g>
<mask id="path-2-inside-1_21829_88398" fill="white">
<path d="M1374.75 -22.086C1377.76 -23.8248 1381.46 -23.8248 1384.47 -22.086L1402.81 -11.4826C1405.82 -9.74377 1407.68 -6.5303 1407.68 -3.05266V18.1542C1407.68 21.6319 1405.82 24.8453 1402.81 26.5841L1384.47 37.1876C1381.46 38.9264 1377.76 38.9264 1374.75 37.1876L1356.4 26.5841C1353.39 24.8453 1351.54 21.6319 1351.54 18.1542V-3.05266C1351.54 -6.5303 1353.39 -9.74377 1356.4 -11.4826L1374.75 -22.086Z"/>
<path d="M1442.08 -22.086C1445.09 -23.8248 1448.8 -23.8248 1451.81 -22.086L1470.15 -11.4826C1473.16 -9.74377 1475.01 -6.5303 1475.01 -3.05266V18.1542C1475.01 21.6319 1473.16 24.8453 1470.15 26.5841L1451.81 37.1876C1448.8 38.9264 1445.09 38.9264 1442.08 37.1876L1423.74 26.5841C1420.73 24.8453 1418.88 21.6319 1418.88 18.1542V-3.05266C1418.88 -6.5303 1420.73 -9.74377 1423.74 -11.4826L1442.08 -22.086Z"/>
<path d="M1408.42 39.5241C1411.42 37.7853 1415.13 37.7853 1418.14 39.5241L1436.48 50.1275C1439.49 51.8664 1441.35 55.0798 1441.35 58.5575V79.7643C1441.35 83.242 1439.49 86.4554 1436.48 88.1943L1418.14 98.7977C1415.13 100.537 1411.42 100.537 1408.42 98.7977L1390.07 88.1943C1387.06 86.4554 1385.21 83.242 1385.21 79.7643V58.5574C1385.21 55.0798 1387.06 51.8664 1390.07 50.1275L1408.42 39.5241Z"/>
<path d="M1374.75 101.134C1377.76 99.3954 1381.46 99.3954 1384.47 101.134L1402.81 111.738C1405.82 113.476 1407.68 116.69 1407.68 120.168V141.374C1407.68 144.852 1405.82 148.066 1402.81 149.804L1384.47 160.408C1381.46 162.147 1377.76 162.147 1374.75 160.408L1356.4 149.804C1353.39 148.066 1351.54 144.852 1351.54 141.374V120.168C1351.54 116.69 1353.39 113.476 1356.4 111.738L1374.75 101.134Z"/>
<path d="M1442.08 101.134C1445.09 99.3954 1448.8 99.3954 1451.81 101.134L1470.15 111.738C1473.16 113.476 1475.01 116.69 1475.01 120.168V141.374C1475.01 144.852 1473.16 148.066 1470.15 149.804L1451.81 160.408C1448.8 162.147 1445.09 162.147 1442.08 160.408L1423.74 149.804C1420.73 148.066 1418.88 144.852 1418.88 141.374V120.168C1418.88 116.69 1420.73 113.476 1423.74 111.738L1442.08 101.134Z"/>
<path d="M1408.42 162.744C1411.42 161.006 1415.13 161.006 1418.14 162.744L1436.48 173.348C1439.49 175.087 1441.35 178.3 1441.35 181.778V202.985C1441.35 206.462 1439.49 209.676 1436.48 211.415L1418.14 222.018C1415.13 223.757 1411.42 223.757 1408.42 222.018L1390.07 211.415C1387.06 209.676 1385.21 206.462 1385.21 202.985V181.778C1385.21 178.3 1387.06 175.087 1390.07 173.348L1408.42 162.744Z"/>
<path d="M30.7468 -22.086C33.7551 -23.8248 37.4616 -23.8248 40.4699 -22.086L58.815 -11.4826C61.8234 -9.74377 63.6766 -6.5303 63.6766 -3.05266V18.1542C63.6766 21.6319 61.8234 24.8453 58.815 26.5841L40.4699 37.1876C37.4616 38.9264 33.7551 38.9264 30.7468 37.1876L12.4017 26.5841C9.39333 24.8453 7.5401 21.6319 7.5401 18.1542V-3.05266C7.5401 -6.5303 9.39333 -9.74377 12.4017 -11.4826L30.7468 -22.086Z"/>
<path d="M98.0847 -22.086C101.093 -23.8248 104.8 -23.8248 107.808 -22.086L126.153 -11.4826C129.161 -9.74377 131.015 -6.5303 131.015 -3.05266V18.1542C131.015 21.6319 129.161 24.8453 126.153 26.5841L107.808 37.1876C104.8 38.9264 101.093 38.9264 98.0847 37.1876L79.7396 26.5841C76.7312 24.8453 74.8781 21.6319 74.8781 18.1542V-3.05266C74.8781 -6.5303 76.7312 -9.74377 79.7396 -11.4826L98.0847 -22.086Z"/>
<path d="M165.232 -22.086C168.241 -23.8248 171.947 -23.8248 174.955 -22.086L193.301 -11.4826C196.309 -9.74377 198.162 -6.5303 198.162 -3.05266V18.1542C198.162 21.6319 196.309 24.8453 193.301 26.5841L174.955 37.1876C171.947 38.9264 168.241 38.9264 165.232 37.1876L146.887 26.5841C143.879 24.8453 142.026 21.6319 142.026 18.1542V-3.05266C142.026 -6.5303 143.879 -9.74377 146.887 -11.4826L165.232 -22.086Z"/>
<path d="M232.443 -22.086C235.452 -23.8248 239.158 -23.8248 242.167 -22.086L260.512 -11.4826C263.52 -9.74377 265.373 -6.5303 265.373 -3.05266V18.1542C265.373 21.6319 263.52 24.8453 260.512 26.5841L242.167 37.1876C239.158 38.9264 235.452 38.9264 232.443 37.1876L214.098 26.5841C211.09 24.8453 209.237 21.6319 209.237 18.1542V-3.05266C209.237 -6.5303 211.09 -9.74377 214.098 -11.4826L232.443 -22.086Z"/>
<path d="M299.654 -22.086C302.663 -23.8248 306.369 -23.8248 309.378 -22.086L327.723 -11.4826C330.731 -9.74377 332.584 -6.5303 332.584 -3.05266V18.1542C332.584 21.6319 330.731 24.8453 327.723 26.5841L309.378 37.1876C306.369 38.9264 302.663 38.9264 299.654 37.1876L281.309 26.5841C278.301 24.8453 276.448 21.6319 276.448 18.1542V-3.05266C276.448 -6.5303 278.301 -9.74377 281.309 -11.4826L299.654 -22.086Z"/>
<path d="M366.802 -22.086C369.81 -23.8248 373.517 -23.8248 376.525 -22.086L394.87 -11.4826C397.879 -9.74377 399.732 -6.5303 399.732 -3.05266V18.1542C399.732 21.6319 397.879 24.8453 394.87 26.5841L376.525 37.1876C373.517 38.9264 369.81 38.9264 366.802 37.1876L348.457 26.5841C345.449 24.8453 343.595 21.6319 343.595 18.1542V-3.05266C343.595 -6.5303 345.449 -9.74377 348.457 -11.4826L366.802 -22.086Z"/>
<path d="M434.013 -22.086C437.021 -23.8248 440.728 -23.8248 443.736 -22.086L462.081 -11.4826C465.09 -9.74377 466.943 -6.5303 466.943 -3.05266V18.1542C466.943 21.6319 465.09 24.8453 462.081 26.5841L443.736 37.1876C440.728 38.9264 437.021 38.9264 434.013 37.1876L415.668 26.5841C412.66 24.8453 410.806 21.6319 410.806 18.1542V-3.05266C410.806 -6.5303 412.66 -9.74377 415.668 -11.4826L434.013 -22.086Z"/>
<path d="M-2.79529 39.5241C0.213058 37.7853 3.91951 37.7853 6.92786 39.5241L25.273 50.1275C28.2813 51.8664 30.1346 55.0798 30.1346 58.5575V79.7643C30.1346 83.242 28.2813 86.4554 25.273 88.1943L6.92786 98.7977C3.91951 100.537 0.213058 100.537 -2.79529 98.7977L-21.1404 88.1943C-24.1488 86.4554 -26.002 83.242 -26.002 79.7643V58.5574C-26.002 55.0798 -24.1488 51.8664 -21.1404 50.1275L-2.79529 39.5241Z"/>
<path d="M64.4158 39.5241C67.4241 37.7853 71.1305 37.7853 74.1389 39.5241L92.484 50.1275C95.4924 51.8664 97.3456 55.0798 97.3456 58.5575V79.7643C97.3456 83.242 95.4924 86.4554 92.484 88.1943L74.1389 98.7977C71.1305 100.537 67.4241 100.537 64.4158 98.7977L46.0706 88.1943C43.0623 86.4554 41.2091 83.242 41.2091 79.7643V58.5574C41.2091 55.0798 43.0623 51.8664 46.0706 50.1275L64.4158 39.5241Z"/>
<path d="M131.754 39.5241C134.762 37.7853 138.468 37.7853 141.477 39.5241L159.822 50.1275C162.83 51.8664 164.684 55.0798 164.684 58.5575V79.7643C164.684 83.242 162.83 86.4554 159.822 88.1943L141.477 98.7977C138.468 100.537 134.762 100.537 131.754 98.7977L113.409 88.1943C110.4 86.4554 108.547 83.242 108.547 79.7643V58.5574C108.547 55.0798 110.4 51.8664 113.409 50.1275L131.754 39.5241Z"/>
<path d="M198.901 39.5241C201.91 37.7853 205.616 37.7853 208.624 39.5241L226.97 50.1275C229.978 51.8664 231.831 55.0798 231.831 58.5575V79.7643C231.831 83.242 229.978 86.4554 226.97 88.1943L208.624 98.7977C205.616 100.537 201.91 100.537 198.901 98.7977L180.556 88.1943C177.548 86.4554 175.695 83.242 175.695 79.7643V58.5574C175.695 55.0798 177.548 51.8664 180.556 50.1275L198.901 39.5241Z"/>
<path d="M266.112 39.5241C269.121 37.7853 272.827 37.7853 275.835 39.5241L294.181 50.1275C297.189 51.8664 299.042 55.0798 299.042 58.5575V79.7643C299.042 83.242 297.189 86.4554 294.181 88.1943L275.835 98.7977C272.827 100.537 269.121 100.537 266.112 98.7977L247.767 88.1943C244.759 86.4554 242.906 83.242 242.906 79.7643V58.5574C242.906 55.0798 244.759 51.8664 247.767 50.1275L266.112 39.5241Z"/>
<path d="M333.323 39.5241C336.332 37.7853 340.038 37.7853 343.046 39.5241L361.392 50.1275C364.4 51.8664 366.253 55.0798 366.253 58.5575V79.7643C366.253 83.242 364.4 86.4554 361.392 88.1943L343.046 98.7977C340.038 100.537 336.332 100.537 333.323 98.7977L314.978 88.1943C311.97 86.4554 310.117 83.242 310.117 79.7643V58.5574C310.117 55.0798 311.97 51.8664 314.978 50.1275L333.323 39.5241Z"/>
<path d="M400.471 39.5241C403.479 37.7853 407.186 37.7853 410.194 39.5241L428.539 50.1275C431.548 51.8664 433.401 55.0798 433.401 58.5575V79.7643C433.401 83.242 431.548 86.4554 428.539 88.1943L410.194 98.7977C407.186 100.537 403.479 100.537 400.471 98.7977L382.126 88.1943C379.117 86.4554 377.264 83.242 377.264 79.7643V58.5574C377.264 55.0798 379.117 51.8664 382.126 50.1275L400.471 39.5241Z"/>
<path d="M467.682 39.5241C470.69 37.7853 474.397 37.7853 477.405 39.5241L495.75 50.1275C498.759 51.8664 500.612 55.0798 500.612 58.5575V79.7643C500.612 83.242 498.759 86.4554 495.75 88.1943L477.405 98.7977C474.397 100.537 470.69 100.537 467.682 98.7977L449.337 88.1943C446.329 86.4554 444.475 83.242 444.475 79.7643V58.5574C444.475 55.0798 446.329 51.8664 449.337 50.1275L467.682 39.5241Z"/>
<path d="M30.7468 101.134C33.7551 99.3954 37.4616 99.3954 40.4699 101.134L58.815 111.738C61.8234 113.476 63.6766 116.69 63.6766 120.168V141.374C63.6766 144.852 61.8234 148.066 58.815 149.804L40.4699 160.408C37.4616 162.147 33.7551 162.147 30.7468 160.408L12.4017 149.804C9.39333 148.066 7.5401 144.852 7.5401 141.374V120.168C7.5401 116.69 9.39333 113.476 12.4017 111.738L30.7468 101.134Z"/>
<path d="M98.0847 101.134C101.093 99.3954 104.8 99.3954 107.808 101.134L126.153 111.738C129.161 113.476 131.015 116.69 131.015 120.168V141.374C131.015 144.852 129.161 148.066 126.153 149.804L107.808 160.408C104.8 162.147 101.093 162.147 98.0847 160.408L79.7396 149.804C76.7312 148.066 74.8781 144.852 74.8781 141.374V120.168C74.8781 116.69 76.7312 113.476 79.7396 111.738L98.0847 101.134Z"/>
<path d="M165.232 101.134C168.241 99.3954 171.947 99.3954 174.955 101.134L193.301 111.738C196.309 113.476 198.162 116.69 198.162 120.168V141.374C198.162 144.852 196.309 148.066 193.301 149.804L174.955 160.408C171.947 162.147 168.241 162.147 165.232 160.408L146.887 149.804C143.879 148.066 142.026 144.852 142.026 141.374V120.168C142.026 116.69 143.879 113.476 146.887 111.738L165.232 101.134Z"/>
<path d="M232.443 101.134C235.452 99.3954 239.158 99.3954 242.167 101.134L260.512 111.738C263.52 113.476 265.373 116.69 265.373 120.168V141.374C265.373 144.852 263.52 148.066 260.512 149.804L242.167 160.408C239.158 162.147 235.452 162.147 232.443 160.408L214.098 149.804C211.09 148.066 209.237 144.852 209.237 141.374V120.168C209.237 116.69 211.09 113.476 214.098 111.738L232.443 101.134Z"/>
<path d="M299.654 101.134C302.663 99.3954 306.369 99.3954 309.378 101.134L327.723 111.738C330.731 113.476 332.584 116.69 332.584 120.168V141.374C332.584 144.852 330.731 148.066 327.723 149.804L309.378 160.408C306.369 162.147 302.663 162.147 299.654 160.408L281.309 149.804C278.301 148.066 276.448 144.852 276.448 141.374V120.168C276.448 116.69 278.301 113.476 281.309 111.738L299.654 101.134Z"/>
<path d="M366.802 101.134C369.81 99.3954 373.517 99.3954 376.525 101.134L394.87 111.738C397.879 113.476 399.732 116.69 399.732 120.168V141.374C399.732 144.852 397.879 148.066 394.87 149.804L376.525 160.408C373.517 162.147 369.81 162.147 366.802 160.408L348.457 149.804C345.449 148.066 343.595 144.852 343.595 141.374V120.168C343.595 116.69 345.449 113.476 348.457 111.738L366.802 101.134Z"/>
<path d="M434.013 101.134C437.021 99.3954 440.728 99.3954 443.736 101.134L462.081 111.738C465.09 113.476 466.943 116.69 466.943 120.168V141.374C466.943 144.852 465.09 148.066 462.081 149.804L443.736 160.408C440.728 162.147 437.021 162.147 434.013 160.408L415.668 149.804C412.66 148.066 410.806 144.852 410.806 141.374V120.168C410.806 116.69 412.66 113.476 415.668 111.738L434.013 101.134Z"/>
<path d="M-2.79529 162.744C0.213058 161.006 3.91951 161.006 6.92786 162.744L25.273 173.348C28.2813 175.087 30.1346 178.3 30.1346 181.778V202.985C30.1346 206.462 28.2813 209.676 25.273 211.415L6.92786 222.018C3.91951 223.757 0.213058 223.757 -2.79529 222.018L-21.1404 211.415C-24.1488 209.676 -26.002 206.462 -26.002 202.985V181.778C-26.002 178.3 -24.1488 175.087 -21.1404 173.348L-2.79529 162.744Z"/>
<path d="M64.4158 162.744C67.4241 161.006 71.1305 161.006 74.1389 162.744L92.484 173.348C95.4924 175.087 97.3456 178.3 97.3456 181.778V202.985C97.3456 206.462 95.4924 209.676 92.484 211.415L74.1389 222.018C71.1305 223.757 67.4241 223.757 64.4158 222.018L46.0706 211.415C43.0623 209.676 41.2091 206.462 41.2091 202.985V181.778C41.2091 178.3 43.0623 175.087 46.0706 173.348L64.4158 162.744Z"/>
<path d="M131.754 162.744C134.762 161.006 138.468 161.006 141.477 162.744L159.822 173.348C162.83 175.087 164.684 178.3 164.684 181.778V202.985C164.684 206.462 162.83 209.676 159.822 211.415L141.477 222.018C138.468 223.757 134.762 223.757 131.754 222.018L113.409 211.415C110.4 209.676 108.547 206.462 108.547 202.985V181.778C108.547 178.3 110.4 175.087 113.409 173.348L131.754 162.744Z"/>
<path d="M198.901 162.744C201.91 161.006 205.616 161.006 208.624 162.744L226.97 173.348C229.978 175.087 231.831 178.3 231.831 181.778V202.985C231.831 206.462 229.978 209.676 226.97 211.415L208.624 222.018C205.616 223.757 201.91 223.757 198.901 222.018L180.556 211.415C177.548 209.676 175.695 206.462 175.695 202.985V181.778C175.695 178.3 177.548 175.087 180.556 173.348L198.901 162.744Z"/>
<path d="M266.112 162.744C269.121 161.006 272.827 161.006 275.835 162.744L294.181 173.348C297.189 175.087 299.042 178.3 299.042 181.778V202.985C299.042 206.462 297.189 209.676 294.181 211.415L275.835 222.018C272.827 223.757 269.121 223.757 266.112 222.018L247.767 211.415C244.759 209.676 242.906 206.462 242.906 202.985V181.778C242.906 178.3 244.759 175.087 247.767 173.348L266.112 162.744Z"/>
<path d="M333.323 162.744C336.332 161.006 340.038 161.006 343.046 162.744L361.392 173.348C364.4 175.087 366.253 178.3 366.253 181.778V202.985C366.253 206.462 364.4 209.676 361.392 211.415L343.046 222.018C340.038 223.757 336.332 223.757 333.323 222.018L314.978 211.415C311.97 209.676 310.117 206.462 310.117 202.985V181.778C310.117 178.3 311.97 175.087 314.978 173.348L333.323 162.744Z"/>
<path d="M400.471 162.744C403.479 161.006 407.186 161.006 410.194 162.744L428.539 173.348C431.548 175.087 433.401 178.3 433.401 181.778V202.985C433.401 206.462 431.548 209.676 428.539 211.415L410.194 222.018C407.186 223.757 403.479 223.757 400.471 222.018L382.126 211.415C379.117 209.676 377.264 206.462 377.264 202.985V181.778C377.264 178.3 379.117 175.087 382.126 173.348L400.471 162.744Z"/>
<path d="M467.682 162.744C470.69 161.006 474.397 161.006 477.405 162.744L495.75 173.348C498.759 175.087 500.612 178.3 500.612 181.778V202.985C500.612 206.462 498.759 209.676 495.75 211.415L477.405 222.018C474.397 223.757 470.69 223.757 467.682 222.018L449.337 211.415C446.329 209.676 444.475 206.462 444.475 202.985V181.778C444.475 178.3 446.329 175.087 449.337 173.348L467.682 162.744Z"/>
<path d="M972.085 -22.086C975.093 -23.8248 978.8 -23.8248 981.808 -22.086L1000.15 -11.4826C1003.16 -9.74377 1005.01 -6.5303 1005.01 -3.05266V18.1542C1005.01 21.6319 1003.16 24.8453 1000.15 26.5841L981.808 37.1876C978.8 38.9264 975.093 38.9264 972.085 37.1876L953.74 26.5841C950.731 24.8453 948.878 21.6319 948.878 18.1542V-3.05266C948.878 -6.5303 950.731 -9.74377 953.74 -11.4826L972.085 -22.086Z"/>
<path d="M1039.23 -22.086C1042.24 -23.8248 1045.95 -23.8248 1048.96 -22.086L1067.3 -11.4826C1070.31 -9.74377 1072.16 -6.5303 1072.16 -3.05266V18.1542C1072.16 21.6319 1070.31 24.8453 1067.3 26.5841L1048.96 37.1876C1045.95 38.9264 1042.24 38.9264 1039.23 37.1876L1020.89 26.5841C1017.88 24.8453 1016.03 21.6319 1016.03 18.1542V-3.05266C1016.03 -6.5303 1017.88 -9.74377 1020.89 -11.4826L1039.23 -22.086Z"/>
<path d="M1106.44 -22.086C1109.45 -23.8248 1113.16 -23.8248 1116.17 -22.086L1134.51 -11.4826C1137.52 -9.74377 1139.37 -6.5303 1139.37 -3.05266V18.1542C1139.37 21.6319 1137.52 24.8453 1134.51 26.5841L1116.17 37.1876C1113.16 38.9264 1109.45 38.9264 1106.44 37.1876L1088.1 26.5841C1085.09 24.8453 1083.24 21.6319 1083.24 18.1542V-3.05266C1083.24 -6.5303 1085.09 -9.74377 1088.1 -11.4826L1106.44 -22.086Z"/>
<path d="M1173.65 -22.086C1176.66 -23.8248 1180.37 -23.8248 1183.38 -22.086L1201.72 -11.4826C1204.73 -9.74377 1206.58 -6.5303 1206.58 -3.05266V18.1542C1206.58 21.6319 1204.73 24.8453 1201.72 26.5841L1183.38 37.1876C1180.37 38.9264 1176.66 38.9264 1173.65 37.1876L1155.31 26.5841C1152.3 24.8453 1150.45 21.6319 1150.45 18.1542V-3.05266C1150.45 -6.5303 1152.3 -9.74377 1155.31 -11.4826L1173.65 -22.086Z"/>
<path d="M1240.8 -22.086C1243.81 -23.8248 1247.52 -23.8248 1250.53 -22.086L1268.87 -11.4826C1271.88 -9.74377 1273.73 -6.5303 1273.73 -3.05266V18.1542C1273.73 21.6319 1271.88 24.8453 1268.87 26.5841L1250.53 37.1876C1247.52 38.9264 1243.81 38.9264 1240.8 37.1876L1222.46 26.5841C1219.45 24.8453 1217.6 21.6319 1217.6 18.1542V-3.05266C1217.6 -6.5303 1219.45 -9.74377 1222.46 -11.4826L1240.8 -22.086Z"/>
<path d="M1308.01 -22.086C1311.02 -23.8248 1314.73 -23.8248 1317.74 -22.086L1336.08 -11.4826C1339.09 -9.74377 1340.94 -6.5303 1340.94 -3.05266V18.1542C1340.94 21.6319 1339.09 24.8453 1336.08 26.5841L1317.74 37.1876C1314.73 38.9264 1311.02 38.9264 1308.01 37.1876L1289.67 26.5841C1286.66 24.8453 1284.81 21.6319 1284.81 18.1542V-3.05266C1284.81 -6.5303 1286.66 -9.74377 1289.67 -11.4826L1308.01 -22.086Z"/>
<path d="M1005.75 39.5241C1008.76 37.7853 1012.47 37.7853 1015.48 39.5241L1033.82 50.1275C1036.83 51.8664 1038.68 55.0798 1038.68 58.5575V79.7643C1038.68 83.242 1036.83 86.4554 1033.82 88.1943L1015.48 98.7977C1012.47 100.537 1008.76 100.537 1005.75 98.7977L987.409 88.1943C984.4 86.4554 982.547 83.242 982.547 79.7643V58.5574C982.547 55.0798 984.4 51.8664 987.409 50.1275L1005.75 39.5241Z"/>
<path d="M1072.9 39.5241C1075.91 37.7853 1079.62 37.7853 1082.62 39.5241L1100.97 50.1275C1103.98 51.8664 1105.83 55.0798 1105.83 58.5575V79.7643C1105.83 83.242 1103.98 86.4554 1100.97 88.1943L1082.62 98.7977C1079.62 100.537 1075.91 100.537 1072.9 98.7977L1054.56 88.1943C1051.55 86.4554 1049.69 83.242 1049.69 79.7643V58.5574C1049.69 55.0798 1051.55 51.8664 1054.56 50.1275L1072.9 39.5241Z"/>
<path d="M1140.11 39.5241C1143.12 37.7853 1146.83 37.7853 1149.84 39.5241L1168.18 50.1275C1171.19 51.8664 1173.04 55.0798 1173.04 58.5575V79.7643C1173.04 83.242 1171.19 86.4554 1168.18 88.1943L1149.84 98.7977C1146.83 100.537 1143.12 100.537 1140.11 98.7977L1121.77 88.1943C1118.76 86.4554 1116.91 83.242 1116.91 79.7643V58.5574C1116.91 55.0798 1118.76 51.8664 1121.77 50.1275L1140.11 39.5241Z"/>
<path d="M1207.32 39.5241C1210.33 37.7853 1214.04 37.7853 1217.05 39.5241L1235.39 50.1275C1238.4 51.8664 1240.25 55.0798 1240.25 58.5575V79.7643C1240.25 83.242 1238.4 86.4554 1235.39 88.1943L1217.05 98.7977C1214.04 100.537 1210.33 100.537 1207.32 98.7977L1188.98 88.1943C1185.97 86.4554 1184.12 83.242 1184.12 79.7643V58.5574C1184.12 55.0798 1185.97 51.8664 1188.98 50.1275L1207.32 39.5241Z"/>
<path d="M1274.47 39.5241C1277.48 37.7853 1281.19 37.7853 1284.19 39.5241L1302.54 50.1275C1305.55 51.8664 1307.4 55.0798 1307.4 58.5575V79.7643C1307.4 83.242 1305.55 86.4554 1302.54 88.1943L1284.19 98.7977C1281.19 100.537 1277.48 100.537 1274.47 98.7977L1256.13 88.1943C1253.12 86.4554 1251.26 83.242 1251.26 79.7643V58.5574C1251.26 55.0798 1253.12 51.8664 1256.13 50.1275L1274.47 39.5241Z"/>
<path d="M1341.68 39.5241C1344.69 37.7853 1348.4 37.7853 1351.41 39.5241L1369.75 50.1275C1372.76 51.8664 1374.61 55.0798 1374.61 58.5575V79.7643C1374.61 83.242 1372.76 86.4554 1369.75 88.1943L1351.41 98.7977C1348.4 100.537 1344.69 100.537 1341.68 98.7977L1323.34 88.1943C1320.33 86.4554 1318.48 83.242 1318.48 79.7643V58.5574C1318.48 55.0798 1320.33 51.8664 1323.34 50.1275L1341.68 39.5241Z"/>
<path d="M972.085 101.134C975.093 99.3954 978.8 99.3954 981.808 101.134L1000.15 111.738C1003.16 113.476 1005.01 116.69 1005.01 120.168V141.374C1005.01 144.852 1003.16 148.066 1000.15 149.804L981.808 160.408C978.8 162.147 975.093 162.147 972.085 160.408L953.74 149.804C950.731 148.066 948.878 144.852 948.878 141.374V120.168C948.878 116.69 950.731 113.476 953.74 111.738L972.085 101.134Z"/>
<path d="M1039.23 101.134C1042.24 99.3954 1045.95 99.3954 1048.96 101.134L1067.3 111.738C1070.31 113.476 1072.16 116.69 1072.16 120.168V141.374C1072.16 144.852 1070.31 148.066 1067.3 149.804L1048.96 160.408C1045.95 162.147 1042.24 162.147 1039.23 160.408L1020.89 149.804C1017.88 148.066 1016.03 144.852 1016.03 141.374V120.168C1016.03 116.69 1017.88 113.476 1020.89 111.738L1039.23 101.134Z"/>
<path d="M1106.44 101.134C1109.45 99.3954 1113.16 99.3954 1116.17 101.134L1134.51 111.738C1137.52 113.476 1139.37 116.69 1139.37 120.168V141.374C1139.37 144.852 1137.52 148.066 1134.51 149.804L1116.17 160.408C1113.16 162.147 1109.45 162.147 1106.44 160.408L1088.1 149.804C1085.09 148.066 1083.24 144.852 1083.24 141.374V120.168C1083.24 116.69 1085.09 113.476 1088.1 111.738L1106.44 101.134Z"/>
<path d="M1173.65 101.134C1176.66 99.3954 1180.37 99.3954 1183.38 101.134L1201.72 111.738C1204.73 113.476 1206.58 116.69 1206.58 120.168V141.374C1206.58 144.852 1204.73 148.066 1201.72 149.804L1183.38 160.408C1180.37 162.147 1176.66 162.147 1173.65 160.408L1155.31 149.804C1152.3 148.066 1150.45 144.852 1150.45 141.374V120.168C1150.45 116.69 1152.3 113.476 1155.31 111.738L1173.65 101.134Z"/>
<path d="M1240.8 101.134C1243.81 99.3954 1247.52 99.3954 1250.53 101.134L1268.87 111.738C1271.88 113.476 1273.73 116.69 1273.73 120.168V141.374C1273.73 144.852 1271.88 148.066 1268.87 149.804L1250.53 160.408C1247.52 162.147 1243.81 162.147 1240.8 160.408L1222.46 149.804C1219.45 148.066 1217.6 144.852 1217.6 141.374V120.168C1217.6 116.69 1219.45 113.476 1222.46 111.738L1240.8 101.134Z"/>
<path d="M1308.01 101.134C1311.02 99.3954 1314.73 99.3954 1317.74 101.134L1336.08 111.738C1339.09 113.476 1340.94 116.69 1340.94 120.168V141.374C1340.94 144.852 1339.09 148.066 1336.08 149.804L1317.74 160.408C1314.73 162.147 1311.02 162.147 1308.01 160.408L1289.67 149.804C1286.66 148.066 1284.81 144.852 1284.81 141.374V120.168C1284.81 116.69 1286.66 113.476 1289.67 111.738L1308.01 101.134Z"/>
<path d="M1005.75 162.744C1008.76 161.006 1012.47 161.006 1015.48 162.744L1033.82 173.348C1036.83 175.087 1038.68 178.3 1038.68 181.778V202.985C1038.68 206.462 1036.83 209.676 1033.82 211.415L1015.48 222.018C1012.47 223.757 1008.76 223.757 1005.75 222.018L987.409 211.415C984.4 209.676 982.547 206.462 982.547 202.985V181.778C982.547 178.3 984.4 175.087 987.409 173.348L1005.75 162.744Z"/>
<path d="M1072.9 162.744C1075.91 161.006 1079.62 161.006 1082.62 162.744L1100.97 173.348C1103.98 175.087 1105.83 178.3 1105.83 181.778V202.985C1105.83 206.462 1103.98 209.676 1100.97 211.415L1082.62 222.018C1079.62 223.757 1075.91 223.757 1072.9 222.018L1054.56 211.415C1051.55 209.676 1049.69 206.462 1049.69 202.985V181.778C1049.69 178.3 1051.55 175.087 1054.56 173.348L1072.9 162.744Z"/>
<path d="M1140.11 162.744C1143.12 161.006 1146.83 161.006 1149.84 162.744L1168.18 173.348C1171.19 175.087 1173.04 178.3 1173.04 181.778V202.985C1173.04 206.462 1171.19 209.676 1168.18 211.415L1149.84 222.018C1146.83 223.757 1143.12 223.757 1140.11 222.018L1121.77 211.415C1118.76 209.676 1116.91 206.462 1116.91 202.985V181.778C1116.91 178.3 1118.76 175.087 1121.77 173.348L1140.11 162.744Z"/>
<path d="M1207.32 162.744C1210.33 161.006 1214.04 161.006 1217.05 162.744L1235.39 173.348C1238.4 175.087 1240.25 178.3 1240.25 181.778V202.985C1240.25 206.462 1238.4 209.676 1235.39 211.415L1217.05 222.018C1214.04 223.757 1210.33 223.757 1207.32 222.018L1188.98 211.415C1185.97 209.676 1184.12 206.462 1184.12 202.985V181.778C1184.12 178.3 1185.97 175.087 1188.98 173.348L1207.32 162.744Z"/>
<path d="M1274.47 162.744C1277.48 161.006 1281.19 161.006 1284.19 162.744L1302.54 173.348C1305.55 175.087 1307.4 178.3 1307.4 181.778V202.985C1307.4 206.462 1305.55 209.676 1302.54 211.415L1284.19 222.018C1281.19 223.757 1277.48 223.757 1274.47 222.018L1256.13 211.415C1253.12 209.676 1251.26 206.462 1251.26 202.985V181.778C1251.26 178.3 1253.12 175.087 1256.13 173.348L1274.47 162.744Z"/>
<path d="M1341.68 162.744C1344.69 161.006 1348.4 161.006 1351.41 162.744L1369.75 173.348C1372.76 175.087 1374.61 178.3 1374.61 181.778V202.985C1374.61 206.462 1372.76 209.676 1369.75 211.415L1351.41 222.018C1348.4 223.757 1344.69 223.757 1341.68 222.018L1323.34 211.415C1320.33 209.676 1318.48 206.462 1318.48 202.985V181.778C1318.48 178.3 1320.33 175.087 1323.34 173.348L1341.68 162.744Z"/>
<path d="M501.747 -22.086C504.755 -23.8248 508.462 -23.8248 511.47 -22.086L529.815 -11.4826C532.823 -9.74377 534.677 -6.5303 534.677 -3.05266V18.1542C534.677 21.6319 532.823 24.8453 529.815 26.5841L511.47 37.1876C508.462 38.9264 504.755 38.9264 501.747 37.1876L483.402 26.5841C480.393 24.8453 478.54 21.6319 478.54 18.1542V-3.05266C478.54 -6.5303 480.393 -9.74377 483.402 -11.4826L501.747 -22.086Z"/>
<path d="M569.085 -22.086C572.093 -23.8248 575.8 -23.8248 578.808 -22.086L597.153 -11.4826C600.161 -9.74377 602.015 -6.5303 602.015 -3.05266V18.1542C602.015 21.6319 600.161 24.8453 597.153 26.5841L578.808 37.1876C575.8 38.9264 572.093 38.9264 569.085 37.1876L550.74 26.5841C547.731 24.8453 545.878 21.6319 545.878 18.1542V-3.05266C545.878 -6.5303 547.731 -9.74377 550.74 -11.4826L569.085 -22.086Z"/>
<path d="M636.232 -22.086C639.241 -23.8248 642.947 -23.8248 645.955 -22.086L664.301 -11.4826C667.309 -9.74377 669.162 -6.5303 669.162 -3.05266V18.1542C669.162 21.6319 667.309 24.8453 664.301 26.5841L645.955 37.1876C642.947 38.9264 639.241 38.9264 636.232 37.1876L617.887 26.5841C614.879 24.8453 613.026 21.6319 613.026 18.1542V-3.05266C613.026 -6.5303 614.879 -9.74377 617.887 -11.4826L636.232 -22.086Z"/>
<path d="M703.443 -22.086C706.452 -23.8248 710.158 -23.8248 713.167 -22.086L731.512 -11.4826C734.52 -9.74377 736.373 -6.5303 736.373 -3.05266V18.1542C736.373 21.6319 734.52 24.8453 731.512 26.5841L713.167 37.1876C710.158 38.9264 706.452 38.9264 703.443 37.1876L685.098 26.5841C682.09 24.8453 680.237 21.6319 680.237 18.1542V-3.05266C680.237 -6.5303 682.09 -9.74377 685.098 -11.4826L703.443 -22.086Z"/>
<path d="M770.654 -22.086C773.663 -23.8248 777.369 -23.8248 780.378 -22.086L798.723 -11.4826C801.731 -9.74377 803.584 -6.5303 803.584 -3.05266V18.1542C803.584 21.6319 801.731 24.8453 798.723 26.5841L780.378 37.1876C777.369 38.9264 773.663 38.9264 770.654 37.1876L752.309 26.5841C749.301 24.8453 747.448 21.6319 747.448 18.1542V-3.05266C747.448 -6.5303 749.301 -9.74377 752.309 -11.4826L770.654 -22.086Z"/>
<path d="M837.802 -22.086C840.81 -23.8248 844.517 -23.8248 847.525 -22.086L865.87 -11.4826C868.879 -9.74377 870.732 -6.5303 870.732 -3.05266V18.1542C870.732 21.6319 868.879 24.8453 865.87 26.5841L847.525 37.1876C844.517 38.9264 840.81 38.9264 837.802 37.1876L819.457 26.5841C816.449 24.8453 814.595 21.6319 814.595 18.1542V-3.05266C814.595 -6.5303 816.449 -9.74377 819.457 -11.4826L837.802 -22.086Z"/>
<path d="M905.013 -22.086C908.021 -23.8248 911.728 -23.8248 914.736 -22.086L933.081 -11.4826C936.09 -9.74377 937.943 -6.5303 937.943 -3.05266V18.1542C937.943 21.6319 936.09 24.8453 933.081 26.5841L914.736 37.1876C911.728 38.9264 908.021 38.9264 905.013 37.1876L886.668 26.5841C883.66 24.8453 881.806 21.6319 881.806 18.1542V-3.05266C881.806 -6.5303 883.66 -9.74377 886.668 -11.4826L905.013 -22.086Z"/>
<path d="M535.416 39.5241C538.424 37.7853 542.131 37.7853 545.139 39.5241L563.484 50.1275C566.492 51.8664 568.346 55.0798 568.346 58.5575V79.7643C568.346 83.242 566.492 86.4554 563.484 88.1943L545.139 98.7977C542.131 100.537 538.424 100.537 535.416 98.7977L517.071 88.1943C514.062 86.4554 512.209 83.242 512.209 79.7643V58.5574C512.209 55.0798 514.062 51.8664 517.071 50.1275L535.416 39.5241Z"/>
<path d="M602.754 39.5241C605.762 37.7853 609.468 37.7853 612.477 39.5241L630.822 50.1275C633.83 51.8664 635.683 55.0798 635.683 58.5575V79.7643C635.683 83.242 633.83 86.4554 630.822 88.1943L612.477 98.7977C609.468 100.537 605.762 100.537 602.754 98.7977L584.409 88.1943C581.4 86.4554 579.547 83.242 579.547 79.7643V58.5574C579.547 55.0798 581.4 51.8664 584.409 50.1275L602.754 39.5241Z"/>
<path d="M669.901 39.5241C672.91 37.7853 676.616 37.7853 679.624 39.5241L697.97 50.1275C700.978 51.8664 702.831 55.0798 702.831 58.5575V79.7643C702.831 83.242 700.978 86.4554 697.97 88.1943L679.624 98.7977C676.616 100.537 672.91 100.537 669.901 98.7977L651.556 88.1943C648.548 86.4554 646.695 83.242 646.695 79.7643V58.5574C646.695 55.0798 648.548 51.8664 651.556 50.1275L669.901 39.5241Z"/>
<path d="M737.112 39.5241C740.121 37.7853 743.827 37.7853 746.835 39.5241L765.181 50.1275C768.189 51.8664 770.042 55.0798 770.042 58.5575V79.7643C770.042 83.242 768.189 86.4554 765.181 88.1943L746.835 98.7977C743.827 100.537 740.121 100.537 737.112 98.7977L718.767 88.1943C715.759 86.4554 713.906 83.242 713.906 79.7643V58.5574C713.906 55.0798 715.759 51.8664 718.767 50.1275L737.112 39.5241Z"/>
<path d="M804.323 39.5241C807.332 37.7853 811.038 37.7853 814.046 39.5241L832.392 50.1275C835.4 51.8664 837.253 55.0798 837.253 58.5575V79.7643C837.253 83.242 835.4 86.4554 832.392 88.1943L814.046 98.7977C811.038 100.537 807.332 100.537 804.323 98.7977L785.978 88.1943C782.97 86.4554 781.117 83.242 781.117 79.7643V58.5574C781.117 55.0798 782.97 51.8664 785.978 50.1275L804.323 39.5241Z"/>
<path d="M871.471 39.5241C874.479 37.7853 878.186 37.7853 881.194 39.5241L899.539 50.1275C902.548 51.8664 904.401 55.0798 904.401 58.5575V79.7643C904.401 83.242 902.548 86.4554 899.539 88.1943L881.194 98.7977C878.186 100.537 874.479 100.537 871.471 98.7977L853.126 88.1943C850.117 86.4554 848.264 83.242 848.264 79.7643V58.5574C848.264 55.0798 850.117 51.8664 853.126 50.1275L871.471 39.5241Z"/>
<path d="M938.682 39.5241C941.69 37.7853 945.397 37.7853 948.405 39.5241L966.75 50.1275C969.759 51.8664 971.612 55.0798 971.612 58.5575V79.7643C971.612 83.242 969.759 86.4554 966.75 88.1943L948.405 98.7977C945.397 100.537 941.69 100.537 938.682 98.7977L920.337 88.1943C917.329 86.4554 915.475 83.242 915.475 79.7643V58.5574C915.475 55.0798 917.329 51.8664 920.337 50.1275L938.682 39.5241Z"/>
<path d="M501.747 101.134C504.755 99.3954 508.462 99.3954 511.47 101.134L529.815 111.738C532.823 113.476 534.677 116.69 534.677 120.168V141.374C534.677 144.852 532.823 148.066 529.815 149.804L511.47 160.408C508.462 162.147 504.755 162.147 501.747 160.408L483.402 149.804C480.393 148.066 478.54 144.852 478.54 141.374V120.168C478.54 116.69 480.393 113.476 483.402 111.738L501.747 101.134Z"/>
<path d="M569.085 101.134C572.093 99.3954 575.8 99.3954 578.808 101.134L597.153 111.738C600.161 113.476 602.015 116.69 602.015 120.168V141.374C602.015 144.852 600.161 148.066 597.153 149.804L578.808 160.408C575.8 162.147 572.093 162.147 569.085 160.408L550.74 149.804C547.731 148.066 545.878 144.852 545.878 141.374V120.168C545.878 116.69 547.731 113.476 550.74 111.738L569.085 101.134Z"/>
<path d="M636.232 101.134C639.241 99.3954 642.947 99.3954 645.955 101.134L664.301 111.738C667.309 113.476 669.162 116.69 669.162 120.168V141.374C669.162 144.852 667.309 148.066 664.301 149.804L645.955 160.408C642.947 162.147 639.241 162.147 636.232 160.408L617.887 149.804C614.879 148.066 613.026 144.852 613.026 141.374V120.168C613.026 116.69 614.879 113.476 617.887 111.738L636.232 101.134Z"/>
<path d="M703.443 101.134C706.452 99.3954 710.158 99.3954 713.167 101.134L731.512 111.738C734.52 113.476 736.373 116.69 736.373 120.168V141.374C736.373 144.852 734.52 148.066 731.512 149.804L713.167 160.408C710.158 162.147 706.452 162.147 703.443 160.408L685.098 149.804C682.09 148.066 680.237 144.852 680.237 141.374V120.168C680.237 116.69 682.09 113.476 685.098 111.738L703.443 101.134Z"/>
<path d="M770.654 101.134C773.663 99.3954 777.369 99.3954 780.378 101.134L798.723 111.738C801.731 113.476 803.584 116.69 803.584 120.168V141.374C803.584 144.852 801.731 148.066 798.723 149.804L780.378 160.408C777.369 162.147 773.663 162.147 770.654 160.408L752.309 149.804C749.301 148.066 747.448 144.852 747.448 141.374V120.168C747.448 116.69 749.301 113.476 752.309 111.738L770.654 101.134Z"/>
<path d="M837.802 101.134C840.81 99.3954 844.517 99.3954 847.525 101.134L865.87 111.738C868.879 113.476 870.732 116.69 870.732 120.168V141.374C870.732 144.852 868.879 148.066 865.87 149.804L847.525 160.408C844.517 162.147 840.81 162.147 837.802 160.408L819.457 149.804C816.449 148.066 814.595 144.852 814.595 141.374V120.168C814.595 116.69 816.449 113.476 819.457 111.738L837.802 101.134Z"/>
<path d="M905.013 101.134C908.021 99.3954 911.728 99.3954 914.736 101.134L933.081 111.738C936.09 113.476 937.943 116.69 937.943 120.168V141.374C937.943 144.852 936.09 148.066 933.081 149.804L914.736 160.408C911.728 162.147 908.021 162.147 905.013 160.408L886.668 149.804C883.66 148.066 881.806 144.852 881.806 141.374V120.168C881.806 116.69 883.66 113.476 886.668 111.738L905.013 101.134Z"/>
<path d="M535.416 162.744C538.424 161.006 542.131 161.006 545.139 162.744L563.484 173.348C566.492 175.087 568.346 178.3 568.346 181.778V202.985C568.346 206.462 566.492 209.676 563.484 211.415L545.139 222.018C542.131 223.757 538.424 223.757 535.416 222.018L517.071 211.415C514.062 209.676 512.209 206.462 512.209 202.985V181.778C512.209 178.3 514.062 175.087 517.071 173.348L535.416 162.744Z"/>
<path d="M602.754 162.744C605.762 161.006 609.468 161.006 612.477 162.744L630.822 173.348C633.83 175.087 635.683 178.3 635.683 181.778V202.985C635.683 206.462 633.83 209.676 630.822 211.415L612.477 222.018C609.468 223.757 605.762 223.757 602.754 222.018L584.409 211.415C581.4 209.676 579.547 206.462 579.547 202.985V181.778C579.547 178.3 581.4 175.087 584.409 173.348L602.754 162.744Z"/>
<path d="M669.901 162.744C672.91 161.006 676.616 161.006 679.624 162.744L697.97 173.348C700.978 175.087 702.831 178.3 702.831 181.778V202.985C702.831 206.462 700.978 209.676 697.97 211.415L679.624 222.018C676.616 223.757 672.91 223.757 669.901 222.018L651.556 211.415C648.548 209.676 646.695 206.462 646.695 202.985V181.778C646.695 178.3 648.548 175.087 651.556 173.348L669.901 162.744Z"/>
<path d="M737.112 162.744C740.121 161.006 743.827 161.006 746.835 162.744L765.181 173.348C768.189 175.087 770.042 178.3 770.042 181.778V202.985C770.042 206.462 768.189 209.676 765.181 211.415L746.835 222.018C743.827 223.757 740.121 223.757 737.112 222.018L718.767 211.415C715.759 209.676 713.906 206.462 713.906 202.985V181.778C713.906 178.3 715.759 175.087 718.767 173.348L737.112 162.744Z"/>
<path d="M804.323 162.744C807.332 161.006 811.038 161.006 814.046 162.744L832.392 173.348C835.4 175.087 837.253 178.3 837.253 181.778V202.985C837.253 206.462 835.4 209.676 832.392 211.415L814.046 222.018C811.038 223.757 807.332 223.757 804.323 222.018L785.978 211.415C782.97 209.676 781.117 206.462 781.117 202.985V181.778C781.117 178.3 782.97 175.087 785.978 173.348L804.323 162.744Z"/>
<path d="M871.471 162.744C874.479 161.006 878.186 161.006 881.194 162.744L899.539 173.348C902.548 175.087 904.401 178.3 904.401 181.778V202.985C904.401 206.462 902.548 209.676 899.539 211.415L881.194 222.018C878.186 223.757 874.479 223.757 871.471 222.018L853.126 211.415C850.117 209.676 848.264 206.462 848.264 202.985V181.778C848.264 178.3 850.117 175.087 853.126 173.348L871.471 162.744Z"/>
<path d="M938.682 162.744C941.69 161.006 945.397 161.006 948.405 162.744L966.75 173.348C969.759 175.087 971.612 178.3 971.612 181.778V202.985C971.612 206.462 969.759 209.676 966.75 211.415L948.405 222.018C945.397 223.757 941.69 223.757 938.682 222.018L920.337 211.415C917.329 209.676 915.475 206.462 915.475 202.985V181.778C915.475 178.3 917.329 175.087 920.337 173.348L938.682 162.744Z"/>
</mask>
<path d="M1374.75 -22.086C1377.76 -23.8248 1381.46 -23.8248 1384.47 -22.086L1402.81 -11.4826C1405.82 -9.74377 1407.68 -6.5303 1407.68 -3.05266V18.1542C1407.68 21.6319 1405.82 24.8453 1402.81 26.5841L1384.47 37.1876C1381.46 38.9264 1377.76 38.9264 1374.75 37.1876L1356.4 26.5841C1353.39 24.8453 1351.54 21.6319 1351.54 18.1542V-3.05266C1351.54 -6.5303 1353.39 -9.74377 1356.4 -11.4826L1374.75 -22.086Z" stroke="#CFD4FF" stroke-width="2" mask="url(#path-2-inside-1_21829_88398)"/>
<path d="M1442.08 -22.086C1445.09 -23.8248 1448.8 -23.8248 1451.81 -22.086L1470.15 -11.4826C1473.16 -9.74377 1475.01 -6.5303 1475.01 -3.05266V18.1542C1475.01 21.6319 1473.16 24.8453 1470.15 26.5841L1451.81 37.1876C1448.8 38.9264 1445.09 38.9264 1442.08 37.1876L1423.74 26.5841C1420.73 24.8453 1418.88 21.6319 1418.88 18.1542V-3.05266C1418.88 -6.5303 1420.73 -9.74377 1423.74 -11.4826L1442.08 -22.086Z" stroke="#CFD4FF" stroke-width="2" mask="url(#path-2-inside-1_21829_88398)"/>
<path d="M1408.42 39.5241C1411.42 37.7853 1415.13 37.7853 1418.14 39.5241L1436.48 50.1275C1439.49 51.8664 1441.35 55.0798 1441.35 58.5575V79.7643C1441.35 83.242 1439.49 86.4554 1436.48 88.1943L1418.14 98.7977C1415.13 100.537 1411.42 100.537 1408.42 98.7977L1390.07 88.1943C1387.06 86.4554 1385.21 83.242 1385.21 79.7643V58.5574C1385.21 55.0798 1387.06 51.8664 1390.07 50.1275L1408.42 39.5241Z" stroke="#CFD4FF" stroke-width="2" mask="url(#path-2-inside-1_21829_88398)"/>
<path d="M1374.75 101.134C1377.76 99.3954 1381.46 99.3954 1384.47 101.134L1402.81 111.738C1405.82 113.476 1407.68 116.69 1407.68 120.168V141.374C1407.68 144.852 1405.82 148.066 1402.81 149.804L1384.47 160.408C1381.46 162.147 1377.76 162.147 1374.75 160.408L1356.4 149.804C1353.39 148.066 1351.54 144.852 1351.54 141.374V120.168C1351.54 116.69 1353.39 113.476 1356.4 111.738L1374.75 101.134Z" stroke="#CFD4FF" stroke-width="2" mask="url(#path-2-inside-1_21829_88398)"/>
<path d="M1442.08 101.134C1445.09 99.3954 1448.8 99.3954 1451.81 101.134L1470.15 111.738C1473.16 113.476 1475.01 116.69 1475.01 120.168V141.374C1475.01 144.852 1473.16 148.066 1470.15 149.804L1451.81 160.408C1448.8 162.147 1445.09 162.147 1442.08 160.408L1423.74 149.804C1420.73 148.066 1418.88 144.852 1418.88 141.374V120.168C1418.88 116.69 1420.73 113.476 1423.74 111.738L1442.08 101.134Z" stroke="#CFD4FF" stroke-width="2" mask="url(#path-2-inside-1_21829_88398)"/>
<path d="M1408.42 162.744C1411.42 161.006 1415.13 161.006 1418.14 162.744L1436.48 173.348C1439.49 175.087 1441.35 178.3 1441.35 181.778V202.985C1441.35 206.462 1439.49 209.676 1436.48 211.415L1418.14 222.018C1415.13 223.757 1411.42 223.757 1408.42 222.018L1390.07 211.415C1387.06 209.676 1385.21 206.462 1385.21 202.985V181.778C1385.21 178.3 1387.06 175.087 1390.07 173.348L1408.42 162.744Z" stroke="#CFD4FF" stroke-width="2" mask="url(#path-2-inside-1_21829_88398)"/>
<path d="M30.7468 -22.086C33.7551 -23.8248 37.4616 -23.8248 40.4699 -22.086L58.815 -11.4826C61.8234 -9.74377 63.6766 -6.5303 63.6766 -3.05266V18.1542C63.6766 21.6319 61.8234 24.8453 58.815 26.5841L40.4699 37.1876C37.4616 38.9264 33.7551 38.9264 30.7468 37.1876L12.4017 26.5841C9.39333 24.8453 7.5401 21.6319 7.5401 18.1542V-3.05266C7.5401 -6.5303 9.39333 -9.74377 12.4017 -11.4826L30.7468 -22.086Z" stroke="#CFD4FF" stroke-width="2" mask="url(#path-2-inside-1_21829_88398)"/>
<path d="M98.0847 -22.086C101.093 -23.8248 104.8 -23.8248 107.808 -22.086L126.153 -11.4826C129.161 -9.74377 131.015 -6.5303 131.015 -3.05266V18.1542C131.015 21.6319 129.161 24.8453 126.153 26.5841L107.808 37.1876C104.8 38.9264 101.093 38.9264 98.0847 37.1876L79.7396 26.5841C76.7312 24.8453 74.8781 21.6319 74.8781 18.1542V-3.05266C74.8781 -6.5303 76.7312 -9.74377 79.7396 -11.4826L98.0847 -22.086Z" stroke="#CFD4FF" stroke-width="2" mask="url(#path-2-inside-1_21829_88398)"/>
<path d="M165.232 -22.086C168.241 -23.8248 171.947 -23.8248 174.955 -22.086L193.301 -11.4826C196.309 -9.74377 198.162 -6.5303 198.162 -3.05266V18.1542C198.162 21.6319 196.309 24.8453 193.301 26.5841L174.955 37.1876C171.947 38.9264 168.241 38.9264 165.232 37.1876L146.887 26.5841C143.879 24.8453 142.026 21.6319 142.026 18.1542V-3.05266C142.026 -6.5303 143.879 -9.74377 146.887 -11.4826L165.232 -22.086Z" stroke="#CFD4FF" stroke-width="2" mask="url(#path-2-inside-1_21829_88398)"/>
<path d="M232.443 -22.086C235.452 -23.8248 239.158 -23.8248 242.167 -22.086L260.512 -11.4826C263.52 -9.74377 265.373 -6.5303 265.373 -3.05266V18.1542C265.373 21.6319 263.52 24.8453 260.512 26.5841L242.167 37.1876C239.158 38.9264 235.452 38.9264 232.443 37.1876L214.098 26.5841C211.09 24.8453 209.237 21.6319 209.237 18.1542V-3.05266C209.237 -6.5303 211.09 -9.74377 214.098 -11.4826L232.443 -22.086Z" stroke="#CFD4FF" stroke-width="2" mask="url(#path-2-inside-1_21829_88398)"/>
<path d="M299.654 -22.086C302.663 -23.8248 306.369 -23.8248 309.378 -22.086L327.723 -11.4826C330.731 -9.74377 332.584 -6.5303 332.584 -3.05266V18.1542C332.584 21.6319 330.731 24.8453 327.723 26.5841L309.378 37.1876C306.369 38.9264 302.663 38.9264 299.654 37.1876L281.309 26.5841C278.301 24.8453 276.448 21.6319 276.448 18.1542V-3.05266C276.448 -6.5303 278.301 -9.74377 281.309 -11.4826L299.654 -22.086Z" stroke="#CFD4FF" stroke-width="2" mask="url(#path-2-inside-1_21829_88398)"/>
<path d="M366.802 -22.086C369.81 -23.8248 373.517 -23.8248 376.525 -22.086L394.87 -11.4826C397.879 -9.74377 399.732 -6.5303 399.732 -3.05266V18.1542C399.732 21.6319 397.879 24.8453 394.87 26.5841L376.525 37.1876C373.517 38.9264 369.81 38.9264 366.802 37.1876L348.457 26.5841C345.449 24.8453 343.595 21.6319 343.595 18.1542V-3.05266C343.595 -6.5303 345.449 -9.74377 348.457 -11.4826L366.802 -22.086Z" stroke="#CFD4FF" stroke-width="2" mask="url(#path-2-inside-1_21829_88398)"/>
<path d="M434.013 -22.086C437.021 -23.8248 440.728 -23.8248 443.736 -22.086L462.081 -11.4826C465.09 -9.74377 466.943 -6.5303 466.943 -3.05266V18.1542C466.943 21.6319 465.09 24.8453 462.081 26.5841L443.736 37.1876C440.728 38.9264 437.021 38.9264 434.013 37.1876L415.668 26.5841C412.66 24.8453 410.806 21.6319 410.806 18.1542V-3.05266C410.806 -6.5303 412.66 -9.74377 415.668 -11.4826L434.013 -22.086Z" stroke="#CFD4FF" stroke-width="2" mask="url(#path-2-inside-1_21829_88398)"/>
<path d="M-2.79529 39.5241C0.213058 37.7853 3.91951 37.7853 6.92786 39.5241L25.273 50.1275C28.2813 51.8664 30.1346 55.0798 30.1346 58.5575V79.7643C30.1346 83.242 28.2813 86.4554 25.273 88.1943L6.92786 98.7977C3.91951 100.537 0.213058 100.537 -2.79529 98.7977L-21.1404 88.1943C-24.1488 86.4554 -26.002 83.242 -26.002 79.7643V58.5574C-26.002 55.0798 -24.1488 51.8664 -21.1404 50.1275L-2.79529 39.5241Z" stroke="#CFD4FF" stroke-width="2" mask="url(#path-2-inside-1_21829_88398)"/>
<path d="M64.4158 39.5241C67.4241 37.7853 71.1305 37.7853 74.1389 39.5241L92.484 50.1275C95.4924 51.8664 97.3456 55.0798 97.3456 58.5575V79.7643C97.3456 83.242 95.4924 86.4554 92.484 88.1943L74.1389 98.7977C71.1305 100.537 67.4241 100.537 64.4158 98.7977L46.0706 88.1943C43.0623 86.4554 41.2091 83.242 41.2091 79.7643V58.5574C41.2091 55.0798 43.0623 51.8664 46.0706 50.1275L64.4158 39.5241Z" stroke="#CFD4FF" stroke-width="2" mask="url(#path-2-inside-1_21829_88398)"/>
<path d="M131.754 39.5241C134.762 37.7853 138.468 37.7853 141.477 39.5241L159.822 50.1275C162.83 51.8664 164.684 55.0798 164.684 58.5575V79.7643C164.684 83.242 162.83 86.4554 159.822 88.1943L141.477 98.7977C138.468 100.537 134.762 100.537 131.754 98.7977L113.409 88.1943C110.4 86.4554 108.547 83.242 108.547 79.7643V58.5574C108.547 55.0798 110.4 51.8664 113.409 50.1275L131.754 39.5241Z" stroke="#CFD4FF" stroke-width="2" mask="url(#path-2-inside-1_21829_88398)"/>
<path d="M198.901 39.5241C201.91 37.7853 205.616 37.7853 208.624 39.5241L226.97 50.1275C229.978 51.8664 231.831 55.0798 231.831 58.5575V79.7643C231.831 83.242 229.978 86.4554 226.97 88.1943L208.624 98.7977C205.616 100.537 201.91 100.537 198.901 98.7977L180.556 88.1943C177.548 86.4554 175.695 83.242 175.695 79.7643V58.5574C175.695 55.0798 177.548 51.8664 180.556 50.1275L198.901 39.5241Z" stroke="#CFD4FF" stroke-width="2" mask="url(#path-2-inside-1_21829_88398)"/>
<path d="M266.112 39.5241C269.121 37.7853 272.827 37.7853 275.835 39.5241L294.181 50.1275C297.189 51.8664 299.042 55.0798 299.042 58.5575V79.7643C299.042 83.242 297.189 86.4554 294.181 88.1943L275.835 98.7977C272.827 100.537 269.121 100.537 266.112 98.7977L247.767 88.1943C244.759 86.4554 242.906 83.242 242.906 79.7643V58.5574C242.906 55.0798 244.759 51.8664 247.767 50.1275L266.112 39.5241Z" stroke="#CFD4FF" stroke-width="2" mask="url(#path-2-inside-1_21829_88398)"/>
<path d="M333.323 39.5241C336.332 37.7853 340.038 37.7853 343.046 39.5241L361.392 50.1275C364.4 51.8664 366.253 55.0798 366.253 58.5575V79.7643C366.253 83.242 364.4 86.4554 361.392 88.1943L343.046 98.7977C340.038 100.537 336.332 100.537 333.323 98.7977L314.978 88.1943C311.97 86.4554 310.117 83.242 310.117 79.7643V58.5574C310.117 55.0798 311.97 51.8664 314.978 50.1275L333.323 39.5241Z" stroke="#CFD4FF" stroke-width="2" mask="url(#path-2-inside-1_21829_88398)"/>
<path d="M400.471 39.5241C403.479 37.7853 407.186 37.7853 410.194 39.5241L428.539 50.1275C431.548 51.8664 433.401 55.0798 433.401 58.5575V79.7643C433.401 83.242 431.548 86.4554 428.539 88.1943L410.194 98.7977C407.186 100.537 403.479 100.537 400.471 98.7977L382.126 88.1943C379.117 86.4554 377.264 83.242 377.264 79.7643V58.5574C377.264 55.0798 379.117 51.8664 382.126 50.1275L400.471 39.5241Z" stroke="#CFD4FF" stroke-width="2" mask="url(#path-2-inside-1_21829_88398)"/>
<path d="M467.682 39.5241C470.69 37.7853 474.397 37.7853 477.405 39.5241L495.75 50.1275C498.759 51.8664 500.612 55.0798 500.612 58.5575V79.7643C500.612 83.242 498.759 86.4554 495.75 88.1943L477.405 98.7977C474.397 100.537 470.69 100.537 467.682 98.7977L449.337 88.1943C446.329 86.4554 444.475 83.242 444.475 79.7643V58.5574C444.475 55.0798 446.329 51.8664 449.337 50.1275L467.682 39.5241Z" stroke="#CFD4FF" stroke-width="2" mask="url(#path-2-inside-1_21829_88398)"/>
<path d="M30.7468 101.134C33.7551 99.3954 37.4616 99.3954 40.4699 101.134L58.815 111.738C61.8234 113.476 63.6766 116.69 63.6766 120.168V141.374C63.6766 144.852 61.8234 148.066 58.815 149.804L40.4699 160.408C37.4616 162.147 33.7551 162.147 30.7468 160.408L12.4017 149.804C9.39333 148.066 7.5401 144.852 7.5401 141.374V120.168C7.5401 116.69 9.39333 113.476 12.4017 111.738L30.7468 101.134Z" stroke="#CFD4FF" stroke-width="2" mask="url(#path-2-inside-1_21829_88398)"/>
<path d="M98.0847 101.134C101.093 99.3954 104.8 99.3954 107.808 101.134L126.153 111.738C129.161 113.476 131.015 116.69 131.015 120.168V141.374C131.015 144.852 129.161 148.066 126.153 149.804L107.808 160.408C104.8 162.147 101.093 162.147 98.0847 160.408L79.7396 149.804C76.7312 148.066 74.8781 144.852 74.8781 141.374V120.168C74.8781 116.69 76.7312 113.476 79.7396 111.738L98.0847 101.134Z" stroke="#CFD4FF" stroke-width="2" mask="url(#path-2-inside-1_21829_88398)"/>
<path d="M165.232 101.134C168.241 99.3954 171.947 99.3954 174.955 101.134L193.301 111.738C196.309 113.476 198.162 116.69 198.162 120.168V141.374C198.162 144.852 196.309 148.066 193.301 149.804L174.955 160.408C171.947 162.147 168.241 162.147 165.232 160.408L146.887 149.804C143.879 148.066 142.026 144.852 142.026 141.374V120.168C142.026 116.69 143.879 113.476 146.887 111.738L165.232 101.134Z" stroke="#CFD4FF" stroke-width="2" mask="url(#path-2-inside-1_21829_88398)"/>
<path d="M232.443 101.134C235.452 99.3954 239.158 99.3954 242.167 101.134L260.512 111.738C263.52 113.476 265.373 116.69 265.373 120.168V141.374C265.373 144.852 263.52 148.066 260.512 149.804L242.167 160.408C239.158 162.147 235.452 162.147 232.443 160.408L214.098 149.804C211.09 148.066 209.237 144.852 209.237 141.374V120.168C209.237 116.69 211.09 113.476 214.098 111.738L232.443 101.134Z" stroke="#CFD4FF" stroke-width="2" mask="url(#path-2-inside-1_21829_88398)"/>
<path d="M299.654 101.134C302.663 99.3954 306.369 99.3954 309.378 101.134L327.723 111.738C330.731 113.476 332.584 116.69 332.584 120.168V141.374C332.584 144.852 330.731 148.066 327.723 149.804L309.378 160.408C306.369 162.147 302.663 162.147 299.654 160.408L281.309 149.804C278.301 148.066 276.448 144.852 276.448 141.374V120.168C276.448 116.69 278.301 113.476 281.309 111.738L299.654 101.134Z" stroke="#CFD4FF" stroke-width="2" mask="url(#path-2-inside-1_21829_88398)"/>
<path d="M366.802 101.134C369.81 99.3954 373.517 99.3954 376.525 101.134L394.87 111.738C397.879 113.476 399.732 116.69 399.732 120.168V141.374C399.732 144.852 397.879 148.066 394.87 149.804L376.525 160.408C373.517 162.147 369.81 162.147 366.802 160.408L348.457 149.804C345.449 148.066 343.595 144.852 343.595 141.374V120.168C343.595 116.69 345.449 113.476 348.457 111.738L366.802 101.134Z" stroke="#CFD4FF" stroke-width="2" mask="url(#path-2-inside-1_21829_88398)"/>
<path d="M434.013 101.134C437.021 99.3954 440.728 99.3954 443.736 101.134L462.081 111.738C465.09 113.476 466.943 116.69 466.943 120.168V141.374C466.943 144.852 465.09 148.066 462.081 149.804L443.736 160.408C440.728 162.147 437.021 162.147 434.013 160.408L415.668 149.804C412.66 148.066 410.806 144.852 410.806 141.374V120.168C410.806 116.69 412.66 113.476 415.668 111.738L434.013 101.134Z" stroke="#CFD4FF" stroke-width="2" mask="url(#path-2-inside-1_21829_88398)"/>
<path d="M-2.79529 162.744C0.213058 161.006 3.91951 161.006 6.92786 162.744L25.273 173.348C28.2813 175.087 30.1346 178.3 30.1346 181.778V202.985C30.1346 206.462 28.2813 209.676 25.273 211.415L6.92786 222.018C3.91951 223.757 0.213058 223.757 -2.79529 222.018L-21.1404 211.415C-24.1488 209.676 -26.002 206.462 -26.002 202.985V181.778C-26.002 178.3 -24.1488 175.087 -21.1404 173.348L-2.79529 162.744Z" stroke="#CFD4FF" stroke-width="2" mask="url(#path-2-inside-1_21829_88398)"/>
<path d="M64.4158 162.744C67.4241 161.006 71.1305 161.006 74.1389 162.744L92.484 173.348C95.4924 175.087 97.3456 178.3 97.3456 181.778V202.985C97.3456 206.462 95.4924 209.676 92.484 211.415L74.1389 222.018C71.1305 223.757 67.4241 223.757 64.4158 222.018L46.0706 211.415C43.0623 209.676 41.2091 206.462 41.2091 202.985V181.778C41.2091 178.3 43.0623 175.087 46.0706 173.348L64.4158 162.744Z" stroke="#CFD4FF" stroke-width="2" mask="url(#path-2-inside-1_21829_88398)"/>
<path d="M131.754 162.744C134.762 161.006 138.468 161.006 141.477 162.744L159.822 173.348C162.83 175.087 164.684 178.3 164.684 181.778V202.985C164.684 206.462 162.83 209.676 159.822 211.415L141.477 222.018C138.468 223.757 134.762 223.757 131.754 222.018L113.409 211.415C110.4 209.676 108.547 206.462 108.547 202.985V181.778C108.547 178.3 110.4 175.087 113.409 173.348L131.754 162.744Z" stroke="#CFD4FF" stroke-width="2" mask="url(#path-2-inside-1_21829_88398)"/>
<path d="M198.901 162.744C201.91 161.006 205.616 161.006 208.624 162.744L226.97 173.348C229.978 175.087 231.831 178.3 231.831 181.778V202.985C231.831 206.462 229.978 209.676 226.97 211.415L208.624 222.018C205.616 223.757 201.91 223.757 198.901 222.018L180.556 211.415C177.548 209.676 175.695 206.462 175.695 202.985V181.778C175.695 178.3 177.548 175.087 180.556 173.348L198.901 162.744Z" stroke="#CFD4FF" stroke-width="2" mask="url(#path-2-inside-1_21829_88398)"/>
<path d="M266.112 162.744C269.121 161.006 272.827 161.006 275.835 162.744L294.181 173.348C297.189 175.087 299.042 178.3 299.042 181.778V202.985C299.042 206.462 297.189 209.676 294.181 211.415L275.835 222.018C272.827 223.757 269.121 223.757 266.112 222.018L247.767 211.415C244.759 209.676 242.906 206.462 242.906 202.985V181.778C242.906 178.3 244.759 175.087 247.767 173.348L266.112 162.744Z" stroke="#CFD4FF" stroke-width="2" mask="url(#path-2-inside-1_21829_88398)"/>
<path d="M333.323 162.744C336.332 161.006 340.038 161.006 343.046 162.744L361.392 173.348C364.4 175.087 366.253 178.3 366.253 181.778V202.985C366.253 206.462 364.4 209.676 361.392 211.415L343.046 222.018C340.038 223.757 336.332 223.757 333.323 222.018L314.978 211.415C311.97 209.676 310.117 206.462 310.117 202.985V181.778C310.117 178.3 311.97 175.087 314.978 173.348L333.323 162.744Z" stroke="#CFD4FF" stroke-width="2" mask="url(#path-2-inside-1_21829_88398)"/>
<path d="M400.471 162.744C403.479 161.006 407.186 161.006 410.194 162.744L428.539 173.348C431.548 175.087 433.401 178.3 433.401 181.778V202.985C433.401 206.462 431.548 209.676 428.539 211.415L410.194 222.018C407.186 223.757 403.479 223.757 400.471 222.018L382.126 211.415C379.117 209.676 377.264 206.462 377.264 202.985V181.778C377.264 178.3 379.117 175.087 382.126 173.348L400.471 162.744Z" stroke="#CFD4FF" stroke-width="2" mask="url(#path-2-inside-1_21829_88398)"/>
<path d="M467.682 162.744C470.69 161.006 474.397 161.006 477.405 162.744L495.75 173.348C498.759 175.087 500.612 178.3 500.612 181.778V202.985C500.612 206.462 498.759 209.676 495.75 211.415L477.405 222.018C474.397 223.757 470.69 223.757 467.682 222.018L449.337 211.415C446.329 209.676 444.475 206.462 444.475 202.985V181.778C444.475 178.3 446.329 175.087 449.337 173.348L467.682 162.744Z" stroke="#CFD4FF" stroke-width="2" mask="url(#path-2-inside-1_21829_88398)"/>
<path d="M972.085 -22.086C975.093 -23.8248 978.8 -23.8248 981.808 -22.086L1000.15 -11.4826C1003.16 -9.74377 1005.01 -6.5303 1005.01 -3.05266V18.1542C1005.01 21.6319 1003.16 24.8453 1000.15 26.5841L981.808 37.1876C978.8 38.9264 975.093 38.9264 972.085 37.1876L953.74 26.5841C950.731 24.8453 948.878 21.6319 948.878 18.1542V-3.05266C948.878 -6.5303 950.731 -9.74377 953.74 -11.4826L972.085 -22.086Z" stroke="#CFD4FF" stroke-width="2" mask="url(#path-2-inside-1_21829_88398)"/>
<path d="M1039.23 -22.086C1042.24 -23.8248 1045.95 -23.8248 1048.96 -22.086L1067.3 -11.4826C1070.31 -9.74377 1072.16 -6.5303 1072.16 -3.05266V18.1542C1072.16 21.6319 1070.31 24.8453 1067.3 26.5841L1048.96 37.1876C1045.95 38.9264 1042.24 38.9264 1039.23 37.1876L1020.89 26.5841C1017.88 24.8453 1016.03 21.6319 1016.03 18.1542V-3.05266C1016.03 -6.5303 1017.88 -9.74377 1020.89 -11.4826L1039.23 -22.086Z" stroke="#CFD4FF" stroke-width="2" mask="url(#path-2-inside-1_21829_88398)"/>
<path d="M1106.44 -22.086C1109.45 -23.8248 1113.16 -23.8248 1116.17 -22.086L1134.51 -11.4826C1137.52 -9.74377 1139.37 -6.5303 1139.37 -3.05266V18.1542C1139.37 21.6319 1137.52 24.8453 1134.51 26.5841L1116.17 37.1876C1113.16 38.9264 1109.45 38.9264 1106.44 37.1876L1088.1 26.5841C1085.09 24.8453 1083.24 21.6319 1083.24 18.1542V-3.05266C1083.24 -6.5303 1085.09 -9.74377 1088.1 -11.4826L1106.44 -22.086Z" stroke="#CFD4FF" stroke-width="2" mask="url(#path-2-inside-1_21829_88398)"/>
<path d="M1173.65 -22.086C1176.66 -23.8248 1180.37 -23.8248 1183.38 -22.086L1201.72 -11.4826C1204.73 -9.74377 1206.58 -6.5303 1206.58 -3.05266V18.1542C1206.58 21.6319 1204.73 24.8453 1201.72 26.5841L1183.38 37.1876C1180.37 38.9264 1176.66 38.9264 1173.65 37.1876L1155.31 26.5841C1152.3 24.8453 1150.45 21.6319 1150.45 18.1542V-3.05266C1150.45 -6.5303 1152.3 -9.74377 1155.31 -11.4826L1173.65 -22.086Z" stroke="#CFD4FF" stroke-width="2" mask="url(#path-2-inside-1_21829_88398)"/>
<path d="M1240.8 -22.086C1243.81 -23.8248 1247.52 -23.8248 1250.53 -22.086L1268.87 -11.4826C1271.88 -9.74377 1273.73 -6.5303 1273.73 -3.05266V18.1542C1273.73 21.6319 1271.88 24.8453 1268.87 26.5841L1250.53 37.1876C1247.52 38.9264 1243.81 38.9264 1240.8 37.1876L1222.46 26.5841C1219.45 24.8453 1217.6 21.6319 1217.6 18.1542V-3.05266C1217.6 -6.5303 1219.45 -9.74377 1222.46 -11.4826L1240.8 -22.086Z" stroke="#CFD4FF" stroke-width="2" mask="url(#path-2-inside-1_21829_88398)"/>
<path d="M1308.01 -22.086C1311.02 -23.8248 1314.73 -23.8248 1317.74 -22.086L1336.08 -11.4826C1339.09 -9.74377 1340.94 -6.5303 1340.94 -3.05266V18.1542C1340.94 21.6319 1339.09 24.8453 1336.08 26.5841L1317.74 37.1876C1314.73 38.9264 1311.02 38.9264 1308.01 37.1876L1289.67 26.5841C1286.66 24.8453 1284.81 21.6319 1284.81 18.1542V-3.05266C1284.81 -6.5303 1286.66 -9.74377 1289.67 -11.4826L1308.01 -22.086Z" stroke="#CFD4FF" stroke-width="2" mask="url(#path-2-inside-1_21829_88398)"/>
<path d="M1005.75 39.5241C1008.76 37.7853 1012.47 37.7853 1015.48 39.5241L1033.82 50.1275C1036.83 51.8664 1038.68 55.0798 1038.68 58.5575V79.7643C1038.68 83.242 1036.83 86.4554 1033.82 88.1943L1015.48 98.7977C1012.47 100.537 1008.76 100.537 1005.75 98.7977L987.409 88.1943C984.4 86.4554 982.547 83.242 982.547 79.7643V58.5574C982.547 55.0798 984.4 51.8664 987.409 50.1275L1005.75 39.5241Z" stroke="#CFD4FF" stroke-width="2" mask="url(#path-2-inside-1_21829_88398)"/>
<path d="M1072.9 39.5241C1075.91 37.7853 1079.62 37.7853 1082.62 39.5241L1100.97 50.1275C1103.98 51.8664 1105.83 55.0798 1105.83 58.5575V79.7643C1105.83 83.242 1103.98 86.4554 1100.97 88.1943L1082.62 98.7977C1079.62 100.537 1075.91 100.537 1072.9 98.7977L1054.56 88.1943C1051.55 86.4554 1049.69 83.242 1049.69 79.7643V58.5574C1049.69 55.0798 1051.55 51.8664 1054.56 50.1275L1072.9 39.5241Z" stroke="#CFD4FF" stroke-width="2" mask="url(#path-2-inside-1_21829_88398)"/>
<path d="M1140.11 39.5241C1143.12 37.7853 1146.83 37.7853 1149.84 39.5241L1168.18 50.1275C1171.19 51.8664 1173.04 55.0798 1173.04 58.5575V79.7643C1173.04 83.242 1171.19 86.4554 1168.18 88.1943L1149.84 98.7977C1146.83 100.537 1143.12 100.537 1140.11 98.7977L1121.77 88.1943C1118.76 86.4554 1116.91 83.242 1116.91 79.7643V58.5574C1116.91 55.0798 1118.76 51.8664 1121.77 50.1275L1140.11 39.5241Z" stroke="#CFD4FF" stroke-width="2" mask="url(#path-2-inside-1_21829_88398)"/>
<path d="M1207.32 39.5241C1210.33 37.7853 1214.04 37.7853 1217.05 39.5241L1235.39 50.1275C1238.4 51.8664 1240.25 55.0798 1240.25 58.5575V79.7643C1240.25 83.242 1238.4 86.4554 1235.39 88.1943L1217.05 98.7977C1214.04 100.537 1210.33 100.537 1207.32 98.7977L1188.98 88.1943C1185.97 86.4554 1184.12 83.242 1184.12 79.7643V58.5574C1184.12 55.0798 1185.97 51.8664 1188.98 50.1275L1207.32 39.5241Z" stroke="#CFD4FF" stroke-width="2" mask="url(#path-2-inside-1_21829_88398)"/>
<path d="M1274.47 39.5241C1277.48 37.7853 1281.19 37.7853 1284.19 39.5241L1302.54 50.1275C1305.55 51.8664 1307.4 55.0798 1307.4 58.5575V79.7643C1307.4 83.242 1305.55 86.4554 1302.54 88.1943L1284.19 98.7977C1281.19 100.537 1277.48 100.537 1274.47 98.7977L1256.13 88.1943C1253.12 86.4554 1251.26 83.242 1251.26 79.7643V58.5574C1251.26 55.0798 1253.12 51.8664 1256.13 50.1275L1274.47 39.5241Z" stroke="#CFD4FF" stroke-width="2" mask="url(#path-2-inside-1_21829_88398)"/>
<path d="M1341.68 39.5241C1344.69 37.7853 1348.4 37.7853 1351.41 39.5241L1369.75 50.1275C1372.76 51.8664 1374.61 55.0798 1374.61 58.5575V79.7643C1374.61 83.242 1372.76 86.4554 1369.75 88.1943L1351.41 98.7977C1348.4 100.537 1344.69 100.537 1341.68 98.7977L1323.34 88.1943C1320.33 86.4554 1318.48 83.242 1318.48 79.7643V58.5574C1318.48 55.0798 1320.33 51.8664 1323.34 50.1275L1341.68 39.5241Z" stroke="#CFD4FF" stroke-width="2" mask="url(#path-2-inside-1_21829_88398)"/>
<path d="M972.085 101.134C975.093 99.3954 978.8 99.3954 981.808 101.134L1000.15 111.738C1003.16 113.476 1005.01 116.69 1005.01 120.168V141.374C1005.01 144.852 1003.16 148.066 1000.15 149.804L981.808 160.408C978.8 162.147 975.093 162.147 972.085 160.408L953.74 149.804C950.731 148.066 948.878 144.852 948.878 141.374V120.168C948.878 116.69 950.731 113.476 953.74 111.738L972.085 101.134Z" stroke="#CFD4FF" stroke-width="2" mask="url(#path-2-inside-1_21829_88398)"/>
<path d="M1039.23 101.134C1042.24 99.3954 1045.95 99.3954 1048.96 101.134L1067.3 111.738C1070.31 113.476 1072.16 116.69 1072.16 120.168V141.374C1072.16 144.852 1070.31 148.066 1067.3 149.804L1048.96 160.408C1045.95 162.147 1042.24 162.147 1039.23 160.408L1020.89 149.804C1017.88 148.066 1016.03 144.852 1016.03 141.374V120.168C1016.03 116.69 1017.88 113.476 1020.89 111.738L1039.23 101.134Z" stroke="#CFD4FF" stroke-width="2" mask="url(#path-2-inside-1_21829_88398)"/>
<path d="M1106.44 101.134C1109.45 99.3954 1113.16 99.3954 1116.17 101.134L1134.51 111.738C1137.52 113.476 1139.37 116.69 1139.37 120.168V141.374C1139.37 144.852 1137.52 148.066 1134.51 149.804L1116.17 160.408C1113.16 162.147 1109.45 162.147 1106.44 160.408L1088.1 149.804C1085.09 148.066 1083.24 144.852 1083.24 141.374V120.168C1083.24 116.69 1085.09 113.476 1088.1 111.738L1106.44 101.134Z" stroke="#CFD4FF" stroke-width="2" mask="url(#path-2-inside-1_21829_88398)"/>
<path d="M1173.65 101.134C1176.66 99.3954 1180.37 99.3954 1183.38 101.134L1201.72 111.738C1204.73 113.476 1206.58 116.69 1206.58 120.168V141.374C1206.58 144.852 1204.73 148.066 1201.72 149.804L1183.38 160.408C1180.37 162.147 1176.66 162.147 1173.65 160.408L1155.31 149.804C1152.3 148.066 1150.45 144.852 1150.45 141.374V120.168C1150.45 116.69 1152.3 113.476 1155.31 111.738L1173.65 101.134Z" stroke="#CFD4FF" stroke-width="2" mask="url(#path-2-inside-1_21829_88398)"/>
<path d="M1240.8 101.134C1243.81 99.3954 1247.52 99.3954 1250.53 101.134L1268.87 111.738C1271.88 113.476 1273.73 116.69 1273.73 120.168V141.374C1273.73 144.852 1271.88 148.066 1268.87 149.804L1250.53 160.408C1247.52 162.147 1243.81 162.147 1240.8 160.408L1222.46 149.804C1219.45 148.066 1217.6 144.852 1217.6 141.374V120.168C1217.6 116.69 1219.45 113.476 1222.46 111.738L1240.8 101.134Z" stroke="#CFD4FF" stroke-width="2" mask="url(#path-2-inside-1_21829_88398)"/>
<path d="M1308.01 101.134C1311.02 99.3954 1314.73 99.3954 1317.74 101.134L1336.08 111.738C1339.09 113.476 1340.94 116.69 1340.94 120.168V141.374C1340.94 144.852 1339.09 148.066 1336.08 149.804L1317.74 160.408C1314.73 162.147 1311.02 162.147 1308.01 160.408L1289.67 149.804C1286.66 148.066 1284.81 144.852 1284.81 141.374V120.168C1284.81 116.69 1286.66 113.476 1289.67 111.738L1308.01 101.134Z" stroke="#CFD4FF" stroke-width="2" mask="url(#path-2-inside-1_21829_88398)"/>
<path d="M1005.75 162.744C1008.76 161.006 1012.47 161.006 1015.48 162.744L1033.82 173.348C1036.83 175.087 1038.68 178.3 1038.68 181.778V202.985C1038.68 206.462 1036.83 209.676 1033.82 211.415L1015.48 222.018C1012.47 223.757 1008.76 223.757 1005.75 222.018L987.409 211.415C984.4 209.676 982.547 206.462 982.547 202.985V181.778C982.547 178.3 984.4 175.087 987.409 173.348L1005.75 162.744Z" stroke="#CFD4FF" stroke-width="2" mask="url(#path-2-inside-1_21829_88398)"/>
<path d="M1072.9 162.744C1075.91 161.006 1079.62 161.006 1082.62 162.744L1100.97 173.348C1103.98 175.087 1105.83 178.3 1105.83 181.778V202.985C1105.83 206.462 1103.98 209.676 1100.97 211.415L1082.62 222.018C1079.62 223.757 1075.91 223.757 1072.9 222.018L1054.56 211.415C1051.55 209.676 1049.69 206.462 1049.69 202.985V181.778C1049.69 178.3 1051.55 175.087 1054.56 173.348L1072.9 162.744Z" stroke="#CFD4FF" stroke-width="2" mask="url(#path-2-inside-1_21829_88398)"/>
<path d="M1140.11 162.744C1143.12 161.006 1146.83 161.006 1149.84 162.744L1168.18 173.348C1171.19 175.087 1173.04 178.3 1173.04 181.778V202.985C1173.04 206.462 1171.19 209.676 1168.18 211.415L1149.84 222.018C1146.83 223.757 1143.12 223.757 1140.11 222.018L1121.77 211.415C1118.76 209.676 1116.91 206.462 1116.91 202.985V181.778C1116.91 178.3 1118.76 175.087 1121.77 173.348L1140.11 162.744Z" stroke="#CFD4FF" stroke-width="2" mask="url(#path-2-inside-1_21829_88398)"/>
<path d="M1207.32 162.744C1210.33 161.006 1214.04 161.006 1217.05 162.744L1235.39 173.348C1238.4 175.087 1240.25 178.3 1240.25 181.778V202.985C1240.25 206.462 1238.4 209.676 1235.39 211.415L1217.05 222.018C1214.04 223.757 1210.33 223.757 1207.32 222.018L1188.98 211.415C1185.97 209.676 1184.12 206.462 1184.12 202.985V181.778C1184.12 178.3 1185.97 175.087 1188.98 173.348L1207.32 162.744Z" stroke="#CFD4FF" stroke-width="2" mask="url(#path-2-inside-1_21829_88398)"/>
<path d="M1274.47 162.744C1277.48 161.006 1281.19 161.006 1284.19 162.744L1302.54 173.348C1305.55 175.087 1307.4 178.3 1307.4 181.778V202.985C1307.4 206.462 1305.55 209.676 1302.54 211.415L1284.19 222.018C1281.19 223.757 1277.48 223.757 1274.47 222.018L1256.13 211.415C1253.12 209.676 1251.26 206.462 1251.26 202.985V181.778C1251.26 178.3 1253.12 175.087 1256.13 173.348L1274.47 162.744Z" stroke="#CFD4FF" stroke-width="2" mask="url(#path-2-inside-1_21829_88398)"/>
<path d="M1341.68 162.744C1344.69 161.006 1348.4 161.006 1351.41 162.744L1369.75 173.348C1372.76 175.087 1374.61 178.3 1374.61 181.778V202.985C1374.61 206.462 1372.76 209.676 1369.75 211.415L1351.41 222.018C1348.4 223.757 1344.69 223.757 1341.68 222.018L1323.34 211.415C1320.33 209.676 1318.48 206.462 1318.48 202.985V181.778C1318.48 178.3 1320.33 175.087 1323.34 173.348L1341.68 162.744Z" stroke="#CFD4FF" stroke-width="2" mask="url(#path-2-inside-1_21829_88398)"/>
<path d="M501.747 -22.086C504.755 -23.8248 508.462 -23.8248 511.47 -22.086L529.815 -11.4826C532.823 -9.74377 534.677 -6.5303 534.677 -3.05266V18.1542C534.677 21.6319 532.823 24.8453 529.815 26.5841L511.47 37.1876C508.462 38.9264 504.755 38.9264 501.747 37.1876L483.402 26.5841C480.393 24.8453 478.54 21.6319 478.54 18.1542V-3.05266C478.54 -6.5303 480.393 -9.74377 483.402 -11.4826L501.747 -22.086Z" stroke="#CFD4FF" stroke-width="2" mask="url(#path-2-inside-1_21829_88398)"/>
<path d="M569.085 -22.086C572.093 -23.8248 575.8 -23.8248 578.808 -22.086L597.153 -11.4826C600.161 -9.74377 602.015 -6.5303 602.015 -3.05266V18.1542C602.015 21.6319 600.161 24.8453 597.153 26.5841L578.808 37.1876C575.8 38.9264 572.093 38.9264 569.085 37.1876L550.74 26.5841C547.731 24.8453 545.878 21.6319 545.878 18.1542V-3.05266C545.878 -6.5303 547.731 -9.74377 550.74 -11.4826L569.085 -22.086Z" stroke="#CFD4FF" stroke-width="2" mask="url(#path-2-inside-1_21829_88398)"/>
<path d="M636.232 -22.086C639.241 -23.8248 642.947 -23.8248 645.955 -22.086L664.301 -11.4826C667.309 -9.74377 669.162 -6.5303 669.162 -3.05266V18.1542C669.162 21.6319 667.309 24.8453 664.301 26.5841L645.955 37.1876C642.947 38.9264 639.241 38.9264 636.232 37.1876L617.887 26.5841C614.879 24.8453 613.026 21.6319 613.026 18.1542V-3.05266C613.026 -6.5303 614.879 -9.74377 617.887 -11.4826L636.232 -22.086Z" stroke="#CFD4FF" stroke-width="2" mask="url(#path-2-inside-1_21829_88398)"/>
<path d="M703.443 -22.086C706.452 -23.8248 710.158 -23.8248 713.167 -22.086L731.512 -11.4826C734.52 -9.74377 736.373 -6.5303 736.373 -3.05266V18.1542C736.373 21.6319 734.52 24.8453 731.512 26.5841L713.167 37.1876C710.158 38.9264 706.452 38.9264 703.443 37.1876L685.098 26.5841C682.09 24.8453 680.237 21.6319 680.237 18.1542V-3.05266C680.237 -6.5303 682.09 -9.74377 685.098 -11.4826L703.443 -22.086Z" stroke="#CFD4FF" stroke-width="2" mask="url(#path-2-inside-1_21829_88398)"/>
<path d="M770.654 -22.086C773.663 -23.8248 777.369 -23.8248 780.378 -22.086L798.723 -11.4826C801.731 -9.74377 803.584 -6.5303 803.584 -3.05266V18.1542C803.584 21.6319 801.731 24.8453 798.723 26.5841L780.378 37.1876C777.369 38.9264 773.663 38.9264 770.654 37.1876L752.309 26.5841C749.301 24.8453 747.448 21.6319 747.448 18.1542V-3.05266C747.448 -6.5303 749.301 -9.74377 752.309 -11.4826L770.654 -22.086Z" stroke="#CFD4FF" stroke-width="2" mask="url(#path-2-inside-1_21829_88398)"/>
<path d="M837.802 -22.086C840.81 -23.8248 844.517 -23.8248 847.525 -22.086L865.87 -11.4826C868.879 -9.74377 870.732 -6.5303 870.732 -3.05266V18.1542C870.732 21.6319 868.879 24.8453 865.87 26.5841L847.525 37.1876C844.517 38.9264 840.81 38.9264 837.802 37.1876L819.457 26.5841C816.449 24.8453 814.595 21.6319 814.595 18.1542V-3.05266C814.595 -6.5303 816.449 -9.74377 819.457 -11.4826L837.802 -22.086Z" stroke="#CFD4FF" stroke-width="2" mask="url(#path-2-inside-1_21829_88398)"/>
<path d="M905.013 -22.086C908.021 -23.8248 911.728 -23.8248 914.736 -22.086L933.081 -11.4826C936.09 -9.74377 937.943 -6.5303 937.943 -3.05266V18.1542C937.943 21.6319 936.09 24.8453 933.081 26.5841L914.736 37.1876C911.728 38.9264 908.021 38.9264 905.013 37.1876L886.668 26.5841C883.66 24.8453 881.806 21.6319 881.806 18.1542V-3.05266C881.806 -6.5303 883.66 -9.74377 886.668 -11.4826L905.013 -22.086Z" stroke="#CFD4FF" stroke-width="2" mask="url(#path-2-inside-1_21829_88398)"/>
<path d="M535.416 39.5241C538.424 37.7853 542.131 37.7853 545.139 39.5241L563.484 50.1275C566.492 51.8664 568.346 55.0798 568.346 58.5575V79.7643C568.346 83.242 566.492 86.4554 563.484 88.1943L545.139 98.7977C542.131 100.537 538.424 100.537 535.416 98.7977L517.071 88.1943C514.062 86.4554 512.209 83.242 512.209 79.7643V58.5574C512.209 55.0798 514.062 51.8664 517.071 50.1275L535.416 39.5241Z" stroke="#CFD4FF" stroke-width="2" mask="url(#path-2-inside-1_21829_88398)"/>
<path d="M602.754 39.5241C605.762 37.7853 609.468 37.7853 612.477 39.5241L630.822 50.1275C633.83 51.8664 635.683 55.0798 635.683 58.5575V79.7643C635.683 83.242 633.83 86.4554 630.822 88.1943L612.477 98.7977C609.468 100.537 605.762 100.537 602.754 98.7977L584.409 88.1943C581.4 86.4554 579.547 83.242 579.547 79.7643V58.5574C579.547 55.0798 581.4 51.8664 584.409 50.1275L602.754 39.5241Z" stroke="#CFD4FF" stroke-width="2" mask="url(#path-2-inside-1_21829_88398)"/>
<path d="M669.901 39.5241C672.91 37.7853 676.616 37.7853 679.624 39.5241L697.97 50.1275C700.978 51.8664 702.831 55.0798 702.831 58.5575V79.7643C702.831 83.242 700.978 86.4554 697.97 88.1943L679.624 98.7977C676.616 100.537 672.91 100.537 669.901 98.7977L651.556 88.1943C648.548 86.4554 646.695 83.242 646.695 79.7643V58.5574C646.695 55.0798 648.548 51.8664 651.556 50.1275L669.901 39.5241Z" stroke="#CFD4FF" stroke-width="2" mask="url(#path-2-inside-1_21829_88398)"/>
<path d="M737.112 39.5241C740.121 37.7853 743.827 37.7853 746.835 39.5241L765.181 50.1275C768.189 51.8664 770.042 55.0798 770.042 58.5575V79.7643C770.042 83.242 768.189 86.4554 765.181 88.1943L746.835 98.7977C743.827 100.537 740.121 100.537 737.112 98.7977L718.767 88.1943C715.759 86.4554 713.906 83.242 713.906 79.7643V58.5574C713.906 55.0798 715.759 51.8664 718.767 50.1275L737.112 39.5241Z" stroke="#CFD4FF" stroke-width="2" mask="url(#path-2-inside-1_21829_88398)"/>
<path d="M804.323 39.5241C807.332 37.7853 811.038 37.7853 814.046 39.5241L832.392 50.1275C835.4 51.8664 837.253 55.0798 837.253 58.5575V79.7643C837.253 83.242 835.4 86.4554 832.392 88.1943L814.046 98.7977C811.038 100.537 807.332 100.537 804.323 98.7977L785.978 88.1943C782.97 86.4554 781.117 83.242 781.117 79.7643V58.5574C781.117 55.0798 782.97 51.8664 785.978 50.1275L804.323 39.5241Z" stroke="#CFD4FF" stroke-width="2" mask="url(#path-2-inside-1_21829_88398)"/>
<path d="M871.471 39.5241C874.479 37.7853 878.186 37.7853 881.194 39.5241L899.539 50.1275C902.548 51.8664 904.401 55.0798 904.401 58.5575V79.7643C904.401 83.242 902.548 86.4554 899.539 88.1943L881.194 98.7977C878.186 100.537 874.479 100.537 871.471 98.7977L853.126 88.1943C850.117 86.4554 848.264 83.242 848.264 79.7643V58.5574C848.264 55.0798 850.117 51.8664 853.126 50.1275L871.471 39.5241Z" stroke="#CFD4FF" stroke-width="2" mask="url(#path-2-inside-1_21829_88398)"/>
<path d="M938.682 39.5241C941.69 37.7853 945.397 37.7853 948.405 39.5241L966.75 50.1275C969.759 51.8664 971.612 55.0798 971.612 58.5575V79.7643C971.612 83.242 969.759 86.4554 966.75 88.1943L948.405 98.7977C945.397 100.537 941.69 100.537 938.682 98.7977L920.337 88.1943C917.329 86.4554 915.475 83.242 915.475 79.7643V58.5574C915.475 55.0798 917.329 51.8664 920.337 50.1275L938.682 39.5241Z" stroke="#CFD4FF" stroke-width="2" mask="url(#path-2-inside-1_21829_88398)"/>
<path d="M501.747 101.134C504.755 99.3954 508.462 99.3954 511.47 101.134L529.815 111.738C532.823 113.476 534.677 116.69 534.677 120.168V141.374C534.677 144.852 532.823 148.066 529.815 149.804L511.47 160.408C508.462 162.147 504.755 162.147 501.747 160.408L483.402 149.804C480.393 148.066 478.54 144.852 478.54 141.374V120.168C478.54 116.69 480.393 113.476 483.402 111.738L501.747 101.134Z" stroke="#CFD4FF" stroke-width="2" mask="url(#path-2-inside-1_21829_88398)"/>
<path d="M569.085 101.134C572.093 99.3954 575.8 99.3954 578.808 101.134L597.153 111.738C600.161 113.476 602.015 116.69 602.015 120.168V141.374C602.015 144.852 600.161 148.066 597.153 149.804L578.808 160.408C575.8 162.147 572.093 162.147 569.085 160.408L550.74 149.804C547.731 148.066 545.878 144.852 545.878 141.374V120.168C545.878 116.69 547.731 113.476 550.74 111.738L569.085 101.134Z" stroke="#CFD4FF" stroke-width="2" mask="url(#path-2-inside-1_21829_88398)"/>
<path d="M636.232 101.134C639.241 99.3954 642.947 99.3954 645.955 101.134L664.301 111.738C667.309 113.476 669.162 116.69 669.162 120.168V141.374C669.162 144.852 667.309 148.066 664.301 149.804L645.955 160.408C642.947 162.147 639.241 162.147 636.232 160.408L617.887 149.804C614.879 148.066 613.026 144.852 613.026 141.374V120.168C613.026 116.69 614.879 113.476 617.887 111.738L636.232 101.134Z" stroke="#CFD4FF" stroke-width="2" mask="url(#path-2-inside-1_21829_88398)"/>
<path d="M703.443 101.134C706.452 99.3954 710.158 99.3954 713.167 101.134L731.512 111.738C734.52 113.476 736.373 116.69 736.373 120.168V141.374C736.373 144.852 734.52 148.066 731.512 149.804L713.167 160.408C710.158 162.147 706.452 162.147 703.443 160.408L685.098 149.804C682.09 148.066 680.237 144.852 680.237 141.374V120.168C680.237 116.69 682.09 113.476 685.098 111.738L703.443 101.134Z" stroke="#CFD4FF" stroke-width="2" mask="url(#path-2-inside-1_21829_88398)"/>
<path d="M770.654 101.134C773.663 99.3954 777.369 99.3954 780.378 101.134L798.723 111.738C801.731 113.476 803.584 116.69 803.584 120.168V141.374C803.584 144.852 801.731 148.066 798.723 149.804L780.378 160.408C777.369 162.147 773.663 162.147 770.654 160.408L752.309 149.804C749.301 148.066 747.448 144.852 747.448 141.374V120.168C747.448 116.69 749.301 113.476 752.309 111.738L770.654 101.134Z" stroke="#CFD4FF" stroke-width="2" mask="url(#path-2-inside-1_21829_88398)"/>
<path d="M837.802 101.134C840.81 99.3954 844.517 99.3954 847.525 101.134L865.87 111.738C868.879 113.476 870.732 116.69 870.732 120.168V141.374C870.732 144.852 868.879 148.066 865.87 149.804L847.525 160.408C844.517 162.147 840.81 162.147 837.802 160.408L819.457 149.804C816.449 148.066 814.595 144.852 814.595 141.374V120.168C814.595 116.69 816.449 113.476 819.457 111.738L837.802 101.134Z" stroke="#CFD4FF" stroke-width="2" mask="url(#path-2-inside-1_21829_88398)"/>
<path d="M905.013 101.134C908.021 99.3954 911.728 99.3954 914.736 101.134L933.081 111.738C936.09 113.476 937.943 116.69 937.943 120.168V141.374C937.943 144.852 936.09 148.066 933.081 149.804L914.736 160.408C911.728 162.147 908.021 162.147 905.013 160.408L886.668 149.804C883.66 148.066 881.806 144.852 881.806 141.374V120.168C881.806 116.69 883.66 113.476 886.668 111.738L905.013 101.134Z" stroke="#CFD4FF" stroke-width="2" mask="url(#path-2-inside-1_21829_88398)"/>
<path d="M535.416 162.744C538.424 161.006 542.131 161.006 545.139 162.744L563.484 173.348C566.492 175.087 568.346 178.3 568.346 181.778V202.985C568.346 206.462 566.492 209.676 563.484 211.415L545.139 222.018C542.131 223.757 538.424 223.757 535.416 222.018L517.071 211.415C514.062 209.676 512.209 206.462 512.209 202.985V181.778C512.209 178.3 514.062 175.087 517.071 173.348L535.416 162.744Z" stroke="#CFD4FF" stroke-width="2" mask="url(#path-2-inside-1_21829_88398)"/>
<path d="M602.754 162.744C605.762 161.006 609.468 161.006 612.477 162.744L630.822 173.348C633.83 175.087 635.683 178.3 635.683 181.778V202.985C635.683 206.462 633.83 209.676 630.822 211.415L612.477 222.018C609.468 223.757 605.762 223.757 602.754 222.018L584.409 211.415C581.4 209.676 579.547 206.462 579.547 202.985V181.778C579.547 178.3 581.4 175.087 584.409 173.348L602.754 162.744Z" stroke="#CFD4FF" stroke-width="2" mask="url(#path-2-inside-1_21829_88398)"/>
<path d="M669.901 162.744C672.91 161.006 676.616 161.006 679.624 162.744L697.97 173.348C700.978 175.087 702.831 178.3 702.831 181.778V202.985C702.831 206.462 700.978 209.676 697.97 211.415L679.624 222.018C676.616 223.757 672.91 223.757 669.901 222.018L651.556 211.415C648.548 209.676 646.695 206.462 646.695 202.985V181.778C646.695 178.3 648.548 175.087 651.556 173.348L669.901 162.744Z" stroke="#CFD4FF" stroke-width="2" mask="url(#path-2-inside-1_21829_88398)"/>
<path d="M737.112 162.744C740.121 161.006 743.827 161.006 746.835 162.744L765.181 173.348C768.189 175.087 770.042 178.3 770.042 181.778V202.985C770.042 206.462 768.189 209.676 765.181 211.415L746.835 222.018C743.827 223.757 740.121 223.757 737.112 222.018L718.767 211.415C715.759 209.676 713.906 206.462 713.906 202.985V181.778C713.906 178.3 715.759 175.087 718.767 173.348L737.112 162.744Z" stroke="#CFD4FF" stroke-width="2" mask="url(#path-2-inside-1_21829_88398)"/>
<path d="M804.323 162.744C807.332 161.006 811.038 161.006 814.046 162.744L832.392 173.348C835.4 175.087 837.253 178.3 837.253 181.778V202.985C837.253 206.462 835.4 209.676 832.392 211.415L814.046 222.018C811.038 223.757 807.332 223.757 804.323 222.018L785.978 211.415C782.97 209.676 781.117 206.462 781.117 202.985V181.778C781.117 178.3 782.97 175.087 785.978 173.348L804.323 162.744Z" stroke="#CFD4FF" stroke-width="2" mask="url(#path-2-inside-1_21829_88398)"/>
<path d="M871.471 162.744C874.479 161.006 878.186 161.006 881.194 162.744L899.539 173.348C902.548 175.087 904.401 178.3 904.401 181.778V202.985C904.401 206.462 902.548 209.676 899.539 211.415L881.194 222.018C878.186 223.757 874.479 223.757 871.471 222.018L853.126 211.415C850.117 209.676 848.264 206.462 848.264 202.985V181.778C848.264 178.3 850.117 175.087 853.126 173.348L871.471 162.744Z" stroke="#CFD4FF" stroke-width="2" mask="url(#path-2-inside-1_21829_88398)"/>
<path d="M938.682 162.744C941.69 161.006 945.397 161.006 948.405 162.744L966.75 173.348C969.759 175.087 971.612 178.3 971.612 181.778V202.985C971.612 206.462 969.759 209.676 966.75 211.415L948.405 222.018C945.397 223.757 941.69 223.757 938.682 222.018L920.337 211.415C917.329 209.676 915.475 206.462 915.475 202.985V181.778C915.475 178.3 917.329 175.087 920.337 173.348L938.682 162.744Z" stroke="#CFD4FF" stroke-width="2" mask="url(#path-2-inside-1_21829_88398)"/>
<path d="M99.4689 112.812C101.345 111.729 103.655 111.729 105.531 112.812L116.969 119.416C118.845 120.499 120 122.5 120 124.666V137.873C120 140.039 118.845 142.04 116.969 143.123L105.531 149.727C103.655 150.81 101.345 150.81 99.4689 149.727L88.0311 143.123C86.1554 142.04 85 140.039 85 137.873V124.666C85 122.5 86.1554 120.499 88.0311 119.416L99.4689 112.812Z" fill="#E6E8F9"/>
<path d="M1040.47 112.812C1042.35 111.729 1044.66 111.729 1046.53 112.812L1057.97 119.416C1059.85 120.499 1061 122.5 1061 124.666V137.873C1061 140.039 1059.85 142.04 1057.97 143.123L1046.53 149.727C1044.66 150.81 1042.35 150.81 1040.47 149.727L1029.03 143.123C1027.16 142.04 1026 140.039 1026 137.873V124.666C1026 122.5 1027.16 120.499 1029.03 119.416L1040.47 112.812Z" fill="#E6E8F9"/>
<path d="M805.469 50.8122C807.345 49.7293 809.656 49.7293 811.532 50.8122L822.969 57.4158C824.845 58.4987 826 60.5 826 62.6658V75.8731C826 78.0389 824.845 80.0402 822.969 81.1231L811.532 87.7267C809.656 88.8096 807.345 88.8096 805.469 87.7267L794.032 81.1231C792.156 80.0402 791 78.0389 791 75.8731V62.6658C791 60.5 792.156 58.4987 794.032 57.4158L805.469 50.8122Z" fill="#E2E2F9"/>
<path d="M570.469 -11.1878C572.345 -12.2707 574.656 -12.2707 576.532 -11.1878L587.969 -4.58419C589.845 -3.50128 591 -1.49999 591 0.665819V13.8731C591 16.0389 589.845 18.0402 587.969 19.1231L576.532 25.7267C574.656 26.8096 572.345 26.8096 570.469 25.7267L559.032 19.1231C557.156 18.0402 556 16.0389 556 13.8731V0.665818C556 -1.49999 557.156 -3.50128 559.032 -4.58419L570.469 -11.1878Z" fill="#E5E8FF"/>
<path d="M200.469 50.8123C202.345 49.7294 204.655 49.7294 206.531 50.8123L217.969 57.4159C219.845 58.4988 221 60.5001 221 62.6659V75.8732C221 78.039 219.845 80.0403 217.969 81.1232L206.531 87.7268C204.655 88.8097 202.345 88.8097 200.469 87.7268L189.031 81.1232C187.155 80.0403 186 78.039 186 75.8732V62.6659C186 60.5001 187.155 58.4988 189.031 57.4159L200.469 50.8123Z" fill="#E6E8F9"/>
<path d="M1141.47 50.8122C1143.35 49.7293 1145.66 49.7293 1147.53 50.8122L1158.97 57.4158C1160.85 58.4987 1162 60.5 1162 62.6658V75.8731C1162 78.0389 1160.85 80.0402 1158.97 81.1231L1147.53 87.7267C1145.66 88.8096 1143.35 88.8096 1141.47 87.7267L1130.03 81.1231C1128.16 80.0402 1127 78.0389 1127 75.8731V62.6658C1127 60.5 1128.16 58.4987 1130.03 57.4158L1141.47 50.8122Z" fill="#E6E8F9"/>
<path d="M32.4689 -10.1877C34.3446 -11.2706 36.6554 -11.2706 38.5311 -10.1877L49.9689 -3.58411C51.8446 -2.50121 53 -0.499914 53 1.6659V14.8732C53 17.039 51.8446 19.0403 49.9689 20.1232L38.5311 26.7268C36.6554 27.8097 34.3446 27.8097 32.4689 26.7268L21.0311 20.1232C19.1554 19.0403 18 17.039 18 14.8732V1.66589C18 -0.499915 19.1554 -2.50121 21.0311 -3.58411L32.4689 -10.1877Z" fill="#E6E8F9"/>
<path d="M973.469 -10.1878C975.345 -11.2707 977.656 -11.2707 979.532 -10.1878L990.969 -3.58419C992.845 -2.50128 994 -0.499991 994 1.66582V14.8731C994 17.0389 992.845 19.0402 990.969 20.1231L979.532 26.7267C977.656 27.8096 975.345 27.8096 973.469 26.7267L962.032 20.1231C960.156 19.0402 959 17.0389 959 14.8731V1.66582C959 -0.499991 960.156 -2.50128 962.032 -3.58419L973.469 -10.1878Z" fill="#E6E8F9"/>
<path d="M301.469 112.812C303.345 111.729 305.655 111.729 307.531 112.812L318.969 119.416C320.845 120.499 322 122.5 322 124.666V137.873C322 140.039 320.845 142.04 318.969 143.123L307.531 149.727C305.655 150.81 303.345 150.81 301.469 149.727L290.031 143.123C288.155 142.04 287 140.039 287 137.873V124.666C287 122.5 288.155 120.499 290.031 119.416L301.469 112.812Z" fill="#E6E8F9"/>
<path d="M1242.47 112.812C1244.35 111.729 1246.66 111.729 1248.53 112.812L1259.97 119.416C1261.85 120.499 1263 122.5 1263 124.666V137.873C1263 140.039 1261.85 142.04 1259.97 143.123L1248.53 149.727C1246.66 150.81 1244.35 150.81 1242.47 149.727L1231.03 143.123C1229.16 142.04 1228 140.039 1228 137.873V124.666C1228 122.5 1229.16 120.499 1231.03 119.416L1242.47 112.812Z" fill="#E6E8F9"/>
<path d="M402.469 172.812C404.345 171.729 406.655 171.729 408.531 172.812L419.969 179.416C421.845 180.499 423 182.5 423 184.666V197.873C423 200.039 421.845 202.04 419.969 203.123L408.531 209.727C406.655 210.81 404.345 210.81 402.469 209.727L391.031 203.123C389.155 202.04 388 200.039 388 197.873V184.666C388 182.5 389.155 180.499 391.031 179.416L402.469 172.812Z" fill="#E6E8F9"/>
<path d="M1343.47 172.812C1345.35 171.729 1347.66 171.729 1349.53 172.812L1360.97 179.416C1362.85 180.499 1364 182.5 1364 184.666V197.873C1364 200.039 1362.85 202.04 1360.97 203.123L1349.53 209.727C1347.66 210.81 1345.35 210.81 1343.47 209.727L1332.03 203.123C1330.16 202.04 1329 200.039 1329 197.873V184.666C1329 182.5 1330.16 180.499 1332.03 179.416L1343.47 172.812Z" fill="#E6E8F9"/>
<path d="M301.469 -10.1877C303.345 -11.2706 305.655 -11.2706 307.531 -10.1877L318.969 -3.58411C320.845 -2.50121 322 -0.499914 322 1.6659V14.8732C322 17.039 320.845 19.0403 318.969 20.1232L307.531 26.7268C305.655 27.8097 303.345 27.8097 301.469 26.7268L290.031 20.1232C288.155 19.0403 287 17.039 287 14.8732V1.66589C287 -0.499915 288.155 -2.50121 290.031 -3.58411L301.469 -10.1877Z" fill="#E6E8F9"/>
<path d="M1242.47 -10.1878C1244.35 -11.2707 1246.66 -11.2707 1248.53 -10.1878L1259.97 -3.58419C1261.85 -2.50128 1263 -0.499991 1263 1.66582V14.8731C1263 17.0389 1261.85 19.0402 1259.97 20.1231L1248.53 26.7267C1246.66 27.8096 1244.35 27.8096 1242.47 26.7267L1231.03 20.1231C1229.16 19.0402 1228 17.0389 1228 14.8731V1.66582C1228 -0.499991 1229.16 -2.50128 1231.03 -3.58419L1242.47 -10.1878Z" fill="#E6E8F9"/>
<path d="M637.469 112.812C639.345 111.729 641.656 111.729 643.532 112.812L654.969 119.416C656.845 120.499 658 122.5 658 124.666V137.873C658 140.039 656.845 142.04 654.969 143.123L643.532 149.727C641.656 150.81 639.345 150.81 637.469 149.727L626.032 143.123C624.156 142.04 623 140.039 623 137.873V124.666C623 122.5 624.156 120.499 626.032 119.416L637.469 112.812Z" fill="#E6E8F9"/>
<path d="M637.469 112.812C639.345 111.729 641.656 111.729 643.532 112.812L654.969 119.416C656.845 120.499 658 122.5 658 124.666V137.873C658 140.039 656.845 142.04 654.969 143.123L643.532 149.727C641.656 150.81 639.345 150.81 637.469 149.727L626.032 143.123C624.156 142.04 623 140.039 623 137.873V124.666C623 122.5 624.156 120.499 626.032 119.416L637.469 112.812Z" fill="#E6E8F9"/>
<path d="M739.469 172.812C741.345 171.729 743.656 171.729 745.532 172.812L756.969 179.416C758.845 180.499 760 182.5 760 184.666V197.873C760 200.039 758.845 202.04 756.969 203.123L745.532 209.727C743.656 210.81 741.345 210.81 739.469 209.727L728.032 203.123C726.156 202.04 725 200.039 725 197.873V184.666C725 182.5 726.156 180.499 728.032 179.416L739.469 172.812Z" fill="#E5E8FF"/>
<path d="M362.578 141H372.488C374.552 141 376.324 140.6 377.806 139.799C379.294 138.998 380.435 137.849 381.228 136.352C382.029 134.854 382.429 133.064 382.429 130.98C382.429 128.904 382.029 127.12 381.228 125.629C380.435 124.138 379.3 122.995 377.826 122.201C376.351 121.4 374.591 121 372.548 121H368.143C366.565 121 365.286 122.279 365.286 123.857V133.8C365.286 134.398 365.979 134.731 366.446 134.357L371.157 130.589C371.578 130.252 371.34 129.571 370.8 129.571H370.153C369.837 129.571 369.581 129.316 369.581 129V126.052C369.581 125.263 370.221 124.623 371.01 124.623H372.32C373.589 124.623 374.658 124.844 375.524 125.287C376.39 125.73 377.042 126.42 377.478 127.357C377.921 128.295 378.143 129.503 378.143 130.98C378.143 132.471 377.921 133.689 377.478 134.633C377.042 135.57 376.387 136.264 375.514 136.713C374.648 137.156 373.579 137.377 372.31 137.377H369.572L365.489 137.426C365.358 137.428 365.231 137.474 365.13 137.559L362.213 139.99C361.802 140.332 362.044 141 362.578 141Z" fill="#DFDFFA"/>
<path d="M125.578 78H135.488C137.552 78 139.324 77.5996 140.806 76.7988C142.294 75.998 143.435 74.849 144.228 73.3516C145.029 71.8542 145.429 70.0638 145.429 67.9805C145.429 65.9036 145.029 64.1198 144.228 62.6289C143.435 61.138 142.3 59.9954 140.826 59.2012C139.351 58.4004 137.591 58 135.548 58H131.143C129.565 58 128.286 59.2792 128.286 60.8571V70.7996C128.286 71.3985 128.979 71.7315 129.446 71.3573L134.157 67.5891C134.578 67.2516 134.34 66.5714 133.8 66.5714H133.153C132.837 66.5714 132.581 66.3156 132.581 66V63.0516C132.581 62.2626 133.221 61.623 134.01 61.623H135.32C136.589 61.623 137.658 61.8444 138.524 62.2871C139.39 62.7298 140.042 63.4199 140.478 64.3574C140.921 65.2949 141.143 66.5026 141.143 67.9805C141.143 69.4714 140.921 70.6888 140.478 71.6328C140.042 72.5703 139.387 73.2637 138.514 73.7129C137.648 74.1556 136.579 74.377 135.31 74.377H132.572L128.489 74.4261C128.358 74.4277 128.231 74.4745 128.13 74.5585L125.213 76.9896C124.802 77.3317 125.044 78 125.578 78Z" fill="#DFDFFA"/>
<path d="M1168.58 140H1178.49C1180.55 140 1182.32 139.6 1183.81 138.799C1185.29 137.998 1186.43 136.849 1187.23 135.352C1188.03 133.854 1188.43 132.064 1188.43 129.98C1188.43 127.904 1188.03 126.12 1187.23 124.629C1186.43 123.138 1185.3 121.995 1183.83 121.201C1182.35 120.4 1180.59 120 1178.55 120H1174.14C1172.56 120 1171.29 121.279 1171.29 122.857V132.8C1171.29 133.398 1171.98 133.731 1172.45 133.357L1177.16 129.589C1177.58 129.252 1177.34 128.571 1176.8 128.571H1176.15C1175.84 128.571 1175.58 128.316 1175.58 128V125.052C1175.58 124.263 1176.22 123.623 1177.01 123.623H1178.32C1179.59 123.623 1180.66 123.844 1181.52 124.287C1182.39 124.73 1183.04 125.42 1183.48 126.357C1183.92 127.295 1184.14 128.503 1184.14 129.98C1184.14 131.471 1183.92 132.689 1183.48 133.633C1183.04 134.57 1182.39 135.264 1181.51 135.713C1180.65 136.156 1179.58 136.377 1178.31 136.377H1175.57L1171.49 136.426C1171.36 136.428 1171.23 136.474 1171.13 136.559L1168.21 138.99C1167.8 139.332 1168.04 140 1168.58 140Z" fill="#DFDFFA"/>
<path d="M1000.58 79H1010.49C1012.55 79 1014.32 78.5996 1015.81 77.7988C1017.29 76.998 1018.43 75.849 1019.23 74.3516C1020.03 72.8542 1020.43 71.0638 1020.43 68.9805C1020.43 66.9036 1020.03 65.1198 1019.23 63.6289C1018.43 62.138 1017.3 60.9954 1015.83 60.2012C1014.35 59.4004 1012.59 59 1010.55 59H1006.14C1004.56 59 1003.29 60.2792 1003.29 61.8571V71.7996C1003.29 72.3985 1003.98 72.7315 1004.45 72.3573L1009.16 68.5891C1009.58 68.2516 1009.34 67.5714 1008.8 67.5714H1008.15C1007.84 67.5714 1007.58 67.3156 1007.58 67V64.0516C1007.58 63.2626 1008.22 62.623 1009.01 62.623H1010.32C1011.59 62.623 1012.66 62.8444 1013.52 63.2871C1014.39 63.7298 1015.04 64.4199 1015.48 65.3574C1015.92 66.2949 1016.14 67.5026 1016.14 68.9805C1016.14 70.4714 1015.92 71.6888 1015.48 72.6328C1015.04 73.5703 1014.39 74.2637 1013.51 74.7129C1012.65 75.1556 1011.58 75.377 1010.31 75.377H1007.57L1003.49 75.4261C1003.36 75.4277 1003.23 75.4745 1003.13 75.5585L1000.21 77.9896C999.802 78.3317 1000.04 79 1000.58 79Z" fill="#DFDFFA"/>
<path d="M832.578 141H842.488C844.552 141 846.324 140.6 847.806 139.799C849.294 138.998 850.435 137.849 851.228 136.352C852.029 134.854 852.429 133.064 852.429 130.98C852.429 128.904 852.029 127.12 851.228 125.629C850.435 124.138 849.3 122.995 847.826 122.201C846.351 121.4 844.591 121 842.548 121H838.143C836.565 121 835.286 122.279 835.286 123.857V133.8C835.286 134.398 835.979 134.731 836.446 134.357L841.157 130.589C841.578 130.252 841.34 129.571 840.8 129.571H840.153C839.837 129.571 839.581 129.316 839.581 129V126.052C839.581 125.263 840.221 124.623 841.01 124.623H842.32C843.589 124.623 844.658 124.844 845.524 125.287C846.39 125.73 847.042 126.42 847.478 127.357C847.921 128.295 848.143 129.503 848.143 130.98C848.143 132.471 847.921 133.689 847.478 134.633C847.042 135.57 846.387 136.264 845.514 136.713C844.648 137.156 843.579 137.377 842.31 137.377H839.572L835.489 137.426C835.358 137.428 835.231 137.474 835.13 137.559L832.213 139.99C831.802 140.332 832.044 141 832.578 141Z" fill="#CFD4FF"/>
<path d="M596.578 79H606.488C608.552 79 610.324 78.5996 611.806 77.7988C613.294 76.998 614.435 75.849 615.228 74.3516C616.029 72.8542 616.429 71.0638 616.429 68.9805C616.429 66.9036 616.029 65.1198 615.228 63.6289C614.435 62.138 613.3 60.9954 611.826 60.2012C610.351 59.4004 608.591 59 606.548 59H602.143C600.565 59 599.286 60.2792 599.286 61.8571V71.7996C599.286 72.3985 599.979 72.7315 600.446 72.3573L605.157 68.5891C605.578 68.2516 605.34 67.5714 604.8 67.5714H604.153C603.837 67.5714 603.581 67.3156 603.581 67V64.0516C603.581 63.2626 604.221 62.623 605.01 62.623H606.32C607.589 62.623 608.658 62.8444 609.524 63.2871C610.39 63.7298 611.042 64.4199 611.478 65.3574C611.921 66.2949 612.143 67.5026 612.143 68.9805C612.143 70.4714 611.921 71.6888 611.478 72.6328C611.042 73.5703 610.387 74.2637 609.514 74.7129C608.648 75.1556 607.579 75.377 606.31 75.377H603.572L599.489 75.4261C599.357 75.4277 599.231 75.4745 599.13 75.5585L596.213 77.9896C595.802 78.3317 596.044 79 596.578 79Z" fill="#CFD4FF"/>
</g>
<defs>
<filter id="filter0_b_21829_88398" x="-14" y="-14" width="1404" height="228" filterUnits="userSpaceOnUse" color-interpolation-filters="sRGB">
<feFlood flood-opacity="0" result="BackgroundImageFix"/>
<feGaussianBlur in="BackgroundImageFix" stdDeviation="7"/>
<feComposite in2="SourceAlpha" operator="in" result="effect1_backgroundBlur_21829_88398"/>
<feBlend mode="normal" in="SourceGraphic" in2="effect1_backgroundBlur_21829_88398" result="shape"/>
</filter>
<clipPath id="clip0_21829_88398">
<rect width="1376" height="200" fill="white"/>
</clipPath>
</defs>
</svg>
