<svg viewBox="0 0 1376 200" fill="none" xmlns="http://www.w3.org/2000/svg" preserveAspectRatio="xMinYMin slice"><g clip-path="url(#clip0_15644_89976)"><g filter="url(#filter0_b_15644_89976)"><path d="M0 0h1376v200H0V0Z" fill="url(#paint0_linear_15644_89976)"/></g><path d="M99.469 112.812a6.062 6.062 0 0 1 6.062 0l11.438 6.604a6.061 6.061 0 0 1 3.031 5.25v13.207a6.061 6.061 0 0 1-3.031 5.25l-11.438 6.604a6.062 6.062 0 0 1-6.062 0l-11.438-6.604a6.062 6.062 0 0 1-3.031-5.25v-13.207a6.062 6.062 0 0 1 3.031-5.25l11.438-6.604Z" fill="#C1C7FB"/><path d="M1040.47 112.812a6.058 6.058 0 0 1 6.06 0l11.44 6.604a6.073 6.073 0 0 1 3.03 5.25v13.207a6.073 6.073 0 0 1-3.03 5.25l-11.44 6.604a6.058 6.058 0 0 1-6.06 0l-11.44-6.604a6.073 6.073 0 0 1-3.03-5.25v-13.207a6.073 6.073 0 0 1 3.03-5.25l11.44-6.604Z" fill="#ECE2F1"/><path d="M805.469 50.812a6.062 6.062 0 0 1 6.062 0l11.438 6.604a6.061 6.061 0 0 1 3.031 5.25v13.207a6.061 6.061 0 0 1-3.031 5.25l-11.438 6.604a6.062 6.062 0 0 1-6.062 0l-11.438-6.604a6.061 6.061 0 0 1-3.031-5.25V62.666a6.061 6.061 0 0 1 3.031-5.25l11.438-6.604Z" fill="#E2E2F9"/><path d="M570.469-11.188a6.062 6.062 0 0 1 6.062 0l11.438 6.604A6.061 6.061 0 0 1 591 .666v13.207a6.061 6.061 0 0 1-3.031 5.25l-11.438 6.604a6.062 6.062 0 0 1-6.062 0l-11.438-6.604a6.061 6.061 0 0 1-3.031-5.25V.666a6.061 6.061 0 0 1 3.031-5.25l11.438-6.604Z" fill="#E6E8F9"/><path d="M200.469 50.812a6.062 6.062 0 0 1 6.062 0l11.438 6.604a6.061 6.061 0 0 1 3.031 5.25v13.207a6.061 6.061 0 0 1-3.031 5.25l-11.438 6.604a6.062 6.062 0 0 1-6.062 0l-11.438-6.604a6.061 6.061 0 0 1-3.031-5.25V62.666a6.061 6.061 0 0 1 3.031-5.25l11.438-6.604Z" fill="#C1C7FB"/><path d="M1141.47 50.812a6.058 6.058 0 0 1 6.06 0l11.44 6.604a6.073 6.073 0 0 1 3.03 5.25v13.207a6.073 6.073 0 0 1-3.03 5.25l-11.44 6.604a6.058 6.058 0 0 1-6.06 0l-11.44-6.604a6.073 6.073 0 0 1-3.03-5.25V62.666a6.073 6.073 0 0 1 3.03-5.25l11.44-6.604Z" fill="#EAD8E1"/><path d="M32.469-10.188a6.062 6.062 0 0 1 6.062 0L49.97-3.584A6.062 6.062 0 0 1 53 1.666v13.207a6.062 6.062 0 0 1-3.031 5.25L38.53 26.727a6.062 6.062 0 0 1-6.062 0L21.03 20.123a6.062 6.062 0 0 1-3.03-5.25V1.666a6.062 6.062 0 0 1 3.031-5.25l11.438-6.604Z" fill="#C1C7FB"/><path d="M973.469-10.188a6.062 6.062 0 0 1 6.062 0l11.438 6.604A6.061 6.061 0 0 1 994 1.666v13.207a6.061 6.061 0 0 1-3.031 5.25l-11.438 6.604a6.062 6.062 0 0 1-6.062 0l-11.438-6.604a6.061 6.061 0 0 1-3.031-5.25V1.666a6.061 6.061 0 0 1 3.031-5.25l11.438-6.604Z" fill="#ECE2F1"/><path d="M301.469 112.812a6.061 6.061 0 0 1 6.062 0l11.438 6.604a6.061 6.061 0 0 1 3.031 5.25v13.207a6.061 6.061 0 0 1-3.031 5.25l-11.438 6.604a6.061 6.061 0 0 1-6.062 0l-11.438-6.604a6.061 6.061 0 0 1-3.031-5.25v-13.207a6.061 6.061 0 0 1 3.031-5.25l11.438-6.604Z" fill="#E3E5FB"/><path d="M1242.47 112.812a6.058 6.058 0 0 1 6.06 0l11.44 6.604a6.073 6.073 0 0 1 3.03 5.25v13.207a6.073 6.073 0 0 1-3.03 5.25l-11.44 6.604a6.058 6.058 0 0 1-6.06 0l-11.44-6.604a6.073 6.073 0 0 1-3.03-5.25v-13.207a6.073 6.073 0 0 1 3.03-5.25l11.44-6.604Z" fill="#E9CDDB"/><path d="M402.469 172.812a6.061 6.061 0 0 1 6.062 0l11.438 6.604a6.061 6.061 0 0 1 3.031 5.25v13.207a6.061 6.061 0 0 1-3.031 5.25l-11.438 6.604a6.061 6.061 0 0 1-6.062 0l-11.438-6.604a6.061 6.061 0 0 1-3.031-5.25v-13.207a6.061 6.061 0 0 1 3.031-5.25l11.438-6.604Z" fill="#E3E5FB"/><path d="M1343.47 172.812a6.058 6.058 0 0 1 6.06 0l11.44 6.604a6.073 6.073 0 0 1 3.03 5.25v13.207a6.073 6.073 0 0 1-3.03 5.25l-11.44 6.604a6.058 6.058 0 0 1-6.06 0l-11.44-6.604a6.073 6.073 0 0 1-3.03-5.25v-13.207a6.073 6.073 0 0 1 3.03-5.25l11.44-6.604Z" fill="#E9CDDB"/><path d="M301.469-10.188a6.062 6.062 0 0 1 6.062 0l11.438 6.604A6.061 6.061 0 0 1 322 1.666v13.207a6.061 6.061 0 0 1-3.031 5.25l-11.438 6.604a6.062 6.062 0 0 1-6.062 0l-11.438-6.604a6.061 6.061 0 0 1-3.031-5.25V1.666a6.061 6.061 0 0 1 3.031-5.25l11.438-6.604Z" fill="#E3E5FB"/><path d="M1242.47-10.188a6.058 6.058 0 0 1 6.06 0l11.44 6.604a6.073 6.073 0 0 1 3.03 5.25v13.207a6.073 6.073 0 0 1-3.03 5.25l-11.44 6.604a6.058 6.058 0 0 1-6.06 0l-11.44-6.604a6.073 6.073 0 0 1-3.03-5.25V1.666a6.073 6.073 0 0 1 3.03-5.25l11.44-6.604Z" fill="#E9CDDB"/><mask id="path-16-inside-1_15644_89976" fill="white"><path d="M1374.75-22.085a9.707 9.707 0 0 1 9.72 0l18.34 10.603a9.74 9.74 0 0 1 4.87 8.43v21.207a9.74 9.74 0 0 1-4.87 8.43l-18.34 10.603a9.708 9.708 0 0 1-9.72 0l-18.35-10.603a9.731 9.731 0 0 1-4.86-8.43V-3.052a9.731 9.731 0 0 1 4.86-8.43l18.35-10.604Zm67.33 0a9.726 9.726 0 0 1 9.73 0l18.34 10.603a9.731 9.731 0 0 1 4.86 8.43v21.207a9.731 9.731 0 0 1-4.86 8.43l-18.34 10.603a9.727 9.727 0 0 1-9.73 0l-18.34-10.603a9.731 9.731 0 0 1-4.86-8.43V-3.052a9.731 9.731 0 0 1 4.86-8.43l18.34-10.604Zm-33.66 61.61a9.708 9.708 0 0 1 9.72 0l18.34 10.603a9.74 9.74 0 0 1 4.87 8.43v21.207a9.74 9.74 0 0 1-4.87 8.43l-18.34 10.603a9.708 9.708 0 0 1-9.72 0l-18.35-10.603a9.731 9.731 0 0 1-4.86-8.43V58.558a9.731 9.731 0 0 1 4.86-8.43l18.35-10.603Zm-33.67 61.61a9.707 9.707 0 0 1 9.72 0l18.34 10.603a9.74 9.74 0 0 1 4.87 8.43v21.207a9.74 9.74 0 0 1-4.87 8.43l-18.34 10.603a9.707 9.707 0 0 1-9.72 0l-18.35-10.603a9.731 9.731 0 0 1-4.86-8.43v-21.207a9.731 9.731 0 0 1 4.86-8.43l18.35-10.603Zm67.33 0a9.725 9.725 0 0 1 9.73 0l18.34 10.603a9.731 9.731 0 0 1 4.86 8.43v21.207a9.731 9.731 0 0 1-4.86 8.43l-18.34 10.603a9.726 9.726 0 0 1-9.73 0l-18.34-10.603a9.731 9.731 0 0 1-4.86-8.43v-21.207a9.731 9.731 0 0 1 4.86-8.43l18.34-10.603Zm-33.66 61.61a9.707 9.707 0 0 1 9.72 0l18.34 10.603a9.742 9.742 0 0 1 4.87 8.43v21.207a9.74 9.74 0 0 1-4.87 8.43l-18.34 10.603a9.707 9.707 0 0 1-9.72 0l-18.35-10.603a9.731 9.731 0 0 1-4.86-8.43v-21.207a9.732 9.732 0 0 1 4.86-8.43l18.35-10.603ZM30.747-22.085a9.713 9.713 0 0 1 9.723 0l18.345 10.603a9.736 9.736 0 0 1 4.862 8.43v21.207a9.736 9.736 0 0 1-4.862 8.43L40.47 37.188a9.714 9.714 0 0 1-9.723 0L12.402 26.585a9.736 9.736 0 0 1-4.862-8.43V-3.052a9.736 9.736 0 0 1 4.862-8.43l18.345-10.604Zm67.338 0a9.714 9.714 0 0 1 9.723 0l18.345 10.603a9.737 9.737 0 0 1 4.862 8.43v21.207a9.737 9.737 0 0 1-4.862 8.43l-18.345 10.603a9.714 9.714 0 0 1-9.723 0L79.74 26.585a9.736 9.736 0 0 1-4.862-8.43V-3.052a9.736 9.736 0 0 1 4.862-8.43l18.345-10.604Zm67.147 0a9.713 9.713 0 0 1 9.723 0l18.346 10.603a9.736 9.736 0 0 1 4.861 8.43v21.207a9.736 9.736 0 0 1-4.861 8.43l-18.346 10.603a9.714 9.714 0 0 1-9.723 0l-18.345-10.603a9.736 9.736 0 0 1-4.861-8.43V-3.052a9.736 9.736 0 0 1 4.861-8.43l18.345-10.604Zm67.211 0a9.715 9.715 0 0 1 9.724 0l18.345 10.603a9.736 9.736 0 0 1 4.861 8.43v21.207a9.736 9.736 0 0 1-4.861 8.43l-18.345 10.603a9.715 9.715 0 0 1-9.724 0l-18.345-10.603a9.736 9.736 0 0 1-4.861-8.43V-3.052a9.736 9.736 0 0 1 4.861-8.43l18.345-10.604Zm67.211 0a9.715 9.715 0 0 1 9.724 0l18.345 10.603a9.736 9.736 0 0 1 4.861 8.43v21.207a9.736 9.736 0 0 1-4.861 8.43l-18.345 10.603a9.715 9.715 0 0 1-9.724 0l-18.345-10.603a9.736 9.736 0 0 1-4.861-8.43V-3.052a9.736 9.736 0 0 1 4.861-8.43l18.345-10.604Zm67.148 0a9.713 9.713 0 0 1 9.723 0l18.345 10.603a9.735 9.735 0 0 1 4.862 8.43v21.207a9.735 9.735 0 0 1-4.862 8.43l-18.345 10.603a9.714 9.714 0 0 1-9.723 0l-18.345-10.603a9.737 9.737 0 0 1-4.862-8.43V-3.052a9.737 9.737 0 0 1 4.862-8.43l18.345-10.604Zm67.211 0a9.713 9.713 0 0 1 9.723 0l18.345 10.603a9.735 9.735 0 0 1 4.862 8.43v21.207a9.735 9.735 0 0 1-4.862 8.43l-18.345 10.603a9.714 9.714 0 0 1-9.723 0l-18.345-10.603a9.737 9.737 0 0 1-4.862-8.43V-3.052a9.737 9.737 0 0 1 4.862-8.43l18.345-10.604ZM-2.795 39.525a9.714 9.714 0 0 1 9.723 0l18.345 10.603a9.736 9.736 0 0 1 4.862 8.43v21.207a9.736 9.736 0 0 1-4.862 8.43L6.928 98.798a9.714 9.714 0 0 1-9.723 0L-21.14 88.195a9.736 9.736 0 0 1-4.862-8.43V58.558a9.736 9.736 0 0 1 4.862-8.43l18.345-10.603Zm67.211 0a9.714 9.714 0 0 1 9.723 0l18.345 10.603a9.736 9.736 0 0 1 4.862 8.43v21.207a9.736 9.736 0 0 1-4.862 8.43L74.139 98.798a9.714 9.714 0 0 1-9.723 0L46.07 88.195a9.736 9.736 0 0 1-4.862-8.43V58.558a9.736 9.736 0 0 1 4.862-8.43l18.345-10.603Zm67.338 0a9.714 9.714 0 0 1 9.723 0l18.345 10.603a9.737 9.737 0 0 1 4.862 8.43v21.207a9.737 9.737 0 0 1-4.862 8.43l-18.345 10.603a9.714 9.714 0 0 1-9.723 0l-18.345-10.603a9.735 9.735 0 0 1-4.862-8.43V58.558a9.735 9.735 0 0 1 4.862-8.43l18.345-10.603Zm67.147 0a9.714 9.714 0 0 1 9.723 0l18.346 10.603a9.736 9.736 0 0 1 4.861 8.43v21.207a9.736 9.736 0 0 1-4.861 8.43l-18.346 10.603a9.714 9.714 0 0 1-9.723 0l-18.345-10.603a9.736 9.736 0 0 1-4.861-8.43V58.558a9.736 9.736 0 0 1 4.861-8.43l18.345-10.603Zm67.211 0a9.714 9.714 0 0 1 9.723 0l18.346 10.603a9.736 9.736 0 0 1 4.861 8.43v21.207a9.736 9.736 0 0 1-4.861 8.43l-18.346 10.603a9.714 9.714 0 0 1-9.723 0l-18.345-10.603a9.736 9.736 0 0 1-4.861-8.43V58.558a9.736 9.736 0 0 1 4.861-8.43l18.345-10.603Zm67.211 0a9.714 9.714 0 0 1 9.723 0l18.346 10.603a9.736 9.736 0 0 1 4.861 8.43v21.207a9.736 9.736 0 0 1-4.861 8.43l-18.346 10.603a9.714 9.714 0 0 1-9.723 0l-18.345-10.603a9.736 9.736 0 0 1-4.861-8.43V58.558a9.736 9.736 0 0 1 4.861-8.43l18.345-10.603Zm67.148 0a9.714 9.714 0 0 1 9.723 0l18.345 10.603a9.735 9.735 0 0 1 4.862 8.43v21.207a9.735 9.735 0 0 1-4.862 8.43l-18.345 10.603a9.714 9.714 0 0 1-9.723 0l-18.345-10.603a9.735 9.735 0 0 1-4.862-8.43V58.558a9.735 9.735 0 0 1 4.862-8.43l18.345-10.603Zm67.211 0a9.714 9.714 0 0 1 9.723 0l18.345 10.603a9.735 9.735 0 0 1 4.862 8.43v21.207a9.735 9.735 0 0 1-4.862 8.43l-18.345 10.603a9.714 9.714 0 0 1-9.723 0l-18.345-10.603a9.737 9.737 0 0 1-4.862-8.43V58.558a9.737 9.737 0 0 1 4.862-8.43l18.345-10.603Zm-436.935 61.61a9.712 9.712 0 0 1 9.723 0l18.345 10.603a9.736 9.736 0 0 1 4.862 8.43v21.207a9.736 9.736 0 0 1-4.862 8.43L40.47 160.408a9.713 9.713 0 0 1-9.723 0l-18.345-10.603a9.736 9.736 0 0 1-4.862-8.43v-21.207a9.736 9.736 0 0 1 4.862-8.43l18.345-10.603Zm67.338 0a9.713 9.713 0 0 1 9.723 0l18.345 10.603a9.737 9.737 0 0 1 4.862 8.43v21.207a9.737 9.737 0 0 1-4.862 8.43l-18.345 10.603a9.713 9.713 0 0 1-9.723 0L79.74 149.805a9.736 9.736 0 0 1-4.862-8.43v-21.207a9.736 9.736 0 0 1 4.862-8.43l18.345-10.603Zm67.147 0a9.712 9.712 0 0 1 9.723 0l18.346 10.603a9.736 9.736 0 0 1 4.861 8.43v21.207a9.736 9.736 0 0 1-4.861 8.43l-18.346 10.603a9.713 9.713 0 0 1-9.723 0l-18.345-10.603a9.736 9.736 0 0 1-4.861-8.43v-21.207a9.736 9.736 0 0 1 4.861-8.43l18.345-10.603Zm67.211 0a9.714 9.714 0 0 1 9.724 0l18.345 10.603a9.736 9.736 0 0 1 4.861 8.43v21.207a9.736 9.736 0 0 1-4.861 8.43l-18.345 10.603a9.714 9.714 0 0 1-9.724 0l-18.345-10.603a9.736 9.736 0 0 1-4.861-8.43v-21.207a9.736 9.736 0 0 1 4.861-8.43l18.345-10.603Zm67.211 0a9.714 9.714 0 0 1 9.724 0l18.345 10.603a9.736 9.736 0 0 1 4.861 8.43v21.207a9.736 9.736 0 0 1-4.861 8.43l-18.345 10.603a9.714 9.714 0 0 1-9.724 0l-18.345-10.603a9.736 9.736 0 0 1-4.861-8.43v-21.207a9.736 9.736 0 0 1 4.861-8.43l18.345-10.603Zm67.148 0a9.712 9.712 0 0 1 9.723 0l18.345 10.603a9.735 9.735 0 0 1 4.862 8.43v21.207a9.735 9.735 0 0 1-4.862 8.43l-18.345 10.603a9.713 9.713 0 0 1-9.723 0l-18.345-10.603a9.737 9.737 0 0 1-4.862-8.43v-21.207a9.737 9.737 0 0 1 4.862-8.43l18.345-10.603Zm67.211 0a9.712 9.712 0 0 1 9.723 0l18.345 10.603a9.735 9.735 0 0 1 4.862 8.43v21.207a9.735 9.735 0 0 1-4.862 8.43l-18.345 10.603a9.713 9.713 0 0 1-9.723 0l-18.345-10.603a9.737 9.737 0 0 1-4.862-8.43v-21.207a9.737 9.737 0 0 1 4.862-8.43l18.345-10.603Zm-436.808 61.61a9.713 9.713 0 0 1 9.723 0l18.345 10.603a9.737 9.737 0 0 1 4.862 8.43v21.207a9.736 9.736 0 0 1-4.862 8.43L6.928 222.018a9.713 9.713 0 0 1-9.723 0l-18.345-10.603a9.736 9.736 0 0 1-4.862-8.43v-21.207a9.737 9.737 0 0 1 4.862-8.43l18.345-10.603Zm67.211 0a9.713 9.713 0 0 1 9.723 0l18.345 10.603a9.737 9.737 0 0 1 4.862 8.43v21.207a9.736 9.736 0 0 1-4.862 8.43l-18.345 10.603a9.713 9.713 0 0 1-9.723 0L46.07 211.415a9.736 9.736 0 0 1-4.862-8.43v-21.207a9.737 9.737 0 0 1 4.862-8.43l18.345-10.603Zm67.338 0a9.713 9.713 0 0 1 9.723 0l18.345 10.603a9.738 9.738 0 0 1 4.862 8.43v21.207a9.737 9.737 0 0 1-4.862 8.43l-18.345 10.603a9.713 9.713 0 0 1-9.723 0l-18.345-10.603a9.735 9.735 0 0 1-4.862-8.43v-21.207a9.736 9.736 0 0 1 4.862-8.43l18.345-10.603Zm67.147 0a9.713 9.713 0 0 1 9.723 0l18.346 10.603a9.737 9.737 0 0 1 4.861 8.43v21.207a9.736 9.736 0 0 1-4.861 8.43l-18.346 10.603a9.713 9.713 0 0 1-9.723 0l-18.345-10.603a9.736 9.736 0 0 1-4.861-8.43v-21.207a9.737 9.737 0 0 1 4.861-8.43l18.345-10.603Zm67.211 0a9.713 9.713 0 0 1 9.723 0l18.346 10.603a9.737 9.737 0 0 1 4.861 8.43v21.207a9.736 9.736 0 0 1-4.861 8.43l-18.346 10.603a9.713 9.713 0 0 1-9.723 0l-18.345-10.603a9.736 9.736 0 0 1-4.861-8.43v-21.207a9.737 9.737 0 0 1 4.861-8.43l18.345-10.603Zm67.211 0a9.713 9.713 0 0 1 9.723 0l18.346 10.603a9.737 9.737 0 0 1 4.861 8.43v21.207a9.736 9.736 0 0 1-4.861 8.43l-18.346 10.603a9.713 9.713 0 0 1-9.723 0l-18.345-10.603a9.736 9.736 0 0 1-4.861-8.43v-21.207a9.737 9.737 0 0 1 4.861-8.43l18.345-10.603Zm67.148 0a9.713 9.713 0 0 1 9.723 0l18.345 10.603a9.736 9.736 0 0 1 4.862 8.43v21.207a9.735 9.735 0 0 1-4.862 8.43l-18.345 10.603a9.713 9.713 0 0 1-9.723 0l-18.345-10.603a9.735 9.735 0 0 1-4.862-8.43v-21.207a9.736 9.736 0 0 1 4.862-8.43l18.345-10.603Zm67.211 0a9.713 9.713 0 0 1 9.723 0l18.345 10.603a9.736 9.736 0 0 1 4.862 8.43v21.207a9.735 9.735 0 0 1-4.862 8.43l-18.345 10.603a9.713 9.713 0 0 1-9.723 0l-18.345-10.603a9.737 9.737 0 0 1-4.862-8.43v-21.207a9.738 9.738 0 0 1 4.862-8.43l18.345-10.603Zm504.403-184.83a9.713 9.713 0 0 1 9.723 0l18.342 10.603a9.731 9.731 0 0 1 4.86 8.43v21.207a9.731 9.731 0 0 1-4.86 8.43l-18.342 10.603a9.714 9.714 0 0 1-9.723 0L953.74 26.585a9.735 9.735 0 0 1-4.862-8.43V-3.052a9.735 9.735 0 0 1 4.862-8.43l18.345-10.604Zm67.145 0a9.726 9.726 0 0 1 9.73 0l18.34 10.603a9.731 9.731 0 0 1 4.86 8.43v21.207a9.731 9.731 0 0 1-4.86 8.43l-18.34 10.603a9.727 9.727 0 0 1-9.73 0l-18.34-10.603a9.731 9.731 0 0 1-4.86-8.43V-3.052a9.731 9.731 0 0 1 4.86-8.43l18.34-10.604Zm67.21 0a9.726 9.726 0 0 1 9.73 0l18.34 10.603a9.731 9.731 0 0 1 4.86 8.43v21.207a9.731 9.731 0 0 1-4.86 8.43l-18.34 10.603a9.727 9.727 0 0 1-9.73 0l-18.34-10.603a9.731 9.731 0 0 1-4.86-8.43V-3.052a9.731 9.731 0 0 1 4.86-8.43l18.34-10.604Zm67.21 0a9.726 9.726 0 0 1 9.73 0l18.34 10.603a9.731 9.731 0 0 1 4.86 8.43v21.207a9.731 9.731 0 0 1-4.86 8.43l-18.34 10.603a9.727 9.727 0 0 1-9.73 0l-18.34-10.603a9.731 9.731 0 0 1-4.86-8.43V-3.052a9.731 9.731 0 0 1 4.86-8.43l18.34-10.604Zm67.15 0a9.726 9.726 0 0 1 9.73 0l18.34 10.603a9.731 9.731 0 0 1 4.86 8.43v21.207a9.731 9.731 0 0 1-4.86 8.43l-18.34 10.603a9.727 9.727 0 0 1-9.73 0l-18.34-10.603a9.731 9.731 0 0 1-4.86-8.43V-3.052a9.731 9.731 0 0 1 4.86-8.43l18.34-10.604Zm67.21 0a9.726 9.726 0 0 1 9.73 0l18.34 10.603a9.731 9.731 0 0 1 4.86 8.43v21.207a9.731 9.731 0 0 1-4.86 8.43l-18.34 10.603a9.727 9.727 0 0 1-9.73 0l-18.34-10.603a9.731 9.731 0 0 1-4.86-8.43V-3.052a9.731 9.731 0 0 1 4.86-8.43l18.34-10.604Zm-302.26 61.61a9.727 9.727 0 0 1 9.73 0l18.34 10.603a9.731 9.731 0 0 1 4.86 8.43v21.207a9.731 9.731 0 0 1-4.86 8.43l-18.34 10.603a9.727 9.727 0 0 1-9.73 0l-18.341-10.603a9.735 9.735 0 0 1-4.862-8.43V58.558a9.735 9.735 0 0 1 4.862-8.43l18.341-10.603Zm67.15 0a9.708 9.708 0 0 1 9.72 0l18.35 10.603a9.731 9.731 0 0 1 4.86 8.43v21.207a9.731 9.731 0 0 1-4.86 8.43l-18.35 10.603a9.708 9.708 0 0 1-9.72 0l-18.34-10.603a9.74 9.74 0 0 1-4.87-8.43V58.558a9.74 9.74 0 0 1 4.87-8.43l18.34-10.603Zm67.21 0a9.727 9.727 0 0 1 9.73 0l18.34 10.603a9.731 9.731 0 0 1 4.86 8.43v21.207a9.731 9.731 0 0 1-4.86 8.43l-18.34 10.603a9.727 9.727 0 0 1-9.73 0l-18.34-10.603a9.731 9.731 0 0 1-4.86-8.43V58.558a9.731 9.731 0 0 1 4.86-8.43l18.34-10.603Zm67.21 0a9.727 9.727 0 0 1 9.73 0l18.34 10.603a9.731 9.731 0 0 1 4.86 8.43v21.207a9.731 9.731 0 0 1-4.86 8.43l-18.34 10.603a9.727 9.727 0 0 1-9.73 0l-18.34-10.603a9.731 9.731 0 0 1-4.86-8.43V58.558a9.731 9.731 0 0 1 4.86-8.43l18.34-10.603Zm67.15 0a9.708 9.708 0 0 1 9.72 0l18.35 10.603a9.731 9.731 0 0 1 4.86 8.43v21.207a9.731 9.731 0 0 1-4.86 8.43l-18.35 10.603a9.708 9.708 0 0 1-9.72 0l-18.34-10.603a9.74 9.74 0 0 1-4.87-8.43V58.558a9.74 9.74 0 0 1 4.87-8.43l18.34-10.603Zm67.21 0a9.727 9.727 0 0 1 9.73 0l18.34 10.603a9.731 9.731 0 0 1 4.86 8.43v21.207a9.731 9.731 0 0 1-4.86 8.43l-18.34 10.603a9.727 9.727 0 0 1-9.73 0l-18.34-10.603a9.731 9.731 0 0 1-4.86-8.43V58.558a9.731 9.731 0 0 1 4.86-8.43l18.34-10.603Zm-369.595 61.61a9.712 9.712 0 0 1 9.723 0l18.342 10.603a9.731 9.731 0 0 1 4.86 8.43v21.207a9.731 9.731 0 0 1-4.86 8.43l-18.342 10.603a9.713 9.713 0 0 1-9.723 0l-18.345-10.603a9.735 9.735 0 0 1-4.862-8.43v-21.207a9.735 9.735 0 0 1 4.862-8.43l18.345-10.603Zm67.145 0a9.725 9.725 0 0 1 9.73 0l18.34 10.603a9.731 9.731 0 0 1 4.86 8.43v21.207a9.731 9.731 0 0 1-4.86 8.43l-18.34 10.603a9.726 9.726 0 0 1-9.73 0l-18.34-10.603a9.731 9.731 0 0 1-4.86-8.43v-21.207a9.731 9.731 0 0 1 4.86-8.43l18.34-10.603Zm67.21 0a9.725 9.725 0 0 1 9.73 0l18.34 10.603a9.731 9.731 0 0 1 4.86 8.43v21.207a9.731 9.731 0 0 1-4.86 8.43l-18.34 10.603a9.726 9.726 0 0 1-9.73 0l-18.34-10.603a9.731 9.731 0 0 1-4.86-8.43v-21.207a9.731 9.731 0 0 1 4.86-8.43l18.34-10.603Zm67.21 0a9.725 9.725 0 0 1 9.73 0l18.34 10.603a9.731 9.731 0 0 1 4.86 8.43v21.207a9.731 9.731 0 0 1-4.86 8.43l-18.34 10.603a9.726 9.726 0 0 1-9.73 0l-18.34-10.603a9.731 9.731 0 0 1-4.86-8.43v-21.207a9.731 9.731 0 0 1 4.86-8.43l18.34-10.603Zm67.15 0a9.725 9.725 0 0 1 9.73 0l18.34 10.603a9.731 9.731 0 0 1 4.86 8.43v21.207a9.731 9.731 0 0 1-4.86 8.43l-18.34 10.603a9.726 9.726 0 0 1-9.73 0l-18.34-10.603a9.731 9.731 0 0 1-4.86-8.43v-21.207a9.731 9.731 0 0 1 4.86-8.43l18.34-10.603Zm67.21 0a9.725 9.725 0 0 1 9.73 0l18.34 10.603a9.731 9.731 0 0 1 4.86 8.43v21.207a9.731 9.731 0 0 1-4.86 8.43l-18.34 10.603a9.726 9.726 0 0 1-9.73 0l-18.34-10.603a9.731 9.731 0 0 1-4.86-8.43v-21.207a9.731 9.731 0 0 1 4.86-8.43l18.34-10.603Zm-302.26 61.61a9.726 9.726 0 0 1 9.73 0l18.34 10.603a9.732 9.732 0 0 1 4.86 8.43v21.207a9.731 9.731 0 0 1-4.86 8.43l-18.34 10.603a9.726 9.726 0 0 1-9.73 0l-18.341-10.603a9.735 9.735 0 0 1-4.862-8.43v-21.207a9.736 9.736 0 0 1 4.862-8.43l18.341-10.603Zm67.15 0a9.707 9.707 0 0 1 9.72 0l18.35 10.603a9.732 9.732 0 0 1 4.86 8.43v21.207a9.731 9.731 0 0 1-4.86 8.43l-18.35 10.603a9.707 9.707 0 0 1-9.72 0l-18.34-10.603a9.74 9.74 0 0 1-4.87-8.43v-21.207a9.742 9.742 0 0 1 4.87-8.43l18.34-10.603Zm67.21 0a9.726 9.726 0 0 1 9.73 0l18.34 10.603a9.732 9.732 0 0 1 4.86 8.43v21.207a9.731 9.731 0 0 1-4.86 8.43l-18.34 10.603a9.726 9.726 0 0 1-9.73 0l-18.34-10.603a9.731 9.731 0 0 1-4.86-8.43v-21.207a9.732 9.732 0 0 1 4.86-8.43l18.34-10.603Zm67.21 0a9.726 9.726 0 0 1 9.73 0l18.34 10.603a9.732 9.732 0 0 1 4.86 8.43v21.207a9.731 9.731 0 0 1-4.86 8.43l-18.34 10.603a9.726 9.726 0 0 1-9.73 0l-18.34-10.603a9.731 9.731 0 0 1-4.86-8.43v-21.207a9.732 9.732 0 0 1 4.86-8.43l18.34-10.603Zm67.15 0a9.707 9.707 0 0 1 9.72 0l18.35 10.603a9.732 9.732 0 0 1 4.86 8.43v21.207a9.731 9.731 0 0 1-4.86 8.43l-18.35 10.603a9.707 9.707 0 0 1-9.72 0l-18.34-10.603a9.74 9.74 0 0 1-4.87-8.43v-21.207a9.742 9.742 0 0 1 4.87-8.43l18.34-10.603Zm67.21 0a9.726 9.726 0 0 1 9.73 0l18.34 10.603a9.732 9.732 0 0 1 4.86 8.43v21.207a9.731 9.731 0 0 1-4.86 8.43l-18.34 10.603a9.726 9.726 0 0 1-9.73 0l-18.34-10.603a9.731 9.731 0 0 1-4.86-8.43v-21.207a9.732 9.732 0 0 1 4.86-8.43l18.34-10.603ZM501.747-22.085a9.713 9.713 0 0 1 9.723 0l18.345 10.603a9.737 9.737 0 0 1 4.862 8.43v21.207a9.737 9.737 0 0 1-4.862 8.43L511.47 37.188a9.714 9.714 0 0 1-9.723 0l-18.345-10.603a9.735 9.735 0 0 1-4.862-8.43V-3.052a9.735 9.735 0 0 1 4.862-8.43l18.345-10.604Zm67.338 0a9.713 9.713 0 0 1 9.723 0l18.345 10.603a9.737 9.737 0 0 1 4.862 8.43v21.207a9.737 9.737 0 0 1-4.862 8.43l-18.345 10.603a9.714 9.714 0 0 1-9.723 0L550.74 26.585a9.735 9.735 0 0 1-4.862-8.43V-3.052a9.735 9.735 0 0 1 4.862-8.43l18.345-10.604Zm67.147 0a9.713 9.713 0 0 1 9.723 0l18.346 10.603a9.736 9.736 0 0 1 4.861 8.43v21.207a9.736 9.736 0 0 1-4.861 8.43l-18.346 10.603a9.714 9.714 0 0 1-9.723 0l-18.345-10.603a9.736 9.736 0 0 1-4.861-8.43V-3.052a9.736 9.736 0 0 1 4.861-8.43l18.345-10.604Zm67.211 0a9.715 9.715 0 0 1 9.724 0l18.345 10.603a9.736 9.736 0 0 1 4.861 8.43v21.207a9.736 9.736 0 0 1-4.861 8.43l-18.345 10.603a9.715 9.715 0 0 1-9.724 0l-18.345-10.603a9.736 9.736 0 0 1-4.861-8.43V-3.052a9.736 9.736 0 0 1 4.861-8.43l18.345-10.604Zm67.211 0a9.715 9.715 0 0 1 9.724 0l18.345 10.603a9.736 9.736 0 0 1 4.861 8.43v21.207a9.736 9.736 0 0 1-4.861 8.43l-18.345 10.603a9.715 9.715 0 0 1-9.724 0l-18.345-10.603a9.736 9.736 0 0 1-4.861-8.43V-3.052a9.736 9.736 0 0 1 4.861-8.43l18.345-10.604Zm67.148 0a9.713 9.713 0 0 1 9.723 0l18.345 10.603a9.735 9.735 0 0 1 4.862 8.43v21.207a9.735 9.735 0 0 1-4.862 8.43l-18.345 10.603a9.714 9.714 0 0 1-9.723 0l-18.345-10.603a9.737 9.737 0 0 1-4.862-8.43V-3.052a9.737 9.737 0 0 1 4.862-8.43l18.345-10.604Zm67.211 0a9.713 9.713 0 0 1 9.723 0l18.345 10.603a9.735 9.735 0 0 1 4.862 8.43v21.207a9.735 9.735 0 0 1-4.862 8.43l-18.345 10.603a9.714 9.714 0 0 1-9.723 0l-18.345-10.603a9.737 9.737 0 0 1-4.862-8.43V-3.052a9.737 9.737 0 0 1 4.862-8.43l18.345-10.604Zm-369.597 61.61a9.714 9.714 0 0 1 9.723 0l18.345 10.603a9.737 9.737 0 0 1 4.862 8.43v21.207a9.737 9.737 0 0 1-4.862 8.43l-18.345 10.603a9.714 9.714 0 0 1-9.723 0l-18.345-10.603a9.735 9.735 0 0 1-4.862-8.43V58.558a9.735 9.735 0 0 1 4.862-8.43l18.345-10.603Zm67.338 0a9.714 9.714 0 0 1 9.723 0l18.345 10.603a9.736 9.736 0 0 1 4.861 8.43v21.207a9.736 9.736 0 0 1-4.861 8.43l-18.345 10.603a9.714 9.714 0 0 1-9.723 0l-18.345-10.603a9.735 9.735 0 0 1-4.862-8.43V58.558a9.735 9.735 0 0 1 4.862-8.43l18.345-10.603Zm67.147 0a9.714 9.714 0 0 1 9.723 0l18.346 10.603a9.736 9.736 0 0 1 4.861 8.43v21.207a9.736 9.736 0 0 1-4.861 8.43l-18.346 10.603a9.714 9.714 0 0 1-9.723 0l-18.345-10.603a9.736 9.736 0 0 1-4.861-8.43V58.558a9.736 9.736 0 0 1 4.861-8.43l18.345-10.603Zm67.211 0a9.714 9.714 0 0 1 9.723 0l18.346 10.603a9.736 9.736 0 0 1 4.861 8.43v21.207a9.736 9.736 0 0 1-4.861 8.43l-18.346 10.603a9.714 9.714 0 0 1-9.723 0l-18.345-10.603a9.736 9.736 0 0 1-4.861-8.43V58.558a9.736 9.736 0 0 1 4.861-8.43l18.345-10.603Zm67.211 0a9.714 9.714 0 0 1 9.723 0l18.346 10.603a9.736 9.736 0 0 1 4.861 8.43v21.207a9.736 9.736 0 0 1-4.861 8.43l-18.346 10.603a9.714 9.714 0 0 1-9.723 0l-18.345-10.603a9.736 9.736 0 0 1-4.861-8.43V58.558a9.736 9.736 0 0 1 4.861-8.43l18.345-10.603Zm67.148 0a9.714 9.714 0 0 1 9.723 0l18.345 10.603a9.735 9.735 0 0 1 4.862 8.43v21.207a9.735 9.735 0 0 1-4.862 8.43l-18.345 10.603a9.714 9.714 0 0 1-9.723 0l-18.345-10.603a9.735 9.735 0 0 1-4.862-8.43V58.558a9.735 9.735 0 0 1 4.862-8.43l18.345-10.603Zm67.211 0a9.714 9.714 0 0 1 9.723 0l18.345 10.603a9.735 9.735 0 0 1 4.862 8.43v21.207a9.735 9.735 0 0 1-4.862 8.43l-18.345 10.603a9.714 9.714 0 0 1-9.723 0l-18.345-10.603a9.737 9.737 0 0 1-4.862-8.43V58.558a9.737 9.737 0 0 1 4.862-8.43l18.345-10.603Zm-436.935 61.61a9.712 9.712 0 0 1 9.723 0l18.345 10.603a9.737 9.737 0 0 1 4.862 8.43v21.207a9.737 9.737 0 0 1-4.862 8.43l-18.345 10.603a9.713 9.713 0 0 1-9.723 0l-18.345-10.603a9.735 9.735 0 0 1-4.862-8.43v-21.207a9.735 9.735 0 0 1 4.862-8.43l18.345-10.603Zm67.338 0a9.712 9.712 0 0 1 9.723 0l18.345 10.603a9.737 9.737 0 0 1 4.862 8.43v21.207a9.737 9.737 0 0 1-4.862 8.43l-18.345 10.603a9.713 9.713 0 0 1-9.723 0l-18.345-10.603a9.735 9.735 0 0 1-4.862-8.43v-21.207a9.735 9.735 0 0 1 4.862-8.43l18.345-10.603Zm67.147 0a9.712 9.712 0 0 1 9.723 0l18.346 10.603a9.736 9.736 0 0 1 4.861 8.43v21.207a9.736 9.736 0 0 1-4.861 8.43l-18.346 10.603a9.713 9.713 0 0 1-9.723 0l-18.345-10.603a9.736 9.736 0 0 1-4.861-8.43v-21.207a9.736 9.736 0 0 1 4.861-8.43l18.345-10.603Zm67.211 0a9.714 9.714 0 0 1 9.724 0l18.345 10.603a9.736 9.736 0 0 1 4.861 8.43v21.207a9.736 9.736 0 0 1-4.861 8.43l-18.345 10.603a9.714 9.714 0 0 1-9.724 0l-18.345-10.603a9.736 9.736 0 0 1-4.861-8.43v-21.207a9.736 9.736 0 0 1 4.861-8.43l18.345-10.603Zm67.211 0a9.714 9.714 0 0 1 9.724 0l18.345 10.603a9.736 9.736 0 0 1 4.861 8.43v21.207a9.736 9.736 0 0 1-4.861 8.43l-18.345 10.603a9.714 9.714 0 0 1-9.724 0l-18.345-10.603a9.736 9.736 0 0 1-4.861-8.43v-21.207a9.736 9.736 0 0 1 4.861-8.43l18.345-10.603Zm67.148 0a9.712 9.712 0 0 1 9.723 0l18.345 10.603a9.735 9.735 0 0 1 4.862 8.43v21.207a9.735 9.735 0 0 1-4.862 8.43l-18.345 10.603a9.713 9.713 0 0 1-9.723 0l-18.345-10.603a9.737 9.737 0 0 1-4.862-8.43v-21.207a9.737 9.737 0 0 1 4.862-8.43l18.345-10.603Zm67.211 0a9.712 9.712 0 0 1 9.723 0l18.345 10.603a9.735 9.735 0 0 1 4.862 8.43v21.207a9.735 9.735 0 0 1-4.862 8.43l-18.345 10.603a9.713 9.713 0 0 1-9.723 0l-18.345-10.603a9.737 9.737 0 0 1-4.862-8.43v-21.207a9.737 9.737 0 0 1 4.862-8.43l18.345-10.603Zm-369.597 61.61a9.713 9.713 0 0 1 9.723 0l18.345 10.603a9.738 9.738 0 0 1 4.862 8.43v21.207a9.737 9.737 0 0 1-4.862 8.43l-18.345 10.603a9.713 9.713 0 0 1-9.723 0l-18.345-10.603a9.735 9.735 0 0 1-4.862-8.43v-21.207a9.736 9.736 0 0 1 4.862-8.43l18.345-10.603Zm67.338 0a9.713 9.713 0 0 1 9.723 0l18.345 10.603a9.737 9.737 0 0 1 4.861 8.43v21.207a9.736 9.736 0 0 1-4.861 8.43l-18.345 10.603a9.713 9.713 0 0 1-9.723 0l-18.345-10.603a9.735 9.735 0 0 1-4.862-8.43v-21.207a9.736 9.736 0 0 1 4.862-8.43l18.345-10.603Zm67.147 0a9.713 9.713 0 0 1 9.723 0l18.346 10.603a9.737 9.737 0 0 1 4.861 8.43v21.207a9.736 9.736 0 0 1-4.861 8.43l-18.346 10.603a9.713 9.713 0 0 1-9.723 0l-18.345-10.603a9.736 9.736 0 0 1-4.861-8.43v-21.207a9.737 9.737 0 0 1 4.861-8.43l18.345-10.603Zm67.211 0a9.713 9.713 0 0 1 9.723 0l18.346 10.603a9.737 9.737 0 0 1 4.861 8.43v21.207a9.736 9.736 0 0 1-4.861 8.43l-18.346 10.603a9.713 9.713 0 0 1-9.723 0l-18.345-10.603a9.736 9.736 0 0 1-4.861-8.43v-21.207a9.737 9.737 0 0 1 4.861-8.43l18.345-10.603Zm67.211 0a9.713 9.713 0 0 1 9.723 0l18.346 10.603a9.737 9.737 0 0 1 4.861 8.43v21.207a9.736 9.736 0 0 1-4.861 8.43l-18.346 10.603a9.713 9.713 0 0 1-9.723 0l-18.345-10.603a9.736 9.736 0 0 1-4.861-8.43v-21.207a9.737 9.737 0 0 1 4.861-8.43l18.345-10.603Zm67.148 0a9.713 9.713 0 0 1 9.723 0l18.345 10.603a9.736 9.736 0 0 1 4.862 8.43v21.207a9.735 9.735 0 0 1-4.862 8.43l-18.345 10.603a9.713 9.713 0 0 1-9.723 0l-18.345-10.603a9.735 9.735 0 0 1-4.862-8.43v-21.207a9.736 9.736 0 0 1 4.862-8.43l18.345-10.603Zm67.211 0a9.713 9.713 0 0 1 9.723 0l18.345 10.603a9.736 9.736 0 0 1 4.862 8.43v21.207a9.735 9.735 0 0 1-4.862 8.43l-18.345 10.603a9.713 9.713 0 0 1-9.723 0l-18.345-10.603a9.737 9.737 0 0 1-4.862-8.43v-21.207a9.738 9.738 0 0 1 4.862-8.43l18.345-10.603Z"/></mask><path d="M1374.75-22.085a9.707 9.707 0 0 1 9.72 0l18.34 10.603a9.74 9.74 0 0 1 4.87 8.43v21.207a9.74 9.74 0 0 1-4.87 8.43l-18.34 10.603a9.708 9.708 0 0 1-9.72 0l-18.35-10.603a9.731 9.731 0 0 1-4.86-8.43V-3.052a9.731 9.731 0 0 1 4.86-8.43l18.35-10.604Z" stroke="url(#paint1_linear_15644_89976)" stroke-width="2" mask="url(#path-16-inside-1_15644_89976)"/><path d="M1442.08-22.085a9.726 9.726 0 0 1 9.73 0l18.34 10.603a9.731 9.731 0 0 1 4.86 8.43v21.207a9.731 9.731 0 0 1-4.86 8.43l-18.34 10.603a9.727 9.727 0 0 1-9.73 0l-18.34-10.603a9.731 9.731 0 0 1-4.86-8.43V-3.052a9.731 9.731 0 0 1 4.86-8.43l18.34-10.604Z" stroke="url(#paint2_linear_15644_89976)" stroke-width="2" mask="url(#path-16-inside-1_15644_89976)"/><path d="M1408.42 39.525a9.708 9.708 0 0 1 9.72 0l18.34 10.603a9.74 9.74 0 0 1 4.87 8.43v21.207a9.74 9.74 0 0 1-4.87 8.43l-18.34 10.603a9.708 9.708 0 0 1-9.72 0l-18.35-10.603a9.731 9.731 0 0 1-4.86-8.43V58.558a9.731 9.731 0 0 1 4.86-8.43l18.35-10.603Z" stroke="url(#paint3_linear_15644_89976)" stroke-width="2" mask="url(#path-16-inside-1_15644_89976)"/><path d="M1374.75 101.135a9.707 9.707 0 0 1 9.72 0l18.34 10.603a9.74 9.74 0 0 1 4.87 8.43v21.207a9.74 9.74 0 0 1-4.87 8.43l-18.34 10.603a9.707 9.707 0 0 1-9.72 0l-18.35-10.603a9.731 9.731 0 0 1-4.86-8.43v-21.207a9.731 9.731 0 0 1 4.86-8.43l18.35-10.603Z" stroke="url(#paint4_linear_15644_89976)" stroke-width="2" mask="url(#path-16-inside-1_15644_89976)"/><path d="M1442.08 101.135a9.725 9.725 0 0 1 9.73 0l18.34 10.603a9.731 9.731 0 0 1 4.86 8.43v21.207a9.731 9.731 0 0 1-4.86 8.43l-18.34 10.603a9.726 9.726 0 0 1-9.73 0l-18.34-10.603a9.731 9.731 0 0 1-4.86-8.43v-21.207a9.731 9.731 0 0 1 4.86-8.43l18.34-10.603Z" stroke="url(#paint5_linear_15644_89976)" stroke-width="2" mask="url(#path-16-inside-1_15644_89976)"/><path d="M1408.42 162.745a9.707 9.707 0 0 1 9.72 0l18.34 10.603a9.742 9.742 0 0 1 4.87 8.43v21.207a9.74 9.74 0 0 1-4.87 8.43l-18.34 10.603a9.707 9.707 0 0 1-9.72 0l-18.35-10.603a9.731 9.731 0 0 1-4.86-8.43v-21.207a9.732 9.732 0 0 1 4.86-8.43l18.35-10.603Z" stroke="url(#paint6_linear_15644_89976)" stroke-width="2" mask="url(#path-16-inside-1_15644_89976)"/><path d="M30.747-22.085a9.713 9.713 0 0 1 9.723 0l18.345 10.603a9.736 9.736 0 0 1 4.862 8.43v21.207a9.736 9.736 0 0 1-4.862 8.43L40.47 37.188a9.714 9.714 0 0 1-9.723 0L12.402 26.585a9.736 9.736 0 0 1-4.862-8.43V-3.052a9.736 9.736 0 0 1 4.862-8.43l18.345-10.604Z" stroke="url(#paint7_linear_15644_89976)" stroke-width="2" mask="url(#path-16-inside-1_15644_89976)"/><path d="M98.085-22.085a9.714 9.714 0 0 1 9.723 0l18.345 10.603a9.737 9.737 0 0 1 4.862 8.43v21.207a9.737 9.737 0 0 1-4.862 8.43l-18.345 10.603a9.714 9.714 0 0 1-9.723 0L79.74 26.585a9.736 9.736 0 0 1-4.862-8.43V-3.052a9.736 9.736 0 0 1 4.862-8.43l18.345-10.604Z" stroke="url(#paint8_linear_15644_89976)" stroke-width="2" mask="url(#path-16-inside-1_15644_89976)"/><path d="M165.232-22.085a9.713 9.713 0 0 1 9.723 0l18.346 10.603a9.736 9.736 0 0 1 4.861 8.43v21.207a9.736 9.736 0 0 1-4.861 8.43l-18.346 10.603a9.714 9.714 0 0 1-9.723 0l-18.345-10.603a9.736 9.736 0 0 1-4.861-8.43V-3.052a9.736 9.736 0 0 1 4.861-8.43l18.345-10.604Z" stroke="url(#paint9_linear_15644_89976)" stroke-width="2" mask="url(#path-16-inside-1_15644_89976)"/><path d="M232.443-22.085a9.715 9.715 0 0 1 9.724 0l18.345 10.603a9.736 9.736 0 0 1 4.861 8.43v21.207a9.736 9.736 0 0 1-4.861 8.43l-18.345 10.603a9.715 9.715 0 0 1-9.724 0l-18.345-10.603a9.736 9.736 0 0 1-4.861-8.43V-3.052a9.736 9.736 0 0 1 4.861-8.43l18.345-10.604Z" stroke="url(#paint10_linear_15644_89976)" stroke-width="2" mask="url(#path-16-inside-1_15644_89976)"/><path d="M299.654-22.085a9.715 9.715 0 0 1 9.724 0l18.345 10.603a9.736 9.736 0 0 1 4.861 8.43v21.207a9.736 9.736 0 0 1-4.861 8.43l-18.345 10.603a9.715 9.715 0 0 1-9.724 0l-18.345-10.603a9.736 9.736 0 0 1-4.861-8.43V-3.052a9.736 9.736 0 0 1 4.861-8.43l18.345-10.604Z" stroke="url(#paint11_linear_15644_89976)" stroke-width="2" mask="url(#path-16-inside-1_15644_89976)"/><path d="M366.802-22.085a9.713 9.713 0 0 1 9.723 0l18.345 10.603a9.735 9.735 0 0 1 4.862 8.43v21.207a9.735 9.735 0 0 1-4.862 8.43l-18.345 10.603a9.714 9.714 0 0 1-9.723 0l-18.345-10.603a9.737 9.737 0 0 1-4.862-8.43V-3.052a9.737 9.737 0 0 1 4.862-8.43l18.345-10.604Z" stroke="url(#paint12_linear_15644_89976)" stroke-width="2" mask="url(#path-16-inside-1_15644_89976)"/><path d="M434.013-22.085a9.713 9.713 0 0 1 9.723 0l18.345 10.603a9.735 9.735 0 0 1 4.862 8.43v21.207a9.735 9.735 0 0 1-4.862 8.43l-18.345 10.603a9.714 9.714 0 0 1-9.723 0l-18.345-10.603a9.737 9.737 0 0 1-4.862-8.43V-3.052a9.737 9.737 0 0 1 4.862-8.43l18.345-10.604Z" stroke="url(#paint13_linear_15644_89976)" stroke-width="2" mask="url(#path-16-inside-1_15644_89976)"/><path d="M-2.795 39.525a9.714 9.714 0 0 1 9.723 0l18.345 10.603a9.736 9.736 0 0 1 4.862 8.43v21.207a9.736 9.736 0 0 1-4.862 8.43L6.928 98.798a9.714 9.714 0 0 1-9.723 0L-21.14 88.195a9.736 9.736 0 0 1-4.862-8.43V58.558a9.736 9.736 0 0 1 4.862-8.43l18.345-10.603Z" stroke="url(#paint14_linear_15644_89976)" stroke-width="2" mask="url(#path-16-inside-1_15644_89976)"/><path d="M64.416 39.525a9.714 9.714 0 0 1 9.723 0l18.345 10.603a9.736 9.736 0 0 1 4.862 8.43v21.207a9.736 9.736 0 0 1-4.862 8.43L74.139 98.798a9.714 9.714 0 0 1-9.723 0L46.07 88.195a9.736 9.736 0 0 1-4.862-8.43V58.558a9.736 9.736 0 0 1 4.862-8.43l18.345-10.603Z" stroke="url(#paint15_linear_15644_89976)" stroke-width="2" mask="url(#path-16-inside-1_15644_89976)"/><path d="M131.754 39.525a9.714 9.714 0 0 1 9.723 0l18.345 10.603a9.737 9.737 0 0 1 4.862 8.43v21.207a9.737 9.737 0 0 1-4.862 8.43l-18.345 10.603a9.714 9.714 0 0 1-9.723 0l-18.345-10.603a9.735 9.735 0 0 1-4.862-8.43V58.558a9.735 9.735 0 0 1 4.862-8.43l18.345-10.603Z" stroke="url(#paint16_linear_15644_89976)" stroke-width="2" mask="url(#path-16-inside-1_15644_89976)"/><path d="M198.901 39.525a9.714 9.714 0 0 1 9.723 0l18.346 10.603a9.736 9.736 0 0 1 4.861 8.43v21.207a9.736 9.736 0 0 1-4.861 8.43l-18.346 10.603a9.714 9.714 0 0 1-9.723 0l-18.345-10.603a9.736 9.736 0 0 1-4.861-8.43V58.558a9.736 9.736 0 0 1 4.861-8.43l18.345-10.603Z" stroke="url(#paint17_linear_15644_89976)" stroke-width="2" mask="url(#path-16-inside-1_15644_89976)"/><path d="M266.112 39.525a9.714 9.714 0 0 1 9.723 0l18.346 10.603a9.736 9.736 0 0 1 4.861 8.43v21.207a9.736 9.736 0 0 1-4.861 8.43l-18.346 10.603a9.714 9.714 0 0 1-9.723 0l-18.345-10.603a9.736 9.736 0 0 1-4.861-8.43V58.558a9.736 9.736 0 0 1 4.861-8.43l18.345-10.603Z" stroke="url(#paint18_linear_15644_89976)" stroke-width="2" mask="url(#path-16-inside-1_15644_89976)"/><path d="M333.323 39.525a9.714 9.714 0 0 1 9.723 0l18.346 10.603a9.736 9.736 0 0 1 4.861 8.43v21.207a9.736 9.736 0 0 1-4.861 8.43l-18.346 10.603a9.714 9.714 0 0 1-9.723 0l-18.345-10.603a9.736 9.736 0 0 1-4.861-8.43V58.558a9.736 9.736 0 0 1 4.861-8.43l18.345-10.603Z" stroke="url(#paint19_linear_15644_89976)" stroke-width="2" mask="url(#path-16-inside-1_15644_89976)"/><path d="M400.471 39.525a9.714 9.714 0 0 1 9.723 0l18.345 10.603a9.735 9.735 0 0 1 4.862 8.43v21.207a9.735 9.735 0 0 1-4.862 8.43l-18.345 10.603a9.714 9.714 0 0 1-9.723 0l-18.345-10.603a9.735 9.735 0 0 1-4.862-8.43V58.558a9.735 9.735 0 0 1 4.862-8.43l18.345-10.603Z" stroke="url(#paint20_linear_15644_89976)" stroke-width="2" mask="url(#path-16-inside-1_15644_89976)"/><path d="M467.682 39.525a9.714 9.714 0 0 1 9.723 0l18.345 10.603a9.735 9.735 0 0 1 4.862 8.43v21.207a9.735 9.735 0 0 1-4.862 8.43l-18.345 10.603a9.714 9.714 0 0 1-9.723 0l-18.345-10.603a9.737 9.737 0 0 1-4.862-8.43V58.558a9.737 9.737 0 0 1 4.862-8.43l18.345-10.603Z" stroke="url(#paint21_linear_15644_89976)" stroke-width="2" mask="url(#path-16-inside-1_15644_89976)"/><path d="M30.747 101.135a9.712 9.712 0 0 1 9.723 0l18.345 10.603a9.736 9.736 0 0 1 4.862 8.43v21.207a9.736 9.736 0 0 1-4.862 8.43L40.47 160.408a9.713 9.713 0 0 1-9.723 0l-18.345-10.603a9.736 9.736 0 0 1-4.862-8.43v-21.207a9.736 9.736 0 0 1 4.862-8.43l18.345-10.603Z" stroke="url(#paint22_linear_15644_89976)" stroke-width="2" mask="url(#path-16-inside-1_15644_89976)"/><path d="M98.085 101.135a9.713 9.713 0 0 1 9.723 0l18.345 10.603a9.737 9.737 0 0 1 4.862 8.43v21.207a9.737 9.737 0 0 1-4.862 8.43l-18.345 10.603a9.713 9.713 0 0 1-9.723 0L79.74 149.805a9.736 9.736 0 0 1-4.862-8.43v-21.207a9.736 9.736 0 0 1 4.862-8.43l18.345-10.603Z" stroke="url(#paint23_linear_15644_89976)" stroke-width="2" mask="url(#path-16-inside-1_15644_89976)"/><path d="M165.232 101.135a9.712 9.712 0 0 1 9.723 0l18.346 10.603a9.736 9.736 0 0 1 4.861 8.43v21.207a9.736 9.736 0 0 1-4.861 8.43l-18.346 10.603a9.713 9.713 0 0 1-9.723 0l-18.345-10.603a9.736 9.736 0 0 1-4.861-8.43v-21.207a9.736 9.736 0 0 1 4.861-8.43l18.345-10.603Z" stroke="url(#paint24_linear_15644_89976)" stroke-width="2" mask="url(#path-16-inside-1_15644_89976)"/><path d="M232.443 101.135a9.714 9.714 0 0 1 9.724 0l18.345 10.603a9.736 9.736 0 0 1 4.861 8.43v21.207a9.736 9.736 0 0 1-4.861 8.43l-18.345 10.603a9.714 9.714 0 0 1-9.724 0l-18.345-10.603a9.736 9.736 0 0 1-4.861-8.43v-21.207a9.736 9.736 0 0 1 4.861-8.43l18.345-10.603Z" stroke="url(#paint25_linear_15644_89976)" stroke-width="2" mask="url(#path-16-inside-1_15644_89976)"/><path d="M299.654 101.135a9.714 9.714 0 0 1 9.724 0l18.345 10.603a9.736 9.736 0 0 1 4.861 8.43v21.207a9.736 9.736 0 0 1-4.861 8.43l-18.345 10.603a9.714 9.714 0 0 1-9.724 0l-18.345-10.603a9.736 9.736 0 0 1-4.861-8.43v-21.207a9.736 9.736 0 0 1 4.861-8.43l18.345-10.603Z" stroke="url(#paint26_linear_15644_89976)" stroke-width="2" mask="url(#path-16-inside-1_15644_89976)"/><path d="M366.802 101.135a9.712 9.712 0 0 1 9.723 0l18.345 10.603a9.735 9.735 0 0 1 4.862 8.43v21.207a9.735 9.735 0 0 1-4.862 8.43l-18.345 10.603a9.713 9.713 0 0 1-9.723 0l-18.345-10.603a9.737 9.737 0 0 1-4.862-8.43v-21.207a9.737 9.737 0 0 1 4.862-8.43l18.345-10.603Z" stroke="url(#paint27_linear_15644_89976)" stroke-width="2" mask="url(#path-16-inside-1_15644_89976)"/><path d="M434.013 101.135a9.712 9.712 0 0 1 9.723 0l18.345 10.603a9.735 9.735 0 0 1 4.862 8.43v21.207a9.735 9.735 0 0 1-4.862 8.43l-18.345 10.603a9.713 9.713 0 0 1-9.723 0l-18.345-10.603a9.737 9.737 0 0 1-4.862-8.43v-21.207a9.737 9.737 0 0 1 4.862-8.43l18.345-10.603Z" stroke="url(#paint28_linear_15644_89976)" stroke-width="2" mask="url(#path-16-inside-1_15644_89976)"/><path d="M-2.795 162.745a9.713 9.713 0 0 1 9.723 0l18.345 10.603a9.737 9.737 0 0 1 4.862 8.43v21.207a9.736 9.736 0 0 1-4.862 8.43L6.928 222.018a9.713 9.713 0 0 1-9.723 0l-18.345-10.603a9.736 9.736 0 0 1-4.862-8.43v-21.207a9.737 9.737 0 0 1 4.862-8.43l18.345-10.603Z" stroke="url(#paint29_linear_15644_89976)" stroke-width="2" mask="url(#path-16-inside-1_15644_89976)"/><path d="M64.416 162.745a9.713 9.713 0 0 1 9.723 0l18.345 10.603a9.737 9.737 0 0 1 4.862 8.43v21.207a9.736 9.736 0 0 1-4.862 8.43l-18.345 10.603a9.713 9.713 0 0 1-9.723 0L46.07 211.415a9.736 9.736 0 0 1-4.862-8.43v-21.207a9.737 9.737 0 0 1 4.862-8.43l18.345-10.603Z" stroke="url(#paint30_linear_15644_89976)" stroke-width="2" mask="url(#path-16-inside-1_15644_89976)"/><path d="M131.754 162.745a9.713 9.713 0 0 1 9.723 0l18.345 10.603a9.738 9.738 0 0 1 4.862 8.43v21.207a9.737 9.737 0 0 1-4.862 8.43l-18.345 10.603a9.713 9.713 0 0 1-9.723 0l-18.345-10.603a9.735 9.735 0 0 1-4.862-8.43v-21.207a9.736 9.736 0 0 1 4.862-8.43l18.345-10.603Z" stroke="url(#paint31_linear_15644_89976)" stroke-width="2" mask="url(#path-16-inside-1_15644_89976)"/><path d="M198.901 162.745a9.713 9.713 0 0 1 9.723 0l18.346 10.603a9.737 9.737 0 0 1 4.861 8.43v21.207a9.736 9.736 0 0 1-4.861 8.43l-18.346 10.603a9.713 9.713 0 0 1-9.723 0l-18.345-10.603a9.736 9.736 0 0 1-4.861-8.43v-21.207a9.737 9.737 0 0 1 4.861-8.43l18.345-10.603Z" stroke="url(#paint32_linear_15644_89976)" stroke-width="2" mask="url(#path-16-inside-1_15644_89976)"/><path d="M266.112 162.745a9.713 9.713 0 0 1 9.723 0l18.346 10.603a9.737 9.737 0 0 1 4.861 8.43v21.207a9.736 9.736 0 0 1-4.861 8.43l-18.346 10.603a9.713 9.713 0 0 1-9.723 0l-18.345-10.603a9.736 9.736 0 0 1-4.861-8.43v-21.207a9.737 9.737 0 0 1 4.861-8.43l18.345-10.603Z" stroke="url(#paint33_linear_15644_89976)" stroke-width="2" mask="url(#path-16-inside-1_15644_89976)"/><path d="M333.323 162.745a9.713 9.713 0 0 1 9.723 0l18.346 10.603a9.737 9.737 0 0 1 4.861 8.43v21.207a9.736 9.736 0 0 1-4.861 8.43l-18.346 10.603a9.713 9.713 0 0 1-9.723 0l-18.345-10.603a9.736 9.736 0 0 1-4.861-8.43v-21.207a9.737 9.737 0 0 1 4.861-8.43l18.345-10.603Z" stroke="url(#paint34_linear_15644_89976)" stroke-width="2" mask="url(#path-16-inside-1_15644_89976)"/><path d="M400.471 162.745a9.713 9.713 0 0 1 9.723 0l18.345 10.603a9.736 9.736 0 0 1 4.862 8.43v21.207a9.735 9.735 0 0 1-4.862 8.43l-18.345 10.603a9.713 9.713 0 0 1-9.723 0l-18.345-10.603a9.735 9.735 0 0 1-4.862-8.43v-21.207a9.736 9.736 0 0 1 4.862-8.43l18.345-10.603Z" stroke="url(#paint35_linear_15644_89976)" stroke-width="2" mask="url(#path-16-inside-1_15644_89976)"/><path d="M467.682 162.745a9.713 9.713 0 0 1 9.723 0l18.345 10.603a9.736 9.736 0 0 1 4.862 8.43v21.207a9.735 9.735 0 0 1-4.862 8.43l-18.345 10.603a9.713 9.713 0 0 1-9.723 0l-18.345-10.603a9.737 9.737 0 0 1-4.862-8.43v-21.207a9.738 9.738 0 0 1 4.862-8.43l18.345-10.603Z" stroke="url(#paint36_linear_15644_89976)" stroke-width="2" mask="url(#path-16-inside-1_15644_89976)"/><path d="M972.085-22.085a9.713 9.713 0 0 1 9.723 0l18.342 10.603a9.731 9.731 0 0 1 4.86 8.43v21.207a9.731 9.731 0 0 1-4.86 8.43l-18.342 10.603a9.714 9.714 0 0 1-9.723 0L953.74 26.585a9.735 9.735 0 0 1-4.862-8.43V-3.052a9.735 9.735 0 0 1 4.862-8.43l18.345-10.604Z" stroke="url(#paint37_linear_15644_89976)" stroke-width="2" mask="url(#path-16-inside-1_15644_89976)"/><path d="M1039.23-22.085a9.726 9.726 0 0 1 9.73 0l18.34 10.603a9.731 9.731 0 0 1 4.86 8.43v21.207a9.731 9.731 0 0 1-4.86 8.43l-18.34 10.603a9.727 9.727 0 0 1-9.73 0l-18.34-10.603a9.731 9.731 0 0 1-4.86-8.43V-3.052a9.731 9.731 0 0 1 4.86-8.43l18.34-10.604Z" stroke="url(#paint38_linear_15644_89976)" stroke-width="2" mask="url(#path-16-inside-1_15644_89976)"/><path d="M1106.44-22.085a9.726 9.726 0 0 1 9.73 0l18.34 10.603a9.731 9.731 0 0 1 4.86 8.43v21.207a9.731 9.731 0 0 1-4.86 8.43l-18.34 10.603a9.727 9.727 0 0 1-9.73 0l-18.34-10.603a9.731 9.731 0 0 1-4.86-8.43V-3.052a9.731 9.731 0 0 1 4.86-8.43l18.34-10.604Z" stroke="url(#paint39_linear_15644_89976)" stroke-width="2" mask="url(#path-16-inside-1_15644_89976)"/><path d="M1173.65-22.085a9.726 9.726 0 0 1 9.73 0l18.34 10.603a9.731 9.731 0 0 1 4.86 8.43v21.207a9.731 9.731 0 0 1-4.86 8.43l-18.34 10.603a9.727 9.727 0 0 1-9.73 0l-18.34-10.603a9.731 9.731 0 0 1-4.86-8.43V-3.052a9.731 9.731 0 0 1 4.86-8.43l18.34-10.604Z" stroke="url(#paint40_linear_15644_89976)" stroke-width="2" mask="url(#path-16-inside-1_15644_89976)"/><path d="M1240.8-22.085a9.726 9.726 0 0 1 9.73 0l18.34 10.603a9.731 9.731 0 0 1 4.86 8.43v21.207a9.731 9.731 0 0 1-4.86 8.43l-18.34 10.603a9.727 9.727 0 0 1-9.73 0l-18.34-10.603a9.731 9.731 0 0 1-4.86-8.43V-3.052a9.731 9.731 0 0 1 4.86-8.43l18.34-10.604Z" stroke="url(#paint41_linear_15644_89976)" stroke-width="2" mask="url(#path-16-inside-1_15644_89976)"/><path d="M1308.01-22.085a9.726 9.726 0 0 1 9.73 0l18.34 10.603a9.731 9.731 0 0 1 4.86 8.43v21.207a9.731 9.731 0 0 1-4.86 8.43l-18.34 10.603a9.727 9.727 0 0 1-9.73 0l-18.34-10.603a9.731 9.731 0 0 1-4.86-8.43V-3.052a9.731 9.731 0 0 1 4.86-8.43l18.34-10.604Z" stroke="url(#paint42_linear_15644_89976)" stroke-width="2" mask="url(#path-16-inside-1_15644_89976)"/><path d="M1005.75 39.525a9.727 9.727 0 0 1 9.73 0l18.34 10.603a9.731 9.731 0 0 1 4.86 8.43v21.207a9.731 9.731 0 0 1-4.86 8.43l-18.34 10.603a9.727 9.727 0 0 1-9.73 0l-18.341-10.603a9.735 9.735 0 0 1-4.862-8.43V58.558a9.735 9.735 0 0 1 4.862-8.43l18.341-10.603Z" stroke="url(#paint43_linear_15644_89976)" stroke-width="2" mask="url(#path-16-inside-1_15644_89976)"/><path d="M1072.9 39.525a9.708 9.708 0 0 1 9.72 0l18.35 10.603a9.731 9.731 0 0 1 4.86 8.43v21.207a9.731 9.731 0 0 1-4.86 8.43l-18.35 10.603a9.708 9.708 0 0 1-9.72 0l-18.34-10.603a9.74 9.74 0 0 1-4.87-8.43V58.558a9.74 9.74 0 0 1 4.87-8.43l18.34-10.603Z" stroke="url(#paint44_linear_15644_89976)" stroke-width="2" mask="url(#path-16-inside-1_15644_89976)"/><path d="M1140.11 39.525a9.727 9.727 0 0 1 9.73 0l18.34 10.603a9.731 9.731 0 0 1 4.86 8.43v21.207a9.731 9.731 0 0 1-4.86 8.43l-18.34 10.603a9.727 9.727 0 0 1-9.73 0l-18.34-10.603a9.731 9.731 0 0 1-4.86-8.43V58.558a9.731 9.731 0 0 1 4.86-8.43l18.34-10.603Z" stroke="url(#paint45_linear_15644_89976)" stroke-width="2" mask="url(#path-16-inside-1_15644_89976)"/><path d="M1207.32 39.525a9.727 9.727 0 0 1 9.73 0l18.34 10.603a9.731 9.731 0 0 1 4.86 8.43v21.207a9.731 9.731 0 0 1-4.86 8.43l-18.34 10.603a9.727 9.727 0 0 1-9.73 0l-18.34-10.603a9.731 9.731 0 0 1-4.86-8.43V58.558a9.731 9.731 0 0 1 4.86-8.43l18.34-10.603Z" stroke="url(#paint46_linear_15644_89976)" stroke-width="2" mask="url(#path-16-inside-1_15644_89976)"/><path d="M1274.47 39.525a9.708 9.708 0 0 1 9.72 0l18.35 10.603a9.731 9.731 0 0 1 4.86 8.43v21.207a9.731 9.731 0 0 1-4.86 8.43l-18.35 10.603a9.708 9.708 0 0 1-9.72 0l-18.34-10.603a9.74 9.74 0 0 1-4.87-8.43V58.558a9.74 9.74 0 0 1 4.87-8.43l18.34-10.603Z" stroke="url(#paint47_linear_15644_89976)" stroke-width="2" mask="url(#path-16-inside-1_15644_89976)"/><path d="M1341.68 39.525a9.727 9.727 0 0 1 9.73 0l18.34 10.603a9.731 9.731 0 0 1 4.86 8.43v21.207a9.731 9.731 0 0 1-4.86 8.43l-18.34 10.603a9.727 9.727 0 0 1-9.73 0l-18.34-10.603a9.731 9.731 0 0 1-4.86-8.43V58.558a9.731 9.731 0 0 1 4.86-8.43l18.34-10.603Z" stroke="url(#paint48_linear_15644_89976)" stroke-width="2" mask="url(#path-16-inside-1_15644_89976)"/><path d="M972.085 101.135a9.712 9.712 0 0 1 9.723 0l18.342 10.603a9.731 9.731 0 0 1 4.86 8.43v21.207a9.731 9.731 0 0 1-4.86 8.43l-18.342 10.603a9.713 9.713 0 0 1-9.723 0l-18.345-10.603a9.735 9.735 0 0 1-4.862-8.43v-21.207a9.735 9.735 0 0 1 4.862-8.43l18.345-10.603Z" stroke="url(#paint49_linear_15644_89976)" stroke-width="2" mask="url(#path-16-inside-1_15644_89976)"/><path d="M1039.23 101.135a9.725 9.725 0 0 1 9.73 0l18.34 10.603a9.731 9.731 0 0 1 4.86 8.43v21.207a9.731 9.731 0 0 1-4.86 8.43l-18.34 10.603a9.726 9.726 0 0 1-9.73 0l-18.34-10.603a9.731 9.731 0 0 1-4.86-8.43v-21.207a9.731 9.731 0 0 1 4.86-8.43l18.34-10.603Z" stroke="url(#paint50_linear_15644_89976)" stroke-width="2" mask="url(#path-16-inside-1_15644_89976)"/><path d="M1106.44 101.135a9.725 9.725 0 0 1 9.73 0l18.34 10.603a9.731 9.731 0 0 1 4.86 8.43v21.207a9.731 9.731 0 0 1-4.86 8.43l-18.34 10.603a9.726 9.726 0 0 1-9.73 0l-18.34-10.603a9.731 9.731 0 0 1-4.86-8.43v-21.207a9.731 9.731 0 0 1 4.86-8.43l18.34-10.603Z" stroke="url(#paint51_linear_15644_89976)" stroke-width="2" mask="url(#path-16-inside-1_15644_89976)"/><path d="M1173.65 101.135a9.725 9.725 0 0 1 9.73 0l18.34 10.603a9.731 9.731 0 0 1 4.86 8.43v21.207a9.731 9.731 0 0 1-4.86 8.43l-18.34 10.603a9.726 9.726 0 0 1-9.73 0l-18.34-10.603a9.731 9.731 0 0 1-4.86-8.43v-21.207a9.731 9.731 0 0 1 4.86-8.43l18.34-10.603Z" stroke="url(#paint52_linear_15644_89976)" stroke-width="2" mask="url(#path-16-inside-1_15644_89976)"/><path d="M1240.8 101.135a9.725 9.725 0 0 1 9.73 0l18.34 10.603a9.731 9.731 0 0 1 4.86 8.43v21.207a9.731 9.731 0 0 1-4.86 8.43l-18.34 10.603a9.726 9.726 0 0 1-9.73 0l-18.34-10.603a9.731 9.731 0 0 1-4.86-8.43v-21.207a9.731 9.731 0 0 1 4.86-8.43l18.34-10.603Z" stroke="url(#paint53_linear_15644_89976)" stroke-width="2" mask="url(#path-16-inside-1_15644_89976)"/><path d="M1308.01 101.135a9.725 9.725 0 0 1 9.73 0l18.34 10.603a9.731 9.731 0 0 1 4.86 8.43v21.207a9.731 9.731 0 0 1-4.86 8.43l-18.34 10.603a9.726 9.726 0 0 1-9.73 0l-18.34-10.603a9.731 9.731 0 0 1-4.86-8.43v-21.207a9.731 9.731 0 0 1 4.86-8.43l18.34-10.603Z" stroke="url(#paint54_linear_15644_89976)" stroke-width="2" mask="url(#path-16-inside-1_15644_89976)"/><path d="M1005.75 162.745a9.726 9.726 0 0 1 9.73 0l18.34 10.603a9.732 9.732 0 0 1 4.86 8.43v21.207a9.731 9.731 0 0 1-4.86 8.43l-18.34 10.603a9.726 9.726 0 0 1-9.73 0l-18.341-10.603a9.735 9.735 0 0 1-4.862-8.43v-21.207a9.736 9.736 0 0 1 4.862-8.43l18.341-10.603Z" stroke="url(#paint55_linear_15644_89976)" stroke-width="2" mask="url(#path-16-inside-1_15644_89976)"/><path d="M1072.9 162.745a9.707 9.707 0 0 1 9.72 0l18.35 10.603a9.732 9.732 0 0 1 4.86 8.43v21.207a9.731 9.731 0 0 1-4.86 8.43l-18.35 10.603a9.707 9.707 0 0 1-9.72 0l-18.34-10.603a9.74 9.74 0 0 1-4.87-8.43v-21.207a9.742 9.742 0 0 1 4.87-8.43l18.34-10.603Z" stroke="url(#paint56_linear_15644_89976)" stroke-width="2" mask="url(#path-16-inside-1_15644_89976)"/><path d="M1140.11 162.745a9.726 9.726 0 0 1 9.73 0l18.34 10.603a9.732 9.732 0 0 1 4.86 8.43v21.207a9.731 9.731 0 0 1-4.86 8.43l-18.34 10.603a9.726 9.726 0 0 1-9.73 0l-18.34-10.603a9.731 9.731 0 0 1-4.86-8.43v-21.207a9.732 9.732 0 0 1 4.86-8.43l18.34-10.603Z" stroke="url(#paint57_linear_15644_89976)" stroke-width="2" mask="url(#path-16-inside-1_15644_89976)"/><path d="M1207.32 162.745a9.726 9.726 0 0 1 9.73 0l18.34 10.603a9.732 9.732 0 0 1 4.86 8.43v21.207a9.731 9.731 0 0 1-4.86 8.43l-18.34 10.603a9.726 9.726 0 0 1-9.73 0l-18.34-10.603a9.731 9.731 0 0 1-4.86-8.43v-21.207a9.732 9.732 0 0 1 4.86-8.43l18.34-10.603Z" stroke="url(#paint58_linear_15644_89976)" stroke-width="2" mask="url(#path-16-inside-1_15644_89976)"/><path d="M1274.47 162.745a9.707 9.707 0 0 1 9.72 0l18.35 10.603a9.732 9.732 0 0 1 4.86 8.43v21.207a9.731 9.731 0 0 1-4.86 8.43l-18.35 10.603a9.707 9.707 0 0 1-9.72 0l-18.34-10.603a9.74 9.74 0 0 1-4.87-8.43v-21.207a9.742 9.742 0 0 1 4.87-8.43l18.34-10.603Z" stroke="url(#paint59_linear_15644_89976)" stroke-width="2" mask="url(#path-16-inside-1_15644_89976)"/><path d="M1341.68 162.745a9.726 9.726 0 0 1 9.73 0l18.34 10.603a9.732 9.732 0 0 1 4.86 8.43v21.207a9.731 9.731 0 0 1-4.86 8.43l-18.34 10.603a9.726 9.726 0 0 1-9.73 0l-18.34-10.603a9.731 9.731 0 0 1-4.86-8.43v-21.207a9.732 9.732 0 0 1 4.86-8.43l18.34-10.603Z" stroke="url(#paint60_linear_15644_89976)" stroke-width="2" mask="url(#path-16-inside-1_15644_89976)"/><path d="M501.747-22.085a9.713 9.713 0 0 1 9.723 0l18.345 10.603a9.737 9.737 0 0 1 4.862 8.43v21.207a9.737 9.737 0 0 1-4.862 8.43L511.47 37.188a9.714 9.714 0 0 1-9.723 0l-18.345-10.603a9.735 9.735 0 0 1-4.862-8.43V-3.052a9.735 9.735 0 0 1 4.862-8.43l18.345-10.604Z" stroke="url(#paint61_linear_15644_89976)" stroke-width="2" mask="url(#path-16-inside-1_15644_89976)"/><path d="M569.085-22.085a9.713 9.713 0 0 1 9.723 0l18.345 10.603a9.737 9.737 0 0 1 4.862 8.43v21.207a9.737 9.737 0 0 1-4.862 8.43l-18.345 10.603a9.714 9.714 0 0 1-9.723 0L550.74 26.585a9.735 9.735 0 0 1-4.862-8.43V-3.052a9.735 9.735 0 0 1 4.862-8.43l18.345-10.604Z" stroke="url(#paint62_linear_15644_89976)" stroke-width="2" mask="url(#path-16-inside-1_15644_89976)"/><path d="M636.232-22.085a9.713 9.713 0 0 1 9.723 0l18.346 10.603a9.736 9.736 0 0 1 4.861 8.43v21.207a9.736 9.736 0 0 1-4.861 8.43l-18.346 10.603a9.714 9.714 0 0 1-9.723 0l-18.345-10.603a9.736 9.736 0 0 1-4.861-8.43V-3.052a9.736 9.736 0 0 1 4.861-8.43l18.345-10.604Z" stroke="url(#paint63_linear_15644_89976)" stroke-width="2" mask="url(#path-16-inside-1_15644_89976)"/><path d="M703.443-22.085a9.715 9.715 0 0 1 9.724 0l18.345 10.603a9.736 9.736 0 0 1 4.861 8.43v21.207a9.736 9.736 0 0 1-4.861 8.43l-18.345 10.603a9.715 9.715 0 0 1-9.724 0l-18.345-10.603a9.736 9.736 0 0 1-4.861-8.43V-3.052a9.736 9.736 0 0 1 4.861-8.43l18.345-10.604Z" stroke="url(#paint64_linear_15644_89976)" stroke-width="2" mask="url(#path-16-inside-1_15644_89976)"/><path d="M770.654-22.085a9.715 9.715 0 0 1 9.724 0l18.345 10.603a9.736 9.736 0 0 1 4.861 8.43v21.207a9.736 9.736 0 0 1-4.861 8.43l-18.345 10.603a9.715 9.715 0 0 1-9.724 0l-18.345-10.603a9.736 9.736 0 0 1-4.861-8.43V-3.052a9.736 9.736 0 0 1 4.861-8.43l18.345-10.604Z" stroke="url(#paint65_linear_15644_89976)" stroke-width="2" mask="url(#path-16-inside-1_15644_89976)"/><path d="M837.802-22.085a9.713 9.713 0 0 1 9.723 0l18.345 10.603a9.735 9.735 0 0 1 4.862 8.43v21.207a9.735 9.735 0 0 1-4.862 8.43l-18.345 10.603a9.714 9.714 0 0 1-9.723 0l-18.345-10.603a9.737 9.737 0 0 1-4.862-8.43V-3.052a9.737 9.737 0 0 1 4.862-8.43l18.345-10.604Z" stroke="url(#paint66_linear_15644_89976)" stroke-width="2" mask="url(#path-16-inside-1_15644_89976)"/><path d="M905.013-22.085a9.713 9.713 0 0 1 9.723 0l18.345 10.603a9.735 9.735 0 0 1 4.862 8.43v21.207a9.735 9.735 0 0 1-4.862 8.43l-18.345 10.603a9.714 9.714 0 0 1-9.723 0l-18.345-10.603a9.737 9.737 0 0 1-4.862-8.43V-3.052a9.737 9.737 0 0 1 4.862-8.43l18.345-10.604Z" stroke="url(#paint67_linear_15644_89976)" stroke-width="2" mask="url(#path-16-inside-1_15644_89976)"/><path d="M535.416 39.525a9.714 9.714 0 0 1 9.723 0l18.345 10.603a9.737 9.737 0 0 1 4.862 8.43v21.207a9.737 9.737 0 0 1-4.862 8.43l-18.345 10.603a9.714 9.714 0 0 1-9.723 0l-18.345-10.603a9.735 9.735 0 0 1-4.862-8.43V58.558a9.735 9.735 0 0 1 4.862-8.43l18.345-10.603Z" stroke="url(#paint68_linear_15644_89976)" stroke-width="2" mask="url(#path-16-inside-1_15644_89976)"/><path d="M602.754 39.525a9.714 9.714 0 0 1 9.723 0l18.345 10.603a9.736 9.736 0 0 1 4.861 8.43v21.207a9.736 9.736 0 0 1-4.861 8.43l-18.345 10.603a9.714 9.714 0 0 1-9.723 0l-18.345-10.603a9.735 9.735 0 0 1-4.862-8.43V58.558a9.735 9.735 0 0 1 4.862-8.43l18.345-10.603Z" stroke="url(#paint69_linear_15644_89976)" stroke-width="2" mask="url(#path-16-inside-1_15644_89976)"/><path d="M669.901 39.525a9.714 9.714 0 0 1 9.723 0l18.346 10.603a9.736 9.736 0 0 1 4.861 8.43v21.207a9.736 9.736 0 0 1-4.861 8.43l-18.346 10.603a9.714 9.714 0 0 1-9.723 0l-18.345-10.603a9.736 9.736 0 0 1-4.861-8.43V58.558a9.736 9.736 0 0 1 4.861-8.43l18.345-10.603Z" stroke="url(#paint70_linear_15644_89976)" stroke-width="2" mask="url(#path-16-inside-1_15644_89976)"/><path d="M737.112 39.525a9.714 9.714 0 0 1 9.723 0l18.346 10.603a9.736 9.736 0 0 1 4.861 8.43v21.207a9.736 9.736 0 0 1-4.861 8.43l-18.346 10.603a9.714 9.714 0 0 1-9.723 0l-18.345-10.603a9.736 9.736 0 0 1-4.861-8.43V58.558a9.736 9.736 0 0 1 4.861-8.43l18.345-10.603Z" stroke="url(#paint71_linear_15644_89976)" stroke-width="2" mask="url(#path-16-inside-1_15644_89976)"/><path d="M804.323 39.525a9.714 9.714 0 0 1 9.723 0l18.346 10.603a9.736 9.736 0 0 1 4.861 8.43v21.207a9.736 9.736 0 0 1-4.861 8.43l-18.346 10.603a9.714 9.714 0 0 1-9.723 0l-18.345-10.603a9.736 9.736 0 0 1-4.861-8.43V58.558a9.736 9.736 0 0 1 4.861-8.43l18.345-10.603Z" stroke="url(#paint72_linear_15644_89976)" stroke-width="2" mask="url(#path-16-inside-1_15644_89976)"/><path d="M871.471 39.525a9.714 9.714 0 0 1 9.723 0l18.345 10.603a9.735 9.735 0 0 1 4.862 8.43v21.207a9.735 9.735 0 0 1-4.862 8.43l-18.345 10.603a9.714 9.714 0 0 1-9.723 0l-18.345-10.603a9.735 9.735 0 0 1-4.862-8.43V58.558a9.735 9.735 0 0 1 4.862-8.43l18.345-10.603Z" stroke="url(#paint73_linear_15644_89976)" stroke-width="2" mask="url(#path-16-inside-1_15644_89976)"/><path d="M938.682 39.525a9.714 9.714 0 0 1 9.723 0l18.345 10.603a9.735 9.735 0 0 1 4.862 8.43v21.207a9.735 9.735 0 0 1-4.862 8.43l-18.345 10.603a9.714 9.714 0 0 1-9.723 0l-18.345-10.603a9.737 9.737 0 0 1-4.862-8.43V58.558a9.737 9.737 0 0 1 4.862-8.43l18.345-10.603Z" stroke="url(#paint74_linear_15644_89976)" stroke-width="2" mask="url(#path-16-inside-1_15644_89976)"/><path d="M501.747 101.135a9.712 9.712 0 0 1 9.723 0l18.345 10.603a9.737 9.737 0 0 1 4.862 8.43v21.207a9.737 9.737 0 0 1-4.862 8.43l-18.345 10.603a9.713 9.713 0 0 1-9.723 0l-18.345-10.603a9.735 9.735 0 0 1-4.862-8.43v-21.207a9.735 9.735 0 0 1 4.862-8.43l18.345-10.603Z" stroke="url(#paint75_linear_15644_89976)" stroke-width="2" mask="url(#path-16-inside-1_15644_89976)"/><path d="M569.085 101.135a9.712 9.712 0 0 1 9.723 0l18.345 10.603a9.737 9.737 0 0 1 4.862 8.43v21.207a9.737 9.737 0 0 1-4.862 8.43l-18.345 10.603a9.713 9.713 0 0 1-9.723 0l-18.345-10.603a9.735 9.735 0 0 1-4.862-8.43v-21.207a9.735 9.735 0 0 1 4.862-8.43l18.345-10.603Z" stroke="url(#paint76_linear_15644_89976)" stroke-width="2" mask="url(#path-16-inside-1_15644_89976)"/><path d="M636.232 101.135a9.712 9.712 0 0 1 9.723 0l18.346 10.603a9.736 9.736 0 0 1 4.861 8.43v21.207a9.736 9.736 0 0 1-4.861 8.43l-18.346 10.603a9.713 9.713 0 0 1-9.723 0l-18.345-10.603a9.736 9.736 0 0 1-4.861-8.43v-21.207a9.736 9.736 0 0 1 4.861-8.43l18.345-10.603Z" stroke="url(#paint77_linear_15644_89976)" stroke-width="2" mask="url(#path-16-inside-1_15644_89976)"/><path d="M703.443 101.135a9.714 9.714 0 0 1 9.724 0l18.345 10.603a9.736 9.736 0 0 1 4.861 8.43v21.207a9.736 9.736 0 0 1-4.861 8.43l-18.345 10.603a9.714 9.714 0 0 1-9.724 0l-18.345-10.603a9.736 9.736 0 0 1-4.861-8.43v-21.207a9.736 9.736 0 0 1 4.861-8.43l18.345-10.603Z" stroke="url(#paint78_linear_15644_89976)" stroke-width="2" mask="url(#path-16-inside-1_15644_89976)"/><path d="M770.654 101.135a9.714 9.714 0 0 1 9.724 0l18.345 10.603a9.736 9.736 0 0 1 4.861 8.43v21.207a9.736 9.736 0 0 1-4.861 8.43l-18.345 10.603a9.714 9.714 0 0 1-9.724 0l-18.345-10.603a9.736 9.736 0 0 1-4.861-8.43v-21.207a9.736 9.736 0 0 1 4.861-8.43l18.345-10.603Z" stroke="url(#paint79_linear_15644_89976)" stroke-width="2" mask="url(#path-16-inside-1_15644_89976)"/><path d="M837.802 101.135a9.712 9.712 0 0 1 9.723 0l18.345 10.603a9.735 9.735 0 0 1 4.862 8.43v21.207a9.735 9.735 0 0 1-4.862 8.43l-18.345 10.603a9.713 9.713 0 0 1-9.723 0l-18.345-10.603a9.737 9.737 0 0 1-4.862-8.43v-21.207a9.737 9.737 0 0 1 4.862-8.43l18.345-10.603Z" stroke="url(#paint80_linear_15644_89976)" stroke-width="2" mask="url(#path-16-inside-1_15644_89976)"/><path d="M905.013 101.135a9.712 9.712 0 0 1 9.723 0l18.345 10.603a9.735 9.735 0 0 1 4.862 8.43v21.207a9.735 9.735 0 0 1-4.862 8.43l-18.345 10.603a9.713 9.713 0 0 1-9.723 0l-18.345-10.603a9.737 9.737 0 0 1-4.862-8.43v-21.207a9.737 9.737 0 0 1 4.862-8.43l18.345-10.603Z" stroke="url(#paint81_linear_15644_89976)" stroke-width="2" mask="url(#path-16-inside-1_15644_89976)"/><path d="M535.416 162.745a9.713 9.713 0 0 1 9.723 0l18.345 10.603a9.738 9.738 0 0 1 4.862 8.43v21.207a9.737 9.737 0 0 1-4.862 8.43l-18.345 10.603a9.713 9.713 0 0 1-9.723 0l-18.345-10.603a9.735 9.735 0 0 1-4.862-8.43v-21.207a9.736 9.736 0 0 1 4.862-8.43l18.345-10.603Z" stroke="url(#paint82_linear_15644_89976)" stroke-width="2" mask="url(#path-16-inside-1_15644_89976)"/><path d="M602.754 162.745a9.713 9.713 0 0 1 9.723 0l18.345 10.603a9.737 9.737 0 0 1 4.861 8.43v21.207a9.736 9.736 0 0 1-4.861 8.43l-18.345 10.603a9.713 9.713 0 0 1-9.723 0l-18.345-10.603a9.735 9.735 0 0 1-4.862-8.43v-21.207a9.736 9.736 0 0 1 4.862-8.43l18.345-10.603Z" stroke="url(#paint83_linear_15644_89976)" stroke-width="2" mask="url(#path-16-inside-1_15644_89976)"/><path d="M669.901 162.745a9.713 9.713 0 0 1 9.723 0l18.346 10.603a9.737 9.737 0 0 1 4.861 8.43v21.207a9.736 9.736 0 0 1-4.861 8.43l-18.346 10.603a9.713 9.713 0 0 1-9.723 0l-18.345-10.603a9.736 9.736 0 0 1-4.861-8.43v-21.207a9.737 9.737 0 0 1 4.861-8.43l18.345-10.603Z" stroke="url(#paint84_linear_15644_89976)" stroke-width="2" mask="url(#path-16-inside-1_15644_89976)"/><path d="M737.112 162.745a9.713 9.713 0 0 1 9.723 0l18.346 10.603a9.737 9.737 0 0 1 4.861 8.43v21.207a9.736 9.736 0 0 1-4.861 8.43l-18.346 10.603a9.713 9.713 0 0 1-9.723 0l-18.345-10.603a9.736 9.736 0 0 1-4.861-8.43v-21.207a9.737 9.737 0 0 1 4.861-8.43l18.345-10.603Z" stroke="url(#paint85_linear_15644_89976)" stroke-width="2" mask="url(#path-16-inside-1_15644_89976)"/><path d="M804.323 162.745a9.713 9.713 0 0 1 9.723 0l18.346 10.603a9.737 9.737 0 0 1 4.861 8.43v21.207a9.736 9.736 0 0 1-4.861 8.43l-18.346 10.603a9.713 9.713 0 0 1-9.723 0l-18.345-10.603a9.736 9.736 0 0 1-4.861-8.43v-21.207a9.737 9.737 0 0 1 4.861-8.43l18.345-10.603Z" stroke="url(#paint86_linear_15644_89976)" stroke-width="2" mask="url(#path-16-inside-1_15644_89976)"/><path d="M871.471 162.745a9.713 9.713 0 0 1 9.723 0l18.345 10.603a9.736 9.736 0 0 1 4.862 8.43v21.207a9.735 9.735 0 0 1-4.862 8.43l-18.345 10.603a9.713 9.713 0 0 1-9.723 0l-18.345-10.603a9.735 9.735 0 0 1-4.862-8.43v-21.207a9.736 9.736 0 0 1 4.862-8.43l18.345-10.603Z" stroke="url(#paint87_linear_15644_89976)" stroke-width="2" mask="url(#path-16-inside-1_15644_89976)"/><path d="M938.682 162.745a9.713 9.713 0 0 1 9.723 0l18.345 10.603a9.736 9.736 0 0 1 4.862 8.43v21.207a9.735 9.735 0 0 1-4.862 8.43l-18.345 10.603a9.713 9.713 0 0 1-9.723 0l-18.345-10.603a9.737 9.737 0 0 1-4.862-8.43v-21.207a9.738 9.738 0 0 1 4.862-8.43l18.345-10.603Z" stroke="url(#paint88_linear_15644_89976)" stroke-width="2" mask="url(#path-16-inside-1_15644_89976)"/><path d="M637.469 112.812a6.061 6.061 0 0 1 6.062 0l11.438 6.604a6.061 6.061 0 0 1 3.031 5.25v13.207a6.061 6.061 0 0 1-3.031 5.25l-11.438 6.604a6.061 6.061 0 0 1-6.062 0l-11.438-6.604a6.061 6.061 0 0 1-3.031-5.25v-13.207a6.061 6.061 0 0 1 3.031-5.25l11.438-6.604Z" fill="#ECE2F1"/><path d="M637.469 112.812a6.061 6.061 0 0 1 6.062 0l11.438 6.604a6.061 6.061 0 0 1 3.031 5.25v13.207a6.061 6.061 0 0 1-3.031 5.25l-11.438 6.604a6.061 6.061 0 0 1-6.062 0l-11.438-6.604a6.061 6.061 0 0 1-3.031-5.25v-13.207a6.061 6.061 0 0 1 3.031-5.25l11.438-6.604Zm102 60a6.061 6.061 0 0 1 6.062 0l11.438 6.604a6.061 6.061 0 0 1 3.031 5.25v13.207a6.061 6.061 0 0 1-3.031 5.25l-11.438 6.604a6.061 6.061 0 0 1-6.062 0l-11.438-6.604a6.061 6.061 0 0 1-3.031-5.25v-13.207a6.061 6.061 0 0 1 3.031-5.25l11.438-6.604Z" fill="#E6E8F9"/><path d="M362.578 141h9.91c2.064 0 3.836-.4 5.318-1.201a8.18 8.18 0 0 0 3.422-3.447c.8-1.498 1.201-3.288 1.201-5.372 0-2.076-.401-3.86-1.201-5.351a8.159 8.159 0 0 0-3.403-3.428c-1.474-.801-3.234-1.201-5.277-1.201h-4.405a2.857 2.857 0 0 0-2.857 2.857v9.943c0 .598.693.931 1.16.557l4.711-3.768a.572.572 0 0 0-.357-1.018h-.647a.571.571 0 0 1-.572-.571v-2.948c0-.789.64-1.429 1.429-1.429h1.309c1.27 0 2.338.221 3.205.664.866.443 1.518 1.133 1.954 2.07.443.938.665 2.146.665 3.623 0 1.491-.222 2.709-.665 3.653-.436.937-1.091 1.631-1.964 2.08-.867.443-1.935.664-3.204.664h-2.739l-4.082.049a.568.568 0 0 0-.359.133l-2.918 2.431a.571.571 0 0 0 .366 1.01Zm-237-63h9.91c2.064 0 3.836-.4 5.318-1.201a8.177 8.177 0 0 0 3.422-3.447c.8-1.498 1.201-3.288 1.201-5.371 0-2.077-.401-3.861-1.201-5.352a8.16 8.16 0 0 0-3.403-3.428c-1.474-.8-3.234-1.201-5.277-1.201h-4.405a2.857 2.857 0 0 0-2.857 2.857V70.8c0 .599.693.931 1.16.557l4.711-3.768a.572.572 0 0 0-.357-1.018h-.647a.572.572 0 0 1-.572-.571v-2.948c0-.79.64-1.429 1.429-1.429h1.309c1.27 0 2.338.221 3.205.664.866.443 1.518 1.133 1.954 2.07.443.938.665 2.146.665 3.624 0 1.49-.222 2.708-.665 3.652-.436.937-1.091 1.63-1.964 2.08-.867.443-1.935.664-3.204.664h-2.739l-4.082.05a.57.57 0 0 0-.359.131l-2.918 2.432a.572.572 0 0 0 .366 1.01Z" fill="#E3E5FB"/><path d="M1168.58 140h9.91c2.06 0 3.83-.4 5.32-1.201a8.26 8.26 0 0 0 3.42-3.447c.8-1.498 1.2-3.288 1.2-5.372 0-2.076-.4-3.86-1.2-5.351-.8-1.491-1.93-2.634-3.4-3.428-1.48-.801-3.24-1.201-5.28-1.201h-4.41a2.85 2.85 0 0 0-2.85 2.857v9.943c0 .598.69.931 1.16.557l4.71-3.768c.42-.337.18-1.018-.36-1.018h-.65a.573.573 0 0 1-.57-.571v-2.948c0-.789.64-1.429 1.43-1.429h1.31c1.27 0 2.34.221 3.2.664.87.443 1.52 1.133 1.96 2.07.44.938.66 2.146.66 3.623 0 1.491-.22 2.709-.66 3.653-.44.937-1.09 1.631-1.97 2.08-.86.443-1.93.664-3.2.664h-2.74l-4.08.049a.573.573 0 0 0-.36.133l-2.92 2.431a.571.571 0 0 0 .37 1.01Z" fill="#EED5E8"/><path d="M1000.58 79h9.91c2.06 0 3.83-.4 5.32-1.201a8.26 8.26 0 0 0 3.42-3.447c.8-1.498 1.2-3.288 1.2-5.371 0-2.077-.4-3.861-1.2-5.352-.8-1.491-1.93-2.634-3.4-3.428-1.48-.8-3.24-1.201-5.28-1.201h-4.41a2.85 2.85 0 0 0-2.85 2.857V71.8c0 .599.69.931 1.16.557l4.71-3.768c.42-.337.18-1.018-.36-1.018h-.65a.574.574 0 0 1-.57-.571v-2.948c0-.79.64-1.429 1.43-1.429h1.31c1.27 0 2.34.221 3.2.664.87.443 1.52 1.133 1.96 2.07.44.938.66 2.146.66 3.624 0 1.49-.22 2.708-.66 3.652-.44.937-1.09 1.63-1.97 2.08-.86.443-1.93.664-3.2.664h-2.74l-4.08.05a.576.576 0 0 0-.36.131l-2.92 2.432a.572.572 0 0 0 .37 1.01Z" fill="#ECE2F1"/><path d="M832.578 141h9.91c2.064 0 3.836-.4 5.318-1.201a8.18 8.18 0 0 0 3.422-3.447c.8-1.498 1.201-3.288 1.201-5.372 0-2.076-.401-3.86-1.201-5.351a8.159 8.159 0 0 0-3.403-3.428c-1.474-.801-3.234-1.201-5.277-1.201h-4.405a2.857 2.857 0 0 0-2.857 2.857v9.943c0 .598.693.931 1.16.557l4.711-3.768a.572.572 0 0 0-.357-1.018h-.647a.571.571 0 0 1-.572-.571v-2.948c0-.789.64-1.429 1.429-1.429h1.309c1.27 0 2.338.221 3.205.664.866.443 1.518 1.133 1.954 2.07.443.938.665 2.146.665 3.623 0 1.491-.222 2.709-.665 3.653-.436.937-1.091 1.631-1.964 2.08-.867.443-1.935.664-3.204.664h-2.739l-4.082.049a.568.568 0 0 0-.359.133l-2.918 2.431a.571.571 0 0 0 .366 1.01Zm-236-62h9.91c2.064 0 3.836-.4 5.318-1.201a8.177 8.177 0 0 0 3.422-3.447c.8-1.498 1.201-3.288 1.201-5.371 0-2.077-.401-3.861-1.201-5.352a8.16 8.16 0 0 0-3.403-3.428c-1.474-.8-3.234-1.201-5.277-1.201h-4.405a2.857 2.857 0 0 0-2.857 2.857V71.8c0 .599.693.931 1.16.557l4.711-3.768a.572.572 0 0 0-.357-1.018h-.647a.572.572 0 0 1-.572-.571v-2.948c0-.79.64-1.429 1.429-1.429h1.309c1.27 0 2.338.221 3.205.664.866.443 1.518 1.133 1.954 2.07.443.938.665 2.146.665 3.624 0 1.49-.222 2.708-.665 3.652-.436.937-1.091 1.63-1.964 2.08-.867.443-1.935.664-3.204.664h-2.739l-4.082.05a.57.57 0 0 0-.359.131l-2.918 2.432a.572.572 0 0 0 .366 1.01Z" fill="#DFDFFA"/></g><defs><filter id="filter0_b_15644_89976" x="-14" y="-14" width="1404" height="228" filterUnits="userSpaceOnUse" color-interpolation-filters="sRGB"><feFlood flood-opacity="0" result="BackgroundImageFix"/><feGaussianBlur in="BackgroundImageFix" stdDeviation="7"/><feComposite in2="SourceAlpha" operator="in" result="effect1_backgroundBlur_15644_89976"/><feBlend mode="normal" in="SourceGraphic" in2="effect1_backgroundBlur_15644_89976" result="shape"/></filter><linearGradient id="paint0_linear_15644_89976" x1="-262" y1="262.556" x2="717.327" y2="-948.159" gradientUnits="userSpaceOnUse"><stop stop-color="#F6F7FF"/><stop offset="0.515762" stop-color="#ECEDF9"/><stop offset="1" stop-color="#FFE0DA"/></linearGradient><linearGradient id="paint1_linear_15644_89976" x1="-41.5" y1="113.5" x2="1492" y2="-64.4999" gradientUnits="userSpaceOnUse"><stop stop-color="#EBECFA"/><stop offset="0.272626" stop-color="#D0D5FF"/><stop offset="0.509635" stop-color="#DFE1FF"/><stop offset="1" stop-color="#FFC5BA"/></linearGradient><linearGradient id="paint2_linear_15644_89976" x1="-41.5" y1="113.5" x2="1492" y2="-64.4999" gradientUnits="userSpaceOnUse"><stop stop-color="#EBECFA"/><stop offset="0.272626" stop-color="#D0D5FF"/><stop offset="0.509635" stop-color="#DFE1FF"/><stop offset="1" stop-color="#FFC5BA"/></linearGradient><linearGradient id="paint3_linear_15644_89976" x1="-41.5" y1="113.5" x2="1492" y2="-64.4999" gradientUnits="userSpaceOnUse"><stop stop-color="#EBECFA"/><stop offset="0.272626" stop-color="#D0D5FF"/><stop offset="0.509635" stop-color="#DFE1FF"/><stop offset="1" stop-color="#FFC5BA"/></linearGradient><linearGradient id="paint4_linear_15644_89976" x1="-41.5" y1="113.5" x2="1492" y2="-64.4999" gradientUnits="userSpaceOnUse"><stop stop-color="#EBECFA"/><stop offset="0.272626" stop-color="#D0D5FF"/><stop offset="0.509635" stop-color="#DFE1FF"/><stop offset="1" stop-color="#FFC5BA"/></linearGradient><linearGradient id="paint5_linear_15644_89976" x1="-41.5" y1="113.5" x2="1492" y2="-64.4999" gradientUnits="userSpaceOnUse"><stop stop-color="#EBECFA"/><stop offset="0.272626" stop-color="#D0D5FF"/><stop offset="0.509635" stop-color="#DFE1FF"/><stop offset="1" stop-color="#FFC5BA"/></linearGradient><linearGradient id="paint6_linear_15644_89976" x1="-41.5" y1="113.5" x2="1492" y2="-64.4999" gradientUnits="userSpaceOnUse"><stop stop-color="#EBECFA"/><stop offset="0.272626" stop-color="#D0D5FF"/><stop offset="0.509635" stop-color="#DFE1FF"/><stop offset="1" stop-color="#FFC5BA"/></linearGradient><linearGradient id="paint7_linear_15644_89976" x1="-41.5" y1="113.5" x2="1492" y2="-64.4999" gradientUnits="userSpaceOnUse"><stop stop-color="#EBECFA"/><stop offset="0.272626" stop-color="#D0D5FF"/><stop offset="0.509635" stop-color="#DFE1FF"/><stop offset="1" stop-color="#FFC5BA"/></linearGradient><linearGradient id="paint8_linear_15644_89976" x1="-41.5" y1="113.5" x2="1492" y2="-64.4999" gradientUnits="userSpaceOnUse"><stop stop-color="#EBECFA"/><stop offset="0.272626" stop-color="#D0D5FF"/><stop offset="0.509635" stop-color="#DFE1FF"/><stop offset="1" stop-color="#FFC5BA"/></linearGradient><linearGradient id="paint9_linear_15644_89976" x1="-41.5" y1="113.5" x2="1492" y2="-64.4999" gradientUnits="userSpaceOnUse"><stop stop-color="#EBECFA"/><stop offset="0.272626" stop-color="#D0D5FF"/><stop offset="0.509635" stop-color="#DFE1FF"/><stop offset="1" stop-color="#FFC5BA"/></linearGradient><linearGradient id="paint10_linear_15644_89976" x1="-41.5" y1="113.5" x2="1492" y2="-64.4999" gradientUnits="userSpaceOnUse"><stop stop-color="#EBECFA"/><stop offset="0.272626" stop-color="#D0D5FF"/><stop offset="0.509635" stop-color="#DFE1FF"/><stop offset="1" stop-color="#FFC5BA"/></linearGradient><linearGradient id="paint11_linear_15644_89976" x1="-41.5" y1="113.5" x2="1492" y2="-64.4999" gradientUnits="userSpaceOnUse"><stop stop-color="#EBECFA"/><stop offset="0.272626" stop-color="#D0D5FF"/><stop offset="0.509635" stop-color="#DFE1FF"/><stop offset="1" stop-color="#FFC5BA"/></linearGradient><linearGradient id="paint12_linear_15644_89976" x1="-41.5" y1="113.5" x2="1492" y2="-64.4999" gradientUnits="userSpaceOnUse"><stop stop-color="#EBECFA"/><stop offset="0.272626" stop-color="#D0D5FF"/><stop offset="0.509635" stop-color="#DFE1FF"/><stop offset="1" stop-color="#FFC5BA"/></linearGradient><linearGradient id="paint13_linear_15644_89976" x1="-41.5" y1="113.5" x2="1492" y2="-64.4999" gradientUnits="userSpaceOnUse"><stop stop-color="#EBECFA"/><stop offset="0.272626" stop-color="#D0D5FF"/><stop offset="0.509635" stop-color="#DFE1FF"/><stop offset="1" stop-color="#FFC5BA"/></linearGradient><linearGradient id="paint14_linear_15644_89976" x1="-41.5" y1="113.5" x2="1492" y2="-64.4999" gradientUnits="userSpaceOnUse"><stop stop-color="#EBECFA"/><stop offset="0.272626" stop-color="#D0D5FF"/><stop offset="0.509635" stop-color="#DFE1FF"/><stop offset="1" stop-color="#FFC5BA"/></linearGradient><linearGradient id="paint15_linear_15644_89976" x1="-41.5" y1="113.5" x2="1492" y2="-64.4999" gradientUnits="userSpaceOnUse"><stop stop-color="#EBECFA"/><stop offset="0.272626" stop-color="#D0D5FF"/><stop offset="0.509635" stop-color="#DFE1FF"/><stop offset="1" stop-color="#FFC5BA"/></linearGradient><linearGradient id="paint16_linear_15644_89976" x1="-41.5" y1="113.5" x2="1492" y2="-64.4999" gradientUnits="userSpaceOnUse"><stop stop-color="#EBECFA"/><stop offset="0.272626" stop-color="#D0D5FF"/><stop offset="0.509635" stop-color="#DFE1FF"/><stop offset="1" stop-color="#FFC5BA"/></linearGradient><linearGradient id="paint17_linear_15644_89976" x1="-41.5" y1="113.5" x2="1492" y2="-64.4999" gradientUnits="userSpaceOnUse"><stop stop-color="#EBECFA"/><stop offset="0.272626" stop-color="#D0D5FF"/><stop offset="0.509635" stop-color="#DFE1FF"/><stop offset="1" stop-color="#FFC5BA"/></linearGradient><linearGradient id="paint18_linear_15644_89976" x1="-41.5" y1="113.5" x2="1492" y2="-64.4999" gradientUnits="userSpaceOnUse"><stop stop-color="#EBECFA"/><stop offset="0.272626" stop-color="#D0D5FF"/><stop offset="0.509635" stop-color="#DFE1FF"/><stop offset="1" stop-color="#FFC5BA"/></linearGradient><linearGradient id="paint19_linear_15644_89976" x1="-41.5" y1="113.5" x2="1492" y2="-64.4999" gradientUnits="userSpaceOnUse"><stop stop-color="#EBECFA"/><stop offset="0.272626" stop-color="#D0D5FF"/><stop offset="0.509635" stop-color="#DFE1FF"/><stop offset="1" stop-color="#FFC5BA"/></linearGradient><linearGradient id="paint20_linear_15644_89976" x1="-41.5" y1="113.5" x2="1492" y2="-64.4999" gradientUnits="userSpaceOnUse"><stop stop-color="#EBECFA"/><stop offset="0.272626" stop-color="#D0D5FF"/><stop offset="0.509635" stop-color="#DFE1FF"/><stop offset="1" stop-color="#FFC5BA"/></linearGradient><linearGradient id="paint21_linear_15644_89976" x1="-41.5" y1="113.5" x2="1492" y2="-64.4999" gradientUnits="userSpaceOnUse"><stop stop-color="#EBECFA"/><stop offset="0.272626" stop-color="#D0D5FF"/><stop offset="0.509635" stop-color="#DFE1FF"/><stop offset="1" stop-color="#FFC5BA"/></linearGradient><linearGradient id="paint22_linear_15644_89976" x1="-41.5" y1="113.5" x2="1492" y2="-64.4999" gradientUnits="userSpaceOnUse"><stop stop-color="#EBECFA"/><stop offset="0.272626" stop-color="#D0D5FF"/><stop offset="0.509635" stop-color="#DFE1FF"/><stop offset="1" stop-color="#FFC5BA"/></linearGradient><linearGradient id="paint23_linear_15644_89976" x1="-41.5" y1="113.5" x2="1492" y2="-64.4999" gradientUnits="userSpaceOnUse"><stop stop-color="#EBECFA"/><stop offset="0.272626" stop-color="#D0D5FF"/><stop offset="0.509635" stop-color="#DFE1FF"/><stop offset="1" stop-color="#FFC5BA"/></linearGradient><linearGradient id="paint24_linear_15644_89976" x1="-41.5" y1="113.5" x2="1492" y2="-64.4999" gradientUnits="userSpaceOnUse"><stop stop-color="#EBECFA"/><stop offset="0.272626" stop-color="#D0D5FF"/><stop offset="0.509635" stop-color="#DFE1FF"/><stop offset="1" stop-color="#FFC5BA"/></linearGradient><linearGradient id="paint25_linear_15644_89976" x1="-41.5" y1="113.5" x2="1492" y2="-64.4999" gradientUnits="userSpaceOnUse"><stop stop-color="#EBECFA"/><stop offset="0.272626" stop-color="#D0D5FF"/><stop offset="0.509635" stop-color="#DFE1FF"/><stop offset="1" stop-color="#FFC5BA"/></linearGradient><linearGradient id="paint26_linear_15644_89976" x1="-41.5" y1="113.5" x2="1492" y2="-64.4999" gradientUnits="userSpaceOnUse"><stop stop-color="#EBECFA"/><stop offset="0.272626" stop-color="#D0D5FF"/><stop offset="0.509635" stop-color="#DFE1FF"/><stop offset="1" stop-color="#FFC5BA"/></linearGradient><linearGradient id="paint27_linear_15644_89976" x1="-41.5" y1="113.5" x2="1492" y2="-64.4999" gradientUnits="userSpaceOnUse"><stop stop-color="#EBECFA"/><stop offset="0.272626" stop-color="#D0D5FF"/><stop offset="0.509635" stop-color="#DFE1FF"/><stop offset="1" stop-color="#FFC5BA"/></linearGradient><linearGradient id="paint28_linear_15644_89976" x1="-41.5" y1="113.5" x2="1492" y2="-64.4999" gradientUnits="userSpaceOnUse"><stop stop-color="#EBECFA"/><stop offset="0.272626" stop-color="#D0D5FF"/><stop offset="0.509635" stop-color="#DFE1FF"/><stop offset="1" stop-color="#FFC5BA"/></linearGradient><linearGradient id="paint29_linear_15644_89976" x1="-41.5" y1="113.5" x2="1492" y2="-64.4999" gradientUnits="userSpaceOnUse"><stop stop-color="#EBECFA"/><stop offset="0.272626" stop-color="#D0D5FF"/><stop offset="0.509635" stop-color="#DFE1FF"/><stop offset="1" stop-color="#FFC5BA"/></linearGradient><linearGradient id="paint30_linear_15644_89976" x1="-41.5" y1="113.5" x2="1492" y2="-64.4999" gradientUnits="userSpaceOnUse"><stop stop-color="#EBECFA"/><stop offset="0.272626" stop-color="#D0D5FF"/><stop offset="0.509635" stop-color="#DFE1FF"/><stop offset="1" stop-color="#FFC5BA"/></linearGradient><linearGradient id="paint31_linear_15644_89976" x1="-41.5" y1="113.5" x2="1492" y2="-64.4999" gradientUnits="userSpaceOnUse"><stop stop-color="#EBECFA"/><stop offset="0.272626" stop-color="#D0D5FF"/><stop offset="0.509635" stop-color="#DFE1FF"/><stop offset="1" stop-color="#FFC5BA"/></linearGradient><linearGradient id="paint32_linear_15644_89976" x1="-41.5" y1="113.5" x2="1492" y2="-64.4999" gradientUnits="userSpaceOnUse"><stop stop-color="#EBECFA"/><stop offset="0.272626" stop-color="#D0D5FF"/><stop offset="0.509635" stop-color="#DFE1FF"/><stop offset="1" stop-color="#FFC5BA"/></linearGradient><linearGradient id="paint33_linear_15644_89976" x1="-41.5" y1="113.5" x2="1492" y2="-64.4999" gradientUnits="userSpaceOnUse"><stop stop-color="#EBECFA"/><stop offset="0.272626" stop-color="#D0D5FF"/><stop offset="0.509635" stop-color="#DFE1FF"/><stop offset="1" stop-color="#FFC5BA"/></linearGradient><linearGradient id="paint34_linear_15644_89976" x1="-41.5" y1="113.5" x2="1492" y2="-64.4999" gradientUnits="userSpaceOnUse"><stop stop-color="#EBECFA"/><stop offset="0.272626" stop-color="#D0D5FF"/><stop offset="0.509635" stop-color="#DFE1FF"/><stop offset="1" stop-color="#FFC5BA"/></linearGradient><linearGradient id="paint35_linear_15644_89976" x1="-41.5" y1="113.5" x2="1492" y2="-64.4999" gradientUnits="userSpaceOnUse"><stop stop-color="#EBECFA"/><stop offset="0.272626" stop-color="#D0D5FF"/><stop offset="0.509635" stop-color="#DFE1FF"/><stop offset="1" stop-color="#FFC5BA"/></linearGradient><linearGradient id="paint36_linear_15644_89976" x1="-41.5" y1="113.5" x2="1492" y2="-64.4999" gradientUnits="userSpaceOnUse"><stop stop-color="#EBECFA"/><stop offset="0.272626" stop-color="#D0D5FF"/><stop offset="0.509635" stop-color="#DFE1FF"/><stop offset="1" stop-color="#FFC5BA"/></linearGradient><linearGradient id="paint37_linear_15644_89976" x1="-41.5" y1="113.5" x2="1492" y2="-64.4999" gradientUnits="userSpaceOnUse"><stop stop-color="#EBECFA"/><stop offset="0.272626" stop-color="#D0D5FF"/><stop offset="0.509635" stop-color="#DFE1FF"/><stop offset="1" stop-color="#FFC5BA"/></linearGradient><linearGradient id="paint38_linear_15644_89976" x1="-41.5" y1="113.5" x2="1492" y2="-64.4999" gradientUnits="userSpaceOnUse"><stop stop-color="#EBECFA"/><stop offset="0.272626" stop-color="#D0D5FF"/><stop offset="0.509635" stop-color="#DFE1FF"/><stop offset="1" stop-color="#FFC5BA"/></linearGradient><linearGradient id="paint39_linear_15644_89976" x1="-41.5" y1="113.5" x2="1492" y2="-64.4999" gradientUnits="userSpaceOnUse"><stop stop-color="#EBECFA"/><stop offset="0.272626" stop-color="#D0D5FF"/><stop offset="0.509635" stop-color="#DFE1FF"/><stop offset="1" stop-color="#FFC5BA"/></linearGradient><linearGradient id="paint40_linear_15644_89976" x1="-41.5" y1="113.5" x2="1492" y2="-64.4999" gradientUnits="userSpaceOnUse"><stop stop-color="#EBECFA"/><stop offset="0.272626" stop-color="#D0D5FF"/><stop offset="0.509635" stop-color="#DFE1FF"/><stop offset="1" stop-color="#FFC5BA"/></linearGradient><linearGradient id="paint41_linear_15644_89976" x1="-41.5" y1="113.5" x2="1492" y2="-64.4999" gradientUnits="userSpaceOnUse"><stop stop-color="#EBECFA"/><stop offset="0.272626" stop-color="#D0D5FF"/><stop offset="0.509635" stop-color="#DFE1FF"/><stop offset="1" stop-color="#FFC5BA"/></linearGradient><linearGradient id="paint42_linear_15644_89976" x1="-41.5" y1="113.5" x2="1492" y2="-64.4999" gradientUnits="userSpaceOnUse"><stop stop-color="#EBECFA"/><stop offset="0.272626" stop-color="#D0D5FF"/><stop offset="0.509635" stop-color="#DFE1FF"/><stop offset="1" stop-color="#FFC5BA"/></linearGradient><linearGradient id="paint43_linear_15644_89976" x1="-41.5" y1="113.5" x2="1492" y2="-64.4999" gradientUnits="userSpaceOnUse"><stop stop-color="#EBECFA"/><stop offset="0.272626" stop-color="#D0D5FF"/><stop offset="0.509635" stop-color="#DFE1FF"/><stop offset="1" stop-color="#FFC5BA"/></linearGradient><linearGradient id="paint44_linear_15644_89976" x1="-41.5" y1="113.5" x2="1492" y2="-64.4999" gradientUnits="userSpaceOnUse"><stop stop-color="#EBECFA"/><stop offset="0.272626" stop-color="#D0D5FF"/><stop offset="0.509635" stop-color="#DFE1FF"/><stop offset="1" stop-color="#FFC5BA"/></linearGradient><linearGradient id="paint45_linear_15644_89976" x1="-41.5" y1="113.5" x2="1492" y2="-64.4999" gradientUnits="userSpaceOnUse"><stop stop-color="#EBECFA"/><stop offset="0.272626" stop-color="#D0D5FF"/><stop offset="0.509635" stop-color="#DFE1FF"/><stop offset="1" stop-color="#FFC5BA"/></linearGradient><linearGradient id="paint46_linear_15644_89976" x1="-41.5" y1="113.5" x2="1492" y2="-64.4999" gradientUnits="userSpaceOnUse"><stop stop-color="#EBECFA"/><stop offset="0.272626" stop-color="#D0D5FF"/><stop offset="0.509635" stop-color="#DFE1FF"/><stop offset="1" stop-color="#FFC5BA"/></linearGradient><linearGradient id="paint47_linear_15644_89976" x1="-41.5" y1="113.5" x2="1492" y2="-64.4999" gradientUnits="userSpaceOnUse"><stop stop-color="#EBECFA"/><stop offset="0.272626" stop-color="#D0D5FF"/><stop offset="0.509635" stop-color="#DFE1FF"/><stop offset="1" stop-color="#FFC5BA"/></linearGradient><linearGradient id="paint48_linear_15644_89976" x1="-41.5" y1="113.5" x2="1492" y2="-64.4999" gradientUnits="userSpaceOnUse"><stop stop-color="#EBECFA"/><stop offset="0.272626" stop-color="#D0D5FF"/><stop offset="0.509635" stop-color="#DFE1FF"/><stop offset="1" stop-color="#FFC5BA"/></linearGradient><linearGradient id="paint49_linear_15644_89976" x1="-41.5" y1="113.5" x2="1492" y2="-64.4999" gradientUnits="userSpaceOnUse"><stop stop-color="#EBECFA"/><stop offset="0.272626" stop-color="#D0D5FF"/><stop offset="0.509635" stop-color="#DFE1FF"/><stop offset="1" stop-color="#FFC5BA"/></linearGradient><linearGradient id="paint50_linear_15644_89976" x1="-41.5" y1="113.5" x2="1492" y2="-64.4999" gradientUnits="userSpaceOnUse"><stop stop-color="#EBECFA"/><stop offset="0.272626" stop-color="#D0D5FF"/><stop offset="0.509635" stop-color="#DFE1FF"/><stop offset="1" stop-color="#FFC5BA"/></linearGradient><linearGradient id="paint51_linear_15644_89976" x1="-41.5" y1="113.5" x2="1492" y2="-64.4999" gradientUnits="userSpaceOnUse"><stop stop-color="#EBECFA"/><stop offset="0.272626" stop-color="#D0D5FF"/><stop offset="0.509635" stop-color="#DFE1FF"/><stop offset="1" stop-color="#FFC5BA"/></linearGradient><linearGradient id="paint52_linear_15644_89976" x1="-41.5" y1="113.5" x2="1492" y2="-64.4999" gradientUnits="userSpaceOnUse"><stop stop-color="#EBECFA"/><stop offset="0.272626" stop-color="#D0D5FF"/><stop offset="0.509635" stop-color="#DFE1FF"/><stop offset="1" stop-color="#FFC5BA"/></linearGradient><linearGradient id="paint53_linear_15644_89976" x1="-41.5" y1="113.5" x2="1492" y2="-64.4999" gradientUnits="userSpaceOnUse"><stop stop-color="#EBECFA"/><stop offset="0.272626" stop-color="#D0D5FF"/><stop offset="0.509635" stop-color="#DFE1FF"/><stop offset="1" stop-color="#FFC5BA"/></linearGradient><linearGradient id="paint54_linear_15644_89976" x1="-41.5" y1="113.5" x2="1492" y2="-64.4999" gradientUnits="userSpaceOnUse"><stop stop-color="#EBECFA"/><stop offset="0.272626" stop-color="#D0D5FF"/><stop offset="0.509635" stop-color="#DFE1FF"/><stop offset="1" stop-color="#FFC5BA"/></linearGradient><linearGradient id="paint55_linear_15644_89976" x1="-41.5" y1="113.5" x2="1492" y2="-64.4999" gradientUnits="userSpaceOnUse"><stop stop-color="#EBECFA"/><stop offset="0.272626" stop-color="#D0D5FF"/><stop offset="0.509635" stop-color="#DFE1FF"/><stop offset="1" stop-color="#FFC5BA"/></linearGradient><linearGradient id="paint56_linear_15644_89976" x1="-41.5" y1="113.5" x2="1492" y2="-64.4999" gradientUnits="userSpaceOnUse"><stop stop-color="#EBECFA"/><stop offset="0.272626" stop-color="#D0D5FF"/><stop offset="0.509635" stop-color="#DFE1FF"/><stop offset="1" stop-color="#FFC5BA"/></linearGradient><linearGradient id="paint57_linear_15644_89976" x1="-41.5" y1="113.5" x2="1492" y2="-64.4999" gradientUnits="userSpaceOnUse"><stop stop-color="#EBECFA"/><stop offset="0.272626" stop-color="#D0D5FF"/><stop offset="0.509635" stop-color="#DFE1FF"/><stop offset="1" stop-color="#FFC5BA"/></linearGradient><linearGradient id="paint58_linear_15644_89976" x1="-41.5" y1="113.5" x2="1492" y2="-64.4999" gradientUnits="userSpaceOnUse"><stop stop-color="#EBECFA"/><stop offset="0.272626" stop-color="#D0D5FF"/><stop offset="0.509635" stop-color="#DFE1FF"/><stop offset="1" stop-color="#FFC5BA"/></linearGradient><linearGradient id="paint59_linear_15644_89976" x1="-41.5" y1="113.5" x2="1492" y2="-64.4999" gradientUnits="userSpaceOnUse"><stop stop-color="#EBECFA"/><stop offset="0.272626" stop-color="#D0D5FF"/><stop offset="0.509635" stop-color="#DFE1FF"/><stop offset="1" stop-color="#FFC5BA"/></linearGradient><linearGradient id="paint60_linear_15644_89976" x1="-41.5" y1="113.5" x2="1492" y2="-64.4999" gradientUnits="userSpaceOnUse"><stop stop-color="#EBECFA"/><stop offset="0.272626" stop-color="#D0D5FF"/><stop offset="0.509635" stop-color="#DFE1FF"/><stop offset="1" stop-color="#FFC5BA"/></linearGradient><linearGradient id="paint61_linear_15644_89976" x1="-41.5" y1="113.5" x2="1492" y2="-64.4999" gradientUnits="userSpaceOnUse"><stop stop-color="#EBECFA"/><stop offset="0.272626" stop-color="#D0D5FF"/><stop offset="0.509635" stop-color="#DFE1FF"/><stop offset="1" stop-color="#FFC5BA"/></linearGradient><linearGradient id="paint62_linear_15644_89976" x1="-41.5" y1="113.5" x2="1492" y2="-64.4999" gradientUnits="userSpaceOnUse"><stop stop-color="#EBECFA"/><stop offset="0.272626" stop-color="#D0D5FF"/><stop offset="0.509635" stop-color="#DFE1FF"/><stop offset="1" stop-color="#FFC5BA"/></linearGradient><linearGradient id="paint63_linear_15644_89976" x1="-41.5" y1="113.5" x2="1492" y2="-64.4999" gradientUnits="userSpaceOnUse"><stop stop-color="#EBECFA"/><stop offset="0.272626" stop-color="#D0D5FF"/><stop offset="0.509635" stop-color="#DFE1FF"/><stop offset="1" stop-color="#FFC5BA"/></linearGradient><linearGradient id="paint64_linear_15644_89976" x1="-41.5" y1="113.5" x2="1492" y2="-64.4999" gradientUnits="userSpaceOnUse"><stop stop-color="#EBECFA"/><stop offset="0.272626" stop-color="#D0D5FF"/><stop offset="0.509635" stop-color="#DFE1FF"/><stop offset="1" stop-color="#FFC5BA"/></linearGradient><linearGradient id="paint65_linear_15644_89976" x1="-41.5" y1="113.5" x2="1492" y2="-64.4999" gradientUnits="userSpaceOnUse"><stop stop-color="#EBECFA"/><stop offset="0.272626" stop-color="#D0D5FF"/><stop offset="0.509635" stop-color="#DFE1FF"/><stop offset="1" stop-color="#FFC5BA"/></linearGradient><linearGradient id="paint66_linear_15644_89976" x1="-41.5" y1="113.5" x2="1492" y2="-64.4999" gradientUnits="userSpaceOnUse"><stop stop-color="#EBECFA"/><stop offset="0.272626" stop-color="#D0D5FF"/><stop offset="0.509635" stop-color="#DFE1FF"/><stop offset="1" stop-color="#FFC5BA"/></linearGradient><linearGradient id="paint67_linear_15644_89976" x1="-41.5" y1="113.5" x2="1492" y2="-64.4999" gradientUnits="userSpaceOnUse"><stop stop-color="#EBECFA"/><stop offset="0.272626" stop-color="#D0D5FF"/><stop offset="0.509635" stop-color="#DFE1FF"/><stop offset="1" stop-color="#FFC5BA"/></linearGradient><linearGradient id="paint68_linear_15644_89976" x1="-41.5" y1="113.5" x2="1492" y2="-64.4999" gradientUnits="userSpaceOnUse"><stop stop-color="#EBECFA"/><stop offset="0.272626" stop-color="#D0D5FF"/><stop offset="0.509635" stop-color="#DFE1FF"/><stop offset="1" stop-color="#FFC5BA"/></linearGradient><linearGradient id="paint69_linear_15644_89976" x1="-41.5" y1="113.5" x2="1492" y2="-64.4999" gradientUnits="userSpaceOnUse"><stop stop-color="#EBECFA"/><stop offset="0.272626" stop-color="#D0D5FF"/><stop offset="0.509635" stop-color="#DFE1FF"/><stop offset="1" stop-color="#FFC5BA"/></linearGradient><linearGradient id="paint70_linear_15644_89976" x1="-41.5" y1="113.5" x2="1492" y2="-64.4999" gradientUnits="userSpaceOnUse"><stop stop-color="#EBECFA"/><stop offset="0.272626" stop-color="#D0D5FF"/><stop offset="0.509635" stop-color="#DFE1FF"/><stop offset="1" stop-color="#FFC5BA"/></linearGradient><linearGradient id="paint71_linear_15644_89976" x1="-41.5" y1="113.5" x2="1492" y2="-64.4999" gradientUnits="userSpaceOnUse"><stop stop-color="#EBECFA"/><stop offset="0.272626" stop-color="#D0D5FF"/><stop offset="0.509635" stop-color="#DFE1FF"/><stop offset="1" stop-color="#FFC5BA"/></linearGradient><linearGradient id="paint72_linear_15644_89976" x1="-41.5" y1="113.5" x2="1492" y2="-64.4999" gradientUnits="userSpaceOnUse"><stop stop-color="#EBECFA"/><stop offset="0.272626" stop-color="#D0D5FF"/><stop offset="0.509635" stop-color="#DFE1FF"/><stop offset="1" stop-color="#FFC5BA"/></linearGradient><linearGradient id="paint73_linear_15644_89976" x1="-41.5" y1="113.5" x2="1492" y2="-64.4999" gradientUnits="userSpaceOnUse"><stop stop-color="#EBECFA"/><stop offset="0.272626" stop-color="#D0D5FF"/><stop offset="0.509635" stop-color="#DFE1FF"/><stop offset="1" stop-color="#FFC5BA"/></linearGradient><linearGradient id="paint74_linear_15644_89976" x1="-41.5" y1="113.5" x2="1492" y2="-64.4999" gradientUnits="userSpaceOnUse"><stop stop-color="#EBECFA"/><stop offset="0.272626" stop-color="#D0D5FF"/><stop offset="0.509635" stop-color="#DFE1FF"/><stop offset="1" stop-color="#FFC5BA"/></linearGradient><linearGradient id="paint75_linear_15644_89976" x1="-41.5" y1="113.5" x2="1492" y2="-64.4999" gradientUnits="userSpaceOnUse"><stop stop-color="#EBECFA"/><stop offset="0.272626" stop-color="#D0D5FF"/><stop offset="0.509635" stop-color="#DFE1FF"/><stop offset="1" stop-color="#FFC5BA"/></linearGradient><linearGradient id="paint76_linear_15644_89976" x1="-41.5" y1="113.5" x2="1492" y2="-64.4999" gradientUnits="userSpaceOnUse"><stop stop-color="#EBECFA"/><stop offset="0.272626" stop-color="#D0D5FF"/><stop offset="0.509635" stop-color="#DFE1FF"/><stop offset="1" stop-color="#FFC5BA"/></linearGradient><linearGradient id="paint77_linear_15644_89976" x1="-41.5" y1="113.5" x2="1492" y2="-64.4999" gradientUnits="userSpaceOnUse"><stop stop-color="#EBECFA"/><stop offset="0.272626" stop-color="#D0D5FF"/><stop offset="0.509635" stop-color="#DFE1FF"/><stop offset="1" stop-color="#FFC5BA"/></linearGradient><linearGradient id="paint78_linear_15644_89976" x1="-41.5" y1="113.5" x2="1492" y2="-64.4999" gradientUnits="userSpaceOnUse"><stop stop-color="#EBECFA"/><stop offset="0.272626" stop-color="#D0D5FF"/><stop offset="0.509635" stop-color="#DFE1FF"/><stop offset="1" stop-color="#FFC5BA"/></linearGradient><linearGradient id="paint79_linear_15644_89976" x1="-41.5" y1="113.5" x2="1492" y2="-64.4999" gradientUnits="userSpaceOnUse"><stop stop-color="#EBECFA"/><stop offset="0.272626" stop-color="#D0D5FF"/><stop offset="0.509635" stop-color="#DFE1FF"/><stop offset="1" stop-color="#FFC5BA"/></linearGradient><linearGradient id="paint80_linear_15644_89976" x1="-41.5" y1="113.5" x2="1492" y2="-64.4999" gradientUnits="userSpaceOnUse"><stop stop-color="#EBECFA"/><stop offset="0.272626" stop-color="#D0D5FF"/><stop offset="0.509635" stop-color="#DFE1FF"/><stop offset="1" stop-color="#FFC5BA"/></linearGradient><linearGradient id="paint81_linear_15644_89976" x1="-41.5" y1="113.5" x2="1492" y2="-64.4999" gradientUnits="userSpaceOnUse"><stop stop-color="#EBECFA"/><stop offset="0.272626" stop-color="#D0D5FF"/><stop offset="0.509635" stop-color="#DFE1FF"/><stop offset="1" stop-color="#FFC5BA"/></linearGradient><linearGradient id="paint82_linear_15644_89976" x1="-41.5" y1="113.5" x2="1492" y2="-64.4999" gradientUnits="userSpaceOnUse"><stop stop-color="#EBECFA"/><stop offset="0.272626" stop-color="#D0D5FF"/><stop offset="0.509635" stop-color="#DFE1FF"/><stop offset="1" stop-color="#FFC5BA"/></linearGradient><linearGradient id="paint83_linear_15644_89976" x1="-41.5" y1="113.5" x2="1492" y2="-64.4999" gradientUnits="userSpaceOnUse"><stop stop-color="#EBECFA"/><stop offset="0.272626" stop-color="#D0D5FF"/><stop offset="0.509635" stop-color="#DFE1FF"/><stop offset="1" stop-color="#FFC5BA"/></linearGradient><linearGradient id="paint84_linear_15644_89976" x1="-41.5" y1="113.5" x2="1492" y2="-64.4999" gradientUnits="userSpaceOnUse"><stop stop-color="#EBECFA"/><stop offset="0.272626" stop-color="#D0D5FF"/><stop offset="0.509635" stop-color="#DFE1FF"/><stop offset="1" stop-color="#FFC5BA"/></linearGradient><linearGradient id="paint85_linear_15644_89976" x1="-41.5" y1="113.5" x2="1492" y2="-64.4999" gradientUnits="userSpaceOnUse"><stop stop-color="#EBECFA"/><stop offset="0.272626" stop-color="#D0D5FF"/><stop offset="0.509635" stop-color="#DFE1FF"/><stop offset="1" stop-color="#FFC5BA"/></linearGradient><linearGradient id="paint86_linear_15644_89976" x1="-41.5" y1="113.5" x2="1492" y2="-64.4999" gradientUnits="userSpaceOnUse"><stop stop-color="#EBECFA"/><stop offset="0.272626" stop-color="#D0D5FF"/><stop offset="0.509635" stop-color="#DFE1FF"/><stop offset="1" stop-color="#FFC5BA"/></linearGradient><linearGradient id="paint87_linear_15644_89976" x1="-41.5" y1="113.5" x2="1492" y2="-64.4999" gradientUnits="userSpaceOnUse"><stop stop-color="#EBECFA"/><stop offset="0.272626" stop-color="#D0D5FF"/><stop offset="0.509635" stop-color="#DFE1FF"/><stop offset="1" stop-color="#FFC5BA"/></linearGradient><linearGradient id="paint88_linear_15644_89976" x1="-41.5" y1="113.5" x2="1492" y2="-64.4999" gradientUnits="userSpaceOnUse"><stop stop-color="#EBECFA"/><stop offset="0.272626" stop-color="#D0D5FF"/><stop offset="0.509635" stop-color="#DFE1FF"/><stop offset="1" stop-color="#FFC5BA"/></linearGradient><clipPath id="clip0_15644_89976"><rect width="1376" height="200" fill="white"/></clipPath></defs></svg>