<svg width="1376" height="200" viewBox="0 0 1376 200" fill="none" xmlns="http://www.w3.org/2000/svg">
<g filter="url(#filter0_b_22990_119954)">
<path d="M0 0H1376V200H0V0Z" fill="#2C3139"/>
</g>
<mask id="path-2-inside-1_22990_119954" fill="white">
<path d="M1374.75 -22.0855C1377.76 -23.8244 1381.46 -23.8244 1384.47 -22.0855L1402.82 -11.4821C1405.83 -9.74328 1407.68 -6.52981 1407.68 -3.05217V18.1547C1407.68 21.6323 1405.83 24.8458 1402.82 26.5846L1384.47 37.1881C1381.46 38.9269 1377.76 38.9269 1374.75 37.1881L1356.4 26.5846C1353.4 24.8458 1351.54 21.6323 1351.54 18.1547V-3.05217C1351.54 -6.52981 1353.4 -9.74328 1356.4 -11.4821L1374.75 -22.0855Z"/>
<path d="M1442.09 -22.0855C1445.09 -23.8244 1448.8 -23.8244 1451.81 -22.0855L1470.15 -11.4821C1473.16 -9.74328 1475.02 -6.52981 1475.02 -3.05217V18.1547C1475.02 21.6323 1473.16 24.8458 1470.15 26.5846L1451.81 37.1881C1448.8 38.9269 1445.09 38.9269 1442.09 37.1881L1423.74 26.5846C1420.73 24.8458 1418.88 21.6323 1418.88 18.1547V-3.05217C1418.88 -6.52981 1420.73 -9.74328 1423.74 -11.4821L1442.09 -22.0855Z"/>
<path d="M1408.42 39.5246C1411.43 37.7858 1415.13 37.7858 1418.14 39.5246L1436.49 50.128C1439.49 51.8668 1441.35 55.0803 1441.35 58.558V79.7648C1441.35 83.2425 1439.49 86.4559 1436.49 88.1947L1418.14 98.7982C1415.13 100.537 1411.43 100.537 1408.42 98.7982L1390.07 88.1947C1387.06 86.4559 1385.21 83.2425 1385.21 79.7648V58.5579C1385.21 55.0803 1387.06 51.8668 1390.07 50.128L1408.42 39.5246Z"/>
<path d="M1374.75 101.135C1377.76 99.3959 1381.46 99.3959 1384.47 101.135L1402.82 111.738C1405.83 113.477 1407.68 116.69 1407.68 120.168V141.375C1407.68 144.853 1405.83 148.066 1402.82 149.805L1384.47 160.408C1381.46 162.147 1377.76 162.147 1374.75 160.408L1356.4 149.805C1353.4 148.066 1351.54 144.853 1351.54 141.375V120.168C1351.54 116.69 1353.4 113.477 1356.4 111.738L1374.75 101.135Z"/>
<path d="M1442.09 101.135C1445.09 99.3959 1448.8 99.3959 1451.81 101.135L1470.15 111.738C1473.16 113.477 1475.02 116.69 1475.02 120.168V141.375C1475.02 144.853 1473.16 148.066 1470.15 149.805L1451.81 160.408C1448.8 162.147 1445.09 162.147 1442.09 160.408L1423.74 149.805C1420.73 148.066 1418.88 144.853 1418.88 141.375V120.168C1418.88 116.69 1420.73 113.477 1423.74 111.738L1442.09 101.135Z"/>
<path d="M1408.42 162.745C1411.43 161.006 1415.13 161.006 1418.14 162.745L1436.49 173.348C1439.49 175.087 1441.35 178.301 1441.35 181.778V202.985C1441.35 206.463 1439.49 209.676 1436.49 211.415L1418.14 222.018C1415.13 223.757 1411.43 223.757 1408.42 222.018L1390.07 211.415C1387.06 209.676 1385.21 206.463 1385.21 202.985V181.778C1385.21 178.301 1387.06 175.087 1390.07 173.348L1408.42 162.745Z"/>
<path d="M30.7487 -22.0855C33.7571 -23.8244 37.4635 -23.8244 40.4719 -22.0855L58.817 -11.4821C61.8253 -9.74328 63.6786 -6.52981 63.6786 -3.05217V18.1547C63.6786 21.6323 61.8253 24.8458 58.817 26.5846L40.4719 37.1881C37.4635 38.9269 33.7571 38.9269 30.7487 37.1881L12.4036 26.5846C9.39528 24.8458 7.54205 21.6323 7.54205 18.1547V-3.05217C7.54205 -6.52981 9.39528 -9.74328 12.4036 -11.4821L30.7487 -22.0855Z"/>
<path d="M98.0866 -22.0855C101.095 -23.8244 104.801 -23.8244 107.81 -22.0855L126.155 -11.4821C129.163 -9.74328 131.016 -6.52981 131.016 -3.05217V18.1547C131.016 21.6323 129.163 24.8458 126.155 26.5846L107.81 37.1881C104.801 38.9269 101.095 38.9269 98.0866 37.1881L79.7415 26.5846C76.7332 24.8458 74.88 21.6323 74.88 18.1547V-3.05217C74.88 -6.52981 76.7332 -9.74328 79.7415 -11.4821L98.0866 -22.0855Z"/>
<path d="M165.234 -22.0855C168.243 -23.8244 171.949 -23.8244 174.957 -22.0855L193.303 -11.4821C196.311 -9.74328 198.164 -6.52981 198.164 -3.05217V18.1547C198.164 21.6323 196.311 24.8458 193.303 26.5846L174.957 37.1881C171.949 38.9269 168.243 38.9269 165.234 37.1881L146.889 26.5846C143.881 24.8458 142.028 21.6323 142.028 18.1547V-3.05217C142.028 -6.52981 143.881 -9.74328 146.889 -11.4821L165.234 -22.0855Z"/>
<path d="M232.445 -22.0855C235.454 -23.8244 239.16 -23.8244 242.168 -22.0855L260.514 -11.4821C263.522 -9.74328 265.375 -6.52981 265.375 -3.05217V18.1547C265.375 21.6323 263.522 24.8458 260.514 26.5846L242.168 37.1881C239.16 38.9269 235.454 38.9269 232.445 37.1881L214.1 26.5846C211.092 24.8458 209.239 21.6323 209.239 18.1547V-3.05217C209.239 -6.52981 211.092 -9.74328 214.1 -11.4821L232.445 -22.0855Z"/>
<path d="M299.656 -22.0855C302.665 -23.8244 306.371 -23.8244 309.379 -22.0855L327.725 -11.4821C330.733 -9.74328 332.586 -6.52981 332.586 -3.05217V18.1547C332.586 21.6323 330.733 24.8458 327.725 26.5846L309.379 37.1881C306.371 38.9269 302.665 38.9269 299.656 37.1881L281.311 26.5846C278.303 24.8458 276.45 21.6323 276.45 18.1547V-3.05217C276.45 -6.52981 278.303 -9.74328 281.311 -11.4821L299.656 -22.0855Z"/>
<path d="M366.804 -22.0855C369.812 -23.8244 373.519 -23.8244 376.527 -22.0855L394.872 -11.4821C397.881 -9.74328 399.734 -6.52981 399.734 -3.05217V18.1547C399.734 21.6323 397.881 24.8458 394.872 26.5846L376.527 37.1881C373.519 38.9269 369.812 38.9269 366.804 37.1881L348.459 26.5846C345.45 24.8458 343.597 21.6323 343.597 18.1547V-3.05217C343.597 -6.52981 345.45 -9.74328 348.459 -11.4821L366.804 -22.0855Z"/>
<path d="M434.015 -22.0855C437.023 -23.8244 440.73 -23.8244 443.738 -22.0855L462.083 -11.4821C465.092 -9.74328 466.945 -6.52981 466.945 -3.05217V18.1547C466.945 21.6323 465.092 24.8458 462.083 26.5846L443.738 37.1881C440.73 38.9269 437.023 38.9269 434.015 37.1881L415.67 26.5846C412.662 24.8458 410.808 21.6323 410.808 18.1547V-3.05217C410.808 -6.52981 412.662 -9.74328 415.67 -11.4821L434.015 -22.0855Z"/>
<path d="M-2.79333 39.5246C0.215012 37.7858 3.92146 37.7858 6.92981 39.5246L25.2749 50.128C28.2833 51.8668 30.1365 55.0803 30.1365 58.558V79.7648C30.1365 83.2425 28.2833 86.4559 25.2749 88.1947L6.92981 98.7982C3.92146 100.537 0.215012 100.537 -2.79333 98.7982L-21.1385 88.1947C-24.1468 86.4559 -26 83.2425 -26 79.7648V58.5579C-26 55.0803 -24.1468 51.8668 -21.1385 50.128L-2.79333 39.5246Z"/>
<path d="M64.4177 39.5246C67.4261 37.7858 71.1325 37.7858 74.1408 39.5246L92.486 50.128C95.4943 51.8668 97.3475 55.0803 97.3475 58.558V79.7648C97.3475 83.2425 95.4943 86.4559 92.486 88.1947L74.1408 98.7982C71.1325 100.537 67.4261 100.537 64.4177 98.7982L46.0726 88.1947C43.0642 86.4559 41.211 83.2425 41.211 79.7648V58.5579C41.211 55.0803 43.0642 51.8668 46.0726 50.128L64.4177 39.5246Z"/>
<path d="M131.756 39.5246C134.764 37.7858 138.47 37.7858 141.479 39.5246L159.824 50.128C162.832 51.8668 164.685 55.0803 164.685 58.558V79.7648C164.685 83.2425 162.832 86.4559 159.824 88.1947L141.479 98.7982C138.47 100.537 134.764 100.537 131.756 98.7982L113.411 88.1947C110.402 86.4559 108.549 83.2425 108.549 79.7648V58.5579C108.549 55.0803 110.402 51.8668 113.411 50.128L131.756 39.5246Z"/>
<path d="M198.903 39.5246C201.912 37.7858 205.618 37.7858 208.626 39.5246L226.971 50.128C229.98 51.8668 231.833 55.0803 231.833 58.558V79.7648C231.833 83.2425 229.98 86.4559 226.971 88.1947L208.626 98.7982C205.618 100.537 201.912 100.537 198.903 98.7982L180.558 88.1947C177.55 86.4559 175.697 83.2425 175.697 79.7648V58.5579C175.697 55.0803 177.55 51.8668 180.558 50.128L198.903 39.5246Z"/>
<path d="M266.114 39.5246C269.123 37.7858 272.829 37.7858 275.837 39.5246L294.182 50.128C297.191 51.8668 299.044 55.0803 299.044 58.558V79.7648C299.044 83.2425 297.191 86.4559 294.182 88.1947L275.837 98.7982C272.829 100.537 269.123 100.537 266.114 98.7982L247.769 88.1947C244.761 86.4559 242.908 83.2425 242.908 79.7648V58.5579C242.908 55.0803 244.761 51.8668 247.769 50.128L266.114 39.5246Z"/>
<path d="M333.325 39.5246C336.334 37.7858 340.04 37.7858 343.048 39.5246L361.394 50.128C364.402 51.8668 366.255 55.0803 366.255 58.558V79.7648C366.255 83.2425 364.402 86.4559 361.394 88.1947L343.048 98.7982C340.04 100.537 336.334 100.537 333.325 98.7982L314.98 88.1947C311.972 86.4559 310.119 83.2425 310.119 79.7648V58.5579C310.119 55.0803 311.972 51.8668 314.98 50.128L333.325 39.5246Z"/>
<path d="M400.473 39.5246C403.481 37.7858 407.188 37.7858 410.196 39.5246L428.541 50.128C431.549 51.8668 433.403 55.0803 433.403 58.558V79.7648C433.403 83.2425 431.549 86.4559 428.541 88.1947L410.196 98.7982C407.188 100.537 403.481 100.537 400.473 98.7982L382.128 88.1947C379.119 86.4559 377.266 83.2425 377.266 79.7648V58.5579C377.266 55.0803 379.119 51.8668 382.128 50.128L400.473 39.5246Z"/>
<path d="M467.684 39.5246C470.692 37.7858 474.399 37.7858 477.407 39.5246L495.752 50.128C498.761 51.8668 500.614 55.0803 500.614 58.558V79.7648C500.614 83.2425 498.761 86.4559 495.752 88.1947L477.407 98.7982C474.399 100.537 470.692 100.537 467.684 98.7982L449.339 88.1947C446.33 86.4559 444.477 83.2425 444.477 79.7648V58.5579C444.477 55.0803 446.33 51.8668 449.339 50.128L467.684 39.5246Z"/>
<path d="M30.7487 101.135C33.7571 99.3959 37.4635 99.3959 40.4719 101.135L58.817 111.738C61.8253 113.477 63.6786 116.69 63.6786 120.168V141.375C63.6786 144.853 61.8253 148.066 58.817 149.805L40.4719 160.408C37.4635 162.147 33.7571 162.147 30.7487 160.408L12.4036 149.805C9.39528 148.066 7.54205 144.853 7.54205 141.375V120.168C7.54205 116.69 9.39528 113.477 12.4036 111.738L30.7487 101.135Z"/>
<path d="M98.0866 101.135C101.095 99.3959 104.801 99.3959 107.81 101.135L126.155 111.738C129.163 113.477 131.016 116.69 131.016 120.168V141.375C131.016 144.853 129.163 148.066 126.155 149.805L107.81 160.408C104.801 162.147 101.095 162.147 98.0866 160.408L79.7415 149.805C76.7332 148.066 74.88 144.853 74.88 141.375V120.168C74.88 116.69 76.7332 113.477 79.7415 111.738L98.0866 101.135Z"/>
<path d="M165.234 101.135C168.243 99.3959 171.949 99.3959 174.957 101.135L193.303 111.738C196.311 113.477 198.164 116.69 198.164 120.168V141.375C198.164 144.853 196.311 148.066 193.303 149.805L174.957 160.408C171.949 162.147 168.243 162.147 165.234 160.408L146.889 149.805C143.881 148.066 142.028 144.853 142.028 141.375V120.168C142.028 116.69 143.881 113.477 146.889 111.738L165.234 101.135Z"/>
<path d="M232.445 101.135C235.454 99.3959 239.16 99.3959 242.168 101.135L260.514 111.738C263.522 113.477 265.375 116.69 265.375 120.168V141.375C265.375 144.853 263.522 148.066 260.514 149.805L242.168 160.408C239.16 162.147 235.454 162.147 232.445 160.408L214.1 149.805C211.092 148.066 209.239 144.853 209.239 141.375V120.168C209.239 116.69 211.092 113.477 214.1 111.738L232.445 101.135Z"/>
<path d="M299.656 101.135C302.665 99.3959 306.371 99.3959 309.379 101.135L327.725 111.738C330.733 113.477 332.586 116.69 332.586 120.168V141.375C332.586 144.853 330.733 148.066 327.725 149.805L309.379 160.408C306.371 162.147 302.665 162.147 299.656 160.408L281.311 149.805C278.303 148.066 276.45 144.853 276.45 141.375V120.168C276.45 116.69 278.303 113.477 281.311 111.738L299.656 101.135Z"/>
<path d="M366.804 101.135C369.812 99.3959 373.519 99.3959 376.527 101.135L394.872 111.738C397.881 113.477 399.734 116.69 399.734 120.168V141.375C399.734 144.853 397.881 148.066 394.872 149.805L376.527 160.408C373.519 162.147 369.812 162.147 366.804 160.408L348.459 149.805C345.45 148.066 343.597 144.853 343.597 141.375V120.168C343.597 116.69 345.45 113.477 348.459 111.738L366.804 101.135Z"/>
<path d="M434.015 101.135C437.023 99.3959 440.73 99.3959 443.738 101.135L462.083 111.738C465.092 113.477 466.945 116.69 466.945 120.168V141.375C466.945 144.853 465.092 148.066 462.083 149.805L443.738 160.408C440.73 162.147 437.023 162.147 434.015 160.408L415.67 149.805C412.662 148.066 410.808 144.853 410.808 141.375V120.168C410.808 116.69 412.662 113.477 415.67 111.738L434.015 101.135Z"/>
<path d="M-2.79333 162.745C0.215012 161.006 3.92146 161.006 6.92981 162.745L25.2749 173.348C28.2833 175.087 30.1365 178.301 30.1365 181.778V202.985C30.1365 206.463 28.2833 209.676 25.2749 211.415L6.92981 222.018C3.92146 223.757 0.215012 223.757 -2.79333 222.018L-21.1385 211.415C-24.1468 209.676 -26 206.463 -26 202.985V181.778C-26 178.301 -24.1468 175.087 -21.1385 173.348L-2.79333 162.745Z"/>
<path d="M64.4177 162.745C67.4261 161.006 71.1325 161.006 74.1408 162.745L92.486 173.348C95.4943 175.087 97.3475 178.301 97.3475 181.778V202.985C97.3475 206.463 95.4943 209.676 92.486 211.415L74.1408 222.018C71.1325 223.757 67.4261 223.757 64.4177 222.018L46.0726 211.415C43.0642 209.676 41.211 206.463 41.211 202.985V181.778C41.211 178.301 43.0642 175.087 46.0726 173.348L64.4177 162.745Z"/>
<path d="M131.756 162.745C134.764 161.006 138.47 161.006 141.479 162.745L159.824 173.348C162.832 175.087 164.685 178.301 164.685 181.778V202.985C164.685 206.463 162.832 209.676 159.824 211.415L141.479 222.018C138.47 223.757 134.764 223.757 131.756 222.018L113.411 211.415C110.402 209.676 108.549 206.463 108.549 202.985V181.778C108.549 178.301 110.402 175.087 113.411 173.348L131.756 162.745Z"/>
<path d="M198.903 162.745C201.912 161.006 205.618 161.006 208.626 162.745L226.971 173.348C229.98 175.087 231.833 178.301 231.833 181.778V202.985C231.833 206.463 229.98 209.676 226.971 211.415L208.626 222.018C205.618 223.757 201.912 223.757 198.903 222.018L180.558 211.415C177.55 209.676 175.697 206.463 175.697 202.985V181.778C175.697 178.301 177.55 175.087 180.558 173.348L198.903 162.745Z"/>
<path d="M266.114 162.745C269.123 161.006 272.829 161.006 275.837 162.745L294.182 173.348C297.191 175.087 299.044 178.301 299.044 181.778V202.985C299.044 206.463 297.191 209.676 294.182 211.415L275.837 222.018C272.829 223.757 269.123 223.757 266.114 222.018L247.769 211.415C244.761 209.676 242.908 206.463 242.908 202.985V181.778C242.908 178.301 244.761 175.087 247.769 173.348L266.114 162.745Z"/>
<path d="M333.325 162.745C336.334 161.006 340.04 161.006 343.048 162.745L361.394 173.348C364.402 175.087 366.255 178.301 366.255 181.778V202.985C366.255 206.463 364.402 209.676 361.394 211.415L343.048 222.018C340.04 223.757 336.334 223.757 333.325 222.018L314.98 211.415C311.972 209.676 310.119 206.463 310.119 202.985V181.778C310.119 178.301 311.972 175.087 314.98 173.348L333.325 162.745Z"/>
<path d="M400.473 162.745C403.481 161.006 407.188 161.006 410.196 162.745L428.541 173.348C431.549 175.087 433.403 178.301 433.403 181.778V202.985C433.403 206.463 431.549 209.676 428.541 211.415L410.196 222.018C407.188 223.757 403.481 223.757 400.473 222.018L382.128 211.415C379.119 209.676 377.266 206.463 377.266 202.985V181.778C377.266 178.301 379.119 175.087 382.128 173.348L400.473 162.745Z"/>
<path d="M467.684 162.745C470.692 161.006 474.399 161.006 477.407 162.745L495.752 173.348C498.761 175.087 500.614 178.301 500.614 181.778V202.985C500.614 206.463 498.761 209.676 495.752 211.415L477.407 222.018C474.399 223.757 470.692 223.757 467.684 222.018L449.339 211.415C446.33 209.676 444.477 206.463 444.477 202.985V181.778C444.477 178.301 446.33 175.087 449.339 173.348L467.684 162.745Z"/>
<path d="M972.087 -22.0855C975.095 -23.8244 978.801 -23.8244 981.81 -22.0855L1000.15 -11.4821C1003.16 -9.74328 1005.02 -6.52981 1005.02 -3.05217V18.1547C1005.02 21.6323 1003.16 24.8458 1000.15 26.5846L981.81 37.1881C978.801 38.9269 975.095 38.9269 972.087 37.1881L953.742 26.5846C950.733 24.8458 948.88 21.6323 948.88 18.1547V-3.05217C948.88 -6.52981 950.733 -9.74328 953.742 -11.4821L972.087 -22.0855Z"/>
<path d="M1039.23 -22.0855C1042.24 -23.8244 1045.95 -23.8244 1048.96 -22.0855L1067.3 -11.4821C1070.31 -9.74328 1072.16 -6.52981 1072.16 -3.05217V18.1547C1072.16 21.6323 1070.31 24.8458 1067.3 26.5846L1048.96 37.1881C1045.95 38.9269 1042.24 38.9269 1039.23 37.1881L1020.89 26.5846C1017.88 24.8458 1016.03 21.6323 1016.03 18.1547V-3.05217C1016.03 -6.52981 1017.88 -9.74328 1020.89 -11.4821L1039.23 -22.0855Z"/>
<path d="M1106.45 -22.0855C1109.45 -23.8244 1113.16 -23.8244 1116.17 -22.0855L1134.51 -11.4821C1137.52 -9.74328 1139.38 -6.52981 1139.38 -3.05217V18.1547C1139.38 21.6323 1137.52 24.8458 1134.51 26.5846L1116.17 37.1881C1113.16 38.9269 1109.45 38.9269 1106.45 37.1881L1088.1 26.5846C1085.09 24.8458 1083.24 21.6323 1083.24 18.1547V-3.05217C1083.24 -6.52981 1085.09 -9.74328 1088.1 -11.4821L1106.45 -22.0855Z"/>
<path d="M1173.66 -22.0855C1176.66 -23.8244 1180.37 -23.8244 1183.38 -22.0855L1201.72 -11.4821C1204.73 -9.74328 1206.59 -6.52981 1206.59 -3.05217V18.1547C1206.59 21.6323 1204.73 24.8458 1201.72 26.5846L1183.38 37.1881C1180.37 38.9269 1176.66 38.9269 1173.66 37.1881L1155.31 26.5846C1152.3 24.8458 1150.45 21.6323 1150.45 18.1547V-3.05217C1150.45 -6.52981 1152.3 -9.74328 1155.31 -11.4821L1173.66 -22.0855Z"/>
<path d="M1240.8 -22.0855C1243.81 -23.8244 1247.52 -23.8244 1250.53 -22.0855L1268.87 -11.4821C1271.88 -9.74328 1273.73 -6.52981 1273.73 -3.05217V18.1547C1273.73 21.6323 1271.88 24.8458 1268.87 26.5846L1250.53 37.1881C1247.52 38.9269 1243.81 38.9269 1240.8 37.1881L1222.46 26.5846C1219.45 24.8458 1217.6 21.6323 1217.6 18.1547V-3.05217C1217.6 -6.52981 1219.45 -9.74328 1222.46 -11.4821L1240.8 -22.0855Z"/>
<path d="M1308.01 -22.0855C1311.02 -23.8244 1314.73 -23.8244 1317.74 -22.0855L1336.08 -11.4821C1339.09 -9.74328 1340.94 -6.52981 1340.94 -3.05217V18.1547C1340.94 21.6323 1339.09 24.8458 1336.08 26.5846L1317.74 37.1881C1314.73 38.9269 1311.02 38.9269 1308.01 37.1881L1289.67 26.5846C1286.66 24.8458 1284.81 21.6323 1284.81 18.1547V-3.05217C1284.81 -6.52981 1286.66 -9.74328 1289.67 -11.4821L1308.01 -22.0855Z"/>
<path d="M1005.76 39.5246C1008.76 37.7858 1012.47 37.7858 1015.48 39.5246L1033.82 50.128C1036.83 51.8668 1038.69 55.0803 1038.69 58.558V79.7648C1038.69 83.2425 1036.83 86.4559 1033.82 88.1947L1015.48 98.7982C1012.47 100.537 1008.76 100.537 1005.76 98.7982L987.411 88.1947C984.402 86.4559 982.549 83.2425 982.549 79.7648V58.5579C982.549 55.0803 984.402 51.8668 987.411 50.128L1005.76 39.5246Z"/>
<path d="M1072.9 39.5246C1075.91 37.7858 1079.62 37.7858 1082.63 39.5246L1100.97 50.128C1103.98 51.8668 1105.83 55.0803 1105.83 58.558V79.7648C1105.83 83.2425 1103.98 86.4559 1100.97 88.1947L1082.63 98.7982C1079.62 100.537 1075.91 100.537 1072.9 98.7982L1054.56 88.1947C1051.55 86.4559 1049.7 83.2425 1049.7 79.7648V58.5579C1049.7 55.0803 1051.55 51.8668 1054.56 50.128L1072.9 39.5246Z"/>
<path d="M1140.11 39.5246C1143.12 37.7858 1146.83 37.7858 1149.84 39.5246L1168.18 50.128C1171.19 51.8668 1173.04 55.0803 1173.04 58.558V79.7648C1173.04 83.2425 1171.19 86.4559 1168.18 88.1947L1149.84 98.7982C1146.83 100.537 1143.12 100.537 1140.11 98.7982L1121.77 88.1947C1118.76 86.4559 1116.91 83.2425 1116.91 79.7648V58.5579C1116.91 55.0803 1118.76 51.8668 1121.77 50.128L1140.11 39.5246Z"/>
<path d="M1207.33 39.5246C1210.33 37.7858 1214.04 37.7858 1217.05 39.5246L1235.39 50.128C1238.4 51.8668 1240.26 55.0803 1240.26 58.558V79.7648C1240.26 83.2425 1238.4 86.4559 1235.39 88.1947L1217.05 98.7982C1214.04 100.537 1210.33 100.537 1207.33 98.7982L1188.98 88.1947C1185.97 86.4559 1184.12 83.2425 1184.12 79.7648V58.5579C1184.12 55.0803 1185.97 51.8668 1188.98 50.128L1207.33 39.5246Z"/>
<path d="M1274.47 39.5246C1277.48 37.7858 1281.19 37.7858 1284.2 39.5246L1302.54 50.128C1305.55 51.8668 1307.4 55.0803 1307.4 58.558V79.7648C1307.4 83.2425 1305.55 86.4559 1302.54 88.1947L1284.2 98.7982C1281.19 100.537 1277.48 100.537 1274.47 98.7982L1256.13 88.1947C1253.12 86.4559 1251.27 83.2425 1251.27 79.7648V58.5579C1251.27 55.0803 1253.12 51.8668 1256.13 50.128L1274.47 39.5246Z"/>
<path d="M1341.68 39.5246C1344.69 37.7858 1348.4 37.7858 1351.41 39.5246L1369.75 50.128C1372.76 51.8668 1374.61 55.0803 1374.61 58.558V79.7648C1374.61 83.2425 1372.76 86.4559 1369.75 88.1947L1351.41 98.7982C1348.4 100.537 1344.69 100.537 1341.68 98.7982L1323.34 88.1947C1320.33 86.4559 1318.48 83.2425 1318.48 79.7648V58.5579C1318.48 55.0803 1320.33 51.8668 1323.34 50.128L1341.68 39.5246Z"/>
<path d="M972.087 101.135C975.095 99.3959 978.801 99.3959 981.81 101.135L1000.15 111.738C1003.16 113.477 1005.02 116.69 1005.02 120.168V141.375C1005.02 144.853 1003.16 148.066 1000.15 149.805L981.81 160.408C978.801 162.147 975.095 162.147 972.087 160.408L953.742 149.805C950.733 148.066 948.88 144.853 948.88 141.375V120.168C948.88 116.69 950.733 113.477 953.742 111.738L972.087 101.135Z"/>
<path d="M1039.23 101.135C1042.24 99.3959 1045.95 99.3959 1048.96 101.135L1067.3 111.738C1070.31 113.477 1072.16 116.69 1072.16 120.168V141.375C1072.16 144.853 1070.31 148.066 1067.3 149.805L1048.96 160.408C1045.95 162.147 1042.24 162.147 1039.23 160.408L1020.89 149.805C1017.88 148.066 1016.03 144.853 1016.03 141.375V120.168C1016.03 116.69 1017.88 113.477 1020.89 111.738L1039.23 101.135Z"/>
<path d="M1106.45 101.135C1109.45 99.3959 1113.16 99.3959 1116.17 101.135L1134.51 111.738C1137.52 113.477 1139.38 116.69 1139.38 120.168V141.375C1139.38 144.853 1137.52 148.066 1134.51 149.805L1116.17 160.408C1113.16 162.147 1109.45 162.147 1106.45 160.408L1088.1 149.805C1085.09 148.066 1083.24 144.853 1083.24 141.375V120.168C1083.24 116.69 1085.09 113.477 1088.1 111.738L1106.45 101.135Z"/>
<path d="M1173.66 101.135C1176.66 99.3959 1180.37 99.3959 1183.38 101.135L1201.72 111.738C1204.73 113.477 1206.59 116.69 1206.59 120.168V141.375C1206.59 144.853 1204.73 148.066 1201.72 149.805L1183.38 160.408C1180.37 162.147 1176.66 162.147 1173.66 160.408L1155.31 149.805C1152.3 148.066 1150.45 144.853 1150.45 141.375V120.168C1150.45 116.69 1152.3 113.477 1155.31 111.738L1173.66 101.135Z"/>
<path d="M1240.8 101.135C1243.81 99.3959 1247.52 99.3959 1250.53 101.135L1268.87 111.738C1271.88 113.477 1273.73 116.69 1273.73 120.168V141.375C1273.73 144.853 1271.88 148.066 1268.87 149.805L1250.53 160.408C1247.52 162.147 1243.81 162.147 1240.8 160.408L1222.46 149.805C1219.45 148.066 1217.6 144.853 1217.6 141.375V120.168C1217.6 116.69 1219.45 113.477 1222.46 111.738L1240.8 101.135Z"/>
<path d="M1308.01 101.135C1311.02 99.3959 1314.73 99.3959 1317.74 101.135L1336.08 111.738C1339.09 113.477 1340.94 116.69 1340.94 120.168V141.375C1340.94 144.853 1339.09 148.066 1336.08 149.805L1317.74 160.408C1314.73 162.147 1311.02 162.147 1308.01 160.408L1289.67 149.805C1286.66 148.066 1284.81 144.853 1284.81 141.375V120.168C1284.81 116.69 1286.66 113.477 1289.67 111.738L1308.01 101.135Z"/>
<path d="M1005.76 162.745C1008.76 161.006 1012.47 161.006 1015.48 162.745L1033.82 173.348C1036.83 175.087 1038.69 178.301 1038.69 181.778V202.985C1038.69 206.463 1036.83 209.676 1033.82 211.415L1015.48 222.018C1012.47 223.757 1008.76 223.757 1005.76 222.018L987.411 211.415C984.402 209.676 982.549 206.463 982.549 202.985V181.778C982.549 178.301 984.402 175.087 987.411 173.348L1005.76 162.745Z"/>
<path d="M1072.9 162.745C1075.91 161.006 1079.62 161.006 1082.63 162.745L1100.97 173.348C1103.98 175.087 1105.83 178.301 1105.83 181.778V202.985C1105.83 206.463 1103.98 209.676 1100.97 211.415L1082.63 222.018C1079.62 223.757 1075.91 223.757 1072.9 222.018L1054.56 211.415C1051.55 209.676 1049.7 206.463 1049.7 202.985V181.778C1049.7 178.301 1051.55 175.087 1054.56 173.348L1072.9 162.745Z"/>
<path d="M1140.11 162.745C1143.12 161.006 1146.83 161.006 1149.84 162.745L1168.18 173.348C1171.19 175.087 1173.04 178.301 1173.04 181.778V202.985C1173.04 206.463 1171.19 209.676 1168.18 211.415L1149.84 222.018C1146.83 223.757 1143.12 223.757 1140.11 222.018L1121.77 211.415C1118.76 209.676 1116.91 206.463 1116.91 202.985V181.778C1116.91 178.301 1118.76 175.087 1121.77 173.348L1140.11 162.745Z"/>
<path d="M1207.33 162.745C1210.33 161.006 1214.04 161.006 1217.05 162.745L1235.39 173.348C1238.4 175.087 1240.26 178.301 1240.26 181.778V202.985C1240.26 206.463 1238.4 209.676 1235.39 211.415L1217.05 222.018C1214.04 223.757 1210.33 223.757 1207.33 222.018L1188.98 211.415C1185.97 209.676 1184.12 206.463 1184.12 202.985V181.778C1184.12 178.301 1185.97 175.087 1188.98 173.348L1207.33 162.745Z"/>
<path d="M1274.47 162.745C1277.48 161.006 1281.19 161.006 1284.2 162.745L1302.54 173.348C1305.55 175.087 1307.4 178.301 1307.4 181.778V202.985C1307.4 206.463 1305.55 209.676 1302.54 211.415L1284.2 222.018C1281.19 223.757 1277.48 223.757 1274.47 222.018L1256.13 211.415C1253.12 209.676 1251.27 206.463 1251.27 202.985V181.778C1251.27 178.301 1253.12 175.087 1256.13 173.348L1274.47 162.745Z"/>
<path d="M1341.68 162.745C1344.69 161.006 1348.4 161.006 1351.41 162.745L1369.75 173.348C1372.76 175.087 1374.61 178.301 1374.61 181.778V202.985C1374.61 206.463 1372.76 209.676 1369.75 211.415L1351.41 222.018C1348.4 223.757 1344.69 223.757 1341.68 222.018L1323.34 211.415C1320.33 209.676 1318.48 206.463 1318.48 202.985V181.778C1318.48 178.301 1320.33 175.087 1323.34 173.348L1341.68 162.745Z"/>
<path d="M501.749 -22.0855C504.757 -23.8244 508.464 -23.8244 511.472 -22.0855L529.817 -11.4821C532.825 -9.74328 534.679 -6.52981 534.679 -3.05217V18.1547C534.679 21.6323 532.825 24.8458 529.817 26.5846L511.472 37.1881C508.464 38.9269 504.757 38.9269 501.749 37.1881L483.404 26.5846C480.395 24.8458 478.542 21.6323 478.542 18.1547V-3.05217C478.542 -6.52981 480.395 -9.74328 483.404 -11.4821L501.749 -22.0855Z"/>
<path d="M569.087 -22.0855C572.095 -23.8244 575.801 -23.8244 578.81 -22.0855L597.155 -11.4821C600.163 -9.74328 602.016 -6.52981 602.016 -3.05217V18.1547C602.016 21.6323 600.163 24.8458 597.155 26.5846L578.81 37.1881C575.801 38.9269 572.095 38.9269 569.087 37.1881L550.742 26.5846C547.733 24.8458 545.88 21.6323 545.88 18.1547V-3.05217C545.88 -6.52981 547.733 -9.74328 550.742 -11.4821L569.087 -22.0855Z"/>
<path d="M636.234 -22.0855C639.243 -23.8244 642.949 -23.8244 645.957 -22.0855L664.303 -11.4821C667.311 -9.74328 669.164 -6.52981 669.164 -3.05217V18.1547C669.164 21.6323 667.311 24.8458 664.303 26.5846L645.957 37.1881C642.949 38.9269 639.243 38.9269 636.234 37.1881L617.889 26.5846C614.881 24.8458 613.028 21.6323 613.028 18.1547V-3.05217C613.028 -6.52981 614.881 -9.74328 617.889 -11.4821L636.234 -22.0855Z"/>
<path d="M703.445 -22.0855C706.454 -23.8244 710.16 -23.8244 713.168 -22.0855L731.514 -11.4821C734.522 -9.74328 736.375 -6.52981 736.375 -3.05217V18.1547C736.375 21.6323 734.522 24.8458 731.514 26.5846L713.168 37.1881C710.16 38.9269 706.454 38.9269 703.445 37.1881L685.1 26.5846C682.092 24.8458 680.239 21.6323 680.239 18.1547V-3.05217C680.239 -6.52981 682.092 -9.74328 685.1 -11.4821L703.445 -22.0855Z"/>
<path d="M770.656 -22.0855C773.665 -23.8244 777.371 -23.8244 780.379 -22.0855L798.725 -11.4821C801.733 -9.74328 803.586 -6.52981 803.586 -3.05217V18.1547C803.586 21.6323 801.733 24.8458 798.725 26.5846L780.379 37.1881C777.371 38.9269 773.665 38.9269 770.656 37.1881L752.311 26.5846C749.303 24.8458 747.45 21.6323 747.45 18.1547V-3.05217C747.45 -6.52981 749.303 -9.74328 752.311 -11.4821L770.656 -22.0855Z"/>
<path d="M837.804 -22.0855C840.812 -23.8244 844.519 -23.8244 847.527 -22.0855L865.872 -11.4821C868.881 -9.74328 870.734 -6.52981 870.734 -3.05217V18.1547C870.734 21.6323 868.881 24.8458 865.872 26.5846L847.527 37.1881C844.519 38.9269 840.812 38.9269 837.804 37.1881L819.459 26.5846C816.45 24.8458 814.597 21.6323 814.597 18.1547V-3.05217C814.597 -6.52981 816.45 -9.74328 819.459 -11.4821L837.804 -22.0855Z"/>
<path d="M905.015 -22.0855C908.023 -23.8244 911.73 -23.8244 914.738 -22.0855L933.083 -11.4821C936.092 -9.74328 937.945 -6.52981 937.945 -3.05217V18.1547C937.945 21.6323 936.092 24.8458 933.083 26.5846L914.738 37.1881C911.73 38.9269 908.023 38.9269 905.015 37.1881L886.67 26.5846C883.661 24.8458 881.808 21.6323 881.808 18.1547V-3.05217C881.808 -6.52981 883.661 -9.74328 886.67 -11.4821L905.015 -22.0855Z"/>
<path d="M535.418 39.5246C538.426 37.7858 542.133 37.7858 545.141 39.5246L563.486 50.128C566.494 51.8668 568.348 55.0803 568.348 58.558V79.7648C568.348 83.2425 566.494 86.4559 563.486 88.1947L545.141 98.7982C542.133 100.537 538.426 100.537 535.418 98.7982L517.073 88.1947C514.064 86.4559 512.211 83.2425 512.211 79.7648V58.5579C512.211 55.0803 514.064 51.8668 517.073 50.128L535.418 39.5246Z"/>
<path d="M602.756 39.5246C605.764 37.7858 609.47 37.7858 612.479 39.5246L630.824 50.128C633.832 51.8668 635.685 55.0803 635.685 58.558V79.7648C635.685 83.2425 633.832 86.4559 630.824 88.1947L612.479 98.7982C609.47 100.537 605.764 100.537 602.756 98.7982L584.411 88.1947C581.402 86.4559 579.549 83.2425 579.549 79.7648V58.5579C579.549 55.0803 581.402 51.8668 584.411 50.128L602.756 39.5246Z"/>
<path d="M669.903 39.5246C672.912 37.7858 676.618 37.7858 679.626 39.5246L697.971 50.128C700.98 51.8668 702.833 55.0803 702.833 58.558V79.7648C702.833 83.2425 700.98 86.4559 697.971 88.1947L679.626 98.7982C676.618 100.537 672.912 100.537 669.903 98.7982L651.558 88.1947C648.55 86.4559 646.697 83.2425 646.697 79.7648V58.5579C646.697 55.0803 648.55 51.8668 651.558 50.128L669.903 39.5246Z"/>
<path d="M737.114 39.5246C740.123 37.7858 743.829 37.7858 746.837 39.5246L765.182 50.128C768.191 51.8668 770.044 55.0803 770.044 58.558V79.7648C770.044 83.2425 768.191 86.4559 765.182 88.1947L746.837 98.7982C743.829 100.537 740.123 100.537 737.114 98.7982L718.769 88.1947C715.761 86.4559 713.908 83.2425 713.908 79.7648V58.5579C713.908 55.0803 715.761 51.8668 718.769 50.128L737.114 39.5246Z"/>
<path d="M804.325 39.5246C807.334 37.7858 811.04 37.7858 814.048 39.5246L832.394 50.128C835.402 51.8668 837.255 55.0803 837.255 58.558V79.7648C837.255 83.2425 835.402 86.4559 832.394 88.1947L814.048 98.7982C811.04 100.537 807.334 100.537 804.325 98.7982L785.98 88.1947C782.972 86.4559 781.119 83.2425 781.119 79.7648V58.5579C781.119 55.0803 782.972 51.8668 785.98 50.128L804.325 39.5246Z"/>
<path d="M871.473 39.5246C874.481 37.7858 878.188 37.7858 881.196 39.5246L899.541 50.128C902.549 51.8668 904.403 55.0803 904.403 58.558V79.7648C904.403 83.2425 902.549 86.4559 899.541 88.1947L881.196 98.7982C878.188 100.537 874.481 100.537 871.473 98.7982L853.128 88.1947C850.119 86.4559 848.266 83.2425 848.266 79.7648V58.5579C848.266 55.0803 850.119 51.8668 853.128 50.128L871.473 39.5246Z"/>
<path d="M938.684 39.5246C941.692 37.7858 945.399 37.7858 948.407 39.5246L966.752 50.128C969.761 51.8668 971.614 55.0803 971.614 58.558V79.7648C971.614 83.2425 969.761 86.4559 966.752 88.1947L948.407 98.7982C945.399 100.537 941.692 100.537 938.684 98.7982L920.339 88.1947C917.33 86.4559 915.477 83.2425 915.477 79.7648V58.5579C915.477 55.0803 917.33 51.8668 920.339 50.128L938.684 39.5246Z"/>
<path d="M501.749 101.135C504.757 99.3959 508.464 99.3959 511.472 101.135L529.817 111.738C532.825 113.477 534.679 116.69 534.679 120.168V141.375C534.679 144.853 532.825 148.066 529.817 149.805L511.472 160.408C508.464 162.147 504.757 162.147 501.749 160.408L483.404 149.805C480.395 148.066 478.542 144.853 478.542 141.375V120.168C478.542 116.69 480.395 113.477 483.404 111.738L501.749 101.135Z"/>
<path d="M569.087 101.135C572.095 99.3959 575.801 99.3959 578.81 101.135L597.155 111.738C600.163 113.477 602.016 116.69 602.016 120.168V141.375C602.016 144.853 600.163 148.066 597.155 149.805L578.81 160.408C575.801 162.147 572.095 162.147 569.087 160.408L550.742 149.805C547.733 148.066 545.88 144.853 545.88 141.375V120.168C545.88 116.69 547.733 113.477 550.742 111.738L569.087 101.135Z"/>
<path d="M636.234 101.135C639.243 99.3959 642.949 99.3959 645.957 101.135L664.303 111.738C667.311 113.477 669.164 116.69 669.164 120.168V141.375C669.164 144.853 667.311 148.066 664.303 149.805L645.957 160.408C642.949 162.147 639.243 162.147 636.234 160.408L617.889 149.805C614.881 148.066 613.028 144.853 613.028 141.375V120.168C613.028 116.69 614.881 113.477 617.889 111.738L636.234 101.135Z"/>
<path d="M703.445 101.135C706.454 99.3959 710.16 99.3959 713.168 101.135L731.514 111.738C734.522 113.477 736.375 116.69 736.375 120.168V141.375C736.375 144.853 734.522 148.066 731.514 149.805L713.168 160.408C710.16 162.147 706.454 162.147 703.445 160.408L685.1 149.805C682.092 148.066 680.239 144.853 680.239 141.375V120.168C680.239 116.69 682.092 113.477 685.1 111.738L703.445 101.135Z"/>
<path d="M770.656 101.135C773.665 99.3959 777.371 99.3959 780.379 101.135L798.725 111.738C801.733 113.477 803.586 116.69 803.586 120.168V141.375C803.586 144.853 801.733 148.066 798.725 149.805L780.379 160.408C777.371 162.147 773.665 162.147 770.656 160.408L752.311 149.805C749.303 148.066 747.45 144.853 747.45 141.375V120.168C747.45 116.69 749.303 113.477 752.311 111.738L770.656 101.135Z"/>
<path d="M837.804 101.135C840.812 99.3959 844.519 99.3959 847.527 101.135L865.872 111.738C868.881 113.477 870.734 116.69 870.734 120.168V141.375C870.734 144.853 868.881 148.066 865.872 149.805L847.527 160.408C844.519 162.147 840.812 162.147 837.804 160.408L819.459 149.805C816.45 148.066 814.597 144.853 814.597 141.375V120.168C814.597 116.69 816.45 113.477 819.459 111.738L837.804 101.135Z"/>
<path d="M905.015 101.135C908.023 99.3959 911.73 99.3959 914.738 101.135L933.083 111.738C936.092 113.477 937.945 116.69 937.945 120.168V141.375C937.945 144.853 936.092 148.066 933.083 149.805L914.738 160.408C911.73 162.147 908.023 162.147 905.015 160.408L886.67 149.805C883.661 148.066 881.808 144.853 881.808 141.375V120.168C881.808 116.69 883.661 113.477 886.67 111.738L905.015 101.135Z"/>
<path d="M535.418 162.745C538.426 161.006 542.133 161.006 545.141 162.745L563.486 173.348C566.494 175.087 568.348 178.301 568.348 181.778V202.985C568.348 206.463 566.494 209.676 563.486 211.415L545.141 222.018C542.133 223.757 538.426 223.757 535.418 222.018L517.073 211.415C514.064 209.676 512.211 206.463 512.211 202.985V181.778C512.211 178.301 514.064 175.087 517.073 173.348L535.418 162.745Z"/>
<path d="M602.756 162.745C605.764 161.006 609.47 161.006 612.479 162.745L630.824 173.348C633.832 175.087 635.685 178.301 635.685 181.778V202.985C635.685 206.463 633.832 209.676 630.824 211.415L612.479 222.018C609.47 223.757 605.764 223.757 602.756 222.018L584.411 211.415C581.402 209.676 579.549 206.463 579.549 202.985V181.778C579.549 178.301 581.402 175.087 584.411 173.348L602.756 162.745Z"/>
<path d="M669.903 162.745C672.912 161.006 676.618 161.006 679.626 162.745L697.971 173.348C700.98 175.087 702.833 178.301 702.833 181.778V202.985C702.833 206.463 700.98 209.676 697.971 211.415L679.626 222.018C676.618 223.757 672.912 223.757 669.903 222.018L651.558 211.415C648.55 209.676 646.697 206.463 646.697 202.985V181.778C646.697 178.301 648.55 175.087 651.558 173.348L669.903 162.745Z"/>
<path d="M737.114 162.745C740.123 161.006 743.829 161.006 746.837 162.745L765.182 173.348C768.191 175.087 770.044 178.301 770.044 181.778V202.985C770.044 206.463 768.191 209.676 765.182 211.415L746.837 222.018C743.829 223.757 740.123 223.757 737.114 222.018L718.769 211.415C715.761 209.676 713.908 206.463 713.908 202.985V181.778C713.908 178.301 715.761 175.087 718.769 173.348L737.114 162.745Z"/>
<path d="M804.325 162.745C807.334 161.006 811.04 161.006 814.048 162.745L832.394 173.348C835.402 175.087 837.255 178.301 837.255 181.778V202.985C837.255 206.463 835.402 209.676 832.394 211.415L814.048 222.018C811.04 223.757 807.334 223.757 804.325 222.018L785.98 211.415C782.972 209.676 781.119 206.463 781.119 202.985V181.778C781.119 178.301 782.972 175.087 785.98 173.348L804.325 162.745Z"/>
<path d="M871.473 162.745C874.481 161.006 878.188 161.006 881.196 162.745L899.541 173.348C902.549 175.087 904.403 178.301 904.403 181.778V202.985C904.403 206.463 902.549 209.676 899.541 211.415L881.196 222.018C878.188 223.757 874.481 223.757 871.473 222.018L853.128 211.415C850.119 209.676 848.266 206.463 848.266 202.985V181.778C848.266 178.301 850.119 175.087 853.128 173.348L871.473 162.745Z"/>
<path d="M938.684 162.745C941.692 161.006 945.399 161.006 948.407 162.745L966.752 173.348C969.761 175.087 971.614 178.301 971.614 181.778V202.985C971.614 206.463 969.761 209.676 966.752 211.415L948.407 222.018C945.399 223.757 941.692 223.757 938.684 222.018L920.339 211.415C917.33 209.676 915.477 206.463 915.477 202.985V181.778C915.477 178.301 917.33 175.087 920.339 173.348L938.684 162.745Z"/>
</mask>
<path d="M1374.75 -22.0855C1377.76 -23.8244 1381.46 -23.8244 1384.47 -22.0855L1402.82 -11.4821C1405.83 -9.74328 1407.68 -6.52981 1407.68 -3.05217V18.1547C1407.68 21.6323 1405.83 24.8458 1402.82 26.5846L1384.47 37.1881C1381.46 38.9269 1377.76 38.9269 1374.75 37.1881L1356.4 26.5846C1353.4 24.8458 1351.54 21.6323 1351.54 18.1547V-3.05217C1351.54 -6.52981 1353.4 -9.74328 1356.4 -11.4821L1374.75 -22.0855Z" stroke="#21262F" stroke-width="2" mask="url(#path-2-inside-1_22990_119954)"/>
<path d="M1442.09 -22.0855C1445.09 -23.8244 1448.8 -23.8244 1451.81 -22.0855L1470.15 -11.4821C1473.16 -9.74328 1475.02 -6.52981 1475.02 -3.05217V18.1547C1475.02 21.6323 1473.16 24.8458 1470.15 26.5846L1451.81 37.1881C1448.8 38.9269 1445.09 38.9269 1442.09 37.1881L1423.74 26.5846C1420.73 24.8458 1418.88 21.6323 1418.88 18.1547V-3.05217C1418.88 -6.52981 1420.73 -9.74328 1423.74 -11.4821L1442.09 -22.0855Z" stroke="#21262F" stroke-width="2" mask="url(#path-2-inside-1_22990_119954)"/>
<path d="M1408.42 39.5246C1411.43 37.7858 1415.13 37.7858 1418.14 39.5246L1436.49 50.128C1439.49 51.8668 1441.35 55.0803 1441.35 58.558V79.7648C1441.35 83.2425 1439.49 86.4559 1436.49 88.1947L1418.14 98.7982C1415.13 100.537 1411.43 100.537 1408.42 98.7982L1390.07 88.1947C1387.06 86.4559 1385.21 83.2425 1385.21 79.7648V58.5579C1385.21 55.0803 1387.06 51.8668 1390.07 50.128L1408.42 39.5246Z" stroke="#21262F" stroke-width="2" mask="url(#path-2-inside-1_22990_119954)"/>
<path d="M1374.75 101.135C1377.76 99.3959 1381.46 99.3959 1384.47 101.135L1402.82 111.738C1405.83 113.477 1407.68 116.69 1407.68 120.168V141.375C1407.68 144.853 1405.83 148.066 1402.82 149.805L1384.47 160.408C1381.46 162.147 1377.76 162.147 1374.75 160.408L1356.4 149.805C1353.4 148.066 1351.54 144.853 1351.54 141.375V120.168C1351.54 116.69 1353.4 113.477 1356.4 111.738L1374.75 101.135Z" stroke="#21262F" stroke-width="2" mask="url(#path-2-inside-1_22990_119954)"/>
<path d="M1442.09 101.135C1445.09 99.3959 1448.8 99.3959 1451.81 101.135L1470.15 111.738C1473.16 113.477 1475.02 116.69 1475.02 120.168V141.375C1475.02 144.853 1473.16 148.066 1470.15 149.805L1451.81 160.408C1448.8 162.147 1445.09 162.147 1442.09 160.408L1423.74 149.805C1420.73 148.066 1418.88 144.853 1418.88 141.375V120.168C1418.88 116.69 1420.73 113.477 1423.74 111.738L1442.09 101.135Z" stroke="#21262F" stroke-width="2" mask="url(#path-2-inside-1_22990_119954)"/>
<path d="M1408.42 162.745C1411.43 161.006 1415.13 161.006 1418.14 162.745L1436.49 173.348C1439.49 175.087 1441.35 178.301 1441.35 181.778V202.985C1441.35 206.463 1439.49 209.676 1436.49 211.415L1418.14 222.018C1415.13 223.757 1411.43 223.757 1408.42 222.018L1390.07 211.415C1387.06 209.676 1385.21 206.463 1385.21 202.985V181.778C1385.21 178.301 1387.06 175.087 1390.07 173.348L1408.42 162.745Z" stroke="#21262F" stroke-width="2" mask="url(#path-2-inside-1_22990_119954)"/>
<path d="M30.7487 -22.0855C33.7571 -23.8244 37.4635 -23.8244 40.4719 -22.0855L58.817 -11.4821C61.8253 -9.74328 63.6786 -6.52981 63.6786 -3.05217V18.1547C63.6786 21.6323 61.8253 24.8458 58.817 26.5846L40.4719 37.1881C37.4635 38.9269 33.7571 38.9269 30.7487 37.1881L12.4036 26.5846C9.39528 24.8458 7.54205 21.6323 7.54205 18.1547V-3.05217C7.54205 -6.52981 9.39528 -9.74328 12.4036 -11.4821L30.7487 -22.0855Z" stroke="#21262F" stroke-width="2" mask="url(#path-2-inside-1_22990_119954)"/>
<path d="M98.0866 -22.0855C101.095 -23.8244 104.801 -23.8244 107.81 -22.0855L126.155 -11.4821C129.163 -9.74328 131.016 -6.52981 131.016 -3.05217V18.1547C131.016 21.6323 129.163 24.8458 126.155 26.5846L107.81 37.1881C104.801 38.9269 101.095 38.9269 98.0866 37.1881L79.7415 26.5846C76.7332 24.8458 74.88 21.6323 74.88 18.1547V-3.05217C74.88 -6.52981 76.7332 -9.74328 79.7415 -11.4821L98.0866 -22.0855Z" stroke="#21262F" stroke-width="2" mask="url(#path-2-inside-1_22990_119954)"/>
<path d="M165.234 -22.0855C168.243 -23.8244 171.949 -23.8244 174.957 -22.0855L193.303 -11.4821C196.311 -9.74328 198.164 -6.52981 198.164 -3.05217V18.1547C198.164 21.6323 196.311 24.8458 193.303 26.5846L174.957 37.1881C171.949 38.9269 168.243 38.9269 165.234 37.1881L146.889 26.5846C143.881 24.8458 142.028 21.6323 142.028 18.1547V-3.05217C142.028 -6.52981 143.881 -9.74328 146.889 -11.4821L165.234 -22.0855Z" stroke="#21262F" stroke-width="2" mask="url(#path-2-inside-1_22990_119954)"/>
<path d="M232.445 -22.0855C235.454 -23.8244 239.16 -23.8244 242.168 -22.0855L260.514 -11.4821C263.522 -9.74328 265.375 -6.52981 265.375 -3.05217V18.1547C265.375 21.6323 263.522 24.8458 260.514 26.5846L242.168 37.1881C239.16 38.9269 235.454 38.9269 232.445 37.1881L214.1 26.5846C211.092 24.8458 209.239 21.6323 209.239 18.1547V-3.05217C209.239 -6.52981 211.092 -9.74328 214.1 -11.4821L232.445 -22.0855Z" stroke="#21262F" stroke-width="2" mask="url(#path-2-inside-1_22990_119954)"/>
<path d="M299.656 -22.0855C302.665 -23.8244 306.371 -23.8244 309.379 -22.0855L327.725 -11.4821C330.733 -9.74328 332.586 -6.52981 332.586 -3.05217V18.1547C332.586 21.6323 330.733 24.8458 327.725 26.5846L309.379 37.1881C306.371 38.9269 302.665 38.9269 299.656 37.1881L281.311 26.5846C278.303 24.8458 276.45 21.6323 276.45 18.1547V-3.05217C276.45 -6.52981 278.303 -9.74328 281.311 -11.4821L299.656 -22.0855Z" stroke="#21262F" stroke-width="2" mask="url(#path-2-inside-1_22990_119954)"/>
<path d="M366.804 -22.0855C369.812 -23.8244 373.519 -23.8244 376.527 -22.0855L394.872 -11.4821C397.881 -9.74328 399.734 -6.52981 399.734 -3.05217V18.1547C399.734 21.6323 397.881 24.8458 394.872 26.5846L376.527 37.1881C373.519 38.9269 369.812 38.9269 366.804 37.1881L348.459 26.5846C345.45 24.8458 343.597 21.6323 343.597 18.1547V-3.05217C343.597 -6.52981 345.45 -9.74328 348.459 -11.4821L366.804 -22.0855Z" stroke="#21262F" stroke-width="2" mask="url(#path-2-inside-1_22990_119954)"/>
<path d="M434.015 -22.0855C437.023 -23.8244 440.73 -23.8244 443.738 -22.0855L462.083 -11.4821C465.092 -9.74328 466.945 -6.52981 466.945 -3.05217V18.1547C466.945 21.6323 465.092 24.8458 462.083 26.5846L443.738 37.1881C440.73 38.9269 437.023 38.9269 434.015 37.1881L415.67 26.5846C412.662 24.8458 410.808 21.6323 410.808 18.1547V-3.05217C410.808 -6.52981 412.662 -9.74328 415.67 -11.4821L434.015 -22.0855Z" stroke="#21262F" stroke-width="2" mask="url(#path-2-inside-1_22990_119954)"/>
<path d="M-2.79333 39.5246C0.215012 37.7858 3.92146 37.7858 6.92981 39.5246L25.2749 50.128C28.2833 51.8668 30.1365 55.0803 30.1365 58.558V79.7648C30.1365 83.2425 28.2833 86.4559 25.2749 88.1947L6.92981 98.7982C3.92146 100.537 0.215012 100.537 -2.79333 98.7982L-21.1385 88.1947C-24.1468 86.4559 -26 83.2425 -26 79.7648V58.5579C-26 55.0803 -24.1468 51.8668 -21.1385 50.128L-2.79333 39.5246Z" stroke="#21262F" stroke-width="2" mask="url(#path-2-inside-1_22990_119954)"/>
<path d="M64.4177 39.5246C67.4261 37.7858 71.1325 37.7858 74.1408 39.5246L92.486 50.128C95.4943 51.8668 97.3475 55.0803 97.3475 58.558V79.7648C97.3475 83.2425 95.4943 86.4559 92.486 88.1947L74.1408 98.7982C71.1325 100.537 67.4261 100.537 64.4177 98.7982L46.0726 88.1947C43.0642 86.4559 41.211 83.2425 41.211 79.7648V58.5579C41.211 55.0803 43.0642 51.8668 46.0726 50.128L64.4177 39.5246Z" stroke="#21262F" stroke-width="2" mask="url(#path-2-inside-1_22990_119954)"/>
<path d="M131.756 39.5246C134.764 37.7858 138.47 37.7858 141.479 39.5246L159.824 50.128C162.832 51.8668 164.685 55.0803 164.685 58.558V79.7648C164.685 83.2425 162.832 86.4559 159.824 88.1947L141.479 98.7982C138.47 100.537 134.764 100.537 131.756 98.7982L113.411 88.1947C110.402 86.4559 108.549 83.2425 108.549 79.7648V58.5579C108.549 55.0803 110.402 51.8668 113.411 50.128L131.756 39.5246Z" stroke="#21262F" stroke-width="2" mask="url(#path-2-inside-1_22990_119954)"/>
<path d="M198.903 39.5246C201.912 37.7858 205.618 37.7858 208.626 39.5246L226.971 50.128C229.98 51.8668 231.833 55.0803 231.833 58.558V79.7648C231.833 83.2425 229.98 86.4559 226.971 88.1947L208.626 98.7982C205.618 100.537 201.912 100.537 198.903 98.7982L180.558 88.1947C177.55 86.4559 175.697 83.2425 175.697 79.7648V58.5579C175.697 55.0803 177.55 51.8668 180.558 50.128L198.903 39.5246Z" stroke="#21262F" stroke-width="2" mask="url(#path-2-inside-1_22990_119954)"/>
<path d="M266.114 39.5246C269.123 37.7858 272.829 37.7858 275.837 39.5246L294.182 50.128C297.191 51.8668 299.044 55.0803 299.044 58.558V79.7648C299.044 83.2425 297.191 86.4559 294.182 88.1947L275.837 98.7982C272.829 100.537 269.123 100.537 266.114 98.7982L247.769 88.1947C244.761 86.4559 242.908 83.2425 242.908 79.7648V58.5579C242.908 55.0803 244.761 51.8668 247.769 50.128L266.114 39.5246Z" stroke="#21262F" stroke-width="2" mask="url(#path-2-inside-1_22990_119954)"/>
<path d="M333.325 39.5246C336.334 37.7858 340.04 37.7858 343.048 39.5246L361.394 50.128C364.402 51.8668 366.255 55.0803 366.255 58.558V79.7648C366.255 83.2425 364.402 86.4559 361.394 88.1947L343.048 98.7982C340.04 100.537 336.334 100.537 333.325 98.7982L314.98 88.1947C311.972 86.4559 310.119 83.2425 310.119 79.7648V58.5579C310.119 55.0803 311.972 51.8668 314.98 50.128L333.325 39.5246Z" stroke="#21262F" stroke-width="2" mask="url(#path-2-inside-1_22990_119954)"/>
<path d="M400.473 39.5246C403.481 37.7858 407.188 37.7858 410.196 39.5246L428.541 50.128C431.549 51.8668 433.403 55.0803 433.403 58.558V79.7648C433.403 83.2425 431.549 86.4559 428.541 88.1947L410.196 98.7982C407.188 100.537 403.481 100.537 400.473 98.7982L382.128 88.1947C379.119 86.4559 377.266 83.2425 377.266 79.7648V58.5579C377.266 55.0803 379.119 51.8668 382.128 50.128L400.473 39.5246Z" stroke="#21262F" stroke-width="2" mask="url(#path-2-inside-1_22990_119954)"/>
<path d="M467.684 39.5246C470.692 37.7858 474.399 37.7858 477.407 39.5246L495.752 50.128C498.761 51.8668 500.614 55.0803 500.614 58.558V79.7648C500.614 83.2425 498.761 86.4559 495.752 88.1947L477.407 98.7982C474.399 100.537 470.692 100.537 467.684 98.7982L449.339 88.1947C446.33 86.4559 444.477 83.2425 444.477 79.7648V58.5579C444.477 55.0803 446.33 51.8668 449.339 50.128L467.684 39.5246Z" stroke="#21262F" stroke-width="2" mask="url(#path-2-inside-1_22990_119954)"/>
<path d="M30.7487 101.135C33.7571 99.3959 37.4635 99.3959 40.4719 101.135L58.817 111.738C61.8253 113.477 63.6786 116.69 63.6786 120.168V141.375C63.6786 144.853 61.8253 148.066 58.817 149.805L40.4719 160.408C37.4635 162.147 33.7571 162.147 30.7487 160.408L12.4036 149.805C9.39528 148.066 7.54205 144.853 7.54205 141.375V120.168C7.54205 116.69 9.39528 113.477 12.4036 111.738L30.7487 101.135Z" stroke="#21262F" stroke-width="2" mask="url(#path-2-inside-1_22990_119954)"/>
<path d="M98.0866 101.135C101.095 99.3959 104.801 99.3959 107.81 101.135L126.155 111.738C129.163 113.477 131.016 116.69 131.016 120.168V141.375C131.016 144.853 129.163 148.066 126.155 149.805L107.81 160.408C104.801 162.147 101.095 162.147 98.0866 160.408L79.7415 149.805C76.7332 148.066 74.88 144.853 74.88 141.375V120.168C74.88 116.69 76.7332 113.477 79.7415 111.738L98.0866 101.135Z" stroke="#21262F" stroke-width="2" mask="url(#path-2-inside-1_22990_119954)"/>
<path d="M165.234 101.135C168.243 99.3959 171.949 99.3959 174.957 101.135L193.303 111.738C196.311 113.477 198.164 116.69 198.164 120.168V141.375C198.164 144.853 196.311 148.066 193.303 149.805L174.957 160.408C171.949 162.147 168.243 162.147 165.234 160.408L146.889 149.805C143.881 148.066 142.028 144.853 142.028 141.375V120.168C142.028 116.69 143.881 113.477 146.889 111.738L165.234 101.135Z" stroke="#21262F" stroke-width="2" mask="url(#path-2-inside-1_22990_119954)"/>
<path d="M232.445 101.135C235.454 99.3959 239.16 99.3959 242.168 101.135L260.514 111.738C263.522 113.477 265.375 116.69 265.375 120.168V141.375C265.375 144.853 263.522 148.066 260.514 149.805L242.168 160.408C239.16 162.147 235.454 162.147 232.445 160.408L214.1 149.805C211.092 148.066 209.239 144.853 209.239 141.375V120.168C209.239 116.69 211.092 113.477 214.1 111.738L232.445 101.135Z" stroke="#21262F" stroke-width="2" mask="url(#path-2-inside-1_22990_119954)"/>
<path d="M299.656 101.135C302.665 99.3959 306.371 99.3959 309.379 101.135L327.725 111.738C330.733 113.477 332.586 116.69 332.586 120.168V141.375C332.586 144.853 330.733 148.066 327.725 149.805L309.379 160.408C306.371 162.147 302.665 162.147 299.656 160.408L281.311 149.805C278.303 148.066 276.45 144.853 276.45 141.375V120.168C276.45 116.69 278.303 113.477 281.311 111.738L299.656 101.135Z" stroke="#21262F" stroke-width="2" mask="url(#path-2-inside-1_22990_119954)"/>
<path d="M366.804 101.135C369.812 99.3959 373.519 99.3959 376.527 101.135L394.872 111.738C397.881 113.477 399.734 116.69 399.734 120.168V141.375C399.734 144.853 397.881 148.066 394.872 149.805L376.527 160.408C373.519 162.147 369.812 162.147 366.804 160.408L348.459 149.805C345.45 148.066 343.597 144.853 343.597 141.375V120.168C343.597 116.69 345.45 113.477 348.459 111.738L366.804 101.135Z" stroke="#21262F" stroke-width="2" mask="url(#path-2-inside-1_22990_119954)"/>
<path d="M434.015 101.135C437.023 99.3959 440.73 99.3959 443.738 101.135L462.083 111.738C465.092 113.477 466.945 116.69 466.945 120.168V141.375C466.945 144.853 465.092 148.066 462.083 149.805L443.738 160.408C440.73 162.147 437.023 162.147 434.015 160.408L415.67 149.805C412.662 148.066 410.808 144.853 410.808 141.375V120.168C410.808 116.69 412.662 113.477 415.67 111.738L434.015 101.135Z" stroke="#21262F" stroke-width="2" mask="url(#path-2-inside-1_22990_119954)"/>
<path d="M-2.79333 162.745C0.215012 161.006 3.92146 161.006 6.92981 162.745L25.2749 173.348C28.2833 175.087 30.1365 178.301 30.1365 181.778V202.985C30.1365 206.463 28.2833 209.676 25.2749 211.415L6.92981 222.018C3.92146 223.757 0.215012 223.757 -2.79333 222.018L-21.1385 211.415C-24.1468 209.676 -26 206.463 -26 202.985V181.778C-26 178.301 -24.1468 175.087 -21.1385 173.348L-2.79333 162.745Z" stroke="#21262F" stroke-width="2" mask="url(#path-2-inside-1_22990_119954)"/>
<path d="M64.4177 162.745C67.4261 161.006 71.1325 161.006 74.1408 162.745L92.486 173.348C95.4943 175.087 97.3475 178.301 97.3475 181.778V202.985C97.3475 206.463 95.4943 209.676 92.486 211.415L74.1408 222.018C71.1325 223.757 67.4261 223.757 64.4177 222.018L46.0726 211.415C43.0642 209.676 41.211 206.463 41.211 202.985V181.778C41.211 178.301 43.0642 175.087 46.0726 173.348L64.4177 162.745Z" stroke="#21262F" stroke-width="2" mask="url(#path-2-inside-1_22990_119954)"/>
<path d="M131.756 162.745C134.764 161.006 138.47 161.006 141.479 162.745L159.824 173.348C162.832 175.087 164.685 178.301 164.685 181.778V202.985C164.685 206.463 162.832 209.676 159.824 211.415L141.479 222.018C138.47 223.757 134.764 223.757 131.756 222.018L113.411 211.415C110.402 209.676 108.549 206.463 108.549 202.985V181.778C108.549 178.301 110.402 175.087 113.411 173.348L131.756 162.745Z" stroke="#21262F" stroke-width="2" mask="url(#path-2-inside-1_22990_119954)"/>
<path d="M198.903 162.745C201.912 161.006 205.618 161.006 208.626 162.745L226.971 173.348C229.98 175.087 231.833 178.301 231.833 181.778V202.985C231.833 206.463 229.98 209.676 226.971 211.415L208.626 222.018C205.618 223.757 201.912 223.757 198.903 222.018L180.558 211.415C177.55 209.676 175.697 206.463 175.697 202.985V181.778C175.697 178.301 177.55 175.087 180.558 173.348L198.903 162.745Z" stroke="#21262F" stroke-width="2" mask="url(#path-2-inside-1_22990_119954)"/>
<path d="M266.114 162.745C269.123 161.006 272.829 161.006 275.837 162.745L294.182 173.348C297.191 175.087 299.044 178.301 299.044 181.778V202.985C299.044 206.463 297.191 209.676 294.182 211.415L275.837 222.018C272.829 223.757 269.123 223.757 266.114 222.018L247.769 211.415C244.761 209.676 242.908 206.463 242.908 202.985V181.778C242.908 178.301 244.761 175.087 247.769 173.348L266.114 162.745Z" stroke="#21262F" stroke-width="2" mask="url(#path-2-inside-1_22990_119954)"/>
<path d="M333.325 162.745C336.334 161.006 340.04 161.006 343.048 162.745L361.394 173.348C364.402 175.087 366.255 178.301 366.255 181.778V202.985C366.255 206.463 364.402 209.676 361.394 211.415L343.048 222.018C340.04 223.757 336.334 223.757 333.325 222.018L314.98 211.415C311.972 209.676 310.119 206.463 310.119 202.985V181.778C310.119 178.301 311.972 175.087 314.98 173.348L333.325 162.745Z" stroke="#21262F" stroke-width="2" mask="url(#path-2-inside-1_22990_119954)"/>
<path d="M400.473 162.745C403.481 161.006 407.188 161.006 410.196 162.745L428.541 173.348C431.549 175.087 433.403 178.301 433.403 181.778V202.985C433.403 206.463 431.549 209.676 428.541 211.415L410.196 222.018C407.188 223.757 403.481 223.757 400.473 222.018L382.128 211.415C379.119 209.676 377.266 206.463 377.266 202.985V181.778C377.266 178.301 379.119 175.087 382.128 173.348L400.473 162.745Z" stroke="#21262F" stroke-width="2" mask="url(#path-2-inside-1_22990_119954)"/>
<path d="M467.684 162.745C470.692 161.006 474.399 161.006 477.407 162.745L495.752 173.348C498.761 175.087 500.614 178.301 500.614 181.778V202.985C500.614 206.463 498.761 209.676 495.752 211.415L477.407 222.018C474.399 223.757 470.692 223.757 467.684 222.018L449.339 211.415C446.33 209.676 444.477 206.463 444.477 202.985V181.778C444.477 178.301 446.33 175.087 449.339 173.348L467.684 162.745Z" stroke="#21262F" stroke-width="2" mask="url(#path-2-inside-1_22990_119954)"/>
<path d="M972.087 -22.0855C975.095 -23.8244 978.801 -23.8244 981.81 -22.0855L1000.15 -11.4821C1003.16 -9.74328 1005.02 -6.52981 1005.02 -3.05217V18.1547C1005.02 21.6323 1003.16 24.8458 1000.15 26.5846L981.81 37.1881C978.801 38.9269 975.095 38.9269 972.087 37.1881L953.742 26.5846C950.733 24.8458 948.88 21.6323 948.88 18.1547V-3.05217C948.88 -6.52981 950.733 -9.74328 953.742 -11.4821L972.087 -22.0855Z" stroke="#21262F" stroke-width="2" mask="url(#path-2-inside-1_22990_119954)"/>
<path d="M1039.23 -22.0855C1042.24 -23.8244 1045.95 -23.8244 1048.96 -22.0855L1067.3 -11.4821C1070.31 -9.74328 1072.16 -6.52981 1072.16 -3.05217V18.1547C1072.16 21.6323 1070.31 24.8458 1067.3 26.5846L1048.96 37.1881C1045.95 38.9269 1042.24 38.9269 1039.23 37.1881L1020.89 26.5846C1017.88 24.8458 1016.03 21.6323 1016.03 18.1547V-3.05217C1016.03 -6.52981 1017.88 -9.74328 1020.89 -11.4821L1039.23 -22.0855Z" stroke="#21262F" stroke-width="2" mask="url(#path-2-inside-1_22990_119954)"/>
<path d="M1106.45 -22.0855C1109.45 -23.8244 1113.16 -23.8244 1116.17 -22.0855L1134.51 -11.4821C1137.52 -9.74328 1139.38 -6.52981 1139.38 -3.05217V18.1547C1139.38 21.6323 1137.52 24.8458 1134.51 26.5846L1116.17 37.1881C1113.16 38.9269 1109.45 38.9269 1106.45 37.1881L1088.1 26.5846C1085.09 24.8458 1083.24 21.6323 1083.24 18.1547V-3.05217C1083.24 -6.52981 1085.09 -9.74328 1088.1 -11.4821L1106.45 -22.0855Z" stroke="#21262F" stroke-width="2" mask="url(#path-2-inside-1_22990_119954)"/>
<path d="M1173.66 -22.0855C1176.66 -23.8244 1180.37 -23.8244 1183.38 -22.0855L1201.72 -11.4821C1204.73 -9.74328 1206.59 -6.52981 1206.59 -3.05217V18.1547C1206.59 21.6323 1204.73 24.8458 1201.72 26.5846L1183.38 37.1881C1180.37 38.9269 1176.66 38.9269 1173.66 37.1881L1155.31 26.5846C1152.3 24.8458 1150.45 21.6323 1150.45 18.1547V-3.05217C1150.45 -6.52981 1152.3 -9.74328 1155.31 -11.4821L1173.66 -22.0855Z" stroke="#21262F" stroke-width="2" mask="url(#path-2-inside-1_22990_119954)"/>
<path d="M1240.8 -22.0855C1243.81 -23.8244 1247.52 -23.8244 1250.53 -22.0855L1268.87 -11.4821C1271.88 -9.74328 1273.73 -6.52981 1273.73 -3.05217V18.1547C1273.73 21.6323 1271.88 24.8458 1268.87 26.5846L1250.53 37.1881C1247.52 38.9269 1243.81 38.9269 1240.8 37.1881L1222.46 26.5846C1219.45 24.8458 1217.6 21.6323 1217.6 18.1547V-3.05217C1217.6 -6.52981 1219.45 -9.74328 1222.46 -11.4821L1240.8 -22.0855Z" stroke="#21262F" stroke-width="2" mask="url(#path-2-inside-1_22990_119954)"/>
<path d="M1308.01 -22.0855C1311.02 -23.8244 1314.73 -23.8244 1317.74 -22.0855L1336.08 -11.4821C1339.09 -9.74328 1340.94 -6.52981 1340.94 -3.05217V18.1547C1340.94 21.6323 1339.09 24.8458 1336.08 26.5846L1317.74 37.1881C1314.73 38.9269 1311.02 38.9269 1308.01 37.1881L1289.67 26.5846C1286.66 24.8458 1284.81 21.6323 1284.81 18.1547V-3.05217C1284.81 -6.52981 1286.66 -9.74328 1289.67 -11.4821L1308.01 -22.0855Z" stroke="#21262F" stroke-width="2" mask="url(#path-2-inside-1_22990_119954)"/>
<path d="M1005.76 39.5246C1008.76 37.7858 1012.47 37.7858 1015.48 39.5246L1033.82 50.128C1036.83 51.8668 1038.69 55.0803 1038.69 58.558V79.7648C1038.69 83.2425 1036.83 86.4559 1033.82 88.1947L1015.48 98.7982C1012.47 100.537 1008.76 100.537 1005.76 98.7982L987.411 88.1947C984.402 86.4559 982.549 83.2425 982.549 79.7648V58.5579C982.549 55.0803 984.402 51.8668 987.411 50.128L1005.76 39.5246Z" stroke="#21262F" stroke-width="2" mask="url(#path-2-inside-1_22990_119954)"/>
<path d="M1072.9 39.5246C1075.91 37.7858 1079.62 37.7858 1082.63 39.5246L1100.97 50.128C1103.98 51.8668 1105.83 55.0803 1105.83 58.558V79.7648C1105.83 83.2425 1103.98 86.4559 1100.97 88.1947L1082.63 98.7982C1079.62 100.537 1075.91 100.537 1072.9 98.7982L1054.56 88.1947C1051.55 86.4559 1049.7 83.2425 1049.7 79.7648V58.5579C1049.7 55.0803 1051.55 51.8668 1054.56 50.128L1072.9 39.5246Z" stroke="#21262F" stroke-width="2" mask="url(#path-2-inside-1_22990_119954)"/>
<path d="M1140.11 39.5246C1143.12 37.7858 1146.83 37.7858 1149.84 39.5246L1168.18 50.128C1171.19 51.8668 1173.04 55.0803 1173.04 58.558V79.7648C1173.04 83.2425 1171.19 86.4559 1168.18 88.1947L1149.84 98.7982C1146.83 100.537 1143.12 100.537 1140.11 98.7982L1121.77 88.1947C1118.76 86.4559 1116.91 83.2425 1116.91 79.7648V58.5579C1116.91 55.0803 1118.76 51.8668 1121.77 50.128L1140.11 39.5246Z" stroke="#21262F" stroke-width="2" mask="url(#path-2-inside-1_22990_119954)"/>
<path d="M1207.33 39.5246C1210.33 37.7858 1214.04 37.7858 1217.05 39.5246L1235.39 50.128C1238.4 51.8668 1240.26 55.0803 1240.26 58.558V79.7648C1240.26 83.2425 1238.4 86.4559 1235.39 88.1947L1217.05 98.7982C1214.04 100.537 1210.33 100.537 1207.33 98.7982L1188.98 88.1947C1185.97 86.4559 1184.12 83.2425 1184.12 79.7648V58.5579C1184.12 55.0803 1185.97 51.8668 1188.98 50.128L1207.33 39.5246Z" stroke="#21262F" stroke-width="2" mask="url(#path-2-inside-1_22990_119954)"/>
<path d="M1274.47 39.5246C1277.48 37.7858 1281.19 37.7858 1284.2 39.5246L1302.54 50.128C1305.55 51.8668 1307.4 55.0803 1307.4 58.558V79.7648C1307.4 83.2425 1305.55 86.4559 1302.54 88.1947L1284.2 98.7982C1281.19 100.537 1277.48 100.537 1274.47 98.7982L1256.13 88.1947C1253.12 86.4559 1251.27 83.2425 1251.27 79.7648V58.5579C1251.27 55.0803 1253.12 51.8668 1256.13 50.128L1274.47 39.5246Z" stroke="#21262F" stroke-width="2" mask="url(#path-2-inside-1_22990_119954)"/>
<path d="M1341.68 39.5246C1344.69 37.7858 1348.4 37.7858 1351.41 39.5246L1369.75 50.128C1372.76 51.8668 1374.61 55.0803 1374.61 58.558V79.7648C1374.61 83.2425 1372.76 86.4559 1369.75 88.1947L1351.41 98.7982C1348.4 100.537 1344.69 100.537 1341.68 98.7982L1323.34 88.1947C1320.33 86.4559 1318.48 83.2425 1318.48 79.7648V58.5579C1318.48 55.0803 1320.33 51.8668 1323.34 50.128L1341.68 39.5246Z" stroke="#21262F" stroke-width="2" mask="url(#path-2-inside-1_22990_119954)"/>
<path d="M972.087 101.135C975.095 99.3959 978.801 99.3959 981.81 101.135L1000.15 111.738C1003.16 113.477 1005.02 116.69 1005.02 120.168V141.375C1005.02 144.853 1003.16 148.066 1000.15 149.805L981.81 160.408C978.801 162.147 975.095 162.147 972.087 160.408L953.742 149.805C950.733 148.066 948.88 144.853 948.88 141.375V120.168C948.88 116.69 950.733 113.477 953.742 111.738L972.087 101.135Z" stroke="#21262F" stroke-width="2" mask="url(#path-2-inside-1_22990_119954)"/>
<path d="M1039.23 101.135C1042.24 99.3959 1045.95 99.3959 1048.96 101.135L1067.3 111.738C1070.31 113.477 1072.16 116.69 1072.16 120.168V141.375C1072.16 144.853 1070.31 148.066 1067.3 149.805L1048.96 160.408C1045.95 162.147 1042.24 162.147 1039.23 160.408L1020.89 149.805C1017.88 148.066 1016.03 144.853 1016.03 141.375V120.168C1016.03 116.69 1017.88 113.477 1020.89 111.738L1039.23 101.135Z" stroke="#21262F" stroke-width="2" mask="url(#path-2-inside-1_22990_119954)"/>
<path d="M1106.45 101.135C1109.45 99.3959 1113.16 99.3959 1116.17 101.135L1134.51 111.738C1137.52 113.477 1139.38 116.69 1139.38 120.168V141.375C1139.38 144.853 1137.52 148.066 1134.51 149.805L1116.17 160.408C1113.16 162.147 1109.45 162.147 1106.45 160.408L1088.1 149.805C1085.09 148.066 1083.24 144.853 1083.24 141.375V120.168C1083.24 116.69 1085.09 113.477 1088.1 111.738L1106.45 101.135Z" stroke="#21262F" stroke-width="2" mask="url(#path-2-inside-1_22990_119954)"/>
<path d="M1173.66 101.135C1176.66 99.3959 1180.37 99.3959 1183.38 101.135L1201.72 111.738C1204.73 113.477 1206.59 116.69 1206.59 120.168V141.375C1206.59 144.853 1204.73 148.066 1201.72 149.805L1183.38 160.408C1180.37 162.147 1176.66 162.147 1173.66 160.408L1155.31 149.805C1152.3 148.066 1150.45 144.853 1150.45 141.375V120.168C1150.45 116.69 1152.3 113.477 1155.31 111.738L1173.66 101.135Z" stroke="#21262F" stroke-width="2" mask="url(#path-2-inside-1_22990_119954)"/>
<path d="M1240.8 101.135C1243.81 99.3959 1247.52 99.3959 1250.53 101.135L1268.87 111.738C1271.88 113.477 1273.73 116.69 1273.73 120.168V141.375C1273.73 144.853 1271.88 148.066 1268.87 149.805L1250.53 160.408C1247.52 162.147 1243.81 162.147 1240.8 160.408L1222.46 149.805C1219.45 148.066 1217.6 144.853 1217.6 141.375V120.168C1217.6 116.69 1219.45 113.477 1222.46 111.738L1240.8 101.135Z" stroke="#21262F" stroke-width="2" mask="url(#path-2-inside-1_22990_119954)"/>
<path d="M1308.01 101.135C1311.02 99.3959 1314.73 99.3959 1317.74 101.135L1336.08 111.738C1339.09 113.477 1340.94 116.69 1340.94 120.168V141.375C1340.94 144.853 1339.09 148.066 1336.08 149.805L1317.74 160.408C1314.73 162.147 1311.02 162.147 1308.01 160.408L1289.67 149.805C1286.66 148.066 1284.81 144.853 1284.81 141.375V120.168C1284.81 116.69 1286.66 113.477 1289.67 111.738L1308.01 101.135Z" stroke="#21262F" stroke-width="2" mask="url(#path-2-inside-1_22990_119954)"/>
<path d="M1005.76 162.745C1008.76 161.006 1012.47 161.006 1015.48 162.745L1033.82 173.348C1036.83 175.087 1038.69 178.301 1038.69 181.778V202.985C1038.69 206.463 1036.83 209.676 1033.82 211.415L1015.48 222.018C1012.47 223.757 1008.76 223.757 1005.76 222.018L987.411 211.415C984.402 209.676 982.549 206.463 982.549 202.985V181.778C982.549 178.301 984.402 175.087 987.411 173.348L1005.76 162.745Z" stroke="#21262F" stroke-width="2" mask="url(#path-2-inside-1_22990_119954)"/>
<path d="M1072.9 162.745C1075.91 161.006 1079.62 161.006 1082.63 162.745L1100.97 173.348C1103.98 175.087 1105.83 178.301 1105.83 181.778V202.985C1105.83 206.463 1103.98 209.676 1100.97 211.415L1082.63 222.018C1079.62 223.757 1075.91 223.757 1072.9 222.018L1054.56 211.415C1051.55 209.676 1049.7 206.463 1049.7 202.985V181.778C1049.7 178.301 1051.55 175.087 1054.56 173.348L1072.9 162.745Z" stroke="#21262F" stroke-width="2" mask="url(#path-2-inside-1_22990_119954)"/>
<path d="M1140.11 162.745C1143.12 161.006 1146.83 161.006 1149.84 162.745L1168.18 173.348C1171.19 175.087 1173.04 178.301 1173.04 181.778V202.985C1173.04 206.463 1171.19 209.676 1168.18 211.415L1149.84 222.018C1146.83 223.757 1143.12 223.757 1140.11 222.018L1121.77 211.415C1118.76 209.676 1116.91 206.463 1116.91 202.985V181.778C1116.91 178.301 1118.76 175.087 1121.77 173.348L1140.11 162.745Z" stroke="#21262F" stroke-width="2" mask="url(#path-2-inside-1_22990_119954)"/>
<path d="M1207.33 162.745C1210.33 161.006 1214.04 161.006 1217.05 162.745L1235.39 173.348C1238.4 175.087 1240.26 178.301 1240.26 181.778V202.985C1240.26 206.463 1238.4 209.676 1235.39 211.415L1217.05 222.018C1214.04 223.757 1210.33 223.757 1207.33 222.018L1188.98 211.415C1185.97 209.676 1184.12 206.463 1184.12 202.985V181.778C1184.12 178.301 1185.97 175.087 1188.98 173.348L1207.33 162.745Z" stroke="#21262F" stroke-width="2" mask="url(#path-2-inside-1_22990_119954)"/>
<path d="M1274.47 162.745C1277.48 161.006 1281.19 161.006 1284.2 162.745L1302.54 173.348C1305.55 175.087 1307.4 178.301 1307.4 181.778V202.985C1307.4 206.463 1305.55 209.676 1302.54 211.415L1284.2 222.018C1281.19 223.757 1277.48 223.757 1274.47 222.018L1256.13 211.415C1253.12 209.676 1251.27 206.463 1251.27 202.985V181.778C1251.27 178.301 1253.12 175.087 1256.13 173.348L1274.47 162.745Z" stroke="#21262F" stroke-width="2" mask="url(#path-2-inside-1_22990_119954)"/>
<path d="M1341.68 162.745C1344.69 161.006 1348.4 161.006 1351.41 162.745L1369.75 173.348C1372.76 175.087 1374.61 178.301 1374.61 181.778V202.985C1374.61 206.463 1372.76 209.676 1369.75 211.415L1351.41 222.018C1348.4 223.757 1344.69 223.757 1341.68 222.018L1323.34 211.415C1320.33 209.676 1318.48 206.463 1318.48 202.985V181.778C1318.48 178.301 1320.33 175.087 1323.34 173.348L1341.68 162.745Z" stroke="#21262F" stroke-width="2" mask="url(#path-2-inside-1_22990_119954)"/>
<path d="M501.749 -22.0855C504.757 -23.8244 508.464 -23.8244 511.472 -22.0855L529.817 -11.4821C532.825 -9.74328 534.679 -6.52981 534.679 -3.05217V18.1547C534.679 21.6323 532.825 24.8458 529.817 26.5846L511.472 37.1881C508.464 38.9269 504.757 38.9269 501.749 37.1881L483.404 26.5846C480.395 24.8458 478.542 21.6323 478.542 18.1547V-3.05217C478.542 -6.52981 480.395 -9.74328 483.404 -11.4821L501.749 -22.0855Z" stroke="#21262F" stroke-width="2" mask="url(#path-2-inside-1_22990_119954)"/>
<path d="M569.087 -22.0855C572.095 -23.8244 575.801 -23.8244 578.81 -22.0855L597.155 -11.4821C600.163 -9.74328 602.016 -6.52981 602.016 -3.05217V18.1547C602.016 21.6323 600.163 24.8458 597.155 26.5846L578.81 37.1881C575.801 38.9269 572.095 38.9269 569.087 37.1881L550.742 26.5846C547.733 24.8458 545.88 21.6323 545.88 18.1547V-3.05217C545.88 -6.52981 547.733 -9.74328 550.742 -11.4821L569.087 -22.0855Z" stroke="#21262F" stroke-width="2" mask="url(#path-2-inside-1_22990_119954)"/>
<path d="M636.234 -22.0855C639.243 -23.8244 642.949 -23.8244 645.957 -22.0855L664.303 -11.4821C667.311 -9.74328 669.164 -6.52981 669.164 -3.05217V18.1547C669.164 21.6323 667.311 24.8458 664.303 26.5846L645.957 37.1881C642.949 38.9269 639.243 38.9269 636.234 37.1881L617.889 26.5846C614.881 24.8458 613.028 21.6323 613.028 18.1547V-3.05217C613.028 -6.52981 614.881 -9.74328 617.889 -11.4821L636.234 -22.0855Z" stroke="#21262F" stroke-width="2" mask="url(#path-2-inside-1_22990_119954)"/>
<path d="M703.445 -22.0855C706.454 -23.8244 710.16 -23.8244 713.168 -22.0855L731.514 -11.4821C734.522 -9.74328 736.375 -6.52981 736.375 -3.05217V18.1547C736.375 21.6323 734.522 24.8458 731.514 26.5846L713.168 37.1881C710.16 38.9269 706.454 38.9269 703.445 37.1881L685.1 26.5846C682.092 24.8458 680.239 21.6323 680.239 18.1547V-3.05217C680.239 -6.52981 682.092 -9.74328 685.1 -11.4821L703.445 -22.0855Z" stroke="#21262F" stroke-width="2" mask="url(#path-2-inside-1_22990_119954)"/>
<path d="M770.656 -22.0855C773.665 -23.8244 777.371 -23.8244 780.379 -22.0855L798.725 -11.4821C801.733 -9.74328 803.586 -6.52981 803.586 -3.05217V18.1547C803.586 21.6323 801.733 24.8458 798.725 26.5846L780.379 37.1881C777.371 38.9269 773.665 38.9269 770.656 37.1881L752.311 26.5846C749.303 24.8458 747.45 21.6323 747.45 18.1547V-3.05217C747.45 -6.52981 749.303 -9.74328 752.311 -11.4821L770.656 -22.0855Z" stroke="#21262F" stroke-width="2" mask="url(#path-2-inside-1_22990_119954)"/>
<path d="M837.804 -22.0855C840.812 -23.8244 844.519 -23.8244 847.527 -22.0855L865.872 -11.4821C868.881 -9.74328 870.734 -6.52981 870.734 -3.05217V18.1547C870.734 21.6323 868.881 24.8458 865.872 26.5846L847.527 37.1881C844.519 38.9269 840.812 38.9269 837.804 37.1881L819.459 26.5846C816.45 24.8458 814.597 21.6323 814.597 18.1547V-3.05217C814.597 -6.52981 816.45 -9.74328 819.459 -11.4821L837.804 -22.0855Z" stroke="#21262F" stroke-width="2" mask="url(#path-2-inside-1_22990_119954)"/>
<path d="M905.015 -22.0855C908.023 -23.8244 911.73 -23.8244 914.738 -22.0855L933.083 -11.4821C936.092 -9.74328 937.945 -6.52981 937.945 -3.05217V18.1547C937.945 21.6323 936.092 24.8458 933.083 26.5846L914.738 37.1881C911.73 38.9269 908.023 38.9269 905.015 37.1881L886.67 26.5846C883.661 24.8458 881.808 21.6323 881.808 18.1547V-3.05217C881.808 -6.52981 883.661 -9.74328 886.67 -11.4821L905.015 -22.0855Z" stroke="#21262F" stroke-width="2" mask="url(#path-2-inside-1_22990_119954)"/>
<path d="M535.418 39.5246C538.426 37.7858 542.133 37.7858 545.141 39.5246L563.486 50.128C566.494 51.8668 568.348 55.0803 568.348 58.558V79.7648C568.348 83.2425 566.494 86.4559 563.486 88.1947L545.141 98.7982C542.133 100.537 538.426 100.537 535.418 98.7982L517.073 88.1947C514.064 86.4559 512.211 83.2425 512.211 79.7648V58.5579C512.211 55.0803 514.064 51.8668 517.073 50.128L535.418 39.5246Z" stroke="#21262F" stroke-width="2" mask="url(#path-2-inside-1_22990_119954)"/>
<path d="M602.756 39.5246C605.764 37.7858 609.47 37.7858 612.479 39.5246L630.824 50.128C633.832 51.8668 635.685 55.0803 635.685 58.558V79.7648C635.685 83.2425 633.832 86.4559 630.824 88.1947L612.479 98.7982C609.47 100.537 605.764 100.537 602.756 98.7982L584.411 88.1947C581.402 86.4559 579.549 83.2425 579.549 79.7648V58.5579C579.549 55.0803 581.402 51.8668 584.411 50.128L602.756 39.5246Z" stroke="#21262F" stroke-width="2" mask="url(#path-2-inside-1_22990_119954)"/>
<path d="M669.903 39.5246C672.912 37.7858 676.618 37.7858 679.626 39.5246L697.971 50.128C700.98 51.8668 702.833 55.0803 702.833 58.558V79.7648C702.833 83.2425 700.98 86.4559 697.971 88.1947L679.626 98.7982C676.618 100.537 672.912 100.537 669.903 98.7982L651.558 88.1947C648.55 86.4559 646.697 83.2425 646.697 79.7648V58.5579C646.697 55.0803 648.55 51.8668 651.558 50.128L669.903 39.5246Z" stroke="#21262F" stroke-width="2" mask="url(#path-2-inside-1_22990_119954)"/>
<path d="M737.114 39.5246C740.123 37.7858 743.829 37.7858 746.837 39.5246L765.182 50.128C768.191 51.8668 770.044 55.0803 770.044 58.558V79.7648C770.044 83.2425 768.191 86.4559 765.182 88.1947L746.837 98.7982C743.829 100.537 740.123 100.537 737.114 98.7982L718.769 88.1947C715.761 86.4559 713.908 83.2425 713.908 79.7648V58.5579C713.908 55.0803 715.761 51.8668 718.769 50.128L737.114 39.5246Z" stroke="#21262F" stroke-width="2" mask="url(#path-2-inside-1_22990_119954)"/>
<path d="M804.325 39.5246C807.334 37.7858 811.04 37.7858 814.048 39.5246L832.394 50.128C835.402 51.8668 837.255 55.0803 837.255 58.558V79.7648C837.255 83.2425 835.402 86.4559 832.394 88.1947L814.048 98.7982C811.04 100.537 807.334 100.537 804.325 98.7982L785.98 88.1947C782.972 86.4559 781.119 83.2425 781.119 79.7648V58.5579C781.119 55.0803 782.972 51.8668 785.98 50.128L804.325 39.5246Z" stroke="#21262F" stroke-width="2" mask="url(#path-2-inside-1_22990_119954)"/>
<path d="M871.473 39.5246C874.481 37.7858 878.188 37.7858 881.196 39.5246L899.541 50.128C902.549 51.8668 904.403 55.0803 904.403 58.558V79.7648C904.403 83.2425 902.549 86.4559 899.541 88.1947L881.196 98.7982C878.188 100.537 874.481 100.537 871.473 98.7982L853.128 88.1947C850.119 86.4559 848.266 83.2425 848.266 79.7648V58.5579C848.266 55.0803 850.119 51.8668 853.128 50.128L871.473 39.5246Z" stroke="#21262F" stroke-width="2" mask="url(#path-2-inside-1_22990_119954)"/>
<path d="M938.684 39.5246C941.692 37.7858 945.399 37.7858 948.407 39.5246L966.752 50.128C969.761 51.8668 971.614 55.0803 971.614 58.558V79.7648C971.614 83.2425 969.761 86.4559 966.752 88.1947L948.407 98.7982C945.399 100.537 941.692 100.537 938.684 98.7982L920.339 88.1947C917.33 86.4559 915.477 83.2425 915.477 79.7648V58.5579C915.477 55.0803 917.33 51.8668 920.339 50.128L938.684 39.5246Z" stroke="#21262F" stroke-width="2" mask="url(#path-2-inside-1_22990_119954)"/>
<path d="M501.749 101.135C504.757 99.3959 508.464 99.3959 511.472 101.135L529.817 111.738C532.825 113.477 534.679 116.69 534.679 120.168V141.375C534.679 144.853 532.825 148.066 529.817 149.805L511.472 160.408C508.464 162.147 504.757 162.147 501.749 160.408L483.404 149.805C480.395 148.066 478.542 144.853 478.542 141.375V120.168C478.542 116.69 480.395 113.477 483.404 111.738L501.749 101.135Z" stroke="#21262F" stroke-width="2" mask="url(#path-2-inside-1_22990_119954)"/>
<path d="M569.087 101.135C572.095 99.3959 575.801 99.3959 578.81 101.135L597.155 111.738C600.163 113.477 602.016 116.69 602.016 120.168V141.375C602.016 144.853 600.163 148.066 597.155 149.805L578.81 160.408C575.801 162.147 572.095 162.147 569.087 160.408L550.742 149.805C547.733 148.066 545.88 144.853 545.88 141.375V120.168C545.88 116.69 547.733 113.477 550.742 111.738L569.087 101.135Z" stroke="#21262F" stroke-width="2" mask="url(#path-2-inside-1_22990_119954)"/>
<path d="M636.234 101.135C639.243 99.3959 642.949 99.3959 645.957 101.135L664.303 111.738C667.311 113.477 669.164 116.69 669.164 120.168V141.375C669.164 144.853 667.311 148.066 664.303 149.805L645.957 160.408C642.949 162.147 639.243 162.147 636.234 160.408L617.889 149.805C614.881 148.066 613.028 144.853 613.028 141.375V120.168C613.028 116.69 614.881 113.477 617.889 111.738L636.234 101.135Z" stroke="#21262F" stroke-width="2" mask="url(#path-2-inside-1_22990_119954)"/>
<path d="M703.445 101.135C706.454 99.3959 710.16 99.3959 713.168 101.135L731.514 111.738C734.522 113.477 736.375 116.69 736.375 120.168V141.375C736.375 144.853 734.522 148.066 731.514 149.805L713.168 160.408C710.16 162.147 706.454 162.147 703.445 160.408L685.1 149.805C682.092 148.066 680.239 144.853 680.239 141.375V120.168C680.239 116.69 682.092 113.477 685.1 111.738L703.445 101.135Z" stroke="#21262F" stroke-width="2" mask="url(#path-2-inside-1_22990_119954)"/>
<path d="M770.656 101.135C773.665 99.3959 777.371 99.3959 780.379 101.135L798.725 111.738C801.733 113.477 803.586 116.69 803.586 120.168V141.375C803.586 144.853 801.733 148.066 798.725 149.805L780.379 160.408C777.371 162.147 773.665 162.147 770.656 160.408L752.311 149.805C749.303 148.066 747.45 144.853 747.45 141.375V120.168C747.45 116.69 749.303 113.477 752.311 111.738L770.656 101.135Z" stroke="#21262F" stroke-width="2" mask="url(#path-2-inside-1_22990_119954)"/>
<path d="M837.804 101.135C840.812 99.3959 844.519 99.3959 847.527 101.135L865.872 111.738C868.881 113.477 870.734 116.69 870.734 120.168V141.375C870.734 144.853 868.881 148.066 865.872 149.805L847.527 160.408C844.519 162.147 840.812 162.147 837.804 160.408L819.459 149.805C816.45 148.066 814.597 144.853 814.597 141.375V120.168C814.597 116.69 816.45 113.477 819.459 111.738L837.804 101.135Z" stroke="#21262F" stroke-width="2" mask="url(#path-2-inside-1_22990_119954)"/>
<path d="M905.015 101.135C908.023 99.3959 911.73 99.3959 914.738 101.135L933.083 111.738C936.092 113.477 937.945 116.69 937.945 120.168V141.375C937.945 144.853 936.092 148.066 933.083 149.805L914.738 160.408C911.73 162.147 908.023 162.147 905.015 160.408L886.67 149.805C883.661 148.066 881.808 144.853 881.808 141.375V120.168C881.808 116.69 883.661 113.477 886.67 111.738L905.015 101.135Z" stroke="#21262F" stroke-width="2" mask="url(#path-2-inside-1_22990_119954)"/>
<path d="M535.418 162.745C538.426 161.006 542.133 161.006 545.141 162.745L563.486 173.348C566.494 175.087 568.348 178.301 568.348 181.778V202.985C568.348 206.463 566.494 209.676 563.486 211.415L545.141 222.018C542.133 223.757 538.426 223.757 535.418 222.018L517.073 211.415C514.064 209.676 512.211 206.463 512.211 202.985V181.778C512.211 178.301 514.064 175.087 517.073 173.348L535.418 162.745Z" stroke="#21262F" stroke-width="2" mask="url(#path-2-inside-1_22990_119954)"/>
<path d="M602.756 162.745C605.764 161.006 609.47 161.006 612.479 162.745L630.824 173.348C633.832 175.087 635.685 178.301 635.685 181.778V202.985C635.685 206.463 633.832 209.676 630.824 211.415L612.479 222.018C609.47 223.757 605.764 223.757 602.756 222.018L584.411 211.415C581.402 209.676 579.549 206.463 579.549 202.985V181.778C579.549 178.301 581.402 175.087 584.411 173.348L602.756 162.745Z" stroke="#21262F" stroke-width="2" mask="url(#path-2-inside-1_22990_119954)"/>
<path d="M669.903 162.745C672.912 161.006 676.618 161.006 679.626 162.745L697.971 173.348C700.98 175.087 702.833 178.301 702.833 181.778V202.985C702.833 206.463 700.98 209.676 697.971 211.415L679.626 222.018C676.618 223.757 672.912 223.757 669.903 222.018L651.558 211.415C648.55 209.676 646.697 206.463 646.697 202.985V181.778C646.697 178.301 648.55 175.087 651.558 173.348L669.903 162.745Z" stroke="#21262F" stroke-width="2" mask="url(#path-2-inside-1_22990_119954)"/>
<path d="M737.114 162.745C740.123 161.006 743.829 161.006 746.837 162.745L765.182 173.348C768.191 175.087 770.044 178.301 770.044 181.778V202.985C770.044 206.463 768.191 209.676 765.182 211.415L746.837 222.018C743.829 223.757 740.123 223.757 737.114 222.018L718.769 211.415C715.761 209.676 713.908 206.463 713.908 202.985V181.778C713.908 178.301 715.761 175.087 718.769 173.348L737.114 162.745Z" stroke="#21262F" stroke-width="2" mask="url(#path-2-inside-1_22990_119954)"/>
<path d="M804.325 162.745C807.334 161.006 811.04 161.006 814.048 162.745L832.394 173.348C835.402 175.087 837.255 178.301 837.255 181.778V202.985C837.255 206.463 835.402 209.676 832.394 211.415L814.048 222.018C811.04 223.757 807.334 223.757 804.325 222.018L785.98 211.415C782.972 209.676 781.119 206.463 781.119 202.985V181.778C781.119 178.301 782.972 175.087 785.98 173.348L804.325 162.745Z" stroke="#21262F" stroke-width="2" mask="url(#path-2-inside-1_22990_119954)"/>
<path d="M871.473 162.745C874.481 161.006 878.188 161.006 881.196 162.745L899.541 173.348C902.549 175.087 904.403 178.301 904.403 181.778V202.985C904.403 206.463 902.549 209.676 899.541 211.415L881.196 222.018C878.188 223.757 874.481 223.757 871.473 222.018L853.128 211.415C850.119 209.676 848.266 206.463 848.266 202.985V181.778C848.266 178.301 850.119 175.087 853.128 173.348L871.473 162.745Z" stroke="#21262F" stroke-width="2" mask="url(#path-2-inside-1_22990_119954)"/>
<path d="M938.684 162.745C941.692 161.006 945.399 161.006 948.407 162.745L966.752 173.348C969.761 175.087 971.614 178.301 971.614 181.778V202.985C971.614 206.463 969.761 209.676 966.752 211.415L948.407 222.018C945.399 223.757 941.692 223.757 938.684 222.018L920.339 211.415C917.33 209.676 915.477 206.463 915.477 202.985V181.778C915.477 178.301 917.33 175.087 920.339 173.348L938.684 162.745Z" stroke="#21262F" stroke-width="2" mask="url(#path-2-inside-1_22990_119954)"/>
<path d="M99.4689 112.813C101.345 111.73 103.655 111.73 105.531 112.813L116.969 119.417C118.845 120.5 120 122.501 120 124.667V137.874C120 140.04 118.845 142.041 116.969 143.124L105.531 149.728C103.655 150.811 101.345 150.811 99.4689 149.728L88.0311 143.124C86.1554 142.041 85 140.04 85 137.874V124.667C85 122.501 86.1554 120.5 88.0311 119.417L99.4689 112.813Z" fill="#343942"/>
<path d="M99.4689 112.813C101.345 111.73 103.655 111.73 105.531 112.813L116.969 119.417C118.845 120.5 120 122.501 120 124.667V137.874C120 140.04 118.845 142.041 116.969 143.124L105.531 149.728C103.655 150.811 101.345 150.811 99.4689 149.728L88.0311 143.124C86.1554 142.041 85 140.04 85 137.874V124.667C85 122.501 86.1554 120.5 88.0311 119.417L99.4689 112.813Z" fill="#343942"/>
<path d="M1040.47 112.813C1042.35 111.73 1044.66 111.73 1046.53 112.813L1057.97 119.417C1059.84 120.5 1061 122.501 1061 124.667V137.874C1061 140.04 1059.84 142.041 1057.97 143.124L1046.53 149.728C1044.66 150.811 1042.35 150.811 1040.47 149.728L1029.03 143.124C1027.16 142.041 1026 140.04 1026 137.874V124.667C1026 122.501 1027.16 120.5 1029.03 119.417L1040.47 112.813Z" fill="#343942"/>
<path d="M1040.47 112.813C1042.35 111.73 1044.66 111.73 1046.53 112.813L1057.97 119.417C1059.84 120.5 1061 122.501 1061 124.667V137.874C1061 140.04 1059.84 142.041 1057.97 143.124L1046.53 149.728C1044.66 150.811 1042.35 150.811 1040.47 149.728L1029.03 143.124C1027.16 142.041 1026 140.04 1026 137.874V124.667C1026 122.501 1027.16 120.5 1029.03 119.417L1040.47 112.813Z" fill="#343942"/>
<path d="M805.469 50.8132C807.345 49.7303 809.656 49.7303 811.532 50.8132L822.969 57.4168C824.845 58.4997 826 60.501 826 62.6668V75.8741C826 78.0399 824.845 80.0412 822.969 81.1241L811.532 87.7277C809.656 88.8106 807.345 88.8106 805.469 87.7277L794.032 81.1241C792.156 80.0412 791 78.0399 791 75.8741V62.6668C791 60.501 792.156 58.4997 794.032 57.4168L805.469 50.8132Z" fill="#343942"/>
<path d="M805.469 50.8132C807.345 49.7303 809.656 49.7303 811.532 50.8132L822.969 57.4168C824.845 58.4997 826 60.501 826 62.6668V75.8741C826 78.0399 824.845 80.0412 822.969 81.1241L811.532 87.7277C809.656 88.8106 807.345 88.8106 805.469 87.7277L794.032 81.1241C792.156 80.0412 791 78.0399 791 75.8741V62.6668C791 60.501 792.156 58.4997 794.032 57.4168L805.469 50.8132Z" fill="#343942"/>
<path d="M570.469 -11.1868C572.345 -12.2697 574.656 -12.2697 576.532 -11.1868L587.969 -4.58321C589.845 -3.50031 591 -1.49901 591 0.666796V13.8741C591 16.0399 589.845 18.0412 587.969 19.1241L576.532 25.7277C574.656 26.8106 572.345 26.8106 570.469 25.7277L559.032 19.1241C557.156 18.0412 556 16.0399 556 13.8741V0.666795C556 -1.49901 557.156 -3.50031 559.032 -4.58321L570.469 -11.1868Z" fill="#343942"/>
<path d="M570.469 -11.1868C572.345 -12.2697 574.656 -12.2697 576.532 -11.1868L587.969 -4.58321C589.845 -3.50031 591 -1.49901 591 0.666796V13.8741C591 16.0399 589.845 18.0412 587.969 19.1241L576.532 25.7277C574.656 26.8106 572.345 26.8106 570.469 25.7277L559.032 19.1241C557.156 18.0412 556 16.0399 556 13.8741V0.666795C556 -1.49901 557.156 -3.50031 559.032 -4.58321L570.469 -11.1868Z" fill="#343942"/>
<path d="M200.469 50.8132C202.345 49.7303 204.655 49.7303 206.531 50.8132L217.969 57.4169C219.845 58.4998 221 60.5011 221 62.6669V75.8741C221 78.0399 219.845 80.0412 217.969 81.1241L206.531 87.7278C204.655 88.8107 202.345 88.8107 200.469 87.7278L189.031 81.1241C187.155 80.0412 186 78.0399 186 75.8741V62.6669C186 60.5011 187.155 58.4998 189.031 57.4169L200.469 50.8132Z" fill="#343942"/>
<path d="M200.469 50.8132C202.345 49.7303 204.655 49.7303 206.531 50.8132L217.969 57.4169C219.845 58.4998 221 60.5011 221 62.6669V75.8741C221 78.0399 219.845 80.0412 217.969 81.1241L206.531 87.7278C204.655 88.8107 202.345 88.8107 200.469 87.7278L189.031 81.1241C187.155 80.0412 186 78.0399 186 75.8741V62.6669C186 60.5011 187.155 58.4998 189.031 57.4169L200.469 50.8132Z" fill="#343942"/>
<path d="M1141.47 50.8132C1143.34 49.7303 1145.66 49.7303 1147.53 50.8132L1158.97 57.4168C1160.84 58.4997 1162 60.501 1162 62.6668V75.8741C1162 78.0399 1160.84 80.0412 1158.97 81.1241L1147.53 87.7277C1145.66 88.8106 1143.34 88.8106 1141.47 87.7277L1130.03 81.1241C1128.16 80.0412 1127 78.0399 1127 75.8741V62.6668C1127 60.501 1128.16 58.4997 1130.03 57.4168L1141.47 50.8132Z" fill="#343942"/>
<path d="M1141.47 50.8132C1143.34 49.7303 1145.66 49.7303 1147.53 50.8132L1158.97 57.4168C1160.84 58.4997 1162 60.501 1162 62.6668V75.8741C1162 78.0399 1160.84 80.0412 1158.97 81.1241L1147.53 87.7277C1145.66 88.8106 1143.34 88.8106 1141.47 87.7277L1130.03 81.1241C1128.16 80.0412 1127 78.0399 1127 75.8741V62.6668C1127 60.501 1128.16 58.4997 1130.03 57.4168L1141.47 50.8132Z" fill="#343942"/>
<path d="M32.4689 -10.1868C34.3446 -11.2697 36.6554 -11.2697 38.5311 -10.1868L49.9689 -3.58313C51.8446 -2.50023 53 -0.498938 53 1.66687V14.8741C53 17.04 51.8446 19.0412 49.9689 20.1241L38.5311 26.7278C36.6554 27.8107 34.3446 27.8107 32.4689 26.7278L21.0311 20.1241C19.1554 19.0412 18 17.04 18 14.8741V1.66687C18 -0.498938 19.1554 -2.50023 21.0311 -3.58313L32.4689 -10.1868Z" fill="#343942"/>
<path d="M32.4689 -10.1868C34.3446 -11.2697 36.6554 -11.2697 38.5311 -10.1868L49.9689 -3.58313C51.8446 -2.50023 53 -0.498938 53 1.66687V14.8741C53 17.04 51.8446 19.0412 49.9689 20.1241L38.5311 26.7278C36.6554 27.8107 34.3446 27.8107 32.4689 26.7278L21.0311 20.1241C19.1554 19.0412 18 17.04 18 14.8741V1.66687C18 -0.498938 19.1554 -2.50023 21.0311 -3.58313L32.4689 -10.1868Z" fill="#343942"/>
<path d="M973.469 -10.1868C975.345 -11.2697 977.656 -11.2697 979.532 -10.1868L990.969 -3.58321C992.845 -2.50031 994 -0.499014 994 1.6668V14.8741C994 17.0399 992.845 19.0412 990.969 20.1241L979.532 26.7277C977.656 27.8106 975.345 27.8106 973.469 26.7277L962.032 20.1241C960.156 19.0412 959 17.0399 959 14.8741V1.66679C959 -0.499014 960.156 -2.50031 962.032 -3.58321L973.469 -10.1868Z" fill="#343942"/>
<path d="M973.469 -10.1868C975.345 -11.2697 977.656 -11.2697 979.532 -10.1868L990.969 -3.58321C992.845 -2.50031 994 -0.499014 994 1.6668V14.8741C994 17.0399 992.845 19.0412 990.969 20.1241L979.532 26.7277C977.656 27.8106 975.345 27.8106 973.469 26.7277L962.032 20.1241C960.156 19.0412 959 17.0399 959 14.8741V1.66679C959 -0.499014 960.156 -2.50031 962.032 -3.58321L973.469 -10.1868Z" fill="#343942"/>
<path d="M301.469 112.813C303.345 111.73 305.655 111.73 307.531 112.813L318.969 119.417C320.845 120.5 322 122.501 322 124.667V137.874C322 140.04 320.845 142.041 318.969 143.124L307.531 149.728C305.655 150.811 303.345 150.811 301.469 149.728L290.031 143.124C288.155 142.041 287 140.04 287 137.874V124.667C287 122.501 288.155 120.5 290.031 119.417L301.469 112.813Z" fill="#343942"/>
<path d="M301.469 112.813C303.345 111.73 305.655 111.73 307.531 112.813L318.969 119.417C320.845 120.5 322 122.501 322 124.667V137.874C322 140.04 320.845 142.041 318.969 143.124L307.531 149.728C305.655 150.811 303.345 150.811 301.469 149.728L290.031 143.124C288.155 142.041 287 140.04 287 137.874V124.667C287 122.501 288.155 120.5 290.031 119.417L301.469 112.813Z" fill="#343942"/>
<path d="M1242.47 112.813C1244.34 111.73 1246.66 111.73 1248.53 112.813L1259.97 119.417C1261.84 120.5 1263 122.501 1263 124.667V137.874C1263 140.04 1261.84 142.041 1259.97 143.124L1248.53 149.728C1246.66 150.811 1244.34 150.811 1242.47 149.728L1231.03 143.124C1229.16 142.041 1228 140.04 1228 137.874V124.667C1228 122.501 1229.16 120.5 1231.03 119.417L1242.47 112.813Z" fill="#343942"/>
<path d="M1242.47 112.813C1244.34 111.73 1246.66 111.73 1248.53 112.813L1259.97 119.417C1261.84 120.5 1263 122.501 1263 124.667V137.874C1263 140.04 1261.84 142.041 1259.97 143.124L1248.53 149.728C1246.66 150.811 1244.34 150.811 1242.47 149.728L1231.03 143.124C1229.16 142.041 1228 140.04 1228 137.874V124.667C1228 122.501 1229.16 120.5 1231.03 119.417L1242.47 112.813Z" fill="#343942"/>
<path d="M402.469 172.813C404.345 171.73 406.655 171.73 408.531 172.813L419.969 179.417C421.845 180.5 423 182.501 423 184.667V197.874C423 200.04 421.845 202.041 419.969 203.124L408.531 209.728C406.655 210.811 404.345 210.811 402.469 209.728L391.031 203.124C389.155 202.041 388 200.04 388 197.874V184.667C388 182.501 389.155 180.5 391.031 179.417L402.469 172.813Z" fill="#343942"/>
<path d="M402.469 172.813C404.345 171.73 406.655 171.73 408.531 172.813L419.969 179.417C421.845 180.5 423 182.501 423 184.667V197.874C423 200.04 421.845 202.041 419.969 203.124L408.531 209.728C406.655 210.811 404.345 210.811 402.469 209.728L391.031 203.124C389.155 202.041 388 200.04 388 197.874V184.667C388 182.501 389.155 180.5 391.031 179.417L402.469 172.813Z" fill="#343942"/>
<path d="M1343.47 172.813C1345.34 171.73 1347.66 171.73 1349.53 172.813L1360.97 179.417C1362.84 180.5 1364 182.501 1364 184.667V197.874C1364 200.04 1362.84 202.041 1360.97 203.124L1349.53 209.728C1347.66 210.811 1345.34 210.811 1343.47 209.728L1332.03 203.124C1330.16 202.041 1329 200.04 1329 197.874V184.667C1329 182.501 1330.16 180.5 1332.03 179.417L1343.47 172.813Z" fill="#343942"/>
<path d="M1343.47 172.813C1345.34 171.73 1347.66 171.73 1349.53 172.813L1360.97 179.417C1362.84 180.5 1364 182.501 1364 184.667V197.874C1364 200.04 1362.84 202.041 1360.97 203.124L1349.53 209.728C1347.66 210.811 1345.34 210.811 1343.47 209.728L1332.03 203.124C1330.16 202.041 1329 200.04 1329 197.874V184.667C1329 182.501 1330.16 180.5 1332.03 179.417L1343.47 172.813Z" fill="#343942"/>
<path d="M301.469 -10.1868C303.345 -11.2697 305.655 -11.2697 307.531 -10.1868L318.969 -3.58313C320.845 -2.50023 322 -0.498938 322 1.66687V14.8741C322 17.04 320.845 19.0412 318.969 20.1241L307.531 26.7278C305.655 27.8107 303.345 27.8107 301.469 26.7278L290.031 20.1241C288.155 19.0412 287 17.04 287 14.8741V1.66687C287 -0.498938 288.155 -2.50023 290.031 -3.58313L301.469 -10.1868Z" fill="#343942"/>
<path d="M301.469 -10.1868C303.345 -11.2697 305.655 -11.2697 307.531 -10.1868L318.969 -3.58313C320.845 -2.50023 322 -0.498938 322 1.66687V14.8741C322 17.04 320.845 19.0412 318.969 20.1241L307.531 26.7278C305.655 27.8107 303.345 27.8107 301.469 26.7278L290.031 20.1241C288.155 19.0412 287 17.04 287 14.8741V1.66687C287 -0.498938 288.155 -2.50023 290.031 -3.58313L301.469 -10.1868Z" fill="#343942"/>
<path d="M1242.47 -10.1868C1244.34 -11.2697 1246.66 -11.2697 1248.53 -10.1868L1259.97 -3.58321C1261.84 -2.50031 1263 -0.499014 1263 1.6668V14.8741C1263 17.0399 1261.84 19.0412 1259.97 20.1241L1248.53 26.7277C1246.66 27.8106 1244.34 27.8106 1242.47 26.7277L1231.03 20.1241C1229.16 19.0412 1228 17.0399 1228 14.8741V1.66679C1228 -0.499014 1229.16 -2.50031 1231.03 -3.58321L1242.47 -10.1868Z" fill="#343942"/>
<path d="M1242.47 -10.1868C1244.34 -11.2697 1246.66 -11.2697 1248.53 -10.1868L1259.97 -3.58321C1261.84 -2.50031 1263 -0.499014 1263 1.6668V14.8741C1263 17.0399 1261.84 19.0412 1259.97 20.1241L1248.53 26.7277C1246.66 27.8106 1244.34 27.8106 1242.47 26.7277L1231.03 20.1241C1229.16 19.0412 1228 17.0399 1228 14.8741V1.66679C1228 -0.499014 1229.16 -2.50031 1231.03 -3.58321L1242.47 -10.1868Z" fill="#343942"/>
<path d="M637.469 112.813C639.345 111.73 641.656 111.73 643.532 112.813L654.969 119.417C656.845 120.5 658 122.501 658 124.667V137.874C658 140.04 656.845 142.041 654.969 143.124L643.532 149.728C641.656 150.811 639.345 150.811 637.469 149.728L626.032 143.124C624.156 142.041 623 140.04 623 137.874V124.667C623 122.501 624.156 120.5 626.032 119.417L637.469 112.813Z" fill="#343942"/>
<path d="M637.469 112.813C639.345 111.73 641.656 111.73 643.532 112.813L654.969 119.417C656.845 120.5 658 122.501 658 124.667V137.874C658 140.04 656.845 142.041 654.969 143.124L643.532 149.728C641.656 150.811 639.345 150.811 637.469 149.728L626.032 143.124C624.156 142.041 623 140.04 623 137.874V124.667C623 122.501 624.156 120.5 626.032 119.417L637.469 112.813Z" fill="#343942"/>
<path d="M739.469 172.813C741.345 171.73 743.656 171.73 745.532 172.813L756.969 179.417C758.845 180.5 760 182.501 760 184.667V197.874C760 200.04 758.845 202.041 756.969 203.124L745.532 209.728C743.656 210.811 741.345 210.811 739.469 209.728L728.032 203.124C726.156 202.041 725 200.04 725 197.874V184.667C725 182.501 726.156 180.5 728.032 179.417L739.469 172.813Z" fill="#343942"/>
<path d="M739.469 172.813C741.345 171.73 743.656 171.73 745.532 172.813L756.969 179.417C758.845 180.5 760 182.501 760 184.667V197.874C760 200.04 758.845 202.041 756.969 203.124L745.532 209.728C743.656 210.811 741.345 210.811 739.469 209.728L728.032 203.124C726.156 202.041 725 200.04 725 197.874V184.667C725 182.501 726.156 180.5 728.032 179.417L739.469 172.813Z" fill="#343942"/>
<defs>
<filter id="filter0_b_22990_119954" x="-14" y="-14" width="1404" height="228" filterUnits="userSpaceOnUse" color-interpolation-filters="sRGB">
<feFlood flood-opacity="0" result="BackgroundImageFix"/>
<feGaussianBlur in="BackgroundImageFix" stdDeviation="7"/>
<feComposite in2="SourceAlpha" operator="in" result="effect1_backgroundBlur_22990_119954"/>
<feBlend mode="normal" in="SourceGraphic" in2="effect1_backgroundBlur_22990_119954" result="shape"/>
</filter>
</defs>
</svg>
