<svg width="1376" height="200" viewBox="0 0 1376 200" fill="none" xmlns="http://www.w3.org/2000/svg"><g filter="url(#filter0_b_22990_119954)"><path d="M0 0h1376v200H0V0Z" fill="#2C3139"/></g><mask id="path-2-inside-1_22990_119954" fill="white"><path d="M1374.75-22.085a9.707 9.707 0 0 1 9.72 0l18.35 10.603a9.731 9.731 0 0 1 4.86 8.43v21.207a9.731 9.731 0 0 1-4.86 8.43l-18.35 10.603a9.708 9.708 0 0 1-9.72 0l-18.35-10.603a9.752 9.752 0 0 1-4.86-8.43V-3.052a9.752 9.752 0 0 1 4.86-8.43l18.35-10.604Zm67.34 0a9.707 9.707 0 0 1 9.72 0l18.34 10.603a9.74 9.74 0 0 1 4.87 8.43v21.207a9.74 9.74 0 0 1-4.87 8.43l-18.34 10.603a9.708 9.708 0 0 1-9.72 0l-18.35-10.603a9.731 9.731 0 0 1-4.86-8.43V-3.052a9.731 9.731 0 0 1 4.86-8.43l18.35-10.604Zm-33.67 61.61a9.708 9.708 0 0 1 9.72 0l18.35 10.603a9.752 9.752 0 0 1 4.86 8.43v21.207a9.752 9.752 0 0 1-4.86 8.43l-18.35 10.603a9.708 9.708 0 0 1-9.72 0l-18.35-10.603a9.731 9.731 0 0 1-4.86-8.43V58.558a9.731 9.731 0 0 1 4.86-8.43l18.35-10.603Zm-33.67 61.61a9.707 9.707 0 0 1 9.72 0l18.35 10.603a9.731 9.731 0 0 1 4.86 8.43v21.207a9.731 9.731 0 0 1-4.86 8.43l-18.35 10.603a9.707 9.707 0 0 1-9.72 0l-18.35-10.603a9.752 9.752 0 0 1-4.86-8.43v-21.207a9.752 9.752 0 0 1 4.86-8.43l18.35-10.603Zm67.34 0c3-1.74 6.71-1.74 9.72 0l18.34 10.603a9.74 9.74 0 0 1 4.87 8.43v21.207a9.74 9.74 0 0 1-4.87 8.43l-18.34 10.603a9.707 9.707 0 0 1-9.72 0l-18.35-10.603a9.731 9.731 0 0 1-4.86-8.43v-21.207a9.731 9.731 0 0 1 4.86-8.43l18.35-10.603Zm-33.67 61.61a9.707 9.707 0 0 1 9.72 0l18.35 10.603a9.753 9.753 0 0 1 4.86 8.43v21.207a9.752 9.752 0 0 1-4.86 8.43l-18.35 10.603a9.707 9.707 0 0 1-9.72 0l-18.35-10.603a9.731 9.731 0 0 1-4.86-8.43v-21.207a9.732 9.732 0 0 1 4.86-8.43l18.35-10.603ZM30.749-22.085a9.713 9.713 0 0 1 9.723 0l18.345 10.603a9.736 9.736 0 0 1 4.862 8.43v21.207a9.736 9.736 0 0 1-4.862 8.43L40.472 37.188a9.714 9.714 0 0 1-9.723 0L12.404 26.585a9.736 9.736 0 0 1-4.862-8.43V-3.052a9.736 9.736 0 0 1 4.862-8.43l18.345-10.604Zm67.338 0a9.714 9.714 0 0 1 9.723 0l18.345 10.603a9.736 9.736 0 0 1 4.861 8.43v21.207a9.736 9.736 0 0 1-4.861 8.43L107.81 37.188a9.714 9.714 0 0 1-9.723 0L79.74 26.585a9.736 9.736 0 0 1-4.861-8.43V-3.052a9.736 9.736 0 0 1 4.862-8.43l18.345-10.604Zm67.147 0a9.713 9.713 0 0 1 9.723 0l18.346 10.603a9.736 9.736 0 0 1 4.861 8.43v21.207a9.736 9.736 0 0 1-4.861 8.43l-18.346 10.603a9.714 9.714 0 0 1-9.723 0l-18.345-10.603a9.736 9.736 0 0 1-4.861-8.43V-3.052a9.736 9.736 0 0 1 4.861-8.43l18.345-10.604Zm67.211 0a9.713 9.713 0 0 1 9.723 0l18.346 10.603a9.736 9.736 0 0 1 4.861 8.43v21.207a9.736 9.736 0 0 1-4.861 8.43l-18.346 10.603a9.714 9.714 0 0 1-9.723 0L214.1 26.585a9.736 9.736 0 0 1-4.861-8.43V-3.052a9.736 9.736 0 0 1 4.861-8.43l18.345-10.604Zm67.211 0a9.713 9.713 0 0 1 9.723 0l18.346 10.603a9.736 9.736 0 0 1 4.861 8.43v21.207a9.736 9.736 0 0 1-4.861 8.43l-18.346 10.603a9.714 9.714 0 0 1-9.723 0l-18.345-10.603a9.736 9.736 0 0 1-4.861-8.43V-3.052a9.736 9.736 0 0 1 4.861-8.43l18.345-10.604Zm67.148 0a9.713 9.713 0 0 1 9.723 0l18.345 10.603a9.735 9.735 0 0 1 4.862 8.43v21.207a9.735 9.735 0 0 1-4.862 8.43l-18.345 10.603a9.714 9.714 0 0 1-9.723 0l-18.345-10.603a9.735 9.735 0 0 1-4.862-8.43V-3.052a9.735 9.735 0 0 1 4.862-8.43l18.345-10.604Zm67.211 0a9.713 9.713 0 0 1 9.723 0l18.345 10.603a9.735 9.735 0 0 1 4.862 8.43v21.207a9.735 9.735 0 0 1-4.862 8.43l-18.345 10.603a9.714 9.714 0 0 1-9.723 0L415.67 26.585a9.737 9.737 0 0 1-4.862-8.43V-3.052a9.737 9.737 0 0 1 4.862-8.43l18.345-10.604ZM-2.793 39.525a9.714 9.714 0 0 1 9.723 0l18.345 10.603a9.736 9.736 0 0 1 4.862 8.43v21.207a9.736 9.736 0 0 1-4.862 8.43L6.93 98.798a9.714 9.714 0 0 1-9.723 0L-21.14 88.195a9.736 9.736 0 0 1-4.86-8.43V58.558a9.736 9.736 0 0 1 4.861-8.43l18.346-10.603Zm67.211 0a9.714 9.714 0 0 1 9.723 0l18.345 10.603a9.736 9.736 0 0 1 4.861 8.43v21.207a9.736 9.736 0 0 1-4.861 8.43L74.141 98.798a9.714 9.714 0 0 1-9.723 0L46.073 88.195a9.736 9.736 0 0 1-4.862-8.43V58.558a9.736 9.736 0 0 1 4.862-8.43l18.345-10.603Zm67.338 0a9.714 9.714 0 0 1 9.723 0l18.345 10.603a9.736 9.736 0 0 1 4.861 8.43v21.207a9.736 9.736 0 0 1-4.861 8.43l-18.345 10.603a9.714 9.714 0 0 1-9.723 0l-18.345-10.603a9.735 9.735 0 0 1-4.862-8.43V58.558a9.735 9.735 0 0 1 4.862-8.43l18.345-10.603Zm67.147 0a9.714 9.714 0 0 1 9.723 0l18.345 10.603a9.735 9.735 0 0 1 4.862 8.43v21.207a9.735 9.735 0 0 1-4.862 8.43l-18.345 10.603a9.714 9.714 0 0 1-9.723 0l-18.345-10.603a9.736 9.736 0 0 1-4.861-8.43V58.558a9.736 9.736 0 0 1 4.861-8.43l18.345-10.603Zm67.211 0a9.714 9.714 0 0 1 9.723 0l18.345 10.603a9.735 9.735 0 0 1 4.862 8.43v21.207a9.735 9.735 0 0 1-4.862 8.43l-18.345 10.603a9.714 9.714 0 0 1-9.723 0l-18.345-10.603a9.736 9.736 0 0 1-4.861-8.43V58.558a9.736 9.736 0 0 1 4.861-8.43l18.345-10.603Zm67.211 0a9.714 9.714 0 0 1 9.723 0l18.346 10.603a9.736 9.736 0 0 1 4.861 8.43v21.207a9.736 9.736 0 0 1-4.861 8.43l-18.346 10.603a9.714 9.714 0 0 1-9.723 0L314.98 88.195a9.736 9.736 0 0 1-4.861-8.43V58.558a9.736 9.736 0 0 1 4.861-8.43l18.345-10.603Zm67.148 0a9.714 9.714 0 0 1 9.723 0l18.345 10.603a9.737 9.737 0 0 1 4.862 8.43v21.207a9.737 9.737 0 0 1-4.862 8.43l-18.345 10.603a9.714 9.714 0 0 1-9.723 0l-18.345-10.603a9.735 9.735 0 0 1-4.862-8.43V58.558a9.735 9.735 0 0 1 4.862-8.43l18.345-10.603Zm67.211 0a9.714 9.714 0 0 1 9.723 0l18.345 10.603a9.735 9.735 0 0 1 4.862 8.43v21.207a9.735 9.735 0 0 1-4.862 8.43l-18.345 10.603a9.714 9.714 0 0 1-9.723 0l-18.345-10.603a9.735 9.735 0 0 1-4.862-8.43V58.558a9.735 9.735 0 0 1 4.862-8.43l18.345-10.603Zm-436.935 61.61a9.712 9.712 0 0 1 9.723 0l18.345 10.603a9.736 9.736 0 0 1 4.862 8.43v21.207a9.736 9.736 0 0 1-4.862 8.43l-18.345 10.603a9.713 9.713 0 0 1-9.723 0l-18.345-10.603a9.736 9.736 0 0 1-4.862-8.43v-21.207a9.736 9.736 0 0 1 4.862-8.43l18.345-10.603Zm67.338 0a9.713 9.713 0 0 1 9.723 0l18.345 10.603a9.736 9.736 0 0 1 4.861 8.43v21.207a9.736 9.736 0 0 1-4.861 8.43l-18.345 10.603a9.713 9.713 0 0 1-9.723 0L79.74 149.805a9.736 9.736 0 0 1-4.861-8.43v-21.207a9.736 9.736 0 0 1 4.862-8.43l18.345-10.603Zm67.147 0a9.712 9.712 0 0 1 9.723 0l18.346 10.603a9.736 9.736 0 0 1 4.861 8.43v21.207a9.736 9.736 0 0 1-4.861 8.43l-18.346 10.603a9.713 9.713 0 0 1-9.723 0l-18.345-10.603a9.736 9.736 0 0 1-4.861-8.43v-21.207a9.736 9.736 0 0 1 4.861-8.43l18.345-10.603Zm67.211 0a9.712 9.712 0 0 1 9.723 0l18.346 10.603a9.736 9.736 0 0 1 4.861 8.43v21.207a9.736 9.736 0 0 1-4.861 8.43l-18.346 10.603a9.713 9.713 0 0 1-9.723 0L214.1 149.805a9.736 9.736 0 0 1-4.861-8.43v-21.207a9.736 9.736 0 0 1 4.861-8.43l18.345-10.603Zm67.211 0a9.712 9.712 0 0 1 9.723 0l18.346 10.603a9.736 9.736 0 0 1 4.861 8.43v21.207a9.736 9.736 0 0 1-4.861 8.43l-18.346 10.603a9.713 9.713 0 0 1-9.723 0l-18.345-10.603a9.736 9.736 0 0 1-4.861-8.43v-21.207a9.736 9.736 0 0 1 4.861-8.43l18.345-10.603Zm67.148 0a9.712 9.712 0 0 1 9.723 0l18.345 10.603a9.735 9.735 0 0 1 4.862 8.43v21.207a9.735 9.735 0 0 1-4.862 8.43l-18.345 10.603a9.713 9.713 0 0 1-9.723 0l-18.345-10.603a9.735 9.735 0 0 1-4.862-8.43v-21.207a9.735 9.735 0 0 1 4.862-8.43l18.345-10.603Zm67.211 0a9.712 9.712 0 0 1 9.723 0l18.345 10.603a9.735 9.735 0 0 1 4.862 8.43v21.207a9.735 9.735 0 0 1-4.862 8.43l-18.345 10.603a9.713 9.713 0 0 1-9.723 0l-18.345-10.603a9.737 9.737 0 0 1-4.862-8.43v-21.207a9.737 9.737 0 0 1 4.862-8.43l18.345-10.603Zm-436.808 61.61a9.713 9.713 0 0 1 9.723 0l18.345 10.603a9.737 9.737 0 0 1 4.862 8.43v21.207a9.736 9.736 0 0 1-4.862 8.43L6.93 222.018a9.713 9.713 0 0 1-9.723 0l-18.346-10.603a9.736 9.736 0 0 1-4.861-8.43v-21.207a9.737 9.737 0 0 1 4.861-8.43l18.346-10.603Zm67.211 0a9.713 9.713 0 0 1 9.723 0l18.345 10.603a9.737 9.737 0 0 1 4.861 8.43v21.207a9.736 9.736 0 0 1-4.861 8.43l-18.345 10.603a9.713 9.713 0 0 1-9.723 0l-18.345-10.603a9.736 9.736 0 0 1-4.862-8.43v-21.207a9.737 9.737 0 0 1 4.862-8.43l18.345-10.603Zm67.338 0a9.713 9.713 0 0 1 9.723 0l18.345 10.603a9.737 9.737 0 0 1 4.861 8.43v21.207a9.736 9.736 0 0 1-4.861 8.43l-18.345 10.603a9.713 9.713 0 0 1-9.723 0l-18.345-10.603a9.735 9.735 0 0 1-4.862-8.43v-21.207a9.736 9.736 0 0 1 4.862-8.43l18.345-10.603Zm67.147 0a9.713 9.713 0 0 1 9.723 0l18.345 10.603a9.736 9.736 0 0 1 4.862 8.43v21.207a9.735 9.735 0 0 1-4.862 8.43l-18.345 10.603a9.713 9.713 0 0 1-9.723 0l-18.345-10.603a9.736 9.736 0 0 1-4.861-8.43v-21.207a9.737 9.737 0 0 1 4.861-8.43l18.345-10.603Zm67.211 0a9.713 9.713 0 0 1 9.723 0l18.345 10.603a9.736 9.736 0 0 1 4.862 8.43v21.207a9.735 9.735 0 0 1-4.862 8.43l-18.345 10.603a9.713 9.713 0 0 1-9.723 0l-18.345-10.603a9.736 9.736 0 0 1-4.861-8.43v-21.207a9.737 9.737 0 0 1 4.861-8.43l18.345-10.603Zm67.211 0a9.713 9.713 0 0 1 9.723 0l18.346 10.603a9.737 9.737 0 0 1 4.861 8.43v21.207a9.736 9.736 0 0 1-4.861 8.43l-18.346 10.603a9.713 9.713 0 0 1-9.723 0l-18.345-10.603a9.736 9.736 0 0 1-4.861-8.43v-21.207a9.737 9.737 0 0 1 4.861-8.43l18.345-10.603Zm67.148 0a9.713 9.713 0 0 1 9.723 0l18.345 10.603a9.738 9.738 0 0 1 4.862 8.43v21.207a9.737 9.737 0 0 1-4.862 8.43l-18.345 10.603a9.713 9.713 0 0 1-9.723 0l-18.345-10.603a9.735 9.735 0 0 1-4.862-8.43v-21.207a9.736 9.736 0 0 1 4.862-8.43l18.345-10.603Zm67.211 0a9.713 9.713 0 0 1 9.723 0l18.345 10.603a9.736 9.736 0 0 1 4.862 8.43v21.207a9.735 9.735 0 0 1-4.862 8.43l-18.345 10.603a9.713 9.713 0 0 1-9.723 0l-18.345-10.603a9.735 9.735 0 0 1-4.862-8.43v-21.207a9.736 9.736 0 0 1 4.862-8.43l18.345-10.603Zm504.403-184.83a9.713 9.713 0 0 1 9.723 0l18.34 10.603a9.74 9.74 0 0 1 4.87 8.43v21.207a9.74 9.74 0 0 1-4.87 8.43l-18.34 10.603a9.714 9.714 0 0 1-9.723 0l-18.345-10.603a9.735 9.735 0 0 1-4.862-8.43V-3.052a9.735 9.735 0 0 1 4.862-8.43l18.345-10.604Zm67.143 0a9.726 9.726 0 0 1 9.73 0l18.34 10.603a9.731 9.731 0 0 1 4.86 8.43v21.207a9.731 9.731 0 0 1-4.86 8.43l-18.34 10.603a9.727 9.727 0 0 1-9.73 0l-18.34-10.603a9.731 9.731 0 0 1-4.86-8.43V-3.052a9.731 9.731 0 0 1 4.86-8.43l18.34-10.604Zm67.22 0a9.707 9.707 0 0 1 9.72 0l18.34 10.603a9.74 9.74 0 0 1 4.87 8.43v21.207a9.74 9.74 0 0 1-4.87 8.43l-18.34 10.603a9.708 9.708 0 0 1-9.72 0l-18.35-10.603a9.731 9.731 0 0 1-4.86-8.43V-3.052a9.731 9.731 0 0 1 4.86-8.43l18.35-10.604Zm67.21 0a9.707 9.707 0 0 1 9.72 0l18.34 10.603a9.74 9.74 0 0 1 4.87 8.43v21.207a9.74 9.74 0 0 1-4.87 8.43l-18.34 10.603a9.708 9.708 0 0 1-9.72 0l-18.35-10.603a9.731 9.731 0 0 1-4.86-8.43V-3.052a9.731 9.731 0 0 1 4.86-8.43l18.35-10.604Zm67.14 0a9.726 9.726 0 0 1 9.73 0l18.34 10.603a9.731 9.731 0 0 1 4.86 8.43v21.207a9.731 9.731 0 0 1-4.86 8.43l-18.34 10.603a9.727 9.727 0 0 1-9.73 0l-18.34-10.603a9.731 9.731 0 0 1-4.86-8.43V-3.052a9.731 9.731 0 0 1 4.86-8.43l18.34-10.604Zm67.21 0a9.726 9.726 0 0 1 9.73 0l18.34 10.603a9.731 9.731 0 0 1 4.86 8.43v21.207a9.731 9.731 0 0 1-4.86 8.43l-18.34 10.603a9.727 9.727 0 0 1-9.73 0l-18.34-10.603a9.731 9.731 0 0 1-4.86-8.43V-3.052a9.731 9.731 0 0 1 4.86-8.43l18.34-10.604Zm-302.25 61.61a9.708 9.708 0 0 1 9.72 0l18.34 10.603a9.74 9.74 0 0 1 4.87 8.43v21.207a9.74 9.74 0 0 1-4.87 8.43l-18.34 10.603a9.708 9.708 0 0 1-9.72 0l-18.349-10.603a9.735 9.735 0 0 1-4.862-8.43V58.558a9.735 9.735 0 0 1 4.862-8.43l18.349-10.603Zm67.14 0a9.727 9.727 0 0 1 9.73 0l18.34 10.603a9.731 9.731 0 0 1 4.86 8.43v21.207a9.731 9.731 0 0 1-4.86 8.43l-18.34 10.603a9.727 9.727 0 0 1-9.73 0l-18.34-10.603a9.731 9.731 0 0 1-4.86-8.43V58.558a9.731 9.731 0 0 1 4.86-8.43l18.34-10.603Zm67.21 0a9.727 9.727 0 0 1 9.73 0l18.34 10.603a9.731 9.731 0 0 1 4.86 8.43v21.207a9.731 9.731 0 0 1-4.86 8.43l-18.34 10.603a9.727 9.727 0 0 1-9.73 0l-18.34-10.603a9.731 9.731 0 0 1-4.86-8.43V58.558a9.731 9.731 0 0 1 4.86-8.43l18.34-10.603Zm67.22 0a9.708 9.708 0 0 1 9.72 0l18.34 10.603a9.74 9.74 0 0 1 4.87 8.43v21.207a9.74 9.74 0 0 1-4.87 8.43l-18.34 10.603a9.708 9.708 0 0 1-9.72 0l-18.35-10.603a9.731 9.731 0 0 1-4.86-8.43V58.558a9.731 9.731 0 0 1 4.86-8.43l18.35-10.603Zm67.14 0a9.727 9.727 0 0 1 9.73 0l18.34 10.603a9.731 9.731 0 0 1 4.86 8.43v21.207a9.731 9.731 0 0 1-4.86 8.43l-18.34 10.603a9.727 9.727 0 0 1-9.73 0l-18.34-10.603a9.731 9.731 0 0 1-4.86-8.43V58.558a9.731 9.731 0 0 1 4.86-8.43l18.34-10.603Zm67.21 0a9.727 9.727 0 0 1 9.73 0l18.34 10.603a9.731 9.731 0 0 1 4.86 8.43v21.207a9.731 9.731 0 0 1-4.86 8.43l-18.34 10.603a9.727 9.727 0 0 1-9.73 0l-18.34-10.603a9.731 9.731 0 0 1-4.86-8.43V58.558a9.731 9.731 0 0 1 4.86-8.43l18.34-10.603Zm-369.593 61.61a9.712 9.712 0 0 1 9.723 0l18.34 10.603a9.74 9.74 0 0 1 4.87 8.43v21.207a9.74 9.74 0 0 1-4.87 8.43l-18.34 10.603a9.713 9.713 0 0 1-9.723 0l-18.345-10.603a9.735 9.735 0 0 1-4.862-8.43v-21.207a9.735 9.735 0 0 1 4.862-8.43l18.345-10.603Zm67.143 0a9.725 9.725 0 0 1 9.73 0l18.34 10.603a9.731 9.731 0 0 1 4.86 8.43v21.207a9.731 9.731 0 0 1-4.86 8.43l-18.34 10.603a9.726 9.726 0 0 1-9.73 0l-18.34-10.603a9.731 9.731 0 0 1-4.86-8.43v-21.207a9.731 9.731 0 0 1 4.86-8.43l18.34-10.603Zm67.22 0c3-1.74 6.71-1.74 9.72 0l18.34 10.603a9.74 9.74 0 0 1 4.87 8.43v21.207a9.74 9.74 0 0 1-4.87 8.43l-18.34 10.603a9.707 9.707 0 0 1-9.72 0l-18.35-10.603a9.731 9.731 0 0 1-4.86-8.43v-21.207a9.731 9.731 0 0 1 4.86-8.43l18.35-10.603Zm67.21 0c3-1.74 6.71-1.74 9.72 0l18.34 10.603a9.74 9.74 0 0 1 4.87 8.43v21.207a9.74 9.74 0 0 1-4.87 8.43l-18.34 10.603a9.707 9.707 0 0 1-9.72 0l-18.35-10.603a9.731 9.731 0 0 1-4.86-8.43v-21.207a9.731 9.731 0 0 1 4.86-8.43l18.35-10.603Zm67.14 0a9.725 9.725 0 0 1 9.73 0l18.34 10.603a9.731 9.731 0 0 1 4.86 8.43v21.207a9.731 9.731 0 0 1-4.86 8.43l-18.34 10.603a9.726 9.726 0 0 1-9.73 0l-18.34-10.603a9.731 9.731 0 0 1-4.86-8.43v-21.207a9.731 9.731 0 0 1 4.86-8.43l18.34-10.603Zm67.21 0a9.725 9.725 0 0 1 9.73 0l18.34 10.603a9.731 9.731 0 0 1 4.86 8.43v21.207a9.731 9.731 0 0 1-4.86 8.43l-18.34 10.603a9.726 9.726 0 0 1-9.73 0l-18.34-10.603a9.731 9.731 0 0 1-4.86-8.43v-21.207a9.731 9.731 0 0 1 4.86-8.43l18.34-10.603Zm-302.25 61.61a9.707 9.707 0 0 1 9.72 0l18.34 10.603a9.742 9.742 0 0 1 4.87 8.43v21.207a9.74 9.74 0 0 1-4.87 8.43l-18.34 10.603a9.707 9.707 0 0 1-9.72 0l-18.349-10.603a9.735 9.735 0 0 1-4.862-8.43v-21.207a9.736 9.736 0 0 1 4.862-8.43l18.349-10.603Zm67.14 0a9.726 9.726 0 0 1 9.73 0l18.34 10.603a9.732 9.732 0 0 1 4.86 8.43v21.207a9.731 9.731 0 0 1-4.86 8.43l-18.34 10.603a9.726 9.726 0 0 1-9.73 0l-18.34-10.603a9.731 9.731 0 0 1-4.86-8.43v-21.207a9.732 9.732 0 0 1 4.86-8.43l18.34-10.603Zm67.21 0a9.726 9.726 0 0 1 9.73 0l18.34 10.603a9.732 9.732 0 0 1 4.86 8.43v21.207a9.731 9.731 0 0 1-4.86 8.43l-18.34 10.603a9.726 9.726 0 0 1-9.73 0l-18.34-10.603a9.731 9.731 0 0 1-4.86-8.43v-21.207a9.732 9.732 0 0 1 4.86-8.43l18.34-10.603Zm67.22 0a9.707 9.707 0 0 1 9.72 0l18.34 10.603a9.742 9.742 0 0 1 4.87 8.43v21.207a9.74 9.74 0 0 1-4.87 8.43l-18.34 10.603a9.707 9.707 0 0 1-9.72 0l-18.35-10.603a9.731 9.731 0 0 1-4.86-8.43v-21.207a9.732 9.732 0 0 1 4.86-8.43l18.35-10.603Zm67.14 0a9.726 9.726 0 0 1 9.73 0l18.34 10.603a9.732 9.732 0 0 1 4.86 8.43v21.207a9.731 9.731 0 0 1-4.86 8.43l-18.34 10.603a9.726 9.726 0 0 1-9.73 0l-18.34-10.603a9.731 9.731 0 0 1-4.86-8.43v-21.207a9.732 9.732 0 0 1 4.86-8.43l18.34-10.603Zm67.21 0a9.726 9.726 0 0 1 9.73 0l18.34 10.603a9.732 9.732 0 0 1 4.86 8.43v21.207a9.731 9.731 0 0 1-4.86 8.43l-18.34 10.603a9.726 9.726 0 0 1-9.73 0l-18.34-10.603a9.731 9.731 0 0 1-4.86-8.43v-21.207a9.732 9.732 0 0 1 4.86-8.43l18.34-10.603ZM501.749-22.085a9.713 9.713 0 0 1 9.723 0l18.345 10.603a9.737 9.737 0 0 1 4.862 8.43v21.207a9.737 9.737 0 0 1-4.862 8.43l-18.345 10.603a9.714 9.714 0 0 1-9.723 0l-18.345-10.603a9.735 9.735 0 0 1-4.862-8.43V-3.052a9.735 9.735 0 0 1 4.862-8.43l18.345-10.604Zm67.338 0a9.713 9.713 0 0 1 9.723 0l18.345 10.603a9.736 9.736 0 0 1 4.861 8.43v21.207a9.736 9.736 0 0 1-4.861 8.43L578.81 37.188a9.714 9.714 0 0 1-9.723 0l-18.345-10.603a9.735 9.735 0 0 1-4.862-8.43V-3.052a9.735 9.735 0 0 1 4.862-8.43l18.345-10.604Zm67.147 0a9.713 9.713 0 0 1 9.723 0l18.346 10.603a9.736 9.736 0 0 1 4.861 8.43v21.207a9.736 9.736 0 0 1-4.861 8.43l-18.346 10.603a9.714 9.714 0 0 1-9.723 0l-18.345-10.603a9.736 9.736 0 0 1-4.861-8.43V-3.052a9.736 9.736 0 0 1 4.861-8.43l18.345-10.604Zm67.211 0a9.713 9.713 0 0 1 9.723 0l18.346 10.603a9.736 9.736 0 0 1 4.861 8.43v21.207a9.736 9.736 0 0 1-4.861 8.43l-18.346 10.603a9.714 9.714 0 0 1-9.723 0L685.1 26.585a9.736 9.736 0 0 1-4.861-8.43V-3.052a9.736 9.736 0 0 1 4.861-8.43l18.345-10.604Zm67.211 0a9.713 9.713 0 0 1 9.723 0l18.346 10.603a9.736 9.736 0 0 1 4.861 8.43v21.207a9.736 9.736 0 0 1-4.861 8.43l-18.346 10.603a9.714 9.714 0 0 1-9.723 0l-18.345-10.603a9.736 9.736 0 0 1-4.861-8.43V-3.052a9.736 9.736 0 0 1 4.861-8.43l18.345-10.604Zm67.148 0a9.713 9.713 0 0 1 9.723 0l18.345 10.603a9.735 9.735 0 0 1 4.862 8.43v21.207a9.735 9.735 0 0 1-4.862 8.43l-18.345 10.603a9.714 9.714 0 0 1-9.723 0l-18.345-10.603a9.735 9.735 0 0 1-4.862-8.43V-3.052a9.735 9.735 0 0 1 4.862-8.43l18.345-10.604Zm67.211 0a9.713 9.713 0 0 1 9.723 0l18.345 10.603a9.735 9.735 0 0 1 4.862 8.43v21.207a9.735 9.735 0 0 1-4.862 8.43l-18.345 10.603a9.714 9.714 0 0 1-9.723 0L886.67 26.585a9.735 9.735 0 0 1-4.862-8.43V-3.052a9.735 9.735 0 0 1 4.862-8.43l18.345-10.604Zm-369.597 61.61a9.714 9.714 0 0 1 9.723 0l18.345 10.603a9.737 9.737 0 0 1 4.862 8.43v21.207a9.737 9.737 0 0 1-4.862 8.43l-18.345 10.603a9.714 9.714 0 0 1-9.723 0l-18.345-10.603a9.735 9.735 0 0 1-4.862-8.43V58.558a9.735 9.735 0 0 1 4.862-8.43l18.345-10.603Zm67.338 0a9.714 9.714 0 0 1 9.723 0l18.345 10.603a9.736 9.736 0 0 1 4.861 8.43v21.207a9.736 9.736 0 0 1-4.861 8.43l-18.345 10.603a9.714 9.714 0 0 1-9.723 0l-18.345-10.603a9.735 9.735 0 0 1-4.862-8.43V58.558a9.735 9.735 0 0 1 4.862-8.43l18.345-10.603Zm67.147 0a9.714 9.714 0 0 1 9.723 0l18.345 10.603a9.735 9.735 0 0 1 4.862 8.43v21.207a9.735 9.735 0 0 1-4.862 8.43l-18.345 10.603a9.714 9.714 0 0 1-9.723 0l-18.345-10.603a9.736 9.736 0 0 1-4.861-8.43V58.558a9.736 9.736 0 0 1 4.861-8.43l18.345-10.603Zm67.211 0a9.714 9.714 0 0 1 9.723 0l18.345 10.603a9.735 9.735 0 0 1 4.862 8.43v21.207a9.735 9.735 0 0 1-4.862 8.43l-18.345 10.603a9.714 9.714 0 0 1-9.723 0l-18.345-10.603a9.736 9.736 0 0 1-4.861-8.43V58.558a9.736 9.736 0 0 1 4.861-8.43l18.345-10.603Zm67.211 0a9.714 9.714 0 0 1 9.723 0l18.346 10.603a9.736 9.736 0 0 1 4.861 8.43v21.207a9.736 9.736 0 0 1-4.861 8.43l-18.346 10.603a9.714 9.714 0 0 1-9.723 0L785.98 88.195a9.736 9.736 0 0 1-4.861-8.43V58.558a9.736 9.736 0 0 1 4.861-8.43l18.345-10.603Zm67.148 0a9.714 9.714 0 0 1 9.723 0l18.345 10.603a9.737 9.737 0 0 1 4.862 8.43v21.207a9.737 9.737 0 0 1-4.862 8.43l-18.345 10.603a9.714 9.714 0 0 1-9.723 0l-18.345-10.603a9.735 9.735 0 0 1-4.862-8.43V58.558a9.735 9.735 0 0 1 4.862-8.43l18.345-10.603Zm67.211 0a9.714 9.714 0 0 1 9.723 0l18.345 10.603a9.735 9.735 0 0 1 4.862 8.43v21.207a9.735 9.735 0 0 1-4.862 8.43l-18.345 10.603a9.714 9.714 0 0 1-9.723 0l-18.345-10.603a9.735 9.735 0 0 1-4.862-8.43V58.558a9.735 9.735 0 0 1 4.862-8.43l18.345-10.603Zm-436.935 61.61a9.712 9.712 0 0 1 9.723 0l18.345 10.603a9.737 9.737 0 0 1 4.862 8.43v21.207a9.737 9.737 0 0 1-4.862 8.43l-18.345 10.603a9.713 9.713 0 0 1-9.723 0l-18.345-10.603a9.735 9.735 0 0 1-4.862-8.43v-21.207a9.735 9.735 0 0 1 4.862-8.43l18.345-10.603Zm67.338 0a9.712 9.712 0 0 1 9.723 0l18.345 10.603a9.736 9.736 0 0 1 4.861 8.43v21.207a9.736 9.736 0 0 1-4.861 8.43l-18.345 10.603a9.713 9.713 0 0 1-9.723 0l-18.345-10.603a9.735 9.735 0 0 1-4.862-8.43v-21.207a9.735 9.735 0 0 1 4.862-8.43l18.345-10.603Zm67.147 0a9.712 9.712 0 0 1 9.723 0l18.346 10.603a9.736 9.736 0 0 1 4.861 8.43v21.207a9.736 9.736 0 0 1-4.861 8.43l-18.346 10.603a9.713 9.713 0 0 1-9.723 0l-18.345-10.603a9.736 9.736 0 0 1-4.861-8.43v-21.207a9.736 9.736 0 0 1 4.861-8.43l18.345-10.603Zm67.211 0a9.712 9.712 0 0 1 9.723 0l18.346 10.603a9.736 9.736 0 0 1 4.861 8.43v21.207a9.736 9.736 0 0 1-4.861 8.43l-18.346 10.603a9.713 9.713 0 0 1-9.723 0L685.1 149.805a9.736 9.736 0 0 1-4.861-8.43v-21.207a9.736 9.736 0 0 1 4.861-8.43l18.345-10.603Zm67.211 0a9.712 9.712 0 0 1 9.723 0l18.346 10.603a9.736 9.736 0 0 1 4.861 8.43v21.207a9.736 9.736 0 0 1-4.861 8.43l-18.346 10.603a9.713 9.713 0 0 1-9.723 0l-18.345-10.603a9.736 9.736 0 0 1-4.861-8.43v-21.207a9.736 9.736 0 0 1 4.861-8.43l18.345-10.603Zm67.148 0a9.712 9.712 0 0 1 9.723 0l18.345 10.603a9.735 9.735 0 0 1 4.862 8.43v21.207a9.735 9.735 0 0 1-4.862 8.43l-18.345 10.603a9.713 9.713 0 0 1-9.723 0l-18.345-10.603a9.735 9.735 0 0 1-4.862-8.43v-21.207a9.735 9.735 0 0 1 4.862-8.43l18.345-10.603Zm67.211 0a9.712 9.712 0 0 1 9.723 0l18.345 10.603a9.735 9.735 0 0 1 4.862 8.43v21.207a9.735 9.735 0 0 1-4.862 8.43l-18.345 10.603a9.713 9.713 0 0 1-9.723 0l-18.345-10.603a9.735 9.735 0 0 1-4.862-8.43v-21.207a9.735 9.735 0 0 1 4.862-8.43l18.345-10.603Zm-369.597 61.61a9.713 9.713 0 0 1 9.723 0l18.345 10.603a9.738 9.738 0 0 1 4.862 8.43v21.207a9.737 9.737 0 0 1-4.862 8.43l-18.345 10.603a9.713 9.713 0 0 1-9.723 0l-18.345-10.603a9.735 9.735 0 0 1-4.862-8.43v-21.207a9.736 9.736 0 0 1 4.862-8.43l18.345-10.603Zm67.338 0a9.713 9.713 0 0 1 9.723 0l18.345 10.603a9.737 9.737 0 0 1 4.861 8.43v21.207a9.736 9.736 0 0 1-4.861 8.43l-18.345 10.603a9.713 9.713 0 0 1-9.723 0l-18.345-10.603a9.735 9.735 0 0 1-4.862-8.43v-21.207a9.736 9.736 0 0 1 4.862-8.43l18.345-10.603Zm67.147 0a9.713 9.713 0 0 1 9.723 0l18.345 10.603a9.736 9.736 0 0 1 4.862 8.43v21.207a9.735 9.735 0 0 1-4.862 8.43l-18.345 10.603a9.713 9.713 0 0 1-9.723 0l-18.345-10.603a9.736 9.736 0 0 1-4.861-8.43v-21.207a9.737 9.737 0 0 1 4.861-8.43l18.345-10.603Zm67.211 0a9.713 9.713 0 0 1 9.723 0l18.345 10.603a9.736 9.736 0 0 1 4.862 8.43v21.207a9.735 9.735 0 0 1-4.862 8.43l-18.345 10.603a9.713 9.713 0 0 1-9.723 0l-18.345-10.603a9.736 9.736 0 0 1-4.861-8.43v-21.207a9.737 9.737 0 0 1 4.861-8.43l18.345-10.603Zm67.211 0a9.713 9.713 0 0 1 9.723 0l18.346 10.603a9.737 9.737 0 0 1 4.861 8.43v21.207a9.736 9.736 0 0 1-4.861 8.43l-18.346 10.603a9.713 9.713 0 0 1-9.723 0l-18.345-10.603a9.736 9.736 0 0 1-4.861-8.43v-21.207a9.737 9.737 0 0 1 4.861-8.43l18.345-10.603Zm67.148 0a9.713 9.713 0 0 1 9.723 0l18.345 10.603a9.738 9.738 0 0 1 4.862 8.43v21.207a9.737 9.737 0 0 1-4.862 8.43l-18.345 10.603a9.713 9.713 0 0 1-9.723 0l-18.345-10.603a9.735 9.735 0 0 1-4.862-8.43v-21.207a9.736 9.736 0 0 1 4.862-8.43l18.345-10.603Zm67.211 0a9.713 9.713 0 0 1 9.723 0l18.345 10.603a9.736 9.736 0 0 1 4.862 8.43v21.207a9.735 9.735 0 0 1-4.862 8.43l-18.345 10.603a9.713 9.713 0 0 1-9.723 0l-18.345-10.603a9.735 9.735 0 0 1-4.862-8.43v-21.207a9.736 9.736 0 0 1 4.862-8.43l18.345-10.603Z"/></mask><path d="M1374.75-22.085a9.707 9.707 0 0 1 9.72 0l18.35 10.603a9.731 9.731 0 0 1 4.86 8.43v21.207a9.731 9.731 0 0 1-4.86 8.43l-18.35 10.603a9.708 9.708 0 0 1-9.72 0l-18.35-10.603a9.752 9.752 0 0 1-4.86-8.43V-3.052a9.752 9.752 0 0 1 4.86-8.43l18.35-10.604Zm67.34 0a9.707 9.707 0 0 1 9.72 0l18.34 10.603a9.74 9.74 0 0 1 4.87 8.43v21.207a9.74 9.74 0 0 1-4.87 8.43l-18.34 10.603a9.708 9.708 0 0 1-9.72 0l-18.35-10.603a9.731 9.731 0 0 1-4.86-8.43V-3.052a9.731 9.731 0 0 1 4.86-8.43l18.35-10.604Zm-33.67 61.61a9.708 9.708 0 0 1 9.72 0l18.35 10.603a9.752 9.752 0 0 1 4.86 8.43v21.207a9.752 9.752 0 0 1-4.86 8.43l-18.35 10.603a9.708 9.708 0 0 1-9.72 0l-18.35-10.603a9.731 9.731 0 0 1-4.86-8.43V58.558a9.731 9.731 0 0 1 4.86-8.43l18.35-10.603Zm-33.67 61.61a9.707 9.707 0 0 1 9.72 0l18.35 10.603a9.731 9.731 0 0 1 4.86 8.43v21.207a9.731 9.731 0 0 1-4.86 8.43l-18.35 10.603a9.707 9.707 0 0 1-9.72 0l-18.35-10.603a9.752 9.752 0 0 1-4.86-8.43v-21.207a9.752 9.752 0 0 1 4.86-8.43l18.35-10.603Zm67.34 0c3-1.74 6.71-1.74 9.72 0l18.34 10.603a9.74 9.74 0 0 1 4.87 8.43v21.207a9.74 9.74 0 0 1-4.87 8.43l-18.34 10.603a9.707 9.707 0 0 1-9.72 0l-18.35-10.603a9.731 9.731 0 0 1-4.86-8.43v-21.207a9.731 9.731 0 0 1 4.86-8.43l18.35-10.603Zm-33.67 61.61a9.707 9.707 0 0 1 9.72 0l18.35 10.603a9.753 9.753 0 0 1 4.86 8.43v21.207a9.752 9.752 0 0 1-4.86 8.43l-18.35 10.603a9.707 9.707 0 0 1-9.72 0l-18.35-10.603a9.731 9.731 0 0 1-4.86-8.43v-21.207a9.732 9.732 0 0 1 4.86-8.43l18.35-10.603ZM30.749-22.085a9.713 9.713 0 0 1 9.723 0l18.345 10.603a9.736 9.736 0 0 1 4.862 8.43v21.207a9.736 9.736 0 0 1-4.862 8.43L40.472 37.188a9.714 9.714 0 0 1-9.723 0L12.404 26.585a9.736 9.736 0 0 1-4.862-8.43V-3.052a9.736 9.736 0 0 1 4.862-8.43l18.345-10.604Zm67.338 0a9.714 9.714 0 0 1 9.723 0l18.345 10.603a9.736 9.736 0 0 1 4.861 8.43v21.207a9.736 9.736 0 0 1-4.861 8.43L107.81 37.188a9.714 9.714 0 0 1-9.723 0L79.74 26.585a9.736 9.736 0 0 1-4.861-8.43V-3.052a9.736 9.736 0 0 1 4.862-8.43l18.345-10.604Zm67.147 0a9.713 9.713 0 0 1 9.723 0l18.346 10.603a9.736 9.736 0 0 1 4.861 8.43v21.207a9.736 9.736 0 0 1-4.861 8.43l-18.346 10.603a9.714 9.714 0 0 1-9.723 0l-18.345-10.603a9.736 9.736 0 0 1-4.861-8.43V-3.052a9.736 9.736 0 0 1 4.861-8.43l18.345-10.604Zm67.211 0a9.713 9.713 0 0 1 9.723 0l18.346 10.603a9.736 9.736 0 0 1 4.861 8.43v21.207a9.736 9.736 0 0 1-4.861 8.43l-18.346 10.603a9.714 9.714 0 0 1-9.723 0L214.1 26.585a9.736 9.736 0 0 1-4.861-8.43V-3.052a9.736 9.736 0 0 1 4.861-8.43l18.345-10.604Zm67.211 0a9.713 9.713 0 0 1 9.723 0l18.346 10.603a9.736 9.736 0 0 1 4.861 8.43v21.207a9.736 9.736 0 0 1-4.861 8.43l-18.346 10.603a9.714 9.714 0 0 1-9.723 0l-18.345-10.603a9.736 9.736 0 0 1-4.861-8.43V-3.052a9.736 9.736 0 0 1 4.861-8.43l18.345-10.604Zm67.148 0a9.713 9.713 0 0 1 9.723 0l18.345 10.603a9.735 9.735 0 0 1 4.862 8.43v21.207a9.735 9.735 0 0 1-4.862 8.43l-18.345 10.603a9.714 9.714 0 0 1-9.723 0l-18.345-10.603a9.735 9.735 0 0 1-4.862-8.43V-3.052a9.735 9.735 0 0 1 4.862-8.43l18.345-10.604Zm67.211 0a9.713 9.713 0 0 1 9.723 0l18.345 10.603a9.735 9.735 0 0 1 4.862 8.43v21.207a9.735 9.735 0 0 1-4.862 8.43l-18.345 10.603a9.714 9.714 0 0 1-9.723 0L415.67 26.585a9.737 9.737 0 0 1-4.862-8.43V-3.052a9.737 9.737 0 0 1 4.862-8.43l18.345-10.604ZM-2.793 39.525a9.714 9.714 0 0 1 9.723 0l18.345 10.603a9.736 9.736 0 0 1 4.862 8.43v21.207a9.736 9.736 0 0 1-4.862 8.43L6.93 98.798a9.714 9.714 0 0 1-9.723 0L-21.14 88.195a9.736 9.736 0 0 1-4.86-8.43V58.558a9.736 9.736 0 0 1 4.861-8.43l18.346-10.603Zm67.211 0a9.714 9.714 0 0 1 9.723 0l18.345 10.603a9.736 9.736 0 0 1 4.861 8.43v21.207a9.736 9.736 0 0 1-4.861 8.43L74.141 98.798a9.714 9.714 0 0 1-9.723 0L46.073 88.195a9.736 9.736 0 0 1-4.862-8.43V58.558a9.736 9.736 0 0 1 4.862-8.43l18.345-10.603Zm67.338 0a9.714 9.714 0 0 1 9.723 0l18.345 10.603a9.736 9.736 0 0 1 4.861 8.43v21.207a9.736 9.736 0 0 1-4.861 8.43l-18.345 10.603a9.714 9.714 0 0 1-9.723 0l-18.345-10.603a9.735 9.735 0 0 1-4.862-8.43V58.558a9.735 9.735 0 0 1 4.862-8.43l18.345-10.603Zm67.147 0a9.714 9.714 0 0 1 9.723 0l18.345 10.603a9.735 9.735 0 0 1 4.862 8.43v21.207a9.735 9.735 0 0 1-4.862 8.43l-18.345 10.603a9.714 9.714 0 0 1-9.723 0l-18.345-10.603a9.736 9.736 0 0 1-4.861-8.43V58.558a9.736 9.736 0 0 1 4.861-8.43l18.345-10.603Zm67.211 0a9.714 9.714 0 0 1 9.723 0l18.345 10.603a9.735 9.735 0 0 1 4.862 8.43v21.207a9.735 9.735 0 0 1-4.862 8.43l-18.345 10.603a9.714 9.714 0 0 1-9.723 0l-18.345-10.603a9.736 9.736 0 0 1-4.861-8.43V58.558a9.736 9.736 0 0 1 4.861-8.43l18.345-10.603Zm67.211 0a9.714 9.714 0 0 1 9.723 0l18.346 10.603a9.736 9.736 0 0 1 4.861 8.43v21.207a9.736 9.736 0 0 1-4.861 8.43l-18.346 10.603a9.714 9.714 0 0 1-9.723 0L314.98 88.195a9.736 9.736 0 0 1-4.861-8.43V58.558a9.736 9.736 0 0 1 4.861-8.43l18.345-10.603Zm67.148 0a9.714 9.714 0 0 1 9.723 0l18.345 10.603a9.737 9.737 0 0 1 4.862 8.43v21.207a9.737 9.737 0 0 1-4.862 8.43l-18.345 10.603a9.714 9.714 0 0 1-9.723 0l-18.345-10.603a9.735 9.735 0 0 1-4.862-8.43V58.558a9.735 9.735 0 0 1 4.862-8.43l18.345-10.603Zm67.211 0a9.714 9.714 0 0 1 9.723 0l18.345 10.603a9.735 9.735 0 0 1 4.862 8.43v21.207a9.735 9.735 0 0 1-4.862 8.43l-18.345 10.603a9.714 9.714 0 0 1-9.723 0l-18.345-10.603a9.735 9.735 0 0 1-4.862-8.43V58.558a9.735 9.735 0 0 1 4.862-8.43l18.345-10.603Zm-436.935 61.61a9.712 9.712 0 0 1 9.723 0l18.345 10.603a9.736 9.736 0 0 1 4.862 8.43v21.207a9.736 9.736 0 0 1-4.862 8.43l-18.345 10.603a9.713 9.713 0 0 1-9.723 0l-18.345-10.603a9.736 9.736 0 0 1-4.862-8.43v-21.207a9.736 9.736 0 0 1 4.862-8.43l18.345-10.603Zm67.338 0a9.713 9.713 0 0 1 9.723 0l18.345 10.603a9.736 9.736 0 0 1 4.861 8.43v21.207a9.736 9.736 0 0 1-4.861 8.43l-18.345 10.603a9.713 9.713 0 0 1-9.723 0L79.74 149.805a9.736 9.736 0 0 1-4.861-8.43v-21.207a9.736 9.736 0 0 1 4.862-8.43l18.345-10.603Zm67.147 0a9.712 9.712 0 0 1 9.723 0l18.346 10.603a9.736 9.736 0 0 1 4.861 8.43v21.207a9.736 9.736 0 0 1-4.861 8.43l-18.346 10.603a9.713 9.713 0 0 1-9.723 0l-18.345-10.603a9.736 9.736 0 0 1-4.861-8.43v-21.207a9.736 9.736 0 0 1 4.861-8.43l18.345-10.603Zm67.211 0a9.712 9.712 0 0 1 9.723 0l18.346 10.603a9.736 9.736 0 0 1 4.861 8.43v21.207a9.736 9.736 0 0 1-4.861 8.43l-18.346 10.603a9.713 9.713 0 0 1-9.723 0L214.1 149.805a9.736 9.736 0 0 1-4.861-8.43v-21.207a9.736 9.736 0 0 1 4.861-8.43l18.345-10.603Zm67.211 0a9.712 9.712 0 0 1 9.723 0l18.346 10.603a9.736 9.736 0 0 1 4.861 8.43v21.207a9.736 9.736 0 0 1-4.861 8.43l-18.346 10.603a9.713 9.713 0 0 1-9.723 0l-18.345-10.603a9.736 9.736 0 0 1-4.861-8.43v-21.207a9.736 9.736 0 0 1 4.861-8.43l18.345-10.603Zm67.148 0a9.712 9.712 0 0 1 9.723 0l18.345 10.603a9.735 9.735 0 0 1 4.862 8.43v21.207a9.735 9.735 0 0 1-4.862 8.43l-18.345 10.603a9.713 9.713 0 0 1-9.723 0l-18.345-10.603a9.735 9.735 0 0 1-4.862-8.43v-21.207a9.735 9.735 0 0 1 4.862-8.43l18.345-10.603Zm67.211 0a9.712 9.712 0 0 1 9.723 0l18.345 10.603a9.735 9.735 0 0 1 4.862 8.43v21.207a9.735 9.735 0 0 1-4.862 8.43l-18.345 10.603a9.713 9.713 0 0 1-9.723 0l-18.345-10.603a9.737 9.737 0 0 1-4.862-8.43v-21.207a9.737 9.737 0 0 1 4.862-8.43l18.345-10.603Zm-436.808 61.61a9.713 9.713 0 0 1 9.723 0l18.345 10.603a9.737 9.737 0 0 1 4.862 8.43v21.207a9.736 9.736 0 0 1-4.862 8.43L6.93 222.018a9.713 9.713 0 0 1-9.723 0l-18.346-10.603a9.736 9.736 0 0 1-4.861-8.43v-21.207a9.737 9.737 0 0 1 4.861-8.43l18.346-10.603Zm67.211 0a9.713 9.713 0 0 1 9.723 0l18.345 10.603a9.737 9.737 0 0 1 4.861 8.43v21.207a9.736 9.736 0 0 1-4.861 8.43l-18.345 10.603a9.713 9.713 0 0 1-9.723 0l-18.345-10.603a9.736 9.736 0 0 1-4.862-8.43v-21.207a9.737 9.737 0 0 1 4.862-8.43l18.345-10.603Zm67.338 0a9.713 9.713 0 0 1 9.723 0l18.345 10.603a9.737 9.737 0 0 1 4.861 8.43v21.207a9.736 9.736 0 0 1-4.861 8.43l-18.345 10.603a9.713 9.713 0 0 1-9.723 0l-18.345-10.603a9.735 9.735 0 0 1-4.862-8.43v-21.207a9.736 9.736 0 0 1 4.862-8.43l18.345-10.603Zm67.147 0a9.713 9.713 0 0 1 9.723 0l18.345 10.603a9.736 9.736 0 0 1 4.862 8.43v21.207a9.735 9.735 0 0 1-4.862 8.43l-18.345 10.603a9.713 9.713 0 0 1-9.723 0l-18.345-10.603a9.736 9.736 0 0 1-4.861-8.43v-21.207a9.737 9.737 0 0 1 4.861-8.43l18.345-10.603Zm67.211 0a9.713 9.713 0 0 1 9.723 0l18.345 10.603a9.736 9.736 0 0 1 4.862 8.43v21.207a9.735 9.735 0 0 1-4.862 8.43l-18.345 10.603a9.713 9.713 0 0 1-9.723 0l-18.345-10.603a9.736 9.736 0 0 1-4.861-8.43v-21.207a9.737 9.737 0 0 1 4.861-8.43l18.345-10.603Zm67.211 0a9.713 9.713 0 0 1 9.723 0l18.346 10.603a9.737 9.737 0 0 1 4.861 8.43v21.207a9.736 9.736 0 0 1-4.861 8.43l-18.346 10.603a9.713 9.713 0 0 1-9.723 0l-18.345-10.603a9.736 9.736 0 0 1-4.861-8.43v-21.207a9.737 9.737 0 0 1 4.861-8.43l18.345-10.603Zm67.148 0a9.713 9.713 0 0 1 9.723 0l18.345 10.603a9.738 9.738 0 0 1 4.862 8.43v21.207a9.737 9.737 0 0 1-4.862 8.43l-18.345 10.603a9.713 9.713 0 0 1-9.723 0l-18.345-10.603a9.735 9.735 0 0 1-4.862-8.43v-21.207a9.736 9.736 0 0 1 4.862-8.43l18.345-10.603Zm67.211 0a9.713 9.713 0 0 1 9.723 0l18.345 10.603a9.736 9.736 0 0 1 4.862 8.43v21.207a9.735 9.735 0 0 1-4.862 8.43l-18.345 10.603a9.713 9.713 0 0 1-9.723 0l-18.345-10.603a9.735 9.735 0 0 1-4.862-8.43v-21.207a9.736 9.736 0 0 1 4.862-8.43l18.345-10.603Zm504.403-184.83a9.713 9.713 0 0 1 9.723 0l18.34 10.603a9.74 9.74 0 0 1 4.87 8.43v21.207a9.74 9.74 0 0 1-4.87 8.43l-18.34 10.603a9.714 9.714 0 0 1-9.723 0l-18.345-10.603a9.735 9.735 0 0 1-4.862-8.43V-3.052a9.735 9.735 0 0 1 4.862-8.43l18.345-10.604Zm67.143 0a9.726 9.726 0 0 1 9.73 0l18.34 10.603a9.731 9.731 0 0 1 4.86 8.43v21.207a9.731 9.731 0 0 1-4.86 8.43l-18.34 10.603a9.727 9.727 0 0 1-9.73 0l-18.34-10.603a9.731 9.731 0 0 1-4.86-8.43V-3.052a9.731 9.731 0 0 1 4.86-8.43l18.34-10.604Zm67.22 0a9.707 9.707 0 0 1 9.72 0l18.34 10.603a9.74 9.74 0 0 1 4.87 8.43v21.207a9.74 9.74 0 0 1-4.87 8.43l-18.34 10.603a9.708 9.708 0 0 1-9.72 0l-18.35-10.603a9.731 9.731 0 0 1-4.86-8.43V-3.052a9.731 9.731 0 0 1 4.86-8.43l18.35-10.604Zm67.21 0a9.707 9.707 0 0 1 9.72 0l18.34 10.603a9.74 9.74 0 0 1 4.87 8.43v21.207a9.74 9.74 0 0 1-4.87 8.43l-18.34 10.603a9.708 9.708 0 0 1-9.72 0l-18.35-10.603a9.731 9.731 0 0 1-4.86-8.43V-3.052a9.731 9.731 0 0 1 4.86-8.43l18.35-10.604Zm67.14 0a9.726 9.726 0 0 1 9.73 0l18.34 10.603a9.731 9.731 0 0 1 4.86 8.43v21.207a9.731 9.731 0 0 1-4.86 8.43l-18.34 10.603a9.727 9.727 0 0 1-9.73 0l-18.34-10.603a9.731 9.731 0 0 1-4.86-8.43V-3.052a9.731 9.731 0 0 1 4.86-8.43l18.34-10.604Zm67.21 0a9.726 9.726 0 0 1 9.73 0l18.34 10.603a9.731 9.731 0 0 1 4.86 8.43v21.207a9.731 9.731 0 0 1-4.86 8.43l-18.34 10.603a9.727 9.727 0 0 1-9.73 0l-18.34-10.603a9.731 9.731 0 0 1-4.86-8.43V-3.052a9.731 9.731 0 0 1 4.86-8.43l18.34-10.604Zm-302.25 61.61a9.708 9.708 0 0 1 9.72 0l18.34 10.603a9.74 9.74 0 0 1 4.87 8.43v21.207a9.74 9.74 0 0 1-4.87 8.43l-18.34 10.603a9.708 9.708 0 0 1-9.72 0l-18.349-10.603a9.735 9.735 0 0 1-4.862-8.43V58.558a9.735 9.735 0 0 1 4.862-8.43l18.349-10.603Zm67.14 0a9.727 9.727 0 0 1 9.73 0l18.34 10.603a9.731 9.731 0 0 1 4.86 8.43v21.207a9.731 9.731 0 0 1-4.86 8.43l-18.34 10.603a9.727 9.727 0 0 1-9.73 0l-18.34-10.603a9.731 9.731 0 0 1-4.86-8.43V58.558a9.731 9.731 0 0 1 4.86-8.43l18.34-10.603Zm67.21 0a9.727 9.727 0 0 1 9.73 0l18.34 10.603a9.731 9.731 0 0 1 4.86 8.43v21.207a9.731 9.731 0 0 1-4.86 8.43l-18.34 10.603a9.727 9.727 0 0 1-9.73 0l-18.34-10.603a9.731 9.731 0 0 1-4.86-8.43V58.558a9.731 9.731 0 0 1 4.86-8.43l18.34-10.603Zm67.22 0a9.708 9.708 0 0 1 9.72 0l18.34 10.603a9.74 9.74 0 0 1 4.87 8.43v21.207a9.74 9.74 0 0 1-4.87 8.43l-18.34 10.603a9.708 9.708 0 0 1-9.72 0l-18.35-10.603a9.731 9.731 0 0 1-4.86-8.43V58.558a9.731 9.731 0 0 1 4.86-8.43l18.35-10.603Zm67.14 0a9.727 9.727 0 0 1 9.73 0l18.34 10.603a9.731 9.731 0 0 1 4.86 8.43v21.207a9.731 9.731 0 0 1-4.86 8.43l-18.34 10.603a9.727 9.727 0 0 1-9.73 0l-18.34-10.603a9.731 9.731 0 0 1-4.86-8.43V58.558a9.731 9.731 0 0 1 4.86-8.43l18.34-10.603Zm67.21 0a9.727 9.727 0 0 1 9.73 0l18.34 10.603a9.731 9.731 0 0 1 4.86 8.43v21.207a9.731 9.731 0 0 1-4.86 8.43l-18.34 10.603a9.727 9.727 0 0 1-9.73 0l-18.34-10.603a9.731 9.731 0 0 1-4.86-8.43V58.558a9.731 9.731 0 0 1 4.86-8.43l18.34-10.603Zm-369.593 61.61a9.712 9.712 0 0 1 9.723 0l18.34 10.603a9.74 9.74 0 0 1 4.87 8.43v21.207a9.74 9.74 0 0 1-4.87 8.43l-18.34 10.603a9.713 9.713 0 0 1-9.723 0l-18.345-10.603a9.735 9.735 0 0 1-4.862-8.43v-21.207a9.735 9.735 0 0 1 4.862-8.43l18.345-10.603Zm67.143 0a9.725 9.725 0 0 1 9.73 0l18.34 10.603a9.731 9.731 0 0 1 4.86 8.43v21.207a9.731 9.731 0 0 1-4.86 8.43l-18.34 10.603a9.726 9.726 0 0 1-9.73 0l-18.34-10.603a9.731 9.731 0 0 1-4.86-8.43v-21.207a9.731 9.731 0 0 1 4.86-8.43l18.34-10.603Zm67.22 0c3-1.74 6.71-1.74 9.72 0l18.34 10.603a9.74 9.74 0 0 1 4.87 8.43v21.207a9.74 9.74 0 0 1-4.87 8.43l-18.34 10.603a9.707 9.707 0 0 1-9.72 0l-18.35-10.603a9.731 9.731 0 0 1-4.86-8.43v-21.207a9.731 9.731 0 0 1 4.86-8.43l18.35-10.603Zm67.21 0c3-1.74 6.71-1.74 9.72 0l18.34 10.603a9.74 9.74 0 0 1 4.87 8.43v21.207a9.74 9.74 0 0 1-4.87 8.43l-18.34 10.603a9.707 9.707 0 0 1-9.72 0l-18.35-10.603a9.731 9.731 0 0 1-4.86-8.43v-21.207a9.731 9.731 0 0 1 4.86-8.43l18.35-10.603Zm67.14 0a9.725 9.725 0 0 1 9.73 0l18.34 10.603a9.731 9.731 0 0 1 4.86 8.43v21.207a9.731 9.731 0 0 1-4.86 8.43l-18.34 10.603a9.726 9.726 0 0 1-9.73 0l-18.34-10.603a9.731 9.731 0 0 1-4.86-8.43v-21.207a9.731 9.731 0 0 1 4.86-8.43l18.34-10.603Zm67.21 0a9.725 9.725 0 0 1 9.73 0l18.34 10.603a9.731 9.731 0 0 1 4.86 8.43v21.207a9.731 9.731 0 0 1-4.86 8.43l-18.34 10.603a9.726 9.726 0 0 1-9.73 0l-18.34-10.603a9.731 9.731 0 0 1-4.86-8.43v-21.207a9.731 9.731 0 0 1 4.86-8.43l18.34-10.603Zm-302.25 61.61a9.707 9.707 0 0 1 9.72 0l18.34 10.603a9.742 9.742 0 0 1 4.87 8.43v21.207a9.74 9.74 0 0 1-4.87 8.43l-18.34 10.603a9.707 9.707 0 0 1-9.72 0l-18.349-10.603a9.735 9.735 0 0 1-4.862-8.43v-21.207a9.736 9.736 0 0 1 4.862-8.43l18.349-10.603Zm67.14 0a9.726 9.726 0 0 1 9.73 0l18.34 10.603a9.732 9.732 0 0 1 4.86 8.43v21.207a9.731 9.731 0 0 1-4.86 8.43l-18.34 10.603a9.726 9.726 0 0 1-9.73 0l-18.34-10.603a9.731 9.731 0 0 1-4.86-8.43v-21.207a9.732 9.732 0 0 1 4.86-8.43l18.34-10.603Zm67.21 0a9.726 9.726 0 0 1 9.73 0l18.34 10.603a9.732 9.732 0 0 1 4.86 8.43v21.207a9.731 9.731 0 0 1-4.86 8.43l-18.34 10.603a9.726 9.726 0 0 1-9.73 0l-18.34-10.603a9.731 9.731 0 0 1-4.86-8.43v-21.207a9.732 9.732 0 0 1 4.86-8.43l18.34-10.603Zm67.22 0a9.707 9.707 0 0 1 9.72 0l18.34 10.603a9.742 9.742 0 0 1 4.87 8.43v21.207a9.74 9.74 0 0 1-4.87 8.43l-18.34 10.603a9.707 9.707 0 0 1-9.72 0l-18.35-10.603a9.731 9.731 0 0 1-4.86-8.43v-21.207a9.732 9.732 0 0 1 4.86-8.43l18.35-10.603Zm67.14 0a9.726 9.726 0 0 1 9.73 0l18.34 10.603a9.732 9.732 0 0 1 4.86 8.43v21.207a9.731 9.731 0 0 1-4.86 8.43l-18.34 10.603a9.726 9.726 0 0 1-9.73 0l-18.34-10.603a9.731 9.731 0 0 1-4.86-8.43v-21.207a9.732 9.732 0 0 1 4.86-8.43l18.34-10.603Zm67.21 0a9.726 9.726 0 0 1 9.73 0l18.34 10.603a9.732 9.732 0 0 1 4.86 8.43v21.207a9.731 9.731 0 0 1-4.86 8.43l-18.34 10.603a9.726 9.726 0 0 1-9.73 0l-18.34-10.603a9.731 9.731 0 0 1-4.86-8.43v-21.207a9.732 9.732 0 0 1 4.86-8.43l18.34-10.603ZM501.749-22.085a9.713 9.713 0 0 1 9.723 0l18.345 10.603a9.737 9.737 0 0 1 4.862 8.43v21.207a9.737 9.737 0 0 1-4.862 8.43l-18.345 10.603a9.714 9.714 0 0 1-9.723 0l-18.345-10.603a9.735 9.735 0 0 1-4.862-8.43V-3.052a9.735 9.735 0 0 1 4.862-8.43l18.345-10.604Zm67.338 0a9.713 9.713 0 0 1 9.723 0l18.345 10.603a9.736 9.736 0 0 1 4.861 8.43v21.207a9.736 9.736 0 0 1-4.861 8.43L578.81 37.188a9.714 9.714 0 0 1-9.723 0l-18.345-10.603a9.735 9.735 0 0 1-4.862-8.43V-3.052a9.735 9.735 0 0 1 4.862-8.43l18.345-10.604Zm67.147 0a9.713 9.713 0 0 1 9.723 0l18.346 10.603a9.736 9.736 0 0 1 4.861 8.43v21.207a9.736 9.736 0 0 1-4.861 8.43l-18.346 10.603a9.714 9.714 0 0 1-9.723 0l-18.345-10.603a9.736 9.736 0 0 1-4.861-8.43V-3.052a9.736 9.736 0 0 1 4.861-8.43l18.345-10.604Zm67.211 0a9.713 9.713 0 0 1 9.723 0l18.346 10.603a9.736 9.736 0 0 1 4.861 8.43v21.207a9.736 9.736 0 0 1-4.861 8.43l-18.346 10.603a9.714 9.714 0 0 1-9.723 0L685.1 26.585a9.736 9.736 0 0 1-4.861-8.43V-3.052a9.736 9.736 0 0 1 4.861-8.43l18.345-10.604Zm67.211 0a9.713 9.713 0 0 1 9.723 0l18.346 10.603a9.736 9.736 0 0 1 4.861 8.43v21.207a9.736 9.736 0 0 1-4.861 8.43l-18.346 10.603a9.714 9.714 0 0 1-9.723 0l-18.345-10.603a9.736 9.736 0 0 1-4.861-8.43V-3.052a9.736 9.736 0 0 1 4.861-8.43l18.345-10.604Zm67.148 0a9.713 9.713 0 0 1 9.723 0l18.345 10.603a9.735 9.735 0 0 1 4.862 8.43v21.207a9.735 9.735 0 0 1-4.862 8.43l-18.345 10.603a9.714 9.714 0 0 1-9.723 0l-18.345-10.603a9.735 9.735 0 0 1-4.862-8.43V-3.052a9.735 9.735 0 0 1 4.862-8.43l18.345-10.604Zm67.211 0a9.713 9.713 0 0 1 9.723 0l18.345 10.603a9.735 9.735 0 0 1 4.862 8.43v21.207a9.735 9.735 0 0 1-4.862 8.43l-18.345 10.603a9.714 9.714 0 0 1-9.723 0L886.67 26.585a9.735 9.735 0 0 1-4.862-8.43V-3.052a9.735 9.735 0 0 1 4.862-8.43l18.345-10.604Zm-369.597 61.61a9.714 9.714 0 0 1 9.723 0l18.345 10.603a9.737 9.737 0 0 1 4.862 8.43v21.207a9.737 9.737 0 0 1-4.862 8.43l-18.345 10.603a9.714 9.714 0 0 1-9.723 0l-18.345-10.603a9.735 9.735 0 0 1-4.862-8.43V58.558a9.735 9.735 0 0 1 4.862-8.43l18.345-10.603Zm67.338 0a9.714 9.714 0 0 1 9.723 0l18.345 10.603a9.736 9.736 0 0 1 4.861 8.43v21.207a9.736 9.736 0 0 1-4.861 8.43l-18.345 10.603a9.714 9.714 0 0 1-9.723 0l-18.345-10.603a9.735 9.735 0 0 1-4.862-8.43V58.558a9.735 9.735 0 0 1 4.862-8.43l18.345-10.603Zm67.147 0a9.714 9.714 0 0 1 9.723 0l18.345 10.603a9.735 9.735 0 0 1 4.862 8.43v21.207a9.735 9.735 0 0 1-4.862 8.43l-18.345 10.603a9.714 9.714 0 0 1-9.723 0l-18.345-10.603a9.736 9.736 0 0 1-4.861-8.43V58.558a9.736 9.736 0 0 1 4.861-8.43l18.345-10.603Zm67.211 0a9.714 9.714 0 0 1 9.723 0l18.345 10.603a9.735 9.735 0 0 1 4.862 8.43v21.207a9.735 9.735 0 0 1-4.862 8.43l-18.345 10.603a9.714 9.714 0 0 1-9.723 0l-18.345-10.603a9.736 9.736 0 0 1-4.861-8.43V58.558a9.736 9.736 0 0 1 4.861-8.43l18.345-10.603Zm67.211 0a9.714 9.714 0 0 1 9.723 0l18.346 10.603a9.736 9.736 0 0 1 4.861 8.43v21.207a9.736 9.736 0 0 1-4.861 8.43l-18.346 10.603a9.714 9.714 0 0 1-9.723 0L785.98 88.195a9.736 9.736 0 0 1-4.861-8.43V58.558a9.736 9.736 0 0 1 4.861-8.43l18.345-10.603Zm67.148 0a9.714 9.714 0 0 1 9.723 0l18.345 10.603a9.737 9.737 0 0 1 4.862 8.43v21.207a9.737 9.737 0 0 1-4.862 8.43l-18.345 10.603a9.714 9.714 0 0 1-9.723 0l-18.345-10.603a9.735 9.735 0 0 1-4.862-8.43V58.558a9.735 9.735 0 0 1 4.862-8.43l18.345-10.603Zm67.211 0a9.714 9.714 0 0 1 9.723 0l18.345 10.603a9.735 9.735 0 0 1 4.862 8.43v21.207a9.735 9.735 0 0 1-4.862 8.43l-18.345 10.603a9.714 9.714 0 0 1-9.723 0l-18.345-10.603a9.735 9.735 0 0 1-4.862-8.43V58.558a9.735 9.735 0 0 1 4.862-8.43l18.345-10.603Zm-436.935 61.61a9.712 9.712 0 0 1 9.723 0l18.345 10.603a9.737 9.737 0 0 1 4.862 8.43v21.207a9.737 9.737 0 0 1-4.862 8.43l-18.345 10.603a9.713 9.713 0 0 1-9.723 0l-18.345-10.603a9.735 9.735 0 0 1-4.862-8.43v-21.207a9.735 9.735 0 0 1 4.862-8.43l18.345-10.603Zm67.338 0a9.712 9.712 0 0 1 9.723 0l18.345 10.603a9.736 9.736 0 0 1 4.861 8.43v21.207a9.736 9.736 0 0 1-4.861 8.43l-18.345 10.603a9.713 9.713 0 0 1-9.723 0l-18.345-10.603a9.735 9.735 0 0 1-4.862-8.43v-21.207a9.735 9.735 0 0 1 4.862-8.43l18.345-10.603Zm67.147 0a9.712 9.712 0 0 1 9.723 0l18.346 10.603a9.736 9.736 0 0 1 4.861 8.43v21.207a9.736 9.736 0 0 1-4.861 8.43l-18.346 10.603a9.713 9.713 0 0 1-9.723 0l-18.345-10.603a9.736 9.736 0 0 1-4.861-8.43v-21.207a9.736 9.736 0 0 1 4.861-8.43l18.345-10.603Zm67.211 0a9.712 9.712 0 0 1 9.723 0l18.346 10.603a9.736 9.736 0 0 1 4.861 8.43v21.207a9.736 9.736 0 0 1-4.861 8.43l-18.346 10.603a9.713 9.713 0 0 1-9.723 0L685.1 149.805a9.736 9.736 0 0 1-4.861-8.43v-21.207a9.736 9.736 0 0 1 4.861-8.43l18.345-10.603Zm67.211 0a9.712 9.712 0 0 1 9.723 0l18.346 10.603a9.736 9.736 0 0 1 4.861 8.43v21.207a9.736 9.736 0 0 1-4.861 8.43l-18.346 10.603a9.713 9.713 0 0 1-9.723 0l-18.345-10.603a9.736 9.736 0 0 1-4.861-8.43v-21.207a9.736 9.736 0 0 1 4.861-8.43l18.345-10.603Zm67.148 0a9.712 9.712 0 0 1 9.723 0l18.345 10.603a9.735 9.735 0 0 1 4.862 8.43v21.207a9.735 9.735 0 0 1-4.862 8.43l-18.345 10.603a9.713 9.713 0 0 1-9.723 0l-18.345-10.603a9.735 9.735 0 0 1-4.862-8.43v-21.207a9.735 9.735 0 0 1 4.862-8.43l18.345-10.603Zm67.211 0a9.712 9.712 0 0 1 9.723 0l18.345 10.603a9.735 9.735 0 0 1 4.862 8.43v21.207a9.735 9.735 0 0 1-4.862 8.43l-18.345 10.603a9.713 9.713 0 0 1-9.723 0l-18.345-10.603a9.735 9.735 0 0 1-4.862-8.43v-21.207a9.735 9.735 0 0 1 4.862-8.43l18.345-10.603Zm-369.597 61.61a9.713 9.713 0 0 1 9.723 0l18.345 10.603a9.738 9.738 0 0 1 4.862 8.43v21.207a9.737 9.737 0 0 1-4.862 8.43l-18.345 10.603a9.713 9.713 0 0 1-9.723 0l-18.345-10.603a9.735 9.735 0 0 1-4.862-8.43v-21.207a9.736 9.736 0 0 1 4.862-8.43l18.345-10.603Zm67.338 0a9.713 9.713 0 0 1 9.723 0l18.345 10.603a9.737 9.737 0 0 1 4.861 8.43v21.207a9.736 9.736 0 0 1-4.861 8.43l-18.345 10.603a9.713 9.713 0 0 1-9.723 0l-18.345-10.603a9.735 9.735 0 0 1-4.862-8.43v-21.207a9.736 9.736 0 0 1 4.862-8.43l18.345-10.603Zm67.147 0a9.713 9.713 0 0 1 9.723 0l18.345 10.603a9.736 9.736 0 0 1 4.862 8.43v21.207a9.735 9.735 0 0 1-4.862 8.43l-18.345 10.603a9.713 9.713 0 0 1-9.723 0l-18.345-10.603a9.736 9.736 0 0 1-4.861-8.43v-21.207a9.737 9.737 0 0 1 4.861-8.43l18.345-10.603Zm67.211 0a9.713 9.713 0 0 1 9.723 0l18.345 10.603a9.736 9.736 0 0 1 4.862 8.43v21.207a9.735 9.735 0 0 1-4.862 8.43l-18.345 10.603a9.713 9.713 0 0 1-9.723 0l-18.345-10.603a9.736 9.736 0 0 1-4.861-8.43v-21.207a9.737 9.737 0 0 1 4.861-8.43l18.345-10.603Zm67.211 0a9.713 9.713 0 0 1 9.723 0l18.346 10.603a9.737 9.737 0 0 1 4.861 8.43v21.207a9.736 9.736 0 0 1-4.861 8.43l-18.346 10.603a9.713 9.713 0 0 1-9.723 0l-18.345-10.603a9.736 9.736 0 0 1-4.861-8.43v-21.207a9.737 9.737 0 0 1 4.861-8.43l18.345-10.603Zm67.148 0a9.713 9.713 0 0 1 9.723 0l18.345 10.603a9.738 9.738 0 0 1 4.862 8.43v21.207a9.737 9.737 0 0 1-4.862 8.43l-18.345 10.603a9.713 9.713 0 0 1-9.723 0l-18.345-10.603a9.735 9.735 0 0 1-4.862-8.43v-21.207a9.736 9.736 0 0 1 4.862-8.43l18.345-10.603Zm67.211 0a9.713 9.713 0 0 1 9.723 0l18.345 10.603a9.736 9.736 0 0 1 4.862 8.43v21.207a9.735 9.735 0 0 1-4.862 8.43l-18.345 10.603a9.713 9.713 0 0 1-9.723 0l-18.345-10.603a9.735 9.735 0 0 1-4.862-8.43v-21.207a9.736 9.736 0 0 1 4.862-8.43l18.345-10.603Z" stroke="#21262F" stroke-width="2" mask="url(#path-2-inside-1_22990_119954)"/><path d="M99.469 112.813a6.062 6.062 0 0 1 6.062 0l11.438 6.604a6.061 6.061 0 0 1 3.031 5.25v13.207a6.061 6.061 0 0 1-3.031 5.25l-11.438 6.604a6.062 6.062 0 0 1-6.062 0l-11.438-6.604a6.062 6.062 0 0 1-3.031-5.25v-13.207a6.062 6.062 0 0 1 3.031-5.25l11.438-6.604Z" fill="#343942"/><path d="M99.469 112.813a6.062 6.062 0 0 1 6.062 0l11.438 6.604a6.061 6.061 0 0 1 3.031 5.25v13.207a6.061 6.061 0 0 1-3.031 5.25l-11.438 6.604a6.062 6.062 0 0 1-6.062 0l-11.438-6.604a6.062 6.062 0 0 1-3.031-5.25v-13.207a6.062 6.062 0 0 1 3.031-5.25l11.438-6.604Zm941.001 0a6.058 6.058 0 0 1 6.06 0l11.44 6.604a6.073 6.073 0 0 1 3.03 5.25v13.207a6.073 6.073 0 0 1-3.03 5.25l-11.44 6.604a6.058 6.058 0 0 1-6.06 0l-11.44-6.604a6.073 6.073 0 0 1-3.03-5.25v-13.207a6.073 6.073 0 0 1 3.03-5.25l11.44-6.604Z" fill="#343942"/><path d="M1040.47 112.813a6.058 6.058 0 0 1 6.06 0l11.44 6.604a6.073 6.073 0 0 1 3.03 5.25v13.207a6.073 6.073 0 0 1-3.03 5.25l-11.44 6.604a6.058 6.058 0 0 1-6.06 0l-11.44-6.604a6.073 6.073 0 0 1-3.03-5.25v-13.207a6.073 6.073 0 0 1 3.03-5.25l11.44-6.604Zm-235.001-62a6.064 6.064 0 0 1 6.063 0l11.437 6.604a6.061 6.061 0 0 1 3.031 5.25v13.207a6.061 6.061 0 0 1-3.031 5.25l-11.437 6.604a6.064 6.064 0 0 1-6.063 0l-11.437-6.604a6.062 6.062 0 0 1-3.032-5.25V62.667a6.062 6.062 0 0 1 3.032-5.25l11.437-6.604Z" fill="#343942"/><path d="M805.469 50.813a6.064 6.064 0 0 1 6.063 0l11.437 6.604a6.061 6.061 0 0 1 3.031 5.25v13.207a6.061 6.061 0 0 1-3.031 5.25l-11.437 6.604a6.064 6.064 0 0 1-6.063 0l-11.437-6.604a6.062 6.062 0 0 1-3.032-5.25V62.667a6.062 6.062 0 0 1 3.032-5.25l11.437-6.604Zm-235-62a6.064 6.064 0 0 1 6.063 0l11.437 6.604A6.061 6.061 0 0 1 591 .667v13.207a6.061 6.061 0 0 1-3.031 5.25l-11.437 6.604a6.064 6.064 0 0 1-6.063 0l-11.437-6.604a6.062 6.062 0 0 1-3.032-5.25V.667a6.062 6.062 0 0 1 3.032-5.25l11.437-6.604Z" fill="#343942"/><path d="M570.469-11.187a6.064 6.064 0 0 1 6.063 0l11.437 6.604A6.061 6.061 0 0 1 591 .667v13.207a6.061 6.061 0 0 1-3.031 5.25l-11.437 6.604a6.064 6.064 0 0 1-6.063 0l-11.437-6.604a6.062 6.062 0 0 1-3.032-5.25V.667a6.062 6.062 0 0 1 3.032-5.25l11.437-6.604Zm-370 62a6.062 6.062 0 0 1 6.062 0l11.438 6.604a6.061 6.061 0 0 1 3.031 5.25v13.207a6.061 6.061 0 0 1-3.031 5.25l-11.438 6.604a6.062 6.062 0 0 1-6.062 0l-11.438-6.604a6.061 6.061 0 0 1-3.031-5.25V62.667a6.061 6.061 0 0 1 3.031-5.25l11.438-6.604Z" fill="#343942"/><path d="M200.469 50.813a6.062 6.062 0 0 1 6.062 0l11.438 6.604a6.061 6.061 0 0 1 3.031 5.25v13.207a6.061 6.061 0 0 1-3.031 5.25l-11.438 6.604a6.062 6.062 0 0 1-6.062 0l-11.438-6.604a6.061 6.061 0 0 1-3.031-5.25V62.667a6.061 6.061 0 0 1 3.031-5.25l11.438-6.604Zm941.001 0a6.058 6.058 0 0 1 6.06 0l11.44 6.604a6.073 6.073 0 0 1 3.03 5.25v13.207a6.073 6.073 0 0 1-3.03 5.25l-11.44 6.604a6.058 6.058 0 0 1-6.06 0l-11.44-6.604a6.073 6.073 0 0 1-3.03-5.25V62.667a6.073 6.073 0 0 1 3.03-5.25l11.44-6.604Z" fill="#343942"/><path d="M1141.47 50.813a6.058 6.058 0 0 1 6.06 0l11.44 6.604a6.073 6.073 0 0 1 3.03 5.25v13.207a6.073 6.073 0 0 1-3.03 5.25l-11.44 6.604a6.058 6.058 0 0 1-6.06 0l-11.44-6.604a6.073 6.073 0 0 1-3.03-5.25V62.667a6.073 6.073 0 0 1 3.03-5.25l11.44-6.604Zm-1109.001-61a6.062 6.062 0 0 1 6.062 0L49.97-3.583A6.062 6.062 0 0 1 53 1.667v13.207a6.062 6.062 0 0 1-3.031 5.25L38.53 26.728a6.062 6.062 0 0 1-6.062 0L21.03 20.124a6.062 6.062 0 0 1-3.03-5.25V1.667a6.062 6.062 0 0 1 3.031-5.25l11.438-6.604Z" fill="#343942"/><path d="M32.469-10.187a6.062 6.062 0 0 1 6.062 0L49.97-3.583A6.062 6.062 0 0 1 53 1.667v13.207a6.062 6.062 0 0 1-3.031 5.25L38.53 26.728a6.062 6.062 0 0 1-6.062 0L21.03 20.124a6.062 6.062 0 0 1-3.03-5.25V1.667a6.062 6.062 0 0 1 3.031-5.25l11.438-6.604Zm941 0a6.064 6.064 0 0 1 6.063 0l11.437 6.604A6.061 6.061 0 0 1 994 1.667v13.207a6.061 6.061 0 0 1-3.031 5.25l-11.437 6.604a6.064 6.064 0 0 1-6.063 0l-11.437-6.604a6.062 6.062 0 0 1-3.032-5.25V1.667a6.062 6.062 0 0 1 3.032-5.25l11.437-6.604Z" fill="#343942"/><path d="M973.469-10.187a6.064 6.064 0 0 1 6.063 0l11.437 6.604A6.061 6.061 0 0 1 994 1.667v13.207a6.061 6.061 0 0 1-3.031 5.25l-11.437 6.604a6.064 6.064 0 0 1-6.063 0l-11.437-6.604a6.062 6.062 0 0 1-3.032-5.25V1.667a6.062 6.062 0 0 1 3.032-5.25l11.437-6.604Zm-672 123a6.061 6.061 0 0 1 6.062 0l11.438 6.604a6.061 6.061 0 0 1 3.031 5.25v13.207a6.061 6.061 0 0 1-3.031 5.25l-11.438 6.604a6.061 6.061 0 0 1-6.062 0l-11.438-6.604a6.061 6.061 0 0 1-3.031-5.25v-13.207a6.061 6.061 0 0 1 3.031-5.25l11.438-6.604Z" fill="#343942"/><path d="M301.469 112.813a6.061 6.061 0 0 1 6.062 0l11.438 6.604a6.061 6.061 0 0 1 3.031 5.25v13.207a6.061 6.061 0 0 1-3.031 5.25l-11.438 6.604a6.061 6.061 0 0 1-6.062 0l-11.438-6.604a6.061 6.061 0 0 1-3.031-5.25v-13.207a6.061 6.061 0 0 1 3.031-5.25l11.438-6.604Zm941.001 0a6.058 6.058 0 0 1 6.06 0l11.44 6.604a6.073 6.073 0 0 1 3.03 5.25v13.207a6.073 6.073 0 0 1-3.03 5.25l-11.44 6.604a6.058 6.058 0 0 1-6.06 0l-11.44-6.604a6.073 6.073 0 0 1-3.03-5.25v-13.207a6.073 6.073 0 0 1 3.03-5.25l11.44-6.604Z" fill="#343942"/><path d="M1242.47 112.813a6.058 6.058 0 0 1 6.06 0l11.44 6.604a6.073 6.073 0 0 1 3.03 5.25v13.207a6.073 6.073 0 0 1-3.03 5.25l-11.44 6.604a6.058 6.058 0 0 1-6.06 0l-11.44-6.604a6.073 6.073 0 0 1-3.03-5.25v-13.207a6.073 6.073 0 0 1 3.03-5.25l11.44-6.604Zm-840.001 60a6.061 6.061 0 0 1 6.062 0l11.438 6.604a6.061 6.061 0 0 1 3.031 5.25v13.207a6.061 6.061 0 0 1-3.031 5.25l-11.438 6.604a6.061 6.061 0 0 1-6.062 0l-11.438-6.604a6.061 6.061 0 0 1-3.031-5.25v-13.207a6.061 6.061 0 0 1 3.031-5.25l11.438-6.604Z" fill="#343942"/><path d="M402.469 172.813a6.061 6.061 0 0 1 6.062 0l11.438 6.604a6.061 6.061 0 0 1 3.031 5.25v13.207a6.061 6.061 0 0 1-3.031 5.25l-11.438 6.604a6.061 6.061 0 0 1-6.062 0l-11.438-6.604a6.061 6.061 0 0 1-3.031-5.25v-13.207a6.061 6.061 0 0 1 3.031-5.25l11.438-6.604Zm941.001 0a6.058 6.058 0 0 1 6.06 0l11.44 6.604a6.073 6.073 0 0 1 3.03 5.25v13.207a6.073 6.073 0 0 1-3.03 5.25l-11.44 6.604a6.058 6.058 0 0 1-6.06 0l-11.44-6.604a6.073 6.073 0 0 1-3.03-5.25v-13.207a6.073 6.073 0 0 1 3.03-5.25l11.44-6.604Z" fill="#343942"/><path d="M1343.47 172.813a6.058 6.058 0 0 1 6.06 0l11.44 6.604a6.073 6.073 0 0 1 3.03 5.25v13.207a6.073 6.073 0 0 1-3.03 5.25l-11.44 6.604a6.058 6.058 0 0 1-6.06 0l-11.44-6.604a6.073 6.073 0 0 1-3.03-5.25v-13.207a6.073 6.073 0 0 1 3.03-5.25l11.44-6.604Zm-1042.001-183a6.062 6.062 0 0 1 6.062 0l11.438 6.604A6.061 6.061 0 0 1 322 1.667v13.207a6.061 6.061 0 0 1-3.031 5.25l-11.438 6.604a6.062 6.062 0 0 1-6.062 0l-11.438-6.604a6.061 6.061 0 0 1-3.031-5.25V1.667a6.061 6.061 0 0 1 3.031-5.25l11.438-6.604Z" fill="#343942"/><path d="M301.469-10.187a6.062 6.062 0 0 1 6.062 0l11.438 6.604A6.061 6.061 0 0 1 322 1.667v13.207a6.061 6.061 0 0 1-3.031 5.25l-11.438 6.604a6.062 6.062 0 0 1-6.062 0l-11.438-6.604a6.061 6.061 0 0 1-3.031-5.25V1.667a6.061 6.061 0 0 1 3.031-5.25l11.438-6.604Zm941.001 0a6.058 6.058 0 0 1 6.06 0l11.44 6.604a6.073 6.073 0 0 1 3.03 5.25v13.207a6.073 6.073 0 0 1-3.03 5.25l-11.44 6.604a6.058 6.058 0 0 1-6.06 0l-11.44-6.604a6.073 6.073 0 0 1-3.03-5.25V1.667a6.073 6.073 0 0 1 3.03-5.25l11.44-6.604Z" fill="#343942"/><path d="M1242.47-10.187a6.058 6.058 0 0 1 6.06 0l11.44 6.604a6.073 6.073 0 0 1 3.03 5.25v13.207a6.073 6.073 0 0 1-3.03 5.25l-11.44 6.604a6.058 6.058 0 0 1-6.06 0l-11.44-6.604a6.073 6.073 0 0 1-3.03-5.25V1.667a6.073 6.073 0 0 1 3.03-5.25l11.44-6.604Zm-605.001 123a6.063 6.063 0 0 1 6.063 0l11.437 6.604a6.061 6.061 0 0 1 3.031 5.25v13.207a6.061 6.061 0 0 1-3.031 5.25l-11.437 6.604a6.063 6.063 0 0 1-6.063 0l-11.437-6.604a6.062 6.062 0 0 1-3.032-5.25v-13.207a6.062 6.062 0 0 1 3.032-5.25l11.437-6.604Z" fill="#343942"/><path d="M637.469 112.813a6.063 6.063 0 0 1 6.063 0l11.437 6.604a6.061 6.061 0 0 1 3.031 5.25v13.207a6.061 6.061 0 0 1-3.031 5.25l-11.437 6.604a6.063 6.063 0 0 1-6.063 0l-11.437-6.604a6.062 6.062 0 0 1-3.032-5.25v-13.207a6.062 6.062 0 0 1 3.032-5.25l11.437-6.604Zm102 60a6.063 6.063 0 0 1 6.063 0l11.437 6.604a6.061 6.061 0 0 1 3.031 5.25v13.207a6.061 6.061 0 0 1-3.031 5.25l-11.437 6.604a6.063 6.063 0 0 1-6.063 0l-11.437-6.604a6.062 6.062 0 0 1-3.032-5.25v-13.207a6.062 6.062 0 0 1 3.032-5.25l11.437-6.604Z" fill="#343942"/><path d="M739.469 172.813a6.063 6.063 0 0 1 6.063 0l11.437 6.604a6.061 6.061 0 0 1 3.031 5.25v13.207a6.061 6.061 0 0 1-3.031 5.25l-11.437 6.604a6.063 6.063 0 0 1-6.063 0l-11.437-6.604a6.062 6.062 0 0 1-3.032-5.25v-13.207a6.062 6.062 0 0 1 3.032-5.25l11.437-6.604Z" fill="#343942"/><defs><filter id="filter0_b_22990_119954" x="-14" y="-14" width="1404" height="228" filterUnits="userSpaceOnUse" color-interpolation-filters="sRGB"><feFlood flood-opacity="0" result="BackgroundImageFix"/><feGaussianBlur in="BackgroundImageFix" stdDeviation="7"/><feComposite in2="SourceAlpha" operator="in" result="effect1_backgroundBlur_22990_119954"/><feBlend mode="normal" in="SourceGraphic" in2="effect1_backgroundBlur_22990_119954" result="shape"/></filter></defs></svg>