<svg width="225" height="428" viewBox="0 0 225 428" fill="none" xmlns="http://www.w3.org/2000/svg"><g filter="url(#filter0_d_26137_144856)"><path d="M35 144h155v234H35V144Z" fill="url(#paint0_linear_26137_144856)"/></g><path d="M100.92 184.31a63.033 63.033 0 0 0 3.36-1.512 51.348 51.348 0 0 0 3.472-1.904 52.713 52.713 0 0 0 3.192-2.184 22.725 22.725 0 0 0 2.8-2.464h5.824v38.808h-8.344V187.11a27.222 27.222 0 0 1-3.752 2.072 55.214 55.214 0 0 1-4.032 1.568l-2.52-6.44Z" fill="white"/><path d="M44.641 132 35 144h155l-9.347-12H44.641ZM99.36 6.561c.456-.561 1.196-.561 1.653 0l5.872 7.228c.457.562.457 1.473 0 2.035l-5.872 7.228c-.457.562-1.197.562-1.653 0l-5.873-7.228c-.457-.562-.457-1.473 0-2.035l5.873-7.228Zm25.638 0c.457-.561 1.197-.561 1.654 0l5.872 7.228c.457.562.457 1.473 0 2.035l-5.872 7.228c-.457.562-1.197.562-1.653 0l-5.873-7.228c-.457-.562-.457-1.473 0-2.035l5.872-7.228Z" fill="#C3B6FF"/><path d="M139 6.615v25.418c0 1.518-1.731 2.475-3.061 1.742-4.523-2.493-13.5-6.645-23.12-6.645-9.538 0-18.27 4.083-22.723 6.582-1.335.749-3.096-.21-3.096-1.74V6.434c0-1.886 2.46-2.608 3.48-1.021l7.926 12.33a1.89 1.89 0 0 0 3.182-.003l9.654-15.094a1.89 1.89 0 0 1 3.176-.014l9.988 15.325a1.89 1.89 0 0 0 3.173-.01l7.942-12.354C136.54 4.007 139 4.73 139 6.615Z" fill="#5060EE"/><circle cx="112.839" cy="19.1784" r="4.16871" fill="#CFD4FF"/><defs><filter id="filter0_d_26137_144856" x="0" y="124" width="225" height="304" filterUnits="userSpaceOnUse" color-interpolation-filters="sRGB"><feFlood flood-opacity="0" result="BackgroundImageFix"/><feColorMatrix in="SourceAlpha" type="matrix" values="0 0 0 0 0 0 0 0 0 0 0 0 0 0 0 0 0 0 127 0" result="hardAlpha"/><feOffset dy="15"/><feGaussianBlur stdDeviation="17.5"/><feColorMatrix type="matrix" values="0 0 0 0 0.129412 0 0 0 0 0.133333 0 0 0 0 0.145098 0 0 0 0.08 0"/><feBlend mode="normal" in2="BackgroundImageFix" result="effect1_dropShadow_26137_144856"/><feBlend mode="normal" in="SourceGraphic" in2="effect1_dropShadow_26137_144856" result="shape"/></filter><linearGradient id="paint0_linear_26137_144856" x1="112.5" y1="144" x2="112.5" y2="378" gradientUnits="userSpaceOnUse"><stop stop-color="#5060EE"/><stop offset="1" stop-color="#A591FF"/></linearGradient></defs></svg>