<svg width="227" height="308" viewBox="0 0 227 308" fill="none" xmlns="http://www.w3.org/2000/svg">
  <g filter="url(#filter0_d_26050_137129)">
    <path d="M35 20H192V267H35V20Z" fill="url(#paint0_linear_26050_137129)" />
  </g>
  <path
    d="M100.92 60.3103C102.003 59.8623 103.123 59.3583 104.28 58.7983C105.475 58.201 106.632 57.5663 107.752 56.8943C108.872 56.185 109.936 55.457 110.944 54.7103C111.989 53.9263 112.923 53.105 113.744 52.2463H119.568V91.0543H111.224V63.1103C110.104 63.857 108.853 64.5477 107.472 65.1823C106.091 65.7797 104.747 66.3023 103.44 66.7503L100.92 60.3103Z"
    fill="white" />
  <g filter="url(#filter1_b_26050_137129)">
    <path
      d="M98.5103 117.27C99.129 117.025 99.7476 116.71 100.366 116.326C100.996 115.942 101.55 115.489 102.03 114.966H103.39V126.054H101.454V117.558C101.166 117.782 100.804 118.001 100.366 118.214C99.929 118.428 99.5076 118.604 99.1023 118.742L98.5103 117.27ZM109.572 124.998C109.572 125.372 109.444 125.676 109.188 125.91C108.943 126.145 108.644 126.262 108.292 126.262C107.929 126.262 107.625 126.145 107.38 125.91C107.135 125.676 107.012 125.372 107.012 124.998C107.012 124.625 107.135 124.321 107.38 124.086C107.625 123.841 107.929 123.718 108.292 123.718C108.644 123.718 108.943 123.841 109.188 124.086C109.444 124.321 109.572 124.625 109.572 124.998ZM116.542 122.886C116.542 122.534 116.473 122.22 116.334 121.942C116.195 121.665 115.95 121.43 115.598 121.238C115.257 121.046 114.793 120.902 114.206 120.806C113.63 120.71 112.899 120.662 112.014 120.662C112.131 119.638 112.222 118.668 112.286 117.75C112.35 116.822 112.403 115.894 112.446 114.966H118.11V116.598H114.094C114.083 116.78 114.067 116.988 114.046 117.222C114.035 117.446 114.019 117.676 113.998 117.91C113.987 118.145 113.971 118.369 113.95 118.582C113.929 118.796 113.907 118.977 113.886 119.126C115.465 119.212 116.627 119.574 117.374 120.214C118.131 120.844 118.51 121.708 118.51 122.806C118.51 123.308 118.425 123.772 118.254 124.198C118.083 124.625 117.822 124.993 117.47 125.302C117.118 125.612 116.675 125.857 116.142 126.038C115.609 126.209 114.985 126.294 114.27 126.294C113.982 126.294 113.689 126.273 113.39 126.23C113.091 126.188 112.803 126.134 112.526 126.07C112.259 126.017 112.019 125.958 111.806 125.894C111.593 125.83 111.433 125.772 111.326 125.718L111.694 124.086C111.918 124.193 112.238 124.31 112.654 124.438C113.081 124.556 113.598 124.614 114.206 124.614C114.622 124.614 114.979 124.572 115.278 124.486C115.577 124.39 115.817 124.262 115.998 124.102C116.19 123.942 116.329 123.761 116.414 123.558C116.499 123.345 116.542 123.121 116.542 122.886ZM127.46 126.054C127.182 125.628 126.862 125.18 126.5 124.71C126.137 124.241 125.753 123.788 125.348 123.35C124.953 122.913 124.542 122.497 124.116 122.102C123.689 121.708 123.268 121.366 122.852 121.078V126.054H120.836V114.966H122.852V119.542C123.204 119.19 123.572 118.817 123.956 118.422C124.34 118.017 124.718 117.612 125.092 117.206C125.476 116.79 125.838 116.39 126.18 116.006C126.521 115.622 126.83 115.276 127.108 114.966H129.524C129.172 115.372 128.798 115.793 128.404 116.23C128.009 116.668 127.604 117.11 127.188 117.558C126.772 117.996 126.35 118.433 125.924 118.87C125.508 119.308 125.097 119.724 124.692 120.118C125.14 120.46 125.593 120.86 126.052 121.318C126.521 121.766 126.98 122.252 127.428 122.774C127.876 123.286 128.302 123.825 128.708 124.39C129.124 124.945 129.502 125.5 129.844 126.054H127.46ZM96.5741 144.054C95.7741 142.326 95.0008 140.518 94.2541 138.63C93.5181 136.742 92.8301 134.854 92.1901 132.966H94.4141C94.6701 133.713 94.9315 134.476 95.1981 135.254C95.4648 136.033 95.7315 136.801 95.9981 137.558C96.2648 138.305 96.5315 139.03 96.7981 139.734C97.0648 140.438 97.3261 141.084 97.5821 141.67C97.8275 141.084 98.0835 140.444 98.3501 139.75C98.6168 139.046 98.8835 138.316 99.1501 137.558C99.4275 136.801 99.6995 136.033 99.9661 135.254C100.233 134.476 100.489 133.713 100.734 132.966H102.894C102.243 134.854 101.55 136.742 100.814 138.63C100.078 140.518 99.3101 142.326 98.5101 144.054H96.5741ZM111.159 139.862C111.159 140.524 111.063 141.126 110.871 141.67C110.679 142.214 110.407 142.678 110.055 143.062C109.703 143.446 109.277 143.745 108.775 143.958C108.285 144.172 107.741 144.278 107.143 144.278C106.546 144.278 106.002 144.172 105.511 143.958C105.021 143.745 104.599 143.446 104.247 143.062C103.895 142.678 103.618 142.214 103.415 141.67C103.223 141.126 103.127 140.524 103.127 139.862C103.127 139.201 103.223 138.604 103.415 138.07C103.618 137.526 103.895 137.062 104.247 136.678C104.61 136.294 105.037 136.001 105.527 135.798C106.018 135.585 106.557 135.478 107.143 135.478C107.73 135.478 108.269 135.585 108.759 135.798C109.261 136.001 109.687 136.294 110.039 136.678C110.391 137.062 110.663 137.526 110.855 138.07C111.058 138.604 111.159 139.201 111.159 139.862ZM109.175 139.862C109.175 139.03 108.994 138.374 108.631 137.894C108.279 137.404 107.783 137.158 107.143 137.158C106.503 137.158 106.002 137.404 105.639 137.894C105.287 138.374 105.111 139.03 105.111 139.862C105.111 140.705 105.287 141.372 105.639 141.862C106.002 142.353 106.503 142.598 107.143 142.598C107.783 142.598 108.279 142.353 108.631 141.862C108.994 141.372 109.175 140.705 109.175 139.862ZM113.058 133.478L114.994 133.158V135.686H117.97V137.302H114.994V140.71C114.994 141.382 115.101 141.862 115.314 142.15C115.527 142.438 115.89 142.582 116.402 142.582C116.754 142.582 117.063 142.545 117.33 142.47C117.607 142.396 117.826 142.326 117.986 142.262L118.306 143.798C118.082 143.894 117.789 143.99 117.426 144.086C117.063 144.193 116.637 144.246 116.146 144.246C115.549 144.246 115.047 144.166 114.642 144.006C114.247 143.846 113.933 143.617 113.698 143.318C113.463 143.009 113.298 142.641 113.202 142.214C113.106 141.777 113.058 141.281 113.058 140.726V133.478ZM119.237 139.91C119.237 139.174 119.343 138.529 119.557 137.974C119.781 137.42 120.074 136.961 120.437 136.598C120.799 136.225 121.215 135.948 121.685 135.766C122.154 135.574 122.634 135.478 123.125 135.478C124.277 135.478 125.173 135.836 125.813 136.55C126.463 137.265 126.789 138.332 126.789 139.75C126.789 139.857 126.783 139.98 126.773 140.118C126.773 140.246 126.767 140.364 126.757 140.47H121.237C121.29 141.142 121.525 141.665 121.941 142.038C122.367 142.401 122.981 142.582 123.781 142.582C124.25 142.582 124.677 142.54 125.061 142.454C125.455 142.369 125.765 142.278 125.989 142.182L126.245 143.766C126.138 143.82 125.989 143.878 125.797 143.942C125.615 143.996 125.402 144.044 125.157 144.086C124.922 144.14 124.666 144.182 124.389 144.214C124.111 144.246 123.829 144.262 123.541 144.262C122.805 144.262 122.165 144.156 121.621 143.942C121.077 143.718 120.629 143.414 120.277 143.03C119.925 142.636 119.663 142.177 119.493 141.654C119.322 141.121 119.237 140.54 119.237 139.91ZM124.853 139.046C124.853 138.78 124.815 138.529 124.741 138.294C124.666 138.049 124.554 137.841 124.405 137.67C124.266 137.489 124.09 137.35 123.877 137.254C123.674 137.148 123.429 137.094 123.141 137.094C122.842 137.094 122.581 137.153 122.357 137.27C122.133 137.377 121.941 137.521 121.781 137.702C121.631 137.884 121.514 138.092 121.429 138.326C121.343 138.561 121.285 138.801 121.253 139.046H124.853ZM130.937 142.662C131.449 142.662 131.823 142.604 132.057 142.486C132.292 142.358 132.409 142.145 132.409 141.846C132.409 141.569 132.281 141.34 132.025 141.158C131.78 140.977 131.369 140.78 130.793 140.566C130.441 140.438 130.116 140.305 129.817 140.166C129.529 140.017 129.279 139.846 129.065 139.654C128.852 139.462 128.681 139.233 128.553 138.966C128.436 138.689 128.377 138.353 128.377 137.958C128.377 137.19 128.66 136.588 129.225 136.15C129.791 135.702 130.559 135.478 131.529 135.478C132.02 135.478 132.489 135.526 132.937 135.622C133.385 135.708 133.721 135.793 133.945 135.878L133.593 137.446C133.38 137.35 133.108 137.265 132.777 137.19C132.447 137.105 132.063 137.062 131.625 137.062C131.231 137.062 130.911 137.132 130.665 137.27C130.42 137.398 130.297 137.601 130.297 137.878C130.297 138.017 130.319 138.14 130.361 138.246C130.415 138.353 130.5 138.454 130.617 138.55C130.735 138.636 130.889 138.726 131.081 138.822C131.273 138.908 131.508 138.998 131.785 139.094C132.244 139.265 132.633 139.436 132.953 139.606C133.273 139.766 133.535 139.953 133.737 140.166C133.951 140.369 134.105 140.604 134.201 140.87C134.297 141.137 134.345 141.457 134.345 141.83C134.345 142.63 134.047 143.238 133.449 143.654C132.863 144.06 132.02 144.262 130.921 144.262C130.185 144.262 129.593 144.198 129.145 144.07C128.697 143.953 128.383 143.857 128.201 143.782L128.537 142.166C128.825 142.284 129.167 142.396 129.561 142.502C129.967 142.609 130.425 142.662 130.937 142.662Z"
      fill="white" />
  </g>
  <path d="M44.7655 8L35 20H192L182.533 8H44.7655Z" fill="#6371FF" />
  <defs>
    <filter id="filter0_d_26050_137129" x="0" y="0" width="227" height="317" filterUnits="userSpaceOnUse"
      color-interpolation-filters="sRGB">
      <feFlood flood-opacity="0" result="BackgroundImageFix" />
      <feColorMatrix in="SourceAlpha" type="matrix" values="0 0 0 0 0 0 0 0 0 0 0 0 0 0 0 0 0 0 127 0"
        result="hardAlpha" />
      <feOffset dy="15" />
      <feGaussianBlur stdDeviation="17.5" />
      <feColorMatrix type="matrix" values="0 0 0 0 0.129412 0 0 0 0 0.133333 0 0 0 0 0.145098 0 0 0 0.08 0" />
      <feBlend mode="normal" in2="BackgroundImageFix" result="effect1_dropShadow_26050_137129" />
      <feBlend mode="normal" in="SourceGraphic" in2="effect1_dropShadow_26050_137129" result="shape" />
    </filter>
    <filter id="filter1_b_26050_137129" x="78.1899" y="100.966" width="70.1553" height="57.312"
      filterUnits="userSpaceOnUse" color-interpolation-filters="sRGB">
      <feFlood flood-opacity="0" result="BackgroundImageFix" />
      <feGaussianBlur in="BackgroundImageFix" stdDeviation="7" />
      <feComposite in2="SourceAlpha" operator="in" result="effect1_backgroundBlur_26050_137129" />
      <feBlend mode="normal" in="SourceGraphic" in2="effect1_backgroundBlur_26050_137129" result="shape" />
    </filter>
    <linearGradient id="paint0_linear_26050_137129" x1="113.5" y1="20" x2="113.5" y2="267"
      gradientUnits="userSpaceOnUse">
      <stop stop-color="#3547E9" />
      <stop offset="1" stop-color="#2E0DBE" />
    </linearGradient>
  </defs>
</svg>