<?xml version="1.0" encoding="UTF-8" standalone="no"?>
<!DOCTYPE svg PUBLIC "-//W3C//DTD SVG 1.1//EN" "http://www.w3.org/Graphics/SVG/1.1/DTD/svg11.dtd"><svg width="238"
  height="548" viewBox="0 0 238 548" version="1.1" xmlns="http://www.w3.org/2000/svg"
  xmlns:xlink="http://www.w3.org/1999/xlink" xml:space="preserve" xmlns:serif="http://www.serif.com/"
  style="fill-rule:evenodd;clip-rule:evenodd;stroke-linejoin:round;stroke-miterlimit:2;">
  <g>
    <rect x="0" y="205.147" width="238" height="342" style="fill:url(#_Linear1);fill-rule:nonzero;" />
  </g>
  <path
    d="M103.04,263.619c1.392,-0.576 2.832,-1.224 4.32,-1.944c1.536,-0.768 3.024,-1.584 4.464,-2.448c1.44,-0.912 2.808,-1.848 4.104,-2.808c1.344,-1.008 2.544,-2.064 3.6,-3.168l7.488,-0l-0,49.896l-10.728,-0l0,-35.928c-1.44,0.96 -3.048,1.848 -4.824,2.664c-1.776,0.768 -3.504,1.44 -5.184,2.016l-3.24,-8.28Z"
    style="fill:#fff;fill-rule:nonzero;" />
  <path d="M14.804,188.147l-14.804,17l238,-0l-15.943,-17l-207.253,-0Z" style="fill:#6371ff;fill-rule:nonzero;" />
  <path
    d="M99.741,7.564c0.655,-0.806 1.717,-0.806 2.372,0l8.429,10.374c0.656,0.807 0.656,2.114 0,2.921l-8.429,10.374c-0.655,0.806 -1.717,0.806 -2.372,-0l-8.429,-10.374c-0.655,-0.807 -0.655,-2.114 0,-2.921l8.429,-10.374Z"
    style="fill:#2735c2;fill-rule:nonzero;" />
  <path
    d="M136.54,7.564c0.655,-0.806 1.717,-0.806 2.373,0l8.429,10.374c0.655,0.807 0.655,2.114 0,2.921l-8.429,10.374c-0.656,0.806 -1.718,0.806 -2.373,-0l-8.429,-10.374c-0.655,-0.807 -0.655,-2.114 0,-2.921l8.429,-10.374Z"
    style="fill:#2735c2;fill-rule:nonzero;" />
  <path
    d="M156.635,4.84l0,40.84c0,1.518 -1.728,2.464 -3.044,1.705c-5.915,-3.412 -19.691,-10.298 -34.533,-10.298c-14.748,-0 -28.154,6.799 -33.984,10.233c-1.319,0.777 -3.074,-0.171 -3.074,-1.701l0,-41.038c0,-1.886 2.46,-2.608 3.479,-1.022l13.586,21.133c0.745,1.159 2.439,1.157 3.182,-0.003l15.234,-23.817c0.74,-1.157 2.426,-1.164 3.175,-0.014l15.726,24.127c0.748,1.148 2.432,1.143 3.173,-0.01l13.6,-21.157c1.02,-1.586 3.48,-0.864 3.48,1.022Z"
    style="fill:#5060ee;fill-rule:nonzero;" />
  <circle cx="119.089" cy="25.673" r="5.983" style="fill:#2735c2;" />
  <defs>
    <linearGradient id="_Linear1" x1="0" y1="0" x2="1" y2="0" gradientUnits="userSpaceOnUse"
      gradientTransform="matrix(2.09415e-14,342,-342,2.09415e-14,119,205.147)">
      <stop offset="0" style="stop-color:#3547e9;stop-opacity:1" />
      <stop offset="1" style="stop-color:#2e0dbe;stop-opacity:1" />
    </linearGradient>
  </defs>
</svg>