<?xml version="1.0" encoding="UTF-8" standalone="no"?><!DOCTYPE svg PUBLIC "-//W3C//DTD SVG 1.1//EN" "http://www.w3.org/Graphics/SVG/1.1/DTD/svg11.dtd"><svg width="100%" height="100%" viewBox="0 0 155 377" version="1.1" xmlns="http://www.w3.org/2000/svg" xmlns:xlink="http://www.w3.org/1999/xlink" xml:space="preserve" xmlns:serif="http://www.serif.com/" style="fill-rule:evenodd;clip-rule:evenodd;stroke-linejoin:round;stroke-miterlimit:2;"><g><rect x="0" y="142.226" width="155" height="234" style="fill:url(#_Linear1);fill-rule:nonzero;"/></g><path d="M65.92,182.536c1.134,-0.471 2.255,-0.975 3.36,-1.512c1.181,-0.59 2.34,-1.225 3.472,-1.904c1.09,-0.689 2.155,-1.417 3.192,-2.184c0.999,-0.743 1.936,-1.567 2.8,-2.464l5.824,0l0,38.808l-8.344,0l0,-27.944c-1.194,0.788 -2.449,1.481 -3.752,2.072c-1.323,0.575 -2.668,1.098 -4.032,1.568l-2.52,-6.44Z" style="fill:#fff;fill-rule:nonzero;"/><path d="M9.641,130.226l-9.641,12l155,0l-9.347,-12l-136.012,0Zm54.719,-125.439c0.456,-0.561 1.196,-0.561 1.653,0l5.872,7.228c0.457,0.562 0.457,1.473 0,2.035l-5.872,7.228c-0.457,0.562 -1.197,0.562 -1.653,0l-5.873,-7.228c-0.457,-0.562 -0.457,-1.473 0,-2.035l5.873,-7.228Zm25.638,0c0.457,-0.561 1.197,-0.561 1.654,0l5.872,7.228c0.457,0.562 0.457,1.473 0,2.035l-5.872,7.228c-0.457,0.562 -1.197,0.562 -1.653,0l-5.873,-7.228c-0.457,-0.562 -0.457,-1.473 0,-2.035l5.872,-7.228Z" style="fill:#c3b6ff;fill-rule:nonzero;"/><path d="M104,4.841l0,25.418c0,1.518 -1.731,2.475 -3.061,1.742c-4.523,-2.493 -13.5,-6.645 -23.12,-6.645c-9.538,0 -18.27,4.083 -22.723,6.582c-1.335,0.749 -3.096,-0.21 -3.096,-1.74l0,-25.538c0,-1.886 2.46,-2.608 3.48,-1.021l7.926,12.33c0.347,0.541 0.947,0.868 1.59,0.868c0.644,0 1.245,-0.329 1.592,-0.871l9.654,-15.094c0.347,-0.543 0.948,-0.872 1.593,-0.872c0.638,0 1.235,0.323 1.583,0.858l9.988,15.325c0.349,0.535 0.945,0.858 1.583,0.858c0.643,-0 1.243,-0.328 1.59,-0.868l7.942,-12.354c1.019,-1.586 3.479,-0.863 3.479,1.022Z" style="fill:#5060ee;fill-rule:nonzero;"/><circle cx="77.839" cy="17.405" r="4.169" style="fill:#cfd4ff;"/><defs><linearGradient id="_Linear1" x1="0" y1="0" x2="1" y2="0" gradientUnits="userSpaceOnUse" gradientTransform="matrix(1.43284e-14,234,-234,1.43284e-14,77.5,142.226)"><stop offset="0" style="stop-color:#5060ee;stop-opacity:1"/><stop offset="1" style="stop-color:#a591ff;stop-opacity:1"/></linearGradient></defs></svg>