<?xml version="1.0" encoding="UTF-8" standalone="no"?><!DOCTYPE svg PUBLIC "-//W3C//DTD SVG 1.1//EN" "http://www.w3.org/Graphics/SVG/1.1/DTD/svg11.dtd"><svg width="238" height="548" viewBox="0 0 238 548" version="1.1" xmlns="http://www.w3.org/2000/svg" xmlns:xlink="http://www.w3.org/1999/xlink" xml:space="preserve" xmlns:serif="http://www.serif.com/" fill-rule="evenodd" clip-rule="evenodd" stroke-linejoin="round" stroke-miterlimit="2"><g><rect x="0" y="205.147" width="238" height="342" fill="url(#_Linear1)" fill-rule="nonzero"/></g><path d="M103.04 263.619a81.353 81.353 0 0 0 4.32-1.944 66.314 66.314 0 0 0 4.464-2.448 68.17 68.17 0 0 0 4.104-2.808 29.253 29.253 0 0 0 3.6-3.168h7.488v49.896h-10.728v-35.928c-1.44.96-3.048 1.848-4.824 2.664a71.536 71.536 0 0 1-5.184 2.016l-3.24-8.28Z" fill="#fff" fill-rule="nonzero"/><path d="M14.804 188.147 0 205.147h238l-15.943-17H14.804Z" fill="#6371ff" fill-rule="nonzero"/><path d="M99.741 7.564c.655-.806 1.717-.806 2.372 0l8.429 10.374c.656.807.656 2.114 0 2.921l-8.429 10.374c-.655.806-1.717.806-2.372 0l-8.429-10.374c-.655-.807-.655-2.114 0-2.921l8.429-10.374ZM136.54 7.564c.655-.806 1.717-.806 2.373 0l8.429 10.374c.655.807.655 2.114 0 2.921l-8.429 10.374c-.656.806-1.718.806-2.373 0l-8.429-10.374c-.655-.807-.655-2.114 0-2.921l8.429-10.374Z" fill="#2735c2" fill-rule="nonzero"/><path d="M156.635 4.84v40.84c0 1.518-1.728 2.464-3.044 1.705-5.915-3.412-19.691-10.298-34.533-10.298-14.748 0-28.154 6.799-33.984 10.233-1.319.777-3.074-.171-3.074-1.701V4.581c0-1.886 2.46-2.608 3.479-1.022l13.586 21.133a1.89 1.89 0 0 0 3.182-.003L117.481.872a1.89 1.89 0 0 1 3.175-.014l15.726 24.127a1.89 1.89 0 0 0 3.173-.01l13.6-21.157c1.02-1.586 3.48-.864 3.48 1.022Z" fill="#5060ee" fill-rule="nonzero"/><circle cx="119.089" cy="25.673" r="5.983" fill="#2735c2"/><defs><linearGradient id="_Linear1" x1="0" y1="0" x2="1" y2="0" gradientUnits="userSpaceOnUse" gradientTransform="matrix(2.09415e-14,342,-342,2.09415e-14,119,205.147)"><stop offset="0" stop-color="#3547e9" stop-opacity="1"/><stop offset="1" stop-color="#2e0dbe" stop-opacity="1"/></linearGradient></defs></svg>