<?xml version="1.0" encoding="UTF-8" standalone="no"?>
<!DOCTYPE svg PUBLIC "-//W3C//DTD SVG 1.1//EN" "http://www.w3.org/Graphics/SVG/1.1/DTD/svg11.dtd"><svg width="239"
  height="547" viewBox="0 0 239 547" version="1.1" xmlns="http://www.w3.org/2000/svg"
  xmlns:xlink="http://www.w3.org/1999/xlink" xml:space="preserve" xmlns:serif="http://www.serif.com/"
  style="fill-rule:evenodd;clip-rule:evenodd;stroke-linejoin:round;stroke-miterlimit:2;">
  <g>
    <rect x="1" y="204.453" width="238" height="342" style="fill:url(#_Linear1);fill-rule:nonzero;" />
  </g>
  <path
    d="M105.04,262.925c1.392,-0.576 2.832,-1.224 4.32,-1.944c1.536,-0.768 3.024,-1.584 4.464,-2.448c1.44,-0.912 2.808,-1.848 4.104,-2.808c1.344,-1.008 2.544,-2.064 3.6,-3.168l7.488,-0l-0,49.896l-10.728,-0l-0,-35.928c-1.44,0.96 -3.048,1.848 -4.824,2.664c-1.776,0.768 -3.504,1.44 -5.184,2.016l-3.24,-8.28Z"
    style="fill:#fff;fill-rule:nonzero;" />
  <path d="M14.866,187.453l-14.866,17l239,-0l-16.01,-17l-208.124,-0Z" style="fill:#c3b6ff;fill-rule:nonzero;" />
  <path
    d="M100.249,6.87c0.655,-0.806 1.717,-0.806 2.372,0l8.429,10.374c0.656,0.807 0.656,2.114 0,2.921l-8.429,10.374c-0.655,0.806 -1.717,0.806 -2.372,-0l-8.429,-10.374c-0.656,-0.807 -0.656,-2.114 0,-2.921l8.429,-10.374Z"
    style="fill:#c3b6ff;fill-rule:nonzero;" />
  <path
    d="M137.048,6.87c0.655,-0.806 1.717,-0.806 2.372,0l8.429,10.374c0.656,0.807 0.656,2.114 -0,2.921l-8.429,10.374c-0.655,0.806 -1.717,0.806 -2.372,-0l-8.429,-10.374c-0.656,-0.807 -0.656,-2.114 0,-2.921l8.429,-10.374Z"
    style="fill:#c3b6ff;fill-rule:nonzero;" />
  <path
    d="M157.143,6.947l0,36.482c0,2.18 -2.485,3.553 -4.394,2.501c-6.492,-3.578 -19.377,-9.537 -33.183,-9.537c-13.69,-0 -26.224,5.859 -32.615,9.446c-1.915,1.075 -4.443,-0.3 -4.443,-2.496l0,-36.655c0,-2.707 3.53,-3.744 4.994,-1.467l11.377,17.698c1.069,1.664 3.501,1.661 4.567,-0.005l13.857,-21.663c1.061,-1.659 3.481,-1.67 4.557,-0.02l14.336,21.995c1.074,1.648 3.49,1.641 4.554,-0.014l11.399,-17.731c1.463,-2.278 4.994,-1.241 4.994,1.466Z"
    style="fill:#5060ee;fill-rule:nonzero;" />
  <circle cx="119.597" cy="24.979" r="5.983" style="fill:#cfd4ff;" />
  <defs>
    <linearGradient id="_Linear1" x1="0" y1="0" x2="1" y2="0" gradientUnits="userSpaceOnUse"
      gradientTransform="matrix(2.09415e-14,342,-342,2.09415e-14,120,204.453)">
      <stop offset="0" style="stop-color:#5060ee;stop-opacity:1" />
      <stop offset="1" style="stop-color:#a591ff;stop-opacity:1" />
    </linearGradient>
  </defs>
</svg>