<?xml version="1.0" encoding="UTF-8" standalone="no"?><!DOCTYPE svg PUBLIC "-//W3C//DTD SVG 1.1//EN" "http://www.w3.org/Graphics/SVG/1.1/DTD/svg11.dtd"><svg width="239" height="547" viewBox="0 0 239 547" version="1.1" xmlns="http://www.w3.org/2000/svg" xmlns:xlink="http://www.w3.org/1999/xlink" xml:space="preserve" xmlns:serif="http://www.serif.com/" fill-rule="evenodd" clip-rule="evenodd" stroke-linejoin="round" stroke-miterlimit="2"><g><rect x="1" y="204.453" width="238" height="342" fill="url(#_Linear1)" fill-rule="nonzero"/></g><path d="M105.04 262.925a81.353 81.353 0 0 0 4.32-1.944 66.314 66.314 0 0 0 4.464-2.448 68.17 68.17 0 0 0 4.104-2.808 29.253 29.253 0 0 0 3.6-3.168h7.488v49.896h-10.728v-35.928c-1.44.96-3.048 1.848-4.824 2.664a71.536 71.536 0 0 1-5.184 2.016l-3.24-8.28Z" fill="#fff" fill-rule="nonzero"/><path d="M14.866 187.453 0 204.453h239l-16.01-17H14.866ZM100.249 6.87c.655-.806 1.717-.806 2.372 0l8.429 10.374c.656.807.656 2.114 0 2.921l-8.429 10.374c-.655.806-1.717.806-2.372 0L91.82 20.165c-.656-.807-.656-2.114 0-2.921l8.429-10.374Zm36.799 0c.655-.806 1.717-.806 2.372 0l8.429 10.374c.656.807.656 2.114 0 2.921l-8.429 10.374c-.655.806-1.717.806-2.372 0l-8.429-10.374c-.656-.807-.656-2.114 0-2.921l8.429-10.374Z" fill="#c3b6ff" fill-rule="nonzero"/><path d="M157.143 6.947v36.482c0 2.18-2.485 3.553-4.394 2.501-6.492-3.578-19.377-9.537-33.183-9.537-13.69 0-26.224 5.859-32.615 9.446-1.915 1.075-4.443-.3-4.443-2.496V6.688c0-2.707 3.53-3.744 4.994-1.467l11.377 17.698c1.069 1.664 3.501 1.661 4.567-.005l13.857-21.663c1.061-1.659 3.481-1.67 4.557-.02l14.336 21.995c1.074 1.648 3.49 1.641 4.554-.014l11.399-17.731c1.463-2.278 4.994-1.241 4.994 1.466Z" fill="#5060ee" fill-rule="nonzero"/><circle cx="119.597" cy="24.979" r="5.983" fill="#cfd4ff"/><defs><linearGradient id="_Linear1" x1="0" y1="0" x2="1" y2="0" gradientUnits="userSpaceOnUse" gradientTransform="matrix(2.09415e-14,342,-342,2.09415e-14,120,204.453)"><stop offset="0" stop-color="#5060ee" stop-opacity="1"/><stop offset="1" stop-color="#a591ff" stop-opacity="1"/></linearGradient></defs></svg>