<svg width="419" height="428" viewBox="0 0 419 428" fill="none" xmlns="http://www.w3.org/2000/svg"><g filter="url(#filter0_d_26137_145037)"><path d="M32 195h121v183H32V195Z" fill="#3443E4"/><path d="M98.276 238.438c0 1.419-.28 2.782-.84 4.088a19.593 19.593 0 0 1-2.184 3.808 32.423 32.423 0 0 1-3.024 3.472 128.743 128.743 0 0 1-3.304 3.192c-.56.523-1.176 1.12-1.848 1.792a46.002 46.002 0 0 0-1.848 1.96 57.047 57.047 0 0 0-1.624 1.904c-.448.56-.728 1.027-.84 1.4h16.688v7H73.58c-.075-.41-.112-.933-.112-1.568v-1.344c0-1.792.28-3.434.84-4.928a18.686 18.686 0 0 1 2.296-4.144 26.487 26.487 0 0 1 3.136-3.64c1.195-1.12 2.37-2.24 3.528-3.36.896-.858 1.736-1.661 2.52-2.408a35.698 35.698 0 0 0 2.072-2.24c.597-.746 1.064-1.474 1.4-2.184a5.415 5.415 0 0 0 .504-2.24c0-1.642-.467-2.8-1.4-3.472-.933-.672-2.09-1.008-3.472-1.008-1.008 0-1.96.168-2.856.504-.859.299-1.661.672-2.408 1.12-.71.411-1.325.84-1.848 1.288a13.94 13.94 0 0 0-1.176 1.008l-4.144-5.824c1.643-1.53 3.547-2.781 5.712-3.752 2.203-1.008 4.555-1.512 7.056-1.512 2.277 0 4.237.262 5.88.784 1.643.523 2.987 1.27 4.032 2.24a8.005 8.005 0 0 1 2.352 3.472c.523 1.344.784 2.875.784 4.592Z" fill="white"/><path d="M39.526 183 32 195h121l-8.105-12H39.526Z" fill="#6371FF"/></g><g filter="url(#filter1_d_26137_145037)"><path d="M267 222h120v156H267V222Z" fill="#3443E4"/><path d="M326.268 292.894c-1.008 0-2.072-.074-3.192-.224a29.493 29.493 0 0 1-3.248-.504 34.935 34.935 0 0 1-2.856-.728c-.859-.261-1.531-.504-2.016-.728l1.624-6.944c.971.411 2.203.859 3.696 1.344 1.531.448 3.416.672 5.656.672 2.576 0 4.461-.485 5.656-1.456 1.195-.97 1.792-2.277 1.792-3.92 0-1.008-.224-1.848-.672-2.52a4.428 4.428 0 0 0-1.736-1.68c-.747-.448-1.643-.746-2.688-.896a17.903 17.903 0 0 0-3.248-.28h-3.248v-6.72h3.696c.821 0 1.605-.074 2.352-.224.784-.149 1.475-.392 2.072-.728a4.017 4.017 0 0 0 1.4-1.456c.373-.634.56-1.418.56-2.352 0-.709-.149-1.325-.448-1.848a3.908 3.908 0 0 0-1.176-1.288c-.448-.336-.989-.578-1.624-.728a6.178 6.178 0 0 0-1.848-.28c-1.605 0-3.099.243-4.48.728a18.897 18.897 0 0 0-3.696 1.792l-2.968-6.104a31.837 31.837 0 0 1 2.072-1.176c.821-.41 1.717-.784 2.688-1.12a24.721 24.721 0 0 1 3.08-.84 17.958 17.958 0 0 1 3.528-.336c2.277 0 4.237.28 5.88.84 1.68.523 3.061 1.288 4.144 2.296a8.972 8.972 0 0 1 2.408 3.472c.523 1.307.784 2.744.784 4.312 0 1.531-.429 3.024-1.288 4.48a8.547 8.547 0 0 1-3.472 3.248c2.016.822 3.565 2.054 4.648 3.696 1.12 1.606 1.68 3.547 1.68 5.824 0 1.792-.299 3.454-.896 4.984-.597 1.494-1.531 2.8-2.8 3.92-1.269 1.083-2.893 1.942-4.872 2.576-1.941.598-4.256.896-6.944.896Z" fill="white"/><path d="m274.964 210.054-7.464 12h120l-8.038-12H274.964Z" fill="#6371FF"/></g><g filter="url(#filter2_d_26137_145037)"><path d="M145 144h130v234H145V144Z" fill="url(#paint0_linear_26137_145037)"/></g><path d="M197.42 184.31a63.033 63.033 0 0 0 3.36-1.512 51.348 51.348 0 0 0 3.472-1.904 52.713 52.713 0 0 0 3.192-2.184 22.725 22.725 0 0 0 2.8-2.464h5.824v38.808h-8.344V187.11a27.222 27.222 0 0 1-3.752 2.072 55.214 55.214 0 0 1-4.032 1.568l-2.52-6.44Z" fill="white"/><path d="m152.586 132.054-8.086 12h130l-8.708-12H152.586Z" fill="#6371FF"/><path d="M195.86 6.562c.456-.562 1.196-.562 1.653 0l5.872 7.228c.457.561.457 1.472 0 2.034l-5.872 7.228c-.457.562-1.197.562-1.653 0l-5.873-7.228c-.457-.562-.457-1.473 0-2.034l5.873-7.228ZM221.498 6.562c.457-.562 1.197-.562 1.654 0l5.872 7.228c.457.561.457 1.472 0 2.034l-5.872 7.228c-.457.562-1.197.562-1.653 0l-5.873-7.228c-.457-.562-.457-1.473 0-2.034l5.872-7.228Z" fill="#2735C2"/><path d="M235.5 6.615v25.418c0 1.518-1.731 2.475-3.061 1.742-4.523-2.493-13.5-6.645-23.12-6.645-9.538 0-18.271 4.083-22.723 6.582-1.335.749-3.096-.21-3.096-1.74V6.434c0-1.886 2.46-2.608 3.479-1.021l7.927 12.33a1.89 1.89 0 0 0 3.182-.003l9.654-15.094a1.89 1.89 0 0 1 3.176-.014l9.988 15.325a1.89 1.89 0 0 0 3.173-.01l7.942-12.354c1.019-1.586 3.479-.864 3.479 1.022Z" fill="#5060EE"/><circle cx="209.339" cy="19.1785" r="4.16871" fill="#2735C2"/><defs><filter id="filter0_d_26137_145037" x="-3" y="163" width="191" height="265" filterUnits="userSpaceOnUse" color-interpolation-filters="sRGB"><feFlood flood-opacity="0" result="BackgroundImageFix"/><feColorMatrix in="SourceAlpha" type="matrix" values="0 0 0 0 0 0 0 0 0 0 0 0 0 0 0 0 0 0 127 0" result="hardAlpha"/><feOffset dy="15"/><feGaussianBlur stdDeviation="17.5"/><feColorMatrix type="matrix" values="0 0 0 0 0.129412 0 0 0 0 0.133333 0 0 0 0 0.145098 0 0 0 0.08 0"/><feBlend mode="normal" in2="BackgroundImageFix" result="effect1_dropShadow_26137_145037"/><feBlend mode="normal" in="SourceGraphic" in2="effect1_dropShadow_26137_145037" result="shape"/></filter><filter id="filter1_d_26137_145037" x="232" y="190.054" width="190.5" height="237.946" filterUnits="userSpaceOnUse" color-interpolation-filters="sRGB"><feFlood flood-opacity="0" result="BackgroundImageFix"/><feColorMatrix in="SourceAlpha" type="matrix" values="0 0 0 0 0 0 0 0 0 0 0 0 0 0 0 0 0 0 127 0" result="hardAlpha"/><feOffset dy="15"/><feGaussianBlur stdDeviation="17.5"/><feColorMatrix type="matrix" values="0 0 0 0 0.129412 0 0 0 0 0.133333 0 0 0 0 0.145098 0 0 0 0.08 0"/><feBlend mode="normal" in2="BackgroundImageFix" result="effect1_dropShadow_26137_145037"/><feBlend mode="normal" in="SourceGraphic" in2="effect1_dropShadow_26137_145037" result="shape"/></filter><filter id="filter2_d_26137_145037" x="110" y="124" width="200" height="304" filterUnits="userSpaceOnUse" color-interpolation-filters="sRGB"><feFlood flood-opacity="0" result="BackgroundImageFix"/><feColorMatrix in="SourceAlpha" type="matrix" values="0 0 0 0 0 0 0 0 0 0 0 0 0 0 0 0 0 0 127 0" result="hardAlpha"/><feOffset dy="15"/><feGaussianBlur stdDeviation="17.5"/><feColorMatrix type="matrix" values="0 0 0 0 0.129412 0 0 0 0 0.133333 0 0 0 0 0.145098 0 0 0 0.08 0"/><feBlend mode="normal" in2="BackgroundImageFix" result="effect1_dropShadow_26137_145037"/><feBlend mode="normal" in="SourceGraphic" in2="effect1_dropShadow_26137_145037" result="shape"/></filter><linearGradient id="paint0_linear_26137_145037" x1="210" y1="144" x2="210" y2="378" gradientUnits="userSpaceOnUse"><stop stop-color="#3547E9"/><stop offset="1" stop-color="#2E0DBE"/></linearGradient></defs></svg>