<svg width="201" height="308" viewBox="0 0 201 308" fill="none" xmlns="http://www.w3.org/2000/svg">
  <g filter="url(#filter0_d_23916_80567)">
    <path d="M35.5 20H165.5V267H35.5V20Z" fill="url(#paint0_linear_23916_80567)" />
  </g>
  <path
    d="M88.42 60.3102C89.5027 59.8622 90.6227 59.3582 91.78 58.7982C92.9747 58.2009 94.132 57.5662 95.252 56.8942C96.372 56.1849 97.436 55.4569 98.444 54.7102C99.4893 53.9262 100.423 53.1049 101.244 52.2462H107.068V91.0542H98.724V63.1102C97.604 63.8569 96.3533 64.5475 94.972 65.1822C93.5907 65.7795 92.2467 66.3022 90.94 66.7502L88.42 60.3102Z"
    fill="white" />
  <g filter="url(#filter1_b_23916_80567)">
    <path
      d="M86.0103 117.27C86.629 117.025 87.2476 116.71 87.8663 116.326C88.4956 115.942 89.0503 115.489 89.5303 114.966H90.8903V126.054H88.9543V117.558C88.6663 117.782 88.3036 118.001 87.8663 118.214C87.429 118.428 87.0076 118.604 86.6023 118.742L86.0103 117.27ZM97.0721 124.998C97.0721 125.372 96.9441 125.676 96.6881 125.91C96.4427 126.145 96.1441 126.262 95.7921 126.262C95.4294 126.262 95.1254 126.145 94.8801 125.91C94.6347 125.676 94.5121 125.372 94.5121 124.998C94.5121 124.625 94.6347 124.321 94.8801 124.086C95.1254 123.841 95.4294 123.718 95.7921 123.718C96.1441 123.718 96.4427 123.841 96.6881 124.086C96.9441 124.321 97.0721 124.625 97.0721 124.998ZM104.042 122.886C104.042 122.534 103.973 122.22 103.834 121.942C103.695 121.665 103.45 121.43 103.098 121.238C102.757 121.046 102.293 120.902 101.706 120.806C101.13 120.71 100.399 120.662 99.5141 120.662C99.6314 119.638 99.7221 118.668 99.7861 117.75C99.8501 116.822 99.9034 115.894 99.9461 114.966H105.61V116.598H101.594C101.583 116.78 101.567 116.988 101.546 117.222C101.535 117.446 101.519 117.676 101.498 117.91C101.487 118.145 101.471 118.369 101.45 118.582C101.429 118.796 101.407 118.977 101.386 119.126C102.965 119.212 104.127 119.574 104.874 120.214C105.631 120.844 106.01 121.708 106.01 122.806C106.01 123.308 105.925 123.772 105.754 124.198C105.583 124.625 105.322 124.993 104.97 125.302C104.618 125.612 104.175 125.857 103.642 126.038C103.109 126.209 102.485 126.294 101.77 126.294C101.482 126.294 101.189 126.273 100.89 126.23C100.591 126.188 100.303 126.134 100.026 126.07C99.7594 126.017 99.5194 125.958 99.3061 125.894C99.0927 125.83 98.9327 125.772 98.8261 125.718L99.1941 124.086C99.4181 124.193 99.7381 124.31 100.154 124.438C100.581 124.556 101.098 124.614 101.706 124.614C102.122 124.614 102.479 124.572 102.778 124.486C103.077 124.39 103.317 124.262 103.498 124.102C103.69 123.942 103.829 123.761 103.914 123.558C103.999 123.345 104.042 123.121 104.042 122.886ZM114.96 126.054C114.682 125.628 114.362 125.18 114 124.71C113.637 124.241 113.253 123.788 112.848 123.35C112.453 122.913 112.042 122.497 111.616 122.102C111.189 121.708 110.768 121.366 110.352 121.078V126.054H108.336V114.966H110.352V119.542C110.704 119.19 111.072 118.817 111.456 118.422C111.84 118.017 112.218 117.612 112.592 117.206C112.976 116.79 113.338 116.39 113.68 116.006C114.021 115.622 114.33 115.276 114.608 114.966H117.024C116.672 115.372 116.298 115.793 115.904 116.23C115.509 116.668 115.104 117.11 114.688 117.558C114.272 117.996 113.85 118.433 113.424 118.87C113.008 119.308 112.597 119.724 112.192 120.118C112.64 120.46 113.093 120.86 113.552 121.318C114.021 121.766 114.48 122.252 114.928 122.774C115.376 123.286 115.802 123.825 116.208 124.39C116.624 124.945 117.002 125.5 117.344 126.054H114.96ZM84.0741 144.054C83.2741 142.326 82.5008 140.518 81.7541 138.63C81.0181 136.742 80.3301 134.854 79.6901 132.966H81.9141C82.1701 133.713 82.4315 134.476 82.6981 135.254C82.9648 136.033 83.2315 136.801 83.4981 137.558C83.7648 138.305 84.0315 139.03 84.2981 139.734C84.5648 140.438 84.8261 141.084 85.0821 141.67C85.3275 141.084 85.5835 140.444 85.8501 139.75C86.1168 139.046 86.3835 138.316 86.6501 137.558C86.9275 136.801 87.1995 136.033 87.4661 135.254C87.7328 134.476 87.9888 133.713 88.2341 132.966H90.3941C89.7435 134.854 89.0501 136.742 88.3141 138.63C87.5781 140.518 86.8101 142.326 86.0101 144.054H84.0741ZM98.6594 139.862C98.6594 140.524 98.5634 141.126 98.3714 141.67C98.1794 142.214 97.9074 142.678 97.5554 143.062C97.2034 143.446 96.7767 143.745 96.2754 143.958C95.7847 144.172 95.2407 144.278 94.6434 144.278C94.046 144.278 93.502 144.172 93.0114 143.958C92.5207 143.745 92.0994 143.446 91.7474 143.062C91.3954 142.678 91.118 142.214 90.9154 141.67C90.7234 141.126 90.6274 140.524 90.6274 139.862C90.6274 139.201 90.7234 138.604 90.9154 138.07C91.118 137.526 91.3954 137.062 91.7474 136.678C92.11 136.294 92.5367 136.001 93.0274 135.798C93.518 135.585 94.0567 135.478 94.6434 135.478C95.23 135.478 95.7687 135.585 96.2594 135.798C96.7607 136.001 97.1874 136.294 97.5394 136.678C97.8914 137.062 98.1634 137.526 98.3554 138.07C98.558 138.604 98.6594 139.201 98.6594 139.862ZM96.6754 139.862C96.6754 139.03 96.494 138.374 96.1314 137.894C95.7794 137.404 95.2834 137.158 94.6434 137.158C94.0034 137.158 93.502 137.404 93.1394 137.894C92.7874 138.374 92.6114 139.03 92.6114 139.862C92.6114 140.705 92.7874 141.372 93.1394 141.862C93.502 142.353 94.0034 142.598 94.6434 142.598C95.2834 142.598 95.7794 142.353 96.1314 141.862C96.494 141.372 96.6754 140.705 96.6754 139.862ZM100.558 133.478L102.494 133.158V135.686H105.47V137.302H102.494V140.71C102.494 141.382 102.601 141.862 102.814 142.15C103.027 142.438 103.39 142.582 103.902 142.582C104.254 142.582 104.563 142.545 104.83 142.47C105.107 142.396 105.326 142.326 105.486 142.262L105.806 143.798C105.582 143.894 105.289 143.99 104.926 144.086C104.563 144.193 104.137 144.246 103.646 144.246C103.049 144.246 102.547 144.166 102.142 144.006C101.747 143.846 101.433 143.617 101.198 143.318C100.963 143.009 100.798 142.641 100.702 142.214C100.606 141.777 100.558 141.281 100.558 140.726V133.478ZM106.737 139.91C106.737 139.174 106.843 138.529 107.057 137.974C107.281 137.42 107.574 136.961 107.937 136.598C108.299 136.225 108.715 135.948 109.185 135.766C109.654 135.574 110.134 135.478 110.625 135.478C111.777 135.478 112.673 135.836 113.313 136.55C113.963 137.265 114.289 138.332 114.289 139.75C114.289 139.857 114.283 139.98 114.273 140.118C114.273 140.246 114.267 140.364 114.257 140.47H108.737C108.79 141.142 109.025 141.665 109.441 142.038C109.867 142.401 110.481 142.582 111.281 142.582C111.75 142.582 112.177 142.54 112.561 142.454C112.955 142.369 113.265 142.278 113.489 142.182L113.745 143.766C113.638 143.82 113.489 143.878 113.297 143.942C113.115 143.996 112.902 144.044 112.657 144.086C112.422 144.14 112.166 144.182 111.889 144.214C111.611 144.246 111.329 144.262 111.041 144.262C110.305 144.262 109.665 144.156 109.121 143.942C108.577 143.718 108.129 143.414 107.777 143.03C107.425 142.636 107.163 142.177 106.993 141.654C106.822 141.121 106.737 140.54 106.737 139.91ZM112.353 139.046C112.353 138.78 112.315 138.529 112.241 138.294C112.166 138.049 112.054 137.841 111.905 137.67C111.766 137.489 111.59 137.35 111.377 137.254C111.174 137.148 110.929 137.094 110.641 137.094C110.342 137.094 110.081 137.153 109.857 137.27C109.633 137.377 109.441 137.521 109.281 137.702C109.131 137.884 109.014 138.092 108.929 138.326C108.843 138.561 108.785 138.801 108.753 139.046H112.353ZM118.437 142.662C118.949 142.662 119.323 142.604 119.557 142.486C119.792 142.358 119.909 142.145 119.909 141.846C119.909 141.569 119.781 141.34 119.525 141.158C119.28 140.977 118.869 140.78 118.293 140.566C117.941 140.438 117.616 140.305 117.317 140.166C117.029 140.017 116.779 139.846 116.565 139.654C116.352 139.462 116.181 139.233 116.053 138.966C115.936 138.689 115.877 138.353 115.877 137.958C115.877 137.19 116.16 136.588 116.725 136.15C117.291 135.702 118.059 135.478 119.029 135.478C119.52 135.478 119.989 135.526 120.437 135.622C120.885 135.708 121.221 135.793 121.445 135.878L121.093 137.446C120.88 137.35 120.608 137.265 120.277 137.19C119.947 137.105 119.563 137.062 119.125 137.062C118.731 137.062 118.411 137.132 118.165 137.27C117.92 137.398 117.797 137.601 117.797 137.878C117.797 138.017 117.819 138.14 117.861 138.246C117.915 138.353 118 138.454 118.117 138.55C118.235 138.636 118.389 138.726 118.581 138.822C118.773 138.908 119.008 138.998 119.285 139.094C119.744 139.265 120.133 139.436 120.453 139.606C120.773 139.766 121.035 139.953 121.237 140.166C121.451 140.369 121.605 140.604 121.701 140.87C121.797 141.137 121.845 141.457 121.845 141.83C121.845 142.63 121.547 143.238 120.949 143.654C120.363 144.06 119.52 144.262 118.421 144.262C117.685 144.262 117.093 144.198 116.645 144.07C116.197 143.953 115.883 143.857 115.701 143.782L116.037 142.166C116.325 142.284 116.667 142.396 117.061 142.502C117.467 142.609 117.925 142.662 118.437 142.662Z"
      fill="white" />
  </g>
  <path d="M43.5861 8.0542L35.5 20.0542H165.5L156.792 8.0542H43.5861Z" fill="#6371FF" />
  <defs>
    <filter id="filter0_d_23916_80567" x="0.5" y="0" width="200" height="317" filterUnits="userSpaceOnUse"
      color-interpolation-filters="sRGB">
      <feFlood flood-opacity="0" result="BackgroundImageFix" />
      <feColorMatrix in="SourceAlpha" type="matrix" values="0 0 0 0 0 0 0 0 0 0 0 0 0 0 0 0 0 0 127 0"
        result="hardAlpha" />
      <feOffset dy="15" />
      <feGaussianBlur stdDeviation="17.5" />
      <feColorMatrix type="matrix" values="0 0 0 0 0.129412 0 0 0 0 0.133333 0 0 0 0 0.145098 0 0 0 0.08 0" />
      <feBlend mode="normal" in2="BackgroundImageFix" result="effect1_dropShadow_23916_80567" />
      <feBlend mode="normal" in="SourceGraphic" in2="effect1_dropShadow_23916_80567" result="shape" />
    </filter>
    <filter id="filter1_b_23916_80567" x="65.6899" y="100.966" width="70.1553" height="57.312"
      filterUnits="userSpaceOnUse" color-interpolation-filters="sRGB">
      <feFlood flood-opacity="0" result="BackgroundImageFix" />
      <feGaussianBlur in="BackgroundImageFix" stdDeviation="7" />
      <feComposite in2="SourceAlpha" operator="in" result="effect1_backgroundBlur_23916_80567" />
      <feBlend mode="normal" in="SourceGraphic" in2="effect1_backgroundBlur_23916_80567" result="shape" />
    </filter>
    <linearGradient id="paint0_linear_23916_80567" x1="100.5" y1="20" x2="100.5" y2="267"
      gradientUnits="userSpaceOnUse">
      <stop stop-color="#3547E9" />
      <stop offset="1" stop-color="#2E0DBE" />
    </linearGradient>
  </defs>
</svg>