<svg width="357" height="308" viewBox="0 0 357 308" fill="none" xmlns="http://www.w3.org/2000/svg">
  <path d="M0.5 71H121.5V271H0.5V71Z" fill="#515FE1" />
  <path
    d="M67.276 114.438C67.276 115.857 66.996 117.22 66.436 118.526C65.876 119.833 65.148 121.102 64.252 122.334C63.356 123.529 62.348 124.686 61.228 125.806C60.108 126.926 59.0067 127.99 57.924 128.998C57.364 129.521 56.748 130.118 56.076 130.79C55.4413 131.425 54.8253 132.078 54.228 132.75C53.6307 133.422 53.0893 134.057 52.604 134.654C52.156 135.214 51.876 135.681 51.764 136.054H68.452V143.054H42.58C42.5053 142.644 42.468 142.121 42.468 141.486C42.468 140.852 42.468 140.404 42.468 140.142C42.468 138.35 42.748 136.708 43.308 135.214C43.9053 133.721 44.6707 132.34 45.604 131.07C46.5373 129.764 47.5827 128.55 48.74 127.43C49.9347 126.31 51.1107 125.19 52.268 124.07C53.164 123.212 54.004 122.409 54.788 121.662C55.572 120.878 56.2627 120.132 56.86 119.422C57.4573 118.676 57.924 117.948 58.26 117.238C58.596 116.492 58.764 115.745 58.764 114.998C58.764 113.356 58.2973 112.198 57.364 111.526C56.4307 110.854 55.2733 110.518 53.892 110.518C52.884 110.518 51.932 110.686 51.036 111.022C50.1773 111.321 49.3747 111.694 48.628 112.142C47.9187 112.553 47.3027 112.982 46.78 113.43C46.2573 113.841 45.8653 114.177 45.604 114.438L41.46 108.614C43.1027 107.084 45.0067 105.833 47.172 104.862C49.3747 103.854 51.7267 103.35 54.228 103.35C56.5053 103.35 58.4653 103.612 60.108 104.134C61.7507 104.657 63.0947 105.404 64.14 106.374C65.2227 107.308 66.0067 108.465 66.492 109.846C67.0147 111.19 67.276 112.721 67.276 114.438Z"
    fill="white" />
  <path d="M7.96411 59.0542L0.5 71.0542H120.5L112.462 59.0542H7.96411Z" fill="#C3B6FF" />
  <path d="M236.5 98H356.5V273H236.5V98Z" fill="#515FE1" />
  <path
    d="M295.268 168.894C294.26 168.894 293.196 168.82 292.076 168.67C290.956 168.558 289.873 168.39 288.828 168.166C287.783 167.942 286.831 167.7 285.972 167.438C285.113 167.177 284.441 166.934 283.956 166.71L285.58 159.766C286.551 160.177 287.783 160.625 289.276 161.11C290.807 161.558 292.692 161.782 294.932 161.782C297.508 161.782 299.393 161.297 300.588 160.326C301.783 159.356 302.38 158.049 302.38 156.406C302.38 155.398 302.156 154.558 301.708 153.886C301.297 153.177 300.719 152.617 299.972 152.206C299.225 151.758 298.329 151.46 297.284 151.31C296.276 151.124 295.193 151.03 294.036 151.03H290.788V144.31H294.484C295.305 144.31 296.089 144.236 296.836 144.086C297.62 143.937 298.311 143.694 298.908 143.358C299.505 142.985 299.972 142.5 300.308 141.902C300.681 141.268 300.868 140.484 300.868 139.55C300.868 138.841 300.719 138.225 300.42 137.702C300.121 137.18 299.729 136.75 299.244 136.414C298.796 136.078 298.255 135.836 297.62 135.686C297.023 135.5 296.407 135.406 295.772 135.406C294.167 135.406 292.673 135.649 291.292 136.134C289.948 136.62 288.716 137.217 287.596 137.926L284.628 131.822C285.225 131.449 285.916 131.057 286.7 130.646C287.521 130.236 288.417 129.862 289.388 129.526C290.359 129.19 291.385 128.91 292.468 128.686C293.588 128.462 294.764 128.35 295.996 128.35C298.273 128.35 300.233 128.63 301.876 129.19C303.556 129.713 304.937 130.478 306.02 131.486C307.103 132.457 307.905 133.614 308.428 134.958C308.951 136.265 309.212 137.702 309.212 139.27C309.212 140.801 308.783 142.294 307.924 143.75C307.065 145.169 305.908 146.252 304.452 146.998C306.468 147.82 308.017 149.052 309.1 150.694C310.22 152.3 310.78 154.241 310.78 156.518C310.78 158.31 310.481 159.972 309.884 161.502C309.287 162.996 308.353 164.302 307.084 165.422C305.815 166.505 304.191 167.364 302.212 167.998C300.271 168.596 297.956 168.894 295.268 168.894Z"
    fill="white" />
  <path d="M243.964 86.0542L236.5 98.0542H356.5L348.462 86.0542H243.964Z" fill="#C3B6FF" />
  <g filter="url(#filter0_d_23916_75053)">
    <path d="M113.5 20H243.5V267H113.5V20Z" fill="url(#paint0_linear_23916_75053)" />
  </g>
  <path
    d="M166.42 60.3102C167.503 59.8622 168.623 59.3582 169.78 58.7982C170.975 58.2009 172.132 57.5662 173.252 56.8942C174.372 56.1849 175.436 55.4569 176.444 54.7102C177.489 53.9262 178.423 53.1049 179.244 52.2462H185.068V91.0542H176.724V63.1102C175.604 63.8569 174.353 64.5475 172.972 65.1822C171.591 65.7795 170.247 66.3022 168.94 66.7502L166.42 60.3102Z"
    fill="white" />
  <path d="M121.586 8.0542L113.5 20.0542H243.5L234.792 8.0542H121.586Z" fill="#C3B6FF" />
  <defs>
    <filter id="filter0_d_23916_75053" x="78.5" y="0" width="200" height="317" filterUnits="userSpaceOnUse"
      color-interpolation-filters="sRGB">
      <feFlood flood-opacity="0" result="BackgroundImageFix" />
      <feColorMatrix in="SourceAlpha" type="matrix" values="0 0 0 0 0 0 0 0 0 0 0 0 0 0 0 0 0 0 127 0"
        result="hardAlpha" />
      <feOffset dy="15" />
      <feGaussianBlur stdDeviation="17.5" />
      <feColorMatrix type="matrix" values="0 0 0 0 0.129412 0 0 0 0 0.133333 0 0 0 0 0.145098 0 0 0 0.08 0" />
      <feBlend mode="normal" in2="BackgroundImageFix" result="effect1_dropShadow_23916_75053" />
      <feBlend mode="normal" in="SourceGraphic" in2="effect1_dropShadow_23916_75053" result="shape" />
    </filter>
    <linearGradient id="paint0_linear_23916_75053" x1="178.5" y1="20" x2="178.5" y2="267"
      gradientUnits="userSpaceOnUse">
      <stop stop-color="#5060EE" />
      <stop offset="1" stop-color="#A591FF" />
    </linearGradient>
  </defs>
</svg>