<?xml version="1.0" encoding="UTF-8" standalone="no"?><!DOCTYPE svg PUBLIC "-//W3C//DTD SVG 1.1//EN" "http://www.w3.org/Graphics/SVG/1.1/DTD/svg11.dtd"><svg width="100%" height="100%" viewBox="0 0 356 377" version="1.1" xmlns="http://www.w3.org/2000/svg" xmlns:xlink="http://www.w3.org/1999/xlink" xml:space="preserve" xmlns:serif="http://www.serif.com/" fill-rule="evenodd" clip-rule="evenodd" stroke-linejoin="round" stroke-miterlimit="2"><g><rect x="0" y="193.226" width="121" height="183" fill="#3443e4" fill-rule="nonzero"/><path d="M66.276 236.664c0 1.419-.28 2.782-.84 4.088a19.597 19.597 0 0 1-2.184 3.808 32.308 32.308 0 0 1-3.024 3.472 127.526 127.526 0 0 1-3.304 3.192c-.56.523-1.176 1.12-1.848 1.792a46.22 46.22 0 0 0-1.848 1.96 57.627 57.627 0 0 0-1.624 1.904c-.448.56-.728 1.027-.84 1.4h16.688v7H41.58c-.075-.41-.112-.933-.112-1.568v-1.344c0-1.792.28-3.434.84-4.928a18.667 18.667 0 0 1 2.296-4.144 26.525 26.525 0 0 1 3.136-3.64 310.915 310.915 0 0 0 3.528-3.36c.896-.858 1.736-1.661 2.52-2.408a35.671 35.671 0 0 0 2.072-2.24c.597-.746 1.064-1.474 1.4-2.184a5.419 5.419 0 0 0 .504-2.24c0-1.642-.467-2.8-1.4-3.472-.933-.672-2.09-1.008-3.472-1.008-1.008 0-1.96.168-2.856.504-.859.299-1.661.672-2.408 1.12-.71.411-1.325.84-1.848 1.288-.41.314-.803.651-1.176 1.008l-4.144-5.824c1.643-1.53 3.547-2.781 5.712-3.752 2.203-1.008 4.555-1.512 7.056-1.512 2.277 0 4.237.262 5.88.784 1.643.523 2.987 1.27 4.032 2.24a7.997 7.997 0 0 1 2.352 3.472c.523 1.344.784 2.875.784 4.592Z" fill="#fff" fill-rule="nonzero"/><path d="m7.526 181.226-7.526 12h121l-8.105-12H7.526Z" fill="#6371ff" fill-rule="nonzero"/></g><g><rect x="235" y="220.226" width="120" height="156" fill="#3443e4" fill-rule="nonzero"/><path d="M294.268 291.12c-1.008 0-2.072-.074-3.192-.224a29.425 29.425 0 0 1-3.248-.504 34.62 34.62 0 0 1-2.856-.728c-.859-.261-1.531-.504-2.016-.728l1.624-6.944c.971.411 2.203.859 3.696 1.344 1.531.448 3.416.672 5.656.672 2.576 0 4.461-.485 5.656-1.456 1.195-.97 1.792-2.277 1.792-3.92 0-1.008-.224-1.848-.672-2.52a4.43 4.43 0 0 0-1.736-1.68c-.747-.448-1.643-.746-2.688-.896a17.953 17.953 0 0 0-3.248-.28h-3.248v-6.72h3.696c.821 0 1.605-.074 2.352-.224.784-.149 1.475-.392 2.072-.728a4.013 4.013 0 0 0 1.4-1.456c.373-.634.56-1.418.56-2.352 0-.709-.149-1.325-.448-1.848a3.91 3.91 0 0 0-1.176-1.288c-.448-.336-.989-.578-1.624-.728a6.19 6.19 0 0 0-1.848-.28c-1.605 0-3.099.243-4.48.728a18.88 18.88 0 0 0-3.696 1.792l-2.968-6.104a31.79 31.79 0 0 1 2.072-1.176c.821-.41 1.717-.784 2.688-1.12a24.809 24.809 0 0 1 3.08-.84 18.009 18.009 0 0 1 3.528-.336c2.277 0 4.237.28 5.88.84 1.68.523 3.061 1.288 4.144 2.296a8.973 8.973 0 0 1 2.408 3.472c.523 1.307.784 2.744.784 4.312 0 1.531-.429 3.024-1.288 4.48a8.548 8.548 0 0 1-3.472 3.248c2.016.822 3.565 2.054 4.648 3.696 1.12 1.606 1.68 3.547 1.68 5.824 0 1.792-.299 3.454-.896 4.984-.597 1.494-1.531 2.8-2.8 3.92-1.269 1.083-2.893 1.942-4.872 2.576-1.941.598-4.256.896-6.944.896Z" fill="#fff" fill-rule="nonzero"/><path d="m242.964 208.28-7.464 12h120l-8.038-12H242.964Z" fill="#6371ff" fill-rule="nonzero"/></g><g><rect x="113" y="142.226" width="130" height="234" fill="url(#_Linear1)" fill-rule="nonzero"/></g><path d="M165.42 182.536a62.788 62.788 0 0 0 3.36-1.512 51.464 51.464 0 0 0 3.472-1.904 52.893 52.893 0 0 0 3.192-2.184 22.681 22.681 0 0 0 2.8-2.464h5.824v38.808h-8.344v-27.944a27.24 27.24 0 0 1-3.752 2.072 55.366 55.366 0 0 1-4.032 1.568l-2.52-6.44Z" fill="#fff" fill-rule="nonzero"/><path d="m120.586 130.28-8.086 12h130l-8.708-12H120.586Z" fill="#6371ff" fill-rule="nonzero"/><path d="M163.86 4.788c.456-.562 1.196-.562 1.653 0l5.872 7.228c.457.561.457 1.472 0 2.034l-5.872 7.228c-.457.562-1.197.562-1.653 0l-5.873-7.228c-.457-.562-.457-1.473 0-2.034l5.873-7.228Zm25.638 0c.457-.562 1.197-.562 1.654 0l5.872 7.228c.457.561.457 1.472 0 2.034l-5.872 7.228c-.457.562-1.197.562-1.653 0l-5.873-7.228c-.457-.562-.457-1.473 0-2.034l5.872-7.228Z" fill="#2735c2" fill-rule="nonzero"/><path d="M203.5 4.841v25.418c0 1.518-1.731 2.475-3.061 1.742-4.523-2.493-13.5-6.645-23.12-6.645-9.538 0-18.271 4.083-22.723 6.582-1.335.749-3.096-.21-3.096-1.74V4.66c0-1.886 2.46-2.608 3.479-1.021l7.927 12.33a1.89 1.89 0 0 0 3.182-.003L175.742.872a1.891 1.891 0 0 1 3.176-.014l9.988 15.325a1.891 1.891 0 0 0 3.173-.01l7.942-12.354c1.019-1.586 3.479-.864 3.479 1.022Z" fill="#5060ee" fill-rule="nonzero"/><circle cx="177.339" cy="17.405" r="4.169" fill="#2735c2"/><defs><linearGradient id="_Linear1" x1="0" y1="0" x2="1" y2="0" gradientUnits="userSpaceOnUse" gradientTransform="matrix(1.43284e-14,234,-234,1.43284e-14,178,142.226)"><stop offset="0" stop-color="#3547e9" stop-opacity="1"/><stop offset="1" stop-color="#2e0dbe" stop-opacity="1"/></linearGradient></defs></svg>