<svg width="419" height="308" viewBox="0 0 419 308" fill="none" xmlns="http://www.w3.org/2000/svg">
  <g filter="url(#filter0_d_23916_75053)">
    <path d="M31.5 71H152.5V271H31.5V71Z" fill="#3443E4" />
    <g filter="url(#filter1_b_23916_75053)">
      <path
        d="M72.0103 169.27C72.629 169.025 73.2476 168.71 73.8663 168.326C74.4956 167.942 75.0503 167.489 75.5303 166.966H76.8903V178.054H74.9543V169.558C74.6663 169.782 74.3036 170.001 73.8663 170.214C73.429 170.428 73.0076 170.604 72.6023 170.742L72.0103 169.27ZM83.0721 176.998C83.0721 177.372 82.9441 177.676 82.6881 177.91C82.4427 178.145 82.1441 178.262 81.7921 178.262C81.4294 178.262 81.1254 178.145 80.8801 177.91C80.6347 177.676 80.5121 177.372 80.5121 176.998C80.5121 176.625 80.6347 176.321 80.8801 176.086C81.1254 175.841 81.4294 175.718 81.7921 175.718C82.1441 175.718 82.4427 175.841 82.6881 176.086C82.9441 176.321 83.0721 176.625 83.0721 176.998ZM91.6101 169.846C91.6101 170.23 91.5301 170.609 91.3701 170.982C91.2101 171.345 91.0021 171.702 90.7461 172.054C90.5007 172.396 90.2181 172.732 89.8981 173.062C89.5781 173.382 89.2581 173.697 88.9381 174.006C88.7674 174.166 88.5754 174.358 88.3621 174.582C88.1487 174.806 87.9461 175.03 87.7541 175.254C87.5621 175.478 87.3967 175.697 87.2581 175.91C87.1194 176.113 87.0447 176.284 87.0341 176.422H91.9621V178.054H84.9061C84.8954 177.969 84.8901 177.868 84.8901 177.75C84.8901 177.622 84.8901 177.526 84.8901 177.462C84.8901 176.95 84.9701 176.481 85.1301 176.054C85.3007 175.617 85.5194 175.212 85.7861 174.838C86.0527 174.465 86.3514 174.113 86.6821 173.782C87.0127 173.452 87.3434 173.126 87.6741 172.806C87.9301 172.561 88.1754 172.321 88.4101 172.086C88.6447 171.852 88.8474 171.622 89.0181 171.398C89.1994 171.164 89.3434 170.929 89.4501 170.694C89.5567 170.449 89.6101 170.198 89.6101 169.942C89.6101 169.388 89.4501 168.993 89.1301 168.758C88.8101 168.524 88.4207 168.406 87.9621 168.406C87.6634 168.406 87.3861 168.449 87.1301 168.534C86.8741 168.62 86.6447 168.721 86.4421 168.838C86.2501 168.956 86.0794 169.078 85.9301 169.206C85.7807 169.324 85.6687 169.42 85.5941 169.494L84.6341 168.134C85.0821 167.708 85.6047 167.366 86.2021 167.11C86.8101 166.844 87.4607 166.71 88.1541 166.71C89.3381 166.71 90.2074 166.993 90.7621 167.558C91.3274 168.113 91.6101 168.876 91.6101 169.846ZM100.96 178.054C100.682 177.628 100.362 177.18 99.9998 176.71C99.6371 176.241 99.2531 175.788 98.8478 175.35C98.4531 174.913 98.0425 174.497 97.6158 174.102C97.1891 173.708 96.7678 173.366 96.3518 173.078V178.054H94.3358V166.966H96.3518V171.542C96.7038 171.19 97.0718 170.817 97.4558 170.422C97.8398 170.017 98.2185 169.612 98.5918 169.206C98.9758 168.79 99.3385 168.39 99.6798 168.006C100.021 167.622 100.33 167.276 100.608 166.966H103.024C102.672 167.372 102.298 167.793 101.904 168.23C101.509 168.668 101.104 169.11 100.688 169.558C100.272 169.996 99.8505 170.433 99.4238 170.87C99.0078 171.308 98.5971 171.724 98.1918 172.118C98.6398 172.46 99.0931 172.86 99.5518 173.318C100.021 173.766 100.48 174.252 100.928 174.774C101.376 175.286 101.802 175.825 102.208 176.39C102.624 176.945 103.002 177.5 103.344 178.054H100.96ZM70.0741 196.054C69.2741 194.326 68.5008 192.518 67.7541 190.63C67.0181 188.742 66.3301 186.854 65.6901 184.966H67.9141C68.1701 185.713 68.4315 186.476 68.6981 187.254C68.9648 188.033 69.2315 188.801 69.4981 189.558C69.7648 190.305 70.0315 191.03 70.2981 191.734C70.5648 192.438 70.8261 193.084 71.0821 193.67C71.3275 193.084 71.5835 192.444 71.8501 191.75C72.1168 191.046 72.3835 190.316 72.6501 189.558C72.9275 188.801 73.1995 188.033 73.4661 187.254C73.7328 186.476 73.9888 185.713 74.2341 184.966H76.3941C75.7435 186.854 75.0501 188.742 74.3141 190.63C73.5781 192.518 72.8101 194.326 72.0101 196.054H70.0741ZM84.6594 191.862C84.6594 192.524 84.5634 193.126 84.3714 193.67C84.1794 194.214 83.9074 194.678 83.5554 195.062C83.2034 195.446 82.7767 195.745 82.2754 195.958C81.7847 196.172 81.2407 196.278 80.6434 196.278C80.046 196.278 79.502 196.172 79.0114 195.958C78.5207 195.745 78.0994 195.446 77.7474 195.062C77.3954 194.678 77.118 194.214 76.9154 193.67C76.7234 193.126 76.6274 192.524 76.6274 191.862C76.6274 191.201 76.7234 190.604 76.9154 190.07C77.118 189.526 77.3954 189.062 77.7474 188.678C78.11 188.294 78.5367 188.001 79.0274 187.798C79.518 187.585 80.0567 187.478 80.6434 187.478C81.23 187.478 81.7687 187.585 82.2594 187.798C82.7607 188.001 83.1874 188.294 83.5394 188.678C83.8914 189.062 84.1634 189.526 84.3554 190.07C84.558 190.604 84.6594 191.201 84.6594 191.862ZM82.6754 191.862C82.6754 191.03 82.494 190.374 82.1314 189.894C81.7794 189.404 81.2834 189.158 80.6434 189.158C80.0034 189.158 79.502 189.404 79.1394 189.894C78.7874 190.374 78.6114 191.03 78.6114 191.862C78.6114 192.705 78.7874 193.372 79.1394 193.862C79.502 194.353 80.0034 194.598 80.6434 194.598C81.2834 194.598 81.7794 194.353 82.1314 193.862C82.494 193.372 82.6754 192.705 82.6754 191.862ZM86.5579 185.478L88.4939 185.158V187.686H91.4699V189.302H88.4939V192.71C88.4939 193.382 88.6005 193.862 88.8139 194.15C89.0272 194.438 89.3899 194.582 89.9019 194.582C90.2539 194.582 90.5632 194.545 90.8299 194.47C91.1072 194.396 91.3259 194.326 91.4859 194.262L91.8059 195.798C91.5819 195.894 91.2885 195.99 90.9259 196.086C90.5632 196.193 90.1365 196.246 89.6459 196.246C89.0485 196.246 88.5472 196.166 88.1419 196.006C87.7472 195.846 87.4325 195.617 87.1979 195.318C86.9632 195.009 86.7979 194.641 86.7019 194.214C86.6059 193.777 86.5579 193.281 86.5579 192.726V185.478ZM92.7368 191.91C92.7368 191.174 92.8434 190.529 93.0568 189.974C93.2808 189.42 93.5741 188.961 93.9368 188.598C94.2994 188.225 94.7154 187.948 95.1848 187.766C95.6541 187.574 96.1341 187.478 96.6248 187.478C97.7768 187.478 98.6728 187.836 99.3128 188.55C99.9634 189.265 100.289 190.332 100.289 191.75C100.289 191.857 100.283 191.98 100.273 192.118C100.273 192.246 100.267 192.364 100.257 192.47H94.7368C94.7901 193.142 95.0248 193.665 95.4408 194.038C95.8674 194.401 96.4808 194.582 97.2808 194.582C97.7501 194.582 98.1768 194.54 98.5608 194.454C98.9554 194.369 99.2648 194.278 99.4888 194.182L99.7448 195.766C99.6381 195.82 99.4888 195.878 99.2968 195.942C99.1154 195.996 98.9021 196.044 98.6568 196.086C98.4221 196.14 98.1661 196.182 97.8888 196.214C97.6114 196.246 97.3288 196.262 97.0408 196.262C96.3048 196.262 95.6648 196.156 95.1208 195.942C94.5768 195.718 94.1288 195.414 93.7768 195.03C93.4248 194.636 93.1634 194.177 92.9928 193.654C92.8221 193.121 92.7368 192.54 92.7368 191.91ZM98.3528 191.046C98.3528 190.78 98.3154 190.529 98.2408 190.294C98.1661 190.049 98.0541 189.841 97.9048 189.67C97.7661 189.489 97.5901 189.35 97.3768 189.254C97.1741 189.148 96.9288 189.094 96.6408 189.094C96.3421 189.094 96.0808 189.153 95.8568 189.27C95.6328 189.377 95.4408 189.521 95.2808 189.702C95.1314 189.884 95.0141 190.092 94.9288 190.326C94.8434 190.561 94.7848 190.801 94.7528 191.046H98.3528ZM104.437 194.662C104.949 194.662 105.323 194.604 105.557 194.486C105.792 194.358 105.909 194.145 105.909 193.846C105.909 193.569 105.781 193.34 105.525 193.158C105.28 192.977 104.869 192.78 104.293 192.566C103.941 192.438 103.616 192.305 103.317 192.166C103.029 192.017 102.779 191.846 102.565 191.654C102.352 191.462 102.181 191.233 102.053 190.966C101.936 190.689 101.877 190.353 101.877 189.958C101.877 189.19 102.16 188.588 102.725 188.15C103.291 187.702 104.059 187.478 105.029 187.478C105.52 187.478 105.989 187.526 106.437 187.622C106.885 187.708 107.221 187.793 107.445 187.878L107.093 189.446C106.88 189.35 106.608 189.265 106.277 189.19C105.947 189.105 105.563 189.062 105.125 189.062C104.731 189.062 104.411 189.132 104.165 189.27C103.92 189.398 103.797 189.601 103.797 189.878C103.797 190.017 103.819 190.14 103.861 190.246C103.915 190.353 104 190.454 104.117 190.55C104.235 190.636 104.389 190.726 104.581 190.822C104.773 190.908 105.008 190.998 105.285 191.094C105.744 191.265 106.133 191.436 106.453 191.606C106.773 191.766 107.035 191.953 107.237 192.166C107.451 192.369 107.605 192.604 107.701 192.87C107.797 193.137 107.845 193.457 107.845 193.83C107.845 194.63 107.547 195.238 106.949 195.654C106.363 196.06 105.52 196.262 104.421 196.262C103.685 196.262 103.093 196.198 102.645 196.07C102.197 195.953 101.883 195.857 101.701 195.782L102.037 194.166C102.325 194.284 102.667 194.396 103.061 194.502C103.467 194.609 103.925 194.662 104.437 194.662Z"
        fill="white" />
    </g>
    <path
      d="M98.276 114.438C98.276 115.857 97.996 117.22 97.436 118.526C96.876 119.833 96.148 121.102 95.252 122.334C94.356 123.529 93.348 124.686 92.228 125.806C91.108 126.926 90.0067 127.99 88.924 128.998C88.364 129.521 87.748 130.118 87.076 130.79C86.4413 131.425 85.8253 132.078 85.228 132.75C84.6307 133.422 84.0893 134.057 83.604 134.654C83.156 135.214 82.876 135.681 82.764 136.054H99.452V143.054H73.58C73.5053 142.644 73.468 142.121 73.468 141.486C73.468 140.852 73.468 140.404 73.468 140.142C73.468 138.35 73.748 136.708 74.308 135.214C74.9053 133.721 75.6707 132.34 76.604 131.07C77.5373 129.764 78.5827 128.55 79.74 127.43C80.9347 126.31 82.1107 125.19 83.268 124.07C84.164 123.212 85.004 122.409 85.788 121.662C86.572 120.878 87.2627 120.132 87.86 119.422C88.4573 118.676 88.924 117.948 89.26 117.238C89.596 116.492 89.764 115.745 89.764 114.998C89.764 113.356 89.2973 112.198 88.364 111.526C87.4307 110.854 86.2733 110.518 84.892 110.518C83.884 110.518 82.932 110.686 82.036 111.022C81.1773 111.321 80.3747 111.694 79.628 112.142C78.9187 112.553 78.3027 112.982 77.78 113.43C77.2573 113.841 76.8653 114.177 76.604 114.438L72.46 108.614C74.1027 107.084 76.0067 105.833 78.172 104.862C80.3747 103.854 82.7267 103.35 85.228 103.35C87.5053 103.35 89.4653 103.612 91.108 104.134C92.7507 104.657 94.0947 105.404 95.14 106.374C96.2227 107.308 97.0067 108.465 97.492 109.846C98.0147 111.19 98.276 112.721 98.276 114.438Z"
      fill="white" />
    <path d="M38.9641 59.0542L31.5 71.0542H151.5L143.462 59.0542H38.9641Z" fill="#6371FF" />
  </g>
  <g filter="url(#filter2_d_23916_75053)">
    <path d="M267.5 98H387.5V273H267.5V98Z" fill="#3443E4" />
    <g filter="url(#filter3_b_23916_75053)">
      <path
        d="M320.951 198.31C321.261 198.31 321.565 198.284 321.863 198.23C322.162 198.166 322.418 198.076 322.631 197.958C322.642 197.841 322.647 197.74 322.647 197.654C322.647 197.569 322.647 197.494 322.647 197.43C322.647 197.004 322.615 196.604 322.551 196.23C322.498 195.846 322.397 195.516 322.247 195.238C322.109 194.95 321.911 194.726 321.655 194.566C321.41 194.396 321.101 194.31 320.727 194.31C320.418 194.31 320.151 194.374 319.927 194.502C319.714 194.63 319.538 194.796 319.399 194.998C319.261 195.201 319.159 195.42 319.095 195.654C319.031 195.889 318.999 196.118 318.999 196.342C318.999 196.993 319.154 197.484 319.463 197.814C319.783 198.145 320.279 198.31 320.951 198.31ZM322.471 199.478C322.215 199.596 321.933 199.686 321.623 199.75C321.314 199.814 321.015 199.846 320.727 199.846C320.066 199.846 319.501 199.761 319.031 199.59C318.573 199.409 318.194 199.164 317.895 198.854C317.607 198.534 317.394 198.166 317.255 197.75C317.117 197.334 317.047 196.886 317.047 196.406C317.047 195.99 317.117 195.569 317.255 195.142C317.394 194.705 317.613 194.305 317.911 193.942C318.21 193.58 318.589 193.286 319.047 193.062C319.506 192.828 320.05 192.71 320.679 192.71C321.981 192.71 322.962 193.132 323.623 193.974C324.295 194.806 324.631 195.985 324.631 197.51C324.631 199.665 324.077 201.297 322.967 202.406C321.858 203.516 320.157 204.076 317.863 204.086L317.783 202.47C318.423 202.47 318.999 202.417 319.511 202.31C320.034 202.204 320.487 202.033 320.871 201.798C321.266 201.564 321.597 201.26 321.863 200.886C322.13 200.502 322.333 200.033 322.471 199.478ZM327.917 204.054C327.981 203.244 328.125 202.39 328.349 201.494C328.573 200.598 328.845 199.729 329.165 198.886C329.496 198.033 329.853 197.238 330.237 196.502C330.632 195.756 331.021 195.132 331.405 194.63H326.301V192.966H333.709V194.438C333.357 194.833 332.973 195.372 332.557 196.054C332.141 196.737 331.746 197.51 331.373 198.374C331 199.228 330.674 200.145 330.397 201.126C330.13 202.108 329.965 203.084 329.901 204.054H327.917ZM342.867 201.078C342.867 201.537 342.787 201.964 342.627 202.358C342.467 202.753 342.227 203.094 341.907 203.382C341.587 203.67 341.187 203.894 340.707 204.054C340.238 204.214 339.694 204.294 339.075 204.294C338.35 204.294 337.747 204.193 337.267 203.99C336.787 203.788 336.403 203.532 336.115 203.222C335.827 202.913 335.619 202.582 335.491 202.23C335.374 201.868 335.315 201.526 335.315 201.206C335.315 200.886 335.358 200.593 335.443 200.326C335.539 200.049 335.667 199.798 335.827 199.574C335.987 199.34 336.168 199.126 336.371 198.934C336.574 198.742 336.787 198.572 337.011 198.422C336.52 198.081 336.152 197.713 335.907 197.318C335.672 196.913 335.555 196.422 335.555 195.846C335.555 195.43 335.635 195.036 335.795 194.662C335.966 194.278 336.206 193.942 336.515 193.654C336.824 193.366 337.198 193.137 337.635 192.966C338.072 192.796 338.558 192.71 339.091 192.71C339.72 192.71 340.254 192.801 340.691 192.982C341.139 193.164 341.502 193.398 341.779 193.686C342.067 193.974 342.275 194.294 342.403 194.646C342.531 194.998 342.595 195.34 342.595 195.67C342.595 196.257 342.435 196.78 342.115 197.238C341.795 197.686 341.427 198.044 341.011 198.31C341.64 198.652 342.104 199.046 342.403 199.494C342.712 199.942 342.867 200.47 342.867 201.078ZM337.219 201.174C337.219 201.334 337.251 201.505 337.315 201.686C337.379 201.868 337.486 202.033 337.635 202.182C337.784 202.332 337.976 202.46 338.211 202.566C338.446 202.662 338.739 202.71 339.091 202.71C339.411 202.71 339.688 202.668 339.923 202.582C340.158 202.497 340.35 202.385 340.499 202.246C340.648 202.097 340.76 201.932 340.835 201.75C340.91 201.558 340.947 201.366 340.947 201.174C340.947 200.876 340.888 200.614 340.771 200.39C340.654 200.166 340.483 199.974 340.259 199.814C340.046 199.644 339.79 199.5 339.491 199.382C339.192 199.254 338.862 199.142 338.499 199.046C338.115 199.292 337.806 199.59 337.571 199.942C337.336 200.284 337.219 200.694 337.219 201.174ZM340.707 195.702C340.707 195.564 340.675 195.414 340.611 195.254C340.558 195.084 340.462 194.929 340.323 194.79C340.195 194.652 340.03 194.534 339.827 194.438C339.624 194.342 339.379 194.294 339.091 194.294C338.803 194.294 338.552 194.342 338.339 194.438C338.136 194.524 337.971 194.641 337.843 194.79C337.715 194.929 337.619 195.084 337.555 195.254C337.491 195.414 337.459 195.574 337.459 195.734C337.459 196.14 337.608 196.524 337.907 196.886C338.216 197.249 338.728 197.537 339.443 197.75C339.838 197.505 340.147 197.228 340.371 196.918C340.595 196.598 340.707 196.193 340.707 195.702ZM313.074 222.054C312.274 220.326 311.501 218.518 310.754 216.63C310.018 214.742 309.33 212.854 308.69 210.966H310.914C311.17 211.713 311.431 212.476 311.698 213.254C311.965 214.033 312.231 214.801 312.498 215.558C312.765 216.305 313.031 217.03 313.298 217.734C313.565 218.438 313.826 219.084 314.082 219.67C314.327 219.084 314.583 218.444 314.85 217.75C315.117 217.046 315.383 216.316 315.65 215.558C315.927 214.801 316.199 214.033 316.466 213.254C316.733 212.476 316.989 211.713 317.234 210.966H319.394C318.743 212.854 318.05 214.742 317.314 216.63C316.578 218.518 315.81 220.326 315.01 222.054H313.074ZM327.659 217.862C327.659 218.524 327.563 219.126 327.371 219.67C327.179 220.214 326.907 220.678 326.555 221.062C326.203 221.446 325.777 221.745 325.275 221.958C324.785 222.172 324.241 222.278 323.643 222.278C323.046 222.278 322.502 222.172 322.011 221.958C321.521 221.745 321.099 221.446 320.747 221.062C320.395 220.678 320.118 220.214 319.915 219.67C319.723 219.126 319.627 218.524 319.627 217.862C319.627 217.201 319.723 216.604 319.915 216.07C320.118 215.526 320.395 215.062 320.747 214.678C321.11 214.294 321.537 214.001 322.027 213.798C322.518 213.585 323.057 213.478 323.643 213.478C324.23 213.478 324.769 213.585 325.259 213.798C325.761 214.001 326.187 214.294 326.539 214.678C326.891 215.062 327.163 215.526 327.355 216.07C327.558 216.604 327.659 217.201 327.659 217.862ZM325.675 217.862C325.675 217.03 325.494 216.374 325.131 215.894C324.779 215.404 324.283 215.158 323.643 215.158C323.003 215.158 322.502 215.404 322.139 215.894C321.787 216.374 321.611 217.03 321.611 217.862C321.611 218.705 321.787 219.372 322.139 219.862C322.502 220.353 323.003 220.598 323.643 220.598C324.283 220.598 324.779 220.353 325.131 219.862C325.494 219.372 325.675 218.705 325.675 217.862ZM329.558 211.478L331.494 211.158V213.686H334.47V215.302H331.494V218.71C331.494 219.382 331.601 219.862 331.814 220.15C332.027 220.438 332.39 220.582 332.902 220.582C333.254 220.582 333.563 220.545 333.83 220.47C334.107 220.396 334.326 220.326 334.486 220.262L334.806 221.798C334.582 221.894 334.289 221.99 333.926 222.086C333.563 222.193 333.137 222.246 332.646 222.246C332.049 222.246 331.547 222.166 331.142 222.006C330.747 221.846 330.433 221.617 330.198 221.318C329.963 221.009 329.798 220.641 329.702 220.214C329.606 219.777 329.558 219.281 329.558 218.726V211.478ZM335.737 217.91C335.737 217.174 335.843 216.529 336.057 215.974C336.281 215.42 336.574 214.961 336.937 214.598C337.299 214.225 337.715 213.948 338.185 213.766C338.654 213.574 339.134 213.478 339.625 213.478C340.777 213.478 341.673 213.836 342.313 214.55C342.963 215.265 343.289 216.332 343.289 217.75C343.289 217.857 343.283 217.98 343.273 218.118C343.273 218.246 343.267 218.364 343.257 218.47H337.737C337.79 219.142 338.025 219.665 338.441 220.038C338.867 220.401 339.481 220.582 340.281 220.582C340.75 220.582 341.177 220.54 341.561 220.454C341.955 220.369 342.265 220.278 342.489 220.182L342.745 221.766C342.638 221.82 342.489 221.878 342.297 221.942C342.115 221.996 341.902 222.044 341.657 222.086C341.422 222.14 341.166 222.182 340.889 222.214C340.611 222.246 340.329 222.262 340.041 222.262C339.305 222.262 338.665 222.156 338.121 221.942C337.577 221.718 337.129 221.414 336.777 221.03C336.425 220.636 336.163 220.177 335.993 219.654C335.822 219.121 335.737 218.54 335.737 217.91ZM341.353 217.046C341.353 216.78 341.315 216.529 341.241 216.294C341.166 216.049 341.054 215.841 340.905 215.67C340.766 215.489 340.59 215.35 340.377 215.254C340.174 215.148 339.929 215.094 339.641 215.094C339.342 215.094 339.081 215.153 338.857 215.27C338.633 215.377 338.441 215.521 338.281 215.702C338.131 215.884 338.014 216.092 337.929 216.326C337.843 216.561 337.785 216.801 337.753 217.046H341.353ZM347.437 220.662C347.949 220.662 348.323 220.604 348.557 220.486C348.792 220.358 348.909 220.145 348.909 219.846C348.909 219.569 348.781 219.34 348.525 219.158C348.28 218.977 347.869 218.78 347.293 218.566C346.941 218.438 346.616 218.305 346.317 218.166C346.029 218.017 345.779 217.846 345.565 217.654C345.352 217.462 345.181 217.233 345.053 216.966C344.936 216.689 344.877 216.353 344.877 215.958C344.877 215.19 345.16 214.588 345.725 214.15C346.291 213.702 347.059 213.478 348.029 213.478C348.52 213.478 348.989 213.526 349.437 213.622C349.885 213.708 350.221 213.793 350.445 213.878L350.093 215.446C349.88 215.35 349.608 215.265 349.277 215.19C348.947 215.105 348.563 215.062 348.125 215.062C347.731 215.062 347.411 215.132 347.165 215.27C346.92 215.398 346.797 215.601 346.797 215.878C346.797 216.017 346.819 216.14 346.861 216.246C346.915 216.353 347 216.454 347.117 216.55C347.235 216.636 347.389 216.726 347.581 216.822C347.773 216.908 348.008 216.998 348.285 217.094C348.744 217.265 349.133 217.436 349.453 217.606C349.773 217.766 350.035 217.953 350.237 218.166C350.451 218.369 350.605 218.604 350.701 218.87C350.797 219.137 350.845 219.457 350.845 219.83C350.845 220.63 350.547 221.238 349.949 221.654C349.363 222.06 348.52 222.262 347.421 222.262C346.685 222.262 346.093 222.198 345.645 222.07C345.197 221.953 344.883 221.857 344.701 221.782L345.037 220.166C345.325 220.284 345.667 220.396 346.061 220.502C346.467 220.609 346.925 220.662 347.437 220.662Z"
        fill="white" />
    </g>
    <path
      d="M326.268 168.894C325.26 168.894 324.196 168.82 323.076 168.67C321.956 168.558 320.873 168.39 319.828 168.166C318.783 167.942 317.831 167.7 316.972 167.438C316.113 167.177 315.441 166.934 314.956 166.71L316.58 159.766C317.551 160.177 318.783 160.625 320.276 161.11C321.807 161.558 323.692 161.782 325.932 161.782C328.508 161.782 330.393 161.297 331.588 160.326C332.783 159.356 333.38 158.049 333.38 156.406C333.38 155.398 333.156 154.558 332.708 153.886C332.297 153.177 331.719 152.617 330.972 152.206C330.225 151.758 329.329 151.46 328.284 151.31C327.276 151.124 326.193 151.03 325.036 151.03H321.788V144.31H325.484C326.305 144.31 327.089 144.236 327.836 144.086C328.62 143.937 329.311 143.694 329.908 143.358C330.505 142.985 330.972 142.5 331.308 141.902C331.681 141.268 331.868 140.484 331.868 139.55C331.868 138.841 331.719 138.225 331.42 137.702C331.121 137.18 330.729 136.75 330.244 136.414C329.796 136.078 329.255 135.836 328.62 135.686C328.023 135.5 327.407 135.406 326.772 135.406C325.167 135.406 323.673 135.649 322.292 136.134C320.948 136.62 319.716 137.217 318.596 137.926L315.628 131.822C316.225 131.449 316.916 131.057 317.7 130.646C318.521 130.236 319.417 129.862 320.388 129.526C321.359 129.19 322.385 128.91 323.468 128.686C324.588 128.462 325.764 128.35 326.996 128.35C329.273 128.35 331.233 128.63 332.876 129.19C334.556 129.713 335.937 130.478 337.02 131.486C338.103 132.457 338.905 133.614 339.428 134.958C339.951 136.265 340.212 137.702 340.212 139.27C340.212 140.801 339.783 142.294 338.924 143.75C338.065 145.169 336.908 146.252 335.452 146.998C337.468 147.82 339.017 149.052 340.1 150.694C341.22 152.3 341.78 154.241 341.78 156.518C341.78 158.31 341.481 159.972 340.884 161.502C340.287 162.996 339.353 164.302 338.084 165.422C336.815 166.505 335.191 167.364 333.212 167.998C331.271 168.596 328.956 168.894 326.268 168.894Z"
      fill="white" />
    <path d="M274.964 86.0542L267.5 98.0542H387.5L379.462 86.0542H274.964Z" fill="#6371FF" />
  </g>
  <g filter="url(#filter4_d_23916_75053)">
    <path d="M144.5 20H274.5V267H144.5V20Z" fill="url(#paint0_linear_23916_75053)" />
  </g>
  <defs>
    <filter id="filter0_d_23916_75053" x="-3.5" y="39.0542" width="191" height="281.946" filterUnits="userSpaceOnUse"
      color-interpolation-filters="sRGB">
      <feFlood flood-opacity="0" result="BackgroundImageFix" />
      <feColorMatrix in="SourceAlpha" type="matrix" values="0 0 0 0 0 0 0 0 0 0 0 0 0 0 0 0 0 0 127 0"
        result="hardAlpha" />
      <feOffset dy="15" />
      <feGaussianBlur stdDeviation="17.5" />
      <feColorMatrix type="matrix" values="0 0 0 0 0.129412 0 0 0 0 0.133333 0 0 0 0 0.145098 0 0 0 0.08 0" />
      <feBlend mode="normal" in2="BackgroundImageFix" result="effect1_dropShadow_23916_75053" />
      <feBlend mode="normal" in="SourceGraphic" in2="effect1_dropShadow_23916_75053" result="shape" />
    </filter>
    <filter id="filter1_b_23916_75053" x="51.6899" y="152.71" width="70.1553" height="57.568"
      filterUnits="userSpaceOnUse" color-interpolation-filters="sRGB">
      <feFlood flood-opacity="0" result="BackgroundImageFix" />
      <feGaussianBlur in="BackgroundImageFix" stdDeviation="7" />
      <feComposite in2="SourceAlpha" operator="in" result="effect1_backgroundBlur_23916_75053" />
      <feBlend mode="normal" in="SourceGraphic" in2="effect1_backgroundBlur_23916_75053" result="shape" />
    </filter>
    <filter id="filter2_d_23916_75053" x="232.5" y="66.0542" width="190" height="256.946" filterUnits="userSpaceOnUse"
      color-interpolation-filters="sRGB">
      <feFlood flood-opacity="0" result="BackgroundImageFix" />
      <feColorMatrix in="SourceAlpha" type="matrix" values="0 0 0 0 0 0 0 0 0 0 0 0 0 0 0 0 0 0 127 0"
        result="hardAlpha" />
      <feOffset dy="15" />
      <feGaussianBlur stdDeviation="17.5" />
      <feColorMatrix type="matrix" values="0 0 0 0 0.129412 0 0 0 0 0.133333 0 0 0 0 0.145098 0 0 0 0.08 0" />
      <feBlend mode="normal" in2="BackgroundImageFix" result="effect1_dropShadow_23916_75053" />
      <feBlend mode="normal" in="SourceGraphic" in2="effect1_dropShadow_23916_75053" result="shape" />
    </filter>
    <filter id="filter3_b_23916_75053" x="294.69" y="178.71" width="70.1553" height="57.568"
      filterUnits="userSpaceOnUse" color-interpolation-filters="sRGB">
      <feFlood flood-opacity="0" result="BackgroundImageFix" />
      <feGaussianBlur in="BackgroundImageFix" stdDeviation="7" />
      <feComposite in2="SourceAlpha" operator="in" result="effect1_backgroundBlur_23916_75053" />
      <feBlend mode="normal" in="SourceGraphic" in2="effect1_backgroundBlur_23916_75053" result="shape" />
    </filter>
    <filter id="filter4_d_23916_75053" x="109.5" y="0" width="200" height="317" filterUnits="userSpaceOnUse"
      color-interpolation-filters="sRGB">
      <feFlood flood-opacity="0" result="BackgroundImageFix" />
      <feColorMatrix in="SourceAlpha" type="matrix" values="0 0 0 0 0 0 0 0 0 0 0 0 0 0 0 0 0 0 127 0"
        result="hardAlpha" />
      <feOffset dy="15" />
      <feGaussianBlur stdDeviation="17.5" />
      <feColorMatrix type="matrix" values="0 0 0 0 0.129412 0 0 0 0 0.133333 0 0 0 0 0.145098 0 0 0 0.08 0" />
      <feBlend mode="normal" in2="BackgroundImageFix" result="effect1_dropShadow_23916_75053" />
      <feBlend mode="normal" in="SourceGraphic" in2="effect1_dropShadow_23916_75053" result="shape" />
    </filter>
    <linearGradient id="paint0_linear_23916_75053" x1="209.5" y1="20" x2="209.5" y2="267"
      gradientUnits="userSpaceOnUse">
      <stop stop-color="#3547E9" />
      <stop offset="1" stop-color="#2E0DBE" />
    </linearGradient>
  </defs>
</svg>