<?xml version="1.0" encoding="UTF-8" standalone="no"?><!DOCTYPE svg PUBLIC "-//W3C//DTD SVG 1.1//EN" "http://www.w3.org/Graphics/SVG/1.1/DTD/svg11.dtd"><svg width="100%" height="100%" viewBox="0 0 356 377" version="1.1" xmlns="http://www.w3.org/2000/svg" xmlns:xlink="http://www.w3.org/1999/xlink" xml:space="preserve" xmlns:serif="http://www.serif.com/" style="fill-rule:evenodd;clip-rule:evenodd;stroke-linejoin:round;stroke-miterlimit:2;"><g><rect x="0" y="193.226" width="121" height="183" style="fill:#3443e4;fill-rule:nonzero;"/><path d="M66.276,236.664c0,1.419 -0.28,2.782 -0.84,4.088c-0.583,1.347 -1.316,2.625 -2.184,3.808c-0.924,1.228 -1.935,2.388 -3.024,3.472c-1.082,1.084 -2.184,2.148 -3.304,3.192c-0.56,0.523 -1.176,1.12 -1.848,1.792c-0.635,0.635 -1.251,1.289 -1.848,1.96c-0.555,0.623 -1.097,1.258 -1.624,1.904c-0.448,0.56 -0.728,1.027 -0.84,1.4l16.688,0l0,7l-25.872,0c-0.075,-0.41 -0.112,-0.933 -0.112,-1.568l0,-1.344c0,-1.792 0.28,-3.434 0.84,-4.928c0.586,-1.473 1.358,-2.866 2.296,-4.144c0.933,-1.306 1.983,-2.524 3.136,-3.64c1.185,-1.111 2.361,-2.231 3.528,-3.36c0.896,-0.858 1.736,-1.661 2.52,-2.408c0.722,-0.717 1.414,-1.464 2.072,-2.24c0.597,-0.746 1.064,-1.474 1.4,-2.184c0.326,-0.702 0.498,-1.466 0.504,-2.24c0,-1.642 -0.467,-2.8 -1.4,-3.472c-0.933,-0.672 -2.09,-1.008 -3.472,-1.008c-1.008,0 -1.96,0.168 -2.856,0.504c-0.859,0.299 -1.661,0.672 -2.408,1.12c-0.71,0.411 -1.325,0.84 -1.848,1.288c-0.41,0.314 -0.803,0.651 -1.176,1.008l-4.144,-5.824c1.643,-1.53 3.547,-2.781 5.712,-3.752c2.203,-1.008 4.555,-1.512 7.056,-1.512c2.277,0 4.237,0.262 5.88,0.784c1.643,0.523 2.987,1.27 4.032,2.24c1.079,0.928 1.891,2.126 2.352,3.472c0.523,1.344 0.784,2.875 0.784,4.592Z" style="fill:#fff;fill-rule:nonzero;"/><path d="M7.526,181.226l-7.526,12l121,0l-8.105,-12l-105.369,0Z" style="fill:#6371ff;fill-rule:nonzero;"/></g><g><rect x="235" y="220.226" width="120" height="156" style="fill:#3443e4;fill-rule:nonzero;"/><path d="M294.268,291.12c-1.008,0 -2.072,-0.074 -3.192,-0.224c-1.091,-0.107 -2.176,-0.276 -3.248,-0.504c-0.962,-0.202 -1.915,-0.445 -2.856,-0.728c-0.859,-0.261 -1.531,-0.504 -2.016,-0.728l1.624,-6.944c0.971,0.411 2.203,0.859 3.696,1.344c1.531,0.448 3.416,0.672 5.656,0.672c2.576,0 4.461,-0.485 5.656,-1.456c1.195,-0.97 1.792,-2.277 1.792,-3.92c-0,-1.008 -0.224,-1.848 -0.672,-2.52c-0.412,-0.71 -1.013,-1.292 -1.736,-1.68c-0.747,-0.448 -1.643,-0.746 -2.688,-0.896c-1.072,-0.192 -2.159,-0.285 -3.248,-0.28l-3.248,0l-0,-6.72l3.696,0c0.821,0 1.605,-0.074 2.352,-0.224c0.784,-0.149 1.475,-0.392 2.072,-0.728c0.583,-0.358 1.065,-0.859 1.4,-1.456c0.373,-0.634 0.56,-1.418 0.56,-2.352c-0,-0.709 -0.149,-1.325 -0.448,-1.848c-0.29,-0.512 -0.692,-0.953 -1.176,-1.288c-0.448,-0.336 -0.989,-0.578 -1.624,-0.728c-0.598,-0.186 -1.221,-0.281 -1.848,-0.28c-1.605,0 -3.099,0.243 -4.48,0.728c-1.293,0.461 -2.533,1.062 -3.696,1.792l-2.968,-6.104c0.676,-0.418 1.367,-0.81 2.072,-1.176c0.821,-0.41 1.717,-0.784 2.688,-1.12c1.007,-0.346 2.036,-0.626 3.08,-0.84c1.162,-0.228 2.344,-0.34 3.528,-0.336c2.277,0 4.237,0.28 5.88,0.84c1.68,0.523 3.061,1.288 4.144,2.296c1.068,0.949 1.893,2.14 2.408,3.472c0.523,1.307 0.784,2.744 0.784,4.312c-0,1.531 -0.429,3.024 -1.288,4.48c-0.827,1.389 -2.031,2.516 -3.472,3.248c2.016,0.822 3.565,2.054 4.648,3.696c1.12,1.606 1.68,3.547 1.68,5.824c-0,1.792 -0.299,3.454 -0.896,4.984c-0.597,1.494 -1.531,2.8 -2.8,3.92c-1.269,1.083 -2.893,1.942 -4.872,2.576c-1.941,0.598 -4.256,0.896 -6.944,0.896Z" style="fill:#fff;fill-rule:nonzero;"/><path d="M242.964,208.28l-7.464,12l120,0l-8.038,-12l-104.498,0Z" style="fill:#6371ff;fill-rule:nonzero;"/></g><g><rect x="113" y="142.226" width="130" height="234" style="fill:url(#_Linear1);fill-rule:nonzero;"/></g><path d="M165.42,182.536c1.134,-0.471 2.255,-0.975 3.36,-1.512c1.181,-0.59 2.34,-1.225 3.472,-1.904c1.09,-0.689 2.155,-1.417 3.192,-2.184c0.999,-0.743 1.936,-1.567 2.8,-2.464l5.824,0l-0,38.808l-8.344,0l-0,-27.944c-1.194,0.788 -2.449,1.481 -3.752,2.072c-1.323,0.575 -2.668,1.098 -4.032,1.568l-2.52,-6.44Z" style="fill:#fff;fill-rule:nonzero;"/><path d="M120.586,130.28l-8.086,12l130,0l-8.708,-12l-113.206,0Z" style="fill:#6371ff;fill-rule:nonzero;"/><path d="M163.86,4.788c0.456,-0.562 1.196,-0.562 1.653,0l5.872,7.228c0.457,0.561 0.457,1.472 0,2.034l-5.872,7.228c-0.457,0.562 -1.197,0.562 -1.653,0l-5.873,-7.228c-0.457,-0.562 -0.457,-1.473 0,-2.034l5.873,-7.228Zm25.638,0c0.457,-0.562 1.197,-0.562 1.654,0l5.872,7.228c0.457,0.561 0.457,1.472 0,2.034l-5.872,7.228c-0.457,0.562 -1.197,0.562 -1.653,0l-5.873,-7.228c-0.457,-0.562 -0.457,-1.473 0,-2.034l5.872,-7.228Z" style="fill:#2735c2;fill-rule:nonzero;"/><path d="M203.5,4.841l0,25.418c0,1.518 -1.731,2.475 -3.061,1.742c-4.523,-2.493 -13.5,-6.645 -23.12,-6.645c-9.538,0 -18.271,4.083 -22.723,6.582c-1.335,0.749 -3.096,-0.21 -3.096,-1.74l0,-25.538c0,-1.886 2.46,-2.608 3.479,-1.021l7.927,12.33c0.347,0.541 0.947,0.868 1.59,0.868c0.644,0 1.245,-0.329 1.592,-0.871l9.654,-15.094c0.347,-0.543 0.948,-0.872 1.593,-0.872c0.638,0 1.235,0.323 1.583,0.858l9.988,15.325c0.349,0.535 0.945,0.858 1.583,0.858c0.643,-0 1.243,-0.328 1.59,-0.868l7.942,-12.354c1.019,-1.586 3.479,-0.864 3.479,1.022Z" style="fill:#5060ee;fill-rule:nonzero;"/><circle cx="177.339" cy="17.405" r="4.169" style="fill:#2735c2;"/><defs><linearGradient id="_Linear1" x1="0" y1="0" x2="1" y2="0" gradientUnits="userSpaceOnUse" gradientTransform="matrix(1.43284e-14,234,-234,1.43284e-14,178,142.226)"><stop offset="0" style="stop-color:#3547e9;stop-opacity:1"/><stop offset="1" style="stop-color:#2e0dbe;stop-opacity:1"/></linearGradient></defs></svg>