<?xml version="1.0" encoding="UTF-8" standalone="no"?>
<!DOCTYPE svg PUBLIC "-//W3C//DTD SVG 1.1//EN" "http://www.w3.org/Graphics/SVG/1.1/DTD/svg11.dtd"><svg width="513"
  height="548" viewBox="0 0 513 548" version="1.1" xmlns="http://www.w3.org/2000/svg"
  xmlns:xlink="http://www.w3.org/1999/xlink" xml:space="preserve" xmlns:serif="http://www.serif.com/"
  style="fill-rule:evenodd;clip-rule:evenodd;stroke-linejoin:round;stroke-miterlimit:2;">
  <g>
    <rect x="0" y="277.147" width="162" height="270" style="fill:#3443e4;fill-rule:nonzero;" />
    <path
      d="M90.712,339.355c0,1.824 -0.36,3.576 -1.08,5.256c-0.72,1.68 -1.656,3.312 -2.808,4.896c-1.152,1.536 -2.448,3.024 -3.888,4.464c-1.44,1.44 -2.856,2.808 -4.248,4.104c-0.72,0.672 -1.512,1.44 -2.376,2.304c-0.816,0.816 -1.608,1.656 -2.376,2.52c-0.768,0.864 -1.464,1.68 -2.088,2.448c-0.576,0.72 -0.936,1.32 -1.08,1.8l21.456,-0l0,9l-33.264,-0c-0.096,-0.528 -0.144,-1.2 -0.144,-2.016l0,-1.728c0,-2.304 0.36,-4.416 1.08,-6.336c0.768,-1.92 1.752,-3.696 2.952,-5.328c1.2,-1.68 2.544,-3.24 4.032,-4.68c1.536,-1.44 3.048,-2.88 4.536,-4.32c1.152,-1.104 2.232,-2.136 3.24,-3.096c1.008,-1.008 1.896,-1.968 2.664,-2.88c0.768,-0.96 1.368,-1.896 1.8,-2.808c0.432,-0.96 0.648,-1.92 0.648,-2.88c0,-2.112 -0.6,-3.6 -1.8,-4.464c-1.2,-0.864 -2.688,-1.296 -4.464,-1.296c-1.296,-0 -2.52,0.216 -3.672,0.648c-1.104,0.384 -2.136,0.864 -3.096,1.44c-0.912,0.528 -1.704,1.08 -2.376,1.656c-0.672,0.528 -1.176,0.96 -1.512,1.296l-5.328,-7.488c2.112,-1.968 4.56,-3.576 7.344,-4.824c2.832,-1.296 5.856,-1.944 9.072,-1.944c2.928,-0 5.448,0.336 7.56,1.008c2.112,0.672 3.84,1.632 5.184,2.88c1.392,1.2 2.4,2.688 3.024,4.464c0.672,1.728 1.008,3.696 1.008,5.904Z"
      style="fill:#fff;fill-rule:nonzero;" />
    <path d="M10.077,260.147l-10.077,17l162,-0l0,-17l-151.923,-0Z" style="fill:#6371ff;fill-rule:nonzero;" />
  </g>
  <g>
    <rect x="350" y="317.147" width="162" height="230" style="fill:#3443e4;fill-rule:nonzero;" />
    <path
      d="M421.416,416.227c-1.296,-0 -2.664,-0.096 -4.104,-0.288c-1.44,-0.144 -2.832,-0.36 -4.176,-0.648c-1.344,-0.288 -2.568,-0.6 -3.672,-0.936c-1.104,-0.336 -1.968,-0.648 -2.592,-0.936l2.088,-8.928c1.248,0.528 2.832,1.104 4.752,1.728c1.968,0.576 4.392,0.864 7.272,0.864c3.312,-0 5.736,-0.624 7.272,-1.872c1.536,-1.248 2.304,-2.928 2.304,-5.04c0,-1.296 -0.288,-2.376 -0.864,-3.24c-0.528,-0.912 -1.272,-1.632 -2.232,-2.16c-0.96,-0.576 -2.112,-0.96 -3.456,-1.152c-1.296,-0.24 -2.688,-0.36 -4.176,-0.36l-4.176,-0l0,-8.64l4.752,-0c1.056,-0 2.064,-0.096 3.024,-0.288c1.008,-0.192 1.896,-0.504 2.664,-0.936c0.768,-0.48 1.368,-1.104 1.8,-1.872c0.48,-0.816 0.72,-1.824 0.72,-3.024c0,-0.912 -0.192,-1.704 -0.576,-2.376c-0.384,-0.672 -0.888,-1.224 -1.512,-1.656c-0.576,-0.432 -1.272,-0.744 -2.088,-0.936c-0.768,-0.24 -1.56,-0.36 -2.376,-0.36c-2.064,-0 -3.984,0.312 -5.76,0.936c-1.728,0.624 -3.312,1.392 -4.752,2.304l-3.816,-7.848c0.768,-0.48 1.656,-0.984 2.664,-1.512c1.056,-0.528 2.208,-1.008 3.456,-1.44c1.248,-0.432 2.568,-0.792 3.96,-1.08c1.44,-0.288 2.952,-0.432 4.536,-0.432c2.928,-0 5.448,0.36 7.56,1.08c2.16,0.672 3.936,1.656 5.328,2.952c1.392,1.248 2.424,2.736 3.096,4.464c0.672,1.68 1.008,3.528 1.008,5.544c0,1.968 -0.552,3.888 -1.656,5.76c-1.104,1.824 -2.592,3.216 -4.464,4.176c2.592,1.056 4.584,2.64 5.976,4.752c1.44,2.064 2.16,4.56 2.16,7.488c0,2.304 -0.384,4.44 -1.152,6.408c-0.768,1.92 -1.968,3.6 -3.6,5.04c-1.632,1.392 -3.72,2.496 -6.264,3.312c-2.496,0.768 -5.472,1.152 -8.928,1.152Z"
      style="fill:#fff;fill-rule:nonzero;" />
    <path d="M350,299.147l0,18l162,-0l-10.852,-18l-151.148,-0Z" style="fill:#6371ff;fill-rule:nonzero;" />
  </g>
  <g>
    <rect x="162" y="205.147" width="188" height="342" style="fill:url(#_Linear1);fill-rule:nonzero;" />
  </g>
  <path
    d="M241.04,263.619c1.392,-0.576 2.832,-1.224 4.32,-1.944c1.536,-0.768 3.024,-1.584 4.464,-2.448c1.44,-0.912 2.808,-1.848 4.104,-2.808c1.344,-1.008 2.544,-2.064 3.6,-3.168l7.488,-0l0,49.896l-10.728,-0l0,-35.928c-1.44,0.96 -3.048,1.848 -4.824,2.664c-1.776,0.768 -3.504,1.44 -5.184,2.016l-3.24,-8.28Z"
    style="fill:#fff;fill-rule:nonzero;" />
  <path d="M173.632,188.147l-11.632,17l187,-0l-12.526,-17l-162.842,-0Z" style="fill:#6371ff;fill-rule:nonzero;" />
  <path
    d="M236.249,7.564c0.655,-0.806 1.717,-0.806 2.372,0l8.429,10.374c0.656,0.807 0.656,2.114 0,2.921l-8.429,10.374c-0.655,0.806 -1.717,0.806 -2.372,-0l-8.429,-10.374c-0.656,-0.807 -0.656,-2.114 0,-2.921l8.429,-10.374Z"
    style="fill:#2735c2;fill-rule:nonzero;" />
  <path
    d="M273.048,7.564c0.655,-0.806 1.717,-0.806 2.372,0l8.429,10.374c0.656,0.807 0.656,2.114 0,2.921l-8.429,10.374c-0.655,0.806 -1.717,0.806 -2.372,-0l-8.429,-10.374c-0.656,-0.807 -0.656,-2.114 0,-2.921l8.429,-10.374Z"
    style="fill:#2735c2;fill-rule:nonzero;" />
  <path
    d="M293.143,4.84l0,40.84c0,1.518 -1.728,2.464 -3.044,1.705c-5.915,-3.412 -19.691,-10.298 -34.533,-10.298c-14.748,-0 -28.154,6.799 -33.984,10.233c-1.319,0.777 -3.074,-0.171 -3.074,-1.701l0,-41.038c0,-1.886 2.459,-2.608 3.479,-1.022l13.586,21.133c0.745,1.159 2.439,1.157 3.182,-0.003l15.234,-23.817c0.74,-1.157 2.426,-1.164 3.175,-0.014l15.726,24.127c0.748,1.148 2.432,1.143 3.173,-0.01l13.6,-21.157c1.02,-1.586 3.48,-0.864 3.48,1.022Z"
    style="fill:#5060ee;fill-rule:nonzero;" />
  <circle cx="255.597" cy="25.673" r="5.983" style="fill:#2735c2;" />
  <defs>
    <linearGradient id="_Linear1" x1="0" y1="0" x2="1" y2="0" gradientUnits="userSpaceOnUse"
      gradientTransform="matrix(2.09415e-14,342,-342,2.09415e-14,256,205.147)">
      <stop offset="0" style="stop-color:#3547e9;stop-opacity:1" />
      <stop offset="1" style="stop-color:#2e0dbe;stop-opacity:1" />
    </linearGradient>
  </defs>
</svg>