<?xml version="1.0" encoding="UTF-8" standalone="no"?>
<!DOCTYPE svg PUBLIC "-//W3C//DTD SVG 1.1//EN" "http://www.w3.org/Graphics/SVG/1.1/DTD/svg11.dtd"><svg width="513"
  height="547" viewBox="0 0 513 547" version="1.1" xmlns="http://www.w3.org/2000/svg"
  xmlns:xlink="http://www.w3.org/1999/xlink" xml:space="preserve" xmlns:serif="http://www.serif.com/"
  fill-rule="evenodd" clip-rule="evenodd" stroke-linejoin="round" stroke-miterlimit="2">
  <g>
    <rect x="0" y="277.147" width="162" height="270" fill="#3443e4" fill-rule="nonzero" />
    <path
      d="M90.712 339.355c0 1.824-.36 3.576-1.08 5.256a25.204 25.204 0 0 1-2.808 4.896 41.729 41.729 0 0 1-3.888 4.464 165.597 165.597 0 0 1-4.248 4.104c-.72.672-1.512 1.44-2.376 2.304a58.943 58.943 0 0 0-2.376 2.52 72.915 72.915 0 0 0-2.088 2.448c-.576.72-.936 1.32-1.08 1.8h21.456v9H58.96c-.096-.528-.144-1.2-.144-2.016v-1.728c0-2.304.36-4.416 1.08-6.336a23.997 23.997 0 0 1 2.952-5.328c1.2-1.68 2.544-3.24 4.032-4.68 1.536-1.44 3.048-2.88 4.536-4.32 1.152-1.104 2.232-2.136 3.24-3.096a46.15 46.15 0 0 0 2.664-2.88c.768-.96 1.368-1.896 1.8-2.808.432-.96.648-1.92.648-2.88 0-2.112-.6-3.6-1.8-4.464-1.2-.864-2.688-1.296-4.464-1.296-1.296 0-2.52.216-3.672.648a16.592 16.592 0 0 0-3.096 1.44 15.834 15.834 0 0 0-2.376 1.656c-.672.528-1.176.96-1.512 1.296l-5.328-7.488c2.112-1.968 4.56-3.576 7.344-4.824 2.832-1.296 5.856-1.944 9.072-1.944 2.928 0 5.448.336 7.56 1.008 2.112.672 3.84 1.632 5.184 2.88 1.392 1.2 2.4 2.688 3.024 4.464.672 1.728 1.008 3.696 1.008 5.904Z"
      fill="#fff" fill-rule="nonzero" />
    <path d="M10.077 260.147 0 277.147h162v-17H10.077Z" fill="#6371ff" fill-rule="nonzero" />
  </g>
  <g>
    <rect x="350" y="317.147" width="162" height="230" fill="#3443e4" fill-rule="nonzero" />
    <path
      d="M421.416 416.227c-1.296 0-2.664-.096-4.104-.288a37.936 37.936 0 0 1-4.176-.648 45.178 45.178 0 0 1-3.672-.936c-1.104-.336-1.968-.648-2.592-.936l2.088-8.928c1.248.528 2.832 1.104 4.752 1.728 1.968.576 4.392.864 7.272.864 3.312 0 5.736-.624 7.272-1.872 1.536-1.248 2.304-2.928 2.304-5.04 0-1.296-.288-2.376-.864-3.24a5.687 5.687 0 0 0-2.232-2.16c-.96-.576-2.112-.96-3.456-1.152a22.938 22.938 0 0 0-4.176-.36h-4.176v-8.64h4.752c1.056 0 2.064-.096 3.024-.288 1.008-.192 1.896-.504 2.664-.936a5.171 5.171 0 0 0 1.8-1.872c.48-.816.72-1.824.72-3.024 0-.912-.192-1.704-.576-2.376a5.007 5.007 0 0 0-1.512-1.656c-.576-.432-1.272-.744-2.088-.936a7.92 7.92 0 0 0-2.376-.36c-2.064 0-3.984.312-5.76.936a24.224 24.224 0 0 0-4.752 2.304l-3.816-7.848a40.65 40.65 0 0 1 2.664-1.512 28.769 28.769 0 0 1 3.456-1.44 31.784 31.784 0 0 1 3.96-1.08 23.09 23.09 0 0 1 4.536-.432c2.928 0 5.448.36 7.56 1.08 2.16.672 3.936 1.656 5.328 2.952a11.533 11.533 0 0 1 3.096 4.464c.672 1.68 1.008 3.528 1.008 5.544 0 1.968-.552 3.888-1.656 5.76-1.104 1.824-2.592 3.216-4.464 4.176 2.592 1.056 4.584 2.64 5.976 4.752 1.44 2.064 2.16 4.56 2.16 7.488 0 2.304-.384 4.44-1.152 6.408-.768 1.92-1.968 3.6-3.6 5.04-1.632 1.392-3.72 2.496-6.264 3.312-2.496.768-5.472 1.152-8.928 1.152Z"
      fill="#fff" fill-rule="nonzero" />
    <path d="M350 299.147v18h162l-10.852-18H350Z" fill="#6371ff" fill-rule="nonzero" />
  </g>
  <g>
    <rect x="162" y="205.147" width="188" height="342" fill="url(#_Linear1)" fill-rule="nonzero" />
  </g>
  <path
    d="M241.04 263.619a81.353 81.353 0 0 0 4.32-1.944 66.314 66.314 0 0 0 4.464-2.448 68.17 68.17 0 0 0 4.104-2.808 29.253 29.253 0 0 0 3.6-3.168h7.488v49.896h-10.728v-35.928c-1.44.96-3.048 1.848-4.824 2.664a71.536 71.536 0 0 1-5.184 2.016l-3.24-8.28Z"
    fill="#fff" fill-rule="nonzero" />
  <path d="m173.632 188.147-11.632 17h187l-12.526-17H173.632Z" fill="#6371ff" fill-rule="nonzero" />
  <path
    d="M236.249 7.564c.655-.806 1.717-.806 2.372 0l8.429 10.374c.656.807.656 2.114 0 2.921l-8.429 10.374c-.655.806-1.717.806-2.372 0l-8.429-10.374c-.656-.807-.656-2.114 0-2.921l8.429-10.374Zm36.799 0c.655-.806 1.717-.806 2.372 0l8.429 10.374c.656.807.656 2.114 0 2.921l-8.429 10.374c-.655.806-1.717.806-2.372 0l-8.429-10.374c-.656-.807-.656-2.114 0-2.921l8.429-10.374Z"
    fill="#2735c2" fill-rule="nonzero" />
  <path
    d="M293.143 4.84v40.84c0 1.518-1.728 2.464-3.044 1.705-5.915-3.412-19.691-10.298-34.533-10.298-14.748 0-28.154 6.799-33.984 10.233-1.319.777-3.074-.171-3.074-1.701V4.581c0-1.886 2.459-2.608 3.479-1.022l13.586 21.133a1.89 1.89 0 0 0 3.182-.003L253.989.872a1.89 1.89 0 0 1 3.175-.014l15.726 24.127a1.89 1.89 0 0 0 3.173-.01l13.6-21.157c1.02-1.586 3.48-.864 3.48 1.022Z"
    fill="#5060ee" fill-rule="nonzero" />
  <circle cx="255.597" cy="25.673" r="5.983" fill="#2735c2" />
  <defs>
    <linearGradient id="_Linear1" x1="0" y1="0" x2="1" y2="0" gradientUnits="userSpaceOnUse"
      gradientTransform="matrix(2.09415e-14,342,-342,2.09415e-14,256,205.147)">
      <stop offset="0" stop-color="#3547e9" stop-opacity="1" />
      <stop offset="1" stop-color="#2e0dbe" stop-opacity="1" />
    </linearGradient>
  </defs>
</svg>