<svg width="380" height="308" viewBox="0 0 380 308" fill="none" xmlns="http://www.w3.org/2000/svg">
  <g filter="url(#filter0_d_23916_75053)">
    <g filter="url(#filter1_d_23916_75053)">
      <path d="M190 68H345V270H190V68Z" fill="url(#paint0_linear_23916_75053)" />
    </g>
    <g filter="url(#filter2_b_23916_75053)">
      <path
        d="M258.451 172.256C258.761 172.256 259.065 172.229 259.363 172.176C259.662 172.112 259.918 172.021 260.131 171.904C260.142 171.787 260.147 171.685 260.147 171.6C260.147 171.515 260.147 171.44 260.147 171.376C260.147 170.949 260.115 170.549 260.051 170.176C259.998 169.792 259.897 169.461 259.747 169.184C259.609 168.896 259.411 168.672 259.155 168.512C258.91 168.341 258.601 168.256 258.227 168.256C257.918 168.256 257.651 168.32 257.427 168.448C257.214 168.576 257.038 168.741 256.899 168.944C256.761 169.147 256.659 169.365 256.595 169.6C256.531 169.835 256.499 170.064 256.499 170.288C256.499 170.939 256.654 171.429 256.963 171.76C257.283 172.091 257.779 172.256 258.451 172.256ZM259.971 173.424C259.715 173.541 259.433 173.632 259.123 173.696C258.814 173.76 258.515 173.792 258.227 173.792C257.566 173.792 257.001 173.707 256.531 173.536C256.073 173.355 255.694 173.109 255.395 172.8C255.107 172.48 254.894 172.112 254.755 171.696C254.617 171.28 254.547 170.832 254.547 170.352C254.547 169.936 254.617 169.515 254.755 169.088C254.894 168.651 255.113 168.251 255.411 167.888C255.71 167.525 256.089 167.232 256.547 167.008C257.006 166.773 257.55 166.656 258.179 166.656C259.481 166.656 260.462 167.077 261.123 167.92C261.795 168.752 262.131 169.931 262.131 171.456C262.131 173.611 261.577 175.243 260.467 176.352C259.358 177.461 257.657 178.021 255.363 178.032L255.283 176.416C255.923 176.416 256.499 176.363 257.011 176.256C257.534 176.149 257.987 175.979 258.371 175.744C258.766 175.509 259.097 175.205 259.363 174.832C259.63 174.448 259.833 173.979 259.971 173.424ZM265.417 178C265.481 177.189 265.625 176.336 265.849 175.44C266.073 174.544 266.345 173.675 266.665 172.832C266.996 171.979 267.353 171.184 267.737 170.448C268.132 169.701 268.521 169.077 268.905 168.576H263.801V166.912H271.209V168.384C270.857 168.779 270.473 169.317 270.057 170C269.641 170.683 269.246 171.456 268.873 172.32C268.5 173.173 268.174 174.091 267.897 175.072C267.63 176.053 267.465 177.029 267.401 178H265.417ZM280.367 175.024C280.367 175.483 280.287 175.909 280.127 176.304C279.967 176.699 279.727 177.04 279.407 177.328C279.087 177.616 278.687 177.84 278.207 178C277.738 178.16 277.194 178.24 276.575 178.24C275.85 178.24 275.247 178.139 274.767 177.936C274.287 177.733 273.903 177.477 273.615 177.168C273.327 176.859 273.119 176.528 272.991 176.176C272.874 175.813 272.815 175.472 272.815 175.152C272.815 174.832 272.858 174.539 272.943 174.272C273.039 173.995 273.167 173.744 273.327 173.52C273.487 173.285 273.668 173.072 273.871 172.88C274.074 172.688 274.287 172.517 274.511 172.368C274.02 172.027 273.652 171.659 273.407 171.264C273.172 170.859 273.055 170.368 273.055 169.792C273.055 169.376 273.135 168.981 273.295 168.608C273.466 168.224 273.706 167.888 274.015 167.6C274.324 167.312 274.698 167.083 275.135 166.912C275.572 166.741 276.058 166.656 276.591 166.656C277.22 166.656 277.754 166.747 278.191 166.928C278.639 167.109 279.002 167.344 279.279 167.632C279.567 167.92 279.775 168.24 279.903 168.592C280.031 168.944 280.095 169.285 280.095 169.616C280.095 170.203 279.935 170.725 279.615 171.184C279.295 171.632 278.927 171.989 278.511 172.256C279.14 172.597 279.604 172.992 279.903 173.44C280.212 173.888 280.367 174.416 280.367 175.024ZM274.719 175.12C274.719 175.28 274.751 175.451 274.815 175.632C274.879 175.813 274.986 175.979 275.135 176.128C275.284 176.277 275.476 176.405 275.711 176.512C275.946 176.608 276.239 176.656 276.591 176.656C276.911 176.656 277.188 176.613 277.423 176.528C277.658 176.443 277.85 176.331 277.999 176.192C278.148 176.043 278.26 175.877 278.335 175.696C278.41 175.504 278.447 175.312 278.447 175.12C278.447 174.821 278.388 174.56 278.271 174.336C278.154 174.112 277.983 173.92 277.759 173.76C277.546 173.589 277.29 173.445 276.991 173.328C276.692 173.2 276.362 173.088 275.999 172.992C275.615 173.237 275.306 173.536 275.071 173.888C274.836 174.229 274.719 174.64 274.719 175.12ZM278.207 169.648C278.207 169.509 278.175 169.36 278.111 169.2C278.058 169.029 277.962 168.875 277.823 168.736C277.695 168.597 277.53 168.48 277.327 168.384C277.124 168.288 276.879 168.24 276.591 168.24C276.303 168.24 276.052 168.288 275.839 168.384C275.636 168.469 275.471 168.587 275.343 168.736C275.215 168.875 275.119 169.029 275.055 169.2C274.991 169.36 274.959 169.52 274.959 169.68C274.959 170.085 275.108 170.469 275.407 170.832C275.716 171.195 276.228 171.483 276.943 171.696C277.338 171.451 277.647 171.173 277.871 170.864C278.095 170.544 278.207 170.139 278.207 169.648ZM250.574 196C249.774 194.272 249.001 192.464 248.254 190.576C247.518 188.688 246.83 186.8 246.19 184.912H248.414C248.67 185.659 248.931 186.421 249.198 187.2C249.465 187.979 249.731 188.747 249.998 189.504C250.265 190.251 250.531 190.976 250.798 191.68C251.065 192.384 251.326 193.029 251.582 193.616C251.827 193.029 252.083 192.389 252.35 191.696C252.617 190.992 252.883 190.261 253.15 189.504C253.427 188.747 253.699 187.979 253.966 187.2C254.233 186.421 254.489 185.659 254.734 184.912H256.894C256.243 186.8 255.55 188.688 254.814 190.576C254.078 192.464 253.31 194.272 252.51 196H250.574ZM265.159 191.808C265.159 192.469 265.063 193.072 264.871 193.616C264.679 194.16 264.407 194.624 264.055 195.008C263.703 195.392 263.277 195.691 262.775 195.904C262.285 196.117 261.741 196.224 261.143 196.224C260.546 196.224 260.002 196.117 259.511 195.904C259.021 195.691 258.599 195.392 258.247 195.008C257.895 194.624 257.618 194.16 257.415 193.616C257.223 193.072 257.127 192.469 257.127 191.808C257.127 191.147 257.223 190.549 257.415 190.016C257.618 189.472 257.895 189.008 258.247 188.624C258.61 188.24 259.037 187.947 259.527 187.744C260.018 187.531 260.557 187.424 261.143 187.424C261.73 187.424 262.269 187.531 262.759 187.744C263.261 187.947 263.687 188.24 264.039 188.624C264.391 189.008 264.663 189.472 264.855 190.016C265.058 190.549 265.159 191.147 265.159 191.808ZM263.175 191.808C263.175 190.976 262.994 190.32 262.631 189.84C262.279 189.349 261.783 189.104 261.143 189.104C260.503 189.104 260.002 189.349 259.639 189.84C259.287 190.32 259.111 190.976 259.111 191.808C259.111 192.651 259.287 193.317 259.639 193.808C260.002 194.299 260.503 194.544 261.143 194.544C261.783 194.544 262.279 194.299 262.631 193.808C262.994 193.317 263.175 192.651 263.175 191.808ZM267.058 185.424L268.994 185.104V187.632H271.97V189.248H268.994V192.656C268.994 193.328 269.101 193.808 269.314 194.096C269.527 194.384 269.89 194.528 270.402 194.528C270.754 194.528 271.063 194.491 271.33 194.416C271.607 194.341 271.826 194.272 271.986 194.208L272.306 195.744C272.082 195.84 271.789 195.936 271.426 196.032C271.063 196.139 270.637 196.192 270.146 196.192C269.549 196.192 269.047 196.112 268.642 195.952C268.247 195.792 267.933 195.563 267.698 195.264C267.463 194.955 267.298 194.587 267.202 194.16C267.106 193.723 267.058 193.227 267.058 192.672V185.424ZM273.237 191.856C273.237 191.12 273.343 190.475 273.557 189.92C273.781 189.365 274.074 188.907 274.437 188.544C274.799 188.171 275.215 187.893 275.685 187.712C276.154 187.52 276.634 187.424 277.125 187.424C278.277 187.424 279.173 187.781 279.813 188.496C280.463 189.211 280.789 190.277 280.789 191.696C280.789 191.803 280.783 191.925 280.773 192.064C280.773 192.192 280.767 192.309 280.757 192.416H275.237C275.29 193.088 275.525 193.611 275.941 193.984C276.367 194.347 276.981 194.528 277.781 194.528C278.25 194.528 278.677 194.485 279.061 194.4C279.455 194.315 279.765 194.224 279.989 194.128L280.245 195.712C280.138 195.765 279.989 195.824 279.797 195.888C279.615 195.941 279.402 195.989 279.157 196.032C278.922 196.085 278.666 196.128 278.389 196.16C278.111 196.192 277.829 196.208 277.541 196.208C276.805 196.208 276.165 196.101 275.621 195.888C275.077 195.664 274.629 195.36 274.277 194.976C273.925 194.581 273.663 194.123 273.493 193.6C273.322 193.067 273.237 192.485 273.237 191.856ZM278.853 190.992C278.853 190.725 278.815 190.475 278.741 190.24C278.666 189.995 278.554 189.787 278.405 189.616C278.266 189.435 278.09 189.296 277.877 189.2C277.674 189.093 277.429 189.04 277.141 189.04C276.842 189.04 276.581 189.099 276.357 189.216C276.133 189.323 275.941 189.467 275.781 189.648C275.631 189.829 275.514 190.037 275.429 190.272C275.343 190.507 275.285 190.747 275.253 190.992H278.853ZM284.937 194.608C285.449 194.608 285.823 194.549 286.057 194.432C286.292 194.304 286.409 194.091 286.409 193.792C286.409 193.515 286.281 193.285 286.025 193.104C285.78 192.923 285.369 192.725 284.793 192.512C284.441 192.384 284.116 192.251 283.817 192.112C283.529 191.963 283.279 191.792 283.065 191.6C282.852 191.408 282.681 191.179 282.553 190.912C282.436 190.635 282.377 190.299 282.377 189.904C282.377 189.136 282.66 188.533 283.225 188.096C283.791 187.648 284.559 187.424 285.529 187.424C286.02 187.424 286.489 187.472 286.937 187.568C287.385 187.653 287.721 187.739 287.945 187.824L287.593 189.392C287.38 189.296 287.108 189.211 286.777 189.136C286.447 189.051 286.063 189.008 285.625 189.008C285.231 189.008 284.911 189.077 284.665 189.216C284.42 189.344 284.297 189.547 284.297 189.824C284.297 189.963 284.319 190.085 284.361 190.192C284.415 190.299 284.5 190.4 284.617 190.496C284.735 190.581 284.889 190.672 285.081 190.768C285.273 190.853 285.508 190.944 285.785 191.04C286.244 191.211 286.633 191.381 286.953 191.552C287.273 191.712 287.535 191.899 287.737 192.112C287.951 192.315 288.105 192.549 288.201 192.816C288.297 193.083 288.345 193.403 288.345 193.776C288.345 194.576 288.047 195.184 287.449 195.6C286.863 196.005 286.02 196.208 284.921 196.208C284.185 196.208 283.593 196.144 283.145 196.016C282.697 195.899 282.383 195.803 282.201 195.728L282.537 194.112C282.825 194.229 283.167 194.341 283.561 194.448C283.967 194.555 284.425 194.608 284.937 194.608Z"
        fill="white" />
    </g>
    <path
      d="M278.776 114.384C278.776 115.803 278.496 117.165 277.936 118.472C277.376 119.779 276.648 121.048 275.752 122.28C274.856 123.475 273.848 124.632 272.728 125.752C271.608 126.872 270.507 127.936 269.424 128.944C268.864 129.467 268.248 130.064 267.576 130.736C266.941 131.371 266.325 132.024 265.728 132.696C265.131 133.368 264.589 134.003 264.104 134.6C263.656 135.16 263.376 135.627 263.264 136H279.952V143H254.08C254.005 142.589 253.968 142.067 253.968 141.432C253.968 140.797 253.968 140.349 253.968 140.088C253.968 138.296 254.248 136.653 254.808 135.16C255.405 133.667 256.171 132.285 257.104 131.016C258.037 129.709 259.083 128.496 260.24 127.376C261.435 126.256 262.611 125.136 263.768 124.016C264.664 123.157 265.504 122.355 266.288 121.608C267.072 120.824 267.763 120.077 268.36 119.368C268.957 118.621 269.424 117.893 269.76 117.184C270.096 116.437 270.264 115.691 270.264 114.944C270.264 113.301 269.797 112.144 268.864 111.472C267.931 110.8 266.773 110.464 265.392 110.464C264.384 110.464 263.432 110.632 262.536 110.968C261.677 111.267 260.875 111.64 260.128 112.088C259.419 112.499 258.803 112.928 258.28 113.376C257.757 113.787 257.365 114.123 257.104 114.384L252.96 108.56C254.603 107.029 256.507 105.779 258.672 104.808C260.875 103.8 263.227 103.296 265.728 103.296C268.005 103.296 269.965 103.557 271.608 104.08C273.251 104.603 274.595 105.349 275.64 106.32C276.723 107.253 277.507 108.411 277.992 109.792C278.515 111.136 278.776 112.667 278.776 114.384Z"
      fill="white" />
    <path d="M189.325 56L179 68H345L333.88 56H189.325Z" fill="#6371FF" />
  </g>
  <g filter="url(#filter3_d_23916_75053)">
    <path d="M35 20H190V267H35V20Z" fill="url(#paint1_linear_23916_75053)" />
  </g>
  <path
    d="M99.92 60.3103C101.003 59.8623 102.123 59.3583 103.28 58.7983C104.475 58.201 105.632 57.5663 106.752 56.8943C107.872 56.185 108.936 55.457 109.944 54.7103C110.989 53.9263 111.923 53.105 112.744 52.2463H118.568V91.0543H110.224V63.1103C109.104 63.857 107.853 64.5477 106.472 65.1823C105.091 65.7797 103.747 66.3023 102.44 66.7503L99.92 60.3103Z"
    fill="white" />
  <g filter="url(#filter4_b_23916_75053)">
    <path
      d="M97.5103 117.27C98.129 117.025 98.7476 116.71 99.3663 116.326C99.9956 115.942 100.55 115.489 101.03 114.966H102.39V126.054H100.454V117.558C100.166 117.782 99.8036 118.001 99.3663 118.214C98.929 118.428 98.5076 118.604 98.1023 118.742L97.5103 117.27ZM108.572 124.998C108.572 125.372 108.444 125.676 108.188 125.91C107.943 126.145 107.644 126.262 107.292 126.262C106.929 126.262 106.625 126.145 106.38 125.91C106.135 125.676 106.012 125.372 106.012 124.998C106.012 124.625 106.135 124.321 106.38 124.086C106.625 123.841 106.929 123.718 107.292 123.718C107.644 123.718 107.943 123.841 108.188 124.086C108.444 124.321 108.572 124.625 108.572 124.998ZM115.542 122.886C115.542 122.534 115.473 122.22 115.334 121.942C115.195 121.665 114.95 121.43 114.598 121.238C114.257 121.046 113.793 120.902 113.206 120.806C112.63 120.71 111.899 120.662 111.014 120.662C111.131 119.638 111.222 118.668 111.286 117.75C111.35 116.822 111.403 115.894 111.446 114.966H117.11V116.598H113.094C113.083 116.78 113.067 116.988 113.046 117.222C113.035 117.446 113.019 117.676 112.998 117.91C112.987 118.145 112.971 118.369 112.95 118.582C112.929 118.796 112.907 118.977 112.886 119.126C114.465 119.212 115.627 119.574 116.374 120.214C117.131 120.844 117.51 121.708 117.51 122.806C117.51 123.308 117.425 123.772 117.254 124.198C117.083 124.625 116.822 124.993 116.47 125.302C116.118 125.612 115.675 125.857 115.142 126.038C114.609 126.209 113.985 126.294 113.27 126.294C112.982 126.294 112.689 126.273 112.39 126.23C112.091 126.188 111.803 126.134 111.526 126.07C111.259 126.017 111.019 125.958 110.806 125.894C110.593 125.83 110.433 125.772 110.326 125.718L110.694 124.086C110.918 124.193 111.238 124.31 111.654 124.438C112.081 124.556 112.598 124.614 113.206 124.614C113.622 124.614 113.979 124.572 114.278 124.486C114.577 124.39 114.817 124.262 114.998 124.102C115.19 123.942 115.329 123.761 115.414 123.558C115.499 123.345 115.542 123.121 115.542 122.886ZM126.46 126.054C126.182 125.628 125.862 125.18 125.5 124.71C125.137 124.241 124.753 123.788 124.348 123.35C123.953 122.913 123.542 122.497 123.116 122.102C122.689 121.708 122.268 121.366 121.852 121.078V126.054H119.836V114.966H121.852V119.542C122.204 119.19 122.572 118.817 122.956 118.422C123.34 118.017 123.718 117.612 124.092 117.206C124.476 116.79 124.838 116.39 125.18 116.006C125.521 115.622 125.83 115.276 126.108 114.966H128.524C128.172 115.372 127.798 115.793 127.404 116.23C127.009 116.668 126.604 117.11 126.188 117.558C125.772 117.996 125.35 118.433 124.924 118.87C124.508 119.308 124.097 119.724 123.692 120.118C124.14 120.46 124.593 120.86 125.052 121.318C125.521 121.766 125.98 122.252 126.428 122.774C126.876 123.286 127.302 123.825 127.708 124.39C128.124 124.945 128.502 125.5 128.844 126.054H126.46ZM95.5741 144.054C94.7741 142.326 94.0008 140.518 93.2541 138.63C92.5181 136.742 91.8301 134.854 91.1901 132.966H93.4141C93.6701 133.713 93.9315 134.476 94.1981 135.254C94.4648 136.033 94.7315 136.801 94.9981 137.558C95.2648 138.305 95.5315 139.03 95.7981 139.734C96.0648 140.438 96.3261 141.084 96.5821 141.67C96.8275 141.084 97.0835 140.444 97.3501 139.75C97.6168 139.046 97.8835 138.316 98.1501 137.558C98.4275 136.801 98.6995 136.033 98.9661 135.254C99.2328 134.476 99.4888 133.713 99.7341 132.966H101.894C101.243 134.854 100.55 136.742 99.8141 138.63C99.0781 140.518 98.3101 142.326 97.5101 144.054H95.5741ZM110.159 139.862C110.159 140.524 110.063 141.126 109.871 141.67C109.679 142.214 109.407 142.678 109.055 143.062C108.703 143.446 108.277 143.745 107.775 143.958C107.285 144.172 106.741 144.278 106.143 144.278C105.546 144.278 105.002 144.172 104.511 143.958C104.021 143.745 103.599 143.446 103.247 143.062C102.895 142.678 102.618 142.214 102.415 141.67C102.223 141.126 102.127 140.524 102.127 139.862C102.127 139.201 102.223 138.604 102.415 138.07C102.618 137.526 102.895 137.062 103.247 136.678C103.61 136.294 104.037 136.001 104.527 135.798C105.018 135.585 105.557 135.478 106.143 135.478C106.73 135.478 107.269 135.585 107.759 135.798C108.261 136.001 108.687 136.294 109.039 136.678C109.391 137.062 109.663 137.526 109.855 138.07C110.058 138.604 110.159 139.201 110.159 139.862ZM108.175 139.862C108.175 139.03 107.994 138.374 107.631 137.894C107.279 137.404 106.783 137.158 106.143 137.158C105.503 137.158 105.002 137.404 104.639 137.894C104.287 138.374 104.111 139.03 104.111 139.862C104.111 140.705 104.287 141.372 104.639 141.862C105.002 142.353 105.503 142.598 106.143 142.598C106.783 142.598 107.279 142.353 107.631 141.862C107.994 141.372 108.175 140.705 108.175 139.862ZM112.058 133.478L113.994 133.158V135.686H116.97V137.302H113.994V140.71C113.994 141.382 114.101 141.862 114.314 142.15C114.527 142.438 114.89 142.582 115.402 142.582C115.754 142.582 116.063 142.545 116.33 142.47C116.607 142.396 116.826 142.326 116.986 142.262L117.306 143.798C117.082 143.894 116.789 143.99 116.426 144.086C116.063 144.193 115.637 144.246 115.146 144.246C114.549 144.246 114.047 144.166 113.642 144.006C113.247 143.846 112.933 143.617 112.698 143.318C112.463 143.009 112.298 142.641 112.202 142.214C112.106 141.777 112.058 141.281 112.058 140.726V133.478ZM118.237 139.91C118.237 139.174 118.343 138.529 118.557 137.974C118.781 137.42 119.074 136.961 119.437 136.598C119.799 136.225 120.215 135.948 120.685 135.766C121.154 135.574 121.634 135.478 122.125 135.478C123.277 135.478 124.173 135.836 124.813 136.55C125.463 137.265 125.789 138.332 125.789 139.75C125.789 139.857 125.783 139.98 125.773 140.118C125.773 140.246 125.767 140.364 125.757 140.47H120.237C120.29 141.142 120.525 141.665 120.941 142.038C121.367 142.401 121.981 142.582 122.781 142.582C123.25 142.582 123.677 142.54 124.061 142.454C124.455 142.369 124.765 142.278 124.989 142.182L125.245 143.766C125.138 143.82 124.989 143.878 124.797 143.942C124.615 143.996 124.402 144.044 124.157 144.086C123.922 144.14 123.666 144.182 123.389 144.214C123.111 144.246 122.829 144.262 122.541 144.262C121.805 144.262 121.165 144.156 120.621 143.942C120.077 143.718 119.629 143.414 119.277 143.03C118.925 142.636 118.663 142.177 118.493 141.654C118.322 141.121 118.237 140.54 118.237 139.91ZM123.853 139.046C123.853 138.78 123.815 138.529 123.741 138.294C123.666 138.049 123.554 137.841 123.405 137.67C123.266 137.489 123.09 137.35 122.877 137.254C122.674 137.148 122.429 137.094 122.141 137.094C121.842 137.094 121.581 137.153 121.357 137.27C121.133 137.377 120.941 137.521 120.781 137.702C120.631 137.884 120.514 138.092 120.429 138.326C120.343 138.561 120.285 138.801 120.253 139.046H123.853ZM129.937 142.662C130.449 142.662 130.823 142.604 131.057 142.486C131.292 142.358 131.409 142.145 131.409 141.846C131.409 141.569 131.281 141.34 131.025 141.158C130.78 140.977 130.369 140.78 129.793 140.566C129.441 140.438 129.116 140.305 128.817 140.166C128.529 140.017 128.279 139.846 128.065 139.654C127.852 139.462 127.681 139.233 127.553 138.966C127.436 138.689 127.377 138.353 127.377 137.958C127.377 137.19 127.66 136.588 128.225 136.15C128.791 135.702 129.559 135.478 130.529 135.478C131.02 135.478 131.489 135.526 131.937 135.622C132.385 135.708 132.721 135.793 132.945 135.878L132.593 137.446C132.38 137.35 132.108 137.265 131.777 137.19C131.447 137.105 131.063 137.062 130.625 137.062C130.231 137.062 129.911 137.132 129.665 137.27C129.42 137.398 129.297 137.601 129.297 137.878C129.297 138.017 129.319 138.14 129.361 138.246C129.415 138.353 129.5 138.454 129.617 138.55C129.735 138.636 129.889 138.726 130.081 138.822C130.273 138.908 130.508 138.998 130.785 139.094C131.244 139.265 131.633 139.436 131.953 139.606C132.273 139.766 132.535 139.953 132.737 140.166C132.951 140.369 133.105 140.604 133.201 140.87C133.297 141.137 133.345 141.457 133.345 141.83C133.345 142.63 133.047 143.238 132.449 143.654C131.863 144.06 131.02 144.262 129.921 144.262C129.185 144.262 128.593 144.198 128.145 144.07C127.697 143.953 127.383 143.857 127.201 143.782L127.537 142.166C127.825 142.284 128.167 142.396 128.561 142.502C128.967 142.609 129.425 142.662 129.937 142.662Z"
      fill="white" />
  </g>
  <path d="M44.6411 8L35 20H190L179.617 8H44.6411Z" fill="#6371FF" />
  <defs>
    <filter id="filter0_d_23916_75053" x="144" y="36" width="236" height="284" filterUnits="userSpaceOnUse"
      color-interpolation-filters="sRGB">
      <feFlood flood-opacity="0" result="BackgroundImageFix" />
      <feColorMatrix in="SourceAlpha" type="matrix" values="0 0 0 0 0 0 0 0 0 0 0 0 0 0 0 0 0 0 127 0"
        result="hardAlpha" />
      <feOffset dy="15" />
      <feGaussianBlur stdDeviation="17.5" />
      <feColorMatrix type="matrix" values="0 0 0 0 0.129412 0 0 0 0 0.133333 0 0 0 0 0.145098 0 0 0 0.08 0" />
      <feBlend mode="normal" in2="BackgroundImageFix" result="effect1_dropShadow_23916_75053" />
      <feBlend mode="normal" in="SourceGraphic" in2="effect1_dropShadow_23916_75053" result="shape" />
    </filter>
    <filter id="filter1_d_23916_75053" x="155" y="48" width="225" height="272" filterUnits="userSpaceOnUse"
      color-interpolation-filters="sRGB">
      <feFlood flood-opacity="0" result="BackgroundImageFix" />
      <feColorMatrix in="SourceAlpha" type="matrix" values="0 0 0 0 0 0 0 0 0 0 0 0 0 0 0 0 0 0 127 0"
        result="hardAlpha" />
      <feOffset dy="15" />
      <feGaussianBlur stdDeviation="17.5" />
      <feColorMatrix type="matrix" values="0 0 0 0 0.129412 0 0 0 0 0.133333 0 0 0 0 0.145098 0 0 0 0.08 0" />
      <feBlend mode="normal" in2="BackgroundImageFix" result="effect1_dropShadow_23916_75053" />
      <feBlend mode="normal" in="SourceGraphic" in2="effect1_dropShadow_23916_75053" result="shape" />
    </filter>
    <filter id="filter2_b_23916_75053" x="232.19" y="152.656" width="70.1553" height="57.568"
      filterUnits="userSpaceOnUse" color-interpolation-filters="sRGB">
      <feFlood flood-opacity="0" result="BackgroundImageFix" />
      <feGaussianBlur in="BackgroundImageFix" stdDeviation="7" />
      <feComposite in2="SourceAlpha" operator="in" result="effect1_backgroundBlur_23916_75053" />
      <feBlend mode="normal" in="SourceGraphic" in2="effect1_backgroundBlur_23916_75053" result="shape" />
    </filter>
    <filter id="filter3_d_23916_75053" x="0" y="0" width="225" height="317" filterUnits="userSpaceOnUse"
      color-interpolation-filters="sRGB">
      <feFlood flood-opacity="0" result="BackgroundImageFix" />
      <feColorMatrix in="SourceAlpha" type="matrix" values="0 0 0 0 0 0 0 0 0 0 0 0 0 0 0 0 0 0 127 0"
        result="hardAlpha" />
      <feOffset dy="15" />
      <feGaussianBlur stdDeviation="17.5" />
      <feColorMatrix type="matrix" values="0 0 0 0 0.129412 0 0 0 0 0.133333 0 0 0 0 0.145098 0 0 0 0.08 0" />
      <feBlend mode="normal" in2="BackgroundImageFix" result="effect1_dropShadow_23916_75053" />
      <feBlend mode="normal" in="SourceGraphic" in2="effect1_dropShadow_23916_75053" result="shape" />
    </filter>
    <filter id="filter4_b_23916_75053" x="77.1899" y="100.966" width="70.1553" height="57.312"
      filterUnits="userSpaceOnUse" color-interpolation-filters="sRGB">
      <feFlood flood-opacity="0" result="BackgroundImageFix" />
      <feGaussianBlur in="BackgroundImageFix" stdDeviation="7" />
      <feComposite in2="SourceAlpha" operator="in" result="effect1_backgroundBlur_23916_75053" />
      <feBlend mode="normal" in="SourceGraphic" in2="effect1_backgroundBlur_23916_75053" result="shape" />
    </filter>
    <linearGradient id="paint0_linear_23916_75053" x1="267.5" y1="68" x2="267.5" y2="270"
      gradientUnits="userSpaceOnUse">
      <stop stop-color="#3547E9" />
      <stop offset="1" stop-color="#2E0DBE" />
    </linearGradient>
    <linearGradient id="paint1_linear_23916_75053" x1="112.5" y1="20" x2="112.5" y2="267"
      gradientUnits="userSpaceOnUse">
      <stop stop-color="#3547E9" />
      <stop offset="1" stop-color="#2E0DBE" />
    </linearGradient>
  </defs>
</svg>