<?xml version="1.0" encoding="UTF-8" standalone="no"?><!DOCTYPE svg PUBLIC "-//W3C//DTD SVG 1.1//EN" "http://www.w3.org/Graphics/SVG/1.1/DTD/svg11.dtd"><svg width="356" height="547" viewBox="0 0 356 547" version="1.1" xmlns="http://www.w3.org/2000/svg" xmlns:xlink="http://www.w3.org/1999/xlink" xml:space="preserve" xmlns:serif="http://www.serif.com/" fill-rule="evenodd" clip-rule="evenodd" stroke-linejoin="round" stroke-miterlimit="2"><g><rect x="188" y="276.453" width="168" height="270" fill="#515fe1" fill-rule="nonzero"/><path d="M284.712 338.661c0 1.824-.36 3.576-1.08 5.256a25.204 25.204 0 0 1-2.808 4.896 41.729 41.729 0 0 1-3.888 4.464 165.597 165.597 0 0 1-4.248 4.104c-.72.672-1.512 1.44-2.376 2.304a58.943 58.943 0 0 0-2.376 2.52 72.915 72.915 0 0 0-2.088 2.448c-.576.72-.936 1.32-1.08 1.8h21.456v9H252.96c-.096-.528-.144-1.2-.144-2.016v-1.728c0-2.304.36-4.416 1.08-6.336a23.997 23.997 0 0 1 2.952-5.328c1.2-1.68 2.544-3.24 4.032-4.68 1.536-1.44 3.048-2.88 4.536-4.32 1.152-1.104 2.232-2.136 3.24-3.096a46.15 46.15 0 0 0 2.664-2.88c.768-.96 1.368-1.896 1.8-2.808.432-.96.648-1.92.648-2.88 0-2.112-.6-3.6-1.8-4.464-1.2-.864-2.688-1.296-4.464-1.296-1.296 0-2.52.216-3.672.648a16.592 16.592 0 0 0-3.096 1.44 15.834 15.834 0 0 0-2.376 1.656c-.672.528-1.176.96-1.512 1.296l-5.328-7.488c2.112-1.968 4.56-3.576 7.344-4.824 2.832-1.296 5.856-1.944 9.072-1.944 2.928 0 5.448.336 7.56 1.008 2.112.672 3.84 1.632 5.184 2.88 1.392 1.2 2.4 2.688 3.024 4.464.672 1.728 1.008 3.696 1.008 5.904Z" fill="#fff" fill-rule="nonzero"/><path d="M188 259.453v18h168l-11.254-18H188Z" fill="#c3b6ff" fill-rule="nonzero"/></g><g><rect x="0" y="204.453" width="188" height="342" fill="url(#_Linear1)" fill-rule="nonzero"/></g><path d="M79.04 262.925a81.353 81.353 0 0 0 4.32-1.944 66.314 66.314 0 0 0 4.464-2.448 68.17 68.17 0 0 0 4.104-2.808 29.253 29.253 0 0 0 3.6-3.168h7.488v49.896H92.288v-35.928c-1.44.96-3.048 1.848-4.824 2.664a71.536 71.536 0 0 1-5.184 2.016l-3.24-8.28Z" fill="#fff" fill-rule="nonzero"/><path d="M11.632 187.453 0 204.453h187l-12.526-17H11.632ZM74.249 6.87c.655-.806 1.717-.806 2.372 0l8.429 10.374c.656.807.656 2.114 0 2.921l-8.429 10.374c-.655.806-1.717.806-2.372 0L65.82 20.165c-.656-.807-.656-2.114 0-2.921L74.249 6.87ZM111.048 6.87c.655-.806 1.717-.806 2.372 0l8.429 10.374c.656.807.656 2.114 0 2.921l-8.429 10.374c-.655.806-1.717.806-2.372 0l-8.429-10.374c-.656-.807-.656-2.114 0-2.921l8.429-10.374Z" fill="#c3b6ff" fill-rule="nonzero"/><path d="M131.143 6.947v36.482c0 2.18-2.485 3.553-4.394 2.501-6.492-3.578-19.377-9.537-33.183-9.537-13.69 0-26.224 5.859-32.615 9.446-1.915 1.075-4.443-.3-4.443-2.496V6.688c0-2.707 3.53-3.744 4.994-1.467l11.377 17.698c1.069 1.664 3.501 1.661 4.567-.005L91.303 1.251c1.061-1.659 3.481-1.67 4.557-.02l14.336 21.995c1.074 1.648 3.49 1.641 4.554-.014l11.399-17.731c1.463-2.278 4.994-1.241 4.994 1.466Z" fill="#5060ee" fill-rule="nonzero"/><circle cx="93.597" cy="24.979" r="5.983" fill="#cfd4ff"/><defs><linearGradient id="_Linear1" x1="0" y1="0" x2="1" y2="0" gradientUnits="userSpaceOnUse" gradientTransform="matrix(2.09415e-14,342,-342,2.09415e-14,94,204.453)"><stop offset="0" stop-color="#5060ee" stop-opacity="1"/><stop offset="1" stop-color="#a591ff" stop-opacity="1"/></linearGradient></defs></svg>