<?xml version="1.0" encoding="UTF-8" standalone="no"?><!DOCTYPE svg PUBLIC "-//W3C//DTD SVG 1.1//EN" "http://www.w3.org/Graphics/SVG/1.1/DTD/svg11.dtd"><svg width="100%" height="100%" viewBox="0 0 310 377" version="1.1" xmlns="http://www.w3.org/2000/svg" xmlns:xlink="http://www.w3.org/1999/xlink" xml:space="preserve" xmlns:serif="http://www.serif.com/" fill-rule="evenodd" clip-rule="evenodd" stroke-linejoin="round" stroke-miterlimit="2"><g><rect x="155" y="190.226" width="155" height="186" fill="#515fe1" fill-rule="nonzero"/><path d="M243.776 236.61c0 1.419-.28 2.781-.84 4.088a19.597 19.597 0 0 1-2.184 3.808 32.308 32.308 0 0 1-3.024 3.472 127.526 127.526 0 0 1-3.304 3.192c-.56.523-1.176 1.12-1.848 1.792a46.22 46.22 0 0 0-1.848 1.96 57.627 57.627 0 0 0-1.624 1.904c-.448.56-.728 1.027-.84 1.4h16.688v7H219.08c-.075-.411-.112-.933-.112-1.568v-1.344c0-1.792.28-3.435.84-4.928a18.667 18.667 0 0 1 2.296-4.144 26.456 26.456 0 0 1 3.136-3.64c1.185-1.11 2.361-2.23 3.528-3.36.896-.859 1.736-1.661 2.52-2.408a35.974 35.974 0 0 0 2.072-2.24c.597-.747 1.064-1.475 1.4-2.184.336-.747.504-1.493.504-2.24 0-1.643-.467-2.8-1.4-3.472-.933-.672-2.091-1.008-3.472-1.008-1.008 0-1.96.168-2.856.504-.859.299-1.661.672-2.408 1.12-.709.411-1.325.84-1.848 1.288-.523.411-.915.747-1.176 1.008l-4.144-5.824c1.643-1.531 3.547-2.781 5.712-3.752 2.203-1.008 4.555-1.512 7.056-1.512 2.277 0 4.237.261 5.88.784 1.643.523 2.987 1.269 4.032 2.24a7.991 7.991 0 0 1 2.352 3.472c.523 1.344.784 2.875.784 4.592Z" fill="#fff" fill-rule="nonzero"/><path d="m154.325 178.226-10.325 12h166l-11.12-12H154.325Z" fill="#c3b6ff" fill-rule="nonzero"/></g><g><rect x="0" y="142.226" width="155" height="234" fill="url(#_Linear1)" fill-rule="nonzero"/></g><path d="M64.92 182.536a62.788 62.788 0 0 0 3.36-1.512 51.464 51.464 0 0 0 3.472-1.904 52.893 52.893 0 0 0 3.192-2.184 22.681 22.681 0 0 0 2.8-2.464h5.824v38.808h-8.344v-27.944a27.24 27.24 0 0 1-3.752 2.072 55.366 55.366 0 0 1-4.032 1.568l-2.52-6.44Z" fill="#fff" fill-rule="nonzero"/><path d="m9.641 130.226-9.641 12h155l-10.383-12H9.641ZM63.36 4.787c.456-.561 1.196-.561 1.653 0l5.872 7.228c.457.562.457 1.473 0 2.035l-5.872 7.228c-.457.562-1.197.562-1.653 0l-5.873-7.228c-.457-.562-.457-1.473 0-2.035l5.873-7.228Zm25.638 0c.457-.561 1.197-.561 1.654 0l5.872 7.228c.457.562.457 1.473 0 2.035l-5.872 7.228c-.457.562-1.197.562-1.653 0l-5.873-7.228c-.457-.562-.457-1.473 0-2.035l5.872-7.228Z" fill="#c3b6ff" fill-rule="nonzero"/><path d="M103 4.841v25.418c0 1.518-1.731 2.475-3.061 1.742-4.523-2.493-13.5-6.645-23.12-6.645-9.538 0-18.27 4.083-22.723 6.582-1.335.749-3.096-.21-3.096-1.74V4.66c0-1.886 2.46-2.608 3.48-1.021l7.926 12.33a1.89 1.89 0 0 0 3.182-.003L75.242.872a1.891 1.891 0 0 1 3.176-.014l9.988 15.325a1.891 1.891 0 0 0 3.173-.01l7.942-12.354C100.54 2.233 103 2.956 103 4.841Z" fill="#5060ee" fill-rule="nonzero"/><circle cx="76.839" cy="17.405" r="4.169" fill="#cfd4ff"/><defs><linearGradient id="_Linear1" x1="0" y1="0" x2="1" y2="0" gradientUnits="userSpaceOnUse" gradientTransform="matrix(1.43284e-14,234,-234,1.43284e-14,77.5,142.226)"><stop offset="0" stop-color="#5060ee" stop-opacity="1"/><stop offset="1" stop-color="#a591ff" stop-opacity="1"/></linearGradient></defs></svg>