<?xml version="1.0" encoding="UTF-8" standalone="no"?><!DOCTYPE svg PUBLIC "-//W3C//DTD SVG 1.1//EN" "http://www.w3.org/Graphics/SVG/1.1/DTD/svg11.dtd"><svg width="100%" height="100%" viewBox="0 0 310 377" version="1.1" xmlns="http://www.w3.org/2000/svg" xmlns:xlink="http://www.w3.org/1999/xlink" xml:space="preserve" xmlns:serif="http://www.serif.com/" style="fill-rule:evenodd;clip-rule:evenodd;stroke-linejoin:round;stroke-miterlimit:2;"><g><rect x="155" y="190.226" width="155" height="186" style="fill:#515fe1;fill-rule:nonzero;"/><path d="M243.776,236.61c0,1.419 -0.28,2.781 -0.84,4.088c-0.583,1.347 -1.316,2.625 -2.184,3.808c-0.924,1.228 -1.935,2.388 -3.024,3.472c-1.082,1.084 -2.184,2.148 -3.304,3.192c-0.56,0.523 -1.176,1.12 -1.848,1.792c-0.635,0.635 -1.251,1.289 -1.848,1.96c-0.555,0.623 -1.097,1.258 -1.624,1.904c-0.448,0.56 -0.728,1.027 -0.84,1.4l16.688,0l0,7l-25.872,0c-0.075,-0.411 -0.112,-0.933 -0.112,-1.568l0,-1.344c0,-1.792 0.28,-3.435 0.84,-4.928c0.586,-1.473 1.358,-2.866 2.296,-4.144c0.933,-1.306 1.982,-2.524 3.136,-3.64c1.185,-1.11 2.361,-2.23 3.528,-3.36c0.896,-0.859 1.736,-1.661 2.52,-2.408c0.722,-0.717 1.413,-1.464 2.072,-2.24c0.597,-0.747 1.064,-1.475 1.4,-2.184c0.336,-0.747 0.504,-1.493 0.504,-2.24c0,-1.643 -0.467,-2.8 -1.4,-3.472c-0.933,-0.672 -2.091,-1.008 -3.472,-1.008c-1.008,0 -1.96,0.168 -2.856,0.504c-0.859,0.299 -1.661,0.672 -2.408,1.12c-0.709,0.411 -1.325,0.84 -1.848,1.288c-0.523,0.411 -0.915,0.747 -1.176,1.008l-4.144,-5.824c1.643,-1.531 3.547,-2.781 5.712,-3.752c2.203,-1.008 4.555,-1.512 7.056,-1.512c2.277,0 4.237,0.261 5.88,0.784c1.643,0.523 2.987,1.269 4.032,2.24c1.079,0.927 1.891,2.126 2.352,3.472c0.523,1.344 0.784,2.875 0.784,4.592Z" style="fill:#fff;fill-rule:nonzero;"/><path d="M154.325,178.226l-10.325,12l166,0l-11.12,-12l-144.555,0Z" style="fill:#c3b6ff;fill-rule:nonzero;"/></g><g><rect x="0" y="142.226" width="155" height="234" style="fill:url(#_Linear1);fill-rule:nonzero;"/></g><path d="M64.92,182.536c1.134,-0.471 2.255,-0.975 3.36,-1.512c1.181,-0.59 2.34,-1.225 3.472,-1.904c1.09,-0.689 2.155,-1.417 3.192,-2.184c0.999,-0.743 1.936,-1.567 2.8,-2.464l5.824,0l0,38.808l-8.344,0l0,-27.944c-1.194,0.788 -2.449,1.481 -3.752,2.072c-1.323,0.575 -2.668,1.098 -4.032,1.568l-2.52,-6.44Z" style="fill:#fff;fill-rule:nonzero;"/><path d="M9.641,130.226l-9.641,12l155,0l-10.383,-12l-134.976,0Zm53.719,-125.439c0.456,-0.561 1.196,-0.561 1.653,0l5.872,7.228c0.457,0.562 0.457,1.473 0,2.035l-5.872,7.228c-0.457,0.562 -1.197,0.562 -1.653,0l-5.873,-7.228c-0.457,-0.562 -0.457,-1.473 0,-2.035l5.873,-7.228Zm25.638,0c0.457,-0.561 1.197,-0.561 1.654,0l5.872,7.228c0.457,0.562 0.457,1.473 0,2.035l-5.872,7.228c-0.457,0.562 -1.197,0.562 -1.653,0l-5.873,-7.228c-0.457,-0.562 -0.457,-1.473 0,-2.035l5.872,-7.228Z" style="fill:#c3b6ff;fill-rule:nonzero;"/><path d="M103,4.841l0,25.418c0,1.518 -1.731,2.475 -3.061,1.742c-4.523,-2.493 -13.5,-6.645 -23.12,-6.645c-9.538,0 -18.27,4.083 -22.723,6.582c-1.335,0.749 -3.096,-0.21 -3.096,-1.74l0,-25.538c0,-1.886 2.46,-2.608 3.48,-1.021l7.926,12.33c0.347,0.541 0.947,0.868 1.59,0.868c0.644,0 1.245,-0.329 1.592,-0.871l9.654,-15.094c0.347,-0.543 0.948,-0.872 1.593,-0.872c0.638,0 1.235,0.323 1.583,0.858l9.988,15.325c0.349,0.535 0.945,0.858 1.583,0.858c0.643,-0 1.243,-0.328 1.59,-0.868l7.942,-12.354c1.019,-1.586 3.479,-0.863 3.479,1.022Z" style="fill:#5060ee;fill-rule:nonzero;"/><circle cx="76.839" cy="17.405" r="4.169" style="fill:#cfd4ff;"/><defs><linearGradient id="_Linear1" x1="0" y1="0" x2="1" y2="0" gradientUnits="userSpaceOnUse" gradientTransform="matrix(1.43284e-14,234,-234,1.43284e-14,77.5,142.226)"><stop offset="0" style="stop-color:#5060ee;stop-opacity:1"/><stop offset="1" style="stop-color:#a591ff;stop-opacity:1"/></linearGradient></defs></svg>