<svg width="380" height="428" viewBox="0 0 380 428" fill="none" xmlns="http://www.w3.org/2000/svg"><g filter="url(#filter0_d_26137_144662)"><path d="M190 192h155v186H190V192Z" fill="#515FE1"/><path d="M278.776 238.384c0 1.419-.28 2.781-.84 4.088a19.593 19.593 0 0 1-2.184 3.808 32.423 32.423 0 0 1-3.024 3.472 128.254 128.254 0 0 1-3.304 3.192c-.56.523-1.176 1.12-1.848 1.792a45.623 45.623 0 0 0-1.848 1.96 57.047 57.047 0 0 0-1.624 1.904c-.448.56-.728 1.027-.84 1.4h16.688v7H254.08c-.075-.411-.112-.933-.112-1.568v-1.344c0-1.792.28-3.435.84-4.928a18.664 18.664 0 0 1 2.296-4.144 26.428 26.428 0 0 1 3.136-3.64 301.91 301.91 0 0 0 3.528-3.36c.896-.859 1.736-1.661 2.52-2.408a35.887 35.887 0 0 0 2.072-2.24c.597-.747 1.064-1.475 1.4-2.184.336-.747.504-1.493.504-2.24 0-1.643-.467-2.8-1.4-3.472-.933-.672-2.091-1.008-3.472-1.008-1.008 0-1.96.168-2.856.504-.859.299-1.661.672-2.408 1.12-.709.411-1.325.84-1.848 1.288-.523.411-.915.747-1.176 1.008l-4.144-5.824c1.643-1.531 3.547-2.781 5.712-3.752 2.203-1.008 4.555-1.512 7.056-1.512 2.277 0 4.237.261 5.88.784 1.643.523 2.987 1.269 4.032 2.24a7.994 7.994 0 0 1 2.352 3.472c.523 1.344.784 2.875.784 4.592Z" fill="white"/><path d="M189.325 180 179 192h166l-11.12-12H189.325Z" fill="#C3B6FF"/></g><g filter="url(#filter1_d_26137_144662)"><path d="M35 144h155v234H35V144Z" fill="url(#paint0_linear_26137_144662)"/></g><path d="M99.92 184.31a63.033 63.033 0 0 0 3.36-1.512 51.348 51.348 0 0 0 3.472-1.904 52.713 52.713 0 0 0 3.192-2.184 22.725 22.725 0 0 0 2.8-2.464h5.824v38.808h-8.344V187.11a27.222 27.222 0 0 1-3.752 2.072 55.214 55.214 0 0 1-4.032 1.568l-2.52-6.44Z" fill="white"/><path d="M44.641 132 35 144h155l-10.383-12H44.641ZM98.36 6.561c.456-.561 1.196-.561 1.653 0l5.872 7.228c.457.562.457 1.473 0 2.035l-5.872 7.228c-.457.562-1.197.562-1.653 0l-5.873-7.228c-.457-.562-.457-1.473 0-2.035l5.873-7.228Zm25.638 0c.457-.561 1.197-.561 1.654 0l5.872 7.228c.457.562.457 1.473 0 2.035l-5.872 7.228c-.457.562-1.197.562-1.653 0l-5.873-7.228c-.457-.562-.457-1.473 0-2.035l5.872-7.228Z" fill="#C3B6FF"/><path d="M138 6.615v25.418c0 1.518-1.731 2.475-3.061 1.742-4.523-2.493-13.5-6.645-23.12-6.645-9.538 0-18.27 4.083-22.723 6.582-1.335.749-3.096-.21-3.096-1.74V6.434c0-1.886 2.46-2.608 3.48-1.021l7.926 12.33a1.89 1.89 0 0 0 3.182-.003l9.654-15.094a1.89 1.89 0 0 1 3.176-.014l9.988 15.325a1.89 1.89 0 0 0 3.173-.01l7.942-12.354C135.54 4.007 138 4.73 138 6.615Z" fill="#5060EE"/><circle cx="111.839" cy="19.1784" r="4.16871" fill="#CFD4FF"/><defs><filter id="filter0_d_26137_144662" x="144" y="160" width="236" height="268" filterUnits="userSpaceOnUse" color-interpolation-filters="sRGB"><feFlood flood-opacity="0" result="BackgroundImageFix"/><feColorMatrix in="SourceAlpha" type="matrix" values="0 0 0 0 0 0 0 0 0 0 0 0 0 0 0 0 0 0 127 0" result="hardAlpha"/><feOffset dy="15"/><feGaussianBlur stdDeviation="17.5"/><feColorMatrix type="matrix" values="0 0 0 0 0.129412 0 0 0 0 0.133333 0 0 0 0 0.145098 0 0 0 0.08 0"/><feBlend mode="normal" in2="BackgroundImageFix" result="effect1_dropShadow_26137_144662"/><feBlend mode="normal" in="SourceGraphic" in2="effect1_dropShadow_26137_144662" result="shape"/></filter><filter id="filter1_d_26137_144662" x="0" y="124" width="225" height="304" filterUnits="userSpaceOnUse" color-interpolation-filters="sRGB"><feFlood flood-opacity="0" result="BackgroundImageFix"/><feColorMatrix in="SourceAlpha" type="matrix" values="0 0 0 0 0 0 0 0 0 0 0 0 0 0 0 0 0 0 127 0" result="hardAlpha"/><feOffset dy="15"/><feGaussianBlur stdDeviation="17.5"/><feColorMatrix type="matrix" values="0 0 0 0 0.129412 0 0 0 0 0.133333 0 0 0 0 0.145098 0 0 0 0.08 0"/><feBlend mode="normal" in2="BackgroundImageFix" result="effect1_dropShadow_26137_144662"/><feBlend mode="normal" in="SourceGraphic" in2="effect1_dropShadow_26137_144662" result="shape"/></filter><linearGradient id="paint0_linear_26137_144662" x1="112.5" y1="144" x2="112.5" y2="378" gradientUnits="userSpaceOnUse"><stop stop-color="#5060EE"/><stop offset="1" stop-color="#A591FF"/></linearGradient></defs></svg>