<?xml version="1.0" encoding="UTF-8" standalone="no"?>
<!DOCTYPE svg PUBLIC "-//W3C//DTD SVG 1.1//EN" "http://www.w3.org/Graphics/SVG/1.1/DTD/svg11.dtd"><svg width="356"
  height="547" viewBox="0 0 356 547" version="1.1" xmlns="http://www.w3.org/2000/svg"
  xmlns:xlink="http://www.w3.org/1999/xlink" xml:space="preserve" xmlns:serif="http://www.serif.com/"
  style="fill-rule:evenodd;clip-rule:evenodd;stroke-linejoin:round;stroke-miterlimit:2;">
  <g>
    <rect x="188" y="276.453" width="168" height="270" style="fill:#515fe1;fill-rule:nonzero;" />
    <path
      d="M284.712,338.661c0,1.824 -0.36,3.576 -1.08,5.256c-0.72,1.68 -1.656,3.312 -2.808,4.896c-1.152,1.536 -2.448,3.024 -3.888,4.464c-1.44,1.44 -2.856,2.808 -4.248,4.104c-0.72,0.672 -1.512,1.44 -2.376,2.304c-0.816,0.816 -1.608,1.656 -2.376,2.52c-0.768,0.864 -1.464,1.68 -2.088,2.448c-0.576,0.72 -0.936,1.32 -1.08,1.8l21.456,-0l-0,9l-33.264,-0c-0.096,-0.528 -0.144,-1.2 -0.144,-2.016l-0,-1.728c-0,-2.304 0.36,-4.416 1.08,-6.336c0.768,-1.92 1.752,-3.696 2.952,-5.328c1.2,-1.68 2.544,-3.24 4.032,-4.68c1.536,-1.44 3.048,-2.88 4.536,-4.32c1.152,-1.104 2.232,-2.136 3.24,-3.096c1.008,-1.008 1.896,-1.968 2.664,-2.88c0.768,-0.96 1.368,-1.896 1.8,-2.808c0.432,-0.96 0.648,-1.92 0.648,-2.88c-0,-2.112 -0.6,-3.6 -1.8,-4.464c-1.2,-0.864 -2.688,-1.296 -4.464,-1.296c-1.296,-0 -2.52,0.216 -3.672,0.648c-1.104,0.384 -2.136,0.864 -3.096,1.44c-0.912,0.528 -1.704,1.08 -2.376,1.656c-0.672,0.528 -1.176,0.96 -1.512,1.296l-5.328,-7.488c2.112,-1.968 4.56,-3.576 7.344,-4.824c2.832,-1.296 5.856,-1.944 9.072,-1.944c2.928,-0 5.448,0.336 7.56,1.008c2.112,0.672 3.84,1.632 5.184,2.88c1.392,1.2 2.4,2.688 3.024,4.464c0.672,1.728 1.008,3.696 1.008,5.904Z"
      style="fill:#fff;fill-rule:nonzero;" />
    <path d="M188,259.453l0,18l168,-0l-11.254,-18l-156.746,-0Z" style="fill:#c3b6ff;fill-rule:nonzero;" />
  </g>
  <g>
    <rect x="0" y="204.453" width="188" height="342" style="fill:url(#_Linear1);fill-rule:nonzero;" />
  </g>
  <path
    d="M79.04,262.925c1.392,-0.576 2.832,-1.224 4.32,-1.944c1.536,-0.768 3.024,-1.584 4.464,-2.448c1.44,-0.912 2.808,-1.848 4.104,-2.808c1.344,-1.008 2.544,-2.064 3.6,-3.168l7.488,-0l-0,49.896l-10.728,-0l0,-35.928c-1.44,0.96 -3.048,1.848 -4.824,2.664c-1.776,0.768 -3.504,1.44 -5.184,2.016l-3.24,-8.28Z"
    style="fill:#fff;fill-rule:nonzero;" />
  <path d="M11.632,187.453l-11.632,17l187,-0l-12.526,-17l-162.842,-0Z" style="fill:#c3b6ff;fill-rule:nonzero;" />
  <path
    d="M74.249,6.87c0.655,-0.806 1.717,-0.806 2.372,0l8.429,10.374c0.656,0.807 0.656,2.114 0,2.921l-8.429,10.374c-0.655,0.806 -1.717,0.806 -2.372,-0l-8.429,-10.374c-0.656,-0.807 -0.656,-2.114 0,-2.921l8.429,-10.374Z"
    style="fill:#c3b6ff;fill-rule:nonzero;" />
  <path
    d="M111.048,6.87c0.655,-0.806 1.717,-0.806 2.372,0l8.429,10.374c0.656,0.807 0.656,2.114 -0,2.921l-8.429,10.374c-0.655,0.806 -1.717,0.806 -2.372,-0l-8.429,-10.374c-0.656,-0.807 -0.656,-2.114 0,-2.921l8.429,-10.374Z"
    style="fill:#c3b6ff;fill-rule:nonzero;" />
  <path
    d="M131.143,6.947l0,36.482c0,2.18 -2.485,3.553 -4.394,2.501c-6.492,-3.578 -19.377,-9.537 -33.183,-9.537c-13.69,-0 -26.224,5.859 -32.615,9.446c-1.915,1.075 -4.443,-0.3 -4.443,-2.496l-0,-36.655c-0,-2.707 3.53,-3.744 4.994,-1.467l11.377,17.698c1.069,1.664 3.501,1.661 4.567,-0.005l13.857,-21.663c1.061,-1.659 3.481,-1.67 4.557,-0.02l14.336,21.995c1.074,1.648 3.49,1.641 4.554,-0.014l11.399,-17.731c1.463,-2.278 4.994,-1.241 4.994,1.466Z"
    style="fill:#5060ee;fill-rule:nonzero;" />
  <circle cx="93.597" cy="24.979" r="5.983" style="fill:#cfd4ff;" />
  <defs>
    <linearGradient id="_Linear1" x1="0" y1="0" x2="1" y2="0" gradientUnits="userSpaceOnUse"
      gradientTransform="matrix(2.09415e-14,342,-342,2.09415e-14,94,204.453)">
      <stop offset="0" style="stop-color:#5060ee;stop-opacity:1" />
      <stop offset="1" style="stop-color:#a591ff;stop-opacity:1" />
    </linearGradient>
  </defs>
</svg>