<svg width="245" height="220" viewBox="0 0 245 220" fill="none" xmlns="http://www.w3.org/2000/svg"><path opacity="0.2" d="M.35 84.186C6.075 158.526 83.85 205.704 122.02 220c40.682-13.506 115.256-60.773 122.036-135.814C256.225-9.585 147.003-22.343 122.02 32.608 97.998-22.342-6.807-8.74.35 84.186Z" fill="#505D6A"/><path opacity="0.4" d="M24.281 88.731c4.604 59.811 67.141 97.767 97.834 109.269 32.711-10.866 92.675-48.895 98.127-109.269 9.785-75.443-78.039-85.707-98.127-41.496C102.798 3.024 18.526 13.968 24.281 88.73Z" fill="#505D6A"/><path opacity="0.6" d="M52.201 94.598c3.295 42.915 48.055 70.149 70.023 78.402 23.413-7.797 66.331-35.083 70.234-78.402 7.003-54.131-55.856-61.496-70.234-29.774-13.825-31.722-74.142-23.87-70.023 29.774Z" fill="#505D6A"/><path d="m123.404 96.09 13.795-51.483 53.277 14.275-13.794 51.483a1.86 1.86 0 0 1-2.276 1.314l-49.688-13.314a1.859 1.859 0 0 1-1.314-2.275Z" stroke="#788A98" stroke-width="2" stroke-linecap="round"/><path d="m141.545 52.132 41.406 11.095-11.094 41.407-41.407-11.095 11.095-41.407Zm-5.052-8.75 55.209 14.793 2.958-11.041-55.209-14.794-2.958 11.042Z" fill="#5D6F7D"/><path d="M163.407 81.507a9.21 9.21 0 0 1-15.94-4.271m3.963-5.443-.265.988m12.781 2.366-.265.988" stroke="#23272D" stroke-width="2" stroke-linecap="round" stroke-linejoin="round"/><path d="M86 151.802c12.866 10.461 26.691 17.617 36.224 21.198 23.413-7.797 66.331-35.083 70.234-78.402.819-6.336.682-12.031-.223-17.098M57.116 115c-2.616-6.342-4.358-13.148-4.915-20.402-4.119-53.643 56.198-61.496 70.023-29.774A29.78 29.78 0 0 1 129.407 55" stroke="#788A98" stroke-width="2" stroke-linecap="round"/><path d="M89.096 102.96c1.565 20.274 22.834 33.141 33.273 37.04 11.125-3.683 31.519-16.575 33.373-37.04 3.328-25.574-26.541-29.053-33.373-14.067-6.57-14.987-35.23-11.276-33.273 14.067Z" fill="#A4B1BC"/><g filter="url(#filter0_b_25673_15386)"><path d="M131.919 130.601c-13.014-9.76-16.267-24.166-9.435-26.352 6.253-2.001 13.467 8.497 21.495 16.267-.534-1.193-.43-4.262.628-5.531 1.332-1.599 5.502-5.38 12.688-.439-.108-1.589.612-4.269 3.904-5.092 3.642-.91 6.487.09 9.761 2.888.217-1.179 1.431-3.539 4.554-3.539 3.905 0 19.521 5.206 23.75 30.908 8.785 0 10.086 6.181 9.11 13.339-.602 4.411-4.952 12.906-12.038 17.94-2.752 1.956-5.591 4.365-9.109 4.834-9.76 1.301-13.665-4.834-13.014-10.737-1.301.868-5.466 2.733-11.712 3.254-13.014.976-28.305-9.11-28.63-18.87-.26-7.808 5.29-9.76 8.097-9.76-2.578-2.851-5.9-5.998-10.049-9.11Z" fill="#3D444D"/></g><path d="M144.607 114.985c-1.057 1.269-1.162 4.338-.627 5.531 1.587 1.536 3.207 2.966 4.857 4.172-.217-.74-.716-2.415-.976-3.196-.781-3.124-2.494-5.64-3.254-6.507Zm-10.736 34.486c-.26-7.808 5.29-9.76 8.098-9.76 2.132 2.359 3.755 4.515 4.916 6.284.956 1.457 1.598 2.651 1.952 3.476-11.452-11.192-14.242-2.277-14.205 3.579-.457-1.184-.721-2.384-.761-3.579Zm40.342 15.616c-1.301.868-5.465 2.733-11.712 3.254-5.209.39-10.783-.991-15.616-3.415 15.876 4.816 26.784-3.525 30.254-8.297-1.449 2.842-2.465 5.748-2.926 8.458Zm8.134 1.627c-.26 9.63 9.218 6.321 13.99 4.276-7.809 3.347-14.581-8.245-2.317-21.519-5.51 3.433-11.496 10.677-11.673 17.243Zm-21.415-49.126c-1.288-1.261-2.5-2.261-3.636-3.042-.077-1.123.26-2.79 1.626-3.963.521 1.424 1.184 3.528 1.451 4.402l.559 2.603Zm13.281-2.076c-1.152-1.232-2.224-2.29-3.253-3.17.129-.699.608-1.812 1.627-2.603.52 1.008.867 2.399.976 2.969l.65 2.804Zm25.052 24.199c-3.387 0-6.703 1.133-9.761 3.008 2.687-2.291 7.416-9.223 4.843-18.625 2.107 4.094 3.865 9.22 4.918 15.617Z" fill="#2C3139"/><path d="M148.837 149.471c-.354-.825-.996-2.019-1.953-3.476-1.16-1.769-2.783-3.925-4.916-6.284m9.471-13.339a25.616 25.616 0 0 1-2.602-1.684m-4.858-4.172c-8.028-7.77-15.242-18.268-21.495-16.267-6.832 2.186-3.579 16.592 9.435 26.352 4.149 3.112 7.471 6.259 10.049 9.11m2.011-19.195c-.534-1.193-.43-4.262.628-5.531 1.332-1.599 5.502-5.38 12.688-.439m-13.316 5.97c1.588 1.536 3.207 2.966 4.858 4.172m13.664-5.474a40.742 40.742 0 0 0-1.569-1.626m-3.637-3.042c-.108-1.589.612-4.269 3.904-5.092 3.642-.91 6.487.09 9.761 2.888m-13.665 2.204c1.137.781 2.349 1.781 3.637 3.042m14.582-.651a88.431 88.431 0 0 0-1.301-1.425m-3.253-3.17c.217-1.179 1.431-3.539 4.554-3.539 3.905 0 19.521 5.206 23.75 30.908m-28.304-27.369c1.029.88 2.101 1.938 3.253 3.17m25.051 24.199c-12.037 0-23.173 14.315-25.051 25.376m25.051-25.376c8.785 0 10.086 6.181 9.11 13.339-.602 4.411-4.952 12.906-12.038 17.94m-54.368-31.279c-2.807 0-8.357 1.952-8.097 9.76.325 9.76 15.616 19.846 28.63 18.87 6.246-.521 10.411-2.386 11.712-3.254m0 0c-.651 5.903 3.254 12.038 13.014 10.737 3.518-.469 6.357-2.878 9.109-4.834m0 0c-4.771 2.045-14.25 5.354-13.989-4.276.325-12.037 20.171-26.352 20.821-15.291m-54.331-26.735a123.71 123.71 0 0 0-.977-3.196m13.072-3.904-.56-2.603m13.841.527-.651-2.804" stroke="#A4B1BC" stroke-width="2" stroke-linecap="round"/><defs><filter id="filter0_b_25673_15386" x="105" y="90" width="117.649" height="100" filterUnits="userSpaceOnUse" color-interpolation-filters="sRGB"><feFlood flood-opacity="0" result="BackgroundImageFix"/><feGaussianBlur in="BackgroundImageFix" stdDeviation="7"/><feComposite in2="SourceAlpha" operator="in" result="effect1_backgroundBlur_25673_15386"/><feBlend mode="normal" in="SourceGraphic" in2="effect1_backgroundBlur_25673_15386" result="shape"/></filter></defs></svg>