<svg xmlns="http://www.w3.org/2000/svg" viewBox="0 0 17 16" fill="none"><path d="M13.963 9.83 9.016 1.434a.274.274 0 0 0-.239-.138.28.28 0 0 0-.24.135L7.056 3.946a.534.534 0 0 0 0 .542l3.225 5.479a.547.547 0 0 0 .48.27h2.962a.28.28 0 0 0 .24-.135.269.269 0 0 0 0-.271ZM.994 14.22 5.94 5.822a.274.274 0 0 1 .24-.136.28.28 0 0 1 .239.136L7.9 8.336a.535.535 0 0 1 0 .543l-3.226 5.478a.546.546 0 0 1-.478.271H1.233a.28.28 0 0 1-.24-.135.267.267 0 0 1 0-.273Zm5.426.407h9.892a.28.28 0 0 0 .24-.136.267.267 0 0 0 0-.271l-1.48-2.516a.547.547 0 0 0-.48-.27H8.14a.56.56 0 0 0-.48.27L6.18 14.22a.267.267 0 0 0 .1.37.28.28 0 0 0 .138.037Z" fill="currentColor"/></svg>