<svg viewBox="0 0 17 16" fill="none" xmlns="http://www.w3.org/2000/svg"><path d="M2.5 2.033h11.261L12.728 1H2.5v1.033Zm0 2.687h3.306V3.685H2.5v1.033Zm9.608 0h3.203V3.685h-3.72l.517.568v.465Zm0 5.423h3.203V9.11h-3.72l.517.569v.464Zm0-5.062h3.203v1.033h-3.72l.517-.568v-.465Zm0 5.372h3.203v1.033h-3.72l.517-.568v-.465Zm-9.608-.31h3.306V9.11H2.5v1.034Zm0-4.029h3.306V5.081H2.5v1.033Zm0 5.373h3.306v-1.033H2.5v1.033Zm0-8.111h12.604l-1.033-1.033H2.5v1.033Zm0 5.372h12.811l-1.033-1.033H2.5v1.033Zm0-2.375h12.811l-1.033 1.033H2.5V6.373Zm0 5.372h12.604l-1.033 1.033H2.5v-1.033Zm0 1.343h11.261l-1.033 1.033H2.5v-1.033Z" fill="currentColor"/></svg>