<svg xmlns="http://www.w3.org/2000/svg" viewBox="0 0 16 16" fill="none"><path fill-rule="evenodd" clip-rule="evenodd" d="M7.99.99A8.002 8.002 0 0 1 16 9.02c0 4.393-3.618 8.011-8.073 7.99C3.618 16.968 0 13.413 0 9 0 4.566 3.556.968 7.99.99ZM1.903 13.182c0 .084.042.125.084.188.314.44.67.858 1.088 1.213.188.168.376.335.585.481.586.377 1.192.732 1.862.962a7.796 7.796 0 0 0 1.673.398c.439.041.9.062 1.338 0 .251-.042.523-.042.774-.147.042.021.063-.02.084-.02a6.739 6.739 0 0 0 1.527-.46c1.631-.712 2.865-1.862 3.66-3.452a7.236 7.236 0 0 0 .71-4.434 7.055 7.055 0 0 0-1.84-3.869C12.11 2.515 10.395 1.72 8.366 1.595a6.755 6.755 0 0 0-2.656.355 7.383 7.383 0 0 0-3.493 2.406C1.15 5.674.627 7.18.565 8.853c-.021.419.02.816.083 1.234.126.942.44 1.84.92 2.657.126.125.21.292.335.439Z" fill="currentColor"/><path fill-rule="evenodd" clip-rule="evenodd" d="M9.31 16.258c-.25.125-.523.125-.774.146-.439.063-.899.042-1.338 0a7.79 7.79 0 0 1-1.673-.397c-.67-.23-1.276-.586-1.862-.962-.209-.147-.397-.314-.586-.481A6.645 6.645 0 0 1 1.99 13.35c-.042-.063-.084-.126-.084-.189.502-1.13.69-2.321.795-3.534.042-.565.063-1.13.167-1.694.105-.649.356-1.234.816-1.736.418-.44.941-.732 1.506-.942.46-.188.941-.355 1.464-.376.481-.02.941.042 1.401.146.69.168 1.38.377 2.029.69.523.21 1.067.419 1.61.586.565.168 1.13.356 1.61.711.607.46.775 1.046.503 1.757-.167.44-.481.774-.795 1.109-.565.585-1.171 1.13-1.715 1.736-.627.732-1.192 1.485-1.59 2.363-.334.732-.522 1.485-.397 2.28Zm4.037-6.881c-.021 0-.042 0-.063.02-.02 0-.042.022-.042.042v.021c.021 0 .042-.02.042-.041l.063-.042c.042 0 .02 0 0 0Zm-6.4-3.64c-.795 0-1.443.649-1.443 1.423 0 .795.648 1.422 1.422 1.443.795 0 1.422-.648 1.443-1.443a1.41 1.41 0 0 0-1.422-1.423Zm1.171 4.393c.126.188.356.355.627.439.544.188 1.088.188 1.632.084.962-.189 1.861-.523 2.677-1.067.042-.042.126-.042.146-.126-.041-.02-.062 0-.083.021a6.498 6.498 0 0 1-.858.419 7.104 7.104 0 0 1-2.384.564c-.607.042-1.213 0-1.757-.334Zm3.953-1.234c.167 0 .314-.147.314-.335a.298.298 0 0 0-.335-.293c-.167 0-.293.147-.293.314 0 .188.126.314.314.314Z" fill="#B2B5CC"/><path fill-rule="evenodd" clip-rule="evenodd" d="M8.035 5.026c-.46-.084-.92-.168-1.402-.147-.523.021-.983.189-1.464.377-.564.209-1.087.502-1.506.94-.46.482-.71 1.068-.815 1.737-.084.565-.105 1.13-.168 1.694-.104 1.213-.292 2.426-.794 3.535-.147-.126-.23-.314-.314-.46a7.057 7.057 0 0 1-.92-2.657 6.124 6.124 0 0 1-.084-1.234c.063-1.673.586-3.179 1.652-4.496.92-1.15 2.092-1.946 3.493-2.406a7.623 7.623 0 0 1 2.656-.355c2.008.125 3.723.941 5.083 2.426a7.346 7.346 0 0 1 1.84 3.87c.23 1.547 0 3.032-.711 4.433-.795 1.59-2.029 2.74-3.66 3.451a6.09 6.09 0 0 1-1.527.46c-.042 0-.063.063-.084.021-.125-.794.063-1.547.377-2.28.397-.878.962-1.63 1.59-2.363.522-.606 1.129-1.171 1.715-1.736.334-.334.627-.67.794-1.108.293-.711.126-1.297-.502-1.757-.48-.356-1.046-.544-1.61-.711a21.063 21.063 0 0 1-1.61-.586c-.105-.356-.356-.586-.69-.711-.44-.105-.88-.063-1.34.063Zm6.839 4.455h.042c.083-.293.083-.607.083-.92a6.21 6.21 0 0 0-.104-1.067 5.993 5.993 0 0 0-1.569-3.012c-.502-.523-1.067-.962-1.631-1.422-.502-.419-1.046-.732-1.674-.9-.606-.146-1.192-.23-1.82-.125-.04 0-.083 0-.083.042 0 .041.042.041.084.041.92.168 1.799.46 2.656.795.837.335 1.548.816 2.07 1.569.356.523.69 1.067.963 1.652.355.795.627 1.61.795 2.447.083.335.146.607.188.9Z" fill="transparent"/><path fill-rule="evenodd" clip-rule="evenodd" d="M6.943 5.737c.795 0 1.422.649 1.422 1.423 0 .794-.648 1.422-1.443 1.443A1.428 1.428 0 0 1 5.5 7.16c0-.795.648-1.423 1.443-1.423ZM7.947 7.18a.991.991 0 0 0-1.004-1.003A.991.991 0 0 0 5.94 7.18c0 .544.44 1.004.983 1.004h.021c.544 0 .983-.439 1.004-1.004Z" fill="#FCFDFB"/><path fill-rule="evenodd" clip-rule="evenodd" d="M8.115 10.13c.544.334 1.15.376 1.757.355a6.636 6.636 0 0 0 2.384-.564c.293-.126.586-.251.858-.419.02-.02.041-.042.083-.02-.02.062-.083.083-.146.125-.816.544-1.715.878-2.677 1.066-.544.105-1.109.105-1.632-.083-.272-.105-.523-.272-.627-.46ZM8.03 5.026c.44-.125.9-.167 1.339 0 .334.126.585.356.69.711-.627-.334-1.318-.543-2.029-.71Zm4.042 3.869a.322.322 0 0 1-.314-.314c0-.167.125-.313.293-.313.167 0 .313.125.334.292-.02.189-.146.335-.313.335Zm1.212.523c0 .02-.02.042-.042.042 0-.042.021-.063.042-.042Zm.063-.042-.063.042-.02-.021c.04-.021.062-.021.083-.021Z" fill="currentColor"/><path fill-rule="evenodd" clip-rule="evenodd" d="M14.867 9.48c-.062-.292-.125-.564-.167-.857-.167-.858-.46-1.673-.795-2.447a8.734 8.734 0 0 0-.962-1.652c-.523-.753-1.213-1.234-2.07-1.569-.879-.335-1.736-.648-2.657-.795-.041 0-.083 0-.083-.042 0-.041.042-.041.083-.041.607-.105 1.214-.042 1.82.125.628.167 1.171.502 1.673.9.565.46 1.13.899 1.632 1.422a5.995 5.995 0 0 1 1.568 3.011c.063.356.105.711.105 1.067 0 .293 0 .607-.084.92l-.063-.042Z" fill="#FFFEFC"/><path fill-rule="evenodd" clip-rule="evenodd" d="M7.945 7.18c0 .544-.439 1.004-.983 1.004h-.02c-.544 0-1.005-.44-1.005-1.004v-.02c0-.566.46-1.005 1.004-1.005s1.004.46 1.004 1.025Z" fill="currentColor"/></svg>