<svg viewBox="0 0 15 14" fill="none" xmlns="http://www.w3.org/2000/svg"><path d="M1.105 14h6.937c1.444 0 2.685-.28 3.722-.84a5.727 5.727 0 0 0 2.396-2.414c.56-1.048.84-2.301.84-3.76 0-1.453-.28-2.702-.84-3.746a5.715 5.715 0 0 0-2.382-2.4C10.745.28 9.514 0 8.083 0H5a2 2 0 0 0-2 2v6.96a.5.5 0 0 0 .812.39L7.11 6.712A.4.4 0 0 0 6.86 6h-.453a.4.4 0 0 1-.4-.4V3.536a1 1 0 0 1 1-1h.917c.888 0 1.636.155 2.243.465.606.31 1.062.793 1.368 1.45.31.655.465 1.5.465 2.535 0 1.044-.155 1.896-.465 2.557-.306.656-.764 1.142-1.375 1.456-.607.31-1.354.465-2.243.465H6l-2.858.034a.4.4 0 0 0-.251.093L.849 13.293a.4.4 0 0 0 .256.707Z" fill="currentColor"/></svg>