<svg viewBox="0 0 27 20" fill="none" xmlns="http://www.w3.org/2000/svg"><path d="M22.51 1.873A22.117 22.117 0 0 0 17.218.299a.083.083 0 0 0-.05.006.08.08 0 0 0-.035.033c-.229.39-.482.898-.66 1.297a20.631 20.631 0 0 0-5.943 0A12.89 12.89 0 0 0 9.86.338a.082.082 0 0 0-.036-.032.087.087 0 0 0-.049-.007 22.058 22.058 0 0 0-5.292 1.574.075.075 0 0 0-.035.029C1.078 6.729.155 11.439.608 16.09a.083.083 0 0 0 .033.058 21.931 21.931 0 0 0 6.492 3.146.088.088 0 0 0 .05 0 .084.084 0 0 0 .042-.028 14.7 14.7 0 0 0 1.328-2.071.077.077 0 0 0-.016-.093.084.084 0 0 0-.03-.017 14.59 14.59 0 0 1-2.027-.927.078.078 0 0 1-.008-.133c.136-.098.27-.198.402-.302a.082.082 0 0 1 .084-.011c4.255 1.862 8.862 1.862 13.067 0a.082.082 0 0 1 .085.01c.132.104.267.205.404.303a.08.08 0 0 1 .033.069.078.078 0 0 1-.04.064c-.648.363-1.327.672-2.03.926a.083.083 0 0 0-.047.046.077.077 0 0 0 .003.065c.39.72.833 1.412 1.327 2.07a.083.083 0 0 0 .092.03 21.863 21.863 0 0 0 6.502-3.147.078.078 0 0 0 .034-.057c.542-5.377-.908-10.048-3.844-14.188a.065.065 0 0 0-.034-.03ZM9.188 13.258c-1.28 0-2.336-1.128-2.336-2.513 0-1.384 1.035-2.512 2.336-2.512 1.312 0 2.357 1.138 2.337 2.512 0 1.385-1.035 2.513-2.337 2.513Zm8.64 0c-1.281 0-2.337-1.128-2.337-2.513 0-1.384 1.035-2.512 2.337-2.512 1.311 0 2.357 1.138 2.336 2.512 0 1.385-1.025 2.513-2.336 2.513Z" fill="currentColor"/></svg>