<svg viewBox="0 0 20 20" fill="none" xmlns="http://www.w3.org/2000/svg"><g stroke="currentColor" stroke-width="2"><path d="M19 13.8c-.3-6.9-2.3-9.7-2.8-10-1.1-.6-3-.8-3.3-.8-.4 0-.5.1-.6.4-.1.3-.1.5-.2.7-.1.2-.3.3-.6.1-.5-.3-2.4-.3-2.9 0-.4.1-.6.1-.7-.1 0-.2-.1-.4-.2-.7 0-.3-.2-.4-.6-.4-.3 0-2.2.2-3.3.8-.5.3-2.5 3.1-2.8 10 .1.5.3.8.7 1.1.4.3 2.9 1.4 3.3 1.5.4.1.8.2 1-.1.2-.3.5-.9.7-1.1.1-.3.4-.5.7-.4 1.7.8 4.3.6 5.3 0 .3-.1.6.1.7.4.1.3.5.8.7 1.1.2.3.6.3 1 .1.4-.1 2.9-1.3 3.3-1.5.3-.3.5-.6.6-1.1Z"/><path d="M13.198 12.3c.995 0 1.8-.94 1.8-2.1 0-1.16-.805-2.1-1.8-2.1-.994 0-1.8.94-1.8 2.1 0 1.16.806 2.1 1.8 2.1Zm-6.296 0c.994 0 1.8-.94 1.8-2.1 0-1.16-.806-2.1-1.8-2.1-.995 0-1.8.94-1.8 2.1 0 1.16.805 2.1 1.8 2.1Z"/></g></svg>