<svg xmlns="http://www.w3.org/2000/svg" viewBox="0 0 16 16" fill="none"><g clip-path="url(#clip0_19642_41717)"><path d="M3.352 7.599a.67.67 0 0 1 .674-.67l1.118.003a.672.672 0 0 1 .671.671v4.226c.126-.038.288-.078.464-.12a.56.56 0 0 0 .432-.544v-5.24a.672.672 0 0 1 .672-.673h1.12a.672.672 0 0 1 .671.672v4.864s.28-.113.553-.228a.56.56 0 0 0 .343-.516v-5.8a.672.672 0 0 1 .671-.67h1.12a.672.672 0 0 1 .672.67V9.02c.97-.704 1.954-1.55 2.735-2.567a1.126 1.126 0 0 0 .171-1.053 7.908 7.908 0 1 0-14.326 6.535 1 1 0 0 0 .954.494c.212-.018.476-.045.79-.082a.56.56 0 0 0 .495-.555V7.6Zm-.024 6.777a7.91 7.91 0 0 0 12.564-6.399 8.8 8.8 0 0 0-.02-.541c-2.891 4.31-8.228 6.325-12.544 6.939" fill="currentColor"/></g><defs><clipPath id="clip0_19642_41717"><rect width="16" height="16" fill="transparent"/></clipPath></defs></svg>