<svg xmlns="http://www.w3.org/2000/svg" fill="none" viewBox="0 0 16 16"><path stroke="currentColor" stroke-linecap="round" stroke-linejoin="round" stroke-width="1.6" d="M9.586 14.611a.32.32 0 0 0 .41.307 7.2 7.2 0 1 0-3.994 0 .32.32 0 0 0 .41-.307v-1.504a1.798 1.798 0 0 1-2.208-1.1 3.885 3.885 0 0 0-.87-1.46c1.823.442 1.855 1.626 3.097 1.069a2.56 2.56 0 0 1 .403-1.165c-1.408-.16-2.892-.384-2.892-2.816a2.458 2.458 0 0 1 .64-1.703 2.279 2.279 0 0 1 .064-1.676s.53-.173 1.747.64a6.008 6.008 0 0 1 3.2 0c1.209-.82 1.74-.64 1.74-.64.234.53.257 1.13.064 1.676a2.45 2.45 0 0 1 .64 1.703c0 2.438-1.485 2.656-2.9 2.81.304.436.457.96.436 1.49l.013 2.676Z" clip-rule="evenodd"/></svg>