<svg width="16" height="16" viewBox="0 0 16 16" fill="currentColor" xmlns="http://www.w3.org/2000/svg"><path fill-rule="evenodd" clip-rule="evenodd" d="M8 0C3.58 0 0 3.58 0 8a8.001 8.001 0 0 0 5.471 7.591c.401.073.547-.172.547-.385 0-.19-.008-.693-.01-1.36-2.227.482-2.696-1.073-2.696-1.073-.364-.924-.888-1.171-.888-1.171-.726-.495.055-.485.055-.485.802.057 1.224.823 1.224.823.714 1.224 1.873.87 2.328.667.073-.518.282-.87.508-1.07-1.776-.201-3.643-.889-3.643-3.954a3.1 3.1 0 0 1 .823-2.148c-.081-.2-.357-1.016.078-2.117 0 0 .672-.214 2.2.82A7.658 7.658 0 0 1 8 3.87c.68.002 1.365.09 2.003.268 1.528-1.034 2.197-.82 2.197-.82.438 1.101.165 1.916.081 2.117.513.56.82 1.273.82 2.148 0 3.073-1.87 3.748-3.65 3.948.286.245.541.735.541 1.48 0 1.07-.008 1.932-.008 2.195 0 .213.144.463.55.385A8.002 8.002 0 0 0 16 8c0-4.42-3.58-8-8-8Z" fill="currentColor"/></svg>