<svg xmlns="http://www.w3.org/2000/svg" viewBox="0 0 16 16" fill="none"><path d="M15.266 4.493c-.688-1.452-2.092-2.457-3.674-2.576a4.211 4.211 0 0 0-2.274.411 4.22 4.22 0 0 0-1.238.941c-.724-.82-1.747-1.358-2.852-1.414C2.907 1.715.906 3.22.418 5.551c-.296 1.397.027 2.856.669 4.085.64 1.213 1.574 2.29 2.79 2.924.848.413 1.643-.635 1.023-1.367a6.128 6.128 0 0 1-.546-.708 7.035 7.035 0 0 1-.42-.73c-.349-.716-.61-1.522-.661-2.316-.03-.505.036-.94.245-1.38.199-.409.52-.761.942-.927.656-.249 1.341-.115 1.84.423.324.334.473.801.638 1.232l.04.091c.33 1.017 1.84 1.042 2.123-.114l.026-.12.005-.018.004-.02a2.376 2.376 0 0 1 .612-1.14c.34-.345.77-.554 1.243-.507.265.015.563.087.778.203 1.207.655 1.08 2.374.564 3.507-.364.793-.946 1.457-1.59 2.03-.16.142-.343.298-.508.43-.756.587-.95 1.7-.352 2.497.642.876 1.919.919 2.653.14.144-.143.283-.291.42-.44 1.385-1.546 2.643-3.841 2.838-5.956a5.56 5.56 0 0 0-.529-2.877Z" fill="currentColor"/></svg>