<?xml version="1.0" standalone="no"?>
<!DOCTYPE svg PUBLIC "-//W3C//DTD SVG 20010904//EN"
 "http://www.w3.org/TR/2001/REC-SVG-20010904/DTD/svg10.dtd">
<svg version="1.0" xmlns="http://www.w3.org/2000/svg"
 width="67.000000pt" height="67.000000pt" viewBox="0 0 67.000000 67.000000"
 preserveAspectRatio="xMidYMid meet">

<g transform="translate(0.000000,67.000000) scale(0.100000,-0.100000)"
fill="currentColor" stroke="none">
<path d="M257 660 c-98 -25 -182 -95 -225 -189 -38 -80 -38 -192 0 -272 33
-72 95 -134 167 -167 80 -38 192 -38 272 0 72 33 134 95 167 167 38 80 38 192
0 272 -52 113 -157 186 -280 194 -34 2 -80 0 -101 -5z m113 -141 c0 -11 14
-32 30 -46 37 -31 60 -73 60 -109 0 -34 -45 -94 -71 -94 -10 0 -19 -4 -19 -10
0 -15 36 -12 50 5 11 13 102 45 129 45 6 0 11 -11 11 -25 0 -14 -5 -25 -10
-25 -6 0 -26 -22 -46 -50 l-36 -50 -134 0 c-132 0 -134 0 -164 28 -20 17 -33
40 -37 65 l-6 37 59 0 c48 0 61 -4 72 -20 12 -20 62 -28 62 -10 0 6 -11 10
-25 10 -30 0 -31 5 -5 63 l21 46 -21 60 c-26 78 -26 85 5 77 18 -5 25 -2 25 9
0 9 9 15 25 15 19 0 25 -5 25 -21z m-86 -102 c6 -30 6 -58 0 -75 -9 -25 -15
-27 -67 -30 -71 -4 -72 3 -16 93 50 79 70 82 83 12z"/>
</g>
</svg>
