<svg viewBox="0 0 17 16" fill="none" xmlns="http://www.w3.org/2000/svg"><path d="m2.157 9 .05-.079 3.039-4.753a.104.104 0 0 1 .182.013c.508 1.138.946 2.553.74 3.433-.087.363-.327.854-.597 1.307a2.327 2.327 0 0 1-.114.193.103.103 0 0 1-.087.046H2.246a.104.104 0 0 1-.09-.16Z" fill="currentColor"/><path d="M15.7 9.884v.752a.108.108 0 0 1-.065.099c-.235.1-1.04.47-1.375.936-.854 1.189-1.507 2.89-2.966 2.89H5.206A3.912 3.912 0 0 1 1.3 10.64v-.07c0-.057.047-.104.104-.104h3.394c.067 0 .116.062.11.128-.024.221.017.447.122.652.201.41.619.665 1.07.665h1.68V10.6H6.12a.107.107 0 0 1-.087-.168l.06-.089c.157-.223.381-.57.605-.964a7.506 7.506 0 0 0 .481-.993c.032-.091.066-.176.09-.261.024-.073.043-.148.062-.219.057-.242.08-.5.08-.765a3.52 3.52 0 0 0-.014-.319 4.123 4.123 0 0 0-.033-.342c-.01-.1-.028-.2-.047-.304a5.134 5.134 0 0 0-.096-.456l-.013-.058c-.03-.104-.053-.204-.087-.308a11.636 11.636 0 0 0-.319-.946 6.263 6.263 0 0 0-.138-.347c-.07-.171-.143-.327-.209-.475a6.643 6.643 0 0 1-.091-.19 6.718 6.718 0 0 0-.1-.21c-.024-.051-.051-.1-.07-.147l-.206-.38a.067.067 0 0 1 .076-.096l1.284.347h.004l.004.002.17.046.186.053.068.02v-.764c0-.368.295-.667.66-.667.182 0 .348.075.467.196a.67.67 0 0 1 .193.471V3.4l.137.038a.11.11 0 0 1 .031.016l.143.108c.048.038.1.085.162.133a9.794 9.794 0 0 1 .557.49c.208.194.442.422.666.674.062.071.123.143.186.219.062.076.128.152.186.228.075.1.157.205.228.314.033.052.072.104.104.156.091.138.172.28.248.424.033.066.066.138.095.208.085.191.153.386.196.58a.723.723 0 0 1 .027.129v.01c.015.057.02.118.024.18a1.938 1.938 0 0 1-.104.85c-.029.082-.058.167-.095.247a3.352 3.352 0 0 1-.258.49c-.032.057-.07.118-.109.176l-.124.175a3.508 3.508 0 0 1-.166.215 7.847 7.847 0 0 1-.4.475 2.67 2.67 0 0 1-.152.166 6.107 6.107 0 0 1-.356.352l-.133.12a.108.108 0 0 1-.07.027H9.1v1.312h1.286c.288 0 .562-.102.783-.29.075-.066.405-.351.795-.782a.1.1 0 0 1 .05-.03l3.553-1.027a.105.105 0 0 1 .133.1Z" fill="currentColor"/></svg>