<svg viewBox="0 0 16 16" fill="none" xmlns="http://www.w3.org/2000/svg"><g clip-path="url(#clip0_23535_109271)"><path d="M16 8A8 8 0 1 1 0 8a8 8 0 0 1 16 0Z" fill="currentColor"/><path d="m3.947 8.269.035-.054 2.081-3.256a.071.071 0 0 1 .125.009c.348.78.648 1.748.507 2.352-.06.248-.224.584-.41.895-.023.045-.05.09-.077.132a.07.07 0 0 1-.06.031h-2.14a.071.071 0 0 1-.06-.11Z" fill="white"/><path d="M13.223 8.874v.515c0 .03-.019.056-.045.067-.161.07-.713.323-.942.642-.585.814-1.032 1.979-2.032 1.979h-4.17A2.68 2.68 0 0 1 3.36 9.392v-.047c0-.04.032-.072.072-.072h2.324c.046 0 .08.043.076.088a.793.793 0 0 0 .083.446c.138.28.424.456.733.456h1.15v-.899H6.66a.073.073 0 0 1-.059-.115l.041-.06a8.29 8.29 0 0 0 .414-.661c.105-.183.206-.378.287-.573.017-.036.03-.072.043-.107.022-.063.045-.12.062-.18.016-.049.03-.1.042-.149a2.316 2.316 0 0 0 .046-.742c-.004-.078-.014-.156-.023-.234a2.426 2.426 0 0 0-.032-.209 3.518 3.518 0 0 0-.066-.312l-.01-.04c-.019-.071-.035-.14-.058-.211a7.967 7.967 0 0 0-.22-.648 3.074 3.074 0 0 0-.094-.237c-.048-.118-.097-.225-.143-.326a4.46 4.46 0 0 1-.062-.13 4.652 4.652 0 0 0-.068-.143c-.017-.036-.036-.069-.049-.102l-.14-.26a.046.046 0 0 1 .051-.066l.88.239h.006l.116.032.127.037.047.013v-.523c0-.252.202-.457.452-.457.125 0 .238.05.32.134a.46.46 0 0 1 .132.323v.776l.094.026a.075.075 0 0 1 .021.01l.098.075c.033.026.068.058.11.091a6.73 6.73 0 0 1 .382.335 6.774 6.774 0 0 1 .584.612c.042.052.088.104.127.156.052.07.108.14.156.215.023.036.05.072.072.107a2.262 2.262 0 0 1 .235.433 2.09 2.09 0 0 1 .153.485v.007c.01.04.013.081.016.124a1.326 1.326 0 0 1-.071.582c-.02.056-.04.114-.065.17-.05.114-.108.228-.177.335a1.4 1.4 0 0 1-.075.12l-.085.12c-.036.05-.074.102-.114.148a5.333 5.333 0 0 1-.274.325 1.702 1.702 0 0 1-.104.113c-.035.04-.071.075-.104.108a4.18 4.18 0 0 1-.14.133l-.09.083a.074.074 0 0 1-.049.018h-.7v.899h.881c.197 0 .385-.07.536-.198.052-.045.278-.241.545-.536a.062.062 0 0 1 .034-.02l2.433-.704a.072.072 0 0 1 .091.069Z" fill="white"/></g><defs><clipPath id="clip0_23535_109271"><rect width="16" height="16" fill="white"/></clipPath></defs></svg>