<svg xmlns="http://www.w3.org/2000/svg" viewBox="0 0 16 16" fill="none"><path d="m11.769 10.805 3.687-2.123a.633.633 0 0 0 .317-.547V3.888a.633.633 0 0 0-.317-.546L11.77 1.219a.636.636 0 0 0-.633 0L7.45 3.342a.633.633 0 0 0-.316.546v7.589l-2.586 1.488-2.586-1.488V8.499l2.586-1.488 1.706.981V5.995l-1.39-.8a.636.636 0 0 0-.632 0L.543 7.32a.633.633 0 0 0-.316.546v4.246c0 .225.12.434.316.547L4.23 14.78a.637.637 0 0 0 .633 0l3.687-2.123a.633.633 0 0 0 .317-.546V4.523l.046-.026 2.54-1.462 2.585 1.489V7.5l-2.586 1.49-1.702-.98v1.997l1.387.799a.637.637 0 0 0 .633 0v-.001Z" fill="currentColor"/></svg>