<svg width="16" height="16" viewBox="0 0 16 16" fill="none" xmlns="http://www.w3.org/2000/svg">
  <g clip-path="url(#clip0_22708_135896)">
    <path
      d="M7.99592 14.1501C11.2599 14.1501 13.9059 12.3265 13.9059 10.077C13.9059 7.82749 11.2599 6.00391 7.99592 6.00391C4.73193 6.00391 2.08594 7.82749 2.08594 10.077C2.08594 12.3265 4.73193 14.1501 7.99592 14.1501Z"
      stroke="currentColor" stroke-width="1.6" stroke-linecap="round" stroke-linejoin="round" />
    <path
      d="M10.2459 11.8281C9.60694 12.2275 8.80829 12.3872 8.00965 12.3872C7.211 12.3872 6.49222 12.2275 5.77344 11.8281"
      stroke="currentColor" stroke-width="1.6" stroke-linecap="round" stroke-linejoin="round" />
    <path
      d="M10.9662 9.10809C10.9662 9.34768 10.7266 9.58728 10.487 9.58728C10.2474 9.58728 10.0078 9.34769 10.0078 9.10809C10.0078 8.8685 10.2474 8.62891 10.487 8.62891C10.7266 8.62891 10.9662 8.8685 10.9662 9.10809Z"
      stroke="currentColor" stroke-width="1.6" stroke-linecap="round" stroke-linejoin="round"
      stroke-dasharray="3.2 3.2" />
    <path
      d="M6.00524 9.10809C6.00524 9.34768 5.76565 9.58728 5.52606 9.58728C5.28647 9.58728 5.04688 9.34769 5.04688 9.10809C5.04688 8.8685 5.28647 8.62891 5.52606 8.62891C5.76565 8.62891 6.00524 8.8685 6.00524 9.10809Z"
      stroke="currentColor" stroke-width="1.6" stroke-linecap="round" stroke-linejoin="round"
      stroke-dasharray="3.2 3.2" />
    <path
      d="M12.2578 7.23893C12.665 6.46571 13.5295 6.16122 14.3165 6.55473C15.1152 6.95405 15.4347 7.83256 15.0353 8.63121C14.7992 9.10349 14.4079 9.42061 13.8614 9.50612"
      stroke="currentColor" stroke-width="1.6" stroke-linecap="round" stroke-linejoin="round" />
    <path
      d="M12.7952 4.56305C13.545 4.56305 14.1529 3.95519 14.1529 3.20535C14.1529 2.45552 13.545 1.84766 12.7952 1.84766C12.0454 1.84766 11.4375 2.45552 11.4375 3.20535C11.4375 3.95519 12.0454 4.56305 12.7952 4.56305Z"
      stroke="currentColor" stroke-width="1.6" stroke-linecap="round" stroke-linejoin="round" />
    <path
      d="M3.7541 7.2389C3.34695 6.46571 2.48239 6.16122 1.69538 6.55472C0.896736 6.95404 0.57728 7.83256 0.9766 8.6312C1.21277 9.10353 1.60412 9.42068 2.15066 9.50614"
      stroke="currentColor" stroke-width="1.6" stroke-linecap="round" stroke-linejoin="round" />
    <path d="M8.00781 6.00032C8.02893 5.42313 8.28699 1.9388 11.4401 2.9654" stroke="currentColor" stroke-width="1.6"
      stroke-linecap="round" stroke-linejoin="round" />
  </g>
  <defs>
    <clipPath id="clip0_22708_135896">
      <rect width="16" height="16" rx="3.2" fill="white" />
    </clipPath>
  </defs>
</svg>