<svg width="16" height="16" viewBox="0 0 16 16" fill="none" xmlns="http://www.w3.org/2000/svg"><g clip-path="url(#clip0_22708_135896)"><path d="M7.996 14.15c3.264 0 5.91-1.824 5.91-4.073 0-2.25-2.646-4.073-5.91-4.073-3.264 0-5.91 1.823-5.91 4.073 0 2.25 2.646 4.073 5.91 4.073Z" stroke="currentColor" stroke-width="1.6" stroke-linecap="round" stroke-linejoin="round"/><path d="M10.246 11.828c-.64.4-1.438.56-2.236.56-.799 0-1.518-.16-2.237-.56" stroke="currentColor" stroke-width="1.6" stroke-linecap="round" stroke-linejoin="round"/><path d="M10.966 9.108c0 .24-.24.48-.479.48-.24 0-.48-.24-.48-.48s.24-.48.48-.48.48.24.48.48ZM6.005 9.108c0 .24-.24.48-.479.48-.24 0-.48-.24-.48-.48s.24-.48.48-.48.48.24.48.48Z" stroke="currentColor" stroke-width="1.6" stroke-linecap="round" stroke-linejoin="round" stroke-dasharray="3.2 3.2"/><path d="M12.258 7.239c.407-.773 1.272-1.078 2.059-.684.798.399 1.118 1.278.718 2.076-.236.472-.627.79-1.174.875M12.795 4.563a1.358 1.358 0 1 0 0-2.715 1.358 1.358 0 0 0 0 2.715ZM3.754 7.239c-.407-.773-1.272-1.078-2.059-.684C.897 6.954.577 7.833.977 8.63c.236.473.627.79 1.174.875" stroke="currentColor" stroke-width="1.6" stroke-linecap="round" stroke-linejoin="round"/><path d="M8.008 6c.02-.577.279-4.061 3.432-3.035" stroke="currentColor" stroke-width="1.6" stroke-linecap="round" stroke-linejoin="round"/></g><defs><clipPath id="clip0_22708_135896"><rect width="16" height="16" rx="3.2" fill="white"/></clipPath></defs></svg>